<svg xmlns="http://www.w3.org/2000/svg" xml:space="preserve" style="fill-rule:evenodd;clip-rule:evenodd;stroke-linejoin:round;stroke-miterlimit:2" viewBox="0 0 512 512"><path d="M511.501 122.18C511.501 54.747 456.754 0 389.321 0H122.679C55.246 0 .499 54.747.499 122.18v267.64C.499 457.253 55.246 512 122.679 512h266.642c67.433 0 122.18-54.747 122.18-122.18z" style="fill:#00005b"/><path d="M124.796 354.279V139.564c0-1.461.625-2.295 2.084-2.295l3.022-.005 2.339-.02 1.65-.031 1.757-.045 1.888-.067 1.005-.041c1.875-.078 3.778-.127 5.721-.168l5.965-.125q1.017-.024 2.052-.055l2.089-.069q2.811-.101 5.763-.156l6.039-.108 4.18-.092 2.138-.062c4.303-.137 8.514-.184 12.694-.2l6.256-.008c17.078 0 31.238 2.086 42.902 6.468a74.36 74.36 0 0 1 27.906 17.111 66.5 66.5 0 0 1 15.203 23.787c3.124 8.764 4.79 17.737 4.79 27.127q0 26.917-12.496 44.446c-8.331 11.684-19.993 20.448-33.529 25.456-13.69 5.043-28.741 6.964-45.155 7.087h-5.953l-2.317-.023-1.486-.035-.875-.038-.785-.047-.7-.058q-.675-.066-1.352-.102l-1.015-.045-1.113-.029-1.856-.026-3.618-.008v66.981c.207 1.462-.834 2.714-2.292 2.923h-40.401c-1.666 0-2.5-.835-2.5-2.713m45.4-176.739v70.111l2.448.176q2.832.218 5.674.243h11.039c8.122 0 16.244-1.252 23.948-3.756 6.665-1.878 12.495-5.843 17.078-11.061 4.373-5.215 6.456-12.31 6.456-21.491a34.4 34.4 0 0 0-4.791-18.572c-3.391-5.198-8.124-9.247-13.827-11.597l-.75-.297c-7.706-3.13-16.037-4.382-24.575-4.173l-4.814.006-2.263.014-2.161.029-2.052.047a100 100 0 0 0-2.87.114 76 76 0 0 0-1.344-.055l-1.247-.027-.586-.004-1.105.006-1.004.027-.464.02-.853.048-.75.059-.338.031-.592.069zm141.198 12.103h36.445c1.966 0 3.564 1.303 4.261 3.03l.113.31a21.2 21.2 0 0 1 1.249 5.215c.416 2.087.834 4.382 1.041 6.469l.176 2.019c.136 1.723.242 3.556.242 5.493a77.5 77.5 0 0 1 21.125-17.311l1.158-.633c9.58-5.427 20.617-8.138 31.654-8.138 1.458-.21 2.708.833 2.917 2.294v41.525c0 1.669-1.043 2.295-3.333 2.295-6.997-.196-14.174.338-21.027 1.766l-1.465.321a85.6 85.6 0 0 0-17.493 5.634c-3.958 1.878-7.706 4.382-10.621 7.719v106.418c0 2.088-.834 2.923-2.708 2.923h-41.026c-1.666.207-3.124-.835-3.333-2.504V238.054c0-5.008 0-10.225-.207-15.65l-.125-4.069-.168-8.138a291 291 0 0 0-.125-4.069c0-4.8-.416-9.39-.831-14.19-.209-1.043.415-2.085 1.456-2.295 0-.178.307-.203.525-.078z" style="fill:#99f;fill-rule:nonzero"/></svg>