<svg xmlns="http://www.w3.org/2000/svg" xml:space="preserve" style="fill-rule:evenodd;clip-rule:evenodd;stroke-linejoin:round;stroke-miterlimit:2" viewBox="0 0 512 512"><path d="M511.501 122.18C511.501 54.747 456.754 0 389.321 0H122.679C55.246 0 .499 54.747.499 122.18v267.64C.499 457.253 55.246 512 122.679 512h266.642c67.433 0 122.18-54.747 122.18-122.18z" style="fill:#001e36"/><path d="M268.633 357.387H135.968q-3.37 0-3.367-3.712V139.448a2.708 2.708 0 0 1 2.668-3.062q.182 0 .362.025h41.079q.138-.02.278-.019a2.11 2.11 0 0 1 2.079 2.382v176.108h96.636q3.029 0 2.358 3.035l-6.062 36.435a3.23 3.23 0 0 1-1.347 2.531 4.5 4.5 0 0 1-2.019.506zm33.331-167.674h36.702a4.58 4.58 0 0 1 4.376 3.375 16.3 16.3 0 0 1 1.686 4.723 55 55 0 0 1 1.008 6.579 82 82 0 0 1 .337 7.591 78.7 78.7 0 0 1 22.391-18.05 62.96 62.96 0 0 1 31.147-7.591 2.708 2.708 0 0 1 3.03 3.038V230.2q0 2.362-3.367 2.361a84.95 84.95 0 0 0-39.564 7.084 35.7 35.7 0 0 0-11.28 7.76v106.947q0 3.036-2.694 3.035h-40.743a3 3 0 0 1-.408.029 3.004 3.004 0 0 1-2.958-3.402V237.958q0-4.238-.055-8.756l-.069-4.585q-.02-1.165-.045-2.346a828 828 0 0 0-.349-12.304l-.157-4.058a107 107 0 0 0-1.345-13.832 1.952 1.952 0 0 1 2.108-2.411z" style="fill:#31a8ff;fill-rule:nonzero"/></svg>