<svg xmlns="http://www.w3.org/2000/svg" xml:space="preserve" style="fill-rule:evenodd;clip-rule:evenodd;stroke-linejoin:round;stroke-miterlimit:2" viewBox="0 0 512 512"><g transform="matrix(1.026 0 0 1.024 256.5 255.999)"><clipPath id="d0018109a"><path d="M249.023-130.684C249.023-196.536 195.664-250 129.94-250h-261.833c-65.724 0-119.084 53.464-119.084 119.316v261.368c0 65.852 53.36 119.316 119.084 119.316H129.94c65.724 0 119.083-53.464 119.083-119.316z"/></clipPath><g clip-path="url(#d0018109a)"><g transform="translate(-250 -250)"><clipPath id="d0018109b"><path d="M0 0h500v500H0z"/></clipPath><g clip-path="url(#d0018109b)"><path d="M0 1524h434v434H0z" style="fill:none" transform="translate(0 -1755.76)scale(1.15207)"/><path d="M41 18h384v384H41z" style="fill:#1b72be" transform="translate(-53.385 -23.438)scale(1.30208)"/><path d="M191.365 168.116 241.84 255H176c-11.038 0-20-8.962-20-20 0-3.282.792-6.38 2.195-9.112zm8.623-15.018L281 12h149v243H259.188z" style="fill:#55d2fb" transform="translate(-36.458 -23.438)scale(1.30208)"/><path d="M443 271H155l82 144h206z" style="fill:#55d2fb" transform="translate(-53.385 -23.438)scale(1.30208)"/><path d="M220 415H29v-76L217 12h60L132 262z" style="fill:#55d2fb" transform="translate(-53.385 -23.438)scale(1.30208)"/></g></g></g></g></svg>