<svg xmlns="http://www.w3.org/2000/svg" xml:space="preserve" style="fill-rule:evenodd;clip-rule:evenodd;stroke-linejoin:round;stroke-miterlimit:2" viewBox="0 0 512 512"><path d="M581 191.18C581 123.747 526.253 69 458.82 69H191.18C123.747 69 69 123.747 69 191.18v267.64C69 526.253 123.747 581 191.18 581h267.64C526.253 581 581 526.253 581 458.82z" style="fill:#18051c" transform="translate(-69.001 -69.001)"/><path d="m711.27-424.688-8.019 125.923L626.58-463.88zm-53.105 162.825-57.933 33.056-57.934-33.056 11.783-28.556h92.301zm-57.933-139.342 30.357 73.803h-60.715zM497.13-298.765l-7.937-125.923 84.69-39.192z" style="fill:url(#a5d65ac2a);fill-rule:nonzero" transform="translate(-539.085 713.775)scale(1.32463)"/><defs><linearGradient id="a5d65ac2a" x1="0" x2="1" y1="0" y2="0" gradientTransform="matrix(982 0 0 982 0 192)" gradientUnits="userSpaceOnUse"><stop offset="0" style="stop-color:#f0060b;stop-opacity:1"/><stop offset="0" style="stop-color:#f0070c;stop-opacity:1"/><stop offset=".53" style="stop-color:#cc26d5;stop-opacity:1"/><stop offset="1" style="stop-color:#7702ff;stop-opacity:1"/></linearGradient></defs></svg>