<svg xmlns="http://www.w3.org/2000/svg" xml:space="preserve" style="fill-rule:evenodd;clip-rule:evenodd;stroke-linejoin:round;stroke-miterlimit:2" viewBox="0 0 512 512"><path d="M512 122.18C512 54.747 457.253 0 389.82 0H122.18C54.747 0 0 54.747 0 122.18v267.64C0 457.253 54.747 512 122.18 512h267.64C457.253 512 512 457.253 512 389.82z"/><path d="M348.627 243.464c.476 51.362 45.062 68.456 45.553 68.674-.377 1.202-7.122 24.358-23.486 48.271-14.147 20.676-28.831 41.275-51.957 41.707-22.725.415-30.033-13.48-56.017-13.48-25.975 0-34.092 13.048-55.606 13.895-22.326.847-39.327-22.361-53.591-42.957-29.145-42.139-51.418-119.074-21.511-171.006 14.856-25.79 41.411-42.119 70.231-42.539 21.921-.418 42.613 14.747 56.013 14.747 13.392 0 38.538-18.239 64.972-15.562 11.067.462 42.13 4.47 62.076 33.669-1.604.997-37.062 21.64-36.677 64.581M305.918 117.34c11.852-14.346 19.829-34.322 17.654-54.191-17.085.685-37.745 11.384-49.998 25.724-10.982 12.695-20.599 33.021-18.006 52.497 19.045 1.476 38.496-9.676 50.35-24.03" style="fill:#fff;fill-rule:nonzero"/></svg>