<svg xmlns="http://www.w3.org/2000/svg" xml:space="preserve" style="fill-rule:evenodd;clip-rule:evenodd;stroke-linejoin:round;stroke-miterlimit:2" viewBox="0 0 512 512"><path d="M512 122.18C512 54.747 457.253 0 389.82 0H122.18C54.747 0 0 54.747 0 122.18v267.64C0 457.253 54.747 512 122.18 512h267.64C457.253 512 512 457.253 512 389.82z" style="fill:#17191f"/><path d="M211.613 391.775c-14.474-13.23-18.699-41.029-12.669-61.169 10.456 12.698 24.943 16.72 39.949 18.991 23.166 3.504 45.917 2.193 67.437-8.395 2.462-1.213 4.737-2.824 7.427-4.457 2.019 5.858 2.544 11.772 1.839 17.792-1.715 14.66-9.01 25.984-20.614 34.568-4.64 3.434-9.55 6.503-14.342 9.741-14.722 9.95-18.706 21.618-13.174 38.589.132.416.25.829.547 1.838-7.517-3.365-13.008-8.264-17.191-14.704-4.419-6.796-6.521-14.315-6.632-22.451-.055-3.959-.055-7.954-.588-11.857-1.3-9.516-5.767-13.777-14.183-14.022-8.637-.252-15.469 5.088-17.281 13.497-.138.644-.339 1.282-.539 2.032z" style="fill:#fff;fill-rule:nonzero"/><path d="M211.613 391.775c-14.474-13.23-18.699-41.029-12.669-61.169 10.456 12.698 24.943 16.72 39.949 18.991 23.166 3.504 45.917 2.193 67.437-8.395 2.462-1.213 4.737-2.824 7.427-4.457 2.019 5.858 2.544 11.772 1.839 17.792-1.715 14.66-9.01 25.984-20.614 34.568-4.64 3.434-9.55 6.503-14.342 9.741-14.722 9.95-18.706 21.618-13.174 38.589.132.416.25.829.547 1.838-7.517-3.365-13.008-8.264-17.191-14.704-4.419-6.796-6.521-14.315-6.632-22.451-.055-3.959-.055-7.954-.588-11.857-1.3-9.516-5.767-13.777-14.183-14.022-8.637-.252-15.469 5.088-17.281 13.497-.138.644-.339 1.282-.539 2.032z" style="fill:url(#9063cb54a);fill-rule:nonzero"/><path d="M129.005 327.251s42.859-20.878 85.837-20.878l32.404-100.285c1.213-4.849 4.755-8.145 8.754-8.145s7.541 3.296 8.754 8.145l32.404 100.285c50.901 0 85.837 20.878 85.837 20.878s-72.799-198.317-72.941-198.715c-2.089-5.863-5.617-9.639-10.372-9.639h-87.356c-4.756 0-8.141 3.776-10.372 9.639-.158.391-72.949 198.715-72.949 198.715" style="fill:#fff;fill-rule:nonzero"/><defs><linearGradient id="9063cb54a" x1="0" x2="1" y1="0" y2="0" gradientTransform="rotate(-25.29 1077.179 -217.94)scale(154.5672)" gradientUnits="userSpaceOnUse"><stop offset="0" style="stop-color:#d83333;stop-opacity:1"/><stop offset="1" style="stop-color:#f041ff;stop-opacity:1"/></linearGradient></defs></svg>