<svg xmlns="http://www.w3.org/2000/svg" xml:space="preserve" style="fill-rule:evenodd;clip-rule:evenodd;stroke-linejoin:round;stroke-miterlimit:2" viewBox="0 0 512 512"><path d="M116.548 6.281c6.218 3.87 10.595 8.629 13.197 14.148 3.87 8.883 8.184 18.526 12.879 28.995 4.695 10.468 9.453 21.063 14.148 31.785 4.695 10.723 9.263 21.191 13.577 31.342 4.315 10.151 8.248 19.478 11.674 27.916 3.426 8.438 6.154 15.607 8.185 21.508 2.03 5.9 3.045 9.834 3.045 11.674 0 3.172-.444 6.217-1.269 9.263-.825 3.045-2.347 5.836-4.568 8.311-2.22 2.474-5.329 4.504-9.263 5.964-3.997 1.459-9.136 2.22-15.417 2.22-6.662 0-12.054-.888-16.242-2.664-4.187-1.777-7.613-3.998-10.405-6.789-2.791-2.792-5.075-5.71-6.915-8.755a149.133 149.133 0 0 0-5.71-8.756c-1.967-2.791-4.188-5.012-6.662-6.788-2.474-1.777-5.9-2.665-10.151-2.665H88.886c-5.202 0-9.263.888-12.372 2.665-3.045 1.776-5.519 3.997-7.486 6.788-1.967 2.792-3.743 5.71-5.393 8.756-1.649 3.045-3.806 5.963-6.408 8.755-2.601 2.791-5.964 5.012-10.151 6.789-4.187 1.776-9.77 2.664-16.813 2.664-10.341 0-17.955-2.284-22.777-6.915C2.665 187.86.254 182.404.254 176.123c0-2.411.951-6.598 2.918-12.626 1.967-6.027 4.568-13.196 7.931-21.507 3.489-8.375 7.296-17.575 11.547-27.789 4.251-10.151 8.755-20.683 13.577-31.469 4.822-10.849 9.644-21.635 14.402-32.484 4.822-10.849 9.453-21.254 13.894-31.215 2.602-5.71 6.916-10.278 12.88-13.577C83.43 2.157 90.092.444 97.515.444c6.471 0 12.816 1.967 19.033 5.837Zm224.405.952c4.821 4.377 7.232 9.961 7.232 16.813 0 3.87-.951 8.945-2.918 15.29-1.967 6.281-4.441 13.387-7.487 21.381-3.045 7.93-6.598 16.559-10.531 25.822a3501.057 3501.057 0 0 0-12.055 28.296c-5.52 13.133-10.341 24.934-14.275 35.402-3.997 10.469-8.058 19.351-12.181 26.647-4.188 7.296-8.692 12.943-13.578 16.94-4.885 3.997-10.976 5.964-18.145 5.964-7.423 0-13.577-1.586-18.462-4.885-4.886-3.236-9.327-8.121-13.324-14.72-3.997-6.534-7.867-14.846-11.674-24.807-3.806-9.96-8.247-21.825-13.45-35.529a1046.004 1046.004 0 0 0-11.928-30.39c-4.06-9.897-7.74-19.033-11.102-27.344-3.3-8.312-6.028-15.798-8.185-22.333-2.093-6.535-3.172-11.674-3.172-15.417 0-8.502 2.855-14.592 8.628-18.336 5.711-3.68 12.88-5.519 21.381-5.519 7.741 0 13.831.951 18.146 2.918 4.314 1.967 8.121 4.505 11.229 7.613 2.221 2.221 4.441 5.457 6.662 9.707 2.221 4.251 4.314 8.946 6.218 14.022 1.966 5.075 3.87 10.214 5.837 15.417 1.966 5.202 3.743 9.961 5.392 14.275 1.65 4.378 3.3 7.867 4.886 10.532 1.586 2.665 2.982 3.997 4.314 3.997 1.459 0 2.982-1.332 4.568-3.997 1.586-2.665 3.172-6.154 4.885-10.405 1.65-4.251 3.363-8.946 5.139-14.021a530.932 530.932 0 0 1 5.52-15.1 147.032 147.032 0 0 1 6.091-13.704c2.093-4.188 4.314-7.36 6.534-9.581 2.031-2.03 3.997-3.743 5.964-5.139a31.192 31.192 0 0 1 6.408-3.489c2.284-.952 4.949-1.586 7.931-2.094 2.982-.444 6.535-.698 10.849-.698 7.55 0 13.831 2.157 18.653 6.472Zm94.215-.952c6.218 3.87 10.596 8.629 13.197 14.148 3.87 8.883 8.184 18.526 12.879 28.995 4.695 10.468 9.453 21.063 14.148 31.785 4.695 10.723 9.263 21.191 13.578 31.342 4.314 10.151 8.247 19.478 11.673 27.916 3.426 8.438 6.155 15.607 8.185 21.508 2.03 5.9 3.045 9.834 3.045 11.674 0 3.172-.444 6.217-1.269 9.263-.825 3.045-2.347 5.836-4.568 8.311-2.22 2.474-5.329 4.504-9.263 5.964-3.997 1.459-9.136 2.22-15.417 2.22-6.662 0-12.054-.888-16.242-2.664-4.187-1.777-7.613-3.998-10.405-6.789-2.791-2.792-5.075-5.71-6.915-8.755a148.624 148.624 0 0 0-5.71-8.756c-1.967-2.791-4.188-5.012-6.662-6.788-2.474-1.777-5.9-2.665-10.151-2.665h-17.765c-5.202 0-9.263.888-12.371 2.665-3.046 1.776-5.52 3.997-7.487 6.788-1.967 2.792-3.743 5.71-5.393 8.756-1.649 3.045-3.806 5.963-6.408 8.755-2.601 2.791-5.963 5.012-10.151 6.789-4.187 1.776-9.77 2.664-16.813 2.664-10.341 0-17.955-2.284-22.776-6.915-4.822-4.632-7.233-10.088-7.233-16.369 0-2.411.952-6.598 2.918-12.626 1.967-6.027 4.568-13.196 7.931-21.507 3.299-8.312 7.106-17.575 11.357-27.726 4.25-10.151 8.755-20.683 13.577-31.468 4.822-10.85 9.643-21.635 14.402-32.484 4.822-10.849 9.453-21.254 13.894-31.215 2.601-5.71 6.916-10.278 12.879-13.577C401.86 2.221 408.521.508 415.944.508c6.662-.064 13.007 1.903 19.224 5.773Z" style="fill:#4b4b77;fill-rule:nonzero" transform="translate(-.063 116.009)"/><path d="M96.88 279.538c1.523 0 2.982-.825 3.68-2.221 0-.063 6.027-11.166 11.991-24.299 2.982-6.598 6.027-13.641 8.311-20.175 1.142-3.3 2.094-6.408 2.792-9.263.698-2.919 1.142-5.583 1.142-7.994 0-9.454-3.489-17.892-9.326-23.729-4.886-4.885-11.484-7.867-18.653-7.867-7.169 0-13.768 2.982-18.653 7.867-5.773 5.774-9.326 14.212-9.326 23.729 0 2.474.444 5.139 1.142 7.994 1.205 5.075 3.299 10.849 5.646 16.813 7.17 17.828 17.448 36.861 17.448 36.988.824 1.269 2.22 2.157 3.806 2.157Zm318.62 0c1.523 0 2.982-.825 3.68-2.221 0-.063 6.027-11.166 11.991-24.299 2.982-6.598 6.028-13.641 8.312-20.175 1.142-3.3 2.093-6.408 2.791-9.263.698-2.919 1.142-5.583 1.142-7.994 0-9.454-3.489-17.892-9.326-23.729-4.886-4.885-11.484-7.867-18.653-7.867-7.169 0-13.768 2.982-18.653 7.867-5.773 5.774-9.326 14.212-9.326 23.729 0 2.474.444 5.139 1.142 7.994 1.205 5.075 3.299 10.849 5.646 16.813 7.17 17.828 17.448 36.861 17.448 36.988.824 1.269 2.22 2.157 3.806 2.157Z" style="fill:#e0c7c1;fill-rule:nonzero" transform="translate(-.127 116.009)"/></svg>