<svg xmlns="http://www.w3.org/2000/svg" xml:space="preserve" style="fill-rule:evenodd;clip-rule:evenodd;stroke-linejoin:round;stroke-miterlimit:2" viewBox="0 0 512 512"><path d="M581 191.18C581 123.747 526.253 69 458.82 69H191.18C123.747 69 69 123.747 69 191.18v267.64C69 526.253 123.747 581 191.18 581h267.64C526.253 581 581 526.253 581 458.82z" style="fill:#282a3f" transform="translate(-69 -69)"/><path d="M116.548 6.281c6.218 3.87 10.595 8.629 13.197 14.148 3.87 8.883 8.184 18.526 12.879 28.995 4.695 10.468 9.453 21.063 14.148 31.785s9.263 21.191 13.577 31.342c4.315 10.151 8.248 19.478 11.674 27.916q5.139 12.657 8.185 21.508c2.03 5.9 3.045 9.834 3.045 11.674 0 3.172-.444 6.217-1.269 9.263-.825 3.045-2.347 5.836-4.568 8.311s-5.329 4.504-9.263 5.964c-3.997 1.459-9.136 2.22-15.417 2.22-6.662 0-12.054-.888-16.242-2.664-4.187-1.777-7.613-3.998-10.405-6.789-2.791-2.792-5.075-5.71-6.915-8.755a149 149 0 0 0-5.71-8.756c-1.967-2.791-4.188-5.012-6.662-6.788s-5.9-2.665-10.151-2.665H88.886c-5.202 0-9.263.888-12.372 2.665-3.045 1.776-5.519 3.997-7.486 6.788s-3.743 5.71-5.393 8.756c-1.649 3.045-3.806 5.963-6.408 8.755-2.601 2.791-5.964 5.012-10.151 6.789-4.187 1.776-9.77 2.664-16.813 2.664-10.341 0-17.955-2.284-22.777-6.915Q.254 185.544.254 176.123c0-2.411.951-6.598 2.918-12.626s4.568-13.196 7.931-21.507c3.489-8.375 7.296-17.575 11.547-27.789 4.251-10.151 8.755-20.683 13.577-31.469 4.822-10.849 9.644-21.635 14.402-32.484q7.233-16.273 13.894-31.215c2.602-5.71 6.916-10.278 12.88-13.577C83.43 2.157 90.092.444 97.515.444c6.471 0 12.816 1.967 19.033 5.837m224.405.952c4.821 4.377 7.232 9.961 7.232 16.813 0 3.87-.951 8.945-2.918 15.29-1.967 6.281-4.441 13.387-7.487 21.381-3.045 7.93-6.598 16.559-10.531 25.822a3486 3486 0 0 0-12.055 28.296c-5.52 13.133-10.341 24.934-14.275 35.402q-5.996 15.703-12.181 26.647c-4.188 7.296-8.692 12.943-13.578 16.94s-10.976 5.964-18.145 5.964c-7.423 0-13.577-1.586-18.462-4.885-4.886-3.236-9.327-8.121-13.324-14.72-3.997-6.534-7.867-14.846-11.674-24.807s-8.247-21.825-13.45-35.529a1047 1047 0 0 0-11.928-30.39c-4.06-9.897-7.74-19.033-11.102-27.344-3.3-8.312-6.028-15.798-8.185-22.333-2.093-6.535-3.172-11.674-3.172-15.417 0-8.502 2.855-14.592 8.628-18.336 5.711-3.68 12.88-5.519 21.381-5.519 7.741 0 13.831.951 18.146 2.918 4.314 1.967 8.121 4.505 11.229 7.613q3.331 3.332 6.662 9.707c2.221 4.251 4.314 8.946 6.218 14.022 1.966 5.075 3.87 10.214 5.837 15.417s3.743 9.961 5.392 14.275c1.65 4.378 3.3 7.867 4.886 10.532s2.982 3.997 4.314 3.997q2.189 0 4.568-3.997c1.586-2.665 3.172-6.154 4.885-10.405 1.65-4.251 3.363-8.946 5.139-14.021a532 532 0 0 1 5.52-15.1 147 147 0 0 1 6.091-13.704c2.093-4.188 4.314-7.36 6.534-9.581 2.031-2.03 3.997-3.743 5.964-5.139a31.2 31.2 0 0 1 6.408-3.489c2.284-.952 4.949-1.586 7.931-2.094 2.982-.444 6.535-.698 10.849-.698 7.55 0 13.831 2.157 18.653 6.472m94.215-.952c6.218 3.87 10.596 8.629 13.197 14.148 3.87 8.883 8.184 18.526 12.879 28.995 4.695 10.468 9.453 21.063 14.148 31.785s9.263 21.191 13.578 31.342 8.247 19.478 11.673 27.916q5.14 12.657 8.185 21.508c2.03 5.9 3.045 9.834 3.045 11.674 0 3.172-.444 6.217-1.269 9.263-.825 3.045-2.347 5.836-4.568 8.311s-5.329 4.504-9.263 5.964c-3.997 1.459-9.136 2.22-15.417 2.22-6.662 0-12.054-.888-16.242-2.664-4.187-1.777-7.613-3.998-10.405-6.789-2.791-2.792-5.075-5.71-6.915-8.755a149 149 0 0 0-5.71-8.756c-1.967-2.791-4.188-5.012-6.662-6.788s-5.9-2.665-10.151-2.665h-17.765c-5.202 0-9.263.888-12.371 2.665-3.046 1.776-5.52 3.997-7.487 6.788s-3.743 5.71-5.393 8.756c-1.649 3.045-3.806 5.963-6.408 8.755-2.601 2.791-5.963 5.012-10.151 6.789-4.187 1.776-9.77 2.664-16.813 2.664-10.341 0-17.955-2.284-22.776-6.915q-7.233-6.948-7.233-16.369c0-2.411.952-6.598 2.918-12.626s4.568-13.196 7.931-21.507c3.299-8.312 7.106-17.575 11.357-27.726s8.755-20.683 13.577-31.468c4.822-10.85 9.643-21.635 14.402-32.484q7.233-16.273 13.894-31.215c2.601-5.71 6.916-10.278 12.879-13.577C401.86 2.221 408.521.508 415.944.508c6.662-.064 13.007 1.903 19.224 5.773" style="fill:#4b4b77;fill-rule:nonzero" transform="translate(73.487 176.22)scale(.71277)"/><path d="M96.88 279.538c1.523 0 2.982-.825 3.68-2.221 0-.063 6.027-11.166 11.991-24.299 2.982-6.598 6.027-13.641 8.311-20.175 1.142-3.3 2.094-6.408 2.792-9.263.698-2.919 1.142-5.583 1.142-7.994 0-9.454-3.489-17.892-9.326-23.729-4.886-4.885-11.484-7.867-18.653-7.867s-13.768 2.982-18.653 7.867c-5.773 5.774-9.326 14.212-9.326 23.729 0 2.474.444 5.139 1.142 7.994 1.205 5.075 3.299 10.849 5.646 16.813 7.17 17.828 17.448 36.861 17.448 36.988.824 1.269 2.22 2.157 3.806 2.157m318.62 0c1.523 0 2.982-.825 3.68-2.221 0-.063 6.027-11.166 11.991-24.299 2.982-6.598 6.028-13.641 8.312-20.175 1.142-3.3 2.093-6.408 2.791-9.263.698-2.919 1.142-5.583 1.142-7.994 0-9.454-3.489-17.892-9.326-23.729-4.886-4.885-11.484-7.867-18.653-7.867s-13.768 2.982-18.653 7.867c-5.773 5.774-9.326 14.212-9.326 23.729 0 2.474.444 5.139 1.142 7.994 1.205 5.075 3.299 10.849 5.646 16.813 7.17 17.828 17.448 36.861 17.448 36.988.824 1.269 2.22 2.157 3.806 2.157" style="fill:#e0c7c1;fill-rule:nonzero" transform="translate(73.441 176.22)scale(.71277)"/></svg>