<svg xmlns="http://www.w3.org/2000/svg" xml:space="preserve" style="fill-rule:evenodd;clip-rule:evenodd;stroke-linejoin:round;stroke-miterlimit:2" viewBox="0 0 512 512"><path d="M512 122.18C512 54.747 457.253 0 389.82 0H122.18C54.747 0 0 54.747 0 122.18v267.64C0 457.253 54.747 512 122.18 512h267.64C457.253 512 512 457.253 512 389.82z" style="fill:#7c24fc"/><path d="M156.781 120.797c-19.368 0-33.7 16.952-33.058 35.337.615 17.663-.185 40.538-5.944 59.193-5.776 18.71-15.545 30.562-31.502 32.083v17.18c15.957 1.521 25.726 13.373 31.502 32.083 5.759 18.655 6.559 41.53 5.944 59.193-.642 18.382 13.69 35.337 33.061 35.337h198.461c19.368 0 33.697-16.952 33.055-35.337-.615-17.663.185-40.538 5.944-59.193 5.779-18.71 15.522-30.562 31.479-32.083v-17.18c-15.957-1.521-25.7-13.373-31.479-32.083-5.759-18.652-6.559-41.53-5.944-59.193.642-18.382-13.687-35.337-33.055-35.337H156.778zM316.41 287.249c0 25.315-18.883 40.668-50.218 40.668H212.85c-3.156 0-5.753-2.598-5.753-5.754V189.837c0-3.156 2.597-5.754 5.753-5.754h53.037c26.129 0 43.277 14.154 43.277 35.884 0 15.252-11.536 28.908-26.233 31.298v.797c20.007 2.195 33.479 16.049 33.479 35.187m-56.035-84.927H229.96v42.96h25.617c19.803 0 30.723-7.975 30.723-22.228 0-13.357-9.39-20.732-25.925-20.732m-30.415 60.004v47.347h31.534c20.617 0 31.54-8.274 31.54-23.822 0-15.551-11.227-23.525-32.866-23.525z" style="fill:#fff"/></svg>