<svg xmlns="http://www.w3.org/2000/svg" xml:space="preserve" style="fill-rule:evenodd;clip-rule:evenodd;stroke-linejoin:round;stroke-miterlimit:2" viewBox="0 0 512 512"><path d="M581 191.18C581 123.747 526.253 69 458.82 69H191.18C123.747 69 69 123.747 69 191.18v267.64C69 526.253 123.747 581 191.18 581h267.64C526.253 581 581 526.253 581 458.82z" style="fill:#7c24fc" transform="translate(-69.001 -69.001)"/><path d="M8.308.068c-2.282 0-3.971 1.997-3.895 4.164.072 2.081-.022 4.777-.701 6.975-.68 2.205-1.832 3.601-3.712 3.781v2.024c1.88.18 3.032 1.576 3.712 3.781.679 2.198.773 4.894.701 6.975-.076 2.166 1.613 4.164 3.895 4.164h23.387c2.282 0 3.971-1.997 3.895-4.164-.072-2.081.022-4.777.701-6.975.681-2.205 1.829-3.601 3.709-3.781v-2.024c-1.88-.18-3.028-1.576-3.709-3.781-.679-2.198-.773-4.894-.701-6.975.076-2.166-1.613-4.164-3.895-4.164zm18.811 19.614c0 2.983-2.225 4.793-5.918 4.793h-6.286a.68.68 0 0 1-.678-.678V8.203c0-.372.306-.678.678-.678h6.25c3.079 0 5.1 1.668 5.1 4.229 0 1.797-1.36 3.406-3.091 3.688v.094c2.357.259 3.945 1.891 3.945 4.146M20.516 9.675h-3.584v5.062h3.018c2.334 0 3.621-.94 3.621-2.619 0-1.574-1.107-2.443-3.055-2.443m-3.584 7.07v5.58h3.715c2.43 0 3.717-.975 3.717-2.807 0-1.833-1.323-2.773-3.873-2.773z" style="fill:#fff" transform="translate(86.275 120.22)scale(8.48613)"/></svg>