<svg xmlns="http://www.w3.org/2000/svg" xml:space="preserve" style="fill-rule:evenodd;clip-rule:evenodd;stroke-linejoin:round;stroke-miterlimit:2" viewBox="0 0 512 512"><path d="M512 122.18C512 54.747 457.253 0 389.82 0H122.18C54.747 0 0 54.747 0 122.18v267.64C0 457.253 54.747 512 122.18 512h267.64C457.253 512 512 457.253 512 389.82z" style="fill:#0a172a"/><path d="M192.444 429.954c-24.121 0-37.412-3.361-38.009-4.107a960 960 0 0 1 0-62.204c.597-.672 13.815-3.137 38.009-3.137 22.476 0 31.064 8.289 31.064 18.222 0 6.421-3.883 12.246-11.649 15.606v1.12c9.335.673 13.889 6.795 13.889 13.74 0 10.679-10.827 20.76-33.304 20.76m-15.309-38.682 14.562.075c4.779-.746 7.991-3.36 7.991-7.392 0-5.078-3.81-7.841-10.605-7.841-5.824 0-10.23.97-11.873 2.24-.075 4.257-.075 8.662-.075 12.919zm12.023 21.432c6.795 0 10.902-3.061 10.902-8.288 0-4.257-3.36-6.796-8.363-6.945l-14.562-.075c0 4.331 0 8.662.075 12.919 1.568 1.343 6.049 2.389 11.948 2.389M295.931 373.5c.598 18.145.598 35.395 0 53.168a66.4 66.4 0 0 1-21.057 0l-2.092-12.62h-1.344c-2.688 10.977-8.512 14.413-17.549 14.413-18.294 0-21.655-14.935-21.655-33.305 0-4.63.149-10.977.149-21.656a83.1 83.1 0 0 1 24.344 0v26.584c0 7.617 3.883 10.454 8.513 10.454 3.286 0 6.721-1.643 8.439-4.406V373.5a69.5 69.5 0 0 1 22.252 0m9.236 53.168c-.597-18.145-.597-35.396 0-53.168a66.4 66.4 0 0 1 21.059 0l2.09 12.62h1.344c2.688-10.977 8.513-14.412 17.549-14.412 18.296 0 21.655 14.935 21.655 33.304 0 4.631-.149 10.978-.149 21.656a83.1 83.1 0 0 1-24.344 0v-26.584c0-7.616-3.883-10.454-8.512-10.454-3.286 0-6.721 1.642-8.439 4.405v32.633a69.5 69.5 0 0 1-22.253 0" style="fill:#fff;fill-rule:nonzero"/><path d="M368.741 158.61a40 40 0 0 0-1.726-1.726c-.587-.552-1.139-1.174-1.726-1.726-.587-.553-1.139-1.174-1.726-1.726-.587-.553-1.139-1.174-1.726-1.726-.587-.553-1.139-1.174-1.726-1.726-.587-.553-1.139-1.174-1.726-1.727-.587-.552-1.139-1.173-1.726-1.726a91.37 91.37 0 0 1 27.306 63.727c0 57.203-58.065 103.738-129.456 103.738-39.976 0-75.74-14.603-99.526-37.491l12.083 12.083c23.751 23.854 60.309 39.216 101.252 39.216 71.391 0 129.456-46.535 129.456-103.564 0-24.373-10.495-47.468-29.033-65.626" style="fill-rule:nonzero"/><path d="M375.335 210.254c0 52.508-54.096 95.073-120.826 95.073s-120.826-42.565-120.826-95.073c0-32.554 20.713-61.31 52.542-78.364 31.829-17.053 51.645-34.521 68.284-34.521s30.862 14.257 68.284 34.521c31.829 17.054 52.542 45.81 52.542 78.364" style="fill:#fbf0df;fill-rule:nonzero"/><path d="M375.335 210.254a74.8 74.8 0 0 0-2.762-19.953c-9.424 114.957-149.651 120.48-204.782 86.097a138.1 138.1 0 0 0 86.718 28.929c66.627 0 120.826-42.634 120.826-95.073" style="fill:#f6dece;fill-rule:nonzero"/><path d="M208.009 125.573c15.431-9.252 35.937-26.616 56.097-26.651a32 32 0 0 0-9.597-1.553c-8.354 0-17.261 4.315-28.48 10.805-3.901 2.278-7.94 4.798-12.221 7.422-8.043 4.971-17.261 10.598-27.617 16.225-32.865 17.779-52.508 47.088-52.508 78.433v4.108c20.921-73.91 58.929-79.537 74.326-88.789" style="fill:#fffefc;fill-rule:nonzero"/><path d="M244.567 106.103a56.68 56.68 0 0 1-19.436 43.048c-.966.863-.207 2.52 1.036 2.037 11.634-4.523 27.341-18.055 20.713-45.362-.276-1.553-2.313-1.139-2.313.277m7.836 0a56.09 56.09 0 0 1 5.558 46.5c-.414 1.208 1.07 2.244 1.899 1.243 7.56-9.666 14.154-28.86-5.592-49.573-1.002-.898-2.555.483-1.865 1.691zm9.528-.587a56.7 56.7 0 0 1 23.648 40.597 1.145 1.145 0 0 0 1.131 1.275c.533 0 .998-.374 1.113-.895 3.176-12.048 1.38-32.589-24.752-43.256-1.381-.552-2.279 1.312-1.14 2.141zm-63.727 35.902a58.5 58.5 0 0 0 36.145-31.069c.621-1.243 2.589-.76 2.278.621-5.972 27.617-25.96 33.383-38.388 32.623-1.312.035-1.277-1.795-.035-2.175" style="fill:#ccbea7"/><path d="M254.509 313.992c-71.391 0-129.456-46.535-129.456-103.738 0-34.521 21.334-66.73 57.064-86.028 10.357-5.523 19.229-11.081 27.134-15.949 4.35-2.692 8.458-5.212 12.428-7.56 12.117-7.18 22.474-11.979 32.83-11.979 10.357 0 19.401 4.143 30.724 10.84 3.453 1.968 6.905 4.108 10.599 6.455 8.595 5.317 18.296 11.324 31.069 18.193 35.73 19.298 57.064 51.472 57.064 86.028 0 57.203-58.065 103.738-129.456 103.738m0-216.623c-8.354 0-17.261 4.315-28.48 10.805-3.901 2.278-7.94 4.798-12.221 7.422-8.043 4.971-17.261 10.598-27.617 16.225-32.865 17.779-52.508 47.088-52.508 78.433 0 52.439 54.199 95.107 120.826 95.107s120.826-42.668 120.826-95.107c0-31.345-19.643-60.654-52.542-78.364-13.049-6.904-23.233-13.394-31.484-18.503-3.763-2.313-7.215-4.454-10.356-6.352-10.46-6.214-18.09-9.666-26.444-9.666" style="fill-rule:nonzero"/><path d="M278.847 235.455a30.84 30.84 0 0 1-10.08 16.26 23.52 23.52 0 0 1-13.809 6.49 23.6 23.6 0 0 1-14.257-6.49 30.84 30.84 0 0 1-9.943-16.26 2.497 2.497 0 0 1 2.762-2.796h42.6a2.497 2.497 0 0 1 2.727 2.796" style="fill:#b71422;fill-rule:nonzero"/><path d="M240.701 251.991a23.85 23.85 0 0 0 14.222 6.559 23.86 23.86 0 0 0 14.189-6.559 37 37 0 0 0 3.452-3.694 23.6 23.6 0 0 0-16.916-7.974 21.25 21.25 0 0 0-17.26 9.597c.794.725 1.484 1.415 2.313 2.071" style="fill:#ff6164;fill-rule:nonzero"/><path d="M241.253 249.264a18.52 18.52 0 0 1 14.464-7.181 20.72 20.72 0 0 1 13.809 5.834 54 54 0 0 0 2.278-2.658 24.17 24.17 0 0 0-16.259-6.662 21.96 21.96 0 0 0-16.881 8.147q1.225 1.33 2.589 2.52" style="fill-rule:nonzero"/><path d="M254.82 260.276a25.62 25.62 0 0 1-15.362-6.904 32.87 32.87 0 0 1-10.736-17.434 4.14 4.14 0 0 1 .897-3.452 4.87 4.87 0 0 1 3.901-1.76h42.6a4.97 4.97 0 0 1 3.901 1.76 4.11 4.11 0 0 1 .863 3.452 32.87 32.87 0 0 1-10.737 17.434 25.62 25.62 0 0 1-15.327 6.904m-21.3-25.546c-.552 0-.69.242-.725.311a28.63 28.63 0 0 0 9.424 15.086 21.5 21.5 0 0 0 12.601 6.041 21.7 21.7 0 0 0 12.6-5.972 28.66 28.66 0 0 0 9.39-15.086.73.73 0 0 0-.69-.311z" style="fill-rule:nonzero"/><ellipse cx="307.051" cy="225.72" rx="20.195" ry="11.875" style="fill:#febbd0"/><ellipse cx="202.554" cy="225.72" rx="20.195" ry="11.875" style="fill:#febbd0"/><path d="M212.048 220.956h.034c10.435 0 19.021-8.587 19.021-19.021s-8.586-19.022-19.021-19.022-19.021 8.587-19.021 19.022c0 10.421 8.565 19.002 18.987 19.021m85.51 0 .138.001c10.435 0 19.021-8.587 19.021-19.022s-8.586-19.021-19.021-19.021-19.021 8.586-19.022 19.021c-.019 10.389 8.494 18.964 18.884 19.021"/><path d="M206.179 203.143h.034c3.921 0 7.146-3.226 7.146-7.146s-3.225-7.146-7.146-7.146-7.146 3.226-7.146 7.146c0 3.907 3.205 7.127 7.112 7.146m85.441 0h.103c3.921 0 7.146-3.226 7.146-7.146s-3.225-7.146-7.146-7.146-7.145 3.226-7.146 7.146c0 3.881 3.162 7.09 7.043 7.146" style="fill:#fff"/></svg>