<svg xmlns="http://www.w3.org/2000/svg" xml:space="preserve" style="fill-rule:evenodd;clip-rule:evenodd;stroke-linejoin:round;stroke-miterlimit:2" viewBox="0 0 512 513"><path d="M581 191.18C581 123.747 526.253 69 458.82 69H191.18C123.747 69 69 123.747 69 191.18v267.64C69 526.253 123.747 581 191.18 581h267.64C526.253 581 581 526.253 581 458.82z" style="fill:#384958" transform="translate(-69.001 -68.501)"/><path d="m255.778 512-148.134-41.123L74.633 100.62h362.734l-33.046 370.199z" style="fill:#1672b6;fill-rule:nonzero" transform="translate(53.822 53.323)scale(.79366)"/><path d="m376.03 447.246 28.24-316.352H256v349.629z" style="fill:#32a9dc;fill-rule:nonzero" transform="translate(53.822 53.323)scale(.79366)"/><path d="m150.31 268.217 4.07 45.41H256v-45.41zm-8.178-91.912 4.128 45.411H256v-45.411zM256 386.153l-.199.053-50.574-13.656-3.233-36.217h-45.585l6.362 71.301 93.02 25.823.209-.058z" style="fill:#ebebeb;fill-rule:nonzero" transform="translate(53.822 53.323)scale(.79366)"/><path d="M160 0h55v23h-32v23h32v23h-55zm66 0h55v20h-32v4h32v46h-55V49h32v-4h-32zm66 0h55v20h-32v4h32v46h-55V49h32v-4h-32zm69.399 268.217 8.198-91.912H255.843v45.411h63.988l-4.132 46.501h-59.856v45.41h55.918l-5.271 58.894-50.647 13.67v47.244l93.094-25.801.683-7.672 10.671-119.551z" style="fill:#fff;fill-rule:nonzero" transform="translate(53.822 53.323)scale(.79366)"/></svg>