<svg xmlns="http://www.w3.org/2000/svg" xml:space="preserve" style="fill-rule:evenodd;clip-rule:evenodd;stroke-linejoin:round;stroke-miterlimit:2" viewBox="0 0 512 513"><path d="M581 191.18C581 123.747 526.253 69 458.82 69H191.18C123.747 69 69 123.747 69 191.18v267.64C69 526.253 123.747 581 191.18 581h267.64C526.253 581 581 526.253 581 458.82z" style="fill:#234467" transform="translate(-69.001 -68.501)"/><path d="M182.791 2238.11 0 4.194l2183 4.489-193.28 2229.427-889.98 257.7z" style="fill:#1b73ba;fill-rule:nonzero" transform="translate(115.304 107.882)scale(.1289)"/><path d="M1099.74 2280.06V216.948l898.97 2.993L1838.4 2065.81z" style="fill:#1c88c7;fill-rule:nonzero" transform="translate(115.304 107.882)scale(.1289)"/><path d="M1775.47 480.651H392.553l37.463 269.671h656.234L440.508 1027.51l37.446 260.69h951.416l-34.47 364.07-322.13 62.94-292.154-74.91-22.481-206.77H489.943l35.949 430.02 575.348 160.31 551.38-175.29 70.42-840.55h-582.86l635.27-263.684z" style="fill:#fff;fill-rule:nonzero" transform="translate(115.304 107.882)scale(.1289)"/></svg>