<svg xmlns="http://www.w3.org/2000/svg" xml:space="preserve" style="fill-rule:evenodd;clip-rule:evenodd;stroke-linejoin:round;stroke-miterlimit:2" viewBox="0 0 256 256"><path d="m141.651 223.943-4.335 10.526c-.861 2.084-2.83 3.495-5.046 3.591-1.464.055-2.94.096-4.431.096-51.024-.027-96.169-36.113-107.355-85.836l-17.369 3.933c6.277 27.89 22.032 53.204 44.365 71.295 22.592 18.296 51.052 28.397 80.167 28.452h.26c1.71 0 3.406-.041 5.101-.109 9.136-.384 17.3-6.127 20.788-14.638l5.661-13.76-17.806-3.55Z" style="fill:url(#a);fill-rule:nonzero"/><path d="M4.54 161.914A128.528 128.528 0 0 1 0 128.007C0 75.516 32.863 27.52 81.782 8.593l6.414 16.652c-42.108 16.295-70.39 57.589-70.39 102.762 0 9.909 1.313 19.722 3.898 29.178L4.54 161.914Z" style="fill:url(#b);fill-rule:nonzero"/><path d="M225.693 77.298c-19.037-36.662-56.509-59.44-97.769-59.44-14.619 0-28.828 2.823-42.204 8.374L78.897 9.744C94.446 3.289 110.939 0 127.924 0c47.934 0 91.451 26.451 113.564 69.047l-15.795 8.251Z" style="fill:url(#c);fill-rule:nonzero"/><path d="M89.727 101.597c10.326 0 18.737 5.523 23.058 15.158l.342.754 17.341-5.907-.37-.891c-6.715-16.405-22.182-26.602-40.371-26.602-12.786 0-23.18 4.112-31.769 12.554-8.533 8.388-12.855 18.941-12.855 31.371 0 12.321 4.322 22.819 12.855 31.207 8.589 8.443 18.983 12.554 31.769 12.554 18.189 0 33.656-10.197 40.371-26.588l.37-.891-17.368-5.921-.329.782c-3.87 9.47-12.486 15.13-23.044 15.13-7.193 0-13.265-2.521-18.079-7.483-4.868-5.03-7.33-11.348-7.33-18.776 0-7.483 2.407-13.678 7.33-18.941 4.8-4.988 10.886-7.51 18.079-7.51Z" style="fill:#09293f;fill-rule:nonzero"/><path d="m198.341 85.726-24.712 62.729-24.877-62.729h-20.35l34.888 85.617-24.822 60.385 17.792 3.55 61.309-149.552h-19.228Z" style="fill:#09293f;fill-rule:nonzero"/><path d="M241.488 69.047C250.491 86.585 256 107.185 256 128.271c0 49.2-27.671 91.916-68.253 113.343l-8.768-15.548c35.191-18.352 59.227-55.258 59.227-97.795 0-18.459-4.513-35.691-12.513-50.973l15.795-8.251Z" style="fill:url(#d);fill-rule:nonzero"/><defs><linearGradient id="a" x1="0" x2="1" y1="0" y2="0" gradientTransform="rotate(6.696 -1685.226 210.013) scale(127.822)" gradientUnits="userSpaceOnUse"><stop offset="0" style="stop-color:#315c55;stop-opacity:1"/><stop offset="1" style="stop-color:#09293f;stop-opacity:1"/></linearGradient><linearGradient id="b" x1="0" x2="1" y1="0" y2="0" gradientTransform="rotate(91.947 -.41 48.34) scale(111.58639)" gradientUnits="userSpaceOnUse"><stop offset="0" style="stop-color:#4fb38d;stop-opacity:1"/><stop offset="1" style="stop-color:#315c55;stop-opacity:1"/></linearGradient><linearGradient id="c" x1="0" x2="1" y1="0" y2="0" gradientTransform="rotate(2.372 -882.516 2470.562) scale(92.61108)" gradientUnits="userSpaceOnUse"><stop offset="0" style="stop-color:#4fb38d;stop-opacity:1"/><stop offset="1" style="stop-color:#97dec0;stop-opacity:1"/></linearGradient><linearGradient id="d" x1="0" x2="1" y1="0" y2="0" gradientTransform="rotate(96.073 55.216 160.304) scale(112.63)" gradientUnits="userSpaceOnUse"><stop offset="0" style="stop-color:#97dec0;stop-opacity:1"/><stop offset="1" style="stop-color:ivory;stop-opacity:0"/><stop offset="1" style="stop-color:ivory;stop-opacity:0"/></linearGradient></defs></svg>