<svg xmlns="http://www.w3.org/2000/svg" xml:space="preserve" style="fill-rule:evenodd;clip-rule:evenodd;stroke-linejoin:round;stroke-miterlimit:2" viewBox="0 0 512 512"><path d="M581 191.18C581 123.747 526.253 69 458.82 69H191.18C123.747 69 69 123.747 69 191.18v267.64C69 526.253 123.747 581 191.18 581h267.64C526.253 581 581 526.253 581 458.82z" style="fill:#008bf2" transform="translate(-69 -69)"/><path d="M250.716 70.497c-5.765-4-18.976-5.5-29.304-3.5-1.201-9.999-6.725-18.749-16.333-26.499l-5.524-3.999-3.844 5.749c-4.803 7.5-7.205 18-6.485 27.999.24 3.5 1.441 9.75 5.044 15.25-3.362 1.999-10.328 4.499-19.455 4.499H1.155l-.481 2c-1.681 10-1.681 41.249 18.015 65.248 14.892 18.249 36.99 27.499 66.053 27.499 62.931 0 109.528-30.249 131.386-84.997 8.647.25 27.142 0 36.509-18.749.24-.5.721-1.5 2.402-5.25l.961-2zM139.987 0h-26.422v24.999h26.422zm0 29.999h-26.422v24.999h26.422zm-31.226 0H82.34v24.999h26.421zm-31.225 0H51.115v24.999h26.421zM46.311 59.998H19.89v24.999h26.421zm31.225 0H51.115v24.999h26.421zm31.225 0H82.34v24.999h26.421zm31.226 0h-26.422v24.999h26.422zm31.225 0H144.79v24.999h26.422z" style="fill:#fff;fill-rule:nonzero" transform="matrix(1.51152 0 0 1.51152 80.048 133.04)"/></svg>