<svg xmlns="http://www.w3.org/2000/svg" xml:space="preserve" style="fill-rule:evenodd;clip-rule:evenodd;stroke-linejoin:round;stroke-miterlimit:2" viewBox="0 0 512 512"><path d="M512 122.18C512 54.747 457.253 0 389.82 0H122.18C54.747 0 0 54.747 0 122.18v267.64C0 457.253 54.747 512 122.18 512h267.64C457.253 512 512 457.253 512 389.82z" style="fill:#008bf2"/><path d="M459.011 239.597c-8.714-6.046-28.683-8.313-44.294-5.29-1.815-15.114-10.165-28.34-24.688-40.054l-8.349-6.045-5.811 8.69c-7.259 11.336-10.89 27.207-9.802 42.321.363 5.291 2.178 14.738 7.624 23.051-5.081 3.021-15.611 6.8-29.406 6.8H81.793l-.727 3.023c-2.541 15.116-2.541 62.349 27.23 98.624 22.51 27.584 55.912 41.566 99.841 41.566 95.122 0 165.554-45.722 198.593-128.475 13.07.378 41.026 0 55.184-28.34.363-.756 1.09-2.267 3.631-7.935l1.453-3.023zm-167.37-106.558h-39.937v37.787h39.937zm0 45.344h-39.937v37.787h39.937zm-47.199 0h-39.936v37.787h39.936zm-47.197 0h-39.936v37.787h39.936zm-47.197 45.345h-39.936v37.786h39.936zm47.197 0h-39.936v37.786h39.936zm47.197 0h-39.936v37.786h39.936zm47.199 0h-39.937v37.786h39.937zm47.198 0h-39.938v37.786h39.938z" style="fill:#fff;fill-rule:nonzero"/></svg>