<svg xmlns="http://www.w3.org/2000/svg" xml:space="preserve" style="fill-rule:evenodd;clip-rule:evenodd;stroke-linejoin:round;stroke-miterlimit:2" viewBox="0 0 1024 1024"><path d="M75.916 26.831c-1.684-4.052-5.1-8.427-7.775-9.81a40.3 40.3 0 0 1 3.925 11.764l.007.065C67.691 17.925 60.26 13.52 54.191 3.928a48 48 0 0 1-.913-1.484 12 12 0 0 1-.427-.8 7 7 0 0 1-.578-1.535.1.1 0 0 0-.088-.1.13.13 0 0 0-.073 0c-.005 0-.013.009-.019.011s-.019.011-.028.015l.015-.026c-9.735 5.7-13.038 16.252-13.342 21.53a19.4 19.4 0 0 0-10.666 4.111 11 11 0 0 0-1-.758 17.97 17.97 0 0 1-.109-9.473 28.7 28.7 0 0 0-9.329 7.21h-.018c-1.536-1.947-1.428-8.367-1.34-9.708a7 7 0 0 0-1.294.687 28 28 0 0 0-3.788 3.245A34 34 0 0 0 7.571 21.2v.006-.007a32.7 32.7 0 0 0-5.2 11.743l-.052.256q-.214 1.206-.381 2.42c0 .029-.006.056-.009.085a37 37 0 0 0-.629 5.343v.2c.019 21.25 17.509 38.725 38.759 38.725 18.786 0 35.002-13.658 38.195-32.171.065-.5.118-.995.176-1.5a39.86 39.86 0 0 0-2.514-19.469m-44.67 30.338c.181.087.351.181.537.264l.027.017q-.282-.135-.564-.281m40.83-28.31v-.037l.007.041z" style="fill:url(#w73a);fill-rule:nonzero" transform="translate(-.328 -.05)scale(12.8052)"/><path d="M75.916 26.831c-1.684-4.052-5.1-8.427-7.775-9.81a40.3 40.3 0 0 1 3.925 11.764v.037l.007.041a35.1 35.1 0 0 1-1.206 26.158c-4.442 9.531-15.194 19.3-32.024 18.825-18.185-.515-34.2-14.009-37.194-31.683-.545-2.787 0-4.2.274-6.465a29 29 0 0 0-.623 5.348v.2c.019 21.25 17.509 38.725 38.759 38.725 18.786 0 35.002-13.658 38.195-32.171.065-.5.118-.995.176-1.5a39.86 39.86 0 0 0-2.514-19.469" style="fill:url(#w74b);fill-rule:nonzero" transform="translate(-.328 -.05)scale(12.8052)"/><path d="M75.916 26.831c-1.684-4.052-5.1-8.427-7.775-9.81a40.3 40.3 0 0 1 3.925 11.764v.037l.007.041a35.1 35.1 0 0 1-1.206 26.158c-4.442 9.531-15.194 19.3-32.024 18.825-18.185-.515-34.2-14.009-37.194-31.683-.545-2.787 0-4.2.274-6.465a29 29 0 0 0-.623 5.348v.2c.019 21.25 17.509 38.725 38.759 38.725 18.786 0 35.002-13.658 38.195-32.171.065-.5.118-.995.176-1.5a39.86 39.86 0 0 0-2.514-19.469" style="fill:url(#w75c);fill-rule:nonzero" transform="translate(-.328 -.05)scale(12.8052)"/><path d="M57.082 31.387q.124.089.241.177a21.1 21.1 0 0 0-3.6-4.695C41.677 14.821 50.566.746 52.065.031l.015-.022c-9.735 5.7-13.038 16.252-13.342 21.53.452-.031.9-.069 1.362-.069a19.58 19.58 0 0 1 16.982 9.917" style="fill:url(#w76d);fill-rule:nonzero" transform="translate(-.328 -.05)scale(12.8052)"/><path d="M40.125 33.793c-.064.964-3.47 4.289-4.661 4.289-11.021 0-12.81 6.667-12.81 6.667.488 5.614 4.4 10.238 9.129 12.684.216.112.435.213.654.312q.569.252 1.138.466a17.3 17.3 0 0 0 5.043.973c19.317.906 23.059-23.1 9.119-30.066a13.38 13.38 0 0 1 9.345 2.269A19.58 19.58 0 0 0 40.1 21.47c-.46 0-.91.038-1.362.069a19.4 19.4 0 0 0-10.666 4.111c.591.5 1.258 1.168 2.663 2.553 2.63 2.591 9.375 5.275 9.39 5.59" style="fill:url(#w77e);fill-rule:nonzero" transform="translate(-.328 -.05)scale(12.8052)"/><path d="M40.125 33.793c-.064.964-3.47 4.289-4.661 4.289-11.021 0-12.81 6.667-12.81 6.667.488 5.614 4.4 10.238 9.129 12.684.216.112.435.213.654.312q.569.252 1.138.466a17.3 17.3 0 0 0 5.043.973c19.317.906 23.059-23.1 9.119-30.066a13.38 13.38 0 0 1 9.345 2.269A19.58 19.58 0 0 0 40.1 21.47c-.46 0-.91.038-1.362.069a19.4 19.4 0 0 0-10.666 4.111c.591.5 1.258 1.168 2.663 2.553 2.63 2.591 9.375 5.275 9.39 5.59" style="fill:url(#w78f);fill-rule:nonzero" transform="translate(-.328 -.05)scale(12.8052)"/><path d="M26.265 24.361c.314.2.573.374.8.531a17.97 17.97 0 0 1-.109-9.473 28.7 28.7 0 0 0-9.329 7.21c.189-.005 5.811-.106 8.638 1.732" style="fill:url(#w79g);fill-rule:nonzero" transform="translate(-.328 -.05)scale(12.8052)"/><path d="M1.654 42.163c2.991 17.674 19.009 31.168 37.194 31.683 16.83.476 27.582-9.294 32.024-18.825a35.1 35.1 0 0 0 1.206-26.158v-.037c0-.029-.006-.046 0-.037l.007.065c1.375 8.977-3.191 17.674-10.329 23.555l-.022.05c-13.908 11.327-27.218 6.834-29.912 5q-.282-.135-.564-.281c-8.109-3.876-11.459-11.264-10.741-17.6a9.97 9.97 0 0 1-9.181-5.775 14.63 14.63 0 0 1 14.249-.572 19.3 19.3 0 0 0 14.552.572c-.015-.315-6.76-3-9.39-5.59-1.405-1.385-2.072-2.052-2.663-2.553a11 11 0 0 0-1-.758c-.23-.157-.489-.327-.8-.531-2.827-1.838-8.449-1.737-8.635-1.732h-.018c-1.536-1.947-1.428-8.367-1.34-9.708a7 7 0 0 0-1.294.687 28 28 0 0 0-3.788 3.245A34 34 0 0 0 7.571 21.2v.006-.007a32.7 32.7 0 0 0-5.2 11.743c-.019.079-1.396 6.099-.717 9.221" style="fill:url(#w80h);fill-rule:nonzero" transform="translate(-.328 -.05)scale(12.8052)"/><path d="M53.725 26.869a21.1 21.1 0 0 1 3.6 4.7c.213.161.412.321.581.476 8.787 8.1 4.183 19.55 3.84 20.365 7.138-5.881 11.7-14.578 10.329-23.555C67.691 17.925 60.26 13.52 54.191 3.928a48 48 0 0 1-.913-1.484 12 12 0 0 1-.427-.8 7 7 0 0 1-.578-1.535.1.1 0 0 0-.088-.1.13.13 0 0 0-.073 0c-.005 0-.013.009-.019.011s-.019.011-.028.015c-1.499.711-10.388 14.786 1.66 26.834" style="fill:url(#w81i);fill-rule:nonzero" transform="translate(-.328 -.05)scale(12.8052)"/><path d="M57.9 32.04a8 8 0 0 0-.581-.476q-.117-.088-.241-.177a13.38 13.38 0 0 0-9.345-2.269c13.94 6.97 10.2 30.972-9.119 30.066a17.3 17.3 0 0 1-5.043-.973 20 20 0 0 1-1.138-.466c-.219-.1-.438-.2-.654-.312l.027.017c2.694 1.839 16 6.332 29.912-5l.022-.05c.347-.81 4.951-12.263-3.84-20.36" style="fill:url(#w82j);fill-rule:nonzero" transform="translate(-.328 -.05)scale(12.8052)"/><path d="M22.654 44.749s1.789-6.667 12.81-6.667c1.191 0 4.6-3.325 4.661-4.289a19.3 19.3 0 0 1-14.552-.572 14.63 14.63 0 0 0-14.249.572 9.97 9.97 0 0 0 9.181 5.775c-.718 6.337 2.632 13.725 10.741 17.6.181.087.351.181.537.264-4.733-2.445-8.641-7.069-9.129-12.683" style="fill:url(#w83k);fill-rule:nonzero" transform="translate(-.328 -.05)scale(12.8052)"/><path d="M75.916 26.831c-1.684-4.052-5.1-8.427-7.775-9.81a40.3 40.3 0 0 1 3.925 11.764l.007.065C67.691 17.925 60.26 13.52 54.191 3.928a48 48 0 0 1-.913-1.484 12 12 0 0 1-.427-.8 7 7 0 0 1-.578-1.535.1.1 0 0 0-.088-.1.13.13 0 0 0-.073 0c-.005 0-.013.009-.019.011s-.019.011-.028.015l.015-.026c-9.735 5.7-13.038 16.252-13.342 21.53.452-.031.9-.069 1.362-.069a19.58 19.58 0 0 1 16.982 9.917 13.38 13.38 0 0 0-9.345-2.269c13.94 6.97 10.2 30.972-9.119 30.066a17.3 17.3 0 0 1-5.043-.973 20 20 0 0 1-1.138-.466c-.219-.1-.438-.2-.654-.312l.027.017q-.282-.135-.564-.281c.181.087.351.181.537.264-4.733-2.446-8.641-7.07-9.129-12.684 0 0 1.789-6.667 12.81-6.667 1.191 0 4.6-3.325 4.661-4.289-.015-.315-6.76-3-9.39-5.59-1.405-1.385-2.072-2.052-2.663-2.553a11 11 0 0 0-1-.758 17.97 17.97 0 0 1-.109-9.473 28.7 28.7 0 0 0-9.329 7.21h-.018c-1.536-1.947-1.428-8.367-1.34-9.708a7 7 0 0 0-1.294.687 28 28 0 0 0-3.788 3.245A34 34 0 0 0 7.571 21.2v.006-.007a32.7 32.7 0 0 0-5.2 11.743l-.052.256c-.073.341-.4 2.073-.447 2.445 0 .028 0-.029 0 0a45 45 0 0 0-.572 5.403v.2c.019 21.25 17.509 38.725 38.759 38.725 18.786 0 35.002-13.658 38.195-32.171.065-.5.118-.995.176-1.5a39.86 39.86 0 0 0-2.514-19.469m-3.845 1.991.007.041z" style="fill:url(#w84l);fill-rule:nonzero" transform="translate(-.328 -.05)scale(12.8052)"/><defs><radialGradient id="w74b" cx="0" cy="0" r="1" gradientTransform="translate(67.813 8.879)scale(80.797)" gradientUnits="userSpaceOnUse"><stop offset="0" style="stop-color:#ffbd4f;stop-opacity:1"/><stop offset=".13" style="stop-color:#ffbd4f;stop-opacity:1"/><stop offset=".19" style="stop-color:#ffac31;stop-opacity:1"/><stop offset=".25" style="stop-color:#ff9d17;stop-opacity:1"/><stop offset=".28" style="stop-color:#ff980e;stop-opacity:1"/><stop offset=".4" style="stop-color:#ff563b;stop-opacity:1"/><stop offset=".47" style="stop-color:#ff3750;stop-opacity:1"/><stop offset=".71" style="stop-color:#f5156c;stop-opacity:1"/><stop offset=".78" style="stop-color:#eb0878;stop-opacity:1"/><stop offset=".86" style="stop-color:#e50080;stop-opacity:1"/><stop offset="1" style="stop-color:#e50080;stop-opacity:1"/></radialGradient><radialGradient id="w75c" cx="0" cy="0" r="1" gradientTransform="translate(38.289 41.911)scale(80.797)" gradientUnits="userSpaceOnUse"><stop offset="0" style="stop-color:#960e18;stop-opacity:1"/><stop offset=".3" style="stop-color:#960e18;stop-opacity:1"/><stop offset=".35" style="stop-color:#b11927;stop-opacity:.74"/><stop offset=".44" style="stop-color:#db293d;stop-opacity:.34"/><stop offset=".5" style="stop-color:#f5334b;stop-opacity:.09"/><stop offset=".53" style="stop-color:#ff3750;stop-opacity:0"/><stop offset="1" style="stop-color:#ff3750;stop-opacity:0"/></radialGradient><radialGradient id="w76d" cx="0" cy="0" r="1" gradientTransform="translate(48.03 -9.457)scale(58.534)" gradientUnits="userSpaceOnUse"><stop offset="0" style="stop-color:#fff44f;stop-opacity:1"/><stop offset=".13" style="stop-color:#fff44f;stop-opacity:1"/><stop offset=".25" style="stop-color:#ffdc3e;stop-opacity:1"/><stop offset=".51" style="stop-color:#ff9d12;stop-opacity:1"/><stop offset="1" style="stop-color:#ff980e;stop-opacity:1"/></radialGradient><radialGradient id="w77e" cx="0" cy="0" r="1" gradientTransform="translate(29.352 63.016)scale(38.471)" gradientUnits="userSpaceOnUse"><stop offset="0" style="stop-color:#3a8ee6;stop-opacity:1"/><stop offset=".35" style="stop-color:#3a8ee6;stop-opacity:1"/><stop offset=".47" style="stop-color:#5c79f0;stop-opacity:1"/><stop offset=".67" style="stop-color:#9059ff;stop-opacity:1"/><stop offset="1" style="stop-color:#c139e6;stop-opacity:1"/></radialGradient><radialGradient id="w78f" cx="0" cy="0" r="1" gradientTransform="matrix(19.8259 -4.79329 5.60918 23.2118 42.704 35.29)" gradientUnits="userSpaceOnUse"><stop offset="0" style="stop-color:#9059ff;stop-opacity:0"/><stop offset=".21" style="stop-color:#9059ff;stop-opacity:0"/><stop offset=".28" style="stop-color:#8c4ff3;stop-opacity:.06"/><stop offset=".75" style="stop-color:#7716a8;stop-opacity:.45"/><stop offset=".98" style="stop-color:#6e008b;stop-opacity:.6"/><stop offset="1" style="stop-color:#6e008b;stop-opacity:.6"/></radialGradient><radialGradient id="w79g" cx="0" cy="0" r="1" gradientTransform="translate(37.269 5.573)scale(27.676)" gradientUnits="userSpaceOnUse"><stop offset="0" style="stop-color:#ffe226;stop-opacity:1"/><stop offset=".12" style="stop-color:#ffdb27;stop-opacity:1"/><stop offset=".29" style="stop-color:#ffc82a;stop-opacity:1"/><stop offset=".5" style="stop-color:#ffa930;stop-opacity:1"/><stop offset=".73" style="stop-color:#ff7e37;stop-opacity:1"/><stop offset=".79" style="stop-color:#ff7139;stop-opacity:1"/><stop offset="1" style="stop-color:#ff7139;stop-opacity:1"/></radialGradient><radialGradient id="w80h" cx="0" cy="0" r="1" gradientTransform="translate(59.023 -11.981)scale(118.081)" gradientUnits="userSpaceOnUse"><stop offset="0" style="stop-color:#fff44f;stop-opacity:1"/><stop offset=".11" style="stop-color:#fff44f;stop-opacity:1"/><stop offset=".46" style="stop-color:#ff980e;stop-opacity:1"/><stop offset=".62" style="stop-color:#ff5634;stop-opacity:1"/><stop offset=".72" style="stop-color:#ff3647;stop-opacity:1"/><stop offset=".9" style="stop-color:#e31587;stop-opacity:1"/><stop offset="1" style="stop-color:#e31587;stop-opacity:1"/></radialGradient><radialGradient id="w81i" cx="0" cy="0" r="1" gradientTransform="matrix(9.08239 86.0665 -56.4838 5.96843 49.07 -5.415)" gradientUnits="userSpaceOnUse"><stop offset="0" style="stop-color:#fff44f;stop-opacity:1"/><stop offset=".06" style="stop-color:#ffe847;stop-opacity:1"/><stop offset=".17" style="stop-color:#ffc830;stop-opacity:1"/><stop offset=".3" style="stop-color:#ff980e;stop-opacity:1"/><stop offset=".36" style="stop-color:#ff8b16;stop-opacity:1"/><stop offset=".46" style="stop-color:#ff672a;stop-opacity:1"/><stop offset=".57" style="stop-color:#ff3647;stop-opacity:1"/><stop offset=".74" style="stop-color:#e31587;stop-opacity:1"/><stop offset="1" style="stop-color:#e31587;stop-opacity:1"/></radialGradient><radialGradient id="w82j" cx="0" cy="0" r="1" gradientTransform="translate(36.617 15.824)scale(73.72)" gradientUnits="userSpaceOnUse"><stop offset="0" style="stop-color:#fff44f;stop-opacity:1"/><stop offset=".14" style="stop-color:#fff44f;stop-opacity:1"/><stop offset=".48" style="stop-color:#ff980e;stop-opacity:1"/><stop offset=".59" style="stop-color:#ff5634;stop-opacity:1"/><stop offset=".66" style="stop-color:#ff3647;stop-opacity:1"/><stop offset=".9" style="stop-color:#e31587;stop-opacity:1"/><stop offset="1" style="stop-color:#e31587;stop-opacity:1"/></radialGradient><radialGradient id="w83k" cx="0" cy="0" r="1" gradientTransform="translate(56.077 20.139)scale(80.686)" gradientUnits="userSpaceOnUse"><stop offset="0" style="stop-color:#fff44f;stop-opacity:1"/><stop offset=".09" style="stop-color:#fff44f;stop-opacity:1"/><stop offset=".23" style="stop-color:#ffe141;stop-opacity:1"/><stop offset=".51" style="stop-color:#ffaf1e;stop-opacity:1"/><stop offset=".63" style="stop-color:#ff980e;stop-opacity:1"/><stop offset="1" style="stop-color:#ff980e;stop-opacity:1"/></radialGradient><linearGradient id="w73a" x1="0" x2="1" y1="0" y2="0" gradientTransform="rotate(136.026 32.885 20.503)scale(89.403)" gradientUnits="userSpaceOnUse"><stop offset="0" style="stop-color:#fff44f;stop-opacity:1"/><stop offset=".05" style="stop-color:#fff44f;stop-opacity:1"/><stop offset=".11" style="stop-color:#ffe847;stop-opacity:1"/><stop offset=".23" style="stop-color:#ffc830;stop-opacity:1"/><stop offset=".37" style="stop-color:#ff980e;stop-opacity:1"/><stop offset=".4" style="stop-color:#ff8b16;stop-opacity:1"/><stop offset=".46" style="stop-color:#ff672a;stop-opacity:1"/><stop offset=".53" style="stop-color:#ff3647;stop-opacity:1"/><stop offset=".71" style="stop-color:#e31587;stop-opacity:1"/><stop offset="1" style="stop-color:#e31587;stop-opacity:1"/></linearGradient><linearGradient id="w84l" x1="0" x2="1" y1="0" y2="0" gradientTransform="rotate(135 32.509 20.53)scale(77.422)" gradientUnits="userSpaceOnUse"><stop offset="0" style="stop-color:#fff44f;stop-opacity:.8"/><stop offset=".17" style="stop-color:#fff44f;stop-opacity:.8"/><stop offset=".27" style="stop-color:#fff44f;stop-opacity:.63"/><stop offset=".49" style="stop-color:#fff44f;stop-opacity:.22"/><stop offset=".6" style="stop-color:#fff44f;stop-opacity:0"/><stop offset="1" style="stop-color:#fff44f;stop-opacity:0"/></linearGradient></defs></svg>