<svg xmlns="http://www.w3.org/2000/svg" xml:space="preserve" viewBox="0 0 578.305 578.305"><path d="M533.32 160.379c.532-26.518-5.294-53.33-10.024-79.731-1.628-9.088-4.927-17.87-8.177-26.487-2.448-6.487-9.676-10.618-16.334-9.198-4.309.918-8.183 1.812-11.94 3.048-39.327 12.938-75.741 31.86-110.723 53.844-4.7 2.95-11.536 4.015-17.21 3.599-13.574-.992-27.001-4.37-40.569-5.013-33.58-1.591-67.093-.569-100.368 5.251-4.626.808-10.716.012-14.559-2.472-38.146-24.683-77.834-45.809-122.479-57.67-6.702-1.781-13.599-.838-15.294 1.824-1.035 1.628-1.971 3.317-2.485 5.128-4.823 16.946-10.539 33.807-13.342 51.114-3.341 20.655-6.554 41.935-4.969 62.565.998 12.968-2.583 20.937-9.669 30.037C11.407 226.757.703 261.861.048 300.35c-.563 32.919 3.794 65 13.819 96.47 15.355 48.219 45.006 84.406 89.652 107.95 36.708 19.357 76.708 26.818 117.639 28.256 36.892 1.292 73.856.196 110.79.404 37.021.208 73.532-3.091 108.948-14.633 35.447-11.549 66.121-30.184 89.922-59.486 34.376-42.326 45.079-92.186 47.276-144.965 1.684-40.361-6.542-78.329-30.178-111.347-9.584-13.396-14.957-24.902-14.596-42.62m-71.273 309.262c-15.876 13.728-35.288 20.227-55.16 24.976-38.99 9.315-78.69 11.635-118.519 9.896-39.37 1.707-78.287-.747-116.592-9.762-28.256-6.646-54.052-17.821-72.032-42.075-28.611-38.599-35.924-112.057 11.353-152.148 12.056-10.221 25.502-16.708 41.39-17.717 17.534-1.12 35.074-3.305 52.595-3.097 44.199.526 88.378 2.724 132.571 3.054 20.184.146 40.509-4.56 60.545-3.348 18.207 1.102 37.351 4.455 53.875 11.781 27.546 12.215 42.374 36.983 46.854 65.992 6.67 43.133-2.131 82.393-36.88 112.448"/><ellipse cx="390.026" cy="385.552" rx="42.124" ry="56.298"/><ellipse cx="189.028" cy="385.552" rx="42.13" ry="56.298"/></svg>