<svg xmlns="http://www.w3.org/2000/svg" xml:space="preserve" style="fill-rule:evenodd;clip-rule:evenodd;stroke-linejoin:round;stroke-miterlimit:2" viewBox="0 0 512 512"><path d="M512 122.18C512 54.747 457.253 0 389.82 0H122.18C54.747 0 0 54.747 0 122.18v267.64C0 457.253 54.747 512 122.18 512h267.64C457.253 512 512 457.253 512 389.82z" style="fill:#221f20"/><path d="M112.654 426.269a35.1 35.1 0 0 1-11.424-1.829 25.1 25.1 0 0 1-15.581-14.816q-2.279-5.574-2.275-12.981 0-7.319 2.32-12.986a28 28 0 0 1 6.29-9.549 27.3 27.3 0 0 1 9.238-5.934 30.2 30.2 0 0 1 11.067-2.053q6.423 0 11.129 2.275a28.6 28.6 0 0 1 7.808 5.4l-8.044 9.816a22 22 0 0 0-4.505-3.08 14.1 14.1 0 0 0-11.29-.045 13.1 13.1 0 0 0-4.371 3.303 14.9 14.9 0 0 0-2.899 5.258 22.5 22.5 0 0 0-1.028 7.047q0 8.214 3.659 12.585 3.66 4.372 11.513 4.372c.825.001 1.647-.089 2.453-.267a5.8 5.8 0 0 0 2.007-.806v-8.013h-8.565v-12.501h22.13v27.664q-3.117 2.947-8.298 5.043a29.9 29.9 0 0 1-11.334 2.097m30.877-1.073V367.19h15.706l12.834 25.865 5.53 13.025h.356a386 386 0 0 0-.624-5.084 159 159 0 0 1-.623-5.667 383 383 0 0 1-.489-5.787 72 72 0 0 1-.223-5.578V367.19h14.633v58.006h-15.688l-12.852-25.967-5.53-12.941h-.36q.543 5.003 1.251 10.889c.463 3.731.701 7.486.712 11.245v16.774zm83.707 1.073q-12.225 0-18.163-7.096-5.94-7.096-5.935-21.996V367.19h15.35v31.772q0 7.76 2.097 10.929t6.651 3.17q4.55 0 6.735-3.17 2.187-3.17 2.204-10.929V367.19h14.815v29.987q0 14.904-5.787 21.996t-17.967 7.096m87.474-2.949h-13.603v-20.761q0-3.494-2.069-3.494-3.087 0-3.087 5.699v18.556H282.35v-20.252q0-3.73-2.307-3.731-1.662 0-2.357 1.272t-.696 4.461v18.25h-13.603v-36.67h13.603v1.899q0 2.24-.203 4.207 3.63-6.887 9.464-6.887 6.547 0 9.702 7.599 2.748-7.599 9.091-7.599 4.784 0 7.463 3.495 2.205 2.917 2.205 8.785zm39.045 0H340.12q.17-1.832.272-3.494.1-1.662.203-2.68-3.528 6.92-9.464 6.92-5.157 0-8.176-5.156-2.985-5.122-2.985-14.18 0-8.751 3.087-13.772 3.087-5.088 8.413-5.089 5.462 0 8.82 6.581a38 38 0 0 1-.102-1.187 27 27 0 0 0-.068-.848l-.135-2.137-.102-1.628h13.874zm-13.772-18.793q0-2.035-.153-3.46t-.492-2.324-.882-1.289-1.323-.39q-3.46 0-3.46 9.193 0 6.58 3.087 6.581 3.223 0 3.223-8.311m40.13 18.793-5.258-14.247q-.373-.951-1.221-4.173v18.42h-13.603v-57.295h13.603v37.145q.44-1.425.967-2.833t1.102-2.866l4.41-10.821h14.722l-9.023 16.825 9.939 19.845zm36.704-12.895 13.298.272q-1.425 6.411-5.547 9.651-4.12 3.24-10.77 3.239-7.87 0-12.348-4.884-4.444-4.953-4.444-13.536 0-8.717 4.783-14.213 4.784-5.53 12.348-5.53 7.531 0 12.009 5.326 4.478 5.36 4.478 14.214l-.068 2.408h-19.947q.238 5.632 3.189 5.632 2.307 0 3.019-2.579m.305-10.38q0-1.017-.237-1.866a4.8 4.8 0 0 0-.661-1.458 3.4 3.4 0 0 0-1.001-.967 2.34 2.34 0 0 0-1.255-.356q-1.425 0-2.307 1.306-.882 1.305-.882 3.341z" style="fill:#fff;fill-opacity:.95;fill-rule:nonzero"/><path d="M175.917 223.321c-1.769.12-4.072.913-5.618 3.683-1.261 2.262-4.216 2.623-5.596 2.167-2.299-.759-5.237-1.286-8.082.741s-5.919.495-5.38-3.202 1.873-6.987 5.418-9.025c7.738-4.452 2.36-7.55 6.608-12.018 4.254-4.477 3.315-5.847 3.174-11.927-14.384-2.161-22.537-6.307-31.639-17.68s-12.632-20.735-13.576-34.996c-.943-14.259-.125-23.501 6.036-35.337s12.647-17.534 23.888-23.444c11.241-5.909 22.254-7.324 32.435-7.152s16.965.918 22.717 4.199c5.751 3.283 11.014 7.413 14.368 7.443s5.64-.85 7.27-2.099c.435 11.054-9.513 12.013-18.414 12.248-8.9.232-14.369-3.449-22.566-2.08-8.198 1.37-21.619 5.1-28.157 16.481-6.539 11.38-6.762 15.404-6.219 24.947.544 9.545 8.759 16.665 13.395 16.743 4.637.077 5.672-1.266 9.73-3.913s24.781-28.298 31.851-34.06c7.07-5.761 14.048-7.54 21.581-7.633 7.535-.093 9.46.163 15.536 2.654s9.811 7.075 14.709 9.878c2.504-1.474 4.06-3.673 6.357-5.353 8.217-6.006 12.486-7.624 22.253-6.673 5.613.546 12.69 3.752 16.914 7.424 7.52 6.538 13.732 15.641 18.752 22.556 3.909 5.385 8.509 11.829 15.076 13.843 7.17 2.198 12.566-7.089 13.358-12.24.449-2.918 1.035-5.477 1.039-8.689.005-3.213-.323-7.112-1.249-10.46s-2.513-6.68-4.23-9.442c-2.795-4.497-7.369-9.201-12.129-11.622-2.671-1.359-8.955-3.828-12.917-3.915-4.853-.106-8.55 1.525-13.038 1.831-5.432.37-15.135 1.591-19.393-2.605-2.709-2.67-3.05-4.452-3.513-7.935 1.197.987 2.871 1.636 4.362 1.762 3.401.287 6.586-2.49 9.331-4.099 2.262-1.326 5.464-3.695 8.434-4.892 7.633-3.078 17.008-2.989 25.065-2.164 6.458.66 14.83 3.533 20.494 6.738 5.691 3.219 11.175 8.647 15.191 13.765 5.053 6.438 7.816 11.962 9.646 19.992 2.34 10.254 2.988 25.659.159 35.77-2.228 7.968-9.629 20.207-15.93 26.207-6.213 5.917-13.387 8.774-21.546 10.336.32 1.647.372 3.183.794 4.533.6 1.916 1.747 4.053 4.104 3.377.939-.269 1.442-.503 2.681.581 1.238 1.084.593 5.27-2.891 7.149-1.767.953-3.631 1.16-6.461 1.217-2.83.056-7.246.068-10.318-.47-3.072-.537-4.908-2.975-8.309-3.357-5.258-.588-9.284-4.386-13.5-7.103-1.76-1.134-2.353-1.146-3.366-1.718.547 1.676 1.278 3.418 1.642 5.029.365 1.613.209 3.106.403 4.396.192 1.289.551 2.291.759 3.337.842.754 1.111 1.899 2.526 2.259s3.633-.2 5.082-.394c1.448-.196 2.419-.985 3.556-.769 1.136.216 2.214 1.03 3.167 1.793.953.764 1.771.875 2.543 2.778.771 1.904 1.478 5.802 1.584 8.408.105 2.606-.186 4.958-.959 7.026s-1.451 2.984-3.541 5.032c-2.091 2.048-5.497 5.053-8.895 7.147.625.927.904 1.775 1.879 2.78.976 1.006 3.009 2.133 3.915 3.194.905 1.061 1.363 1.822 1.376 3.012.014 1.19-.044 2.735-1.01 4.033-2.406 3.229-5.251 3.807-8.711 5.326.582 3.633 1.057 6.229.216 9.857-.343 1.478-1.106 4.83-2.929 5.689-1.823.86-5.34.444-7.567.797-2.226.355-3.472.69-5.207 1.035-1.054 1.525-2.625 3.207-3.163 4.573s-.376 1.856.077 3.252c.452 1.395 1.992 3.427 2.428 5.061s.521 3.392.114 5.031-1.106 2.827-2.502 4.282-4.142 2.598-5.51 3.777c-1.369 1.18-2.732 1.322-2.359 3.273.514 2.681 4.431 7.029 7.264 8.063 1.698.621 3.979.426 6.041-.445-.14 2.291-2.122 3.834-3.416 5.354 3.506-1.002 6.905-2.922 9.257-5.465-.729 2.209-3.239 5.755-6.992 8.871-3.753 3.115-3.73 2.477-5.596 3.715 3.404.684 6.569.5 9.207.026-1.446.797-3.815 1.917-6.955 2.247-3.138.33-5.073.096-7.902-.591-2.83-.687-5.412-3.259-8.84-5.031.334 1.272.572 2.801 2.013 4.109 1.442 1.308 3.623 1.972 5.941 3.104-2.951-.336-6.052-.437-8.952-1.076-2.148-.474-3.59-.976-5.161-1.754s-2.783-1.913-4.174-2.87c.667 1.274.865 2.771 1.998 3.821s2.979 1.44 4.47 2.162c-1.555-.035-3.052.303-4.664-.103-1.613-.405-3.127-1.043-4.804-2.278a35 35 0 0 1-4.839-4.313c-1.431-1.556-3.197-3.572-3.731-5.006-.535-1.435.321-2.439.482-3.656-.987.648-2.202 1.006-2.962 1.948-.759.942-1.432 1.802-1.096 3.445.337 1.642 1.853 3.649 2.924 5.476-3.198-2.615-4.984-3.621-5.744-6.776-.713-2.953 1.13-5.634 2.531-7.868.695-1.109 1.736-2.14 2.386-3.211-1.444-1.414-3.095-2.629-4.333-4.24s-1.758-3.794-3.021-5.335c-1.264-1.542-2.964-2.519-4.445-3.777 1.302 2.796 3.44 6.226 3.905 8.389.464 2.164-.521 3.488-1.288 4.656-.769 1.168-2.009 1.428-3.184 2.146s-3.004.152-3.706 1.217c-.699 1.066-.887 2.669-.218 3.724l2.747 4.335c-1.013-.511-2.756-1.996-3.541-3.05s-1.992-2.027-2.157-3.452-.245-2.66.678-3.929 3.45-1.693 4.58-2.668c1.132-.975 1.766-1.61 1.702-2.87s-1.296-2.162-2.355-2.957c-3.231-2.424-7.377-4.657-10.121-7.579-1.549-1.65-2.293-2.982-2.605-4.121s.018-2.026.788-3.427 3.412-3.27 3.733-4.792-1.014-1.847-2.217-2.385-3.491.276-4.608-.657c-1.116-.934.328-2.895-.931-3.971-1.258-1.075-4.137-.475-5.624-1.632-1.486-1.157-2.101-2.593-2.612-4.272s-.571-3.518-.224-4.733c.347-1.216 1.39-1.429 2.02-2.059.629-.63 1.174-1.152.336-2.092-.839-.939-3.586.053-5.165-1.153s-.613-4.095-1.73-5.313-3.12-.741-4.177-1.129c-1.058-.389-1.472.983-2.121-1.188-.648-2.171-.667-8.641-1.539-11.056s-2.585-.163-3.381-2.564c-.796-2.4-.041-6.238-.4-9.863l-1.624-9.862c-5.664 3.805-9.403 5-15.488 6.074-.508 14.891-1.907 23.658 3.147 40.177 5.053 16.519 15.281 26.255 29.078 40.24-18.206-13.641-26.898-24.73-32.339-38.935-5.44-14.208-4.395-26.09-3.849-39.771m96.746-5.984c1.401.062 3.103.418 4.086 1.056.985.639 2.029 1.161 2.922 2.07 2.228 2.269 3.899 5.006 4.637 8.149.471 2.005.541 4.576.712 6.929-.673-2.175-1.127-4.443-2.087-6.392-1.515-3.074-4.089-6.073-7.284-7.454-1.055-.457-1.758-.372-2.338-.292.26.436.694.802.713 1.44s-.124 1.887-1.206 2.412c-1.745.846-3.685.25-5.032-.94-1.359-1.201-1.822-3.233-1.111-4.978.848-2.079 4.078-2.086 5.988-2m-17.563-2.96c.177-3.576 1.467-6.593 4.672-8.346 1.657-.906 4.21-2.08 6.557-2.355 2.253-.264 7.735-.071 11.033 1.434 2.532 1.156 4.257 2.956 6.481 4.271 2.222 1.315 3.804 2.196 5.921 3.672 3.249 2.265 5.154 4.758 7.406 6.252 1.084.718 2.608.612 4.046 1.051-1.118.332-2.58.699-3.787.312-1.503-.481-3.607-1.856-4.774-2.842-2.063-1.742-3.132-2.592-5.383-3.906-1.343-.783-3.556-1.705-5.033-2.669-1.478-.962-4.042-3.075-5.461-3.791-1.806-.908-5.056-1.414-7.065-1.355-2.767.081-6.775.538-8.917 2.482-2.128 1.931-2.936 3.631-2.456 6.14.801-.923 1.334-2.083 2.138-2.769 1.663-1.421 3.571-1.49 5.642-1.22 2.325.302 3.496 1.646 4.265 3.854-.518-.38-1.468-1.214-2.218-1.473-1.762-.608-3.093-.42-4.742.465-1.947 1.045-1.418 2.59-1.699 4.31-.128.793-.428 1.432-.641 2.148-.733-.193-1.41-.498-1.964-1.047.023.803-.094 1.505.071 2.408.163.904.604 1.977.905 2.965-1.357-1.356-2.744-2.619-3.62-4.37-.876-1.753-1.471-3.698-1.377-5.621m2.347-26.029c1-1.484 1.292-3.759 1.909-5.609-.247 2.344.228 4.921-.917 6.618s-3.153 1.399-4.818 1.893c1.295-.988 2.826-1.418 3.826-2.902m-23.93 34.748c1.283-1.04 4.747-.209 7.337-.024l-5.585 1.43c-.173.634-.095 1.36-.52 1.9-.425.541-1.233.741-1.85 1.111.061-1.665-.666-3.38.618-4.417m18.253-72.165c1.546.833 3.51 1.934 4.875 1.967 1.366.035 1.723-.893 2.527-1.428 1.264 4.122 2.714 8.651 4.866 12.39.901 1.567 1.476.838 2.162 2.413.684 1.574.989 4.777 1.639 6.788s1.498 3.491 2.247 5.237c-1.902-2.696-4.361-6.133-5.421-8.377-1.059-2.242-.381-2.438-1.239-4.574s-2.592-5.467-3.888-8.2c-.928.124-2.077.292-2.782.075-.706-.219-.565-.969-1.203-1.453s-1.711-.298-2.605-1.071c-.894-.774-1.097-2.362-1.178-3.767m-8.325 20.336c1.454-.128 3.262.263 4.625.185 1.362-.077 2.335-.431 3.503-.646-.217-2.053-.011-5.825-1.906-7.195-1.224-.885-6.251-.218-7.594.071-3.021.652-6.54 2.455-9.463 3.583 2.802-1.957 5.221-3.77 8.58-4.779 2.019-.608 6.731-1.397 8.814-.834.951.257 1.144.65 1.721 1.457 1.984 2.769 1.978 5.163 2.492 8.388.506.789 1.045 1.314 1.455 2.128.409.813.641 2.092.755 3.138-.518-.753-.201-1.697-1.639-2.257-1.439-.56-3.641-.037-5.58.166 1.413 1.019 2.115 2.001 2.169 4.157.064 2.53-2.079 4.351-4.316 4.525-3.106.241-4.707-.442-5.963-3.096-.551-1.162-.152-2.561-.198-3.695-3.732.259-3.671.138-6.398 2.412 1.483 2.173 2.416 3.421 4.866 4.72 1.374.73 2.93 1.439 4.632 1.728 1.703.291 4.497.57 6.286.296 1.789-.275 2.802-.785 4.128-2.013 1.327-1.226 1.449-2.982 1.967-4.372-.118 1.338-.272 3.039-.767 4.008-1.51 2.947-4.119 3.821-7.237 3.831-2.991.009-6.691-.681-9.474-1.835-2.225-.921-5.913-3.533-6.789-5.802-.598-1.55-.124-3.453-.188-5.178 3.082-2.049 3.845-1.546 7.49-2.145 1.524-.251 2.573-.818 4.029-.946m-17.947-13.876c.087-1.228.222-1.201.334-1.802-2.807-.751-3.932 1.07-5.579 4.452-.615 1.265-.006 2.019-.666 2.851-.66.833-1.723.717-2.795 1.516-1.072.801-2.134 2.332-3.135 3.159-2.056 1.7-4.836 2.737-7.22 3.881 1.629-1.202 4.789-3.023 5.811-4.77.542-.925.462-2.67 1.306-3.502.844-.833 1.14-1.409 2.229-1.621s.652-1.476 1.003-2.479 1.051-1.718 1.797-2.72c.745-1.002 1.685-2.51 3.155-3.056 1.471-.547 3.764.045 4.878-.27 1.113-.315.473-1.125 1.283-1.611s2.383-.271 3.465-.791c1.916-.921 2.834-2.46 3.987-4.107.167 3.546.126 6.098-1.148 9.434-1.436 3.754-2.889 5.965-6.962 8.274-1.403.795-2.799 1.071-3.962 1.488.678-.924 1.648-1.326 2.035-2.775.385-1.449.098-4.323.184-5.551m65.746 17.288c-1.936.125-2.396-.13-3.944.963l2.518 3.921c-.075-2.58.177-3.097 1.426-4.884m-5.073-1.875c2.681-1.143 5.018-2.066 7.935-2.249 1.169-.073 2.985.107 4.166.161 1.007-1.481 2.288-2.649 2.758-4.339.312-1.122.158-6.326-.393-7.677-1.604-3.932-3.164-4.098-5.372-6.35-1.601-1.634-1.666-4.121-2.145-6.908-.175-1.024-.678-2.32-.913-3.377q-4.33-.729-9.311-.48c1.611-1.544 3.167-2.955 3.629-5.274.461-2.318.086-5.168-1.233-7.248-1.318-2.08-3.423-3.89-5.355-5.584s-4.704-3.092-6.536-4.477c2.383-.854 4.815-2.106 7.148-2.559 6.08-1.179 11.318.624 17.181 4.169 3.409 2.061 6.229 4.021 9.792 7.752s7.982 10.573 11.432 14.631c3.449 4.058 6.234 7.267 9.244 9.688s5.734 3.109 8.6 4.665l4.467 4.743 3.616-4.473 5.818.658 1.201-6.531 5.34-1.462-.871-8.803 3.839-2.725-2.885-5.477 2.931-5.985-3.821-6.84 1.473-6.587-4.425-3.771-.578-7-6.172-2.355-2.476-6.088-6.94-.079-3.404-4.521-4.672.327-5.208-.567-2.945-2.174-4.274 2.838-5.172-2.697-10.282 3.903 6.703-5.829 6.944-1.109 5.319-1.356 7.184 2.359 6.324-1.601 6.097 3.604 6.451-.357 3.171 5.688 6.424.741 3.475 6.323 4.041 2.206 1.072 8.1 3.599 3.413-1.582 7.088 4.239 5.367-3.975 5.75 4.25 3.596-5.433 4.815 5.503 5.731-6.646 2.143 4.329 6.147-5.429.937 3.56 6.758-6.117-.081 3.081 5.062-6.71-.807 1.605 7.283-5.071-4.462-1.737 8.827-3.5-6.337-1.896 7.905-4.32-5.83.118 8.29-4.775-7.453c1.008 4.228.806 8.86 3.584 12.846 8.605-1.165 14.23-3.333 20.824-9.678 6.005-5.778 13.182-17.826 15.125-25.467 2.219-8.72 2.287-24.757.102-33.635-2.102-8.547-4.835-12.63-9.716-19.605-4.666-4.956-9.256-10.192-15.178-13.726-8.694-5.188-19.841-6.586-29.749-6.452-5.485.076-9.161 1.129-12.441 2.323-5.736 2.085-10.323 6.635-16.154 8.884-1.902.732-3.426.755-4.924-.045 1.466 2.934 3.062 4.25 6.719 5.318 2.646.772 8.959.283 13.304-.117 4.666-.432 7.099-1.819 13.448-1.731 6.201.084 11.115 2.44 13.802 3.976 5.542 3.17 9.518 6.686 12.971 12.255 1.897 3.06 3.226 6.51 4.161 10.031.936 3.522 1.346 7.466 1.406 10.914s-.204 6.525-1.047 9.627c-1.972 7.263-6.323 14.655-15.261 13.513-5.47-.699-13.716-10.966-16.477-14.732-5.572-7.602-11.305-16.014-18.308-22.344-4.268-3.859-10.113-6.514-15.853-7.039-10.768-.986-13.962 1.06-22.067 7.741 1.65.525 3.259.816 4.948 1.577 3.751 1.69 7.181 3.874 10.173 6.676 3.135 2.936 4.541 4.794 4.653 8.999.074 2.792-2.223 5.031-4.329 7.044-1.289 1.234-2.993 2.363-4.037 3.32-1.382 1.271-3.095 2.66-1.358 4.683.654.761 1.788 1.335 2.746 2.044 1.517 1.128.822 5.316-1.178 6.428-2.561 1.421-5.619 1.262-7.73-.64 2.665-.398 4.357-.752 4.288-2.931-.04-1.264-1.647-2.314-3.223-3.033-3.802-1.733-6.674-1.477-10.458-4.2-3.821-2.751-3.906-4.258-4.938-8.577-1.844.193-3.541.235-6.005 1.051-2.464.815-5.186 2.757-7.424 3.238-5.634 1.213-6.756.853-9.84.055-5.428-1.405-12.497 1.001-19.518 3.246-1.169.373-5.89.013-9.069 1.129-4.91 1.722-11.798 5.894-15.777 9.245-6.029 5.077-13.951 20.272-18.427 37.714-.47 5.302 1.037 8.875-2.303 11.464s-3.247 9.225-4.379 11.085c-1.133 1.86-2.444 1.039-4.882 3.651-2.439 2.613-3.679 2.177-3.617 7.118 2.101-1.382 5.163-2.987 7.852-3.084 2.383-.087 2.408 3.049 8.521-2.994 3.269-3.233 9.551-3.332 13.909-4.758s12.212-4.365 20.078-13.159 11.63-18.052 13.155-31.436c.243 2.373.665 5.049-.352 11.595-1.016 6.545-3.206 13.898 1.408 22.705l2.875 5.487c-1.712-2.336-5.054-6.146-6.062-8.86l-2.321-6.263c-5.193 8.155-6.387 9.612-13.601 15.454-.288 3.625-.358 7.405.826 10.873 1.185 3.467-.703 7.465.198 9.749.901 2.283 2.986.983 3.666 3.296.681 2.312-.355 6.883.7 9.137s3.645.886 4.9 1.614 1.666 1.727 2.338 2.684c.671.957-.263 3.22 1.103 3.955 1.364.735 3.493.112 4.913.818 1.42.705 1.636 2.401 1.296 3.92-.341 1.519-1.858 2.217-2.525 3.762s-.591 2.621.209 4.04 2.573 2.201 4.339 2.917 4.248.314 6.071 1.304c1.823.991 3.462 2.963 4.424 4.398s1.23 2.445 1.18 3.954c-.049 1.506-.66 3.244-1.465 4.699-.806 1.456-2.581 3.23.191 6.011 2.772 2.78 2.671 1.581 4.259 3.385-.173-3.12-1.463-5.663-.52-8.011.943-2.349 3.774-2.758 5.266-3.815 1.493-1.057 2.352-2.509 3.529-3.763-.018 1.614.156 3.349-.028 4.564-.374 2.471-1.103 4.665 2.579 5.061 1.659.178 3.234-.898 4.979-1.543-.915 1.637-2.505 2.954-2.743 4.914-.24 1.959.048 4.111 1.404 6.055 1.357 1.943 3.7 3.386 5.416 4.528s2.636 1.234 3.956 1.852c.064 1.926-.315 3.965-.095 5.779.219 1.814.791 3.419 1.84 4.919s2.733 2.36 4.318 3.47c-.87-2.025-2.632-3.944-2.609-6.072.024-2.127.662-3.635 2.737-5.523s6.933-3.525 9.224-5.361c2.29-1.836 3.029-2.96 3.852-4.743s.593-4.654.745-6.256c.755 2.245.863 2.942 1.107 5.29.245 2.349-1.369 5.643-2.052 7.382 2.833-1.369 4.632-3.557 5.54-5.694.607.359.301 1.348.525 3.251 1.01-1.005 2.158-1.777 3.174-2.726 1.017-.947 2.133-1.781 2.637-3.103.504-1.324.298-2.73-.077-4.268-.376-1.537-2.094-3.319-3.019-5-.924-1.681.163-3.331.101-5.357-1.851-.317-3.422-1.26-5.549-.954-2.129.306-4.566 2.694-6.741 2.722s-3.395-2.009-5.178-2.57-3.587-.498-5.38-.747c2.271-2.175 11.084-3.212 17.112-4.195 5.305-.865 10.569-1.365 15.943-1.44 2.401-.035 5.486.758 7.152.279 1.668-.478 1.312-1.614 1.807-2.852 1.384-3.461.702-6.543-.051-10.028-4.825-.566-9.853-1.258-14.714-.885-4.753.366-10.381 2.625-15.283 2.778-4.262.133-10.574-.816-14.234-3.047-4.472-2.726-7.932-8.581-9.161-10.461-2-3.061-4.524-9.068-6.059-11.815-1.534-2.747-1.873-3.514-3.15-4.661s-3.027-1.235-4.539-1.852c1.744.178 3.648-.375 5.232.534 2.381 1.366 5.045 7.026 6.525 9.489 1.57-5.26 1.204-7.328 5.745-10.295-3.66 4.102-3.751 7.208-4.643 12.037 3.043 4.995 7.274 12.951 12.809 15.158 2 .798 5.433 1.298 7.595 1.565 6.728.833 13.217-1.298 19.824-2.93 4.83-1.193 9.732-.712 15.605-.367 1.994.117 6.697-1.083 7.67-3.1.526-1.088.487-2.396-.268-3.556-.756-1.159-2.77-1.721-3.849-2.764-1.08-1.044-1.701-2.283-2.551-3.425-4.486.861-8.176 1.192-11.507 1.283 2.389-.985 4.68-1.546 7.167-2.518 2.486-.973 5.309-2.569 7.315-3.893s3.287-2.093 4.739-3.634c1.452-1.542 3.312-3.132 4.382-5.017 1.071-1.885 1.236-3.994 1.296-6.326s-.041-5.607-.941-7.485c-.898-1.879-2.632-2.45-4.024-2.894-1.393-.445-2.347.679-3.796.831s-2.803 1.066-4.898.08c-2.096-.985-4.58-2.991-6.698-5.969-2.118-2.977-3.633-7.844-5.792-11.588-3.722-6.454-8.361-12.482-12.797-18.463-.365-1.475-.914-3.513-1.097-5.513-.318-3.486-.378-7.107.704-10.506.83-2.603 2.036-5.354 4.761-6.421 1.091-.427 2.47-.597 3.446-.236.975.361 1.932 1.462 1.548 2.733-.421 1.399-1.389 1.437-2.048 2.143-1.117 1.198-1.564 2.077-1.986 3.57 1.208-.02 2.84-.112 3.831.149 1.294.34 2.499 1.199 3.157 3.033-1.545-1.37-2.312-1.998-4.24-2.047-.883-.023-1.956.293-2.934.441-.365 1.188-.579 2.644-1.095 3.564-.516.918-1.52.698-1.897 1.773-.376 1.071-.398 2.817-.208 4.227m13.494-1.611c.591.234.816.285 1.566.856.749.57 1.783 1.138 2.376 2.5.594 1.363.567 3.47.44 4.329-.521-.153-1.231-.049-1.771-.512-.54-.462-.861-1.508-1.553-1.956s-1.269-.349-2.034-.447c.393 1.118.584 2.237.402 3.251-.397 2.212-1.697 3.333-3.804 3.598-.92.116-2.381-.187-3.181-.333.371.829 1 1.555 1.371 2.383 1.781-.258 3.101-.221 4.058-.668.958-.448 1.985-1.452 3.214-1.877 1.23-.425 2.326-.418 3.67-.628-1.059.912-1.754 1.826-2.812 2.739l2.328 6.766c1.645 1.029 3.189 1.572 5.261 2.842 2.075 1.271 4.561 3.545 7.261 4.785 2.702 1.24 4.309 1.915 7.132 2.447 2.821.533 5.066 2.818 7.842 3.189 2.777.372 7.964.447 10.103.238 2.429-.237 5.585-1.491 5.869-4.154-2.037.502-5.148.051-6.719-3.782-.697-1.702-.356-4.832-1.423-6.846-1.067-2.013-2.554-2.658-4.331-5.138s-4.684-6.393-6.317-9.715c-1.631-3.323-2.014-7.087-3.394-10.064-1.38-2.976-3.461-5.381-5.075-7.676-3.522-5.015-6.362-8.442-12.164-10.971-2.791-1.217-5.969-1.542-8.952-2.312-1.214.544-2.88 1.145-3.176 2.565-.295 1.42.273 3.518 1.303 4.584 1.726 1.782 4.282 3.708 5.287 6.542.645 1.818.833 7.913.273 9.566-.58 1.718-1.929 2.756-3.05 3.899m.562 14.426c-.54.466-.951.943-1.818 1.329-.865.386-2.049.486-3.199.773 1.613 2.509 3.306 5.045 4.85 7.684 1.546 2.637 2.884 5.526 4.359 8.289-.069-1.584.024-3.272-.207-4.752-.229-1.479-.9-2.774-1.564-4.994-.665-2.22-1.481-5.242-2.421-8.329m-43.373-55.174c-.228 2.468.189 6.328.701 8.744.613 2.893 1.202 4.393 3.549 6.136 4.3 3.192 7.044 2.654 10.351 4.504 1.574.881 3.568 2.357 4.15 3.918s-.384 3.254-1.578 3.92c2.088.311 4.428-2.042 3.452-4.458-.481-1.189-2.771-1.718-3.473-2.918-.701-1.199-.699-2.435-.369-3.653.596-2.195 4.941-4.19 6.476-5.926 2.362-2.671 3.269-4.905 1.931-8.345-1.879-4.832-9.137-8.71-13.482-10.606-1.99-.868-3.105-.93-4.656-1.394 3.176 1.861 6.526 3.344 8.132 7.505 1.343 3.476.181 4.786.226 7.813.02 1.403 1.868 2.104 2.688 2.991.714.771.656 1.342.086 2.407-.063-.96-.473-1.676-1.21-2.198-1.216-.862-2.526-.676-3.174-2.445-.984-2.687.967-5.232-1.226-8.25-1.64-2.258-3.822-4.785-6.765-4.851-1.392-.031-2.44.18-3.928.619l-1.983-2.386-.046-.032c-4.035-3.682-6.795-6.717-12.455-9.248s-8.45-2.913-14.939-2.769c-6.49.145-12.93.686-20.446 7.169-7.516 6.481-26.888 31.301-31.585 34.443s-5.738 4.205-11.608 4.207c-5.869.002-15.031-8.302-15.389-18.677-.359-10.378-.504-14.066 6.709-26.566 7.213-12.501 20.282-16.339 29.977-17.635s15.523 2.118 22.695 2.134c7.171.017 14.259-1.221 16.349-6.925-1.022.609-2.394 1.295-6.247 1.094-3.853-.202-9.198-4.664-15.21-7.654s-12.701-3.34-21.281-3.502-19.287.494-29.893 6.22-17.848 11.801-24 23.008-7.071 20.358-6.08 33.928c.992 13.57 5.178 23.661 13.236 33.593 8.058 9.931 16.112 14.791 30.633 16.597l3.057-13.483-5.458 7.831.136-8.711-4.937 6.126-2.165-8.307-3.999 6.66-1.986-9.275-5.795 4.687 1.833-7.654-7.667.85 3.522-5.32-6.992.085 4.068-7.102-6.203-.985 4.946-6.46-7.595-2.25 6.288-6.023-6.209-5.059 4.856-3.778-4.541-6.043 4.844-5.639-1.807-7.448 4.113-3.585 1.224-8.511 4.617-2.319 3.972-6.644 7.341-.779 3.623-5.976 7.374.375 6.968-3.787 7.227 1.683 8.208-2.479 6.079 1.424 7.934 1.166 7.661 6.126-11.751-4.102-5.91 2.834-4.886-2.982-3.363 2.285-5.952.596-5.338-.345-3.891 4.75-7.932.082-2.829 6.399-7.052 2.474-.66 7.356-5.058 3.961 1.685 6.922-4.367 7.188 3.349 6.288-3.296 5.756 4.386 2.862-.995 9.25 6.102 1.537 1.374 6.862 6.649-.691 4.13 4.701 5.106-4.985c9.307-4.641 13.14-7.237 20.393-15.082 8.257-8.931 12.99-17.188 23.988-23.302 7.888-4.385 14.322-5.964 23.184-4.433 8.319 1.437 11.105 6.428 17.232 11.685.65-1.175.781-1.487 1.852-2.353-.337 1.526-.87 3.11-1.005 4.579" style="fill:#fff;fill-rule:nonzero"/></svg>