<svg xmlns="http://www.w3.org/2000/svg" xml:space="preserve" style="fill-rule:evenodd;clip-rule:evenodd;stroke-linejoin:round;stroke-miterlimit:2" viewBox="0 0 512 513"><path d="M581 191.18C581 123.747 526.253 69 458.82 69H191.18C123.747 69 69 123.747 69 191.18v267.64C69 526.253 123.747 581 191.18 581h267.64C526.253 581 581 526.253 581 458.82z" style="fill:#234467" transform="translate(-69 -68.5)"/><path d="M71 460 30 0h451l-41 460-185 52" style="fill:#e34f26;fill-rule:nonzero" transform="translate(94.875 107.884)scale(.6294)"/><path d="m256 472 149-41 35-394H256" style="fill:#ef652a;fill-rule:nonzero" transform="translate(94.875 107.884)scale(.6294)"/><path d="M256 208h-75l-5-58h80V94H114l1 15 14 156h127zm0 147h-1l-63-17-4-45h-56l7 89 116 32h1z" style="fill:#ebebeb;fill-rule:nonzero" transform="translate(94.875 107.884)scale(.6294)"/><path d="M255 208v57h70l-7 73-63 17v59l116-32 1-10 13-149 2-15zm0-114v56h137l1-12 3-29 1-15z" style="fill:#fff;fill-rule:nonzero" transform="translate(94.875 107.884)scale(.6294)"/></svg>