<svg xmlns="http://www.w3.org/2000/svg" xml:space="preserve" style="fill-rule:evenodd;clip-rule:evenodd;stroke-linejoin:round;stroke-miterlimit:2" viewBox="0 0 512 513"><path d="M512 122.68C512 55.247 457.253.5 389.82.5H122.18C54.747.5 0 55.247 0 122.68v267.64C0 457.753 54.747 512.5 122.18 512.5h267.64c67.433 0 122.18-54.747 122.18-122.18z" style="fill:#25272b"/><path d="m139.562 397.405-25.805-289.521h283.857l-25.805 289.521-116.438 32.729" style="fill:#e34f26;fill-rule:nonzero"/><path d="m256 404.958 93.78-25.805 22.029-247.982H256" style="fill:#ef652a;fill-rule:nonzero"/><path d="M256 238.798h-47.205l-3.147-36.505H256v-35.246h-89.374l.629 9.441 8.812 98.185H256zm0 92.521h-.629l-39.652-10.7-2.518-28.323h-35.246l4.406 56.016 73.01 20.141H256z" style="fill:#ebebeb;fill-rule:nonzero"/><path d="M255.371 238.798v35.875h44.057l-4.406 45.946-39.651 10.7v37.134l73.009-20.141.63-6.294 8.182-93.779 1.259-9.441zm0-71.751v35.246h86.227l.629-7.553 1.888-18.252.63-9.441z" style="fill:#fff;fill-rule:nonzero"/></svg>