<svg xmlns="http://www.w3.org/2000/svg" xml:space="preserve" style="fill-rule:evenodd;clip-rule:evenodd;stroke-linejoin:round;stroke-miterlimit:2" viewBox="0 0 256 249"><path d="M82.085 244.934c-5.946 0-11.561-2.642-15.36-7.432L8.919 165.657c-3.799-4.79-5.285-10.901-3.799-16.847l20.645-89.682c1.321-5.946 5.285-10.736 10.736-13.378l83.571-39.969c2.643-1.322 5.616-1.982 8.589-1.982s5.945.66 8.588 1.982l83.572 39.804c5.45 2.642 9.414 7.432 10.735 13.378l20.645 89.682c1.322 5.946 0 12.057-3.798 16.847l-57.807 71.845c-3.799 4.624-9.414 7.432-15.36 7.432z" style="fill:#326de6;fill-rule:nonzero"/><path d="M128.495 7.928c2.313 0 4.625.495 6.772 1.486l83.572 39.804c4.294 2.147 7.597 6.111 8.588 10.736l20.645 89.682c1.156 4.79 0 9.745-3.138 13.543l-57.806 71.846c-2.973 3.798-7.598 5.945-12.387 5.945H82.085c-4.79 0-9.414-2.147-12.387-5.945l-57.806-71.846c-2.973-3.798-4.129-8.753-3.138-13.543l20.645-89.682c1.156-4.79 4.294-8.754 8.588-10.736l83.572-39.969c2.147-.826 4.624-1.321 6.936-1.321m0-7.763c-3.468 0-6.936.826-10.24 2.312L34.684 42.446c-6.607 3.139-11.231 8.919-12.883 16.021L1.156 148.15c-1.651 7.102 0 14.369 4.625 20.149l57.806 71.846c4.459 5.615 11.231 8.753 18.333 8.753h92.655c7.102 0 13.874-3.138 18.333-8.753l57.807-71.846c4.624-5.615 6.276-13.047 4.624-20.149l-20.645-89.683c-1.651-7.102-6.276-12.882-12.882-16.021L138.57 2.477C135.432.991 131.964.165 128.495.165" style="fill:#fff;fill-rule:nonzero"/><path d="M212.232 142.534h-.165c-.165 0-.33 0-.33-.165-.331 0-.661-.165-.991-.165-1.156-.165-2.147-.33-3.138-.33-.496 0-.991 0-1.652-.166h-.165c-3.468-.33-6.276-.66-8.919-1.486-1.156-.496-1.486-1.156-1.817-1.817 0-.165-.165-.165-.165-.33l-2.147-.661a65.3 65.3 0 0 0-1.156-23.288 68.1 68.1 0 0 0-9.249-21.636l1.652-1.486v-.33c0-.826.165-1.652.825-2.478 1.982-1.817 4.46-3.303 7.433-5.12.495-.33.991-.495 1.486-.826.991-.495 1.817-.991 2.808-1.651.165-.165.495-.331.826-.661.165-.165.33-.165.33-.33 2.312-1.982 2.808-5.285 1.156-7.433-.826-1.156-2.312-1.816-3.799-1.816-1.321 0-2.477.495-3.633 1.321l-.33.33c-.331.165-.496.496-.826.661-.826.826-1.487 1.486-2.147 2.312-.331.331-.661.826-1.156 1.156-2.313 2.478-4.46 4.46-6.607 5.946q-.743.495-1.486.496c-.331 0-.661 0-.991-.166h-.331l-1.982 1.322c-2.147-2.312-4.459-4.294-6.771-6.276a65.96 65.96 0 0 0-34.519-13.709l-.165-2.147-.33-.33c-.496-.496-1.156-.991-1.322-2.147-.165-2.643.166-5.616.496-8.919v-.165c0-.496.165-1.156.33-1.652.165-.991.33-1.982.496-3.138v-1.486c0-2.973-2.313-5.451-5.12-5.451-1.322 0-2.643.661-3.634 1.652s-1.486 2.312-1.486 3.799v1.321c0 1.156.165 2.147.495 3.138.165.496.165.991.33 1.652v.165c.331 3.303.826 6.276.496 8.919-.165 1.156-.826 1.651-1.321 2.147l-.331.33-.165 2.147c-2.973.33-5.946.661-8.919 1.321-12.717 2.808-23.948 9.249-32.701 18.498l-1.652-1.156h-.33c-.331 0-.661.165-.991.165q-.743 0-1.487-.495c-2.147-1.486-4.294-3.634-6.606-6.111-.331-.33-.661-.826-1.156-1.156-.661-.826-1.322-1.487-2.148-2.312-.165-.166-.495-.331-.825-.661-.165-.165-.331-.165-.331-.33a5.77 5.77 0 0 0-3.633-1.322c-1.487 0-2.973.661-3.799 1.817-1.652 2.147-1.156 5.45 1.156 7.432.165 0 .165.166.331.166.33.165.495.495.825.66a25 25 0 0 0 2.808 1.652c.496.165.991.495 1.487.826 2.972 1.816 5.45 3.303 7.432 5.12.826.825.826 1.651.826 2.477v.33l1.651 1.487c-.33.495-.66.826-.826 1.321-8.258 13.048-11.396 28.408-9.249 43.603l-2.147.66c0 .166-.165.166-.165.331-.33.66-.826 1.321-1.817 1.816-2.477.826-5.45 1.157-8.918 1.487h-.166c-.495 0-1.156 0-1.651.165-.991 0-1.982.165-3.138.33-.331 0-.661.166-.991.166-.165 0-.33 0-.496.165-2.973.66-4.789 3.468-4.294 6.111.496 2.312 2.643 3.798 5.285 3.798.496 0 .826 0 1.322-.165.165 0 .33 0 .33-.165.33 0 .661-.165.991-.165a16 16 0 0 0 2.973-1.156c.495-.165.991-.496 1.486-.661h.165c3.138-1.156 5.946-2.147 8.589-2.477h.33c.991 0 1.652.495 2.147.826.165 0 .165.165.331.165l2.312-.331c3.964 12.222 11.561 23.123 21.636 31.051 2.312 1.816 4.624 3.303 7.102 4.789l-.991 2.147c0 .166.165.166.165.331.33.66.661 1.486.33 2.642-.991 2.478-2.477 4.955-4.294 7.763v.165c-.33.496-.66.826-.991 1.321-.66.826-1.156 1.652-1.817 2.643-.165.165-.33.495-.495.826 0 .165-.165.33-.165.33-1.321 2.808-.331 5.946 2.147 7.102q.991.495 1.982.496c1.982 0 3.964-1.322 4.955-3.139 0-.165.165-.33.165-.33.165-.33.33-.661.495-.826.496-1.156.661-1.982.991-2.973l.496-1.486c1.156-3.303 1.982-5.946 3.468-8.258.661-.991 1.487-1.156 2.147-1.487.165 0 .165 0 .331-.165l1.156-2.147c7.267 2.808 15.195 4.294 23.122 4.294 4.79 0 9.745-.495 14.369-1.651a74 74 0 0 0 8.589-2.478l.991 1.817c.165 0 .165 0 .33.165.826.165 1.486.496 2.147 1.487 1.321 2.312 2.312 5.12 3.468 8.258v.165l.496 1.486c.33.991.495 1.982.991 2.973.165.331.33.496.495.826 0 .165.166.33.166.33.991 1.982 2.972 3.139 4.954 3.139q.992 0 1.982-.496c1.156-.661 2.147-1.652 2.478-2.973.33-1.321.33-2.808-.331-4.129 0-.165-.165-.165-.165-.33-.165-.331-.33-.661-.495-.826-.496-.991-1.156-1.817-1.817-2.643-.33-.495-.661-.825-.991-1.321v-.165c-1.817-2.808-3.468-5.285-4.294-7.763-.33-1.156 0-1.816.165-2.642 0-.165.165-.165.165-.331l-.826-1.981c8.754-5.12 16.186-12.388 21.802-21.306 2.973-4.625 5.285-9.745 6.936-14.865l1.982.331c.166 0 .166-.166.331-.166.66-.33 1.156-.825 2.147-.825h.33c2.643.33 5.45 1.321 8.589 2.477h.165c.495.165.991.495 1.486.661.991.495 1.817.825 2.973 1.156.33 0 .661.165.991.165.165 0 .33 0 .495.165.496.165.826.165 1.322.165 2.477 0 4.624-1.651 5.285-3.798 0-1.982-1.817-4.625-4.79-5.451m-76.469-8.093-7.268 3.469-7.267-3.469-1.816-7.762 4.954-6.276h8.093l4.955 6.276zm43.107-17.176a52.1 52.1 0 0 1 1.156 16.681l-25.27-7.267c-2.312-.661-3.633-2.973-3.138-5.285.165-.661.496-1.322.991-1.817l19.985-18.003c2.807 4.625 4.954 9.91 6.276 15.691m-14.204-25.6-21.636 15.36c-1.817 1.156-4.295.825-5.781-.991-.495-.496-.661-1.157-.826-1.817l-1.486-26.922a50.14 50.14 0 0 1 29.729 14.37m-47.897-13.544c1.817-.33 3.468-.66 5.285-.991l-1.486 26.426c-.165 2.312-1.982 4.294-4.46 4.294-.66 0-1.486-.165-1.982-.495L92.16 91.665c6.772-6.772 15.195-11.397 24.609-13.544m-32.537 23.453 19.654 17.507c1.817 1.487 1.982 4.294.496 6.111-.496.661-1.156 1.156-1.982 1.322l-25.6 7.432c-.991-11.231 1.486-22.627 7.432-32.372m-4.459 44.759 26.261-4.459c2.147-.166 4.129 1.321 4.624 3.468.165.991.165 1.817-.165 2.643l-10.075 24.278c-9.249-5.946-16.681-15.029-20.645-25.93m60.284 32.867c-3.799.826-7.598 1.321-11.562 1.321-5.78 0-11.396-.991-16.681-2.642l13.048-23.618c1.321-1.487 3.468-2.147 5.285-1.156a7 7 0 0 1 1.982 1.816l12.717 22.958c-1.486.495-3.138.826-4.789 1.321m32.206-22.957c-4.129 6.606-9.579 11.891-15.855 16.02l-10.405-24.939c-.496-1.982.33-4.129 2.312-5.12.66-.33 1.486-.496 2.312-.496l26.426 4.46c-.991 3.633-2.643 6.937-4.79 10.075" style="fill:#fff;fill-rule:nonzero"/></svg>