<svg xmlns="http://www.w3.org/2000/svg" xml:space="preserve" style="fill-rule:evenodd;clip-rule:evenodd;stroke-linejoin:round;stroke-miterlimit:2" viewBox="0 0 512 512"><path d="M512 122.18C512 54.747 457.253 0 389.82 0H122.18C54.747 0 0 54.747 0 122.18v267.64C0 457.253 54.747 512 122.18 512h267.64C457.253 512 512 457.253 512 389.82z" style="fill:#1f292d"/><path d="M384.935 150.559q.132.488.133.994v52.179a3.81 3.81 0 0 1-1.912 3.3l-43.794 25.215v49.977a3.82 3.82 0 0 1-1.902 3.3l-91.418 52.627c-.21.118-.437.194-.666.275-.086.029-.166.081-.257.105a3.86 3.86 0 0 1-1.95 0c-.105-.029-.2-.086-.299-.124-.21-.077-.428-.143-.628-.256l-91.398-52.627a3.82 3.82 0 0 1-1.913-3.3V125.687c0-.343.048-.676.133-.998.029-.11.095-.21.134-.32.071-.199.137-.404.243-.589.071-.124.175-.223.261-.338.109-.152.209-.309.337-.441.11-.11.253-.191.377-.286.137-.115.261-.238.417-.329h.005l45.702-26.312a3.81 3.81 0 0 1 3.805 0l45.701 26.312h.01c.152.096.281.214.418.324.124.095.262.181.371.285.134.138.229.295.342.447.082.115.191.214.258.338.109.19.17.39.247.589.038.11.104.21.133.324.087.324.133.659.134.994v97.771l38.082-21.928v-49.982c0-.333.048-.67.134-.989.033-.114.095-.214.133-.323.076-.2.143-.404.247-.59.071-.123.176-.223.257-.337.114-.153.209-.309.342-.443.109-.109.248-.19.371-.285.143-.115.267-.238.419-.329h.005l45.706-26.312a3.81 3.81 0 0 1 3.805 0l45.702 26.312c.161.095.285.214.428.324.118.095.256.181.366.285.133.139.228.295.342.448.086.114.19.214.256.337.11.186.172.39.248.59.043.109.105.209.133.323m-7.485 50.971v-43.39l-15.994 9.206-22.094 12.722v43.39l38.093-21.928zm-45.702 78.492v-43.419l-21.734 12.412-62.06 35.42v43.828zM156.55 132.273v147.749l83.785 48.237V284.44l-43.771-24.773-.014-.009-.019-.009c-.148-.086-.272-.209-.409-.314-.119-.096-.257-.171-.362-.276l-.009-.014c-.124-.119-.209-.267-.314-.4-.095-.128-.209-.238-.285-.37l-.005-.015c-.086-.142-.138-.314-.2-.475-.062-.143-.142-.276-.181-.428v-.005c-.047-.181-.056-.372-.076-.557-.019-.142-.057-.285-.057-.428V154.202l-22.09-12.727-15.993-9.197zm41.897-28.505-38.079 21.919 38.07 21.919 38.073-21.924-38.073-21.914zM218.25 240.56l22.089-12.717v-95.57l-15.992 9.208-22.096 12.721v95.569zm117.307-110.926-38.073 21.919 38.073 21.919 38.069-21.924zm-3.809 50.434-22.095-12.722-15.993-9.206v43.39l22.09 12.717 15.998 9.211zm-87.608 97.781 55.845-31.882 27.916-15.932-38.046-21.904-43.804 25.219-39.924 22.984z" style="fill:#ff2d20;fill-rule:nonzero"/><path d="M126.268 354.571v61.659h22.308v10.638h-34.188v-72.297zm64.238 30.674v-6.506h11.258v48.131h-11.255v-6.509c-1.517 2.411-3.666 4.305-6.456 5.68q-4.183 2.067-8.417 2.066-5.477.001-10.02-2.012a23.4 23.4 0 0 1-7.799-5.528 25.7 25.7 0 0 1-5.057-8.053 26 26 0 0 1-1.811-9.712q0-5.058 1.809-9.659a25.6 25.6 0 0 1 5.059-8.106 23.45 23.45 0 0 1 7.799-5.525q4.543-2.013 10.02-2.012 4.234-.001 8.417 2.065 4.181 2.066 6.456 5.68zm-1.033 23.446a16.8 16.8 0 0 0 1.036-5.886c0-2.069-.348-4.03-1.036-5.887a14.9 14.9 0 0 0-2.889-4.856 14 14 0 0 0-4.495-3.306q-2.633-1.238-5.833-1.239-3.206.002-5.787 1.239a14.2 14.2 0 0 0-4.441 3.306 14.2 14.2 0 0 0-2.836 4.854 17.6 17.6 0 0 0-.985 5.886q0 3.099.982 5.886c.653 1.862 1.6 3.478 2.842 4.856a14.1 14.1 0 0 0 4.441 3.307q2.578 1.24 5.782 1.239 3.202 0 5.835-1.239a14 14 0 0 0 4.495-3.307 14.9 14.9 0 0 0 2.889-4.853m21.174 18.182v-48.134h30.573v11.079h-19.317v37.055zm71.368-41.628v-6.506h11.259v48.131h-11.259v-6.509q-2.27 3.617-6.456 5.68-4.18 2.067-8.417 2.066-5.474.001-10.017-2.012a23.45 23.45 0 0 1-7.799-5.528 25.7 25.7 0 0 1-5.059-8.053 26 26 0 0 1-1.809-9.712q0-5.058 1.809-9.659a25.6 25.6 0 0 1 5.057-8.106 23.4 23.4 0 0 1 7.801-5.525q4.543-2.013 10.017-2.012 4.236-.001 8.417 2.065 4.186 2.066 6.456 5.68m-1.032 23.446a16.8 16.8 0 0 0 1.032-5.886c0-2.069-.347-4.03-1.032-5.887a14.9 14.9 0 0 0-2.89-4.856 14 14 0 0 0-4.495-3.306q-2.634-1.237-5.835-1.239-3.203.002-5.784 1.239a14.2 14.2 0 0 0-4.442 3.306 14.2 14.2 0 0 0-2.838 4.854 17.6 17.6 0 0 0-.982 5.886c0 2.065.324 4.029.982 5.886.653 1.862 1.6 3.478 2.838 4.856a14.2 14.2 0 0 0 4.442 3.307q2.58 1.24 5.784 1.239 3.201 0 5.835-1.239a14 14 0 0 0 4.495-3.307 14.9 14.9 0 0 0 2.89-4.853m57.424-29.952h11.402l-18.474 48.131h-14.153l-18.477-48.131h11.403l14.151 36.857zm35.958-1.239c15.328 0 25.781 13.586 23.817 29.486h-37.347c0 4.153 4.193 12.179 14.148 12.179 8.562 0 14.301-7.531 14.303-7.537l7.607 5.886c-6.801 7.259-12.369 10.595-21.089 10.595-15.579 0-26.139-9.856-26.139-25.304 0-13.975 10.913-25.305 24.697-25.305zm-13.5 21.12h26.979c-.083-.926-1.546-12.179-13.57-12.179-12.026 0-13.324 11.253-13.409 12.179m44.648 28.248v-72.297h11.258v72.297z" style="fill:#fff"/></svg>