<svg xmlns="http://www.w3.org/2000/svg" xml:space="preserve" style="fill-rule:evenodd;clip-rule:evenodd;stroke-linejoin:round;stroke-miterlimit:2" viewBox="0 0 512 512"><path d="M512 122.18C512 54.747 457.253 0 389.82 0H122.18C54.747 0 0 54.747 0 122.18v267.64C0 457.253 54.747 512 122.18 512h267.64C457.253 512 512 457.253 512 389.82z" style="fill:#009cec"/><path d="m204.562 389.159 8.555 8.61 24.568 23.357 33.041-4.13 25.813-7.744 7.566-12.729 18.603-11.925 2.555-24.642 8.032 1.826 10.79-55.142-11.338-39.955-21.903-37.966-14.603-56.949 5.111-52.568-47.457-9.491-36.506 8.761-7.301 17.888s-2.372 16.062-2.555 16.792 1.095 16.793 1.095 16.793l-3.103 26.284-4.753 33.104L185.8 267.02s-7.228 37.171-9.809 37.171 1.446 17.965 1.446 17.965l15.494 37.253z" style="fill:#fff;fill-rule:nonzero"/><path d="M248.328 76.344c-26.376 3.303-45.584 26.633-43.756 53.154-.563 49.284 4.975 66.993-17.147 95.233s-35.604 49.041-41.011 69.204c-3.288 12.655-5.05 25.312-5.05 38.388 0 0-.468 5.35 5.05.365 5.538-4.985 21.063-2.811 28.821 11.075s22.103 35.436 22.103 35.436l7.224 9.96 9.969-2.811s9.988-6.643 0-21.044a90.4 90.4 0 0 0-20.482-21.551s-23.658-12.096-27.668-26.019a84.92 84.92 0 0 1 17.718-67.002c11.243-13.286-2.464 10.647-6.662 19.376-9.351 19.464-10.428 45.691-10.091 58.643.187 5.455 13.886 8.955 17.25 11.556 2.192 1.693-8.33-19.738-7.159-18.151 4.17-49.602 26.422-60.649 40.439-129.01-10.409-5.75-9.013-21.139 2.268-24.914a30.19 30.19 0 0 1-5.622-25.466c3.317-10.757 7.196-11.919 11.478-12.312 4.282-.394 14.71 4.263 13.455 25.045a65.2 65.2 0 0 1 14.935 0s-3.86-19.376 10.503-26.02c8.002-3.909 17.662-1.017 22.197 6.644a31.12 31.12 0 0 1-2.249 32.109c7.496 3.365 9.923 12.81 4.994 19.377l12.181 37.094s16.031 31.557 23.77 49.275a125.2 125.2 0 0 1 9.445 32.662h8.854s14.036-34.03-18.299-66.824c-2.192-2.52-.655-.581 0 0 .656.581 33.272 30.395 25.495 69.588 6.222 4.404 25.804 7.955 22.141 28.793 7.392 1.218 9.444 0 9.444 0a106 106 0 0 0-4.975-64.229 190.8 190.8 0 0 0-38.781-59.244 70.7 70.7 0 0 1-18.833-49.275 163.6 163.6 0 0 0-9.969-68.107 38.52 38.52 0 0 0-34.921-21.045 134 134 0 0 0-27.059.094z" style="fill-rule:nonzero"/><path d="M213.117 397.769s30.526 24.952 59.253 13.118c10.953-3.917 40.168-20.646 50.334-26.289 0 0-7.796 37.908-3.992 43.202s-41.526-5.436-62.017-4.64c-20.492.797-34.808 2.634-54.222 3.655 6.071-8.052-51.486-71.765-60.725-92.251-3.794-8.406 27.566-3.96 27.566-3.96z" style="fill-rule:nonzero"/><path d="M155.344 341.345c-12.771 2.127-11.244 9.305-16.585 14.055-5.34 4.75-10.409 4.179-16.181 7.646s-8.751 8.61-6.221 20.528a32.53 32.53 0 0 1-2.324 22.056c-1.724 5.36.562 13.905 12.04 14.327a122 122 0 0 1 31.857 4.413c17.802 4.094 28.895 15.375 40.795 5.622a22.82 22.82 0 0 0 9.885-20.492 43.54 43.54 0 0 0-12.574-21.709 82.1 82.1 0 0 1-18.955-26.994c-3.654-7.018-8.948-21.578-21.737-19.452" style="fill:#f0b800;fill-rule:nonzero"/><path d="M334.973 301.994c2.951 0 8.373-37.964 8.291-31.448 8.214 13.872 6.862 30.816 6.862 30.816l-.827 102.237-24.881-52.427s12.684-36.594 10.555-49.178" style="fill-rule:nonzero"/><path d="M398.352 390.132c-1.582-12.098-5.373-9.56-9.689-14.753-4.317-5.193-1.533-11.609-4.619-17.153s-3.368-10.877-14.685-8.865-20.435 18.881-37.282 7.55c-5.795-4.457-9.557-16.651-10.339-5.835a160.4 160.4 0 0 1-4.656 37.38c-4.435 16.648-12 26.336-3.201 37.881a21.47 21.47 0 0 0 18.956 9.989 40.95 40.95 0 0 0 20.923-11.122 76.5 76.5 0 0 1 26.027-16.895c6.71-3.204 20.146-6.079 18.565-18.177" style="fill:#f0b800;fill-rule:nonzero"/><path d="M344.591 313.864s-22.29-4.469-19.198 14.542 10.634 22.675 10.634 22.675c5.456 4.093 13.013 4.093 18.468 0a48 48 0 0 0 14.692-13.568s5.818-9.697-7.562-16.668a51.3 51.3 0 0 0-17.034-6.981M229.186 142.157c3.841 0 6.952 5.265 6.952 11.758a20 20 0 0 1-.487 4.32 23.24 23.24 0 0 1-9.37 6.343 13.56 13.56 0 0 1-4.048-10.663c0-6.493 3.111-11.758 6.953-11.758m42.763-1.069c6.132.638 10.687 6.151 10.156 12.293a18.05 18.05 0 0 1-5.162 11.797c-1.434 1.293-9.108-2.137-12.912-4.104a13.67 13.67 0 0 1-1.433-7.693c0-6.793 3.748-12.293 9.351-12.293" style="fill-rule:nonzero"/><path d="M236.138 165.459a104.7 104.7 0 0 0-14.27 10.185 7.56 7.56 0 0 0-3.08 6.09 7.57 7.57 0 0 0 3.08 6.09 117 117 0 0 0 16.687 13.567c5.054 4.314 12.365 4.865 18.009 1.359 7.964-3.486 21.7-11.244 21.7-11.244s14.935-12.021 0-18.804c-14.936-6.784-12.003-6.203-21.7-9.895-6.682-3.445-14.846-2.386-20.426 2.652" style="fill:#f0b800;fill-rule:nonzero"/></svg>