<svg xmlns="http://www.w3.org/2000/svg" xml:space="preserve" style="fill-rule:evenodd;clip-rule:evenodd;stroke-linejoin:round;stroke-miterlimit:2" viewBox="0 0 512 512"><path d="M581 191.18C581 123.747 526.253 69 458.82 69H191.18C123.747 69 69 123.747 69 191.18v267.64C69 526.253 123.747 581 191.18 581h267.64C526.253 581 581 526.253 581 458.82z" style="fill:#009cec" transform="translate(-69 -69)"/><path d="m9.716 33.439.913.919 2.622 2.493 3.527-.441 2.755-.827.807-1.358 1.985-1.273.273-2.63.857.195 1.152-5.885-1.21-4.264-2.338-4.052-1.558-6.078.545-5.611-5.065-1.013-3.896.935-.779 1.909s-.253 1.715-.273 1.793c-.019.077.117 1.792.117 1.792l-.331 2.805-.508 3.533-1.597 4.022s-.772 3.968-1.047 3.968c-.276 0 .154 1.917.154 1.917l1.654 3.976z" style="fill:#fff;fill-rule:nonzero" transform="translate(113.527 75.848)scale(9.36963)"/><path d="M17046.8 2178.03c-2.8.35-4.9 2.84-4.7 5.67 0 5.26.6 7.15-1.8 10.17-2.3 3.01-3.8 5.23-4.4 7.38-.3 1.35-.5 2.7-.5 4.1 0 0-.1.57.5.04s2.3-.3 3.1 1.18 2.4 3.78 2.4 3.78l.7 1.06 1.1-.29s1.1-.71 0-2.25c-.6-.88-1.3-1.66-2.2-2.3 0 0-2.5-1.29-2.9-2.78-.4-2.54.2-5.14 1.9-7.15 1.2-1.42-.3 1.14-.8 2.07-1 2.08-1.1 4.88-1 6.26 0 .58 1.5.95 1.8 1.23.2.18-.9-2.1-.8-1.94.5-5.29 2.9-6.47 4.4-13.77-1.1-.61-1-2.25.2-2.65-.6-.77-.8-1.77-.6-2.72.4-1.15.8-1.27 1.2-1.32.5-.04 1.6.46 1.5 2.68.5-.06 1-.06 1.6 0 0 0-.5-2.07 1.1-2.78.8-.42 1.9-.11 2.4.71.5 1.1.4 2.42-.3 3.43.8.36 1.1 1.36.5 2.06l1.3 3.96s1.8 3.37 2.6 5.26c.5 1.11.8 2.29 1 3.49h.9s1.5-3.63-1.9-7.13c-.3-.27-.1-.07 0 0 .1.06 3.5 3.24 2.7 7.42.7.47 2.8.85 2.4 3.08.8.13 1 0 1 0 .5-2.29.3-4.68-.6-6.86-.9-2.35-2.3-4.49-4.1-6.32-1.3-1.43-2-3.31-2-5.26.2-2.47-.2-4.95-1.1-7.27-.7-1.4-2.1-2.27-3.7-2.25-1-.09-1.9-.09-2.9.01" style="fill-rule:nonzero" transform="translate(-159473.759 -20331.019)scale(9.36963)"/><path d="M17102.5 2478.07s3.2 2.66 6.3 1.4c1.2-.42 4.3-2.21 5.4-2.81 0 0-.9 4.05-.5 4.61.4.57-4.4-.58-6.6-.49-2.2.08-3.7.28-5.8.39.7-.86-5.5-7.66-6.5-9.85-.4-.9 3-.42 3-.42z" style="fill-rule:nonzero" transform="translate(-160030.315 -22820.81)scale(9.36963)"/><path d="M17013.8 2426.15c-1.4.23-1.2 1-1.8 1.5-.6.51-1.1.45-1.7.82s-1 .92-.7 2.19c.2.79.1 1.62-.2 2.35-.2.58 0 1.49 1.2 1.53 1.2.01 2.3.17 3.4.47 1.9.44 3.1 1.65 4.4.61.7-.49 1.1-1.33 1.1-2.19-.3-.89-.7-1.69-1.4-2.32-.8-.81-1.5-1.79-2-2.88-.4-.75-1-2.3-2.3-2.08" style="fill:#f0b800;fill-rule:nonzero" transform="translate(-159257.32 -22390.838)scale(9.36963)"/><path d="M23.634 24.136c.315 0 .894-4.052.885-3.356.877 1.48.733 3.289.733 3.289l-.089 10.911-2.655-5.595s1.354-3.906 1.126-5.249" style="fill-rule:nonzero" transform="translate(113.527 75.848)scale(9.36963)"/><path d="M4.351.022c-1.285.214-1 .609-1.538 1.089S1.58 1.318 1 1.668s-1.148.4-.891 1.6 2.091 2.11.945 3.95C.6 7.853-.687 8.3.47 8.343a17 17 0 0 1 4.006.357c1.793.411 2.855 1.182 4.054.2a2.29 2.29 0 0 0 .995-2.06A4.37 4.37 0 0 0 8.26 4.649a8.2 8.2 0 0 1-1.9-2.714C5.993 1.231 5.636-.192 4.351.022" style="fill:#f0b800;fill-rule:nonzero" transform="scale(-9.366)rotate(-87.993 -40.671 3.46)"/><path d="M17209.3 2400.25s-2.4-.48-2 1.55c.3 2.03 1.1 2.42 1.1 2.42.6.44 1.4.44 2 0 .6-.37 1.1-.86 1.5-1.45 0 0 .6-1.03-.8-1.78-.5-.35-1.2-.61-1.8-.74" style="fill-rule:nonzero" transform="translate(-160899.817 -22175.524)scale(9.36963)"/><path d="M.742 0c.41 0 .742.562.742 1.255q0 .234-.052.461a2.5 2.5 0 0 1-1 .677A1.45 1.45 0 0 1 0 1.255C0 .562.332 0 .742 0" style="fill-rule:nonzero" transform="translate(222.233 142.157)scale(9.36963)"/><path d="M1.748 0a1.22 1.22 0 0 1 1.084 1.312 1.92 1.92 0 0 1-.551 1.259c-.153.138-.972-.228-1.378-.438a1.46 1.46 0 0 1-.153-.821C.75.587 1.15 0 1.748 0" style="fill-rule:nonzero" transform="translate(255.57 141.089)scale(9.36963)"/><path d="M17109.5 2257.94c-.5.32-1 .69-1.5 1.09-.2.15-.3.4-.3.65 0 .26.1.5.3.65.6.54 1.2 1.02 1.8 1.45.5.46 1.3.52 1.9.14.9-.37 2.3-1.2 2.3-1.2s1.6-1.28 0-2c-1.5-.73-1.2-.67-2.3-1.06-.7-.37-1.6-.25-2.2.28" style="fill:#f0b800;fill-rule:nonzero" transform="translate(-160074.352 -20990.64)scale(9.36963)"/></svg>