<svg xmlns="http://www.w3.org/2000/svg" xml:space="preserve" style="fill-rule:evenodd;clip-rule:evenodd;stroke-linejoin:round;stroke-miterlimit:2" viewBox="0 0 512 512"><path d="M581 191.18C581 123.747 526.253 69 458.82 69H191.18C123.747 69 69 123.747 69 191.18v267.64C69 526.253 123.747 581 191.18 581h267.64C526.253 581 581 526.253 581 458.82z" style="fill:#013545" transform="translate(-69 -69)"/><path d="m63.62 217.6 11.28 43.56h-8.51l-7.54-31.37-14.12 31.37h-7.18L23.5 230l-7.72 31.19H7.45l11.16-43.59H26l15.21 33.73 15.11-33.73zM107 234.44v-5.07h8.2v31.79H107V256c-2.18 3.69-6.64 5.8-12.07 5.8-11.34 0-17.68-8-17.68-17.2 0-8.87 6-16 16.47-16 5.96.05 10.91 2.1 13.28 5.84m-21 10.62c0 5.85 3.68 10.85 10.8 10.85 6.88 0 10.62-4.88 10.62-10.67s-3.86-10.74-11-10.74c-6.87 0-10.42 4.94-10.42 10.56m47.7 16.1h-8.2v-31.79h8.2v7.12a12.62 12.62 0 0 1 11.47-7.84c1.743-.025 3.476.26 5.12.84l-1.75 6a18 18 0 0 0-4.34-.6c-5.91 0-10.5 4.46-10.5 11zM154.39 221l-.001-.106c0-2.293 1.887-4.18 4.18-4.18q.116 0 .231.006.07-.002.141-.002c2.37 0 4.32 1.95 4.32 4.32l-.001.082.001.092c0 2.276-1.873 4.15-4.15 4.15q-.156 0-.311-.012a4 4 0 0 1-.182.004c-2.32 0-4.23-1.91-4.23-4.23zm.36 8.39H163v23.21c0 1.44.3 2.47 1.51 2.47a9 9 0 0 0 1.57-.18l1.26 6a14.6 14.6 0 0 1-5.43 1c-3.44 0-7.12-1-7.12-8.81zm44.89 5.05v-5.07h8.2v31.79h-8.2V256c-2.18 3.69-6.64 5.8-12.07 5.8-11.34 0-17.68-8-17.68-17.2 0-8.87 6-16 16.47-16 5.98.05 10.92 2.1 13.28 5.84m-21 10.62c0 5.85 3.68 10.85 10.8 10.85 6.88 0 10.62-4.88 10.62-10.67s-3.86-10.74-11-10.74c-6.86 0-10.42 4.94-10.42 10.56m41.8-27.46h19.67c16.53 0 24.8 9.12 24.68 21.78.12 13.16-9 21.78-23.23 21.78h-21.12zm5.43 3.87v35.89h15c13.15 0 18.16-8.87 18.16-18.1 0-10.43-6.28-17.79-18.16-17.79zm72.45 39.69h-25V217.6h22.5c8.63 0 16.83 1.63 16.71 11.29 0 6.81-4.22 8.68-8.69 9.41 6.34.54 10.14 4.58 10.14 11.1.09 9.77-8.48 11.76-15.66 11.76m-1.87-24.55c8.63 0 10.56-3.32 10.56-7.54 0-6.34-3.86-7.79-10.56-7.79h-17.91v15.33zm.24 3.68h-18.15v17.19h18.94c5.31 0 10.92-1.75 10.92-8.44 0-7.73-6.46-8.75-11.71-8.75" style="fill:#fff;fill-rule:nonzero" transform="translate(72.53 108.938)scale(1.12986)"/><path d="M316 10.05a4.2 4.2 0 0 0-2.84-1c-2.84 0-6.5 1.92-8.46 3l-.79.4a26.8 26.8 0 0 1-10.57 2.66c-3.76.12-7 .34-11.22.77-25 2.58-36.15 21.74-46.89 40.27-5.84 10.08-11.88 20.5-20.16 28.57a56 56 0 0 1-5.46 4.63c-8.57 6.39-19.33 10.9-27.74 14.12-8.07 3.08-16.86 5.85-25.37 8.53-7.78 2.45-15.14 4.76-21.9 7.28-3.05 1.13-5.64 2-7.93 2.76-6.15 2-10.6 3.53-17.08 8-2.53 1.73-5.07 3.6-6.8 5a71.3 71.3 0 0 0-13.54 14.27A84.8 84.8 0 0 1 77.88 163c-1.36 1.34-3.8 2-7.43 2-4.27 0-9.43-.88-14.91-1.81s-11.46-2-16.46-2c-4.07 0-7.17.66-9.5 2 0 0-3.9 2.28-5.56 5.23l1.62.73a33.6 33.6 0 0 1 6.93 5 33.7 33.7 0 0 0 7.19 5.12c.841.32 1.604.814 2.24 1.45-.69 1-1.69 2.29-2.74 3.67-5.77 7.55-9.13 12.32-7.2 14.92a6 6 0 0 0 3 .68c12.59 0 19.34-3.27 27.9-7.41 2.47-1.2 5-2.44 8-3.7 5-2.17 10.38-5.63 16.08-9.29 7.55-4.85 15.36-9.87 22.92-12.3a62.3 62.3 0 0 1 19.23-2.7c8 0 16.42 1.07 24.54 2.11 6.06.78 12.32 1.58 18.47 2 2.39.14 4.6.21 6.76.21 2.876.008 5.75-.142 8.61-.45l.68-.24c4.32-2.65 6.34-8.34 8.29-13.84 1.26-3.54 2.32-6.72 4-8.74q.15-.152.33-.27a.4.4 0 0 1 .49.08.24.24 0 0 1 0 .16c-1 21.51-9.67 35.16-18.42 47.3l-5.94 6.23s8.18 0 12.84-1.8c17-5.08 29.84-16.28 39.18-34.14a145 145 0 0 0 6.16-14.09c.16-.4 1.64-1.14 1.49.93 0 .61-.08 1.29-.13 2 0 .42-.06.85-.08 1.28-.25 3-1 9.34-1 9.34l5.25-2.81c12.66-8 22.42-24.14 29.82-49.25 3.09-10.46 5.34-20.85 7.33-30 2.38-11 4.43-20.43 6.78-24.09 3.69-5.74 9.32-9.62 14.77-13.39.75-.51 1.49-1 2.22-1.54 6.86-4.81 13.67-10.36 15.16-20.71v-.23c1.14-7.72.21-9.64-.79-10.59" style="fill:#fff;fill-rule:nonzero" transform="translate(72.53 98.938)scale(1.12986)"/></svg>