<svg xmlns="http://www.w3.org/2000/svg" xml:space="preserve" style="fill-rule:evenodd;clip-rule:evenodd;stroke-linejoin:round;stroke-miterlimit:2" viewBox="0 0 512 512"><path d="M581 191.18C581 123.747 526.253 69 458.82 69H191.18C123.747 69 69 123.747 69 191.18v267.64C69 526.253 123.747 581 191.18 581h267.64C526.253 581 581 526.253 581 458.82z" style="fill:#855530" transform="translate(-69 -69)"/><path d="M103.6 69.6c0-.5-.4-1-1-1H83.8c-.5 0-1 .4-1 1 0 3.4.5 15.1 5.5 20.8.2.2.4.3.7.3h8.4c.3 0 .5-.1.7-.3 5-5.6 5.5-17.3 5.5-20.8m-7.4 18.2h-5.9c-.3 0-.5-.1-.7-.3-3.4-4-3.8-12-3.9-14.8 0-.5.4-1 1-1h13.2c.5 0 1 .4 1 1 0 2.8-.5 10.7-3.9 14.8-.3.2-.5.3-.8.3m-1.1-21.2s3.6-2.1 1.4-5.9c-1.3-2-1.9-3.7-1.4-4.4-1.3 1.6-3.5 3.3-1.1 6.9.8.9 1.2 2.8 1.1 3.4m-4 .3s2.4-1.4.9-4c-.9-1.3-1.3-2.5-.9-2.9-.9 1.1-2.3 2.2-.7 4.7.5.5.7 1.8.7 2.2" style="fill:#fff;fill-rule:nonzero" transform="translate(-348.266 -271.01)scale(6.48355)"/><path d="M99.3 78.5c-.4 2.7-1.2 5.8-2.9 7.8q-.3.3-.6.3h-5c-.2 0-.5-.1-.6-.3-1.2-1.5-2-3.5-2.5-5.6 0 0 5.8.8 9.1-.4 2.4-.9 2.5-1.8 2.5-1.8" style="fill:#fff;fill-rule:nonzero" transform="translate(-348.266 -271.01)scale(6.48355)"/><path d="M33.6 94.7h3.7l6.1 9.4 6.1-9.4h3.7v20h-3.5v-14.3l-6.3 9.4h-.1l-6.2-9.3v14.3h-3.5zM71.3 115c-1.5 0-2.9-.3-4.2-.8s-2.4-1.3-3.3-2.2q-1.35-1.35-2.1-3.3c-.5-1.2-.8-2.6-.8-4v-.1c0-1.4.3-2.7.8-4 .5-1.2 1.2-2.3 2.2-3.3.9-.9 2-1.7 3.3-2.2 1.3-.6 2.7-.8 4.2-.8s2.9.3 4.2.8 2.4 1.3 3.3 2.2q1.35 1.35 2.1 3.3c.5 1.2.8 2.6.8 4v.1c0 1.4-.3 2.7-.8 4-.5 1.2-1.2 2.3-2.2 3.3-.9.9-2 1.7-3.3 2.2-1.3.6-2.7.8-4.2.8m0-3.2q1.5 0 2.7-.6t2.1-1.5c.6-.6 1-1.4 1.4-2.2.3-.9.5-1.8.5-2.7v-.1c0-1-.2-1.9-.5-2.8s-.8-1.6-1.4-2.3q-.9-.9-2.1-1.5t-2.7-.6-2.7.6-2.1 1.5c-.6.6-1 1.4-1.4 2.2-.3.9-.5 1.8-.5 2.7v.1c0 1 .2 1.9.5 2.8s.8 1.6 1.4 2.3q.9.9 2.1 1.5c.8.4 1.8.6 2.7.6m27.4 3.2c-1.5 0-2.8-.3-4-.8s-2.3-1.3-3.2-2.2q-1.35-1.35-2.1-3.3c-.5-1.3-.8-2.6-.8-4v-.1c0-1.4.3-2.8.8-4q.75-1.8 2.1-3.3c.9-.9 2-1.7 3.3-2.2s2.6-.8 4.2-.8c.9 0 1.7.1 2.5.2.8.2 1.4.4 2.1.6.6.3 1.2.6 1.7 1s1 .8 1.5 1.3l-2.3 2.6c-.8-.7-1.6-1.3-2.5-1.8s-1.9-.7-3.1-.7c-1 0-1.8.2-2.6.6q-1.2.6-2.1 1.5c-.6.6-1 1.4-1.4 2.2-.3.9-.5 1.8-.5 2.7v.1c0 1 .2 1.9.5 2.8s.8 1.6 1.4 2.3c.6.6 1.3 1.2 2.1 1.5s1.7.6 2.6.6c1.2 0 2.3-.2 3.1-.7s1.7-1.1 2.6-1.9l2.3 2.3c-.5.6-1 1-1.6 1.5s-1.2.8-1.8 1.1-1.4.6-2.1.7c-.9.2-1.8.2-2.7.2m15.2-20.3h3.5v8.3h9.6v-8.3h3.5v20H127v-8.4h-9.6v8.4h-3.5zm32.1-.1h3.2l8.8 20.1h-3.7l-2-4.8h-9.4l-2.1 4.8h-3.6zm5 12.2-3.4-8-3.4 8z" style="fill:#fff;fill-rule:nonzero" transform="translate(-11.94 96.265)scale(2.79687)"/></svg>