<svg xmlns="http://www.w3.org/2000/svg" xml:space="preserve" style="fill-rule:evenodd;clip-rule:evenodd;stroke-linejoin:round;stroke-miterlimit:2" viewBox="0 0 512 512"><path d="M581 191.18C581 123.747 526.253 69 458.82 69H191.18C123.747 69 69 123.747 69 191.18v267.64C69 526.253 123.747 581 191.18 581h267.64C526.253 581 581 526.253 581 458.82z" style="fill:#001e2b" transform="translate(-69 -69)"/><path d="m628.374 525.962-13.778-33.41-.03-.093h-10.72v2.246h1.73c.525 0 1.019.215 1.39.585.371.369.556.861.556 1.384l-.309 33.626c0 1.046-.865 1.907-1.915 1.938l-1.761.03v2.215h10.442v-2.215l-1.082-.03c-1.05-.031-1.915-.892-1.915-1.938v-31.688l15.014 35.871c.216.523.71.862 1.266.862s1.05-.339 1.267-.862l14.673-35.071.216 30.888c0 1.076-.864 1.938-1.946 1.968h-1.112v2.215h12.233v-2.215h-1.668c-1.05 0-1.915-.892-1.946-1.938l-.093-33.625c0-1.077.865-1.938 1.916-1.969l1.791-.031v-2.246h-10.441zm96.066 5.722c-.341-.338-.527-.799-.527-1.352v-16.47c0-3.135-.929-5.593-2.787-7.345-1.828-1.751-4.367-2.642-7.527-2.642-4.429 0-7.928 1.782-10.375 5.285-.031.062-.124.092-.217.092s-.155-.061-.155-.153l-1.146-4.395h-1.92l-4.925 2.797v1.536h1.27c.589 0 1.084.154 1.425.461s.526.768.526 1.414v19.39c0 .553-.185 1.014-.526 1.352s-.805.522-1.363.522h-1.239v2.243h11.336v-2.243h-1.239c-.557 0-1.022-.184-1.363-.522s-.526-.799-.526-1.352v-12.845c0-1.629.372-3.257 1.053-4.855.712-1.567 1.765-2.889 3.159-3.903s3.066-1.506 4.987-1.506c2.168 0 3.809.676 4.831 2.029s1.549 3.103 1.549 5.193v15.856c0 .553-.186 1.014-.527 1.352-.34.338-.805.522-1.362.522h-1.239v2.244h11.335v-2.244h-1.238c-.465.062-.899-.123-1.27-.461m103.567-36.691c-3.133-1.669-6.636-2.534-10.414-2.534h-14.745v2.256h1.444c.552 0 1.044.216 1.536.71.46.464.706.989.706 1.545v33.247c0 .556-.246 1.081-.706 1.545-.461.463-.984.71-1.536.71h-1.444v2.256h14.745c3.778 0 7.281-.865 10.414-2.534s5.683-4.14 7.526-7.292c1.843-3.151 2.796-6.952 2.796-11.278 0-4.325-.953-8.095-2.796-11.277-1.874-3.214-4.393-5.686-7.526-7.354m4.393 18.57c0 3.955-.707 7.292-2.089 9.98s-3.226 4.696-5.499 5.994-4.792 1.947-7.495 1.947h-2.98c-.553 0-1.045-.217-1.536-.711-.461-.464-.707-.989-.707-1.545v-31.362c0-.556.215-1.05.707-1.545.461-.463.983-.71 1.536-.71h2.98c2.703 0 5.222.649 7.495 1.946 2.273 1.298 4.117 3.307 5.499 5.995s2.089 6.056 2.089 10.011m40.784 2.255c-1.363-1.576-3.995-2.904-7.092-3.615 4.274-2.132 6.472-5.129 6.472-8.991 0-2.101-.557-3.986-1.672-5.593s-2.694-2.904-4.707-3.8-4.366-1.36-7.03-1.36h-16.691v2.256h1.331c.558 0 1.053.216 1.549.71.464.464.712.989.712 1.545v33.247c0 .556-.248 1.081-.712 1.545-.465.463-.991.71-1.549.71h-1.455v2.256h18.116c2.756 0 5.326-.464 7.649-1.391s4.181-2.286 5.512-4.078c1.363-1.792 2.044-3.986 2.044-6.52-.031-2.719-.836-5.036-2.477-6.921m-20.78 14.986c-.464-.464-.712-.989-.712-1.545v-14.924h8.609q4.552 0 6.968 2.317 2.415 2.318 2.415 6.026a9.3 9.3 0 0 1-1.053 4.264c-.712 1.359-1.765 2.44-3.189 3.275-1.394.834-3.128 1.267-5.141 1.267h-6.348c-.558.03-1.053-.217-1.549-.68m-.681-19.651v-13.256c0-.556.217-1.05.712-1.545.465-.463.991-.71 1.549-.71h4.087c2.942 0 5.11.741 6.473 2.163 1.362 1.452 2.044 3.306 2.044 5.592 0 2.348-.651 4.233-1.92 5.655-1.27 1.39-3.19 2.101-5.729 2.101zm-170.437-5.308c-2.366-1.293-5.009-1.97-7.867-1.97s-5.532.646-7.868 1.97c-2.366 1.294-4.24 3.172-5.623 5.543s-2.09 5.143-2.09 8.222.707 5.85 2.09 8.221 3.257 4.25 5.623 5.543 5.01 1.971 7.868 1.971 5.531-.647 7.867-1.971c2.366-1.293 4.241-3.172 5.624-5.543s2.089-5.142 2.089-8.221-.706-5.851-2.089-8.222q-2.075-3.556-5.624-5.543m2.274 13.765c0 3.787-.922 6.867-2.766 9.084-1.813 2.217-4.302 3.356-7.375 3.356s-5.563-1.139-7.376-3.356c-1.844-2.217-2.766-5.297-2.766-9.084s.922-6.867 2.766-9.084c1.813-2.217 4.303-3.356 7.376-3.356s5.562 1.139 7.375 3.356c1.844 2.248 2.766 5.296 2.766 9.084m106.638-13.765c-2.366-1.293-5.009-1.97-7.867-1.97s-5.532.646-7.867 1.97c-2.367 1.294-4.241 3.172-5.624 5.543s-2.09 5.143-2.09 8.222.707 5.85 2.09 8.221 3.257 4.25 5.624 5.543 5.009 1.971 7.867 1.971 5.531-.647 7.867-1.971c2.366-1.293 4.241-3.172 5.624-5.543s2.09-5.142 2.09-8.221-.707-5.851-2.09-8.222a14.97 14.97 0 0 0-5.624-5.543m2.274 13.765c0 3.787-.922 6.867-2.766 9.084-1.813 2.217-4.302 3.356-7.375 3.356s-5.563-1.139-7.376-3.356c-1.844-2.217-2.766-5.297-2.766-9.084 0-3.819.922-6.867 2.766-9.084 1.813-2.217 4.303-3.356 7.376-3.356s5.562 1.139 7.375 3.356c1.813 2.248 2.766 5.296 2.766 9.084m-46.197-15.735q-3.714 0-6.778 1.577c-2.043 1.052-3.652 2.475-4.798 4.3a10.9 10.9 0 0 0-1.733 5.94c0 1.918.434 3.681 1.331 5.259.867 1.515 2.043 2.784 3.528 3.835l-4.426 6.002a2.42 2.42 0 0 0-.216 2.536c.433.836 1.238 1.33 2.166 1.33h1.269c-1.238.836-2.228 1.826-2.909 3.001-.805 1.33-1.207 2.722-1.207 4.145 0 2.661 1.176 4.857 3.497 6.497 2.291 1.639 5.509 2.474 9.564 2.474 2.816 0 5.509-.464 7.954-1.361 2.476-.897 4.488-2.227 5.973-3.959 1.517-1.733 2.29-3.836 2.29-6.249 0-2.537-.928-4.331-3.095-6.063-1.857-1.454-4.766-2.228-8.387-2.228h-12.38c-.031 0-.062-.031-.062-.031s-.031-.061 0-.092l3.219-4.331c.867.402 1.671.649 2.383.804.743.155 1.579.217 2.507.217 2.6 0 4.952-.526 6.995-1.578 2.042-1.052 3.683-2.475 4.859-4.3a10.7 10.7 0 0 0 1.764-5.939c0-2.289-1.114-6.466-4.147-8.6 0-.031.031-.031.031-.031l6.654.742v-3.062h-10.647a16.3 16.3 0 0 0-5.199-.835m3.714 19.334c-1.177.618-2.445.959-3.714.959-2.074 0-3.9-.743-5.448-2.197-1.547-1.454-2.321-3.588-2.321-6.31s.774-4.857 2.321-6.311 3.374-2.196 5.448-2.196c1.299 0 2.537.309 3.714.959 1.176.618 2.135 1.577 2.909 2.846.743 1.268 1.145 2.846 1.145 4.702 0 1.887-.371 3.464-1.145 4.702-.743 1.268-1.733 2.227-2.909 2.846m-8.388 11.415h8.388c2.321 0 3.806.464 4.797 1.453s1.485 2.321 1.485 3.867c0 2.258-.897 4.115-2.692 5.507s-4.209 2.103-7.181 2.103c-2.599 0-4.766-.588-6.344-1.701-1.579-1.114-2.383-2.815-2.383-4.981 0-1.361.371-2.629 1.114-3.743s1.64-1.918 2.816-2.505m140.335-.413c-.612-.334-1.071-.82-1.439-1.396a3.94 3.94 0 0 1-.52-1.944c0-.698.183-1.366.52-1.943.337-.608.827-1.063 1.439-1.397a4.2 4.2 0 0 1 2.051-.517c.766 0 1.439.183 2.052.517.612.334 1.071.82 1.439 1.397.337.607.52 1.245.52 1.943a3.85 3.85 0 0 1-.52 1.944c-.337.607-.827 1.062-1.439 1.396a4.2 4.2 0 0 1-2.052.517 4.3 4.3 0 0 1-2.051-.517m3.766-.455c.521-.273.888-.699 1.194-1.184a3.6 3.6 0 0 0 .429-1.731 3.6 3.6 0 0 0-.429-1.731 2.8 2.8 0 0 0-1.194-1.185 3.6 3.6 0 0 0-1.715-.425c-.643 0-1.194.152-1.714.425-.521.274-.888.699-1.194 1.185a3.6 3.6 0 0 0-.429 1.731c0 .637.153 1.214.429 1.731a2.8 2.8 0 0 0 1.194 1.184c.52.273 1.071.425 1.714.425a3.5 3.5 0 0 0 1.715-.425m-3.368-1.063v-.273l.061-.031h.184c.061 0 .123-.03.153-.06.061-.061.061-.091.061-.152v-2.824a.23.23 0 0 0-.061-.152c-.061-.061-.092-.061-.153-.061h-.184l-.061-.03v-.274l.061-.03h1.592c.46 0 .797.091 1.072.304.276.212.398.486.398.85 0 .273-.092.547-.306.729a1.2 1.2 0 0 1-.766.364l.368.122.704 1.123c.061.091.123.122.214.122h.184l.031.03v.273l-.031.031h-.949l-.061-.031-.98-1.639h-.245v1.093c0 .061.031.121.061.152.062.06.092.06.153.06h.184l.061.031v.273l-.061.03h-1.623zm1.562-1.974c.245 0 .459-.061.581-.212a.83.83 0 0 0 .215-.577.87.87 0 0 0-.184-.577c-.123-.152-.306-.213-.521-.213h-.122a.23.23 0 0 0-.153.061c-.061.061-.061.091-.061.152v1.366z" style="fill:#00ed64;fill-rule:nonzero" transform="translate(-624.952 -219.311)scale(1.1826)"/><path d="M573.399 473.838c-3.328-3.949-6.193-7.959-6.779-8.792a.15.15 0 0 0-.216 0c-.585.833-3.451 4.843-6.779 8.792-28.564 36.43 4.499 61.015 4.499 61.015l.277.185c.247 3.794.863 9.254.863 9.254h2.465s.617-5.429.863-9.254l.277-.216c.031.031 33.094-24.554 4.53-60.984m-6.902 60.491s-1.479-1.265-1.88-1.913v-.062l1.787-39.669c0-.123.185-.123.185 0l1.787 39.669v.062c-.4.648-1.879 1.913-1.879 1.913" style="fill:#00ed64;fill-rule:nonzero" transform="translate(-1539.868 -1388.379)scale(3.17004)"/></svg>