<svg xmlns="http://www.w3.org/2000/svg" xml:space="preserve" style="fill-rule:evenodd;clip-rule:evenodd;stroke-linejoin:round;stroke-miterlimit:2" viewBox="0 0 1024 1024"><path d="M134.44 120.34C119.13 52.8 87.22 34.82 79.08 22.11a144.504 144.504 0 0 1-8.9-17.42c-.43 6-1.22 9.78-6.32 14.33-10.24 9.13-53.73 44.57-57.39 121.31-3.41 71.55 52.6 115.67 60 120.23 5.69 2.8 12.62.06 16-2.51 27-18.53 63.89-67.93 52-137.71" style="fill:#10aa50;fill-rule:nonzero" transform="translate(287.225 40.737) scale(3.14187)"/><path d="M72.5 222.46c-1.41 17.71-2.42 28-6 38.12 0 0 2.35 16.86 4 34.72h5.84a324.732 324.732 0 0 1 6.37-37.39c-7.56-3.72-9.92-19.91-10.21-35.45Z" style="fill:#b8c4c2;fill-rule:nonzero" transform="translate(287.225 40.737) scale(3.14187)"/><path d="M82.7 257.92c-7.64-3.53-9.85-20.06-10.19-35.46a725.982 725.982 0 0 0 1.65-76.35c-.4-13.36.19-123.74-3.29-139.9a134.316 134.316 0 0 0 8.21 15.89c8.14 12.72 40.06 30.7 55.36 98.24C146.36 190 109.67 239.27 82.7 257.92Z" style="fill:#12924f;fill-rule:nonzero" transform="translate(287.225 40.737) scale(3.14187)"/></svg>