<svg xmlns="http://www.w3.org/2000/svg" xml:space="preserve" style="fill-rule:evenodd;clip-rule:evenodd;stroke-linejoin:round;stroke-miterlimit:2" viewBox="0 0 512 512"><path d="M581 191.18C581 123.747 526.253 69 458.82 69H191.18C123.747 69 69 123.747 69 191.18v267.64C69 526.253 123.747 581 191.18 581h267.64C526.253 581 581 526.253 581 458.82z" style="fill:#01678c" transform="matrix(1 0 0 1 -69 -69)"/><g transform="translate(136.187 323.113)scale(2.28022)"><clipPath id="75bb9d48a"><path d="M0 0h120v60H0z"/></clipPath><g clip-path="url(#75bb9d48a)"><path d="M110.169 1662.97h75.356v-298.02l117.484 259.84c13.307 31.23 32.426 42.8 69.442 42.8 37.017 0 54.994-11.58 68.742-42.8l116.9-259.84v298.02h75.811v-298.02c0-28.92-11.582-42.84-35.888-50.36-57.29-17.35-95.487-2.31-112.841 36.45l-115.149 256.94-111.115-256.94c-16.784-38.76-55.565-53.8-113.425-36.45-23.735 7.52-35.304 21.43-35.304 50.36zm586.355-242.46h75.811v163.77c-.571 9.25 2.892 30.09 44.098 30.65 21.401.58 163.191 0 164.332 0v-195.59h75.815v267.94c0 65.96-81.716 80.41-119.797 81.01H698.392v-50.33h239.001c48.612-5.21 42.827-29.5 42.827-37.61v-19.69H819.909c-74.656-.58-122.698-33.56-123.255-71.18v-169zM1114.35 1662.97h217.58c25.46 0 49.78-5.19 69.45-14.46 32.98-15.05 48.61-35.28 48.61-61.91v-55.55c0-21.4-17.94-41.67-53.8-55.55-18.53-6.94-41.68-11-64.24-11h-91.44c-30.68 0-45.14-9.27-49.2-29.51-.57-2.31-.57-4.63-.57-6.94v-34.15c0-1.75 0-4.04.57-6.35 4.05-15.63 12.15-19.69 38.91-22.57h222.79v-50.36h-211.8c-30.68 0-46.88 1.75-61.35 6.38-44.57 13.88-64.24 35.87-64.24 74.63v44.01c0 34.11 38.19 63.07 103 70.01 6.94.58 14.47.58 21.99.58h78.13c2.89 0 5.77 0 8.08.59 23.74 2.31 34.15 6.35 41.09 15.02 4.63 4.63 5.8 8.69 5.8 13.9v43.97c0 5.19-3.48 12.17-10.42 17.94-6.93 5.77-17.96 9.83-32.42 10.41-2.89 0-4.6.59-7.52.59h-209zm806.68-87.37c0 51.5 38.9 80.42 116.34 86.23 7.52.58 14.46 1.14 21.98 1.14h196.76v-50.32h-198.48c-44.01 0-60.78-11-60.78-37.62v-260.41h-75.97v261zm-423.03 2.3v-179.38c0-45.72 32.4-73.51 95.5-82.18 6.94-.58 13.88-1.17 20.24-1.17h143.5c7.52 0 13.9.59 21.42 1.17 63.08 8.67 94.89 36.45 94.89 82.18v179.38c0 37.03-13.29 56.72-44.56 70.04l74.06 67.11h-87.37l-60.18-54.39-60.78 3.48h-81.01a178 178 0 0 1-43.98-5.77c-47.99-13.34-71.73-38.78-71.73-80.47m81.59-4.02c0 2.31 1.29 4.6 1.75 7.52 4.04 20.82 23.71 32.4 53.8 32.4h68.3l-62.49-56.72h87.36l54.97 49.78c10.44-5.8 16.8-13.9 19.11-24.32.58-2.31.58-5.19.58-7.52v-171.88c0-2.31 0-4.61-.58-6.94-4.05-19.66-23.71-30.65-53.23-30.65h-114.01c-33.57 0-55.55 14.46-55.55 37.59z" style="fill:#fff" transform="matrix(.05592 0 0 .05592 -6.16 -55.997)"/></g></g><g transform="matrix(4.17231 0 0 4.17231 133.486 76.335)"><clipPath id="75bb9d48b"><path d="M0 0h64v64H0z"/></clipPath><g clip-path="url(#75bb9d48b)"><path d="M447.69 237.215c-8.92-.25-15.84.67-21.64 3.125-1.67.675-4.35.675-4.57 2.79.892.887 1 2.34 1.782 3.57 1.338 2.232 3.683 5.24 5.8 6.8l7.138 5.133c4.35 2.674 9.257 4.237 13.495 6.915 2.455 1.562 4.907 3.569 7.362 5.244 1.25.893 2.008 2.346 3.57 2.901v-.338c-.78-1-1.005-2.45-1.782-3.57l-3.35-3.233c-3.233-4.349-7.25-8.145-11.6-11.265-3.57-2.455-11.375-5.8-12.825-9.925l-.22-.25c2.45-.25 5.35-1.117 7.695-1.787 3.795-1 7.25-.78 11.15-1.783l5.357-1.562v-1c-2.007-2.008-3.457-4.685-5.575-6.58-5.687-4.908-11.937-9.705-18.407-13.72-3.458-2.23-7.92-3.683-11.6-5.575-1.342-.67-3.57-1.005-4.35-2.12-2.013-2.45-3.125-5.688-4.575-8.59l-9.145-19.408c-2.007-4.35-3.237-8.7-5.688-12.715-11.49-18.962-23.984-30.45-43.169-41.717-4.126-2.343-9.033-3.35-14.25-4.575l-8.365-.45c-1.788-.78-3.57-2.9-5.133-3.905-6.357-4.015-22.755-12.715-27.442-1.25-3.013 7.25 4.462 14.387 7 18.07 1.9 2.565 4.35 5.465 5.692 8.365.75 1.895 1 3.905 1.783 5.912 1.782 4.908 3.457 10.375 5.799 14.95 1.25 2.343 2.563 4.8 4.126 6.918.892 1.25 2.455 1.785 2.787 3.792-1.562 2.233-1.67 5.575-2.563 8.368-4.017 12.605-2.454 28.22 3.233 37.5 1.788 2.787 6 8.925 11.715 6.58 5.02-2.008 3.9-8.365 5.35-13.943.337-1.337.112-2.23.78-3.125v.25l4.575 9.258c3.458 5.465 9.483 11.155 14.5 14.95 2.675 2.007 4.795 5.467 8.14 6.692v-.337h-.22c-.67-1-1.675-1.45-2.567-2.23-2.008-2.008-4.238-4.463-5.8-6.693-4.683-6.245-8.808-13.162-12.49-20.3-1.788-3.457-3.35-7.25-4.795-10.707-.675-1.34-.675-3.35-1.788-4.015-1.675 2.45-4.125 4.575-5.357 7.585-2.12 4.795-2.34 10.707-3.12 16.842-.45.113-.25 0-.45.25-3.565-.89-4.795-4.575-6.133-7.695-3.345-7.92-3.905-20.635-1.005-29.782.78-2.343 4.13-9.705 2.793-11.935-.675-2.12-2.9-3.345-4.13-5.02-1.45-2.12-3.008-4.795-4.013-7.138-2.675-6.25-4.012-13.162-6.915-19.41-1.342-2.9-3.682-5.912-5.58-8.587-2.12-3.013-4.457-5.133-6.132-8.7-.558-1.25-1.338-3.235-.445-4.575.22-.893.67-1.25 1.557-1.45 1.45-1.25 5.58.335 7.03 1 4.125 1.675 7.583 3.235 11.04 5.575 1.563 1.115 3.238 3.235 5.245 3.795h2.345c3.57.78 7.583.25 10.925 1.25 5.913 1.9 11.265 4.685 16.065 7.7 14.61 9.257 26.66 22.42 34.8 38.15 1.338 2.565 1.895 4.907 3.125 7.585 2.345 5.467 5.245 11.042 7.583 16.4 2.345 5.242 4.575 10.6 7.92 14.95 1.675 2.342 8.365 3.567 11.375 4.795 2.232 1 5.687 1.9 7.7 3.125 3.79 2.342 7.582 5.02 11.15 7.585 1.782 1.335 7.362 4.125 7.695 6.35zm-113.75-96.93a17.7 17.7 0 0 0-4.57.558v.25h.22c.892 1.785 2.455 3.012 3.57 4.575l2.567 5.355.22-.251c1.563-1.114 2.345-2.899 2.345-5.574-.67-.78-.78-1.563-1.337-2.343-.67-1.115-2.12-1.675-3.015-2.565z" style="fill:#fff" transform="matrix(.39023 0 0 .38781 -115.75 -42.142)"/></g></g></svg>