<svg xmlns="http://www.w3.org/2000/svg" xml:space="preserve" style="fill-rule:evenodd;clip-rule:evenodd;stroke-linejoin:round;stroke-miterlimit:2" viewBox="0 0 512 512"><path d="M512 122.18C512 54.747 457.253 0 389.82 0H122.18C54.747 0 0 54.747 0 122.18v267.64C0 457.253 54.747 512 122.18 512h267.64C457.253 512 512 457.253 512 389.82z" style="fill:#01678c"/><clipPath id="75bb9d48a"><path d="M136.187 323.113h273.627v136.813H136.187z"/></clipPath><g clip-path="url(#75bb9d48a)"><path d="M136.187 407.471h9.608v-37.999l14.981 33.13c1.696 3.983 4.134 5.458 8.854 5.458s7.012-1.477 8.765-5.458l14.906-33.13v37.999h9.667v-37.999c0-3.688-1.477-5.463-4.576-6.422-7.305-2.213-12.176-.295-14.389 4.647l-14.682 32.762-14.168-32.762c-2.14-4.942-7.085-6.86-14.463-4.647-3.026.959-4.502 2.732-4.502 6.422zm74.765-30.916h9.667v20.883c-.073 1.179.369 3.836 5.623 3.908 2.729.074 20.808 0 20.954 0v-24.94h9.666v34.165c0 8.411-10.419 10.253-15.275 10.329H211.19v-6.417h30.475c6.199-.664 5.461-3.762 5.461-4.796v-2.51h-20.441c-9.519-.075-15.645-4.28-15.716-9.076v-21.549zm53.276 30.916h27.745c3.246 0 6.347-.661 8.854-1.844 4.206-1.918 6.199-4.498 6.199-7.893v-7.084c0-2.728-2.288-5.313-6.86-7.083-2.362-.885-5.314-1.402-8.192-1.402h-11.659c-3.911 0-5.755-1.183-6.273-3.763-.073-.294-.073-.59-.073-.885v-4.354c0-.223 0-.516.073-.81.516-1.993 1.55-2.511 4.961-2.878h28.408v-6.422h-27.007c-3.911 0-5.977.223-7.822.814-5.683 1.769-8.192 4.574-8.192 9.516v5.611c0 4.35 4.871 8.043 13.135 8.928.885.074 1.844.074 2.803.074h9.963c.368 0 .736 0 1.03.074 3.026.295 4.354.811 5.239 1.916.591.59.739 1.108.739 1.772v5.607c0 .661-.443 1.551-1.328 2.287-.884.736-2.29 1.254-4.134 1.328-.369 0-.587.074-.959.074h-26.65zm102.859-11.14c0 6.566 4.961 10.254 14.835 10.995.959.074 1.844.145 2.803.145h25.088v-6.417h-25.308c-5.611 0-7.75-1.402-7.75-4.796v-33.205h-9.686v33.28zm-53.939.293v-22.872c0-5.83 4.131-9.374 12.177-10.479.885-.074 1.77-.149 2.58-.149h18.298c.959 0 1.773.075 2.732.149 8.042 1.105 12.099 4.647 12.099 10.479v22.872c0 4.722-1.695 7.232-5.682 8.93l9.443 8.557h-11.14l-7.674-6.934-7.75.443h-10.329a22.6 22.6 0 0 1-5.608-.736c-6.12-1.7-9.146-4.945-9.146-10.26m10.402-.513c0 .295.166.587.224.959.516 2.655 3.023 4.132 6.86 4.132h8.709l-7.968-7.232h11.14l7.009 6.347q1.995-1.109 2.436-3.101c.074-.294.074-.662.074-.959V374.34c0-.294 0-.587-.074-.884-.516-2.508-3.024-3.908-6.788-3.908h-14.537c-4.28 0-7.083 1.844-7.083 4.792z" style="fill:#fff"/></g><clipPath id="75bb9d48b"><path d="M133.486 76.335h267.028v267.028H133.486z"/></clipPath><g clip-path="url(#75bb9d48b)"><path d="M379.45 284.335c-14.523-.404-25.79 1.084-35.233 5.057-2.719 1.092-7.083 1.092-7.441 4.514 1.453 1.436 1.628 3.786 2.902 5.777 2.178 3.612 5.996 8.478 9.444 11.002l11.621 8.305c7.082 4.328 15.072 6.857 21.972 11.189 3.997 2.528 7.99 5.776 11.987 8.487 2.035 1.444 3.268 3.794 5.812 4.692v-.546c-1.27-1.618-1.636-3.964-2.902-5.776l-5.454-5.231c-5.263-7.038-11.804-13.179-18.887-18.227-5.812-3.973-18.52-9.385-20.881-16.06l-.358-.404c3.989-.405 8.711-1.808 12.529-2.892 6.178-1.619 11.804-1.263 18.154-2.885l8.722-2.528v-1.618c-3.268-3.248-5.629-7.581-9.077-10.647-9.26-7.94-19.436-15.703-29.97-22.2-5.629-3.608-12.895-5.958-18.886-9.02-2.186-1.084-5.813-1.626-7.083-3.431-3.277-3.964-5.088-9.202-7.449-13.899l-14.889-31.402c-3.269-7.039-5.271-14.077-9.26-20.574-18.708-30.682-39.052-49.27-70.288-67.502-6.716-3.79-14.706-5.42-23.201-7.402l-13.62-.728c-2.91-1.262-5.812-4.693-8.356-6.319-10.351-6.496-37.049-20.573-44.681-2.022-4.905 11.731 7.266 23.279 11.397 29.238 3.094 4.15 7.083 8.843 9.269 13.535 1.221 3.066 1.628 6.319 2.902 9.567 2.902 7.941 5.629 16.787 9.443 24.19 2.035 3.79 4.172 7.767 6.716 11.193 1.453 2.022 3.997 2.888 4.539 6.136-2.544 3.613-2.719 9.021-4.172 13.54-6.542 20.395-3.998 45.661 5.263 60.677 2.91 4.51 9.769 14.441 19.073 10.647 8.174-3.249 6.35-13.535 8.711-22.56.55-2.164.183-3.608 1.27-5.057v.405l7.449 14.979c5.629 8.843 15.439 18.05 23.608 24.19 4.355 3.248 7.807 8.847 13.253 10.829v-.546h-.358c-1.091-1.618-2.727-2.346-4.18-3.608-3.269-3.249-6.9-7.221-9.444-10.829-7.623-10.105-14.339-21.298-20.335-32.847-2.911-5.594-5.455-11.731-7.807-17.325-1.099-2.168-1.099-5.421-2.911-6.497-2.727 3.964-6.716 7.403-8.722 12.273-3.452 7.759-3.81 17.326-5.08 27.252-.733.183-.407 0-.733.405-5.804-1.44-7.807-7.403-9.985-12.451-5.446-12.815-6.357-33.389-1.636-48.19 1.27-3.79 6.724-15.703 4.547-19.312-1.099-3.43-4.722-5.412-6.724-8.122-2.361-3.431-4.897-7.759-6.533-11.549-4.356-10.113-6.533-21.298-11.259-31.407-2.186-4.692-5.996-9.567-9.085-13.895-3.452-4.874-7.258-8.305-9.985-14.077-.908-2.023-2.178-5.234-.724-7.403.358-1.444 1.09-2.022 2.535-2.346 2.361-2.022 9.085.542 11.446 1.618 6.716 2.71 12.346 5.235 17.975 9.021 2.544 1.804 5.271 5.234 8.54 6.14h3.818c5.812 1.263 12.345.405 17.787 2.023 9.627 3.074 18.342 7.581 26.157 12.459 23.787 14.979 43.406 36.277 56.66 61.729 2.177 4.151 3.085 7.941 5.088 12.273 3.818 8.847 8.539 17.868 12.345 26.536 3.818 8.483 7.449 17.152 12.895 24.191 2.727 3.79 13.62 5.772 18.52 7.758 3.635 1.618 9.26 3.074 12.537 5.057 6.171 3.79 12.346 8.122 18.154 12.273 2.902 2.16 11.987 6.674 12.529 10.274zM194.247 127.496a29 29 0 0 0-7.44.902v.405h.358c1.453 2.888 3.997 4.874 5.812 7.403l4.181 8.664.358-.404c2.544-1.804 3.818-4.693 3.818-9.021-1.091-1.262-1.27-2.528-2.178-3.79-1.091-1.804-3.451-2.71-4.909-4.151z" style="fill:#fff"/></g></svg>