<svg xmlns="http://www.w3.org/2000/svg" xml:space="preserve" style="fill-rule:evenodd;clip-rule:evenodd;stroke-linejoin:round;stroke-miterlimit:2" viewBox="0 0 512 512"><path d="M512 122.18C512 54.747 457.253 0 389.82 0H122.18C54.747 0 0 54.747 0 122.18v267.64C0 457.253 54.747 512 122.18 512h267.64C457.253 512 512 457.253 512 389.82z" style="fill:#212121"/><path d="M256 453.032c-5.43 0-10.498-1.448-15.204-3.982l-48.151-28.6c-7.24-3.982-3.62-5.43-1.448-6.154 9.775-3.258 11.585-3.982 21.722-9.776 1.086-.724 2.534-.362 3.62.362l36.927 22.084c1.448.724 3.258.724 4.344 0l144.448-83.627c1.448-.724 2.172-2.172 2.172-3.982V172.463c0-1.81-.724-3.258-2.172-3.982L257.81 85.214c-1.448-.724-3.258-.724-4.344 0l-144.448 83.267c-1.448.724-2.172 2.534-2.172 3.982v166.894c0 1.448.724 3.258 2.172 3.982l39.461 22.807c21.36 10.861 34.754-1.81 34.754-14.481V186.944c0-2.173 1.81-4.345 4.344-4.345h18.464c2.172 0 4.344 1.81 4.344 4.345v164.721c0 28.601-15.568 45.253-42.72 45.253-8.326 0-14.842 0-33.305-9.05l-38.014-21.722c-9.412-5.43-15.204-15.567-15.204-26.427V172.825c0-10.862 5.792-20.998 15.204-26.428l144.45-83.627c9.05-5.07 21.358-5.07 30.408 0l144.45 83.627c9.412 5.43 15.204 15.566 15.204 26.428v166.894c0 10.86-5.792 20.997-15.204 26.427l-144.45 83.628c-4.706 2.172-10.136 3.258-15.204 3.258m44.529-114.762c-63.355 0-76.387-28.961-76.387-53.579 0-2.173 1.81-4.345 4.344-4.345h18.826c2.172 0 3.982 1.448 3.982 3.621 2.896 19.186 11.222 28.6 49.597 28.6 30.41 0 43.444-6.878 43.444-23.17 0-9.413-3.622-16.291-51.047-20.998-39.46-3.982-64.078-12.671-64.078-44.167 0-29.324 24.618-46.701 65.889-46.701 46.338 0 69.146 15.929 72.042 50.683q0 1.629-1.086 3.258c-.724.724-1.81 1.448-2.896 1.448h-18.824c-1.812 0-3.622-1.448-3.984-3.258-4.344-19.91-15.566-26.427-45.252-26.427-33.307 0-37.289 11.585-37.289 20.273 0 10.5 4.706 13.758 49.597 19.55 44.53 5.792 65.527 14.118 65.527 45.253-.362 31.858-26.427 49.959-72.405 49.959" style="fill:#3ebd0b;fill-rule:nonzero"/></svg>