<svg xmlns="http://www.w3.org/2000/svg" xml:space="preserve" style="fill-rule:evenodd;clip-rule:evenodd;stroke-linejoin:round;stroke-miterlimit:2" viewBox="0 0 512 513"><path d="M581 191.18C581 123.747 526.253 69 458.82 69H191.18C123.747 69 69 123.747 69 191.18v267.64C69 526.253 123.747 581 191.18 581h267.64C526.253 581 581 526.253 581 458.82z" style="fill:#c12127" transform="translate(-69 -68.5)"/><path d="M240 250h100v-50h100V0H240zM340 50h50v100h-50zM480 0v200h100V50h50v150h50V50h50v150h50V0zM0 200h100V50h50v150h50V0H0z" style="fill:#fff;fill-rule:nonzero" transform="translate(57.907 199.84)scale(.50793)"/></svg>