<svg xmlns="http://www.w3.org/2000/svg" xml:space="preserve" style="fill-rule:evenodd;clip-rule:evenodd;stroke-linejoin:round;stroke-miterlimit:2" viewBox="0 0 512 513"><path d="M512 122.68C512 55.247 457.253.5 389.82.5H122.18C54.747.5 0 55.247 0 122.68v267.64C0 457.753 54.747 512.5 122.18 512.5h267.64c67.433 0 122.18-54.747 122.18-122.18z" style="fill:#c12127"/><path d="M179.81 326.823h50.793v-25.397h50.794V199.84H179.81zm50.793-101.587H256v50.794h-25.397zm71.111-25.396v101.586h50.793v-76.19h25.397v76.19H403.3v-76.19h25.397v76.19h25.397V199.84zM57.906 301.426H108.7v-76.19h25.396v76.19h25.397V199.84H57.906z" style="fill:#fff;fill-rule:nonzero"/></svg>