<svg xmlns="http://www.w3.org/2000/svg" xml:space="preserve" style="fill-rule:evenodd;clip-rule:evenodd;stroke-linejoin:round;stroke-miterlimit:2" viewBox="0 0 512 512"><path d="M581 191.18C581 123.747 526.253 69 458.82 69H191.18C123.747 69 69 123.747 69 191.18v267.64C69 526.253 123.747 581 191.18 581h267.64C526.253 581 581 526.253 581 458.82z" style="fill:#366588" transform="translate(-69 -69)"/><path d="M25.25 6.47H24c-1.18 0-1.81.76-1.81 2.24v7.27h2.08V12.6h.92c1.72 0 2.45-1.2 2.45-3.19 0-1.94-.83-2.94-2.39-2.94m-.38 4.44h-.6V8.18h.61c.49 0 .73.37.73 1.29 0 .98-.26 1.44-.74 1.44M12.43 6.47h-1.25c-1.18 0-1.81.76-1.81 2.24v7.27h2.08V12.6h.92c1.72 0 2.45-1.2 2.45-3.19 0-1.94-.83-2.94-2.39-2.94m-.39 4.44h-.6V8.18h.61c.49 0 .73.37.73 1.29.01.98-.26 1.44-.74 1.44m8.85-4.44c-1.18 0-1.81.76-1.81 2.24v1.55H17.6V6.47h-.27c-1.18 0-1.81.76-1.81 2.24v7.27h2.08v-3.84h1.48v3.84h2.07v-9.5h-.26z" style="fill:#fff;fill-rule:nonzero" transform="translate(-41.28 -7.639)scale(16.09672)"/><path d="M32.09 6.47h1.97v1.77h-1.97z" style="fill:#63a5d6" transform="translate(-352.428 160.835)scale(16.09672)"/><path d="M40.93 6.47h1.93v1.88h-1.93zm-5.88 7.62h1.93v1.88h-1.93zM32.09 8.8h1.97v1.88h-1.97z" style="fill:#3ab549" transform="translate(-352.428 160.835)scale(16.09672)"/><path d="M32.09 11.24v2.22c0 .52-.28.84-.75.84-.44 0-.76-.28-.76-.85V6.47h-.28c-1.18 0-1.81.76-1.81 2.24v4.8c0 1.8 1.03 2.61 2.73 2.61 1.6 0 2.85-.92 2.84-2.65v-2.22h-1.97zm15.09-.88V8.87h-.97V7.26h-.61c-.85 0-1.31.55-1.31 1.61h-.63v1.49h.63v4.2c0 1.05.75 1.52 1.69 1.52.37 0 .84-.07 1.19-.19v-1.53c-.15.03-.36.04-.56.04-.31 0-.4-.15-.4-.41v-3.63zm-8.72-1.72c-.63 0-1.13.27-1.48.77V8.8h-.63c-.85 0-1.31.55-1.31 1.61v3.12h1.93V11c0-.43.21-.75.53-.75.43 0 .52.33.52.63v5.09h1.92v-5.81c.02-.94-.65-1.52-1.48-1.52m3.78.23c-.85 0-1.31.55-1.31 1.61v5.49h1.93v-7.1z" style="fill:#63a5d6;fill-rule:nonzero" transform="translate(-352.428 160.835)scale(16.09672)"/></svg>