<svg xmlns="http://www.w3.org/2000/svg" xml:space="preserve" style="fill-rule:evenodd;clip-rule:evenodd;stroke-linejoin:round;stroke-miterlimit:2" viewBox="0 0 512 512"><path d="M512 123.18C512 55.747 457.253 1 389.82 1H122.18C54.747 1 0 55.747 0 123.18v267.64C0 458.253 54.747 513 122.18 513h267.64C457.253 513 512 458.253 512 390.82z" style="fill:#366588"/><path d="M365.161 97.507h-20.12c-18.995 0-29.136 12.234-29.136 36.057v117.023h33.482V196.18h14.809c27.686 0 39.437-19.316 39.437-51.348 0-31.228-13.361-47.325-38.472-47.325m-6.116 71.47h-9.658v-43.944h9.819c7.887 0 11.75 5.955 11.75 20.764 0 15.775-4.185 23.18-11.911 23.18m-200.243-71.47h-20.121c-18.994 0-29.135 12.234-29.135 36.057v117.023h33.481V196.18h14.809c27.686 0 39.437-19.316 39.437-51.348 0-31.228-13.361-47.325-38.471-47.325m-6.278 71.47h-9.658v-43.944h9.819c7.887 0 11.75 5.955 11.75 20.764.161 15.775-4.185 23.18-11.911 23.18m142.456-71.47c-18.994 0-29.135 12.234-29.135 36.057v24.95h-23.823V97.507h-4.347c-18.994 0-29.135 12.234-29.135 36.057v117.023h33.482v-61.811h23.823v61.811h33.32V97.668h-4.185z" style="fill:#fff;fill-rule:nonzero"/><path d="M164.115 265.981h31.711v28.491h-31.711z" style="fill:#63a5d6"/><path d="M306.41 265.981h31.067v30.261H306.41zm-94.649 122.656h31.067v30.262h-31.067zm-47.646-85.151h31.711v30.262h-31.711z" style="fill:#3ab549"/><path d="M164.115 342.762v35.735c0 8.37-4.507 13.521-12.072 13.521-7.083 0-12.234-4.507-12.234-13.682V265.981h-4.507c-18.994 0-29.135 12.233-29.135 36.056v77.264c0 28.974 16.58 42.013 43.944 42.013 25.755 0 45.876-14.809 45.715-42.657v-35.734h-31.711zm242.899-14.165v-23.984h-15.613v-25.916h-9.819c-13.683 0-21.087 8.853-21.087 25.916h-10.141v23.984h10.141v67.606c0 16.901 12.072 24.467 27.203 24.467 5.956 0 13.522-1.127 19.155-3.058v-24.628c-2.414.482-5.794.643-9.014.643-4.99 0-6.438-2.414-6.438-6.599v-58.431zM266.651 300.91c-10.141 0-18.189 4.347-23.823 12.395v-9.819h-10.141c-13.682 0-21.087 8.853-21.087 25.916v50.221h31.067v-40.724c0-6.922 3.38-12.073 8.531-12.073 6.922 0 8.371 5.312 8.371 10.141v81.932h30.905v-93.522c.322-15.131-10.463-24.467-23.823-24.467m60.846 3.703c-13.683 0-21.087 8.853-21.087 25.915v88.371h31.067V304.613z" style="fill:#63a5d6;fill-rule:nonzero"/></svg>