<svg xmlns="http://www.w3.org/2000/svg" xml:space="preserve" style="fill-rule:evenodd;clip-rule:evenodd;stroke-linejoin:round;stroke-miterlimit:2" viewBox="0 0 512 512"><path d="M105.785 1.093c-6.72 1.067-12.992 2.429-18.874 4.084C36.65 20.325 0 67.006 0 122.18v267.64C0 457.253 54.747 512 122.18 512h267.64C457.253 512 512 457.253 512 389.82V122.18C512 54.747 457.253 0 389.82 0H122.18c-5.556 0-11.027.372-16.395 1.093" style="fill:url(#d44cfe20a)"/><path d="M0 234.44v155.38C0 457.253 54.747 512 122.18 512h62.845z" style="fill:url(#d44cfe20b)"/><path d="M185.956 0 512 191.252V122.18C512 54.747 457.253 0 389.82 0z" style="fill:url(#d44cfe20c)"/><path d="M90.826 92.93h329.076v329.076H90.826z" style="fill-rule:nonzero"/><path d="M122.088 360.304h123.404v20.567H122.088zm-1.645-224.595h55.943c32.908 0 52.653 18.923 52.653 46.894 0 31.262-24.681 47.716-55.121 47.716h-23.035v41.135h-30.44zm54.298 69.929c14.356 0 23.858-9.872 23.858-21.39 0-13.163-9.049-20.567-24.681-20.567h-23.035v41.957zm61.701 46.893 18.1-21.389c12.34 9.872 25.503 16.453 41.134 16.453 12.341 0 19.745-4.935 19.745-13.163 0-7.404-4.936-11.517-27.972-17.276-27.971-7.404-45.247-14.809-45.247-41.958v-.822c0-24.681 19.744-41.135 47.715-41.135a82.9 82.9 0 0 1 51.007 17.277l-15.631 23.035c-12.34-8.226-23.858-13.163-35.376-13.163s-17.276 4.937-17.276 12.341c0 9.049 5.759 12.34 29.617 18.099 27.971 7.404 43.603 17.276 43.603 41.134 0 27.149-20.568 42.78-50.185 42.78a87 87 0 0 1-59.234-22.213" style="fill:#fff;fill-rule:nonzero"/><defs><linearGradient id="d44cfe20a" x1="0" x2="1" y1="0" y2="0" gradientTransform="rotate(45.882 -16.356 63.243)scale(545.2)" gradientUnits="userSpaceOnUse"><stop offset="0" style="stop-color:#ff2d90;stop-opacity:1"/><stop offset="1" style="stop-color:#7256ff;stop-opacity:1"/></linearGradient><linearGradient id="d44cfe20b" x1="0" x2="1" y1="0" y2="0" gradientTransform="rotate(-127.973 198.371 220.167)scale(238.824)" gradientUnits="userSpaceOnUse"><stop offset="0" style="stop-color:#d249fc;stop-opacity:1"/><stop offset="1" style="stop-color:#d249fc;stop-opacity:1"/></linearGradient><linearGradient id="d44cfe20c" x1="0" x2="1" y1="0" y2="0" gradientTransform="rotate(34.316 142.153 460.62)scale(275.49)" gradientUnits="userSpaceOnUse"><stop offset="0" style="stop-color:#ff2d91;stop-opacity:1"/><stop offset="1" style="stop-color:#d548f6;stop-opacity:1"/></linearGradient></defs></svg>