<svg xmlns="http://www.w3.org/2000/svg" xml:space="preserve" viewBox="0 0 70 70"><linearGradient id="d44cfe20a" x1=".558" x2="29.947" y1="46.846" y2="8.026" gradientUnits="userSpaceOnUse"><stop offset=".016" style="stop-color:#765af8"/><stop offset=".382" style="stop-color:#b345f1"/><stop offset=".758" style="stop-color:#fa3293"/><stop offset=".941" style="stop-color:#ff318c"/></linearGradient><path d="m39.6 15.2-3.3-10L11.9 0 0 13.5l37.2 19z" style="fill:url(#d44cfe20a)"/><linearGradient id="d44cfe20b" x1="2.73" x2="32.072" y1="48.379" y2="9.621" gradientUnits="userSpaceOnUse"><stop offset=".016" style="stop-color:#765af8"/><stop offset=".382" style="stop-color:#b345f1"/><stop offset=".758" style="stop-color:#fa3293"/><stop offset=".941" style="stop-color:#ff318c"/></linearGradient><path d="m28 41.4-.7-20.8L0 13.5l6.7 40.1 21.3-.2z" style="fill:url(#d44cfe20b)"/><linearGradient id="d44cfe20c" x1="50.857" x2="34.274" y1="46.405" y2="7.048" gradientUnits="userSpaceOnUse"><stop offset=".183" style="stop-color:#765af8"/><stop offset=".238" style="stop-color:#8655f6"/><stop offset=".345" style="stop-color:#9f4cf3"/><stop offset=".443" style="stop-color:#ae47f2"/><stop offset=".522" style="stop-color:#b345f1"/></linearGradient><path d="m22.1 41 1.3-16.5L43.2 4.2l17.7 3.2L70 30.1l-9.5 9.4L45 37l-9.6 10.1z" style="fill:url(#d44cfe20c)"/><linearGradient id="d44cfe20d" x1="63.266" x2="24.698" y1="57.339" y2="27.516" gradientUnits="userSpaceOnUse"><stop offset=".016" style="stop-color:#765af8"/><stop offset=".382" style="stop-color:#b345f1"/></linearGradient><path d="M43.2 4.2 14.8 29.4l5.5 32.4L43.9 70 70 54.4z" style="fill:url(#d44cfe20d)"/><path d="M13.4 13.4h43.2v43.2H13.4z" style="fill:#000"/><path d="M17.5 48.5h16.2v2.7H17.5zM17.3 19h7.3c4.3 0 6.9 2.5 6.9 6.2v.1c0 4.2-3.2 6.3-7.3 6.3h-3V37h-3.9zm7.1 9c2 0 3.1-1.2 3.1-2.7v-.1c0-1.8-1.2-2.7-3.2-2.7h-3V28zM32.5 34.4l2.3-2.8c1.6 1.3 3.3 2.2 5.4 2.2 1.6 0 2.6-.6 2.6-1.7V32c0-1-.6-1.5-3.6-2.3-3.6-.9-6-1.9-6-5.5v-.1c0-3.3 2.6-5.4 6.3-5.4 2.6 0 4.9.8 6.7 2.3l-2.1 3c-1.6-1.1-3.2-1.8-4.7-1.8s-2.3.7-2.3 1.6v.1c0 1.2.8 1.6 3.9 2.4 3.6 1 5.7 2.3 5.7 5.4v.1c0 3.6-2.7 5.6-6.6 5.6-2.7-.1-5.4-1.1-7.6-3" style="fill:#fff"/></svg>