<svg xmlns="http://www.w3.org/2000/svg" xml:space="preserve" style="fill-rule:evenodd;clip-rule:evenodd;stroke-linejoin:round;stroke-miterlimit:2" viewBox="0 0 1024 1024"><path d="M925.084 276.37c0-97.864-79.453-177.317-177.316-177.317h-469.2c-97.863 0-177.316 79.453-177.316 177.317v469.215c0 97.864 79.453 177.317 177.316 177.317h469.2c97.863 0 177.316-79.453 177.316-177.317z" style="fill:url(#027c71a6a)"/><path d="M101.252 473.393v272.192c0 97.864 79.453 177.317 177.316 177.317H400.9z" style="fill:url(#027c71a6b)"/><path d="m400.87 99.053 524.214 307.495V276.37c0-97.864-79.453-177.317-177.316-177.317z" style="fill:url(#027c71a6c)"/><path d="M248.77 248.664h528.425v528.425H248.77z" style="fill-rule:nonzero"/><path d="M298.97 678.01h198.16v33.026H298.97zm-2.642-360.651h89.833c52.842 0 84.548 30.385 84.548 75.301 0 50.2-39.632 76.622-88.512 76.622h-36.989v66.053h-48.88zm87.19 112.291c23.053 0 38.311-15.853 38.311-34.348 0-21.137-14.531-33.026-39.632-33.026h-36.989v67.374zm99.08 75.3 29.064-34.347c19.816 15.852 40.953 26.421 66.053 26.421 19.816 0 31.705-7.926 31.705-21.137 0-11.89-7.926-18.495-44.916-27.742-44.916-11.89-72.658-23.78-72.658-67.375v-1.321c0-39.632 31.705-66.053 76.621-66.053a133.1 133.1 0 0 1 81.906 27.743l-25.1 36.989c-19.816-13.21-38.311-21.137-56.806-21.137s-27.742 7.927-27.742 19.816c0 14.532 9.247 19.816 47.558 29.064 44.916 11.889 70.017 27.742 70.017 66.053 0 43.595-33.027 68.695-80.585 68.695a139.64 139.64 0 0 1-95.117-35.669" style="fill:#fff;fill-rule:nonzero"/><defs><linearGradient id="027c71a6a" x1="0" x2="1" y1="0" y2="0" gradientTransform="rotate(38.26 -231.09 307.48)scale(810.52)" gradientUnits="userSpaceOnUse"><stop offset="0" style="stop-color:#ff2d90;stop-opacity:1"/><stop offset="1" style="stop-color:#7256ff;stop-opacity:1"/></linearGradient><linearGradient id="027c71a6b" x1="0" x2="1" y1="0" y2="0" gradientTransform="rotate(-127.725 403.043 364.531)scale(388.53)" gradientUnits="userSpaceOnUse"><stop offset="0" style="stop-color:#d249fc;stop-opacity:1"/><stop offset="1" style="stop-color:#d249fc;stop-opacity:1"/></linearGradient><linearGradient id="027c71a6c" x1="0" x2="1" y1="0" y2="0" gradientTransform="rotate(21.229 -82.69 1333.693)scale(443.846)" gradientUnits="userSpaceOnUse"><stop offset="0" style="stop-color:#ff2d91;stop-opacity:1"/><stop offset="1" style="stop-color:#d548f6;stop-opacity:1"/></linearGradient></defs></svg>