<svg xmlns="http://www.w3.org/2000/svg" xml:space="preserve" style="fill-rule:evenodd;clip-rule:evenodd;stroke-linejoin:round;stroke-miterlimit:2" viewBox="0 0 512 512"><path d="M581 191.18C581 123.747 526.253 69 458.82 69H191.18C123.747 69 69 123.747 69 191.18v267.64C69 526.253 123.747 581 191.18 581h267.64C526.253 581 581 526.253 581 458.82z" style="fill:#004c68" transform="translate(-69 -69)"/><g transform="translate(72.188 72.382)scale(.72782)"><clipPath id="8bcb5592a"><path d="M0 0h507.848v501.818H0z"/></clipPath><g clip-path="url(#8bcb5592a)"><path d="M49.755 437.701q0 8.719-5.173 13.66-5.175 4.94-14.184 4.939H6.45l.061 27.497-6.511.102v-64.641l32.203-.109q8.312 0 12.906 4.938 4.648 4.944 4.65 13.661m-6.57.237q0-13.602-13.021-13.604l-23.716-.1v26.913h22.496q14.242 0 14.241-13.253m53.704 24.697q0 10.35-5.407 16.161-6.046 6.511-17.613 6.511c-3.681 0-6.898-.5-9.649-1.511q-4.068-1.57-7.15-4.883-5.58-6.22-5.581-16.279 0-10.111 5.406-16.041 5.987-6.627 16.974-6.627 11.625 0 17.555 6.451 5.465 5.816 5.465 16.218m-5.639 0q0-18.075-17.38-18.075-7.847 0-12.323 4.822-2.15 2.328-3.313 5.697-1.104 3.315-1.104 7.556 0 8.313 4.3 13.255 4.36 4.885 12.441 4.885 8.951 0 13.311-5.058 2.094-2.27 3.081-5.523.987-3.257.987-7.559m51.115 9.476q0 13.08-19.59 13.079-5.987.001-10.114-.929-4.069-.931-6.626-3.021-1.977-1.57-3.139-4.129-1.161-2.616-1.511-6.453l6.045-.102q0 5.117 3.196 7.56 3.432 2.905 12.149 2.905 13.719.001 13.719-8.197 0-4.765-4.592-6.568c-.621-.274-4.321-.887-11.103-1.86-6.744-1.009-10.948-1.896-12.614-2.674q-5.406-2.557-5.406-9.241 0-6.512 4.825-9.707 2.383-1.334 5.928-2.036c2.403-.498 5.173-.752 8.313-.752q18.834 0 18.833 14.124h-5.755q0-9.939-13.253-9.939c-4.496 0-7.847.686-10.056 2.035q-3.313 1.977-3.313 6.161 0 3.894 4.476 5.579c1.744.623 5.755 1.317 12.033 2.093q8.429.932 11.567 2.559 5.988 2.79 5.988 9.474m26.365 11.899c-.93.194-1.764.327-2.5.409-.697.102-1.201.11-1.51.11-3.953 0-6.803-.684-8.545-2.032q-2.616-2.094-2.616-7.268v-29.357h-7.208v-4.358h7.15l.062-14.01h5.522v14.069l9.649-.104v4.418l-9.649-.102v28.541q0 3.197 1.395 4.417c.97.817 2.675 1.221 5.116 1.221.349 0 .737 0 1.163-.103.427-.102 1.066-.214 1.918-.406l.06 4.417m45.191-1.315c0 12.862-7.227 19.297-21.683 19.297q-11.334 0-16.101-3.72-4.127-3.198-5.058-10.29l5.697-.103q.988 5.173 3.604 7.208 3.488 2.731 11.684 2.732 8.72-.002 12.498-3.953 3.837-3.954 3.837-11.219l-.062-7.558q-5.231 8.197-17.73 8.196-10.404 0-16.101-5.697-2.616-2.789-4.01-6.743-1.337-4.012-1.337-9.127 0-10.23 5.406-15.636c3.799-3.952 9.301-5.932 16.508-5.932q7.383 0 12.033 3.082 1.57 1.16 5.231 5.639l.062-7.324h5.522v41.1m-5.522-21.158q-.001-7.614-4.243-12.147-4.185-4.594-12.324-4.594-8.079.001-12.555 4.535-4.417 4.476-4.417 12.438-.001 17.15 17.38 17.148 3.78 0 6.685-1.164a15.2 15.2 0 0 0 5.174-3.432q4.299-4.47 4.3-12.784m37.677-15.534c-1.667-.308-3.216-.468-4.649-.468q-13.66-.001-13.661 17.846l.061 20.636h-5.522l-.062-42.26 5.522-.103v7.615h.291q1.395-4.475 4.418-6.743 3.313-2.209 9.882-2.208h2.208c.622 0 1.124 0 1.512.103v5.579m45.509 18.024h-39.471c0 4.846 1.337 8.796 4.012 11.86q4.65 5.346 13.312 5.346 12.267.002 15.346-10.985h5.988q-1.337 6.28-6.337 10.579-2.849 2.27-6.687 3.488c-2.519.857-5.271 1.278-8.253 1.278q-11.22 0-17.382-6.74-5.695-6.05-5.696-16.336 0-10.232 5.93-16.16 5.929-5.986 16.681-5.985c3.839 0 7.189.561 10.061 1.686 2.864 1.085 5.271 2.771 7.205 5.058q5.29 6.156 5.291 16.911m-5.815-3.836q-.001-6.104-4.708-10.93-4.65-4.825-12.034-4.825c-2.518 0-4.785.391-6.799 1.164q-3.023 1.103-5.407 3.43-3.661 3.954-4.708 11.161zm78.107 6.713q0 22.763-30.65 22.764c-12.242 0-21.183-2.605-26.813-7.82q-6.911-6.423-6.912-19.55h8.241q0 21.156 25.485 21.156 12.22 0 17.663-4.398 4.607-3.772 4.607-11.939.001-8.096-6.283-11.382-3.56-1.746-17.386-4.397-17.385-3.14-22.552-6.354-7.474-4.678-7.474-15.78 0-10.472 6.354-15.5 6.844-5.586 23.46-5.587 30.026 0 30.025 23.812h-8.308q-.002-17.805-22.272-17.806-11.174 0-16.34 3.561-4.89 3.841-4.89 11.242c0 5.168 2.097 8.818 6.283 10.962 2.234 1.211 8.8 2.888 19.69 5.026q15.36 2.793 20.738 6.424 7.335 4.534 7.334 15.566m81.595 22.554-5.029 5.444-12.147-10.124q-3.843 2.444-9.357 3.7-5.514 1.255-12.917 1.256-18.92 0-29.886-11.24-10.892-11.312-10.893-29.676 0-18.782 10.823-29.814 10.82-11.032 29.815-11.032 9.773.001 17.385 2.933 7.61 2.934 12.986 8.938 10.056 10.893 10.056 28.979-.002 10.122-3.072 17.874-3.074 7.681-9.495 13.057zm-7.053-40.637q-.001-7.96-2.165-14.174-2.165-6.283-6.704-10.963-8.587-9.567-23.6-9.565-14.803-.001-23.811 9.146-8.938 9.147-8.938 25.556-.001 15.781 9.005 25.276 9.077 9.425 23.741 9.426 7.192 0 12.987-2.233 5.795-2.235 10.401-6.635 9.079-9.495 9.078-25.834m69.353 38.821-56.21.103v-77.645l7.752-.141v71.219h48.528l-.071 6.492" style="fill:#fff;fill-rule:nonzero" transform="translate(24.63 35.569)scale(.92912)"/><path d="M201.725 118.753c.993.633 2.119 1.115 3.329 1.282 4.27.596 7.926-2.874 8.157-4.535.232-1.664-3.045-3.496-7.324-4.092-4.273-.595-7.93.271-8.156 1.932h-.001c-.168 1.193 1.477 3.808 3.995 5.413m-2.633-2.716c-.756-1.001-1.201-2.017-1.151-2.613l.008-.054c.155-1.136 2.336-1.93 5.306-1.93.841 0 1.717.063 2.603.187 2.042.284 3.917.859 5.277 1.619 1.28.715 1.957 1.526 1.86 2.224-.183 1.312-3.078 4.415-6.959 4.415-.317 0-.637-.022-.951-.065-1.103-.153-2.129-.583-3.046-1.139-.189-.115-.377-.23-.556-.355a10.8 10.8 0 0 1-2.391-2.289m207.517 97.148c-.697-2.109-3.83-8.816-14.803-6.55-17.378 3.586-27.604 3.23-33.576 1.853 38.525-63.95 58.729-145.898 40.234-169.534C378.817 13.847 349.967.38 315.033.008c-25.787-.268-46.105 6.612-48.51 7.711-8.367-2.104-17.495-3.396-27.442-3.561-16.551-.264-31.02 3.356-43.243 10.758-7.479-2.431-19.209-5.762-32.772-7.886-31.338-4.91-56.135-1.045-73.703 11.479C68.755 33.204 59.238 59.27 61.074 95.987c.614 12.28 8.074 50.686 19.957 88.006 15.405 48.381 31.821 75.782 48.793 81.444a21.2 21.2 0 0 0 6.697 1.108c5.71-.001 12.625-2.423 19.848-10.43.938 5.046 7.96 7.561 15.749 9.868q.237.071.481.115c1.986.361 3.931.748 5.842 1.129 6.694 1.328 13.016 2.584 19.469 2.584h.002c8.232 0 15.452-2.103 22.35-6.604.044 32.635 2.595 60.369 6.761 70.786 1.803 4.507 11.281 24.14 39.312 24.138 4.597 0 9.688-.527 15.329-1.736 28.463-6.102 41.268-18.43 45.673-43.975 2.572-14.906 5.949-42.816 7.42-57.455 3.812.947 8.441 1.385 13.391 1.385 12.022-.002 25.944-2.57 34.678-6.625 15.105-7.019 27.333-25.8 23.783-36.54m-31.017 27.812c-8.978 4.166-21.125 6.119-31.501 6.119-6.434 0-12.185-.751-16.082-2.191-1.773 16.604-5.876 49.81-8.236 63.494-4.253 24.668-14.74 35.337-40.077 40.771-4.231.906-8.075 1.312-11.57 1.312-8.439 0-14.831-2.374-19.711-5.777-5.31-2.709-9.999-7.121-12.815-14.162-.58-1.451-1.149-3.492-1.694-6.047l-.243-.608c-3.893-9.732-5.174-43.568-4.834-76.002-8.881 8.958-20.338 13.653-33.577 13.653-5.103 0-10.475-.697-15.967-2.072-2.618-.652-6.078-1.926-8.99-3.778-.471-.246-.631-.426-1.078-.735-2.718-1.978-4.729-4.522-4.665-7.625.138-6.623 8.939-9.199 15.545-10.562 16.048-3.304 17.225-4.797 22.175-11.082a152 152 0 0 1 3.833-4.72 24 24 0 0 1-.14-2.021c-7.488-.016-14.827-1.993-21.426-5.698-3.659 3.879-15.68 16.777-28.598 32.318-4.612 5.544-9.084 8.543-13.163 9.977-5.003 2.787-8.549 1.608-10.03 1.114a18 18 0 0 1-2.631-1.149C94.513 242.804 69.731 120.396 68.6 97.762c-1.724-34.46 7.115-58.814 26.27-72.385 15.858-11.236 39.094-14.782 67.196-10.255 17.194 2.769 31.122 7.669 35.889 9.471 12.034-8.37 26.626-12.486 43.578-12.194 9.105.149 17.471 1.314 25.148 3.214v-.391c.764.137 1.526.273 2.275.422 4.797-1.726 21.521-6.622 42.393-6.622 5.808 0 12.209.399 18.907 1.47 20.947 2.887 43.562 11.958 60.935 34.155 2.333 2.982 3.832 7.765 4.508 13.977 2.454 13.339.646 32.889-5.422 56.391-8.524 33.008-24.312 68.384-43.516 97.673 0 0-.284.491-.579.949 3.337 2.815 13.638 6.032 38.018.999 7.719-1.595 12.317-.322 13.674 3.777 2.573 7.783-11.916 17.769-22.282 22.584m-40.739-28.02c-5.526 1.64-14.875 5.533-13.967 23.462-.055.69-.133 1.576-.229 2.598-.002.028-.008.062-.012.09q-.066.703-.146 1.5l-.005.052c-1.476 14.663-6.001 51.769-8.524 66.393-3.671 21.302-11.918 29.654-33.935 34.376-23.346 5.002-31.586-6.892-37.023-20.482-3.44-8.602-5.14-47.028-3.955-89.385a4 4 0 0 0-.229-1.409 20 20 0 0 0-.577-2.847c-1.641-5.732-5.774-10.711-10.532-12.684-1.525-.632-3.833-1.587-6.6-1.587-1.647 0-3.233.341-4.776.993.85-4.508 2.771-9.676 4.888-15.351l.759-2.038c.867-2.33 1.944-4.723 3.085-7.258 6.054-13.449 14.344-31.868 5.328-73.56-2.224-10.28-8.001-16.97-16.688-19.665-.285-.088-.579-.165-.87-.245a32 32 0 0 0-2.271-.529 32 32 0 0 0-1.837-.287c-.166-.021-.325-.052-.491-.07a35 35 0 0 0-2.409-.178c-.267-.012-.54-.014-.81-.021a41 41 0 0 0-1.894.003c-.269.007-.538.011-.81.023-.894.04-1.799.097-2.728.194-10.157 1.052-19.469 5.161-24.116 7.516a71 71 0 0 0-4.605 2.541 160 160 0 0 1 .217-2.784l.004-.045c.085-.985.186-2.022.301-3.1l.003-.023c1.783-16.606 7.376-43.526 24.831-61.155 11.942-12.061 27.818-17.992 47.173-17.698 61.703 1.011 89.154 51.423 96.123 70.537l.017.042q.285.783.526 1.496l.014.053c.162.478.31.935.44 1.359a105 105 0 0 0-3.407-.342c-.392-.034-.771-.054-1.157-.082a88 88 0 0 0-2.101-.137c-.468-.024-.924-.035-1.383-.05a68 68 0 0 0-1.729-.046c-.498-.007-.984-.003-1.471 0a61 61 0 0 0-3.013.085 58 58 0 0 0-2.852.213q-.54.055-1.071.121a52 52 0 0 0-1.624.216c-.279.043-.546.093-.818.139-.584.101-1.167.204-1.729.324-.145.03-.282.066-.423.099-4.479 1.006-8.262 2.634-11.32 4.896a24 24 0 0 0-1.517 1.227c-.477.417-.928.851-1.362 1.304a21.4 21.4 0 0 0-2.121 2.547c-13.833 19.775 7.963 58.86 18.438 77.644 1.959 3.512 3.649 6.544 4.2 7.883 3.388 8.207 7.791 13.711 11.01 17.731 1.48 1.852 2.815 3.521 3.586 4.889-.222.062-.437.123-.632.18-.363.102-.759.213-1.171.335zm50.948 9.414c1.532-.316 2.666-.455 3.493-.502-2.257 2.865-8.231 7.839-17.037 11.926-11.057 5.132-32.684 7.119-41.322 3.796-1.795-.691-2.128-1.302-2.131-1.302-.752-13.204 4.619-14.712 9.359-16.043.695-.195 1.657-.465 2.645-.886.535.477 1.151.954 1.855 1.419 8.042 5.306 22.555 5.842 43.138 1.592m-173.989-26.465.754-2.026c.96-2.582 2.089-5.093 3.288-7.752 5.914-13.139 13.274-29.492 4.809-68.636-1.764-8.152-6.104-12.824-13.275-14.281a25 25 0 0 0-2.462-.361l-.026-.003c-14.639-1.463-32.968 8.82-36.305 12.177.033.926.109 2.195.197 3.688.519 8.739 1.483 25.003-1.125 43.655-1.922 13.74 2.278 27.153 11.523 36.8 6.648 6.937 15.215 11.038 24.154 11.743l.021.001a36 36 0 0 0 3.506.105c1.062-4.708 2.926-9.705 4.941-15.11m-10.397-77.114a11.7 11.7 0 0 1-2.673-2.511c-.871-1.155-1.331-2.273-1.229-2.993l.041-.188c.36-1.294 2.557-2.119 5.702-2.119.489 0 .99.026 1.497.067.386.031.774.069 1.166.123l.09.016h-.001c2.061.296 3.955.88 5.341 1.655 1.467.82 2.206 1.768 2.081 2.668-.234 1.683-3.439 4.793-7.393 4.793q-.509 0-1.012-.07c-1.412-.196-2.612-.771-3.594-1.431zm136.263-1.409c.791-5.128 1.534-10.025 1.534-15.533-13.524-1.81-23.312-.744-29.259 3.148-.114.074-.232.146-.344.223-.247.17-.481.349-.717.529q-.276.212-.536.434a13 13 0 0 0-1.168 1.11c-.126.134-.258.265-.379.402-.316.365-.62.742-.896 1.138-10.992 15.711 9.929 53.228 18.861 69.249 2.252 4.035 3.878 6.951 4.605 8.72a52 52 0 0 0 3.802 7.436c7.286-13.8 5.647-27.716 4.026-41.215-.789-6.544-1.531-12.727-1.33-18.907.206-6.37 1.018-11.639 1.801-16.734m-18.182-.581c-3.826 0-7.062-3.09-7.29-4.698-.144-1.07 1.02-2.174 2.941-3.013q.181-.078.368-.153c1.163-.464 2.565-.834 4.111-1.05.9-.125 1.792-.188 2.65-.188 3.233 0 5.445.868 5.635 2.213.148 1.082-1.068 3.158-2.999 4.75q-.208.17-.424.33c-1.154.862-2.523 1.537-3.995 1.741a7 7 0 0 1-.997.068m-146.668 97.419a749 749 0 0 0-6.911 7.647 711 711 0 0 0-16.065 18.631c-8.635 10.382-14.809 8.32-16.836 7.645-29.792-9.936-55.355-127.701-56.51-150.797-1.578-31.569 6.135-53.613 22.927-65.519 25.784-18.282 67.093-8.92 86.517-2.945l.369.114a162 162 0 0 1 2.315.733c.728.235 1.428.465 2.067.681a66 66 0 0 0-2.098 2.013 74.6 74.6 0 0 0-7.232 8.528c-.442.605-.859 1.223-1.282 1.838-.252.367-.514.73-.759 1.1-.396.595-.772 1.197-1.15 1.799-.251.401-.509.8-.753 1.204a87 87 0 0 0-1.059 1.81c-.236.413-.477.826-.708 1.242q-.503.912-.984 1.834a89 89 0 0 0-2.161 4.378q-.44.942-.857 1.889-.268.617-.528 1.232c-.274.646-.546 1.293-.807 1.939-.154.385-.3.77-.451 1.155-.261.674-.524 1.349-.772 2.023-.119.326-.23.651-.347.977-.261.732-.524 1.465-.769 2.195l-.084.258a129 129 0 0 0-2.391 8.077c-.065.249-.137.5-.199.748-.177.692-.341 1.376-.506 2.062-.078.33-.16.662-.237.991-.151.648-.291 1.29-.43 1.93q-.118.53-.228 1.056-.195.93-.374 1.846-.106.537-.207 1.069-.17.895-.326 1.776l-.182 1.053q-.147.868-.284 1.719-.079.506-.154 1.004c-.085.564-.169 1.125-.247 1.675-.045.316-.086.625-.127.938-.073.548-.148 1.097-.213 1.629-.035.283-.065.555-.097.833-.065.547-.13 1.098-.188 1.627-.013.117-.022.228-.035.344a155 155 0 0 0-.354 3.767l-.022.258c-.035.453-.065.88-.096 1.312-.019.251-.039.512-.055.757-.026.384-.046.747-.068 1.112-.017.266-.033.538-.046.792-.019.339-.033.66-.048.979-.012.254-.025.51-.034.752q-.018.442-.032.856l-.024.69-.019.73q-.009.332-.013.636l-.011.584-.005.566c0 .157-.003.317-.003.458v.48a32 32 0 0 0 .005.719l.001.166.008.324c0 1.143.095 2.781.229 5.037.501 8.464 1.435 24.217-1.064 42.09a56 56 0 0 0-.308 2.751c-.032.348-.051.693-.075 1.041a54 54 0 0 0-.094 1.65q-.027.67-.035 1.34-.008.624-.002 1.247c.004.532.01 1.063.029 1.592.009.229.026.456.037.684a53.4 53.4 0 0 0 1.217 8.963l.006.032c2.03 9.006 6.396 17.316 12.875 24.076a49 49 0 0 0 4.444 4.079l-.66.707-.341.364-.544.585c-.211.226-.418.451-.645.696l-.348.373-1.003 1.084c-.061.067-.125.138-.188.204l-1.288 1.4q-.036.046-.073.086M289.84 18.715l.059-.011c6.117-.998 13.416-1.764 21.45-1.764 31.045 0 55.531 11.17 72.771 33.2 6.729 8.599 6.138 33.287-1.51 62.895-7.487 28.992-20.727 59.864-36.964 86.595l-.171.281a285 285 0 0 1-3.713 5.954 101 101 0 0 0-2.512-3.238c-.325-.406-.664-.828-1.004-1.256 10.682-17.107 8.635-34.168 6.82-49.272-.75-6.237-1.459-12.128-1.278-17.708.188-5.893.964-10.92 1.714-15.783.959-6.229 1.853-12.143 1.572-19.363.186-.669.271-1.475.179-2.463-.645-6.839-8.503-27.362-24.539-46.03-9.166-10.669-22.722-22.666-41.41-30.359.795-.184 1.635-.369 2.508-.553l.145-.031q1.319-.276 2.747-.544l.116-.022q1.458-.272 3.02-.528m-61.202 210.786c.473 1.653.996 4.804-.813 7.339a49 49 0 0 1-1.654 2.173c-.094.117-.193.228-.289.344q-.735.899-1.5 1.741l-.182.194a42 42 0 0 1-1.725 1.763l-.051.047a39 39 0 0 1-1.914 1.722l-.012.011v-.001c-6.937 5.842-15.387 8.807-25.25 8.807-4.197 0-8.639-.566-13.207-1.648-.281-.066-.556-.114-.838-.185-4.007-1.002-7.375-2.967-8.464-4.168.803-.609 3.077-1.887 8.953-3.099 18.077-3.722 20.653-6.136 26.798-13.938 1.434-1.82 3.058-3.883 5.318-6.406 2.881-3.225 4.71-3.225 5.312-3.225 1.104 0 2.223.426 3.569.985 2.531 1.047 4.978 4.15 5.949 7.544" style="fill:#fff;fill-rule:nonzero" transform="translate(-11.629)scale(1.07515)"/></g></g></svg>