<svg xmlns="http://www.w3.org/2000/svg" xml:space="preserve" style="fill-rule:evenodd;clip-rule:evenodd;stroke-linejoin:round;stroke-miterlimit:2" viewBox="0 0 256 296"><path d="m128 0 128 73.9v147.8l-128 73.9L0 221.7V73.9L128 0Z" style="fill:#673ab8;fill-rule:nonzero"/><path d="M34.865 220.478c17.016 21.781 71.095 5.185 122.15-34.704 51.055-39.888 80.241-88.345 63.224-110.126-17.017-21.78-71.095-5.184-122.15 34.704-51.055 39.889-80.241 88.346-63.224 110.126Zm7.269-5.679c-5.643-7.223-3.177-21.403 7.574-39.254 11.322-18.797 30.541-39.548 54.06-57.923 23.52-18.375 48.303-32.004 69.281-38.442 19.922-6.113 34.277-5.075 39.92 2.148 5.644 7.223 3.178 21.403-7.573 39.254-11.322 18.797-30.541 39.547-54.061 57.923-23.519 18.375-48.303 32.004-69.28 38.441-19.922 6.114-34.277 5.076-39.921-2.147Z" style="fill:#fff;fill-rule:nonzero"/><path d="M220.239 220.478c17.017-21.78-12.169-70.237-63.224-110.126C105.96 70.464 51.881 53.868 34.865 75.648c-17.017 21.781 12.169 70.238 63.224 110.126 51.055 39.889 105.133 56.485 122.15 34.704Zm-7.27-5.679c-5.643 7.223-19.998 8.261-39.92 2.147-20.978-6.437-45.761-20.066-69.281-38.441-23.519-18.376-42.738-39.126-54.06-57.923-10.751-17.851-13.217-32.031-7.574-39.254 5.644-7.223 19.999-8.261 39.921-2.148 20.977 6.438 45.761 20.067 69.28 38.442 23.52 18.375 42.739 39.126 54.061 57.923 10.751 17.851 13.217 32.031 7.573 39.254Z" style="fill:#fff;fill-rule:nonzero"/><path d="M127.552 167.667c10.827 0 19.603-8.777 19.603-19.604 0-10.826-8.776-19.603-19.603-19.603-10.827 0-19.604 8.777-19.604 19.603 0 10.827 8.777 19.604 19.604 19.604Z" style="fill:#fff;fill-rule:nonzero"/></svg>