<svg xmlns="http://www.w3.org/2000/svg" xml:space="preserve" style="fill-rule:evenodd;clip-rule:evenodd;stroke-linejoin:round;stroke-miterlimit:2" viewBox="0 0 512 512"><path d="M512 122.18C512 54.747 457.253 0 389.82 0H122.18C54.747 0 0 54.747 0 122.18v267.64C0 457.253 54.747 512 122.18 512h267.64C457.253 512 512 457.253 512 389.82z" style="fill:#663ab8"/><path d="M67.392 400.829v30.937h-5.536v-76.8h19.812q13.513 0 20.379 5.917 6.867 5.914 6.867 16.878 0 5.049-1.873 9.282a20.6 20.6 0 0 1-5.403 7.301q-3.526 3.065-8.572 4.776-5.049 1.71-11.398 1.709zm0-4.45h14.276q5.102 0 9.115-1.411 4.02-1.412 6.814-3.908a17 17 0 0 0 4.286-5.89q1.495-3.392 1.495-7.409 0-8.845-5.455-13.621-5.455-4.777-16.255-4.777H67.392zm64.426.651v34.736h-5.536v-76.8h19.591q13.3 0 19.865 5.129 6.569 5.13 6.569 15.061 0 4.398-1.52 8.032a18.8 18.8 0 0 1-4.37 6.38q-2.85 2.739-6.866 4.503-4.017 1.765-9.063 2.308 1.303.812 2.333 2.171l26.433 33.216h-4.832q-.868 0-1.492-.326-.623-.326-1.222-1.085l-24.585-31.154q-.924-1.194-1.981-1.684-1.058-.487-3.285-.487zm0-4.125h13.351q5.102 0 9.143-1.222 4.045-1.222 6.839-3.501 2.797-2.28 4.261-5.48 1.467-3.204 1.467-7.221 0-8.193-5.374-12.157-5.372-3.96-15.632-3.961h-14.055zm107.355-37.939v4.615h-40.436v31.045h33.65v4.503h-33.65v32.025h40.436v4.612h-46.025v-76.8zm75.929 76.8h-4.286q-.76 0-1.25-.407a2.7 2.7 0 0 1-.76-1.057l-9.062-22.309h-37.723l-9.009 22.309q-.217.595-.76 1.03-.543.434-1.303.434h-4.233l31.426-76.8h5.536zm-51.397-27.897h34.41l-15.687-38.808a30 30 0 0 1-.759-2.088 88 88 0 0 1-.76-2.471 79 79 0 0 1-.76 2.471 39 39 0 0 1-.76 2.144zm117.72 14.979q.543 0 .925.379l2.171 2.335a36 36 0 0 1-5.211 4.587 32.6 32.6 0 0 1-6.162 3.474q-3.337 1.435-7.326 2.223-3.991.789-8.764.788-7.98 0-14.63-2.794t-11.397-7.924q-4.749-5.13-7.407-12.403-2.661-7.273-2.661-16.174 0-8.74 2.742-15.956 2.742-7.22 7.707-12.403 4.965-5.182 11.885-8.033 6.922-2.85 15.277-2.85 4.181 0 7.654.627 3.474.623 6.486 1.789a30.4 30.4 0 0 1 5.672 2.903 44 44 0 0 1 5.21 4.016l-1.684 2.444q-.43.652-1.355.652-.487 0-1.247-.571-.759-.57-1.929-1.411a43 43 0 0 0-2.822-1.845q-1.656-1.005-3.933-1.846-2.282-.84-5.266-1.411-2.986-.57-6.786-.571-7 0-12.861 2.416t-10.095 6.895q-4.234 4.475-6.594 10.855-2.36 6.377-2.36 14.3 0 8.142 2.332 14.546 2.335 6.405 6.457 10.827a28 28 0 0 0 9.745 6.786q5.616 2.36 12.185 2.36 4.122 0 7.354-.543 3.228-.543 5.942-1.628a27 27 0 0 0 5.049-2.661 38 38 0 0 0 4.612-3.691q.273-.216.515-.35a1.15 1.15 0 0 1 .57-.137m70.719-63.882v4.723h-26.973v72.077h-5.536v-72.077h-27.138v-4.723zm-314.52-56.067c21.81 27.918 91.126 6.646 156.566-44.482s102.849-113.237 81.038-141.155c-21.812-27.916-91.127-6.644-156.567 44.483s-102.849 113.237-81.037 141.154m9.317-7.279c-7.233-9.258-4.072-27.433 9.708-50.314 14.512-24.093 39.146-50.691 69.292-74.243 30.145-23.552 61.912-41.021 88.801-49.273 25.535-7.836 43.934-6.505 51.167 2.753s4.074 27.433-9.706 50.314c-14.512 24.093-39.146 50.689-69.293 74.243-30.146 23.552-61.913 41.021-88.8 49.272-25.535 7.837-43.935 6.506-51.169-2.752" style="fill:#fff;fill-rule:nonzero"/><path d="M375.228 298.899c21.811-27.917-15.598-90.027-81.038-141.154s-134.756-72.399-156.566-44.483 15.597 90.028 81.037 141.155 134.755 72.4 156.567 44.482m-9.319-7.279c-7.233 9.258-25.632 10.589-51.167 2.752-26.889-8.251-58.655-25.72-88.801-49.272-30.146-23.554-54.78-50.15-69.292-74.243-13.78-22.881-16.941-41.056-9.708-50.314s25.634-10.589 51.169-2.753c26.887 8.252 58.654 25.721 88.8 49.273 30.147 23.552 54.781 50.15 69.293 74.243 13.78 22.881 16.941 41.056 9.706 50.314" style="fill:#fff;fill-rule:nonzero"/><path d="M256.426 231.208c13.877 0 25.126-11.25 25.126-25.127 0-13.878-11.249-25.126-25.126-25.126s-25.128 11.249-25.128 25.126c0 13.876 11.25 25.127 25.128 25.127" style="fill:#fff;fill-rule:nonzero"/></svg>