<svg xmlns="http://www.w3.org/2000/svg" xml:space="preserve" style="fill-rule:evenodd;clip-rule:evenodd;stroke-linejoin:round;stroke-miterlimit:2" viewBox="0 0 512 513"><path d="M581 191.18C581 123.747 526.253 69 458.82 69H191.18C123.747 69 69 123.747 69 191.18v267.64C69 526.253 123.747 581 191.18 581h267.64C526.253 581 581 526.253 581 458.82z" style="fill:#22394d" transform="matrix(1 0 0 1 -69.001 -68.501)"/><path d="M184.613 61.929c0-14.562-4.152-22.038-12.456-22.447a23.4 23.4 0 0 0-9.669 1.589c-2.505.896-4.192 1.783-5.079 2.68v34.758c5.312 3.334 10.03 4.883 14.143 4.64 8.704-.575 13.061-7.642 13.061-21.22m10.245.605c0 7.398-1.735 13.538-5.225 18.422-3.889 5.526-9.279 8.372-16.17 8.528-5.195.166-10.547-1.462-16.054-4.873v31.59l-8.909-3.177V42.903c1.463-1.793 3.344-3.333 5.625-4.64 5.302-3.089 11.745-4.678 19.328-4.756l.127.127c6.93-.088 12.271 2.758 16.024 8.528 3.499 5.293 5.254 12.077 5.254 20.372M249.305 83.266q0 14.883-2.983 20.615c-1.998 3.821-5.799 6.872-11.414 9.143-4.551 1.793-9.474 2.768-14.757 2.933l-1.471-5.614q8.055-1.097 11.345-2.193c4.318-1.462 7.281-3.704 8.909-6.706 1.306-2.446 1.949-7.115 1.949-14.026v-2.32c-6.092 2.768-12.476 4.143-19.153 4.143-4.386 0-8.255-1.375-11.589-4.143q-5.614-4.518-5.614-11.462V36.558l8.909-3.051v37.321q0 5.98 3.859 9.211c2.574 2.155 5.907 3.188 9.991 3.11 4.084-.088 8.461-1.667 13.11-4.757v-43.54h8.909zM284.082 88.997a36 36 0 0 1-2.933.127c-5.04 0-8.968-1.199-11.775-3.607-2.797-2.407-4.201-5.731-4.201-9.971V40.457h-6.102v-5.605h6.102V19.968l8.899-3.168v18.052h10.01v5.605h-10.01v34.845c0 3.344.897 5.712 2.69 7.096 1.54 1.141 3.987 1.794 7.32 1.959zM338.023 88.266h-8.909V53.878c0-3.499-.819-6.511-2.446-9.026-1.882-2.846-4.494-4.269-7.847-4.269q-6.126 0-15.322 6.463v41.22h-8.909V6.069l8.909-2.807V40.7c5.692-4.142 11.911-6.218 18.665-6.218 4.718 0 8.539 1.588 11.463 4.756 2.934 3.168 4.396 7.116 4.396 11.833zM385.374 60.526c0-5.595-1.062-10.215-3.177-13.87-2.515-4.455-6.424-6.804-11.707-7.047-9.766.565-14.64 7.563-14.64 20.975 0 6.151 1.014 11.287 3.061 15.41 2.612 5.254 6.53 7.847 11.755 7.759 9.805-.078 14.708-7.817 14.708-23.227m9.757.058c0 7.964-2.037 14.592-6.102 19.884-4.473 5.927-10.653 8.899-18.539 8.899-7.817 0-13.909-2.972-18.305-8.899q-5.977-7.938-5.975-19.884c0-7.485 2.155-13.782 6.463-18.909 4.552-5.439 10.536-8.168 17.934-8.168s13.422 2.729 18.062 8.168c4.308 5.127 6.462 11.424 6.462 18.909M446.206 88.266h-8.909V51.929c0-3.987-1.199-7.096-3.597-9.338-2.397-2.232-5.595-3.314-9.581-3.226-4.23.078-8.256 1.462-12.077 4.142v44.759h-8.909v-45.86q7.69-5.6 14.153-7.31c4.065-1.063 7.652-1.589 10.742-1.589 2.115 0 4.103.205 5.974.614 3.5.809 6.346 2.31 8.539 4.513 2.446 2.437 3.665 5.361 3.665 8.782z" style="fill:#fff;fill-rule:nonzero" transform="matrix(1 0 0 1 -41.355 327.77)"/><path d="M60.51 6.398c-4.583.021-8.961.412-12.812 1.094-11.347 2.004-13.407 6.2-13.407 13.937v10.219h26.813v3.406H24.229c-7.793 0-14.616 4.684-16.75 13.594-2.462 10.213-2.571 16.586 0 27.25 1.906 7.938 6.457 13.594 14.25 13.594h9.219v-12.25c0-8.85 7.657-16.657 16.75-16.657h26.781c7.455 0 13.406-6.138 13.406-13.625V21.429c0-7.266-6.13-12.725-13.406-13.937-4.606-.767-9.385-1.115-13.969-1.094m-14.5 8.219c2.77 0 5.031 2.298 5.031 5.125 0 2.816-2.261 5.093-5.031 5.093-2.779 0-5.031-2.277-5.031-5.093 0-2.827 2.252-5.125 5.031-5.125" style="fill:url(#c33b9204a);fill-rule:nonzero" transform="matrix(2.09324 0 0 2.09324 127.953 52.255)"/><path d="M91.229 35.054V46.96c0 9.231-7.826 17-16.75 17H47.698c-7.336 0-13.407 6.279-13.407 13.625v25.532c0 7.266 6.319 11.54 13.407 13.625 8.487 2.495 16.626 2.946 26.781 0 6.75-1.955 13.406-5.888 13.406-13.625V92.898H61.104v-3.406h40.187c7.793 0 10.697-5.436 13.407-13.594 2.799-8.399 2.68-16.476 0-27.25-1.926-7.757-5.604-13.594-13.407-13.594zM76.166 99.71c2.78 0 5.032 2.278 5.032 5.094 0 2.827-2.252 5.125-5.032 5.125-2.769 0-5.031-2.298-5.031-5.125 0-2.816 2.262-5.094 5.031-5.094" style="fill:url(#c33b9204b);fill-rule:nonzero" transform="matrix(2.09324 0 0 2.09324 127.953 52.255)"/><defs><linearGradient id="c33b9204a" x1="0" x2="1" y1="0" y2="0" gradientTransform="scale(81.2332)rotate(40.98 -.071 .131)" gradientUnits="userSpaceOnUse"><stop offset="0" style="stop-color:#5a9fd4;stop-opacity:1"/><stop offset="1" style="stop-color:#306998;stop-opacity:1"/></linearGradient><linearGradient id="c33b9204b" x1="0" x2="1" y1="0" y2="0" gradientTransform="scale(-38.1867)rotate(55.006 1.625 -3.26)" gradientUnits="userSpaceOnUse"><stop offset="0" style="stop-color:#ffd43b;stop-opacity:1"/><stop offset="1" style="stop-color:#ffe873;stop-opacity:1"/></linearGradient></defs></svg>