<svg xmlns="http://www.w3.org/2000/svg" xml:space="preserve" style="fill-rule:evenodd;clip-rule:evenodd;stroke-linejoin:round;stroke-miterlimit:2" viewBox="0 0 512 512"><path d="M512 122.18C512 54.747 457.253 0 389.82 0H122.18C54.747 0 0 54.747 0 122.18v267.64C0 457.253 54.747 512 122.18 512h267.64C457.253 512 512 457.253 512 389.82z" style="fill:#242730"/><circle cx="256" cy="255" r="29.649" style="fill:#61dafb"/><path d="M368.615 206.105c-5.722-2.081-11.704-4.161-17.946-5.982a261 261 0 0 0 3.901-18.465c5.462-34.331-.52-58.518-17.165-67.881-4.942-2.861-10.403-4.162-16.645-4.162-18.206 0-41.353 13.525-64.76 36.151-23.407-22.626-46.554-36.151-64.76-36.151-6.242 0-11.703 1.301-16.645 4.162-16.645 9.623-22.627 33.81-17.165 67.881a261 261 0 0 0 3.901 18.465c-6.242 1.821-12.224 3.641-17.946 5.982C110.875 218.589 93.19 235.754 93.19 255s17.946 36.411 50.195 48.895c5.722 2.081 11.704 4.161 17.946 5.982a261 261 0 0 0-3.901 18.465c-5.462 34.331.52 58.518 17.165 67.881 4.942 2.861 10.403 4.162 16.645 4.162 18.466 0 41.613-13.525 64.76-36.151 23.407 22.626 46.554 36.151 64.76 36.151 6.242 0 11.703-1.301 16.645-4.162 16.645-9.623 22.627-33.81 17.165-67.881a261 261 0 0 0-3.901-18.465c6.242-1.821 12.224-3.641 17.946-5.982 32.51-12.484 50.195-29.649 50.195-48.895s-17.685-36.411-50.195-48.895m-38.492-79.324c10.663 6.242 14.304 25.487 9.883 52.796-.78 5.462-2.081 11.183-3.641 17.165-13.525-3.121-27.829-5.201-42.914-6.502-8.842-12.484-17.945-23.667-27.048-33.81 19.246-18.986 38.752-31.99 54.617-31.99 3.381 0 6.502.78 9.103 2.341m-29.129 154.227c-4.682 8.323-10.143 16.645-15.865 24.968-9.623.78-19.246 1.04-29.129 1.04-10.143 0-19.766-.26-29.129-1.04q-8.583-12.484-15.605-24.968A419 419 0 0 1 197.482 255a419 419 0 0 1 13.784-26.008c4.682-8.323 10.143-16.645 15.865-24.968 9.623-.78 19.246-1.04 29.129-1.04 10.143 0 19.766.26 29.129 1.04q8.582 12.484 15.605 24.968A419 419 0 0 1 314.778 255c-4.421 8.583-8.843 17.165-13.784 26.008m21.586-8.583c3.902 9.103 7.023 17.946 9.883 26.789-8.842 2.08-18.205 3.641-28.088 4.941 3.121-4.941 6.502-10.143 9.363-15.605 3.121-5.461 5.982-10.923 8.842-16.125M256 342.907c-6.242-6.762-12.224-14.044-17.946-21.587 5.982.26 11.964.52 17.946.52s11.964-.26 17.946-.52c-5.722 7.543-11.704 14.825-17.946 21.587m-48.375-39.012c-9.883-1.3-19.246-2.861-28.088-4.942 2.86-8.582 5.981-17.685 9.883-26.788 2.86 5.202 5.721 10.664 8.842 15.865 3.121 5.722 6.242 10.663 9.363 15.865m-18.205-66.32c-3.902-9.103-7.023-17.946-9.883-26.789 8.842-2.08 18.205-3.641 28.088-4.941-3.121 4.941-6.502 10.143-9.363 15.605-3.121 5.461-5.982 10.923-8.842 16.125M256 167.093c6.242 6.762 12.224 14.044 17.946 21.587-5.982-.26-11.964-.52-17.946-.52s-11.964.26-17.946.52c5.722-7.543 11.704-14.825 17.946-21.587m57.738 54.617-9.363-15.605c9.883 1.3 19.246 2.861 28.088 4.942-2.86 8.582-5.981 17.685-9.883 26.788-2.86-5.462-5.721-10.924-8.842-16.125m-141.744-42.133c-4.421-27.309-.78-46.554 9.883-52.796 2.601-1.561 5.722-2.341 9.103-2.341 15.605 0 35.111 12.744 54.617 31.99-9.103 9.883-18.206 21.326-27.048 33.81-15.085 1.301-29.389 3.641-42.914 6.502-1.56-5.982-2.6-11.703-3.641-17.165M107.755 255c0-12.224 14.824-25.228 40.832-34.851 5.202-2.08 10.923-3.901 16.645-5.461a379 379 0 0 0 15.605 40.572c-6.242 13.784-11.704 27.308-15.605 40.312-35.891-10.403-57.477-26.008-57.477-40.572m74.122 128.219c-10.663-6.242-14.304-25.487-9.883-52.796.78-5.462 2.081-11.183 3.641-17.165 13.525 3.121 27.829 5.201 42.914 6.502 8.842 12.484 17.945 23.667 27.048 33.81-19.246 18.986-38.752 31.99-54.617 31.99-3.381 0-6.502-.78-9.103-2.341m158.129-52.796c4.421 27.309.78 46.554-9.883 52.796-2.601 1.561-5.722 2.341-9.103 2.341-15.605 0-35.111-12.744-54.617-31.99 9.103-9.883 18.206-21.326 27.048-33.81 15.085-1.301 29.389-3.641 42.914-6.502 1.56 5.982 2.6 11.703 3.641 17.165m23.407-40.572c-5.202 2.08-10.923 3.901-16.645 5.461a379 379 0 0 0-15.605-40.572c6.242-13.784 11.704-27.308 15.605-40.312 35.891 10.403 57.477 26.008 57.477 40.572 0 12.224-15.084 25.228-40.832 34.851" style="fill:#61dafb;fill-rule:nonzero"/></svg>