<svg xmlns="http://www.w3.org/2000/svg" xml:space="preserve" style="fill-rule:evenodd;clip-rule:evenodd;stroke-linejoin:round;stroke-miterlimit:2" viewBox="0 0 512 512"><path d="M512 122.18C512 54.747 457.253 0 389.82 0H122.18C54.747 0 0 54.747 0 122.18v267.64C0 457.253 54.747 512 122.18 512h267.64C457.253 512 512 457.253 512 389.82z" style="fill:#ff4438"/><path d="M404.194 257.403c0-13.322 9.868-21.052 22.203-21.052 9.21 0 17.433 4.441 21.38 15.46-1.151 5.592-8.058 11.841-11.018 12.828-2.467-5.262-5.264-8.388-7.895-8.388-3.289 0-3.454 2.303-3.454 5.263 0 2.097.601 5.185 1.323 8.901 1.091 5.612 2.46 12.657 2.46 19.881 0 13.156-9.21 22.86-23.354 22.86-12.951 0-20.108-8.49-23.301-22.054-8.46 15.161-20.832 22.054-30.314 22.054-14.824 0-18.312-10.957-17.961-22.07-5.956 10.526-17.422 22.07-28.417 22.07-11.225 0-15.19-9.77-14.281-21.148-6.725 12.527-18.89 21.148-30.618 21.148-12.726 0-19.025-10.11-16.987-22.641-8.561 10.523-24.499 22.641-41.069 22.641-18.892 0-27.116-10.188-28.09-22.954-9.119 14.615-21.41 23.447-36.05 23.447-21.134 0-28.693-18.793-29.793-34.165-7.832 10.488-16.638 21.37-27.44 33.507-1.152 1.152-2.138 1.809-3.29 1.809-3.782 0-11.512-16.775-12.005-23.025 3.245-5.036 23.706-27.516 40.179-45.615 5.791-6.362 11.089-12.182 14.972-16.514-10.088 3.044-20.49 9.116-33.607 18.547-2.302 1.645-8.716-13.322-8.552-24.834 15.131-11.184 38.156-18.256 56.74-18.256 25.985 0 40.951 14.473 40.951 34.538 0 16.775-13.979 35.195-34.372 35.853-10.605.275-17.401-5.677-20.876-13.028.415 11.368 6.326 25.362 22.191 25.362 17.296 0 25.602-10.44 37.989-26.011q1.206-1.518 2.469-3.099c10.526-12.992 22.696-24.505 40.458-24.505 10.855 0 18.256 6.743 18.256 16.94 0 12.335-14.473 29.439-34.702 29.439-3.455 0-6.605-.455-9.263-1.355a12 12 0 0 0-.112 1.52c0 5.756 2.138 9.209 11.513 9.209 13.815 0 26.807-8.223 42.596-27.465 15.46-18.913 27.136-27.136 39.471-27.136 8.327 0 14.646 4.512 17.431 12.112 16.531-23.875 30.555-40.792 42.434-52.077 11.677 4.934 20.064 14.637 17.762 16.611-8.717 7.894-37.827 39.636-49.339 58.549-2.961 4.934-5.756 10.361-5.756 12.992 0 2.467 1.48 3.29 3.124 3.29 7.903 0 23.739-18.656 37.416-34.768 5.109-6.019 9.916-11.683 13.897-15.887 9.21 3.783 18.584 11.841 16.282 14.637-12.17 14.473-21.38 26.315-21.38 33.057 0 1.809.657 2.961 3.124 2.961 4.606 0 8.881-4.112 15.953-12.829 1.48-1.809 3.289-1.809 4.441.988 3.125 7.565 7.73 11.676 11.348 11.676 4.276 0 6.414-3.782 6.414-9.538 0-3.934-.48-8.508-.893-12.446-.313-2.977-.588-5.591-.588-7.29m-265.279-2.138c8.717 0 18.256-4.77 18.256-14.473 0-5.889-3.655-11.318-13.422-12.971l-1.536 2.401c-4.962 7.759-9.643 15.077-14.367 22.23 2.831 1.589 6.41 2.813 11.069 2.813m88.153 2.96c0-2.631-1.645-4.44-4.276-4.44-6.599 0-16.551 9.259-21.234 18.201 1.728.668 3.758 1.041 5.939 1.041 11.677 0 19.571-8.881 19.571-14.802m43.254 23.847c0 2.961 1.644 4.934 5.098 4.934 10.69 0 24.012-19.406 24.012-27.301 0-3.289-1.809-5.263-4.77-5.263-9.703 0-24.34 18.42-24.34 27.63m137.324-59.37c-3.782 6.249-9.538 13.321-11.677 15.459-9.867-4.111-19.077-12.334-17.762-14.637 3.618-6.414 9.539-13.321 11.677-15.459 9.868 4.111 19.078 12.499 17.762 14.637" style="fill:#fff"/></svg>