<svg xmlns="http://www.w3.org/2000/svg" xml:space="preserve" style="fill-rule:evenodd;clip-rule:evenodd;stroke-linejoin:round;stroke-miterlimit:2" viewBox="0 0 1024 1024"><path d="M256 110.133c0-19.684-5.155-38.137-14.235-54.129-24.077-24.78-76.449-30.521-89.454-.118-13.356 31.166 22.437 65.846 38.078 63.092 19.918-3.514-3.515-49.208-3.515-49.208 30.462 57.41 23.433 39.835-31.634 92.559S43.936 326.297 35.735 330.984c-.352.234-.703.41-1.113.586h215.989c3.807 0 6.268-4.042 4.569-7.44l-56.472-111.773c-1.231-2.402-.352-5.389 1.991-6.737C233.739 186.64 256 151.022 256 110.133" style="fill:url(#w176a);fill-rule:nonzero" transform="translate(119.722 -.15)scale(3.06263)"/><path d="M256 110.133c0-19.684-5.155-38.137-14.235-54.129-24.077-24.78-76.449-30.521-89.454-.118-13.356 31.166 22.437 65.846 38.078 63.092 19.918-3.514-3.515-49.208-3.515-49.208 30.462 57.41 23.433 39.835-31.634 92.559S43.936 326.297 35.735 330.984c-.352.234-.703.41-1.113.586h215.989c3.807 0 6.268-4.042 4.569-7.44l-56.472-111.773c-1.231-2.402-.352-5.389 1.991-6.737C233.739 186.64 256 151.022 256 110.133" style="fill:url(#w177b);fill-rule:nonzero" transform="translate(119.722 -.15)scale(3.06263)"/><path d="M35.735 330.984c8.201-4.687 64.439-115.991 119.505-168.714s62.096-35.149 31.634-92.558c0 0-116.577 163.441-158.755 244.283" style="fill:url(#w178c);fill-rule:nonzero" transform="translate(119.722 -.15)scale(3.06263)"/><path d="M52.137 184.531C130.87 39.777 141.181 25.19 182.188 25.19c21.558 0 43.291 9.724 57.351 27.006C220.383 21.324 186.464.644 147.625.059H13.884a5.1 5.1 0 0 0-5.097 5.096v269.591c7.967-20.562 21.499-49.97 43.35-90.215" style="fill:url(#w179d);fill-rule:nonzero" transform="translate(119.722 -.15)scale(3.06263)"/><path d="M155.24 162.27C100.174 214.993 43.936 326.297 35.735 330.984c-8.202 4.686-21.968 5.272-29.291-2.929-7.791-8.729-19.918-22.847 45.693-143.524C130.87 39.777 141.181 25.19 182.188 25.19c21.558 0 43.291 9.724 57.351 27.006.761 1.23 1.523 2.519 2.284 3.808-24.077-24.78-76.448-30.521-89.453-.118-13.357 31.166 22.436 65.846 38.078 63.092 19.917-3.514-3.515-49.208-3.515-49.208 30.403 57.351 23.374 39.777-31.693 92.5" style="fill:url(#w180e);fill-rule:nonzero" transform="translate(119.722 -.15)scale(3.06263)"/><path d="M58.581 190.975C137.314 46.221 147.625 31.634 188.632 31.634c17.75 0 35.617 6.62 49.208 18.57-14.06-16.051-34.915-25.014-55.652-25.014-41.007 0-51.318 14.587-130.051 159.341C-13.474 305.208-1.347 319.326 6.444 328.055c1.113 1.23 2.402 2.285 3.749 3.163-6.854-9.959-9.9-33.098 48.388-140.243" style="fill:url(#w181f);fill-rule:nonzero" transform="translate(119.722 -.15)scale(3.06263)"/><defs><linearGradient id="w176a" x1="0" x2="1" y1="0" y2="0" gradientTransform="rotate(13.158 -725.215 496.612)scale(92.6473)" gradientUnits="userSpaceOnUse"><stop offset="0" style="stop-color:#ff6533;stop-opacity:1"/><stop offset=".16" style="stop-color:#ff5633;stop-opacity:1"/><stop offset=".43" style="stop-color:#ff4333;stop-opacity:1"/><stop offset=".71" style="stop-color:#ff3733;stop-opacity:1"/><stop offset="1" style="stop-color:#f33;stop-opacity:1"/></linearGradient><linearGradient id="w177b" x1="0" x2="1" y1="0" y2="0" gradientTransform="rotate(37.789 -176.564 190.885)scale(204.593)" gradientUnits="userSpaceOnUse"><stop offset="0" style="stop-color:#bf3338;stop-opacity:1"/><stop offset="1" style="stop-color:#f33;stop-opacity:1"/></linearGradient><linearGradient id="w178c" x1="0" x2="1" y1="0" y2="0" gradientTransform="rotate(46.397 -159.14 185.817)scale(33.9771)" gradientUnits="userSpaceOnUse"><stop offset="0" style="stop-color:#ff6533;stop-opacity:1"/><stop offset=".16" style="stop-color:#ff5633;stop-opacity:1"/><stop offset=".43" style="stop-color:#ff4333;stop-opacity:1"/><stop offset=".71" style="stop-color:#ff3733;stop-opacity:1"/><stop offset="1" style="stop-color:#f33;stop-opacity:1"/></linearGradient><linearGradient id="w179d" x1="0" x2="1" y1="0" y2="0" gradientTransform="rotate(-93.991 164.29 48.044)scale(101.00493)" gradientUnits="userSpaceOnUse"><stop offset="0" style="stop-color:#ff6533;stop-opacity:1"/><stop offset=".16" style="stop-color:#ff5633;stop-opacity:1"/><stop offset=".43" style="stop-color:#ff4333;stop-opacity:1"/><stop offset=".71" style="stop-color:#ff3733;stop-opacity:1"/><stop offset="1" style="stop-color:#f33;stop-opacity:1"/></linearGradient><linearGradient id="w180e" x1="0" x2="1" y1="0" y2="0" gradientTransform="rotate(34.216 -229.432 243.681)scale(40.2513)" gradientUnits="userSpaceOnUse"><stop offset="0" style="stop-color:#fbb040;stop-opacity:1"/><stop offset="1" style="stop-color:#fb8840;stop-opacity:1"/></linearGradient><linearGradient id="w181f" x1="0" x2="1" y1="0" y2="0" gradientTransform="rotate(95.194 45.925 81.568)scale(375.2892)" gradientUnits="userSpaceOnUse"><stop offset="0" style="stop-color:white;stop-opacity:.3"/><stop offset="1" style="stop-color:white;stop-opacity:0"/></linearGradient></defs></svg>