<svg xmlns="http://www.w3.org/2000/svg" xml:space="preserve" style="fill-rule:evenodd;clip-rule:evenodd;stroke-linejoin:round;stroke-miterlimit:2" viewBox="0 0 512 512"><path d="M512 122.18C512 54.747 457.253 0 389.82 0H122.18C54.747 0 0 54.747 0 122.18v267.64C0 457.253 54.747 512 122.18 512h267.64C457.253 512 512 457.253 512 389.82z" style="fill:#8cc84b"/><path d="M440.176 297.708c-15.369-1.792-27.362.364-36.669 4.242 1.724 4.486 3.048 9.157 3.235 13.865.432 10.331-6.679 17.977-14.09 23.435-4.328 3.182-8.932 5.303-12.798 6.584-3.09 1.304-7.198 2.651-10.114 2.056-6.428-1.306-9.849-7.017-5.477-19.611 2.362-6.816 9.175-17.192 20.173-26.129-2.506-5.16-5.3-10.418-6.724-15.249-2.806-9.522-3.653-15.279-3.653-15.279s-9.065 18.794-20.76 35.885c-.675.992-1.347 1.968-2.022 2.939 2.297 5.338 4.107 10.982 4.352 16.673.431 10.33-4.042 18.142-11.463 23.588-4.018 2.961-8.303 5.008-11.981 6.31-2.351 1.027-7.133 2.716-13.934 3.17-3.72.255-7.298.024-9.296-1.49-2.75-2.077-3.081-4.641-1.657-8.144 1.204-2.973 10.214-13.257 17.767-22.262a185 185 0 0 0 5.851-7.382l-.043-.099c0 .001 1.368-1.766 3.588-4.849-2.76-5.944-6.26-12.133-7.906-17.744-2.805-9.523-3.654-15.281-3.654-15.281s-9.189 23.557-18.761 42.361c-7.408 14.562-12.356 23.388-14.585 27.257l-.023.155s-.332.564-.906 1.448l-.429.716-.012-.067c-2.485 3.671-8.061 10.862-13.603 10.862-15.216 0-9.63-30.903-9.63-30.903s-4.448 11.447-9.462 21.268c-4.084 8.011-7.805 14.797-15.943 14.797-2.341 0-6.051-.068-9.133-2.997-6.989-6.64-12.333-23.501-11.285-36.56.894-11.103 2.606-18.795 4.946-25.211a511 511 0 0 0-13.912 7.856l-7.553 4.452.243.442c6.249 12.088 7.917 38.571-5.709 58.9-13.625 20.34-38.988 32.715-63.699 25.843-7.974-2.222-20.019-18.717-9.629-41.709 9.164-20.275 45.79-39.444 55.442-44.228l2.649-1.458c-19.244-16.839-67.299-39.554-74.034-74.445-1.9-9.822 2.705-33.311 31.545-60.314 24.258-22.704 58.003-40.095 89.175-51.177 52.37-18.616 107.702-7.635 116.214 25.754 8.37 32.837-20.117 72.115-56.599 86.235-32.574 12.605-59.505 10.606-70.569 6.973-12.577-4.133-19.953-12.431-21.752-17.116-.708-1.833-1.924-4.915 0-5.976 1.18-.652 1.654-.497 4.812 2.994 3.005 3.315 15.084 12.21 38.029 9.634 60.213-6.75 96.483-53.563 85.022-78.755-8.027-17.633-54.436-25.589-112.417 3.325-70.778 35.289-74.62 64.38-75.227 75.43-1.657 30.394 37.486 46.382 58.665 68.986l.816.895c3.964-2.187 8.15-4.496 12.257-6.75 10.678-5.867 20.749-11.371 25.441-13.936 7.454-10.834 22.58-22.79 33.501-22.79 17.457 0 11.461 25.092 11.461 25.092s.354-1.149.828-1.159c.497-.014 2.419-3.306 7.808-1.34 5.543 2.034 4.283 5.923 4.317 6.321.066.772-6.548 23.078-9.297 37.387-1.315 6.828-.554 11.8-.165 11.8.54 0 1.645-1.734 2.672-3.6l-.023-.056s.772-1.415 2.065-3.955l.255-.531.01.024a323 323 0 0 0 6.139-12.805c4.847-10.684 23.341-51.929 24.91-56.492s2.384-9.282 3.158-11.303c.762-2.023 7.299-3.547 14.939-3.492 7.641.057 8.416 3.316 8.469 3.989.055.672-3.633 9.724-4.483 16.12-.839 6.398-.032 9.589.664 14.96.453 3.512 2.649 7.966 5.246 13.013 7.906-12.926 21.816-37.652 23.153-44.58.915-4.738 2.384-9.28 3.158-11.303.772-2.022 7.299-3.545 14.939-3.491 7.641.056 8.413 3.315 8.469 3.989.055.675-3.645 9.723-4.483 16.121-.84 6.385-.032 9.59.662 14.959.598 4.596 4.152 10.772 7.676 17.798 9.616-4.741 20.934-7.921 34.185-7.987 5.487-.032 11.859.519 15.15 1.545l.012 13.071c-2.187-.644-5.389-1.153-8.504-1.514m-258.433 31.73c-7 4.378-17.546 11.469-25.705 19.182-13.394 12.649-16.197 30.195-9.131 34.294 6.536 3.789 21.795-.719 32.717-12.631 11.461-12.506 16.188-28.36 11.306-46.357-.574.341-1.137.683-1.689 1.004l.012.024-.741.42a1409 1409 0 0 0-6.769 4.064m140.012 17.667s-1.17 1.106-.664 1.415c.685.407 2.165-.122 3.777-.964 4.561-2.869 14.796-10.03 14.818-20.626 0-.308-.012-.606-.033-.927a417 417 0 0 1-6.449 8.242c-3.224 4.01-11.449 12.86-11.449 12.86m-67.081-59.84c-3.699 4.143-10.003 14.826-12.952 23.768-5.863 17.752-3.324 35.796.828 36.88 4.847 1.269 12.798-22.462 16.605-31.744 2.386-5.812 11.662-31.609 9.63-35.056-1.587-2.696-8.159-.519-14.111 6.152m123.77 36.494c-3.965 8.618-4.164 11.39-2.96 12.253 5.753-2.067 15.271-7.048 15.347-20.396.012-2-.429-4.144-1.137-6.385-6.15 5.446-9.696 11.148-11.25 14.528" style="fill:#fff"/></svg>