<svg xmlns="http://www.w3.org/2000/svg" xml:space="preserve" style="fill-rule:evenodd;clip-rule:evenodd;stroke-linejoin:round;stroke-miterlimit:2" viewBox="0 0 256 256"><path d="M246.663 143.907a115.114 115.114 0 0 0 1.153-15.782A119.868 119.868 0 0 0 127.948 8.258c-5.281.022-10.553.407-15.781 1.152C82.62-6.514 46.125-1.165 22.392 22.569-1.342 46.303-6.691 82.797 9.233 112.344a115.428 115.428 0 0 0-1.153 15.781c0 66.202 53.667 119.868 119.868 119.868a115.271 115.271 0 0 0 15.782-1.152c29.546 15.924 66.041 10.575 89.775-13.159 23.733-23.734 29.083-60.229 13.158-89.775Z" style="fill:#fff;fill-rule:nonzero"/><circle cx="75.994" cy="76.171" r="75.893" style="fill:url(#a)"/><circle cx="179.903" cy="180.08" r="75.893" style="fill:url(#b)"/><circle cx="125.547" cy="133.578" r="141.812" style="fill:url(#c)"/><circle cx="127.948" cy="128.125" r="119.868" style="fill:url(#d)"/><circle cx="127.948" cy="128.125" r="119.868" style="fill:url(#e)"/><path d="M84.239 113.408a34.752 34.752 0 0 1-4.078-17.2 31.11 31.11 0 0 1 7.27-20.746 44.326 44.326 0 0 1 18.973-12.59 73.139 73.139 0 0 1 24.736-4.167 100.85 100.85 0 0 1 16.491 1.241 70.157 70.157 0 0 1 11.437 2.926 21.914 21.914 0 0 1 8.866 5.763 11.266 11.266 0 0 1 2.837 7.625 11.17 11.17 0 0 1-2.926 8.068 9.574 9.574 0 0 1-7.27 3.014 13.748 13.748 0 0 1-5.497-1.241 102.824 102.824 0 0 0-12.856-4.699 46.402 46.402 0 0 0-12.501-1.507 29.256 29.256 0 0 0-15.604 3.901 12.944 12.944 0 0 0-6.206 11.703 11.7 11.7 0 0 0 3.192 8.156 29.762 29.762 0 0 0 8.866 6.295c3.635 1.773 8.866 4.167 16.313 7.182l2.305.886a111.443 111.443 0 0 1 20.126 10.107 40.8 40.8 0 0 1 12.501 12.767 33.603 33.603 0 0 1 4.522 17.732 35.467 35.467 0 0 1-6.295 21.367 36.708 36.708 0 0 1-17.732 12.945 73.502 73.502 0 0 1-26.155 4.255 82.362 82.362 0 0 1-35.464-6.738 20.04 20.04 0 0 1-7.358-5.674 13.472 13.472 0 0 1-2.305-7.802 9.93 9.93 0 0 1 3.103-7.891 11.348 11.348 0 0 1 8.068-2.837 21.19 21.19 0 0 1 9.486 2.394c3.635 1.773 6.472 3.192 8.866 4.078a40.113 40.113 0 0 0 7.359 2.305 39.465 39.465 0 0 0 9.487.976 25.183 25.183 0 0 0 15.958-4.256 13.827 13.827 0 0 0 5.408-11.614 12.496 12.496 0 0 0-3.369-8.866 37.836 37.836 0 0 0-9.929-7.27c-4.345-2.306-10.551-5.054-18.442-8.423a118.202 118.202 0 0 1-20.303-10.462c-4.796-3.191-8.977-6.727-11.88-11.703Z" style="fill:#fff;fill-rule:nonzero"/><defs><linearGradient id="a" x1="0" x2="1" y1="0" y2="0" gradientTransform="rotate(81 31.375 38.116) scale(151.8821)" gradientUnits="userSpaceOnUse"><stop offset="0" style="stop-color:#00b7f0;stop-opacity:1"/><stop offset=".01" style="stop-color:#00b7f0;stop-opacity:1"/><stop offset=".34" style="stop-color:#009de5;stop-opacity:1"/><stop offset=".76" style="stop-color:#0082d9;stop-opacity:1"/><stop offset="1" style="stop-color:#0078d4;stop-opacity:1"/></linearGradient><linearGradient id="b" x1="0" x2="1" y1="0" y2="0" gradientTransform="rotate(-29.977 464.176 -104.045) scale(151.8901)" gradientUnits="userSpaceOnUse"><stop offset="0" style="stop-color:#0078d4;stop-opacity:1"/><stop offset=".37" style="stop-color:#007ad5;stop-opacity:1"/><stop offset=".57" style="stop-color:#0082d9;stop-opacity:1"/><stop offset=".74" style="stop-color:#0090df;stop-opacity:1"/><stop offset=".88" style="stop-color:#00a3e7;stop-opacity:1"/><stop offset="1" style="stop-color:#00bcf2;stop-opacity:1"/></linearGradient><linearGradient id="d" x1="0" x2="1" y1="0" y2="0" gradientTransform="rotate(60.003 0 93.505) scale(239.756)" gradientUnits="userSpaceOnUse"><stop offset="0" style="stop-color:#00b7f0;stop-opacity:1"/><stop offset="1" style="stop-color:#007cc1;stop-opacity:1"/></linearGradient><linearGradient id="e" x1="0" x2="1" y1="0" y2="0" gradientTransform="rotate(-84.994 193.73 59.701) scale(239.7637)" gradientUnits="userSpaceOnUse"><stop offset="0" style="stop-color:#0078d4;stop-opacity:1"/><stop offset="1" style="stop-color:#00bcf2;stop-opacity:1"/></linearGradient><radialGradient id="c" cx="0" cy="0" r="1" gradientTransform="translate(121.405 133.578) scale(141.872)" gradientUnits="userSpaceOnUse"><stop offset="0" style="stop-color:black;stop-opacity:1"/><stop offset="1" style="stop-color:black;stop-opacity:0"/></radialGradient></defs></svg>