<svg xmlns="http://www.w3.org/2000/svg" xml:space="preserve" style="fill-rule:evenodd;clip-rule:evenodd;stroke-linejoin:round;stroke-miterlimit:2" viewBox="0 0 512 512"><path d="M512 122.18C512 54.747 457.253 0 389.82 0H122.18C54.747 0 0 54.747 0 122.18v267.64C0 457.253 54.747 512 122.18 512h267.64C457.253 512 512 457.253 512 389.82z" style="fill:#252525"/><path d="M130.071 225.216c3.811 0 6.894.52 9.236 1.564q3.511 1.559 3.511 3.902c0 1.91-.481 4.075-1.433 6.502q-1.433 3.642-2.732 5.982-.52.52-1.299.131-.781-.39-.782-1.431.782-1.816.782-5.203c0-2.426-.651-4.423-1.951-5.982-1.3-1.561-3.081-2.34-5.332-2.34-2.951 0-5.332.909-7.153 2.73s-2.731 4.381-2.731 7.67q-.001 4.167 2.21 7.935a92 92 0 0 0 4.943 7.545 75 75 0 0 1 5.072 8.064q2.341 4.293 2.341 9.754 0 9.362-7.542 14.562c-5.03 3.473-11.62 5.204-19.767 5.204q-8.844 0-13.916-2.861-5.074-2.856-5.072-6.241c0-.69.259-1.647.779-2.862q.778-1.815 2.083-3.903a60 60 0 0 1 2.862-4.163q1.558-2.077 3.379-3.377.781-.524 1.433.258.647.78.131 1.561c-1.042 1.038-1.82 2.124-2.343 3.252-.52 1.126-.78 2.646-.78 4.55 0 3.12 1.04 5.682 3.123 7.67q3.119 2.995 8.062 2.994 6.76 0 10.535-3.771 3.77-3.77 3.771-9.236-.001-4.94-2.212-9.232a100 100 0 0 0-4.81-8.324 110 110 0 0 1-4.814-8.196 18.54 18.54 0 0 1-2.21-8.844c0-4.504 1.905-8.278 5.723-11.311 3.809-3.027 9.445-4.553 16.903-4.553m71.006 1.305q1.3.522 1.043 1.432c-.177.609-.955 1.083-2.343 1.43q-3.901.002-8.972.259c-3.383.173-6.984.436-10.795.779-3.473 8.5-6.332 16.776-8.584 24.842-2.257 8.061-3.38 14.609-3.38 19.638 0 5.894 2.25 8.84 6.761 8.84q6.76 0 15.089-11.7.778-.524 1.427 0 .647.518.393 1.819a47.1 47.1 0 0 1-11.185 12.617q-6.766 5.33-13.266 5.329c-4.512 0-7.848-1.077-10.014-3.251-2.169-2.168-3.252-5.157-3.252-8.975 0-5.024 1.211-11.964 3.64-20.807 2.428-8.844 5.549-17.856 9.366-27.051-4.512.52-8.672 1.221-12.484 2.083q-1.305-.255-.652-1.301c.431-.69 1.211-1.431 2.341-2.211 1.124-.783 2.471-1.473 4.031-2.082q2.34-.909 4.421-.91h2.082q1.039.001 2.081-.259a283 283 0 0 1 7.022-14.567c2.427-4.683 4.853-8.928 7.284-12.746q1.559-1.818 4.291-3.252c1.819-.949 3.597-1.689 5.331-2.211q2.596-.778 4.294-.91c1.125-.084 1.599.22 1.432.91-2.952 4.513-5.853 9.539-8.716 15.087a272 272 0 0 0-8.193 17.427 193 193 0 0 1 10.013-.259z" style="fill:#606060;fill-rule:nonzero"/><path d="M358.888 96.381c2.601 0 4.721.652 6.373 1.951q2.467 1.951 3.38 5.204c.607 2.167.691 4.638.26 7.412q-.65 4.165-2.991 8.323-.52.52-1.301 0c-.519-.348-.867-.779-1.039-1.301q.52-3.12-2.211-5.202c-1.82-1.385-4.642-2.081-8.454-2.081q-10.667 0-21.458 7.934-10.796 7.94-20.938 20.938-10.146 13.01-18.988 29.914a283 283 0 0 0-15.348 34.854c-4.334 11.964-7.762 23.843-10.273 35.634-2.514 11.795-3.769 22.542-3.769 32.256q-.002 7.799 4.422 7.801 3.12 0 6.11-2.603c1.992-1.732 4.295-4.331 6.895-7.803q.78-.513 1.428.132.649.654.393 1.688c-3.473 5.204-7.544 9.539-12.227 13.005-4.68 3.472-8.933 5.204-12.745 5.204q-4.942 0-6.89-2.864-1.951-2.856-1.952-7.279c0-8.151 1.731-18.342 5.204-30.562 3.466-12.226 8.101-25.143 13.915-38.758q8.712-20.417 20.158-40.705 11.444-20.287 23.801-36.543c8.234-10.837 16.518-19.639 24.839-26.403q12.478-10.148 23.407-10.146zM127.947 415.998c-2.602 0-4.724-.651-6.375-1.95q-2.468-1.951-3.381-5.204-.906-3.253-.26-7.412.653-4.164 2.991-8.324c.349-.349.78-.349 1.301 0q.78.519 1.039 1.301c-.344 2.082.39 3.814 2.212 5.203q2.732 2.076 8.453 2.078 10.667 0 21.458-7.934 10.797-7.93 20.941-20.934 10.144-13.008 18.988-29.914a283 283 0 0 0 15.344-34.855q6.506-17.946 10.275-35.634c2.514-11.794 3.769-22.542 3.769-32.253q.001-7.805-4.422-7.803c-2.081 0-4.118.863-6.11 2.599-1.992 1.731-4.294 4.337-6.895 7.806q-.778.513-1.428-.132-.646-.654-.392-1.694c3.472-5.198 7.543-9.537 12.226-13.005q7.024-5.199 12.745-5.198c3.296 0 5.591.949 6.891 2.858q1.952 2.862 1.953 7.286.002 12.223-5.204 30.562c-3.466 12.226-8.102 25.142-13.916 38.757q-8.713 20.416-20.157 40.705-11.446 20.287-23.801 36.543c-8.234 10.837-16.518 19.64-24.841 26.401q-12.48 10.147-23.404 10.147" style="fill:#b3d107;fill-rule:nonzero"/><path d="M303.652 291.805q-10.925 0-10.925-11.964c0-2.773.3-5.982.91-9.622.606-3.645 1.563-7.411 2.862-11.315a143 143 0 0 1 4.55-11.838 73 73 0 0 1 6.243-11.442 87 87 0 0 0-5.46 3.772 43.5 43.5 0 0 0-4.683 4.03q-.78.527-1.431-.389-.65-.91-.13-1.69c2.948-3.123 7.154-6.327 12.616-9.627 5.46-3.289 10.704-5.893 15.737-7.801q1.298.001 1.95.652.648.654.132 1.688a99.8 99.8 0 0 0-13.397 23.67q-5.072 12.75-5.072 24.711c0 5.032 1.563 7.542 4.683 7.542q3.377 0 8.322-4.55c3.294-3.036 6.765-7.022 10.407-11.967q5.458-7.413 11.054-16.774a253 253 0 0 0 10.276-18.992c.517-1.037 2.036-2.079 4.549-3.119q3.771-1.565 7.674-1.564c2.602 0 3.381.699 2.341 2.084a252 252 0 0 0-6.373 12.615 96 96 0 0 0-4.55 11.574 77 77 0 0 0-2.732 11.573c-.611 3.904-.911 8.193-.911 12.873 0 5.555 1.472 8.323 4.423 8.323q4.42.001 9.883-7.802.783-.513 1.56 0c.522.352.692.874.522 1.562q-4.426 6.762-9.754 10.276-5.334 3.508-9.753 3.508-10.926 0-10.925-12.743-.002-13.264 4.68-26.273-9.885 17.946-20.806 28.483c-7.286 7.028-13.445 10.536-18.472 10.536m107.419-66.589c3.811 0 6.895.52 9.235 1.564q3.512 1.559 3.512 3.902c0 1.91-.48 4.075-1.43 6.502-.958 2.429-1.866 4.421-2.733 5.982-.35.348-.78.39-1.301.131q-.779-.39-.779-1.431.78-1.816.78-5.203c0-2.426-.649-4.423-1.95-5.982q-1.953-2.34-5.332-2.34-4.422 0-7.153 2.73-2.732 2.735-2.73 7.67-.002 4.167 2.21 7.935a92 92 0 0 0 4.942 7.545 75 75 0 0 1 5.072 8.064q2.342 4.293 2.342 9.754 0 9.362-7.543 14.562c-5.033 3.473-11.621 5.204-19.768 5.204q-8.846 0-13.916-2.861c-3.384-1.905-5.072-3.984-5.072-6.241 0-.69.259-1.647.779-2.862.521-1.211 1.21-2.51 2.082-3.903a60 60 0 0 1 2.86-4.163q1.56-2.077 3.383-3.377.78-.524 1.429.258.648.78.132 1.561-1.56 1.559-2.342 3.252c-.52 1.126-.78 2.646-.78 4.55 0 3.12 1.04 5.682 3.122 7.67q3.12 2.995 8.063 2.994 6.759 0 10.536-3.771c2.509-2.512 3.77-5.593 3.77-9.236 0-3.293-.74-6.371-2.211-9.232a100 100 0 0 0-4.812-8.324 111 111 0 0 1-4.813-8.196 18.54 18.54 0 0 1-2.21-8.844c0-4.504 1.905-8.278 5.721-11.311 3.811-3.027 9.446-4.553 16.905-4.553" style="fill:#606060;fill-rule:nonzero"/></svg>