<svg xmlns="http://www.w3.org/2000/svg" xml:space="preserve" style="fill-rule:evenodd;clip-rule:evenodd;stroke-linejoin:round;stroke-miterlimit:2" viewBox="0 0 512 512"><path d="M581 191.18C581 123.747 526.253 69 458.82 69H191.18C123.747 69 69 123.747 69 191.18v267.64C69 526.253 123.747 581 191.18 581h267.64C526.253 581 581 526.253 581 458.82z" style="fill:#202938" transform="translate(-69.001 -69.001)"/><g transform="translate(113.416 84.288)scale(2.11076)"><clipPath id="a371f4a8a"><path d="M0 0h135.1v162.7H0z"/></clipPath><g clip-path="url(#a371f4a8a)" opacity=".95"><path d="M99.895 28.369c-30.973 0-56.08 25.108-56.08 56.079 0 30.977 25.107 56.088 56.08 56.088 30.976 0 56.084-25.111 56.084-56.088 0-30.97-25.109-56.079-56.084-56.079m30.246 32.46c-2.597.09-4.39-1.462-4.471-3.818-.029-.864.194-1.62.786-2.504.579-1.134.703-1.264.688-1.757-.053-1.485-2.295-1.541-2.909-1.512-8.419.278-10.638 11.64-12.437 20.878l-.881 4.872c4.848.709 8.289-.165 10.209-1.407 2.703-1.755-.756-3.558-.32-5.553.442-2.034 2.292-3.016 3.763-3.057 2.058-.051 3.526 2.084 3.479 4.251-.073 3.582-4.825 8.503-14.329 8.302a33 33 0 0 1-3.217-.228l-1.793 9.897c-1.605 7.496-3.74 17.736-11.371 26.672-6.555 7.792-13.209 9.004-16.188 9.104-5.574.188-9.27-2.783-9.4-6.75-.129-3.84 3.268-5.936 5.496-6.011 2.975-.099 5.033 2.056 5.111 4.54.076 2.104-1.021 2.76-1.748 3.156-.484.39-1.215.787-1.188 1.652.018.372.416 1.224 1.654 1.186 2.355-.083 3.92-1.248 5.014-2.026 5.43-4.525 7.52-12.409 10.256-26.761l.574-3.481c.934-4.667 1.969-9.872 3.547-15.059-3.828-2.882-6.121-6.454-11.271-7.851-3.527-.958-5.68-.145-7.191 1.768-1.791 2.266-1.197 5.214.533 6.942l2.859 3.163c3.506 4.05 5.422 7.202 4.701 11.441-1.145 6.768-9.207 11.961-18.742 9.026-8.137-2.507-9.656-8.268-8.68-11.441.861-2.793 3.08-3.321 5.252-2.655 2.324.719 3.234 3.544 2.57 5.713-.074.232-.193.619-.438 1.14-.27.597-.77 1.122-.984 1.821-.523 1.703 1.812 2.914 3.439 3.413 3.641 1.118 7.191-.784 8.092-3.731.838-2.706-.875-4.595-1.584-5.319l-3.447-3.691c-1.576-1.756-5.047-6.653-3.354-12.151.652-2.121 2.027-4.37 4.02-5.859 4.211-3.137 8.787-3.652 13.146-2.399 5.641 1.622 8.35 5.352 11.863 8.233 1.967-5.769 4.691-11.415 8.791-16.18 3.703-4.34 8.676-7.484 14.373-7.68 5.692-.188 9.995 2.393 10.137 6.477.059 1.738-.938 5.118-4.41 5.234" style="fill:#fff;fill-rule:nonzero" transform="translate(-32.347 -26.624)"/><path d="M120.717 163.885c5.665 0 9.465 4.094 9.465 9.757 0 5.337-3.873 9.758-9.465 9.758-5.627 0-9.502-4.421-9.502-9.758 0-5.663 3.801-9.757 9.502-9.757m0 16.739c4.019 0 5.81-3.654 5.81-6.982 0-3.543-2.155-6.979-5.81-6.979-3.689 0-5.846 3.436-5.846 6.979 0 3.328 1.789 6.982 5.846 6.982m-9.973-15.004v-1.297h-4.934v-1.772c0-2.521.365-4.423 3.324-4.423q.085.001.17.006c.006 0 .006-.009.014-.009.818.061 1.502-.609 1.549-1.43l.061-1.125c-.695-.11-1.428-.22-2.303-.22-5.078 0-6.248 2.96-6.248 7.493v1.479H97.99v1.447c.111.75.754 1.327 1.537 1.327l.012.004h2.838v15.86h1.893c.004 0 .002-.002.006-.002.785 0 1.43-.589 1.535-1.346v-14.513h3.436a1.545 1.545 0 0 0 1.497-1.479m-45.756-1.297-.018.004c-.725 0-1.426.498-1.73 1.17l-4.729 14.249h-.072l-4.623-14.241c-.303-.676-1.008-1.178-1.736-1.178l-.018-.004h-2.395l6.322 17.396c.221.621.66 1.571.66 1.973 0 .365-1.025 4.604-4.096 4.604-.076 0-.152-.008-.227-.014-.783-.043-1.375.504-1.508 1.347l-.092 1.189c.621.109 1.244.256 2.34.256 4.531 0 5.883-4.131 7.162-7.711l6.871-19.041h-2.111zm-21.838 3.786c-2.838-1.451-5.941-2.438-5.996-5.357.01-3.103 2.859-3.917 5.057-3.914q.014-.003.023-.002c.953 0 1.717.095 2.461.259.01 0 .008-.012.02-.012.787.057 1.447-.559 1.541-1.334l.062-1.127a18.2 18.2 0 0 0-4.254-.539c-4.777.029-8.322 2.433-8.334 7.018.006 4.009 2.709 5.562 5.615 6.97 2.85 1.37 5.971 2.502 5.998 5.81-.018 3.452-3.348 4.726-5.643 4.729-1.344-.004-2.801-.339-4.029-.727-.77-.127-1.4.553-1.5 1.452l-.104 1.004c1.688.546 3.418 1.021 5.158 1.021h.022c5.35-.039 9.508-2.173 9.523-7.712-.006-4.274-2.727-6.068-5.62-7.539m51.957 14.853.004-.002c.742 0 1.359-.519 1.518-1.215v-10.733c0-4.057-1.717-7.127-6.471-7.127-1.68 0-4.492.952-5.771 3.619-.988-2.522-3.143-3.619-5.299-3.619-2.742 0-4.605.986-5.92 3.144h-.074v-1.159a1.56 1.56 0 0 0-1.557-1.542q-.008-.002-.016-.004h-1.643v18.639h1.859l.004-.002c.861 0 1.559-.698 1.559-1.558 0-.022.008-.032.014-.048v-7.783c0-3.473 1.387-6.908 4.895-6.908 2.777 0 3.328 2.887 3.328 5.188v11.11h1.885l.006-.002c.812 0 1.471-.624 1.543-1.417v-7.972c0-3.473 1.389-6.908 4.896-6.908 2.777 0 3.326 2.887 3.326 5.188v11.11zm53.085 0 .006-.002c.836 0 1.512-.66 1.55-1.486v-9.584c0-5.007-2.157-8.005-6.981-8.005-2.594 0-5.077 1.28-6.102 3.401h-.072v-1.394c0-.002-.004-.002-.004-.005a1.56 1.56 0 0 0-1.558-1.561c-.008 0-.011-.004-.017-.004h-1.75v18.639h1.888l.005-.002c.816 0 1.479-.633 1.544-1.434v-7.189c0-4.53 1.756-7.674 5.664-7.674 2.999.183 3.946 2.302 3.946 6.65v9.648h1.881zm18.493-18.639c-.006 0-.009.004-.018.004-.724 0-1.426.498-1.73 1.17l-4.726 14.249h-.075l-4.623-14.241c-.303-.676-1.008-1.178-1.736-1.178l-.016-.004h-2.395l6.321 17.396c.22.621.66 1.571.66 1.973 0 .365-1.025 4.604-4.095 4.604-.077 0-.152-.008-.229-.014-.781-.043-1.373.504-1.505 1.347l-.093 1.189c.621.109 1.244.256 2.339.256 4.532 0 5.885-4.131 7.164-7.711l6.87-19.041h-2.113z" style="fill:#fff;fill-rule:nonzero" transform="translate(-33.714 -28.372)"/></g></g></svg>