<svg xmlns="http://www.w3.org/2000/svg" xml:space="preserve" style="fill-rule:evenodd;clip-rule:evenodd;stroke-linejoin:round;stroke-miterlimit:2" viewBox="0 0 1024 1024"><path d="M128 0Q76.8 0 64 51.2 83.2 25.6 108.8 32c9.737 2.434 16.697 9.499 24.401 17.318C145.751 62.057 160.275 76.8 192 76.8q51.2 0 64-51.2-19.2 25.6-44.8 19.2c-9.737-2.434-16.697-9.499-24.401-17.318C174.249 14.743 159.725 0 128 0M64 76.8q-51.2 0-64 51.2 19.2-25.6 44.8-19.2c9.737 2.434 16.697 9.499 24.401 17.318C81.751 138.857 96.275 153.6 128 153.6q51.2 0 64-51.2-19.2 25.6-44.8 19.2c-9.737-2.434-16.697-9.499-24.401-17.318C110.249 91.543 95.725 76.8 64 76.8" style="fill:url(#a);fill-rule:nonzero" transform="translate(3.082 206.649)scale(3.97592)"/><defs><linearGradient id="a" x1="0" x2="1" y1="0" y2="0" gradientTransform="rotate(11.726 -242.88 -10.048)scale(268.7192)" gradientUnits="userSpaceOnUse"><stop offset="0" style="stop-color:#2298bd;stop-opacity:1"/><stop offset="1" style="stop-color:#0ed7b5;stop-opacity:1"/></linearGradient></defs></svg>