<svg xmlns="http://www.w3.org/2000/svg" xml:space="preserve" style="fill-rule:evenodd;clip-rule:evenodd;stroke-linejoin:round;stroke-miterlimit:2" viewBox="0 0 256 256"><path d="M255.637 127.683c0 70.514-57.165 127.68-127.683 127.68C57.435 255.363.27 198.197.27 127.683.27 57.165 57.436 0 127.954 0c70.519 0 127.683 57.165 127.683 127.683" style="fill:#dd4814;fill-rule:nonzero"/><path d="M41.133 110.633c-9.419 0-17.05 7.631-17.05 17.05 0 9.414 7.631 17.046 17.05 17.046 9.415 0 17.046-7.632 17.046-17.046 0-9.419-7.631-17.05-17.046-17.05m121.715 77.478c-8.153 4.71-10.949 15.13-6.239 23.279 4.704 8.154 15.124 10.949 23.278 6.239 8.153-4.704 10.949-15.124 6.239-23.278-4.704-8.149-15.13-10.944-23.278-6.24m-84.686-60.428c0-16.846 8.368-31.73 21.171-40.742L86.87 66.067c-14.914 9.97-26.012 25.204-30.624 43.047 5.382 4.391 8.826 11.075 8.826 18.568 0 7.489-3.444 14.174-8.826 18.565C60.852 164.094 71.95 179.33 86.87 189.3l12.463-20.88c-12.803-9.007-21.171-23.89-21.171-40.737m49.792-49.797c26.013 0 47.355 19.944 49.595 45.38l24.291-.358c-1.195-18.778-9.399-35.636-22.003-48.032-6.482 2.449-13.969 2.074-20.441-1.656-6.482-3.741-10.547-10.052-11.658-16.902a74.2 74.2 0 0 0-19.785-2.691 73.8 73.8 0 0 0-32.819 7.664l11.845 21.227a49.6 49.6 0 0 1 20.975-4.632m0 99.59a49.6 49.6 0 0 1-20.974-4.632l-11.845 21.225a73.7 73.7 0 0 0 32.819 7.671c6.855 0 13.486-.953 19.785-2.697 1.111-6.85 5.177-13.155 11.658-16.902 6.476-3.737 13.959-4.105 20.44-1.656 12.605-12.396 20.808-29.254 22.004-48.032l-24.297-.358c-2.235 25.443-23.576 45.381-49.59 45.381m34.888-110.231c8.154 4.708 18.575 1.919 23.279-6.234 4.709-8.154 1.92-18.575-6.234-23.285-8.154-4.704-18.574-1.909-23.285 6.244-4.703 8.15-1.908 18.571 6.24 23.275" style="fill:#fff;fill-rule:nonzero"/></svg>