<svg xmlns="http://www.w3.org/2000/svg" xml:space="preserve" style="fill-rule:evenodd;clip-rule:evenodd;stroke-linejoin:round;stroke-miterlimit:2" viewBox="0 0 1024 1024"><path d="M246.135 26.873 193.593 1.575a15.885 15.885 0 0 0-18.123 3.08L3.466 161.482c-4.626 4.219-4.621 11.502.012 15.714l14.05 12.772a10.626 10.626 0 0 0 13.569.604L238.229 33.436c6.949-5.271 16.93-.315 16.93 8.407v-.61a15.94 15.94 0 0 0-9.024-14.36" style="fill:#0065a9;fill-rule:nonzero" transform="translate(6.278 9.158)scale(3.96398)"/><path d="m246.135 226.816-52.542 25.298a15.885 15.885 0 0 1-18.123-3.08L3.466 92.207c-4.626-4.218-4.621-11.502.012-15.713l14.05-12.773a10.625 10.625 0 0 1 13.569-.603l207.132 157.135c6.949 5.271 16.93.315 16.93-8.408v.611a15.94 15.94 0 0 1-9.024 14.36" style="fill:#007acc;fill-rule:nonzero" transform="translate(6.278 9.158)scale(3.96398)"/><path d="M193.428 252.134a15.89 15.89 0 0 1-18.125-3.083c5.881 5.881 15.938 1.715 15.938-6.603V11.273c0-8.318-10.057-12.483-15.938-6.602a15.89 15.89 0 0 1 18.125-3.084l52.533 25.263a15.94 15.94 0 0 1 9.031 14.363v171.296c0 6.125-3.51 11.709-9.031 14.363z" style="fill:#1f9cf0;fill-rule:nonzero" transform="translate(6.278 9.158)scale(3.96398)"/><path d="M180.828 252.605a15.87 15.87 0 0 0 12.649-.486l52.501-25.263a15.94 15.94 0 0 0 9.026-14.363V41.197a15.94 15.94 0 0 0-9.025-14.363L193.477 1.571a15.88 15.88 0 0 0-18.114 3.084L74.857 96.35 31.078 63.118a10.614 10.614 0 0 0-13.561.603L3.476 76.494c-4.63 4.211-4.635 11.495-.012 15.713l37.967 34.638-37.967 34.637c-4.623 4.219-4.618 11.502.012 15.714l14.041 12.772a10.615 10.615 0 0 0 13.561.604l43.779-33.233 100.506 91.695a15.9 15.9 0 0 0 5.465 3.571m10.464-183.649-76.262 57.889 76.262 57.888z" style="fill:url(#64b7885ca);fill-rule:nonzero" transform="translate(6.278 9.158)scale(3.96398)"/><defs><linearGradient id="64b7885ca" x1="0" x2="1" y1="0" y2="0" gradientTransform="rotate(90 63.751 63.751)scale(253.689)" gradientUnits="userSpaceOnUse"><stop offset="0" style="stop-color:white;stop-opacity:.25"/><stop offset="1" style="stop-color:white;stop-opacity:0"/></linearGradient></defs></svg>