<svg xmlns="http://www.w3.org/2000/svg" xml:space="preserve" style="fill-rule:evenodd;clip-rule:evenodd;stroke-linejoin:round;stroke-miterlimit:2" viewBox="0 0 256 257"><path d="M255.153 37.938 134.897 252.976c-2.483 4.44-8.862 4.466-11.382.048L.874 37.958c-2.745-4.814 1.372-10.646 6.828-9.671l120.385 21.518a6.5 6.5 0 0 0 2.322-.004l117.867-21.483c5.438-.991 9.574 4.796 6.877 9.62" style="fill:url(#a);fill-rule:nonzero"/><path d="M185.432.063 96.439 17.501a3.27 3.27 0 0 0-2.634 3.014l-5.474 92.456a3.268 3.268 0 0 0 3.997 3.378l24.777-5.718c2.318-.535 4.413 1.507 3.936 3.838l-7.361 36.047c-.495 2.426 1.782 4.5 4.151 3.781l15.304-4.65c2.372-.72 4.652 1.36 4.15 3.788l-11.698 56.621c-.732 3.542 3.979 5.473 5.943 2.437l1.313-2.028 72.516-144.719c1.215-2.424-.88-5.187-3.541-4.673l-25.504 4.922c-2.396.462-4.435-1.77-3.759-4.114l16.646-57.705c.677-2.349-1.369-4.583-3.769-4.113" style="fill:url(#b);fill-rule:nonzero"/><defs><linearGradient id="a" x1="0" x2="1" y1="0" y2="0" gradientTransform="rotate(47.165 -53.273 20.473)scale(220.137)" gradientUnits="userSpaceOnUse"><stop offset="0" style="stop-color:#41d1ff;stop-opacity:1"/><stop offset="1" style="stop-color:#bd34fe;stop-opacity:1"/></linearGradient><linearGradient id="b" x1="0" x2="1" y1="0" y2="0" gradientTransform="rotate(87.488 67.115 75.141)scale(185.90458)" gradientUnits="userSpaceOnUse"><stop offset="0" style="stop-color:#ffea83;stop-opacity:1"/><stop offset=".08" style="stop-color:#ffdd35;stop-opacity:1"/><stop offset="1" style="stop-color:#ffa800;stop-opacity:1"/></linearGradient></defs></svg>