<svg xmlns="http://www.w3.org/2000/svg" xml:space="preserve" style="fill-rule:evenodd;clip-rule:evenodd;stroke-linejoin:round;stroke-miterlimit:2" viewBox="0 0 512 512"><path d="M512 122.18C512 54.747 457.253 0 389.82 0H122.18C54.747 0 0 54.747 0 122.18v267.64C0 457.253 54.747 512 122.18 512h267.64C457.253 512 512 457.253 512 389.82z" style="fill:#1d1d1d"/><path d="M335.104 202.901 260.526 310.73a6.435 6.435 0 0 1-7.33 2.433 6.4 6.4 0 0 1-3.242-2.449 6.36 6.36 0 0 1-1.101-3.903l2.985-59.533-48.185-10.219a6.4 6.4 0 0 1-2.794-1.362 6.36 6.36 0 0 1-2.229-5.583 6.4 6.4 0 0 1 1.091-2.903L274.3 119.382a6.4 6.4 0 0 1 3.257-2.44 6.44 6.44 0 0 1 4.073.007 6.4 6.4 0 0 1 3.242 2.45 6.35 6.35 0 0 1 1.1 3.903l-2.984 59.533 48.184 10.219a6.4 6.4 0 0 1 2.794 1.361 6.34 6.34 0 0 1 1.816 2.513 6.35 6.35 0 0 1-.678 5.973" style="fill:#fcc72b;fill-rule:nonzero"/><path d="M257.004 401.198a15.04 15.04 0 0 1-10.678-4.422l-70.468-70.463a15.097 15.097 0 0 1 .028-21.324 15.1 15.1 0 0 1 10.657-4.425 15.1 15.1 0 0 1 10.669 4.394l59.792 59.785 130.257-130.251a15.1 15.1 0 0 1 21.353 21.354L267.68 396.776a15.05 15.05 0 0 1-10.676 4.422" style="fill:#729b1b;fill-rule:nonzero"/><path d="M256.944 401.198a15.04 15.04 0 0 0 10.678-4.422l70.468-70.463a15.1 15.1 0 0 0 4.393-10.667 15.1 15.1 0 0 0-4.422-10.657 15.1 15.1 0 0 0-10.657-4.425 15.1 15.1 0 0 0-10.669 4.394l-59.791 59.785-130.257-130.251a15.102 15.102 0 0 0-25.691 10.703 15.1 15.1 0 0 0 4.336 10.651l140.936 140.93a15.03 15.03 0 0 0 10.676 4.422" style="fill:#729b1b;fill-opacity:.5;fill-rule:nonzero"/></svg>