<svg xmlns="http://www.w3.org/2000/svg" xml:space="preserve" style="fill-rule:evenodd;clip-rule:evenodd;stroke-linejoin:round;stroke-miterlimit:2" viewBox="0 0 256 256"><path d="M127.999 255.999c56.092 0 87.262 0 107.631-20.369s20.369-51.539 20.369-107.631 0-87.261-20.369-107.63S184.091 0 127.999 0s-87.3 0-107.63 20.369S0 71.908 0 127.999c0 56.092 0 87.262 20.369 107.631s51.539 20.369 107.63 20.369" style="fill:#ef3939;fill-rule:nonzero"/><path d="M211.221 80.633c-6.179-11.141-16.808-20.264-26.815-28.152s-19.83-12.641-32.108-16.048c-12.279-3.408-24.827-3.345-37.468-1.743s-23.519 4.488-34.559 10.851S60.657 59.695 52.935 69.83s-12.851 20.199-16.054 32.53-4.363 25.992-2.549 38.601c1.814 12.61 4.017 24.61 10.566 35.539l.54.925 45.091 78.166q11.224.309 24.301.27h12.805c20.448.44 40.906-.165 61.292-1.812 20.404-2.237 35.061-7.25 46.286-18.548 16.509-16.506 19.634-40.106 20.212-78.283z" style="fill:url(#w212a);fill-rule:nonzero"/><path d="M195.808 60.085a95.97 95.97 0 0 0-49.142-26.247 95.95 95.95 0 0 0-55.44 5.478 96 96 0 0 0-43.058 35.358 96.02 96.02 0 0 0 0 106.651 96 96 0 0 0 43.058 35.358 95.96 95.96 0 0 0 104.582-20.769 95.9 95.9 0 0 0 28.191-67.915 95.9 95.9 0 0 0-28.191-67.914m-5.755 44.195a299922 299922 0 0 0-47.466 82.633 15.87 15.87 0 0 1-13.054 8.614 15.06 15.06 0 0 1-15.024-7.996c-10.003-17.23-19.929-34.575-29.855-51.883a6280 6280 0 0 1-18.152-31.6 15.957 15.957 0 0 1 12.977-24.184 15.45 15.45 0 0 1 14.637 8.268c4.48 7.726 8.883 15.452 13.287 23.179 3.205 5.563 6.294 11.125 9.577 16.611a25.1 25.1 0 0 0 21.01 12.98 25.605 25.605 0 0 0 27.036-22.754c0-1.043 0-2.086.232-2.627a27.1 27.1 0 0 0-2.703-11.937 15.95 15.95 0 0 1-.789-13.452 15.97 15.97 0 0 1 9.79-9.258 15.96 15.96 0 0 1 13.384 1.542 15.95 15.95 0 0 1 7.43 11.24 16.7 16.7 0 0 1-2.317 10.624" style="fill:#fff;fill-rule:nonzero"/><defs><linearGradient id="w212a" x1="0" x2="1" y1="0" y2="0" gradientTransform="rotate(60.102 1.099 91.703)scale(244.285)" gradientUnits="userSpaceOnUse"><stop offset="0" style="stop-color:black;stop-opacity:.2"/><stop offset=".79" style="stop-color:black;stop-opacity:.05"/><stop offset="1" style="stop-color:black;stop-opacity:.05"/></linearGradient></defs></svg>