<svg xmlns="http://www.w3.org/2000/svg" xml:space="preserve" style="fill-rule:evenodd;clip-rule:evenodd;stroke-linejoin:round;stroke-miterlimit:2" viewBox="0 0 1024 1024"><path d="M49.209 3.295A7.033 7.033 0 0 0 43.236 0H7.061a7.063 7.063 0 0 0-5.973 10.828l7.356 11.769 48.121-7.533-7.356-11.769Z" style="fill:#c9f4ff;fill-rule:nonzero" transform="matrix(7.13539 0 0 6.26071 8.143 128.668)"/><path d="M56.623 15.064a7.032 7.032 0 0 0-5.972-3.295H14.475a7.061 7.061 0 0 0-5.972 10.828l10.386 16.476 48.121-7.532-10.387-16.477Z" style="fill:#51b9ff;fill-rule:nonzero" transform="matrix(7.13539 0 0 6.26071 8.143 128.668)"/><path d="M18.889 39.073a7.127 7.127 0 0 1-1.089-3.766c0-3.9 3.162-7.061 7.062-7.061h36.175a7.032 7.032 0 0 1 5.973 3.295l32.364 51.343a7.06 7.06 0 0 1 0 7.532l-18.08 28.746a7.062 7.062 0 0 1-11.945 0l-50.46-80.089Zm91.225 15.359a7.06 7.06 0 0 0 11.989 0l6.179-9.857L140.14 25.76a7.066 7.066 0 0 0 0-7.533l-9.416-14.932A7.032 7.032 0 0 0 124.752 0H88.576a7.06 7.06 0 0 0-5.972 10.828l27.51 43.604Z" style="fill:#007bfc;fill-rule:nonzero" transform="matrix(7.13539 0 0 6.26071 8.143 128.668)"/></svg>