<svg xmlns="http://www.w3.org/2000/svg" xml:space="preserve" style="fill-rule:evenodd;clip-rule:evenodd;stroke-linejoin:round;stroke-miterlimit:2" viewBox="0 0 512 513"><path d="M581 191.18C581 123.747 526.253 69 458.82 69H191.18C123.747 69 69 123.747 69 191.18v267.64C69 526.253 123.747 581 191.18 581h267.64C526.253 581 581 526.253 581 458.82z" style="fill:#2b8fbb" transform="translate(-69 -68.5)"/><g opacity=".95"><path d="M718.6 257.8c-8 27.6-20.8 47.6-35.2 63.6V181c0-9.6-8.4-17.6-21.6-17.6-5.6 0-10.4 2.8-10.4 6.8 0 2.8 1.6 5.2 1.6 12.8v64.4c-4.8 28-16.8 54-32.8 54-11.6 0-18.4-11.6-18.4-33.2 0-33.6 4.4-51.2 11.6-80.8 1.6-6 13.2-22-6.4-22-21.2 0-18.4 8-21.2 14.8 0 0-13.4 47.6-13.4 90 0 34.8 14.6 57.6 41.4 57.6 17.2 0 29.6-11.6 39.2-27.6V351c-26.4 23.2-49.6 43.6-49.6 84 0 25.6 16 46 38.4 46 20.4 0 41.6-14.8 41.6-56.8V355c21.6-18.8 44.8-42.4 58.4-88.8.4-1.6.4-3.6.4-4 0-7.6-7.6-16.4-14-16.4-4 0-7.2 3.6-9.6 12m-76.8 198c-6.4 0-10.4-9.6-10.4-22 0-24 8.8-39.2 21.6-52.4v42.8c0 7.6 1.6 31.6-11.2 31.6" style="fill:#fff;fill-rule:nonzero" transform="matrix(.43445 0 0 .43445 -107.189 262.97)"/><path d="M833.4 301c-9.6 0-13.6-9.6-13.6-18.4v-66c0-9.6-8.4-17.6-21.6-17.6-5.6 0-10.4 2.8-10.4 6.8 0 2.8 1.6 5.2 1.6 12.8v61.6C785 291.4 777.8 301 767 301c-14 0-22.8-12-22.8-32.8 0-57.6 35.6-83.6 66-83.6 4 0 8 .8 11.6.8 4 0 5.2-2.4 5.2-9.2 0-10.4-7.6-16.8-18.4-16.8-48.8 0-95.2 40.8-95.2 107.6 0 34 16.4 60.4 47.6 60.4 15.2 0 26.4-7.2 34.4-16.4 6 9.6 16.8 16.4 30.8 16.4 34.4 0 50.4-36 57.2-62.4.4-1.6.4-2.4.4-2.8 0-7.6-7.6-16.4-14-16.4-4 0-8 3.6-9.6 12-3.6 17.6-10.8 43.2-26.8 43.2" style="fill:#fff;fill-rule:nonzero" transform="matrix(.43445 0 0 .43445 -107.189 262.97)"/><path d="M949 327.4c34.4 0 50-36 57.2-62.4 0-.8.4-1.6.4-2.8 0-7.6-7.6-16.4-14-16.4-4 0-8 3.6-9.6 12-3.6 17.6-10.4 43.2-28.8 43.2-10.8 0-16-10.4-16-21.6 0-40 18-87.2 18-92 1.6-9.2-14.4-22.4-19.2-22.4h-20.8c-4 0-8 0-21.2-1.6-4.4-16.4-15.6-21.2-25.2-21.2-10.4 0-20 7.2-20 18.4 0 11.6 7.2 20 17.2 25.6-.4 20.4-2 53.6-6.4 69.6-3.6 13.6 17.2 28 22.4 11.2 7.2-23.2 9.6-58 10-73.6h34.8c-12.8 34.4-20 62.8-20 88.4 0 35.2 22.4 45.6 41.2 45.6" style="fill:#fff;fill-rule:nonzero" transform="matrix(.43445 0 0 .43445 -107.189 262.97)"/><path d="M984.6 309.8c0 14.8 11.2 17.6 19.2 17.6 11.6 0 11.2-9.6 11.2-17.2v-58.4c2.8-31.6 27.6-66 39.2-66 7.6 0 8.4 10.4 8.4 22.8v81.2c0 20.4 12.4 37.6 33.6 37.6 34.4 0 51.4-36 58.2-62.4.4-1.6.4-2.4.4-2.8 0-7.6-7.6-16.4-14-16.4-4 0-8 3.6-9.6 12-3.6 17.6-11.8 43.2-27.8 43.2-10.4 0-10.4-14.8-10.4-18.4v-82.8c0-18.4-6.4-40.4-33.2-40.4-19.6 0-34 17.2-44.8 39.6v-18c0-9.6-8.4-17.6-21.6-17.6-5.6 0-10.4 2.8-10.4 6.8 0 2.8 1.6 5.2 1.6 12.8z" style="fill:#fff;fill-rule:nonzero" transform="matrix(.43445 0 0 .43445 -107.189 262.97)"/></g><path d="M203.317 174.06c-7.907 1.878-11.91 3.608-21.695 9.983-15.271 9.884-31.976 14.481-31.976 14.481s-1.383 2.075-5.387 3.014c-6.918 1.681-32.963 3.114-35.335 3.163-6.376.05-10.28-1.631-11.367-4.25-3.311-7.907 4.744-11.367 4.744-11.367s-1.779-1.087-2.817-2.076c-.939-.939-1.927-2.816-2.224-2.125-1.235 3.015-1.878 10.379-5.189 13.69-4.547 4.596-13.146 3.064-18.236.395-5.585-2.965.395-9.933.395-9.933s-3.015 1.779-5.436-1.878c-2.175-3.361-4.201-9.094-3.657-16.161.593-8.055 9.587-15.864 9.587-15.864s-1.581-11.91 3.608-24.117c4.695-11.12 17.347-20.065 17.347-20.065s-10.626-11.762-6.672-22.338c2.57-6.919 3.608-6.87 4.448-7.166 2.965-1.137 5.831-2.373 7.957-4.695 10.625-11.466 24.166-9.292 24.166-9.292s6.425-19.521 12.356-15.715c1.828 1.186 8.401 15.814 8.401 15.814s7.018-4.102 7.809-2.57c4.25 8.254 4.744 24.019 2.866 33.607-3.163 15.814-11.07 24.315-14.233 29.652-.741 1.236 8.5 5.14 14.332 21.3 5.387 14.777.593 27.182 1.433 28.566.148.247.198.346.198.346s6.177.494 18.582-7.166c6.622-4.102 14.48-8.698 23.425-8.797 8.649-.149 9.094 9.983 2.57 11.564m11.763-7.265c-.89-7.017-6.821-11.861-14.431-11.762-11.367.148-20.905 6.03-27.231 9.934-2.471 1.532-4.596 2.669-6.425 3.509.395-5.733.049-13.245-2.916-21.498-3.608-9.885-8.451-15.963-11.91-19.472 4.003-5.832 9.489-14.332 12.058-27.478 2.224-11.219 1.533-28.664-3.558-38.45-1.038-1.976-2.767-3.41-4.942-4.003-.889-.247-2.57-.741-5.881.198-4.991-10.329-6.721-11.416-8.056-12.306-2.767-1.779-6.029-2.174-9.093-1.038-4.102 1.483-7.611 5.437-10.922 12.454a53 53 0 0 0-1.334 3.015c-6.277.445-16.161 2.718-24.513 11.762-1.038 1.137-3.064 1.977-5.189 2.768h.049c-4.349 1.532-6.326 5.09-8.747 11.515-3.361 8.994.098 17.841 3.508 23.574-4.645 4.151-10.823 10.773-14.084 18.532-4.053 9.588-4.498 18.978-4.349 24.068-3.46 3.658-8.797 10.527-9.39 18.237-.791 10.773 3.113 18.088 4.843 20.756.494.791 1.038 1.434 1.631 2.076-.198 1.334-.247 2.768.049 4.25.643 3.46 2.817 6.277 6.128 8.056 6.524 3.459 15.617 4.942 22.635 1.433 2.521 2.669 7.117 5.239 15.469 5.239h.494c2.125 0 29.109-1.433 36.967-3.361 3.509-.84 5.93-2.323 7.512-3.657 5.041-1.582 18.977-6.326 32.123-14.826 9.291-6.03 12.504-7.315 19.423-8.995 6.721-1.631 10.922-7.759 10.082-14.53" style="fill:#fff;fill-opacity:.95;fill-rule:nonzero" transform="translate(74.406 8.027)scale(1.36796)"/></svg>