<svg xmlns="http://www.w3.org/2000/svg" xml:space="preserve" style="fill-rule:evenodd;clip-rule:evenodd;stroke-linejoin:round;stroke-miterlimit:2" viewBox="0 0 512 512"><path d="M512 122.18C512 54.747 457.253 0 389.82 0H122.18C54.747 0 0 54.747 0 122.18v267.64C0 457.253 54.747 512 122.18 512h267.64C457.253 512 512 457.253 512 389.82z" style="fill:#6cb740"/><clipPath id="0195a440a"><path d="M113.985 81.627h348.747v348.747H113.985z"/></clipPath><g clip-path="url(#0195a440a)"><path d="M278.011 220.839s0-46.176 46.176-46.176h138.545s0 46.176-46.176 46.176zm0 59.011s0-46.177 46.176-46.177h69.281s0 46.177-46.177 46.177zm0 59.01s0-46.177 46.176-46.177h23.089s0 46.177-46.177 46.177zm-15.506-36.031v36.839h-148.52l95.678-130.497h-82.129v-36.839H282.47l-95.227 130.512z" style="fill:#fff;fill-rule:nonzero"/></g></svg>