<?xml version="1.0" encoding="UTF-8" standalone="no"?>
<!DOCTYPE svg PUBLIC "-//W3C//DTD SVG 1.1//EN" "http://www.w3.org/Graphics/SVG/1.1/DTD/svg11.dtd">
<svg width="100%" height="100%" viewBox="0 0 512 512" version="1.1" xmlns="http://www.w3.org/2000/svg" xmlns:xlink="http://www.w3.org/1999/xlink" xml:space="preserve" xmlns:serif="http://www.serif.com/" style="fill-rule:evenodd;clip-rule:evenodd;stroke-linejoin:round;stroke-miterlimit:2;">
    <g transform="matrix(1,0,0,1,-44,-45)">
        <g id="adobe-premiere" transform="matrix(2.32005,0,0,2.32458,-316.889,-364.657)">
            <g id="back" transform="matrix(0.430185,0,0,0.430185,126.084,146.545)">
                <path d="M581,191.18C581,123.747 526.146,69 458.581,69L191.419,69C123.854,69 69,123.747 69,191.18L69,458.82C69,526.253 123.854,581 191.419,581L458.581,581C526.146,581 581,526.253 581,458.82L581,191.18Z" style="fill:#00005b;"/>
            </g>
            <g transform="matrix(0.860369,0,0,0.860369,265.894,286.355)">
                <g transform="matrix(1,0,0,1,-128,-125)">
                    <g transform="matrix(0.97811,0,0,0.97811,2.801,2.931)">
                        <path d="M60.8,175.04L60.8,65.28C60.8,64.533 61.12,64.107 61.867,64.107L63.415,64.104L64.613,64.094L65.458,64.078L66.358,64.055L67.325,64.021L67.84,64C68.8,63.96 69.775,63.935 70.77,63.914L73.825,63.85C74.172,63.842 74.523,63.833 74.876,63.822L75.946,63.787C76.906,63.752 77.89,63.726 78.898,63.707L81.991,63.652L84.132,63.605L85.227,63.573C87.431,63.503 89.588,63.479 91.729,63.471L94.933,63.467C103.68,63.467 110.933,64.533 116.907,66.773C122.261,68.592 127.144,71.58 131.2,75.52C134.636,78.969 137.292,83.116 138.987,87.68C140.587,92.16 141.44,96.747 141.44,101.547C141.44,110.72 139.307,118.294 135.04,124.267C130.773,130.24 124.8,134.72 117.867,137.28C110.855,139.858 103.146,140.84 94.739,140.903L91.69,140.903L90.503,140.891L89.742,140.873L89.294,140.854L88.892,140.83L88.533,140.8C88.303,140.778 88.072,140.76 87.841,140.748L87.321,140.725L86.751,140.71L85.8,140.697L83.947,140.693L83.947,174.933C84.053,175.68 83.52,176.32 82.773,176.427L62.08,176.427C61.227,176.427 60.8,176 60.8,175.04M84.053,84.693L84.053,120.533L85.307,120.623C86.274,120.697 87.243,120.738 88.213,120.747L93.867,120.747C98.027,120.747 102.187,120.107 106.133,118.827C109.547,117.867 112.533,115.84 114.88,113.173C117.12,110.507 118.187,106.88 118.187,102.187C118.287,98.854 117.436,95.56 115.733,92.693C113.996,90.036 111.572,87.966 108.651,86.765L108.267,86.613C104.32,85.013 100.053,84.373 95.68,84.48L93.214,84.483L92.055,84.49L90.948,84.505L89.897,84.529C89.384,84.542 88.894,84.562 88.427,84.587C88.198,84.576 87.968,84.566 87.739,84.559L87.1,84.545L86.8,84.543L86.234,84.546L85.72,84.56L85.482,84.57L85.045,84.595L84.661,84.625L84.488,84.641L84.185,84.676L84.053,84.693ZM156.373,90.88L175.04,90.88C176.047,90.88 176.865,91.546 177.222,92.429L177.28,92.587C177.6,93.44 177.813,94.293 177.92,95.253C178.133,96.32 178.347,97.493 178.453,98.56L178.543,99.592C178.613,100.473 178.667,101.41 178.667,102.4C181.722,98.834 185.385,95.837 189.487,93.551L190.08,93.227C194.987,90.453 200.64,89.067 206.293,89.067C207.04,88.96 207.68,89.493 207.787,90.24L207.787,111.467C207.787,112.32 207.253,112.64 206.08,112.64C202.496,112.54 198.82,112.813 195.31,113.543L194.56,113.707C191.467,114.347 188.48,115.307 185.6,116.587C183.573,117.547 181.653,118.827 180.16,120.533L180.16,174.933C180.16,176 179.733,176.427 178.773,176.427L157.76,176.427C156.907,176.533 156.16,176 156.053,175.147L156.053,115.627C156.053,113.067 156.053,110.4 155.947,107.627L155.883,105.547L155.797,101.387C155.78,100.694 155.759,100 155.733,99.307C155.733,96.853 155.52,94.507 155.307,92.053C155.2,91.52 155.52,90.987 156.053,90.88C156.053,90.789 156.21,90.776 156.322,90.84L156.373,90.88Z" style="fill:#99f;fill-rule:nonzero;"/>
                    </g>
                </g>
            </g>
        </g>
    </g>
</svg>
