<?xml version="1.0" encoding="UTF-8" standalone="no"?>
<!DOCTYPE svg PUBLIC "-//W3C//DTD SVG 1.1//EN" "http://www.w3.org/Graphics/SVG/1.1/DTD/svg11.dtd">
<svg width="100%" height="100%" viewBox="0 0 512 512" version="1.1" xmlns="http://www.w3.org/2000/svg" xmlns:xlink="http://www.w3.org/1999/xlink" xml:space="preserve" xmlns:serif="http://www.serif.com/" style="fill-rule:evenodd;clip-rule:evenodd;stroke-linejoin:round;stroke-miterlimit:2;">
    <g transform="matrix(1,0,0,1,-44,-45)">
        <g id="adobe-lightroom" transform="matrix(2.32005,0,0,2.32458,-316.889,-364.657)">
            <g id="back" transform="matrix(0.430185,0,0,0.430185,126.084,146.545)">
                <path d="M581,191.18C581,123.747 526.146,69 458.581,69L191.419,69C123.854,69 69,123.747 69,191.18L69,458.82C69,526.253 123.854,581 191.419,581L458.581,581C526.146,581 581,526.253 581,458.82L581,191.18Z" style="fill:#001e36;"/>
            </g>
            <g transform="matrix(0.860369,0,0,0.860369,265.894,286.355)">
                <g transform="matrix(1,0,0,1,-128,-125)">
                    <g transform="matrix(0.98225,0,0,0.98225,2.272,2.416)">
                        <path d="M134.443,176.409L66.78,176.409C65.634,176.409 65.062,175.779 65.063,174.519L65.063,65.47C65.055,65.409 65.05,65.347 65.05,65.285C65.05,64.531 65.67,63.912 66.423,63.912C66.485,63.912 66.547,63.916 66.608,63.924L87.56,63.924C87.607,63.918 87.654,63.915 87.702,63.915C88.289,63.915 88.772,64.398 88.772,64.985C88.772,65.032 88.768,65.08 88.762,65.127L88.762,154.772L138.049,154.772C139.079,154.772 139.48,155.287 139.252,156.317L136.16,174.864C136.145,175.377 135.891,175.854 135.473,176.152C135.155,176.317 134.802,176.406 134.443,176.41L134.443,176.409ZM151.443,91.057L170.162,91.057C171.206,91.067 172.118,91.767 172.394,92.775C172.803,93.527 173.093,94.338 173.254,95.179C173.493,96.285 173.664,97.401 173.768,98.528C173.881,99.73 173.939,101.018 173.94,102.392C177.15,98.654 181.021,95.539 185.36,93.204C190.234,90.569 195.707,89.238 201.246,89.34C201.307,89.332 201.369,89.328 201.431,89.328C202.184,89.328 202.804,89.947 202.804,90.701C202.804,90.763 202.799,90.825 202.791,90.886L202.791,111.666C202.791,112.468 202.219,112.869 201.074,112.868C194.157,112.442 187.237,113.678 180.895,116.474C178.741,117.407 176.787,118.749 175.142,120.424L175.142,174.864C175.142,175.894 174.684,176.409 173.768,176.409L152.988,176.409C152.919,176.419 152.849,176.423 152.78,176.423C151.944,176.423 151.257,175.736 151.257,174.9C151.257,174.831 151.261,174.761 151.271,174.692L151.271,115.615C151.271,114.177 151.262,112.691 151.243,111.158L151.208,108.824C151.201,108.429 151.194,108.031 151.185,107.63C151.141,105.542 151.082,103.454 151.007,101.367L150.927,99.301C150.851,96.942 150.622,94.59 150.241,92.26C150.221,92.18 150.211,92.098 150.211,92.016C150.211,91.473 150.657,91.026 151.201,91.026C151.239,91.026 151.278,91.028 151.316,91.033L151.443,91.057Z" style="fill:#31a8ff;fill-rule:nonzero;"/>
                    </g>
                </g>
            </g>
        </g>
    </g>
</svg>
