<?xml version="1.0" encoding="UTF-8" standalone="no"?>
<!DOCTYPE svg PUBLIC "-//W3C//DTD SVG 1.1//EN" "http://www.w3.org/Graphics/SVG/1.1/DTD/svg11.dtd">
<svg width="100%" height="100%" viewBox="0 0 512 512" version="1.1" xmlns="http://www.w3.org/2000/svg" xmlns:xlink="http://www.w3.org/1999/xlink" xml:space="preserve" xmlns:serif="http://www.serif.com/" style="fill-rule:evenodd;clip-rule:evenodd;stroke-linejoin:round;stroke-miterlimit:2;">
    <g transform="matrix(1,0,0,1,-44,-45)">
        <g id="adobe-photoshop" transform="matrix(2.32005,0,0,2.32458,-316.889,-364.657)">
            <g id="back" transform="matrix(0.430185,0,0,0.430185,126.084,146.545)">
                <path d="M581,191.18C581,123.747 526.146,69 458.581,69L191.419,69C123.854,69 69,123.747 69,191.18L69,458.82C69,526.253 123.854,581 191.419,581L458.581,581C526.146,581 581,526.253 581,458.82L581,191.18Z" style="fill:#000d26;"/>
            </g>
            <g transform="matrix(0.860369,0,0,0.860369,265.894,286.355)">
                <g transform="matrix(1,0,0,1,-128,-125)">
                    <g transform="matrix(0.98728,0,0,0.98728,1.629,1.788)">
                        <path d="M57.644,175.035L57.644,65.297C57.644,64.496 57.988,64.096 58.675,64.095L59.762,64.092L61.62,64.072L64.202,64.021L72.852,63.838L82.127,63.666C85.389,63.609 88.623,63.581 91.829,63.58C100.529,63.58 107.856,64.668 113.811,66.843C119.182,68.66 124.082,71.652 128.151,75.601C131.601,79.024 134.267,83.156 135.965,87.709C137.571,92.14 138.385,96.82 138.37,101.533C138.37,110.694 136.252,118.25 132.015,124.202C127.872,130.008 122.092,134.45 115.415,136.958L114.842,137.168C107.869,139.769 100.147,140.709 91.678,140.768L90.362,140.772L88.409,140.762L87.424,140.748L86.326,140.722L85.664,140.696L85.262,140.675L84.273,140.639L83.064,140.614L81.244,140.601L80.839,140.6L80.839,174.863C80.847,174.925 80.852,174.987 80.852,175.049C80.852,175.802 80.232,176.422 79.479,176.422C79.417,176.422 79.355,176.417 79.293,176.409L58.847,176.409C58.044,176.41 57.643,175.952 57.644,175.035M80.84,84.703L80.84,120.495C82.211,120.606 83.585,120.663 84.96,120.667L90.628,120.667C94.536,120.654 98.421,120.072 102.161,118.94L102.907,118.707C106.31,117.697 109.351,115.729 111.666,113.039C113.818,110.501 114.933,107.004 115.01,102.547L115.015,102.048C115.105,98.726 114.241,95.448 112.524,92.603C110.72,89.851 108.111,87.722 105.054,86.506C101.062,84.954 96.798,84.224 92.517,84.36L90.339,84.366L88.965,84.378L87.654,84.395L85.804,84.431L84.454,84.469L83.753,84.495L82.816,84.539L82.018,84.588L81.563,84.624L81.17,84.662L80.997,84.682L80.84,84.703ZM204.77,113.987C201.774,112.448 198.596,111.292 195.312,110.545L194.552,110.381C190.938,109.552 187.25,109.095 183.543,109.018L182.617,109.007C180.444,108.948 178.274,109.208 176.177,109.78C174.843,110.078 173.656,110.838 172.827,111.926C172.267,112.797 171.969,113.811 171.969,114.846C172,115.85 172.363,116.816 172.999,117.593C173.911,118.659 175.006,119.552 176.234,120.23L176.606,120.427C179.055,121.745 181.577,122.921 184.162,123.947C189.926,125.876 195.433,128.5 200.562,131.761C204.058,133.965 206.95,137.005 208.978,140.606C210.683,144.014 211.538,147.786 211.468,151.596C211.57,156.628 210.131,161.573 207.346,165.765C204.364,170.02 200.22,173.329 195.41,175.295C190.373,177.508 184.187,178.652 176.853,178.727L176.091,178.731C171.544,178.776 167.004,178.378 162.535,177.543L161.579,177.357C157.816,176.667 154.153,175.513 150.674,173.922C149.964,173.554 149.504,172.831 149.472,172.032L149.472,153.314C149.43,152.944 149.596,152.58 149.902,152.369C150.203,152.199 150.58,152.234 150.846,152.455C154.955,154.877 159.416,156.645 164.069,157.693C168.171,158.722 172.378,159.269 176.606,159.325C180.612,159.325 183.56,158.81 185.45,157.779C187.189,156.981 188.303,155.228 188.284,153.314C188.284,151.827 187.425,150.396 185.708,149.021C184.988,148.445 183.956,147.818 182.611,147.141L181.968,146.825L181.282,146.502L180.922,146.338L180.168,146.004L179.775,145.834L178.955,145.49L178.528,145.315L177.642,144.96L177.182,144.78L176.229,144.413L175.232,144.04C169.84,142.162 164.727,139.563 160.033,136.312C156.676,133.978 153.912,130.89 151.962,127.296C150.274,123.912 149.42,120.172 149.472,116.391C149.461,111.847 150.71,107.389 153.078,103.511C155.778,99.241 159.654,95.841 164.241,93.723C169.278,91.206 175.574,89.946 183.131,89.944C187.557,89.908 191.979,90.224 196.355,90.889C199.524,91.291 202.622,92.129 205.561,93.379C206.034,93.515 206.415,93.864 206.591,94.324C206.708,94.743 206.765,95.176 206.763,95.612L206.763,112.957C206.788,113.367 206.591,113.76 206.248,113.987C205.783,114.218 205.235,114.218 204.77,113.987" style="fill:#31a8ff;fill-rule:nonzero;"/>
                    </g>
                </g>
            </g>
        </g>
    </g>
</svg>
