<?xml version="1.0" encoding="UTF-8" standalone="no"?>
<!DOCTYPE svg PUBLIC "-//W3C//DTD SVG 1.1//EN" "http://www.w3.org/Graphics/SVG/1.1/DTD/svg11.dtd">
<svg width="100%" height="100%" viewBox="0 0 512 512" version="1.1" xmlns="http://www.w3.org/2000/svg" xmlns:xlink="http://www.w3.org/1999/xlink" xml:space="preserve" xmlns:serif="http://www.serif.com/" style="fill-rule:evenodd;clip-rule:evenodd;stroke-linejoin:round;stroke-miterlimit:2;">
    <g transform="matrix(1,0,0,1,-44,-45)">
        <g transform="matrix(1,0,0,1,0,1)">
            <g id="apple">
                <g id="back" transform="matrix(1,0,0,1,-25,-25)">
                    <path d="M581,191.18C581,123.747 526.253,69 458.82,69L191.18,69C123.747,69 69,123.747 69,191.18L69,458.82C69,526.253 123.747,581 191.18,581L458.82,581C526.253,581 581,526.253 581,458.82L581,191.18Z"/>
                </g>
                <g transform="matrix(2.73198,0,0,2.73198,125.153,102.004)">
                    <path d="M97.905,67.885C98.079,86.685 114.399,92.942 114.579,93.022C114.441,93.462 111.972,101.938 105.982,110.691C100.804,118.259 95.429,125.799 86.964,125.957C78.646,126.109 75.971,121.023 66.46,121.023C56.952,121.023 53.981,125.799 46.106,126.109C37.934,126.419 31.711,117.924 26.49,110.385C15.822,94.961 7.669,66.8 18.616,47.791C24.054,38.351 33.774,32.374 44.323,32.22C52.347,32.067 59.921,37.618 64.826,37.618C69.728,37.618 78.932,30.942 88.608,31.922C92.659,32.091 104.029,33.558 111.33,44.246C110.743,44.611 97.764,52.167 97.905,67.885M82.272,21.719C86.61,16.468 89.53,9.156 88.734,1.883C82.48,2.134 74.918,6.05 70.433,11.299C66.413,15.946 62.893,23.386 63.842,30.515C70.813,31.055 77.933,26.973 82.272,21.719" style="fill:white;fill-rule:nonzero;"/>
                </g>
            </g>
        </g>
    </g>
</svg>
