<?xml version="1.0" encoding="UTF-8" standalone="no"?>
<!DOCTYPE svg PUBLIC "-//W3C//DTD SVG 1.1//EN" "http://www.w3.org/Graphics/SVG/1.1/DTD/svg11.dtd">
<svg width="100%" height="100%" viewBox="0 0 512 512" version="1.1" xmlns="http://www.w3.org/2000/svg" xmlns:xlink="http://www.w3.org/1999/xlink" xml:space="preserve" xmlns:serif="http://www.serif.com/" style="fill-rule:evenodd;clip-rule:evenodd;stroke-linejoin:round;stroke-miterlimit:2;">
    <g transform="matrix(1,0,0,1,-43,-45)">
        <g id="astro" transform="matrix(2.32458,0,0,2.32458,-318.594,-364.657)">
            <g id="back" transform="matrix(0.430185,0,0,0.430185,125.869,146.545)">
                <path d="M581,191.18C581,123.747 526.253,69 458.82,69L191.18,69C123.747,69 69,123.747 69,191.18L69,458.82C69,526.253 123.747,581 191.18,581L458.82,581C526.253,581 581,526.253 581,458.82L581,191.18Z" style="fill:rgb(23,25,31);"/>
            </g>
            <g transform="matrix(2.99417,0,0,2.99417,-475.179,-423.322)">
                <g transform="matrix(0.430185,0,0,0.430185,229.188,217.321)">
                    <path d="M27.589,91.137C22.756,86.718 21.344,77.434 23.358,70.707C26.85,74.948 31.689,76.291 36.701,77.05C44.438,78.22 52.036,77.782 59.223,74.246C60.045,73.841 60.805,73.303 61.704,72.757C62.378,74.714 62.554,76.689 62.318,78.7C61.745,83.596 59.309,87.378 55.433,90.245C53.884,91.392 52.244,92.417 50.643,93.498C45.726,96.821 44.396,100.718 46.244,106.386C46.287,106.525 46.327,106.663 46.426,107C43.916,105.876 42.082,104.24 40.685,102.089C39.209,99.819 38.507,97.308 38.47,94.591C38.451,93.269 38.451,91.935 38.273,90.631C37.839,87.453 36.347,86.03 33.536,85.948C30.652,85.864 28.37,87.647 27.765,90.455C27.719,90.671 27.652,90.884 27.585,91.134L27.589,91.137Z" style="fill:white;fill-rule:nonzero;"/>
                </g>
                <g transform="matrix(0.430185,0,0,0.430185,229.188,217.321)">
                    <path d="M27.589,91.137C22.756,86.718 21.344,77.434 23.358,70.707C26.85,74.948 31.689,76.291 36.701,77.05C44.438,78.22 52.036,77.782 59.223,74.246C60.045,73.841 60.805,73.303 61.704,72.757C62.378,74.714 62.554,76.689 62.318,78.7C61.745,83.596 59.309,87.378 55.433,90.245C53.884,91.392 52.244,92.417 50.643,93.498C45.726,96.821 44.396,100.718 46.244,106.386C46.287,106.525 46.327,106.663 46.426,107C43.916,105.876 42.082,104.24 40.685,102.089C39.209,99.819 38.507,97.308 38.47,94.591C38.451,93.269 38.451,91.935 38.273,90.631C37.839,87.453 36.347,86.03 33.536,85.948C30.652,85.864 28.37,87.647 27.765,90.455C27.719,90.671 27.652,90.884 27.585,91.134L27.589,91.137Z" style="fill:url(#_Linear1);fill-rule:nonzero;"/>
                </g>
                <g transform="matrix(0.430185,0,0,0.430185,229.188,217.321)">
                    <path d="M0,69.587C0,69.587 14.314,62.614 28.668,62.614L39.49,29.12C39.895,27.501 41.078,26.4 42.414,26.4C43.75,26.4 44.933,27.501 45.338,29.12L56.16,62.614C73.16,62.614 84.828,69.587 84.828,69.587C84.828,69.587 60.515,3.352 60.467,3.219C59.769,1.261 58.591,0 57.003,0L27.827,0C26.239,0 25.109,1.261 24.363,3.219C24.311,3.35 0,69.587 0,69.587Z" style="fill:white;fill-rule:nonzero;"/>
                </g>
            </g>
        </g>
    </g>
    <defs>
        <linearGradient id="_Linear1" x1="0" y1="0" x2="1" y2="0" gradientUnits="userSpaceOnUse" gradientTransform="matrix(46.6749,-22.0532,22.0532,46.6749,22.4702,107)"><stop offset="0" style="stop-color:rgb(216,51,51);stop-opacity:1"/><stop offset="1" style="stop-color:rgb(240,65,255);stop-opacity:1"/></linearGradient>
    </defs>
</svg>
