<?xml version="1.0" encoding="UTF-8" standalone="no"?>
<!DOCTYPE svg PUBLIC "-//W3C//DTD SVG 1.1//EN" "http://www.w3.org/Graphics/SVG/1.1/DTD/svg11.dtd">
<svg width="100%" height="100%" viewBox="0 0 512 512" version="1.1" xmlns="http://www.w3.org/2000/svg" xmlns:xlink="http://www.w3.org/1999/xlink" xml:space="preserve" xmlns:serif="http://www.serif.com/" style="fill-rule:evenodd;clip-rule:evenodd;stroke-linejoin:round;stroke-miterlimit:2;">
    <g transform="matrix(1,0,0,1,-44,-45)">
        <g id="ava" transform="matrix(1,0,0,1,0,3)">
            <g id="back" transform="matrix(1,0,0,1,-25,-27)">
                <path d="M581,191.18C581,123.747 526.253,69 458.82,69L191.18,69C123.747,69 69,123.747 69,191.18L69,458.82C69,526.253 123.747,581 191.18,581L458.82,581C526.253,581 581,526.253 581,458.82L581,191.18Z" style="fill:rgb(11,11,46);"/>
            </g>
            <g transform="matrix(0.712766,0,0,0.712766,300,318)">
                <g transform="matrix(1,0,0,1,-256,-256)">
                    <g transform="matrix(1,0,0,1,-0.063,116.009)">
                        <path d="M116.548,6.281C122.766,10.151 127.143,14.91 129.745,20.429C133.615,29.312 137.929,38.955 142.624,49.424C147.319,59.892 152.077,70.487 156.772,81.209C161.467,91.931 166.035,102.4 170.349,112.551C174.664,122.702 178.597,132.029 182.023,140.467C185.449,148.905 188.177,156.074 190.208,161.975C192.238,167.875 193.253,171.809 193.253,173.649C193.253,176.821 192.809,179.866 191.984,182.912C191.159,185.957 189.637,188.748 187.416,191.223C185.195,193.698 182.087,195.727 178.153,197.187C174.156,198.646 169.017,199.407 162.736,199.407C156.074,199.407 150.682,198.519 146.494,196.743C142.307,194.966 138.881,192.745 136.089,189.954C133.298,187.162 131.014,184.244 129.174,181.199C127.374,178.214 125.469,175.294 123.464,172.443C121.497,169.652 119.276,167.431 116.802,165.655C114.328,163.879 110.902,162.99 106.651,162.99L88.886,162.99C83.684,162.99 79.623,163.878 76.514,165.655C73.469,167.431 70.995,169.652 69.028,172.443C67.061,175.234 65.285,178.153 63.635,181.199C61.986,184.244 59.829,187.162 57.227,189.954C54.626,192.745 51.263,194.966 47.076,196.743C42.889,198.519 37.306,199.407 30.263,199.407C19.922,199.407 12.308,197.123 7.486,192.492C2.665,187.86 0.254,182.404 0.254,176.123C0.254,173.712 1.205,169.525 3.172,163.497C5.139,157.469 7.74,150.301 11.103,141.99C14.592,133.615 18.399,124.415 22.65,114.201C26.901,104.05 31.405,93.518 36.227,82.732C41.049,71.883 45.871,61.097 50.629,50.248C55.451,39.399 60.082,28.994 64.523,19.033C67.125,13.323 71.439,8.755 77.403,5.456C83.43,2.157 90.092,0.444 97.515,0.444C103.986,0.444 110.331,2.411 116.548,6.281M340.953,7.233C345.774,11.61 348.185,17.194 348.185,24.046C348.185,27.916 347.234,32.991 345.267,39.336C343.3,45.617 340.826,52.723 337.78,60.717C334.735,68.647 331.182,77.276 327.249,86.539C323.189,95.953 319.171,105.385 315.194,114.835C309.674,127.968 304.853,139.769 300.919,150.237C296.922,160.706 292.861,169.588 288.738,176.884C284.55,184.18 280.046,189.827 275.16,193.824C270.274,197.821 264.184,199.788 257.015,199.788C249.592,199.788 243.438,198.202 238.553,194.903C233.667,191.667 229.226,186.782 225.229,180.183C221.232,173.649 217.362,165.337 213.555,155.376C209.748,145.415 205.308,133.551 200.105,119.847C196.287,109.656 192.311,99.524 188.177,89.457C184.117,79.56 180.437,70.424 177.075,62.113C173.775,53.801 171.047,46.315 168.89,39.78C166.797,33.245 165.718,28.106 165.718,24.363C165.718,15.861 168.573,9.771 174.346,6.027C180.057,2.347 187.226,0.508 195.727,0.508C203.468,0.508 209.558,1.459 213.873,3.426C218.187,5.393 221.994,7.931 225.102,11.039C227.323,13.26 229.543,16.496 231.764,20.746C233.985,24.997 236.078,29.692 237.982,34.768C239.948,39.843 241.852,44.982 243.819,50.185C245.786,55.388 247.562,60.146 249.211,64.46C250.861,68.838 252.511,72.327 254.097,74.992C255.683,77.657 257.079,78.989 258.411,78.989C259.87,78.989 261.393,77.657 262.979,74.992C264.565,72.327 266.151,68.838 267.864,64.587C269.514,60.336 271.227,55.641 273.003,50.566C274.767,45.505 276.607,40.471 278.523,35.466C280.319,30.797 282.352,26.223 284.614,21.762C286.707,17.574 288.928,14.402 291.148,12.181C293.179,10.151 295.145,8.438 297.112,7.042C299.104,5.632 301.255,4.461 303.52,3.553C305.804,2.601 308.469,1.967 311.451,1.459C314.433,1.015 317.986,0.761 322.3,0.761C329.85,0.761 336.131,2.918 340.953,7.233M435.168,6.281C441.386,10.151 445.764,14.91 448.365,20.429C452.235,29.312 456.549,38.955 461.244,49.424C465.939,59.892 470.697,70.487 475.392,81.209C480.087,91.931 484.655,102.4 488.97,112.551C493.285,122.702 497.217,132.029 500.643,140.467C504.07,148.905 506.798,156.074 508.828,161.975C510.858,167.875 511.873,171.809 511.873,173.649C511.873,176.821 511.429,179.866 510.604,182.912C509.779,185.957 508.257,188.748 506.036,191.223C503.815,193.698 500.707,195.727 496.773,197.187C492.776,198.646 487.637,199.407 481.356,199.407C474.694,199.407 469.302,198.519 465.114,196.743C460.927,194.966 457.501,192.745 454.709,189.954C451.918,187.162 449.634,184.244 447.794,181.199C445.994,178.214 444.089,175.294 442.084,172.443C440.117,169.652 437.896,167.431 435.422,165.655C432.948,163.879 429.522,162.99 425.271,162.99L407.506,162.99C402.304,162.99 398.243,163.878 395.135,165.655C392.089,167.431 389.615,169.652 387.648,172.443C385.681,175.234 383.905,178.153 382.255,181.199C380.606,184.244 378.449,187.162 375.847,189.954C373.246,192.745 369.884,194.966 365.696,196.743C361.509,198.519 355.926,199.407 348.883,199.407C338.542,199.407 330.928,197.123 326.107,192.492C321.285,187.86 318.874,182.404 318.874,176.123C318.874,173.712 319.826,169.525 321.792,163.497C323.758,157.469 326.36,150.301 329.723,141.99C333.022,133.678 336.829,124.415 341.08,114.264C345.331,104.113 349.835,93.581 354.657,82.796C359.479,71.946 364.3,61.161 369.059,50.312C373.881,39.463 378.512,29.058 382.953,19.097C385.554,13.387 389.869,8.819 395.832,5.52C401.86,2.221 408.521,0.508 415.944,0.508C422.606,0.444 428.951,2.411 435.168,6.281" style="fill:rgb(75,75,119);fill-rule:nonzero;"/>
                    </g>
                    <g transform="matrix(1,0,0,1,-0.127,116.009)">
                        <path d="M96.88,279.538C98.403,279.538 99.862,278.713 100.56,277.317C100.56,277.254 106.587,266.151 112.551,253.018C115.533,246.42 118.578,239.377 120.862,232.843C122.004,229.543 122.956,226.435 123.654,223.58C124.352,220.661 124.796,217.997 124.796,215.586C124.796,206.132 121.307,197.694 115.47,191.857C110.584,186.972 103.986,183.99 96.817,183.99C89.648,183.99 83.049,186.972 78.164,191.857C72.391,197.631 68.838,206.069 68.838,215.586C68.838,218.06 69.282,220.725 69.98,223.58C71.185,228.655 73.279,234.429 75.626,240.393C82.796,258.221 93.074,277.254 93.074,277.381C93.898,278.65 95.294,279.538 96.88,279.538M415.5,279.538C417.023,279.538 418.482,278.713 419.18,277.317C419.18,277.254 425.207,266.151 431.171,253.018C434.153,246.42 437.199,239.377 439.483,232.843C440.625,229.543 441.576,226.435 442.274,223.58C442.972,220.661 443.416,217.997 443.416,215.586C443.416,206.132 439.927,197.694 434.09,191.857C429.204,186.972 422.606,183.99 415.437,183.99C408.268,183.99 401.669,186.972 396.784,191.857C391.011,197.631 387.458,206.069 387.458,215.586C387.458,218.06 387.902,220.725 388.6,223.58C389.805,228.655 391.899,234.429 394.246,240.393C401.416,258.221 411.694,277.254 411.694,277.381C412.518,278.65 413.914,279.538 415.5,279.538" style="fill:rgb(224,199,193);fill-rule:nonzero;"/>
                    </g>
                </g>
            </g>
        </g>
    </g>
</svg>
