<?xml version="1.0" encoding="UTF-8" standalone="no"?>
<!DOCTYPE svg PUBLIC "-//W3C//DTD SVG 1.1//EN" "http://www.w3.org/Graphics/SVG/1.1/DTD/svg11.dtd">
<svg width="100%" height="100%" viewBox="0 0 512 513" version="1.1" xmlns="http://www.w3.org/2000/svg" xmlns:xlink="http://www.w3.org/1999/xlink" xml:space="preserve" xmlns:serif="http://www.serif.com/" style="fill-rule:evenodd;clip-rule:evenodd;stroke-linejoin:round;stroke-miterlimit:2;">
    <g transform="matrix(1,0,0,1,-44,-43)">
        <g id="bash" transform="matrix(1,0,0,1,0,-0.5)">
            <g id="back" transform="matrix(1,0,0,1,-25,-25)">
                <path d="M581,191.18C581,123.747 526.253,69 458.82,69L191.18,69C123.747,69 69,123.747 69,191.18L69,458.82C69,526.253 123.747,581 191.18,581L458.82,581C526.253,581 581,526.253 581,458.82L581,191.18Z" style="fill:#202426;"/>
            </g>
            <g transform="matrix(0.401163,0,0,0.401163,300,302)">
                <g transform="matrix(1,0,0,1,-512,-512)">
                    <g transform="matrix(3.62339,0,0,3.81776,107.081,24.4013)">
                        <path d="M207.953,52.162L127.317,4.287C117.747,-1.421 105.773,-1.421 96.203,4.287L15.55,52.162C5.861,58.008 -0.057,68.553 -0,79.869L0,175.603C-0.052,186.914 5.866,197.451 15.55,203.294L96.186,251.153C105.758,256.857 117.729,256.857 127.301,251.153L207.937,203.294C217.634,197.453 223.559,186.907 223.503,175.587L223.503,79.869C223.562,68.552 217.644,58.007 207.953,52.162" style="fill:#fff;fill-rule:nonzero;"/>
                    </g>
                    <g transform="matrix(3.69717,0,0,3.8955,97.927,13.376)">
                        <path d="M208.412,52.277L127.598,4.296C118.006,-1.425 106.006,-1.425 96.414,4.296L15.584,52.277C5.873,58.136 -0.058,68.704 0,80.045L0,175.99C-0.052,187.325 5.878,197.886 15.584,203.742L96.398,251.706C105.991,257.422 117.988,257.422 127.581,251.706L208.395,203.742C218.114,197.888 224.051,187.318 223.995,175.973L223.995,80.045C224.055,68.704 218.124,58.135 208.412,52.277M99.23,246.803L18.416,198.839C10.439,194.006 5.565,185.317 5.6,175.99L5.6,80.045C5.563,70.717 10.437,62.028 18.416,57.196L99.23,9.216C107.084,4.53 116.912,4.53 124.766,9.216L205.515,57.196C212.167,61.226 216.713,67.994 217.927,75.676C215.24,69.964 209.204,68.394 202.165,72.44L125.769,119.756C116.238,125.307 109.215,131.57 109.198,143.059L109.198,237.272C109.198,244.149 111.966,248.599 116.238,249.91C114.839,250.165 113.42,250.301 111.998,250.315C107.504,250.311 103.094,249.098 99.23,246.803" style="fill:#2f3a3e;fill-rule:nonzero;"/>
                    </g>
                    <g transform="matrix(3.69717,0,0,3.8955,97.927,13.376)">
                        <path d="M187.007,185.06L166.921,197.073C166.384,197.289 166.023,197.803 166.001,198.381L166.001,203.661C166.001,204.307 166.436,204.565 166.969,204.258L187.363,191.858C187.86,191.483 188.099,190.853 187.976,190.243L187.976,185.609C187.96,185.011 187.492,184.753 187.007,185.06" style="fill:#3ab14a;fill-rule:nonzero;"/>
                    </g>
                    <g transform="matrix(3.69717,0,0,3.8955,97.927,13.376)">
                        <path d="M144.263,140.832C144.909,140.509 145.442,140.832 145.458,141.752L145.522,148.76C147.937,147.663 150.632,147.336 153.24,147.823C153.741,147.953 153.951,148.631 153.757,149.438L152.223,155.59C152.107,156.054 151.867,156.478 151.529,156.817C151.41,156.934 151.274,157.033 151.125,157.108C150.943,157.207 150.732,157.241 150.528,157.205C147.986,156.642 145.322,157.069 143.084,158.399C139.816,159.872 137.67,163.099 137.578,166.683C137.578,169.912 139.193,170.8 144.828,170.897C152.272,171.026 155.501,174.272 155.582,181.78C155.405,189.613 151.788,196.983 145.7,201.915L145.829,208.793C145.817,209.646 145.373,210.438 144.65,210.892L140.582,213.233C139.936,213.556 139.403,213.233 139.387,212.329L139.387,205.564C135.899,207.017 132.363,207.356 130.102,206.452C129.683,206.29 129.489,205.661 129.666,204.934L131.136,198.718C131.247,198.226 131.5,197.777 131.862,197.426C131.978,197.315 132.107,197.224 132.25,197.151C132.46,197.055 132.702,197.055 132.912,197.151C135.789,197.931 138.861,197.543 141.453,196.07C145.189,194.267 147.626,190.528 147.767,186.382C147.767,182.894 145.845,181.441 141.308,181.408C135.447,181.408 130.005,180.278 129.892,171.72C130.027,164.248 133.501,157.217 139.354,152.57L139.064,145.531C139.06,144.665 139.507,143.857 140.242,143.399L144.263,140.832Z" style="fill:#fff;fill-rule:nonzero;"/>
                    </g>
                </g>
            </g>
        </g>
    </g>
</svg>
