<?xml version="1.0" encoding="UTF-8" standalone="no"?>
<!DOCTYPE svg PUBLIC "-//W3C//DTD SVG 1.1//EN" "http://www.w3.org/Graphics/SVG/1.1/DTD/svg11.dtd">
<svg width="100%" height="100%" viewBox="0 0 512 512" version="1.1" xmlns="http://www.w3.org/2000/svg" xmlns:xlink="http://www.w3.org/1999/xlink" xml:space="preserve" xmlns:serif="http://www.serif.com/" style="fill-rule:evenodd;clip-rule:evenodd;stroke-linejoin:round;stroke-miterlimit:2;">
    <g transform="matrix(1,0,0,1,-44,-45)">
        <g id="bootstrap" transform="matrix(2.32458,0,0,2.32458,-317.594,-364.657)">
            <g id="back" transform="matrix(0.430185,0,0,0.430185,125.869,146.545)">
                <path d="M581,191.18C581,123.747 526.253,69 458.82,69L191.18,69C123.747,69 69,123.747 69,191.18L69,458.82C69,526.253 123.747,581 191.18,581L458.82,581C526.253,581 581,526.253 581,458.82L581,191.18Z" style="fill:#7c24fc;"/>
            </g>
            <g transform="matrix(3.65061,0,0,3.65061,265.679,286.355)">
                <g transform="matrix(1,0,0,1,-20,-16)">
                    <path d="M8.308,0.068C6.026,0.068 4.337,2.065 4.413,4.232C4.485,6.313 4.391,9.009 3.712,11.207C3.032,13.412 1.88,14.808 0,14.988L0,17.012C1.88,17.192 3.032,18.588 3.712,20.793C4.391,22.991 4.485,25.687 4.413,27.768C4.337,29.934 6.026,31.932 8.308,31.932L31.695,31.932C33.977,31.932 35.666,29.935 35.59,27.768C35.518,25.687 35.612,22.991 36.291,20.793C36.972,18.588 38.12,17.192 40,17.012L40,14.988C38.12,14.808 36.972,13.412 36.291,11.207C35.612,9.009 35.518,6.313 35.59,4.232C35.666,2.066 33.977,0.068 31.695,0.068L8.308,0.068L8.308,0.068ZM27.119,19.682C27.119,22.665 24.894,24.475 21.201,24.475L14.915,24.475C14.543,24.475 14.237,24.169 14.237,23.797L14.237,8.203C14.237,7.831 14.543,7.525 14.915,7.525L21.165,7.525C24.244,7.525 26.265,9.193 26.265,11.754C26.265,13.551 24.905,15.16 23.174,15.442L23.174,15.536C25.531,15.795 27.119,17.427 27.119,19.682ZM20.516,9.675L16.932,9.675L16.932,14.737L19.95,14.737C22.284,14.737 23.571,13.797 23.571,12.118C23.571,10.544 22.464,9.675 20.516,9.675ZM16.932,16.745L16.932,22.325L20.647,22.325C23.077,22.325 24.364,21.35 24.364,19.518C24.364,17.685 23.041,16.745 20.491,16.745L16.932,16.745Z" style="fill:#fff;"/>
                </g>
            </g>
        </g>
    </g>
</svg>
