<?xml version="1.0" encoding="UTF-8" standalone="no"?>
<!DOCTYPE svg PUBLIC "-//W3C//DTD SVG 1.1//EN" "http://www.w3.org/Graphics/SVG/1.1/DTD/svg11.dtd">
<svg width="100%" height="100%" viewBox="0 0 512 512" version="1.1" xmlns="http://www.w3.org/2000/svg" xmlns:xlink="http://www.w3.org/1999/xlink" xml:space="preserve" xmlns:serif="http://www.serif.com/" style="fill-rule:evenodd;clip-rule:evenodd;stroke-linejoin:round;stroke-miterlimit:2;">
    <g transform="matrix(1,0,0,1,-44,-45)">
        <g id="cypress" transform="matrix(0.808641,0,0,0.808641,56.4078,55.4812)">
            <g id="back" transform="matrix(1.23664,0,0,1.23664,-100.672,-98.2899)">
                <path d="M581,191.18C581,123.747 526.253,69 458.82,69L191.18,69C123.747,69 69,123.747 69,191.18L69,458.82C69,526.253 123.747,581 191.18,581L458.82,581C526.253,581 581,526.253 581,458.82L581,191.18Z" style="fill:rgb(27,30,46);"/>
            </g>
            <g transform="matrix(5.78593,0,0,5.78593,307.026,317.222)">
                <g transform="matrix(1,0,0,1,-40,-16)">
                    <path d="M0.903,20.239C0.525,18.865 0.333,17.438 0.333,16.001C0.333,9.439 4.454,3.44 10.588,1.074L11.393,3.156C6.112,5.193 2.566,10.354 2.566,16.001C2.566,17.239 2.731,18.466 3.055,19.648L0.903,20.239Z" style="fill:rgb(105,211,167);fill-rule:nonzero;"/>
                    <path d="M28.634,9.662C26.247,5.079 21.548,2.232 16.374,2.232C14.541,2.232 12.759,2.585 11.082,3.279L10.226,1.218C12.176,0.411 14.244,0 16.374,0C22.385,0 27.842,3.306 30.615,8.631L28.634,9.662Z" style="fill:url(#_Linear1);fill-rule:nonzero;"/>
                    <path d="M11.585,12.7C12.879,12.7 13.934,13.39 14.476,14.594L14.519,14.689L16.693,13.95L16.647,13.839C15.805,11.788 13.865,10.514 11.585,10.514C9.981,10.514 8.678,11.028 7.601,12.083C6.531,13.131 5.989,14.45 5.989,16.004C5.989,17.544 6.531,18.857 7.601,19.905C8.678,20.96 9.981,21.474 11.585,21.474C13.865,21.474 15.805,20.2 16.647,18.151L16.693,18.04L14.515,17.299L14.474,17.397C13.989,18.581 12.909,19.288 11.585,19.288C10.683,19.288 9.921,18.973 9.318,18.353C8.707,17.724 8.398,16.935 8.398,16.006C8.398,15.071 8.7,14.296 9.318,13.638C9.919,13.015 10.683,12.7 11.585,12.7Z" style="fill:white;fill-rule:nonzero;"/>
                    <path d="M38.379,12.085C37.376,11.043 36.124,10.514 34.656,10.514C33.199,10.514 31.998,11.033 31.086,12.055L31.086,10.716L28.737,10.716L28.737,25.314L31.086,25.314L31.086,19.933C31.998,20.955 33.197,21.474 34.656,21.474C36.124,21.474 37.378,20.945 38.381,19.902C39.369,18.853 39.868,17.543 39.868,16.004C39.866,14.45 39.367,13.133 38.379,12.085ZM36.538,18.35C35.936,18.971 35.173,19.285 34.272,19.285C33.358,19.285 32.617,18.978 32.005,18.35C31.395,17.721 31.086,16.931 31.086,16.003C31.086,15.047 31.386,14.272 32.005,13.635C32.616,13.005 33.357,12.7 34.272,12.7C35.174,12.7 35.936,13.015 36.538,13.635C37.143,14.259 37.436,15.033 37.436,16.003C37.436,16.959 37.141,17.726 36.538,18.35Z" style="fill:white;fill-rule:nonzero;"/>
                    <path d="M43.692,11.973L43.692,10.716L41.343,10.716L41.343,21.271L43.692,21.271L43.692,15.316C43.692,14.361 44.076,13.632 44.834,13.147C45.587,12.665 46.491,12.576 47.597,12.878L47.739,12.917L47.739,10.659L47.652,10.639C46.167,10.284 44.676,10.795 43.692,11.973Z" style="fill:white;fill-rule:nonzero;"/>
                    <path d="M53.834,10.514C52.285,10.514 50.972,11.041 49.929,12.083C48.873,13.138 48.338,14.457 48.338,16.004C48.338,17.544 48.88,18.857 49.95,19.905C51.027,20.96 52.33,21.474 53.933,21.474C56.106,21.474 57.974,20.371 58.93,18.523L58.985,18.416L56.998,17.536L56.95,17.63C56.374,18.744 55.267,19.408 53.995,19.408C52.342,19.408 51.076,18.399 50.733,16.825L59.256,16.825L59.267,16.724C59.452,15.021 59.013,13.544 57.965,12.333C56.922,11.125 55.532,10.514 53.834,10.514ZM50.804,14.94C51.22,13.5 52.397,12.578 53.834,12.578C55.31,12.578 56.487,13.5 56.867,14.94L50.804,14.94Z" style="fill:white;fill-rule:nonzero;"/>
                    <path d="M65.543,14.997C64.262,14.757 63.156,14.548 63.156,13.657C63.156,12.95 63.909,12.456 64.986,12.456C66.174,12.456 66.826,12.967 66.978,14.017L66.996,14.135L69.345,13.644L69.328,13.537C69.012,11.672 67.349,10.512 64.987,10.512C63.802,10.512 62.799,10.819 62.007,11.423C61.198,12.025 60.788,12.809 60.788,13.758C60.788,15.132 61.659,16.164 63.122,16.517C63.501,16.606 63.902,16.678 64.29,16.75C65.745,17.015 67.121,17.267 67.121,18.247C67.121,19.002 66.243,19.528 64.987,19.528C63.71,19.528 63.005,19.018 62.832,17.966L62.813,17.849L60.465,18.341L60.484,18.449C60.825,20.342 62.508,21.473 64.986,21.473C66.244,21.473 67.323,21.159 68.187,20.542C69.052,19.933 69.489,19.146 69.489,18.206C69.489,15.739 67.303,15.328 65.543,14.997Z" style="fill:white;fill-rule:nonzero;"/>
                    <path d="M75.721,14.997C74.44,14.757 73.334,14.548 73.334,13.657C73.334,12.95 74.087,12.456 75.163,12.456C76.352,12.456 77.003,12.967 77.156,14.017L77.173,14.135L79.523,13.644L79.505,13.537C79.19,11.672 77.527,10.512 75.165,10.512C73.98,10.512 72.977,10.819 72.185,11.423C71.375,12.025 70.965,12.809 70.965,13.758C70.965,15.132 71.837,16.164 73.299,16.517C73.679,16.606 74.079,16.678 74.467,16.75C75.923,17.015 77.299,17.267 77.299,18.247C77.299,19.002 76.421,19.528 75.165,19.528C73.887,19.528 73.183,19.018 73.009,17.966L72.991,17.849L70.643,18.341L70.662,18.449C71.003,20.342 72.685,21.473 75.163,21.473C76.422,21.473 77.501,21.159 78.365,20.542C79.229,19.933 79.667,19.146 79.667,18.206C79.667,15.739 77.48,15.328 75.721,14.997Z" style="fill:white;fill-rule:nonzero;"/>
                    <path d="M25.204,10.716L22.105,18.557L18.986,10.716L16.434,10.716L20.809,21.418L17.696,28.966L19.927,29.41L27.615,10.716L25.204,10.716Z" style="fill:white;fill-rule:nonzero;"/>
                    <path d="M18.096,27.993L17.552,29.309C17.444,29.569 17.197,29.745 16.919,29.757C16.736,29.764 16.551,29.769 16.364,29.769C9.965,29.766 4.305,25.255 2.902,19.04L0.724,19.532C1.511,23.018 3.487,26.182 6.287,28.444C9.12,30.731 12.689,31.993 16.34,32L16.372,32C16.587,32 16.799,31.995 17.012,31.986C18.157,31.938 19.181,31.221 19.618,30.157L20.328,28.437L18.096,27.993Z" style="fill:url(#_Linear2);fill-rule:nonzero;"/>
                </g>
            </g>
        </g>
    </g>
    <defs>
        <linearGradient id="_Linear1" x1="0" y1="0" x2="1" y2="0" gradientUnits="userSpaceOnUse" gradientTransform="matrix(12.1766,13.0145,-13.0145,12.1766,14.7051,-1.03295)"><stop offset="0" style="stop-color:rgb(88,208,158);stop-opacity:1"/><stop offset="0.09" style="stop-color:rgb(88,208,158);stop-opacity:1"/><stop offset="0.99" style="stop-color:rgb(88,208,158);stop-opacity:0"/><stop offset="1" style="stop-color:rgb(88,208,158);stop-opacity:0"/></linearGradient>
        <linearGradient id="_Linear2" x1="0" y1="0" x2="1" y2="0" gradientUnits="userSpaceOnUse" gradientTransform="matrix(23.2629,6.1918,-6.1918,23.2629,0.162389,23.281)"><stop offset="0" style="stop-color:rgb(88,208,158);stop-opacity:1"/><stop offset="0.08" style="stop-color:rgb(88,208,158);stop-opacity:1"/><stop offset="0.76" style="stop-color:white;stop-opacity:1"/><stop offset="1" style="stop-color:white;stop-opacity:1"/></linearGradient>
    </defs>
</svg>
