<?xml version="1.0" encoding="UTF-8" standalone="no"?>
<!DOCTYPE svg PUBLIC "-//W3C//DTD SVG 1.1//EN" "http://www.w3.org/Graphics/SVG/1.1/DTD/svg11.dtd">
<svg width="100%" height="100%" viewBox="0 0 512 512" version="1.1" xmlns="http://www.w3.org/2000/svg" xmlns:xlink="http://www.w3.org/1999/xlink" xml:space="preserve" xmlns:serif="http://www.serif.com/" style="fill-rule:evenodd;clip-rule:evenodd;stroke-linejoin:round;stroke-miterlimit:2;">
    <g transform="matrix(1,0,0,1,-44,-45)">
        <g transform="matrix(1,0,0,1,0,1)">
            <g id="debian">
                <g id="back" transform="matrix(1,0,0,1,-25,-25)">
                    <path d="M581,191.18C581,123.747 526.253,69 458.82,69L191.18,69C123.747,69 69,123.747 69,191.18L69,458.82C69,526.253 123.747,581 191.18,581L458.82,581C526.253,581 581,526.253 581,458.82L581,191.18Z" style="fill:#a70131;"/>
                </g>
                <g transform="matrix(2.00586,0,0,2.00586,300,239.843)">
                    <g transform="matrix(1,0,0,1,-64,-64)">
                        <path d="M73.776,67.531C71.711,67.559 74.167,68.594 76.863,69.01C77.565,68.462 78.24,67.881 78.886,67.269C77.207,67.679 75.499,67.688 73.776,67.531M84.862,64.768C86.091,63.071 86.989,61.212 87.304,59.29C87.028,60.659 86.285,61.843 85.584,63.091C81.724,65.522 85.221,61.648 85.582,60.175C81.432,65.4 85.012,63.308 84.862,64.768M88.955,54.12C89.204,50.4 88.222,51.576 87.892,52.995C88.276,53.196 88.582,55.617 88.955,54.12M65.944,3.283C67.046,3.481 68.325,3.633 68.146,3.895C69.352,3.632 69.626,3.389 65.944,3.283M68.146,3.896L67.367,4.057L68.092,3.993L68.146,3.896ZM102.518,55.53C102.641,58.87 101.54,60.491 100.549,63.359L98.763,64.251C97.303,67.089 98.905,66.053 97.86,68.31C95.579,70.337 90.939,74.655 89.454,75.048C88.37,75.025 90.188,73.77 90.426,73.277C87.374,75.375 87.977,76.424 83.308,77.699L83.172,77.394C71.656,82.811 55.662,72.076 55.873,57.428C55.75,58.359 55.524,58.125 55.268,58.502C54.674,50.965 58.749,43.395 65.621,40.306C72.343,36.977 80.223,38.343 85.038,42.83C82.394,39.365 77.129,35.693 70.89,36.037C64.779,36.134 59.062,40.017 57.155,44.233C54.023,46.205 53.66,51.833 52.296,52.861C50.461,66.352 55.749,72.179 64.694,79.036C66.101,79.985 65.09,80.129 65.281,80.851C62.309,79.459 59.587,77.358 57.35,74.786C58.536,76.525 59.818,78.215 61.475,79.542C58.672,78.593 54.929,72.752 53.835,72.514C58.667,81.163 73.434,87.683 81.168,84.449C77.589,84.58 73.044,84.522 69.023,83.036C67.335,82.167 65.039,80.367 65.449,80.029C76.002,83.973 86.905,83.017 96.035,75.696C98.358,73.886 100.896,70.809 101.629,70.766C100.524,72.427 101.817,71.566 100.969,73.032C103.285,69.299 99.964,71.511 103.363,66.584L104.619,68.313C104.152,65.215 108.467,61.452 108.029,56.551C109.019,55.052 109.133,58.163 108.083,61.612C109.54,57.787 108.467,57.172 108.842,54.015C109.246,55.077 109.777,56.203 110.05,57.323C109.1,53.627 111.025,51.097 111.5,48.95C111.033,48.742 110.036,50.584 109.808,46.218C109.842,44.322 110.336,45.225 110.526,44.758C110.153,44.543 109.177,43.09 108.582,40.302C109.013,39.647 109.733,42 110.321,42.097C109.943,39.88 109.293,38.19 109.268,36.488C107.555,32.909 108.662,36.966 107.272,34.952C105.449,29.265 108.785,33.632 109.01,31.049C111.773,35.052 113.349,41.257 114.072,43.826C113.52,40.693 112.629,37.658 111.54,34.721C112.379,35.075 110.188,28.275 112.631,32.778C110.022,23.178 101.465,14.209 93.593,10C94.555,10.881 95.772,11.989 95.336,12.162C91.421,9.831 92.109,9.649 91.549,8.664C88.359,7.367 88.15,8.768 86.038,8.667C80.026,5.479 78.867,5.817 73.335,3.819L73.587,4.996C69.603,3.669 68.946,5.499 64.642,5C64.379,4.795 66.021,4.26 67.372,4.063C63.522,4.571 63.702,3.304 59.934,4.203C60.863,3.552 61.843,3.121 62.834,2.566C59.695,2.757 55.339,4.394 56.683,2.905C51.562,5.191 42.465,8.398 37.361,13.185L37.2,12.112C34.861,14.921 27,20.499 26.374,24.134L25.749,24.28C24.531,26.34 23.745,28.676 22.779,30.797C21.187,33.51 20.445,31.841 20.672,32.266C17.54,38.615 15.985,43.949 14.642,48.323C15.6,49.755 14.664,56.937 15.027,62.687C13.455,91.081 34.955,118.649 58.457,125.016C61.902,126.246 67.024,126.2 71.381,126.327C66.24,124.856 65.575,125.549 60.568,123.802C56.954,122.101 56.163,120.158 53.604,117.938L54.618,119.728C49.599,117.953 51.7,117.53 47.616,116.237L48.699,114.825C47.072,114.702 44.39,112.085 43.657,110.634L41.878,110.704C39.74,108.066 38.601,106.166 38.684,104.693L38.109,105.717C37.457,104.598 30.244,95.824 33.986,97.867C33.29,97.23 32.366,96.832 31.364,95.011L32.126,94.14C30.324,91.824 28.811,88.853 28.926,87.864C29.886,89.162 30.553,89.404 31.213,89.627C26.665,78.342 26.41,89.005 22.965,78.14L23.694,78.081C23.135,77.239 22.796,76.325 22.347,75.429L22.663,72.268C19.389,68.482 21.747,56.17 22.22,49.417C22.548,46.671 24.953,43.748 26.783,39.165L25.669,38.973C27.8,35.256 37.836,24.045 42.484,24.622C44.735,21.793 42.038,24.611 41.598,23.899C46.543,18.78 48.098,20.282 51.436,19.362C55.036,17.225 48.347,20.195 50.053,18.547C56.276,16.958 54.463,14.934 62.581,14.127C63.438,14.614 60.594,14.879 59.88,15.512C65.065,12.976 76.288,13.553 83.577,16.92C92.035,20.872 101.538,32.558 101.913,43.551L102.34,43.665C102.124,48.035 103.009,53.089 101.475,57.731L102.518,55.53ZM51.233,70.366L50.943,71.814C52.3,73.659 53.378,75.657 55.11,77.097C53.864,74.663 52.937,73.657 51.233,70.366M54.441,70.24C53.723,69.445 53.297,68.489 52.821,67.536C53.277,69.211 54.209,70.65 55.076,72.114L54.441,70.24ZM111.226,57.897L110.922,58.659C110.363,62.66 109.147,66.541 107.323,70.146C109.346,66.329 110.668,62.181 111.226,57.897M66.353,2.293C67.749,1.78 69.786,2.012 71.267,1.676C69.337,1.838 67.415,1.935 65.517,2.179L66.353,2.293ZM17.326,28.362C17.648,31.341 15.084,32.497 17.893,30.533C19.399,27.143 17.305,29.598 17.326,28.362M14.025,42.15C14.671,40.164 14.789,38.97 15.036,37.822C13.248,40.107 14.213,40.595 14.025,42.15" style="fill:#fff;fill-opacity:0.9;fill-rule:nonzero;"/>
                    </g>
                </g>
                <g transform="matrix(2.3607,0,0,2.3607,300,442.65)">
                    <g transform="matrix(1,0,0,1,-54.38,-18.5)">
                        <g transform="matrix(1,0,0,1,-0.00213185,-107.692)">
                            <path d="M13.439,125.507C13.394,125.554 13.394,133.013 13.301,134.96C13.209,136.534 13.069,139.917 9.733,139.917C6.304,139.917 5.47,135.978 5.192,134.265C4.868,132.365 4.868,130.788 4.868,130.095C4.868,127.87 5.007,121.659 10.243,121.659C11.819,121.659 12.699,122.124 13.394,122.493L13.439,125.513L13.439,125.507ZM0.002,130.977C0.002,144.043 6.953,144.043 7.972,144.043C10.845,144.043 12.699,142.467 13.486,139.734L13.579,143.857C14.46,143.81 15.34,143.718 16.776,143.718C17.286,143.718 17.702,143.718 18.074,143.765C18.445,143.765 18.815,143.81 19.232,143.857C18.491,142.375 17.935,139.039 17.935,131.808C17.935,124.765 17.935,112.858 18.537,109.243C16.87,110.032 15.432,110.542 12.281,110.819C13.532,112.163 13.532,112.858 13.532,118.973C12.653,118.696 11.54,118.371 9.64,118.371C1.346,118.371 0.002,125.6 0.002,130.98M25.132,128.607C25.179,124.761 25.967,121.332 29.256,121.332C32.87,121.332 33.146,125.316 33.054,128.607L25.132,128.607ZM37.641,129.067C37.641,123.645 36.576,118.316 29.719,118.316C20.267,118.316 20.267,128.79 20.267,131.012C20.267,140.418 24.483,144.125 31.572,144.125C34.721,144.125 36.252,143.664 37.086,143.43C37.04,141.762 37.271,140.696 37.551,139.26C36.576,139.864 35.325,140.651 32.545,140.651C25.317,140.651 25.224,134.069 25.224,131.799L37.551,131.799L37.641,129.059M52.716,131.067C52.716,135.376 51.929,141.169 46.554,141.169C45.812,141.169 44.886,141.028 44.284,140.89C44.191,139.222 44.191,136.349 44.191,133.013C44.191,129.027 44.607,126.945 44.933,125.923C45.905,122.634 48.083,122.589 48.499,122.589C52.021,122.589 52.716,127.449 52.716,131.069L52.716,131.067ZM39.418,136.117C39.418,139.547 39.418,141.492 38.862,142.974C40.762,143.716 43.124,144.132 45.952,144.132C47.759,144.132 52.995,144.132 55.821,138.341C57.165,135.653 57.628,132.038 57.628,129.304C57.628,127.636 57.442,123.976 56.099,121.658C54.803,119.483 52.717,118.37 50.494,118.37C46.045,118.37 44.748,122.076 44.054,123.976C44.054,121.613 44.099,113.366 44.469,109.149C41.458,110.54 39.603,110.77 37.612,110.956C39.419,111.696 39.419,114.757 39.419,124.719L39.419,136.116M66.536,143.857C65.608,143.718 64.958,143.625 63.614,143.625C62.134,143.625 61.112,143.719 60.048,143.857C60.511,142.976 60.696,142.558 60.835,139.548C61.021,135.423 61.067,124.394 60.743,122.077C60.511,120.315 60.095,120.039 59.446,119.576C63.245,119.205 64.311,118.928 66.071,118.094C65.702,120.13 65.653,121.152 65.653,124.255C65.562,140.235 65.515,141.955 66.536,143.855M81.373,130.737C81.281,133.657 81.234,135.696 80.445,137.317C79.472,139.403 77.852,140.005 76.647,140.005C73.864,140.005 73.264,137.689 73.264,135.419C73.264,131.064 77.157,130.737 78.915,130.737L81.373,130.737ZM68.63,136.437C68.63,139.357 69.511,142.275 72.107,143.527C73.265,144.037 74.423,144.037 74.795,144.037C79.058,144.037 80.493,140.885 81.374,138.939C81.327,140.978 81.374,142.228 81.513,143.851C82.347,143.804 83.181,143.712 84.572,143.712C85.359,143.712 86.101,143.804 86.888,143.851C86.378,143.064 86.101,142.599 85.96,140.792C85.868,139.032 85.868,137.271 85.868,134.815L85.915,125.362C85.915,121.839 84.987,118.365 78.037,118.365C73.451,118.365 70.764,119.756 69.42,120.45C69.977,121.47 70.44,122.348 70.856,124.343C72.665,122.767 75.028,121.933 77.436,121.933C81.283,121.933 81.283,124.482 81.283,128.095C80.402,128.05 79.66,127.958 78.408,127.958C72.522,127.968 68.63,130.238 68.63,136.448M108.06,139.267C108.107,140.843 108.107,142.511 108.755,143.855C107.734,143.763 107.132,143.623 105.234,143.623C104.121,143.623 103.519,143.717 102.638,143.855C102.822,143.253 102.917,143.021 103.009,142.232C103.148,141.168 103.241,137.599 103.241,136.347L103.241,131.343C103.241,129.165 103.241,126.013 103.1,124.902C103.008,124.115 102.778,121.984 100.088,121.984C97.447,121.984 96.567,123.929 96.242,125.505C95.873,127.126 95.873,128.888 95.873,135.745C95.918,141.677 95.918,142.231 96.381,143.854C95.594,143.762 94.621,143.67 93.231,143.67C92.118,143.67 91.377,143.715 90.452,143.854C90.776,143.112 90.962,142.741 91.054,140.147C91.148,137.598 91.333,125.086 90.913,122.122C90.683,120.313 90.218,119.898 89.71,119.435C93.464,119.249 94.667,118.646 95.827,118.046L95.827,122.955C96.382,121.517 97.54,118.321 102.175,118.321C107.968,118.321 108.013,122.537 108.06,125.316L108.06,139.244" style="fill:#fff;fill-opacity:0.9;fill-rule:nonzero;"/>
                        </g>
                        <g transform="matrix(1,0,0,1,-0.00213185,-107.692)">
                            <path d="M66.927,111.528L63.089,115.364L59.253,111.528L63.089,107.692L66.927,111.532" style="fill-opacity:0.4;fill-rule:nonzero;"/>
                        </g>
                    </g>
                </g>
            </g>
        </g>
    </g>
</svg>
