<?xml version="1.0" encoding="UTF-8" standalone="no"?>
<!DOCTYPE svg PUBLIC "-//W3C//DTD SVG 1.1//EN" "http://www.w3.org/Graphics/SVG/1.1/DTD/svg11.dtd">
<svg width="100%" height="100%" viewBox="0 0 512 512" version="1.1" xmlns="http://www.w3.org/2000/svg" xmlns:xlink="http://www.w3.org/1999/xlink" xml:space="preserve" xmlns:serif="http://www.serif.com/" style="fill-rule:evenodd;clip-rule:evenodd;stroke-linejoin:round;stroke-miterlimit:2;">
    <g transform="matrix(1,0,0,1,-44,-44)">
        <g id="doctrine" transform="matrix(2.32458,0,0,2.32458,-317.594,-365.657)">
            <g id="back" transform="matrix(0.430185,0,0,0.430185,125.869,146.545)">
                <path d="M581,191.18C581,123.747 526.253,69 458.82,69L191.18,69C123.747,69 69,123.747 69,191.18L69,458.82C69,526.253 123.747,581 191.18,581L458.82,581C526.253,581 581,526.253 581,458.82L581,191.18Z" style="fill:#0055b8;"/>
            </g>
            <g transform="matrix(1.04324,0,0,1.04324,265.679,346.151)">
                <g transform="matrix(1,0,0,1,-64,-12.5)">
                    <g transform="matrix(1,0,0,1,0.05,-101.3)">
                        <path d="M17.9,125.2L13.8,125.2L13.8,122.7C13.1,123.7 12.3,124.4 11.4,124.8C10.5,125.3 9.5,125.5 8.6,125.5C6.7,125.5 5,124.7 3.6,123.2C2.2,121.6 1.5,119.5 1.5,116.7C1.5,113.9 2.2,111.7 3.5,110.2C4.8,108.7 6.5,108 8.6,108C10.5,108 12.1,108.8 13.5,110.3L13.5,102L17.9,102L17.9,125.2ZM6,116.4C6,118.2 6.2,119.5 6.7,120.3C7.4,121.5 8.4,122 9.7,122C10.7,122 11.6,121.6 12.3,120.7C13,119.8 13.4,118.5 13.4,116.8C13.4,114.9 13.1,113.5 12.4,112.6C11.7,111.8 10.8,111.3 9.7,111.3C8.6,111.3 7.8,111.7 7.1,112.6C6.4,113.5 6,114.8 6,116.4ZM21.2,116.6C21.2,115.1 21.6,113.7 22.3,112.3C23,110.9 24.1,109.9 25.4,109.1C26.7,108.4 28.2,108 29.9,108C32.4,108 34.5,108.8 36.1,110.5C37.7,112.1 38.5,114.2 38.5,116.7C38.5,119.2 37.7,121.3 36,123C34.4,124.7 32.3,125.5 29.8,125.5C28.3,125.5 26.8,125.2 25.4,124.5C24,123.8 22.9,122.8 22.2,121.4C21.6,120.1 21.2,118.5 21.2,116.6ZM25.8,116.8C25.8,118.5 26.2,119.7 27,120.6C27.8,121.5 28.8,121.9 29.9,121.9C31.1,121.9 32,121.5 32.8,120.6C33.6,119.7 34,118.4 34,116.7C34,115.1 33.6,113.8 32.8,112.9C32,112 31,111.6 29.9,111.6C28.7,111.6 27.8,112 27,112.9C26.2,113.9 25.8,115.1 25.8,116.8ZM56.6,113.4L52.2,114.2C52.1,113.3 51.7,112.7 51.2,112.2C50.7,111.7 50,111.5 49.2,111.5C48.1,111.5 47.2,111.9 46.6,112.6C45.9,113.4 45.6,114.6 45.6,116.4C45.6,118.4 45.9,119.8 46.6,120.6C47.3,121.4 48.2,121.8 49.3,121.8C50.1,121.8 50.8,121.6 51.4,121.1C51.9,120.6 52.3,119.8 52.5,118.6L56.9,119.3C56.4,121.3 55.6,122.8 54.3,123.8C53,124.8 51.3,125.3 49.1,125.3C46.6,125.3 44.7,124.5 43.2,123C41.7,121.5 41,119.3 41,116.6C41,113.8 41.7,111.7 43.2,110.1C44.7,108.6 46.6,107.8 49.1,107.8C51.1,107.8 52.8,108.2 54,109.1C55.3,110.2 56.1,111.6 56.6,113.4ZM67.7,108.4L67.7,111.9L64.7,111.9L64.7,118.7C64.7,120.1 64.7,120.9 64.8,121.1C64.9,121.3 65,121.5 65.2,121.7C65.4,121.8 65.7,121.9 66,121.9C66.4,121.9 67,121.8 67.8,121.5L68.2,124.9C67.2,125.3 66,125.6 64.7,125.6C63.9,125.6 63.2,125.5 62.5,125.2C61.9,124.9 61.4,124.6 61.1,124.2C60.8,123.8 60.6,123.2 60.5,122.5C60.4,122 60.4,120.9 60.4,119.4L60.4,112.1L58.4,112.1L58.4,108.6L60.4,108.6L60.4,105.3L64.9,102.7L64.9,108.6L67.7,108.6L67.7,108.4ZM75,125.2L70.6,125.2L70.6,108.4L74.7,108.4L74.7,110.8C75.4,109.7 76,108.9 76.6,108.6C77.2,108.3 77.8,108.1 78.5,108.1C79.5,108.1 80.5,108.4 81.4,108.9L80,112.8C79.3,112.3 78.6,112.1 77.9,112.1C77.3,112.1 76.8,112.3 76.3,112.6C75.9,112.9 75.5,113.6 75.3,114.5C75.1,115.4 75,117.1 75,120L75,125.2ZM83.4,106.1L83.4,102L87.8,102L87.8,106.1L83.4,106.1ZM83.4,125.2L83.4,108.4L87.8,108.4L87.8,125.2L83.4,125.2ZM107.6,125.2L103.2,125.2L103.2,116.6C103.2,114.8 103.1,113.6 102.9,113.1C102.7,112.6 102.4,112.2 102,111.9C101.6,111.6 101.1,111.5 100.5,111.5C99.7,111.5 99,111.7 98.4,112.1C97.8,112.5 97.4,113.1 97.1,113.8C96.9,114.5 96.8,115.8 96.8,117.7L96.8,125.3L92.4,125.3L92.4,108.5L96.5,108.5L96.5,111C98,109.1 99.8,108.2 102,108.2C103,108.2 103.9,108.4 104.7,108.7C105.5,109.1 106.1,109.5 106.5,110.1C106.9,110.6 107.2,111.3 107.4,112C107.6,112.7 107.6,113.7 107.6,115L107.6,125.2ZM121.8,119.8L126.2,120.5C125.6,122.1 124.7,123.4 123.5,124.2C122.3,125 120.7,125.5 118.9,125.5C116,125.5 113.8,124.5 112.4,122.6C111.3,121.1 110.7,119.1 110.7,116.8C110.7,114 111.4,111.8 112.9,110.3C114.4,108.7 116.2,107.9 118.4,107.9C120.9,107.9 122.9,108.7 124.3,110.4C125.7,112 126.4,114.6 126.4,118L115.3,118C115.3,119.3 115.7,120.3 116.4,121.1C117.1,121.8 117.9,122.2 119,122.2C119.7,122.2 120.3,122 120.8,121.6C121.2,121.3 121.6,120.7 121.8,119.8ZM122.1,115.4C122.1,114.1 121.7,113.1 121.1,112.5C120.5,111.9 119.7,111.5 118.8,111.5C117.8,111.5 117,111.9 116.4,112.6C115.8,113.3 115.5,114.3 115.5,115.5L122.1,115.5L122.1,115.4Z" style="fill:#fff;fill-opacity:0.95;fill-rule:nonzero;"/>
                    </g>
                </g>
            </g>
            <g transform="matrix(1.15157,0,0,1.15157,192.038,208.611)">
                <path d="M55.4,28C54.6,27.1 53.8,26.2 53,25.4L44.7,16.4C43.3,14.8 42.2,13 42,10.9C41.7,8.3 42,5.9 43.8,3.8C44.2,3.3 44.8,2.9 45.3,2.5C46.1,2 47,1.6 47.9,1.3C51.1,0.3 54.1,0.7 56.7,2.8C58.1,4 59.4,5.3 60.7,6.7C67,13.5 73.3,20.4 79.6,27.3C82.9,30.9 86.3,34.5 89.5,38.2C93.6,42.8 96.7,48 98.3,54C98.9,56.3 99.3,58.6 99.4,60.9C99.8,70.3 97,78.7 91,86C86.6,91.4 81,94.9 74.3,96.7C71.9,97.3 69.5,97.7 67,97.9C65.2,98 63.3,98.1 61.5,98C52.1,97.5 44.1,93.7 37.6,86.8C34.5,83.5 32.1,79.9 30.4,75.7C29.4,73.1 28.8,70.5 28.6,67.8C28.1,61.3 28.9,55 31.7,49.1C33.5,45.3 36.1,42.1 39.1,39.2C43.6,34.8 48.8,31.4 54.5,28.7L55.1,28.4C55.3,28.2 55.3,28.1 55.4,28Z" style="fill:#f56d39;fill-rule:nonzero;"/>
                <path d="M65.7,69.4L58.1,69.4L52.5,69.5C50.1,69.5 47.7,69.4 45.3,69.3C44.4,69.3 43.6,69.2 42.7,69.1C40.3,68.6 39,67 38.5,64.7C38,62.3 38.6,60 40.4,58.2C41.4,57.3 42.6,56.8 43.9,56.7C46.1,56.6 48.2,56.7 50.4,56.7L65.6,56.7C64.9,55.9 64.1,55.1 63.3,54.3C61.1,52.1 58.9,50.1 56.8,47.9C55.5,46.5 54.6,44.9 54.5,43C54.5,42.1 54.7,41.2 55.2,40.4C56.4,38.4 58.3,37.5 60.6,37.3C62.8,37.2 64.5,38.1 66,39.5C68.4,41.8 70.8,44.2 73.2,46.6L80.7,54.1C82.3,55.7 83.8,57.5 84.9,59.5C85.5,60.6 86,61.7 86,63C86,63.6 85.9,64.2 85.7,64.8C84.6,67.7 82.9,70.1 80.7,72.2C76.2,76.5 71.6,80.8 67,85.1C66,86 65,86.9 63.9,87.7C61,89.7 56.3,88.3 55.1,84.6C54.7,83.3 54.9,82 55.5,80.8C56.4,79 57.6,77.5 58.9,76.1L65.3,69.8C65.4,69.7 65.5,69.5 65.7,69.4Z" style="fill:#fff;fill-rule:nonzero;"/>
            </g>
        </g>
    </g>
</svg>
