<?xml version="1.0" encoding="UTF-8" standalone="no"?>
<!DOCTYPE svg PUBLIC "-//W3C//DTD SVG 1.1//EN" "http://www.w3.org/Graphics/SVG/1.1/DTD/svg11.dtd">
<svg width="100%" height="100%" viewBox="0 0 512 513" version="1.1" xmlns="http://www.w3.org/2000/svg" xmlns:xlink="http://www.w3.org/1999/xlink" xml:space="preserve" xmlns:serif="http://www.serif.com/" style="fill-rule:evenodd;clip-rule:evenodd;stroke-linejoin:round;stroke-miterlimit:2;">
    <g transform="matrix(1,0,0,1,-44,-43)">
        <g id="git" transform="matrix(1,0,0,1,0,-0.5)">
            <g id="back" transform="matrix(1,0,0,1,-25,-25)">
                <path d="M581,191.18C581,123.747 526.253,69 458.82,69L191.18,69C123.747,69 69,123.747 69,191.18L69,458.82C69,526.253 123.747,581 191.18,581L458.82,581C526.253,581 581,526.253 581,458.82L581,191.18Z" style="fill:rgb(240,81,51);"/>
            </g>
            <g transform="matrix(2.18893,0,0,2.18893,294.058,307)">
                <g transform="matrix(1,0,0,1,-100,-100)">
                    <g transform="matrix(0.729782,0,0,0.729782,0.948127,120.565)">
                        <path d="M167.371,31.836C162.586,31.836 159.02,34.188 159.02,39.844C159.02,44.105 161.367,47.066 167.113,47.066C171.984,47.066 175.293,44.199 175.293,39.668C175.293,34.535 172.332,31.836 167.371,31.836ZM157.801,71.786C156.668,73.176 155.539,74.656 155.539,76.398C155.539,79.878 159.973,80.922 166.066,80.922C171.117,80.922 177.992,80.57 177.992,75.879C177.992,73.086 174.684,72.914 170.504,72.652L157.801,71.786ZM183.562,32.098C185.125,34.102 186.782,36.887 186.782,40.891C186.782,50.547 179.211,56.207 168.246,56.207C165.457,56.207 162.934,55.859 161.367,55.422L158.497,60.035L167.023,60.555C182.082,61.515 190.957,61.953 190.957,73.523C190.957,83.531 182.168,89.188 167.023,89.188C151.273,89.188 145.266,85.184 145.266,78.308C145.266,74.391 147.008,72.308 150.055,69.43C147.18,68.219 146.227,66.043 146.227,63.691C146.227,61.777 147.18,60.035 148.75,58.379C150.316,56.727 152.055,55.074 154.145,53.16C149.883,51.07 146.66,46.543 146.66,40.102C146.66,30.094 153.273,23.222 166.59,23.222C170.332,23.222 172.594,23.566 174.598,24.094L191.57,24.094L191.57,31.488L183.563,32.098" style="fill:white;fill-rule:nonzero;"/>
                        <g>
                            <clipPath id="_clip1">
                                <rect x="195.5" y="0.79" width="25" height="68.21"/>
                            </clipPath>
                            <g clip-path="url(#_clip1)">
                                <path d="M206.879,16.281C201.918,16.281 199.047,13.411 199.047,8.445C199.047,3.488 201.918,0.789 206.879,0.789C211.929,0.789 214.801,3.489 214.801,8.445C214.801,13.41 211.93,16.281 206.879,16.281ZM195.652,68.586L195.652,61.71L200.09,61.104C201.309,60.929 201.484,60.667 201.484,59.358L201.484,33.773C201.484,32.82 201.223,32.207 200.352,31.949L195.652,30.293L196.609,23.246L214.625,23.246L214.625,59.36C214.625,60.759 214.711,60.93 216.02,61.106L220.457,61.712L220.457,68.587L195.652,68.587" style="fill:white;fill-rule:nonzero;"/>
                            </g>
                        </g>
                        <g>
                            <path d="M254.871,65.21C251.129,67.035 245.648,68.691 240.684,68.691C230.328,68.691 226.414,64.516 226.414,54.676L226.414,31.879C226.414,31.355 226.414,31.008 225.714,31.008L219.621,31.008L219.621,23.262C227.285,22.391 230.328,18.559 231.285,9.074L239.555,9.074L239.555,21.434C239.555,22.043 239.555,22.304 240.25,22.304L252.52,22.304L252.52,31.008L239.555,31.008L239.555,51.805C239.555,56.941 240.773,58.941 245.473,58.941C247.91,58.941 250.433,58.332 252.52,57.551L254.871,65.211" style="fill:white;fill-rule:nonzero;"/>
                        </g>
                    </g>
                    <g transform="matrix(1.35758,0,0,1.35758,-29.068,16.0628)">
                        <clipPath id="_clip2">
                            <rect x="36.5" y="0.79" width="92" height="91.21"/>
                        </clipPath>
                        <g clip-path="url(#_clip2)">
                            <path d="M125.922,42.371L86.129,2.582C85.029,1.482 83.535,0.863 81.979,0.863C80.423,0.863 78.929,1.482 77.829,2.582L69.566,10.844L80.046,21.328C82.555,20.473 85.344,21.121 87.219,22.996C89.103,24.883 89.747,27.691 88.875,30.211L98.977,40.316C101.496,39.44 104.306,40.086 106.191,41.973C107.502,43.281 108.239,45.059 108.239,46.911C108.239,48.762 107.502,50.54 106.191,51.848C104.882,53.159 103.104,53.896 101.251,53.896C99.399,53.896 97.621,53.159 96.312,51.848C94.325,49.858 93.724,46.855 94.793,44.254L85.371,34.832L85.371,59.625C86.055,59.961 86.679,60.407 87.219,60.945C89.928,63.655 89.928,68.115 87.219,70.825C84.489,73.551 80.066,73.551 77.344,70.825C76.033,69.516 75.295,67.738 75.295,65.885C75.295,64.032 76.033,62.254 77.344,60.945C77.996,60.289 78.773,59.771 79.629,59.422L79.629,34.398C78.773,34.049 77.996,33.531 77.344,32.875C75.343,30.875 74.745,27.849 75.836,25.238L65.504,14.902L38.219,42.187C37.118,43.287 36.499,44.781 36.499,46.338C36.499,47.894 37.118,49.388 38.219,50.488L78.012,90.281C79.112,91.381 80.606,92 82.162,92C83.718,92 85.212,91.381 86.312,90.281L125.922,50.676C128.2,48.398 128.2,44.649 125.922,42.371" style="fill:white;fill-rule:nonzero;"/>
                        </g>
                    </g>
                </g>
            </g>
        </g>
    </g>
</svg>
