<?xml version="1.0" encoding="UTF-8" standalone="no"?>
<!DOCTYPE svg PUBLIC "-//W3C//DTD SVG 1.1//EN" "http://www.w3.org/Graphics/SVG/1.1/DTD/svg11.dtd">
<svg width="100%" height="100%" viewBox="0 0 512 513" version="1.1" xmlns="http://www.w3.org/2000/svg" xmlns:xlink="http://www.w3.org/1999/xlink" xml:space="preserve" xmlns:serif="http://www.serif.com/" style="fill-rule:evenodd;clip-rule:evenodd;stroke-linejoin:round;stroke-miterlimit:2;">
    <g transform="matrix(1,0,0,1,-44,-43)">
        <g id="github" transform="matrix(2.32458,0,0,2.32458,-317.594,-366.157)">
            <g id="back" transform="matrix(0.430185,0,0,0.430185,125.869,146.545)">
                <path d="M581,191.18C581,123.747 526.253,69 458.82,69L191.18,69C123.747,69 69,123.747 69,191.18L69,458.82C69,526.253 123.747,581 191.18,581L458.82,581C526.253,581 581,526.253 581,458.82L581,191.18Z" style="fill:#11171e;"/>
            </g>
            <g id="GitHub" transform="matrix(0.0762455,0,0,0.0762455,265.679,348.424)">
                <g transform="matrix(1,0,0,1,-750,-204.167)">
                    <g transform="matrix(4.16454,0,0,4.16454,-449.387,-1200.62)">
                        <path d="M177.281,329.987L147.014,329.987C146.233,329.987 145.6,330.621 145.6,331.402L145.6,346.2C145.6,346.981 146.233,347.617 147.014,347.617L158.821,347.617L158.821,366.002C158.821,366.002 156.17,366.906 148.84,366.906C140.193,366.906 128.113,363.746 128.113,337.183C128.113,310.613 140.692,307.118 152.501,307.118C162.724,307.118 167.127,308.917 169.93,309.785C170.811,310.055 171.625,309.178 171.625,308.396L175.001,294.099C175.001,293.732 174.877,293.293 174.461,292.994C173.323,292.182 166.38,288.297 148.84,288.297C128.634,288.297 107.908,296.893 107.908,338.219C107.908,379.545 131.638,385.703 151.635,385.703C168.192,385.703 178.236,378.628 178.236,378.628C178.65,378.399 178.695,377.82 178.695,377.556L178.695,331.402C178.695,330.621 178.062,329.987 177.281,329.987Z" style="fill:#fff;fill-rule:nonzero;"/>
                        <path d="M333.265,293.249C333.265,292.461 332.641,291.826 331.859,291.826L314.817,291.826C314.039,291.826 313.406,292.461 313.406,293.249C313.406,293.252 313.411,326.183 313.411,326.183L286.846,326.183L286.846,293.249C286.846,292.461 286.22,291.826 285.44,291.826L268.399,291.826C267.624,291.826 266.991,292.461 266.991,293.249L266.991,382.426C266.991,383.213 267.624,383.852 268.399,383.852L285.44,383.852C286.22,383.852 286.846,383.213 286.846,382.426L286.846,344.281L313.411,344.281C313.411,344.281 313.364,382.423 313.364,382.426C313.364,383.213 313.996,383.852 314.776,383.852L331.858,383.852C332.639,383.852 333.263,383.213 333.265,382.426L333.265,293.249Z" style="fill:#fff;fill-rule:nonzero;"/>
                        <path d="M209.44,304.95C209.44,298.814 204.521,293.855 198.451,293.855C192.387,293.855 187.463,298.814 187.463,304.95C187.463,311.081 192.387,316.054 198.451,316.054C204.521,316.054 209.44,311.081 209.44,304.95Z" style="fill:#fff;fill-rule:nonzero;"/>
                        <path d="M208.222,381.563L208.222,322.45C208.222,321.668 207.591,321.029 206.812,321.029L189.823,321.029C189.044,321.029 188.347,321.833 188.347,322.614L188.347,381.591C188.347,383.324 189.427,383.84 190.824,383.84L206.13,383.84C207.81,383.84 208.222,383.015 208.222,381.563Z" style="fill:#fff;fill-rule:nonzero;"/>
                        <path d="M398.032,321.163L381.121,321.163C380.346,321.163 379.714,321.803 379.714,322.59L379.714,366.315C379.714,366.315 375.417,369.459 369.319,369.459C363.222,369.459 361.604,366.692 361.604,360.722L361.604,322.59C361.604,321.803 360.974,321.163 360.197,321.163L343.033,321.163C342.259,321.163 341.624,321.803 341.624,322.59L341.624,363.608C341.624,381.344 351.508,385.683 365.105,385.683C376.261,385.683 385.255,379.519 385.255,379.519C385.255,379.519 385.683,382.768 385.877,383.152C386.07,383.536 386.575,383.925 387.121,383.925L398.04,383.876C398.814,383.876 399.449,383.236 399.449,382.452L399.443,322.59C399.443,321.803 398.812,321.163 398.032,321.163Z" style="fill:#fff;fill-rule:nonzero;"/>
                        <path d="M437.584,369.405C431.718,369.227 427.739,366.564 427.739,366.564L427.739,338.324C427.739,338.324 431.664,335.918 436.48,335.488C442.57,334.942 448.438,336.782 448.438,351.31C448.438,366.629 445.79,369.652 437.584,369.405ZM444.254,319.16C434.649,319.16 428.116,323.445 428.116,323.445L428.116,293.249C428.116,292.461 427.486,291.826 426.71,291.826L409.619,291.826C408.842,291.826 408.211,292.461 408.211,293.249L408.211,382.426C408.211,383.213 408.842,383.852 409.621,383.852L421.479,383.852C422.013,383.852 422.417,383.577 422.716,383.096C423.011,382.616 423.436,378.983 423.436,378.983C423.436,378.983 430.424,385.606 443.653,385.606C459.185,385.606 468.092,377.728 468.092,350.24C468.092,322.752 453.866,319.16 444.254,319.16Z" style="fill:#fff;fill-rule:nonzero;"/>
                        <path d="M257.202,321.021L244.418,321.021C244.418,321.021 244.399,304.137 244.399,304.133C244.399,303.493 244.069,303.174 243.33,303.174L225.91,303.174C225.232,303.174 224.869,303.472 224.869,304.123L224.869,321.575C224.869,321.575 216.139,323.683 215.548,323.852C214.961,324.023 214.528,324.565 214.528,325.212L214.528,336.179C214.528,336.968 215.158,337.604 215.937,337.604L224.869,337.604L224.869,363.988C224.869,383.585 238.615,385.51 247.89,385.51C252.129,385.51 257.199,384.148 258.036,383.84C258.542,383.653 258.836,383.129 258.836,382.56L258.851,370.496C258.851,369.71 258.186,369.072 257.437,369.072C256.691,369.072 254.787,369.376 252.825,369.376C246.545,369.376 244.418,366.456 244.418,362.677C244.418,358.9 244.417,337.604 244.417,337.604L257.202,337.604C257.98,337.604 258.612,336.968 258.612,336.179L258.612,322.442C258.612,321.655 257.98,321.021 257.202,321.021Z" style="fill:#fff;fill-rule:nonzero;"/>
                    </g>
                </g>
            </g>
            <g transform="matrix(1.18061,0,0,1.18061,265.679,265.819)">
                <g transform="matrix(1,0,0,1,-49,-48)">
                    <clipPath id="_clip1">
                        <rect x="0" y="0" width="98" height="96"/>
                    </clipPath>
                    <g clip-path="url(#_clip1)">
                        <path d="M48.854,0C21.839,0 0,22 0,49.217C0,70.973 13.993,89.389 33.405,95.907C35.832,96.397 36.721,94.848 36.721,93.545C36.721,92.404 36.641,88.493 36.641,84.418C23.051,87.352 20.221,78.551 20.221,78.551C18.037,72.847 14.801,71.381 14.801,71.381C10.353,68.366 15.125,68.366 15.125,68.366C20.059,68.692 22.648,73.418 22.648,73.418C27.015,80.914 34.052,78.796 36.883,77.492C37.287,74.314 38.582,72.114 39.957,70.892C29.118,69.751 17.714,65.514 17.714,46.609C17.714,41.231 19.654,36.831 22.728,33.409C22.243,32.187 20.544,27.134 23.214,20.371C23.214,20.371 27.339,19.067 36.64,25.423C40.622,24.346 44.729,23.798 48.854,23.793C52.979,23.793 57.184,24.364 61.067,25.423C70.369,19.067 74.494,20.371 74.494,20.371C77.164,27.134 75.464,32.187 74.979,33.409C78.134,36.831 79.994,41.231 79.994,46.609C79.994,65.514 68.59,69.669 57.67,70.892C59.45,72.44 60.986,75.373 60.986,80.018C60.986,86.618 60.906,91.915 60.906,93.544C60.906,94.848 61.796,96.397 64.222,95.908C83.634,89.388 97.627,70.973 97.627,49.217C97.707,22 75.788,0 48.854,0Z" style="fill:#fff;"/>
                    </g>
                </g>
            </g>
        </g>
    </g>
</svg>
