<?xml version="1.0" encoding="UTF-8" standalone="no"?>
<!DOCTYPE svg PUBLIC "-//W3C//DTD SVG 1.1//EN" "http://www.w3.org/Graphics/SVG/1.1/DTD/svg11.dtd">
<svg width="100%" height="100%" viewBox="0 0 512 512" version="1.1" xmlns="http://www.w3.org/2000/svg" xmlns:xlink="http://www.w3.org/1999/xlink" xml:space="preserve" xmlns:serif="http://www.serif.com/" style="fill-rule:evenodd;clip-rule:evenodd;stroke-linejoin:round;stroke-miterlimit:2;">
    <g transform="matrix(1,0,0,1,-43,-44)">
        <g id="gnu-make" transform="matrix(1,0,0,1,-1,0)">
            <g id="back" transform="matrix(1,0,0,1,-25,-25)">
                <path d="M581,191.18C581,123.747 526.253,69 458.82,69L191.18,69C123.747,69 69,123.747 69,191.18L69,458.82C69,526.253 123.747,581 191.18,581L458.82,581C526.253,581 581,526.253 581,458.82L581,191.18Z" style="fill:rgb(34,31,32);"/>
            </g>
            <g transform="matrix(0.478909,0,0,0.478909,301,440.148)">
                <g transform="matrix(1,0,0,1,-385,-63)">
                    <g id="GNU" transform="matrix(1,0,0,1,22.4558,0.301646)">
                        <g transform="matrix(0.929565,0,0,0.929565,-225.661,-13.4782)">
                            <path d="M308.53,149.61C299.808,149.669 291.137,148.28 282.87,145.5C266.808,140.229 253.943,127.997 247.87,112.22C244.457,103.873 242.753,94.153 242.76,83.06C242.76,72.1 244.497,62.377 247.97,53.89C251.157,45.846 255.967,38.544 262.1,32.44C268.043,26.638 275.102,22.102 282.85,19.11C290.775,16.031 299.208,14.467 307.71,14.5C317.33,14.5 325.663,16.203 332.71,19.61C339.191,22.649 345.119,26.749 350.25,31.74L332.18,53.79C329.107,51.072 325.707,48.748 322.06,46.87C313.994,43.304 304.794,43.268 296.7,46.77C292.941,48.524 289.594,51.053 286.88,54.19C283.932,57.645 281.717,61.663 280.37,66C278.763,71.12 277.984,76.464 278.06,81.83C278.06,94.13 280.8,103.553 286.28,110.1C291.76,116.647 300.38,119.92 312.14,119.92C313.993,119.922 315.841,119.721 317.65,119.32C319.254,119.006 320.784,118.391 322.16,117.51L322.16,99.51L302.92,99.51L302.92,71.43L352.63,71.43L352.63,133.57C347.963,137.983 341.75,141.76 333.99,144.9C325.889,148.106 317.242,149.706 308.53,149.61Z" style="fill:white;fill-opacity:0.95;fill-rule:nonzero;"/>
                        </g>
                        <g transform="matrix(0.929565,0,0,0.929565,-225.661,-13.4782)">
                            <path d="M377.89,147.2L377.89,16.9L413.17,16.9L442,75L454.42,104.26L455.22,104.26C454.82,100.793 454.353,96.987 453.82,92.84C453.287,88.693 452.82,84.45 452.42,80.11C452.02,75.77 451.653,71.437 451.32,67.11C450.987,62.783 450.82,58.607 450.82,54.58L450.82,16.9L483.69,16.9L483.69,147.2L448.45,147.2L419.58,88.87L407.16,59.8L406.35,59.8C407.163,67.293 408.1,75.447 409.16,84.26C410.201,92.64 410.735,101.075 410.76,109.52L410.76,147.2L377.89,147.2Z" style="fill:white;fill-opacity:0.95;fill-rule:nonzero;"/>
                        </g>
                        <g transform="matrix(0.929565,0,0,0.929565,-225.661,-13.4782)">
                            <path d="M565.92,149.61C547.613,149.61 534.013,144.297 525.12,133.67C516.227,123.043 511.783,106.573 511.79,84.26L511.79,16.9L546.27,16.9L546.27,88.27C546.27,99.89 547.84,108.073 550.98,112.82C554.12,117.567 559.1,119.94 565.92,119.94C572.733,119.94 577.777,117.567 581.05,112.82C584.323,108.073 585.973,99.89 586,88.27L586,16.9L619.28,16.9L619.28,84.26C619.28,106.58 614.947,123.05 606.28,133.67C597.613,144.29 584.16,149.603 565.92,149.61Z" style="fill:white;fill-opacity:0.95;fill-rule:nonzero;"/>
                        </g>
                        <g transform="matrix(1.0074,0,0,1.0074,-45.1055,38.9117)">
                            <path d="M524.276,79.932L496.081,79.932L496.081,36.901C496.081,32.073 494.651,29.659 491.792,29.659C487.526,29.659 485.393,33.597 485.393,41.472L485.393,79.932L457.198,79.932L457.198,37.956C457.198,32.8 455.604,30.222 452.417,30.222C450.12,30.222 448.491,31.1 447.53,32.858C446.569,34.616 446.088,37.698 446.088,42.104L446.088,79.932L417.893,79.932L417.893,3.925L446.088,3.925L446.088,7.862C446.088,10.956 445.948,13.862 445.667,16.581C450.682,7.065 457.221,2.307 465.284,2.307C474.331,2.307 481.034,7.557 485.393,18.057C489.19,7.557 495.471,2.307 504.237,2.307C510.846,2.307 516.002,4.722 519.706,9.55C522.752,13.581 524.276,19.651 524.276,27.761L524.276,79.932Z" style="fill:white;fill-opacity:0.95;fill-rule:nonzero;"/>
                        </g>
                        <g transform="matrix(1.0074,0,0,1.0074,-45.1055,38.9117)">
                            <path d="M605.206,79.932L576.94,79.932C577.174,77.401 577.362,74.987 577.502,72.69C577.643,70.393 577.784,68.542 577.924,67.136C573.049,76.698 566.51,81.479 558.307,81.479C551.182,81.479 545.534,77.917 541.362,70.792C537.237,63.714 535.174,53.917 535.174,41.401C535.174,29.307 537.307,19.792 541.573,12.854C545.838,5.823 551.651,2.307 559.01,2.307C566.557,2.307 572.651,6.854 577.292,15.948C577.198,15.011 577.127,14.19 577.081,13.487C577.034,12.784 576.987,12.198 576.94,11.729L576.659,7.3L576.448,3.925L605.206,3.925L605.206,79.932ZM576.659,40.979C576.659,38.167 576.553,35.776 576.342,33.807C576.131,31.839 575.792,30.233 575.323,28.991C574.854,27.749 574.245,26.858 573.495,26.319C572.745,25.78 571.831,25.511 570.752,25.511C565.971,25.511 563.581,31.862 563.581,44.565C563.581,53.659 565.713,58.206 569.979,58.206C574.432,58.206 576.659,52.464 576.659,40.979Z" style="fill:white;fill-opacity:0.95;fill-rule:nonzero;"/>
                        </g>
                        <g transform="matrix(1.0074,0,0,1.0074,-45.1055,38.9117)">
                            <path d="M659.838,79.932L648.94,50.401C648.424,49.089 647.581,46.206 646.409,41.753L646.409,79.932L618.213,79.932L618.213,-38.825L646.409,-38.825L646.409,38.167C647.018,36.198 647.686,34.241 648.413,32.296C649.139,30.35 649.901,28.37 650.698,26.354L659.838,3.925L690.354,3.925L671.651,38.8L692.252,79.932L659.838,79.932Z" style="fill:white;fill-opacity:0.95;fill-rule:nonzero;"/>
                        </g>
                        <g transform="matrix(1.0074,0,0,1.0074,-45.1055,37.9117)">
                            <path d="M735.917,54.198L763.479,54.761C761.51,63.62 757.678,70.288 751.983,74.765C746.288,79.241 738.846,81.479 729.659,81.479C718.784,81.479 710.252,78.104 704.065,71.354C697.924,64.511 694.854,55.159 694.854,43.3C694.854,31.253 698.159,21.432 704.768,13.839C711.377,6.198 719.909,2.378 730.362,2.378C740.768,2.378 749.065,6.057 755.252,13.417C761.44,20.823 764.534,30.643 764.534,42.878L764.393,47.87L723.049,47.87C723.377,55.651 725.581,59.542 729.659,59.542C732.846,59.542 734.932,57.761 735.917,54.198ZM736.549,32.682C736.549,31.276 736.385,29.987 736.057,28.815C735.729,27.643 735.272,26.636 734.686,25.792C734.1,24.948 733.409,24.28 732.612,23.788C731.815,23.296 730.948,23.05 730.01,23.05C728.042,23.05 726.448,23.952 725.229,25.757C724.01,27.561 723.401,29.87 723.401,32.682L736.549,32.682Z" style="fill:white;fill-opacity:0.95;fill-rule:nonzero;"/>
                        </g>
                    </g>
                </g>
            </g>
            <g transform="matrix(1.01939,0,0,1.01939,164.418,118.644)">
                <path d="M54.444,145.849C52.709,145.967 50.449,146.745 48.933,149.462C47.696,151.681 44.797,152.035 43.443,151.588C41.188,150.843 38.306,150.326 35.515,152.315C32.724,154.304 29.708,152.8 30.237,149.174C30.766,145.548 32.075,142.32 35.552,140.32C43.143,135.953 37.867,132.914 42.034,128.531C46.208,124.139 45.286,122.795 45.148,116.831C31.038,114.711 23.04,110.644 14.111,99.487C5.181,88.33 1.719,79.146 0.793,65.157C-0.132,51.169 0.67,42.103 6.714,30.492C12.757,18.881 19.121,13.291 30.148,7.494C41.175,1.697 51.979,0.309 61.966,0.478C71.953,0.647 78.608,1.378 84.251,4.597C89.893,7.817 95.055,11.869 98.346,11.898C101.637,11.927 103.878,11.065 105.477,9.839C105.904,20.683 96.145,21.624 87.414,21.854C78.683,22.082 73.318,18.471 65.277,19.814C57.235,21.158 44.069,24.817 37.655,35.981C31.241,47.145 31.022,51.092 31.555,60.454C32.088,69.817 40.147,76.802 44.695,76.878C49.244,76.954 50.259,75.637 54.24,73.04C58.222,70.443 78.549,45.28 85.485,39.628C92.421,33.976 99.266,32.231 106.656,32.14C114.047,32.049 115.936,32.3 121.896,34.743C127.856,37.186 131.52,41.684 136.325,44.434C138.782,42.988 140.308,40.83 142.561,39.182C150.622,33.291 154.81,31.703 164.391,32.636C169.897,33.172 176.84,36.317 180.983,39.919C188.36,46.333 194.454,55.263 199.379,62.046C203.213,67.329 207.726,73.65 214.168,75.626C221.202,77.782 226.495,68.672 227.272,63.619C227.712,60.756 228.287,58.246 228.291,55.095C228.296,51.943 227.974,48.118 227.066,44.834C226.157,41.549 224.601,38.281 222.916,35.571C220.174,31.16 215.687,26.545 211.018,24.17C208.398,22.837 202.233,20.415 198.347,20.33C193.586,20.226 189.959,21.826 185.557,22.126C180.228,22.489 170.71,23.687 166.533,19.571C163.875,16.951 163.541,15.203 163.086,11.787C164.261,12.755 165.903,13.391 167.365,13.515C170.702,13.797 173.826,11.072 176.519,9.494C178.738,8.193 181.879,5.869 184.793,4.695C192.28,1.676 201.477,1.763 209.381,2.572C215.716,3.22 223.929,6.038 229.485,9.182C235.068,12.34 240.447,17.665 244.387,22.685C249.344,29.001 252.054,34.42 253.85,42.297C256.145,52.356 256.781,67.468 254.006,77.387C251.82,85.203 244.56,97.209 238.379,103.095C232.284,108.9 225.246,111.702 217.242,113.235C217.556,114.85 217.607,116.357 218.021,117.681C218.61,119.561 219.735,121.657 222.047,120.994C222.968,120.73 223.462,120.501 224.677,121.564C225.892,122.627 225.259,126.734 221.841,128.577C220.108,129.512 218.279,129.715 215.503,129.771C212.727,129.826 208.395,129.838 205.381,129.31C202.368,128.783 200.567,126.391 197.23,126.017C192.072,125.44 188.123,121.714 183.987,119.049C182.261,117.936 181.679,117.925 180.685,117.363C181.222,119.008 181.939,120.716 182.296,122.297C182.654,123.879 182.501,125.344 182.691,126.609C182.88,127.874 183.232,128.857 183.436,129.883C184.262,130.622 184.526,131.746 185.914,132.099C187.302,132.452 189.478,131.903 190.899,131.712C192.32,131.52 193.272,130.746 194.387,130.958C195.502,131.17 196.559,131.968 197.494,132.717C198.429,133.466 199.232,133.575 199.989,135.442C200.745,137.31 201.439,141.134 201.543,143.69C201.646,146.246 201.36,148.554 200.602,150.582C199.845,152.61 199.179,153.51 197.128,155.519C195.077,157.528 191.736,160.476 188.403,162.53C189.016,163.439 189.289,164.271 190.246,165.257C191.203,166.244 193.198,167.349 194.086,168.39C194.974,169.431 195.423,170.177 195.436,171.345C195.45,172.512 195.393,174.028 194.445,175.301C192.085,178.469 189.294,179.036 185.9,180.526C186.471,184.09 186.937,186.636 186.112,190.195C185.775,191.645 185.027,194.933 183.239,195.776C181.45,196.62 178,196.212 175.816,196.558C173.632,196.906 172.41,197.235 170.708,197.573C169.674,199.069 168.133,200.719 167.605,202.059C167.077,203.4 167.236,203.88 167.68,205.249C168.124,206.618 169.634,208.611 170.062,210.214C170.49,211.817 170.573,213.542 170.174,215.149C169.774,216.757 169.089,217.923 167.72,219.35C166.35,220.778 163.656,221.899 162.314,223.055C160.971,224.213 159.634,224.352 160,226.266C160.504,228.896 164.347,233.161 167.126,234.176C168.792,234.785 171.029,234.593 173.052,233.739C172.915,235.986 170.971,237.5 169.701,238.991C173.14,238.008 176.475,236.125 178.782,233.63C178.067,235.797 175.605,239.276 171.923,242.332C168.241,245.388 168.264,244.762 166.433,245.977C169.773,246.648 172.878,246.467 175.465,246.002C174.047,246.784 171.723,247.883 168.643,248.207C165.564,248.53 163.666,248.301 160.891,247.627C158.115,246.953 155.582,244.43 152.219,242.691C152.547,243.939 152.78,245.439 154.194,246.722C155.608,248.005 157.748,248.657 160.022,249.767C157.127,249.438 154.085,249.339 151.24,248.712C149.133,248.247 147.718,247.754 146.177,246.991C144.636,246.228 143.447,245.114 142.083,244.176C142.737,245.425 142.931,246.894 144.043,247.924C145.155,248.954 146.965,249.337 148.428,250.045C146.902,250.011 145.434,250.342 143.852,249.944C142.27,249.547 140.785,248.921 139.14,247.709C137.494,246.497 135.797,245.004 134.393,243.478C132.989,241.952 131.257,239.974 130.733,238.567C130.208,237.16 131.048,236.175 131.206,234.981C130.237,235.617 129.045,235.968 128.3,236.892C127.555,237.816 126.895,238.66 127.225,240.271C127.555,241.882 129.042,243.851 130.093,245.643C126.956,243.078 125.204,242.091 124.458,238.996C123.759,236.099 125.567,233.469 126.941,231.278C127.623,230.19 128.644,229.178 129.282,228.128C127.865,226.741 126.246,225.549 125.031,223.968C123.817,222.387 123.307,220.247 122.068,218.735C120.828,217.222 119.16,216.264 117.707,215.03C118.984,217.773 121.082,221.137 121.538,223.259C121.993,225.382 121.027,226.681 120.274,227.827C119.52,228.972 118.304,229.228 117.151,229.932C115.998,230.636 114.204,230.081 113.516,231.126C112.83,232.171 112.645,233.744 113.302,234.779L115.996,239.031C115.003,238.53 113.293,237.073 112.523,236.039C111.752,235.006 110.569,234.051 110.407,232.653C110.245,231.256 110.166,230.044 111.072,228.799C111.977,227.555 114.456,227.138 115.565,226.182C116.675,225.225 117.297,224.602 117.234,223.366C117.171,222.129 115.963,221.245 114.924,220.465C111.755,218.088 107.688,215.897 104.996,213.031C103.476,211.412 102.746,210.105 102.44,208.988C102.135,207.871 102.458,207 103.213,205.626C103.969,204.252 106.56,202.418 106.875,200.925C107.19,199.432 105.881,199.113 104.7,198.586C103.519,198.059 101.276,198.856 100.18,197.941C99.085,197.025 100.502,195.101 99.267,194.046C98.033,192.991 95.208,193.58 93.75,192.445C92.292,191.31 91.689,189.901 91.187,188.254C90.685,186.607 90.627,184.803 90.968,183.611C91.308,182.418 92.331,182.209 92.949,181.591C93.566,180.973 94.101,180.461 93.279,179.539C92.456,178.618 89.761,179.591 88.212,178.408C86.663,177.225 87.611,174.391 86.515,173.196C85.42,172.002 83.454,172.469 82.417,172.088C81.38,171.707 80.973,173.053 80.337,170.923C79.701,168.793 79.683,162.446 78.827,160.077C77.972,157.708 76.291,159.917 75.51,157.562C74.73,155.208 75.47,151.443 75.118,147.887L73.525,138.212C67.969,141.945 64.301,143.117 58.331,144.171C57.833,158.778 56.461,167.379 61.419,183.584C66.376,199.788 76.409,209.339 89.944,223.058C72.084,209.677 63.557,198.799 58.22,184.864C52.883,170.926 53.908,159.27 54.444,145.849M149.35,139.979C150.724,140.04 152.394,140.389 153.358,141.015C154.324,141.642 155.348,142.154 156.224,143.046C158.41,145.271 160.049,147.956 160.773,151.04C161.235,153.006 161.304,155.528 161.472,157.837C160.811,155.703 160.366,153.478 159.424,151.566C157.938,148.551 155.413,145.609 152.279,144.254C151.244,143.806 150.554,143.889 149.985,143.968C150.24,144.395 150.666,144.754 150.685,145.38C150.704,146.006 150.563,147.231 149.502,147.746C147.79,148.576 145.887,147.992 144.565,146.824C143.232,145.646 142.778,143.653 143.476,141.941C144.307,139.901 147.476,139.895 149.35,139.979M132.121,137.075C132.294,133.567 133.56,130.608 136.704,128.888C138.329,127.999 140.834,126.848 143.136,126.578C145.346,126.319 150.724,126.508 153.959,127.985C156.443,129.119 158.135,130.884 160.317,132.174C162.497,133.464 164.049,134.329 166.125,135.776C169.313,137.998 171.181,140.444 173.391,141.91C174.454,142.614 175.949,142.51 177.36,142.941C176.263,143.266 174.829,143.626 173.645,143.247C172.17,142.775 170.106,141.426 168.961,140.459C166.938,138.75 165.889,137.916 163.681,136.627C162.363,135.859 160.192,134.954 158.744,134.009C157.294,133.065 154.778,130.992 153.386,130.29C151.615,129.399 148.427,128.903 146.456,128.961C143.741,129.04 139.81,129.488 137.708,131.395C135.621,133.29 134.828,134.957 135.299,137.419C136.085,136.513 136.608,135.375 137.396,134.702C139.028,133.308 140.9,133.241 142.931,133.505C145.212,133.802 146.361,135.12 147.115,137.286C146.607,136.913 145.675,136.095 144.939,135.841C143.211,135.245 141.905,135.429 140.287,136.297C138.377,137.322 138.896,138.838 138.621,140.525C138.495,141.303 138.201,141.93 137.992,142.633C137.273,142.443 136.609,142.144 136.065,141.605C136.088,142.393 135.973,143.082 136.135,143.968C136.295,144.854 136.727,145.907 137.023,146.876C135.692,145.546 134.331,144.307 133.472,142.589C132.612,140.87 132.029,138.962 132.121,137.075M134.423,111.541C135.404,110.086 135.691,107.854 136.296,106.039C136.054,108.338 136.519,110.866 135.396,112.531C134.273,114.196 132.303,113.904 130.67,114.388C131.94,113.419 133.442,112.997 134.423,111.541M110.948,145.628C112.207,144.608 115.605,145.423 118.146,145.605L112.667,147.008C112.497,147.63 112.574,148.342 112.157,148.872C111.74,149.402 110.947,149.598 110.342,149.961C110.402,148.328 109.689,146.646 110.948,145.628M128.854,74.836C130.371,75.653 132.297,76.733 133.636,76.766C134.976,76.8 135.327,75.89 136.115,75.365C137.355,79.408 138.778,83.851 140.889,87.519C141.773,89.056 142.337,88.341 143.01,89.886C143.681,91.43 143.98,94.572 144.617,96.545C145.255,98.518 146.087,99.97 146.822,101.683C144.956,99.038 142.544,95.666 141.504,93.465C140.465,91.265 141.13,91.073 140.288,88.978C139.447,86.882 137.746,83.615 136.474,80.934C135.564,81.055 134.437,81.22 133.745,81.007C133.053,80.793 133.191,80.057 132.565,79.582C131.939,79.107 130.887,79.29 130.01,78.531C129.133,77.772 128.934,76.214 128.854,74.836M120.687,94.785C122.114,94.66 123.887,95.043 125.224,94.967C126.561,94.891 127.515,94.544 128.661,94.333C128.448,92.319 128.65,88.619 126.791,87.275C125.59,86.407 120.659,87.061 119.342,87.345C116.378,87.984 112.926,89.753 110.059,90.859C112.807,88.94 115.18,87.161 118.475,86.171C120.456,85.575 125.078,84.801 127.122,85.353C128.055,85.605 128.244,85.991 128.81,86.782C130.756,89.499 130.75,91.847 131.255,95.011C131.751,95.785 132.28,96.3 132.682,97.098C133.083,97.896 133.311,99.151 133.423,100.177C132.914,99.438 133.225,98.512 131.815,97.963C130.403,97.413 128.243,97.926 126.341,98.125C127.727,99.125 128.416,100.088 128.469,102.203C128.531,104.685 126.429,106.472 124.235,106.642C121.188,106.879 119.617,106.209 118.385,103.605C117.845,102.465 118.236,101.093 118.191,99.981C114.53,100.235 114.59,100.116 111.915,102.347C113.369,104.478 114.285,105.703 116.688,106.977C118.036,107.693 119.562,108.388 121.232,108.672C122.903,108.957 125.643,109.231 127.398,108.962C129.153,108.693 130.147,108.192 131.448,106.988C132.75,105.785 132.869,104.062 133.377,102.699C133.262,104.011 133.111,105.68 132.625,106.631C131.144,109.522 128.584,110.379 125.526,110.389C122.592,110.398 118.962,109.721 116.232,108.589C114.049,107.685 110.431,105.123 109.572,102.897C108.985,101.376 109.45,99.51 109.388,97.817C112.411,95.807 113.159,96.301 116.735,95.713C118.23,95.467 119.259,94.911 120.687,94.785M103.082,81.173C103.167,79.969 103.3,79.995 103.409,79.405C100.656,78.669 99.552,80.455 97.937,83.773C97.333,85.014 97.931,85.753 97.283,86.57C96.636,87.387 95.593,87.273 94.541,88.057C93.49,88.842 92.448,90.344 91.466,91.156C89.449,92.823 86.722,93.841 84.383,94.963C85.981,93.784 89.081,91.997 90.084,90.284C90.616,89.376 90.537,87.664 91.365,86.848C92.193,86.031 92.483,85.466 93.552,85.258C94.621,85.05 94.191,83.81 94.536,82.826C94.88,81.841 95.567,81.141 96.298,80.158C97.029,79.175 97.951,77.696 99.393,77.16C100.836,76.623 103.086,77.204 104.179,76.895C105.27,76.586 104.643,75.792 105.437,75.315C106.231,74.838 107.775,75.049 108.836,74.539C110.716,73.635 111.616,72.126 112.747,70.51C112.911,73.988 112.871,76.492 111.621,79.764C110.213,83.447 108.787,85.616 104.792,87.881C103.415,88.661 102.046,88.932 100.905,89.341C101.57,88.434 102.522,88.04 102.901,86.619C103.279,85.197 102.997,82.378 103.082,81.173M167.577,98.132C165.678,98.255 165.227,98.005 163.708,99.077L166.178,102.923C166.105,100.393 166.352,99.885 167.577,98.132M162.601,96.293C165.231,95.172 167.523,94.266 170.385,94.087C171.532,94.015 173.313,94.192 174.472,94.245C175.459,92.792 176.716,91.646 177.177,89.988C177.483,88.888 177.332,83.783 176.792,82.457C175.218,78.6 173.688,78.437 171.522,76.228C169.951,74.625 169.888,72.185 169.418,69.451C169.246,68.447 168.753,67.176 168.522,66.139C165.69,65.662 162.645,65.505 159.388,65.668C160.968,64.153 162.495,62.769 162.948,60.494C163.4,58.22 163.032,55.424 161.739,53.384C160.446,51.344 158.381,49.568 156.485,47.906C154.589,46.244 151.871,44.873 150.074,43.514C152.411,42.677 154.797,41.448 157.086,41.004C163.05,39.847 168.188,41.616 173.94,45.094C177.284,47.116 180.05,49.038 183.546,52.698C187.041,56.357 191.376,63.07 194.76,67.051C198.144,71.032 200.876,74.18 203.828,76.555C206.78,78.93 209.453,79.605 212.265,81.131L216.647,85.784L220.194,81.396L225.901,82.041L227.08,75.635L232.318,74.2L231.464,65.565L235.23,62.892L232.399,57.519L235.275,51.648L231.526,44.938L232.971,38.476L228.631,34.777L228.064,27.91L222.009,25.6L219.58,19.627L212.772,19.55L209.433,15.115L204.85,15.436L199.741,14.88L196.852,12.747L192.659,15.531L187.585,12.885L177.499,16.714L184.074,10.996L190.886,9.908L196.104,8.578L203.152,10.892L209.355,9.321L215.336,12.857L221.665,12.507L224.775,18.086L231.077,18.813L234.486,25.016L238.45,27.18L239.502,35.126L243.032,38.474L241.48,45.427L245.639,50.692L241.739,56.333L245.909,59.86L240.579,64.584L245.977,70.206L239.458,72.308L243.704,78.338L238.379,79.257L241.871,85.887L235.87,85.807L238.893,90.773L232.31,89.981L233.885,97.126L228.91,92.749L227.206,101.408L223.773,95.191L221.913,102.946L217.675,97.227L217.791,105.359L213.107,98.048C214.095,102.196 213.897,106.739 216.622,110.65C225.064,109.507 230.582,107.38 237.05,101.156C242.941,95.488 249.982,83.669 251.888,76.173C254.064,67.619 254.131,51.887 251.988,43.178C249.926,34.793 247.245,30.788 242.456,23.946C237.879,19.084 233.377,13.948 227.567,10.481C219.039,5.392 208.104,4.02 198.384,4.152C193.003,4.226 189.397,5.259 186.18,6.43C180.553,8.476 176.053,12.939 170.333,15.145C168.467,15.863 166.972,15.886 165.503,15.101C166.941,17.979 168.506,19.27 172.094,20.318C174.689,21.075 180.882,20.596 185.145,20.203C189.722,19.78 192.109,18.419 198.337,18.505C204.42,18.588 209.24,20.899 211.876,22.406C217.313,25.515 221.213,28.964 224.601,34.428C226.462,37.429 227.765,40.814 228.683,44.268C229.601,47.723 230.003,51.592 230.062,54.974C230.121,58.356 229.862,61.375 229.035,64.418C227.1,71.543 222.832,78.794 214.064,77.674C208.698,76.988 200.609,66.917 197.9,63.222C192.434,55.765 186.81,47.513 179.941,41.303C175.754,37.518 170.02,34.913 164.389,34.398C153.826,33.431 150.693,35.438 142.742,41.992C144.36,42.507 145.939,42.792 147.596,43.539C151.275,45.197 154.64,47.339 157.575,50.088C160.651,52.968 162.03,54.791 162.14,58.916C162.212,61.655 159.959,63.851 157.893,65.826C156.629,67.036 154.957,68.144 153.933,69.083C152.577,70.329 150.897,71.692 152.601,73.677C153.242,74.423 154.355,74.986 155.294,75.682C156.783,76.788 156.101,80.897 154.139,81.987C151.627,83.381 148.627,83.225 146.556,81.36C149.17,80.969 150.83,80.622 150.762,78.484C150.723,77.244 149.147,76.214 147.601,75.509C143.871,73.809 141.054,74.06 137.342,71.389C133.593,68.69 133.51,67.212 132.497,62.975C130.689,63.164 129.024,63.206 126.607,64.006C124.19,64.806 121.519,66.711 119.324,67.182C113.797,68.372 112.696,68.019 109.671,67.236C104.346,65.858 97.412,68.218 90.524,70.421C89.378,70.787 84.746,70.433 81.628,71.528C76.811,73.217 70.054,77.31 66.151,80.597C60.237,85.578 52.465,100.484 48.074,117.594C47.613,122.795 49.092,126.3 45.815,128.84C42.539,131.381 42.63,137.889 41.519,139.714C40.408,141.539 39.122,140.733 36.73,143.296C34.338,145.859 33.121,145.431 33.182,150.278C35.243,148.923 38.247,147.348 40.885,147.253C43.222,147.168 43.247,150.244 49.244,144.316C52.451,141.144 58.613,141.047 62.888,139.648C67.163,138.249 74.868,135.366 82.584,126.74C90.3,118.113 93.993,109.031 95.489,95.902C95.727,98.229 96.141,100.855 95.144,107.276C94.147,113.697 91.999,120.91 96.525,129.549L99.345,134.932C97.666,132.64 94.387,128.903 93.399,126.24L91.122,120.096C86.027,128.096 84.856,129.526 77.779,135.257C77.497,138.813 77.428,142.521 78.59,145.923C79.752,149.324 77.9,153.246 78.784,155.486C79.668,157.726 81.713,156.451 82.38,158.72C83.048,160.988 82.032,165.472 83.067,167.683C84.102,169.894 86.643,168.552 87.874,169.266C89.106,169.981 89.508,170.96 90.167,171.899C90.825,172.838 89.909,175.058 91.249,175.779C92.587,176.5 94.676,175.889 96.069,176.581C97.462,177.273 97.674,178.937 97.34,180.427C97.006,181.917 95.517,182.602 94.863,184.117C94.209,185.632 94.283,186.688 95.068,188.08C95.853,189.472 97.592,190.239 99.325,190.942C101.057,191.644 103.492,191.25 105.28,192.221C107.069,193.193 108.676,195.128 109.62,196.535C110.564,197.942 110.827,198.934 110.778,200.414C110.73,201.892 110.13,203.596 109.34,205.024C108.55,206.452 106.809,208.192 109.528,210.92C112.247,213.648 112.148,212.471 113.706,214.241C113.536,211.18 112.271,208.686 113.196,206.382C114.121,204.078 116.898,203.677 118.362,202.64C119.826,201.603 120.669,200.179 121.823,198.949C121.806,200.532 121.976,202.234 121.796,203.426C121.429,205.85 120.714,208.002 124.326,208.391C125.953,208.565 127.498,207.51 129.21,206.877C128.313,208.483 126.753,209.775 126.519,211.697C126.284,213.619 126.566,215.73 127.897,217.637C129.228,219.543 131.526,220.959 133.21,222.079C134.894,223.199 135.796,223.29 137.09,223.896C137.153,225.785 136.781,227.785 136.997,229.565C137.212,231.344 137.773,232.919 138.802,234.39C139.831,235.861 141.483,236.706 143.038,237.794C142.185,235.808 140.456,233.925 140.479,231.838C140.502,229.751 141.128,228.272 143.164,226.42C145.2,224.568 149.965,222.962 152.212,221.161C154.459,219.36 155.184,218.257 155.991,216.508C156.798,214.759 156.573,211.943 156.722,210.371C157.462,212.573 157.568,213.257 157.808,215.561C158.048,217.865 156.465,221.096 155.795,222.802C158.574,221.459 160.339,219.313 161.229,217.216C161.825,217.569 161.525,218.539 161.744,220.406C162.735,219.42 163.861,218.662 164.858,217.731C165.856,216.802 166.95,215.984 167.445,214.687C167.939,213.389 167.737,212.009 167.369,210.501C167,208.993 165.315,207.245 164.408,205.596C163.501,203.947 164.568,202.328 164.507,200.341C162.691,200.03 161.15,199.105 159.063,199.405C156.975,199.705 154.584,202.048 152.451,202.075C150.318,202.102 149.12,200.104 147.371,199.554C145.622,199.004 143.852,199.065 142.093,198.821C144.321,196.687 152.967,195.67 158.88,194.706C164.084,193.857 169.248,193.367 174.52,193.293C176.875,193.259 179.901,194.037 181.536,193.567C183.172,193.098 182.823,191.984 183.308,190.769C184.666,187.374 183.997,184.351 183.258,180.932C178.525,180.377 173.593,179.698 168.824,180.064C164.162,180.423 158.641,182.639 153.832,182.789C149.651,182.919 143.459,181.988 139.869,179.8C135.482,177.126 132.087,171.382 130.882,169.538C128.92,166.535 126.444,160.642 124.938,157.948C123.433,155.253 123.101,154.5 121.848,153.375C120.595,152.251 118.879,152.164 117.395,151.558C119.106,151.733 120.974,151.191 122.528,152.082C124.863,153.422 127.477,158.975 128.929,161.391C130.469,156.231 130.11,154.202 134.564,151.292C130.974,155.316 130.885,158.363 130.01,163.1C132.995,168 137.145,175.804 142.575,177.969C144.537,178.752 147.905,179.243 150.026,179.505C156.626,180.322 162.991,178.231 169.473,176.63C174.211,175.46 179.019,175.932 184.781,176.27C186.737,176.385 191.35,175.208 192.305,173.229C192.821,172.162 192.783,170.879 192.042,169.741C191.3,168.604 189.325,168.053 188.266,167.029C187.207,166.005 186.598,164.79 185.764,163.67C181.363,164.514 177.743,164.839 174.476,164.928C176.819,163.962 179.067,163.412 181.506,162.458C183.945,161.504 186.714,159.938 188.682,158.639C190.65,157.34 191.907,156.586 193.331,155.074C194.755,153.562 196.58,152.002 197.63,150.153C198.68,148.304 198.842,146.235 198.901,143.947C198.96,141.659 198.861,138.447 197.978,136.604C197.097,134.761 195.396,134.201 194.03,133.765C192.664,133.329 191.728,134.432 190.307,134.581C188.885,134.73 187.557,135.626 185.502,134.659C183.446,133.693 181.009,131.725 178.931,128.804C176.853,125.883 175.367,121.109 173.249,117.436C169.598,111.105 165.047,105.191 160.696,99.324C160.338,97.877 159.799,95.878 159.62,93.916C159.308,90.496 159.249,86.944 160.31,83.61C161.124,81.056 162.307,78.358 164.981,77.311C166.051,76.892 167.404,76.725 168.361,77.08C169.318,77.434 170.256,78.514 169.88,79.761C169.467,81.133 168.517,81.17 167.871,81.863C166.775,83.038 166.336,83.9 165.922,85.365C167.107,85.345 168.708,85.255 169.681,85.511C170.95,85.845 172.132,86.687 172.777,88.486C171.262,87.142 170.509,86.526 168.618,86.478C167.752,86.456 166.699,86.766 165.74,86.911C165.382,88.076 165.172,89.505 164.666,90.407C164.16,91.308 163.175,91.092 162.805,92.146C162.436,93.197 162.414,94.91 162.601,96.293M175.838,94.713C176.418,94.942 176.639,94.992 177.374,95.552C178.109,96.112 179.123,96.669 179.705,98.005C180.288,99.342 180.261,101.409 180.137,102.251C179.626,102.101 178.929,102.203 178.399,101.749C177.87,101.296 177.555,100.27 176.876,99.83C176.197,99.392 175.631,99.488 174.881,99.392C175.266,100.489 175.454,101.586 175.275,102.581C174.886,104.751 173.61,105.851 171.543,106.111C170.641,106.224 169.208,105.927 168.423,105.784C168.787,106.597 169.404,107.309 169.768,108.122C171.515,107.869 172.81,107.905 173.749,107.466C174.688,107.027 175.696,106.042 176.902,105.625C178.108,105.208 179.183,105.215 180.502,105.009C179.463,105.904 178.781,106.8 177.743,107.696L180.027,114.333C181.641,115.343 183.155,115.875 185.188,117.121C187.223,118.368 189.662,120.599 192.311,121.815C194.961,123.032 196.538,123.694 199.307,124.216C202.074,124.738 204.277,126.98 207,127.344C209.724,127.709 214.812,127.782 216.911,127.577C219.294,127.345 222.39,126.115 222.668,123.502C220.67,123.995 217.618,123.552 216.077,119.792C215.393,118.123 215.728,115.052 214.681,113.077C213.634,111.102 212.176,110.469 210.432,108.036C208.688,105.603 205.837,101.765 204.236,98.506C202.636,95.246 202.26,91.554 200.906,88.634C199.552,85.714 197.511,83.355 195.928,81.104C192.473,76.184 189.687,72.822 183.995,70.341C181.257,69.147 178.14,68.829 175.213,68.073C174.022,68.607 172.388,69.196 172.098,70.589C171.808,71.982 172.365,74.04 173.376,75.086C175.069,76.834 177.576,78.724 178.562,81.504C179.195,83.287 179.379,89.266 178.83,90.888C178.261,92.573 176.938,93.591 175.838,94.713M176.389,108.864C175.86,109.321 175.457,109.789 174.606,110.168C173.757,110.547 172.596,110.645 171.468,110.926C173.05,113.388 174.711,115.875 176.226,118.464C177.742,121.051 179.055,123.885 180.502,126.595C180.434,125.042 180.525,123.386 180.299,121.934C180.074,120.483 179.416,119.213 178.764,117.035C178.112,114.857 177.312,111.893 176.389,108.864M133.841,54.74C133.618,57.161 134.027,60.947 134.529,63.317C135.13,66.155 135.708,67.627 138.011,69.337C142.229,72.468 144.921,71.94 148.165,73.755C149.709,74.619 151.665,76.067 152.236,77.598C152.807,79.129 151.859,80.791 150.688,81.444C152.736,81.749 155.032,79.441 154.074,77.071C153.602,75.904 151.356,75.385 150.667,74.208C149.98,73.032 149.981,71.82 150.305,70.625C150.89,68.471 155.152,66.514 156.658,64.811C158.975,62.191 159.865,60 158.552,56.625C156.709,51.885 149.589,48.081 145.327,46.221C143.375,45.369 142.281,45.309 140.759,44.853C143.875,46.679 147.161,48.134 148.737,52.216C150.054,55.626 148.914,56.911 148.958,59.88C148.978,61.256 150.791,61.944 151.595,62.814C152.296,63.57 152.239,64.131 151.68,65.175C151.618,64.234 151.216,63.531 150.493,63.019C149.3,62.174 148.015,62.356 147.379,60.621C146.414,57.985 148.328,55.488 146.176,52.528C144.567,50.313 142.427,47.834 139.54,47.769C138.174,47.738 137.146,47.945 135.687,48.376L133.741,46.035L133.696,46.004C129.738,42.392 127.03,39.415 121.478,36.932C115.925,34.45 113.189,34.074 106.823,34.216C100.457,34.358 94.139,34.889 86.766,41.248C79.393,47.606 60.39,71.954 55.782,75.036C51.174,78.118 50.153,79.161 44.395,79.163C38.637,79.165 29.65,71.019 29.298,60.841C28.946,50.661 28.804,47.043 35.88,34.781C42.956,22.517 55.776,18.752 65.287,17.481C74.798,16.21 80.514,19.559 87.55,19.575C94.585,19.591 101.538,18.377 103.588,12.781C102.585,13.379 101.24,14.052 97.46,13.854C93.68,13.656 88.437,9.279 82.539,6.346C76.641,3.413 70.08,3.07 61.663,2.911C53.246,2.752 42.743,3.395 32.338,9.012C21.933,14.629 14.83,20.589 8.795,31.583C2.76,42.577 1.858,51.553 2.831,64.865C3.804,78.177 7.91,88.076 15.815,97.819C23.72,107.562 31.62,112.329 45.865,114.101L48.864,100.874L43.51,108.556L43.643,100.011L38.8,106.02L36.676,97.871L32.753,104.405L30.805,95.306L25.12,99.904L26.919,92.396L19.397,93.229L22.852,88.011L15.993,88.094L19.984,81.127L13.899,80.161L18.751,73.824L11.3,71.616L17.469,65.708L11.378,60.745L16.142,57.039L11.687,51.111L16.439,45.579L14.666,38.273L18.701,34.756L19.902,26.407L24.431,24.132L28.327,17.615L35.529,16.85L39.083,10.988L46.316,11.356L53.152,7.641L60.241,9.292L68.293,6.86L74.257,8.257L82.04,9.401L89.555,15.41L78.028,11.386L72.23,14.166L67.437,11.241L64.138,13.483L58.299,14.067L53.063,13.729L49.246,18.389L41.465,18.469L38.689,24.746L31.771,27.173L31.124,34.389L26.162,38.275L27.815,45.065L23.531,52.117L26.817,58.285L23.583,63.931L27.886,66.739L26.91,75.813L32.896,77.321L34.244,84.052L40.766,83.374L44.818,87.986L49.826,83.096C58.956,78.543 62.716,75.997 69.832,68.301C77.931,59.54 82.574,51.44 93.363,45.442C101.101,41.14 107.413,39.591 116.106,41.093C124.267,42.503 127,47.399 133.011,52.556C133.648,51.403 133.777,51.097 134.827,50.248C134.497,51.745 133.974,53.299 133.841,54.74" style="fill:white;fill-rule:nonzero;"/>
            </g>
        </g>
    </g>
</svg>
