<?xml version="1.0" encoding="UTF-8" standalone="no"?>
<!DOCTYPE svg PUBLIC "-//W3C//DTD SVG 1.1//EN" "http://www.w3.org/Graphics/SVG/1.1/DTD/svg11.dtd">
<svg width="100%" height="100%" viewBox="0 0 512 513" version="1.1" xmlns="http://www.w3.org/2000/svg" xmlns:xlink="http://www.w3.org/1999/xlink" xml:space="preserve" xmlns:serif="http://www.serif.com/" style="fill-rule:evenodd;clip-rule:evenodd;stroke-linejoin:round;stroke-miterlimit:2;">
    <g transform="matrix(1,0,0,1,-44,-44)">
        <g id="html" transform="matrix(0.808641,0,0,0.808641,56.4078,54.9812)">
            <g id="back" transform="matrix(1.23664,0,0,1.23664,-100.672,-98.2899)">
                <path d="M581,191.18C581,123.747 526.253,69 458.82,69L191.18,69C123.747,69 69,123.747 69,191.18L69,458.82C69,526.253 123.747,581 191.18,581L458.82,581C526.253,581 581,526.253 581,458.82L581,191.18Z" style="fill:rgb(37,39,43);"/>
            </g>
            <g transform="matrix(0.778336,0,0,0.778336,301.237,319.088)">
                <g transform="matrix(1,0,0,1,-256,-256)">
                    <path d="M71,460L30,0L481,0L440,460L255,512" style="fill:rgb(227,79,38);fill-rule:nonzero;"/>
                    <path d="M256,472L405,431L440,37L256,37" style="fill:rgb(239,101,42);fill-rule:nonzero;"/>
                    <path d="M256,208L181,208L176,150L256,150L256,94L114,94L115,109L129,265L256,265L256,208ZM256,355L255,355L192,338L188,293L132,293L139,382L255,414L256,414L256,355Z" style="fill:rgb(235,235,235);fill-rule:nonzero;"/>
                    <path d="M255,208L255,265L325,265L318,338L255,355L255,414L371,382L372,372L385,223L387,208L255,208ZM255,94L255,150L392,150L393,138L396,109L397,94L255,94Z" style="fill:white;fill-rule:nonzero;"/>
                </g>
            </g>
        </g>
    </g>
</svg>
