<?xml version="1.0" encoding="UTF-8" standalone="no"?>
<!DOCTYPE svg PUBLIC "-//W3C//DTD SVG 1.1//EN" "http://www.w3.org/Graphics/SVG/1.1/DTD/svg11.dtd">
<svg width="100%" height="100%" viewBox="0 0 512 512" version="1.1" xmlns="http://www.w3.org/2000/svg" xmlns:xlink="http://www.w3.org/1999/xlink" xml:space="preserve" xmlns:serif="http://www.serif.com/" style="fill-rule:evenodd;clip-rule:evenodd;stroke-linejoin:round;stroke-miterlimit:2;">
    <g transform="matrix(1,0,0,1,-43,-45)">
        <g id="j-query" transform="matrix(2.32458,0,0,2.32458,-318.594,-364.657)">
            <g id="back" transform="matrix(0.430185,0,0,0.430185,125.869,146.545)">
                <path d="M581,191.18C581,123.747 526.253,69 458.82,69L191.18,69C123.747,69 69,123.747 69,191.18L69,458.82C69,526.253 123.747,581 191.18,581L458.82,581C526.253,581 581,526.253 581,458.82L581,191.18Z" style="fill:rgb(27,104,174);"/>
            </g>
            <g transform="matrix(0.753258,0,0,0.753258,267.034,258.288)">
                <g transform="matrix(1,0,0,1,-64,-64)">
                    <path d="M9.625,32.181C-1.404,48.032 -0.031,68.657 8.394,85.501C8.594,85.905 8.804,86.302 9.011,86.699L9.405,87.458L9.651,87.895L10.09,88.681C10.352,89.142 10.62,89.601 10.894,90.06L11.353,90.816C11.657,91.306 11.968,91.793 12.286,92.276L12.684,92.89C13.123,93.545 13.572,94.199 14.036,94.841L14.075,94.891L14.303,95.199C14.705,95.752 15.116,96.299 15.535,96.838L15.999,97.428C16.372,97.897 16.752,98.363 17.137,98.827L17.572,99.347C18.091,99.959 18.62,100.564 19.158,101.159L19.191,101.192L19.252,101.26C19.781,101.834 20.318,102.401 20.864,102.959L21.381,103.48C21.804,103.905 22.233,104.326 22.668,104.742L23.195,105.242C23.774,105.789 24.362,106.324 24.959,106.849L24.987,106.871L25.294,107.133C25.822,107.59 26.356,108.041 26.897,108.486L27.561,109.015C28.002,109.369 28.448,109.717 28.897,110.059L29.611,110.602C30.107,110.967 30.607,111.326 31.11,111.677L31.656,112.064L31.806,112.171C32.284,112.5 32.773,112.817 33.262,113.134L33.892,113.554C34.642,114.028 35.402,114.497 36.171,114.95L36.801,115.305C37.366,115.632 37.936,115.951 38.511,116.264C38.823,116.432 39.143,116.591 39.457,116.752C39.864,116.965 40.268,117.181 40.682,117.388L40.965,117.525L41.466,117.767C42.107,118.074 42.753,118.373 43.406,118.664L43.816,118.848C44.565,119.175 45.319,119.489 46.079,119.789L46.63,120.006C47.334,120.277 48.048,120.545 48.765,120.797L49.033,120.89C49.82,121.165 50.614,121.42 51.414,121.669L51.989,121.841C52.803,122.086 53.608,122.379 54.447,122.534C107.786,132.261 123.28,90.481 123.28,90.481C110.267,107.434 87.169,111.906 65.284,106.927C64.455,106.74 63.651,106.481 62.842,106.242L62.233,106.057C61.445,105.815 60.661,105.56 59.881,105.292L59.558,105.175C58.863,104.929 58.171,104.673 57.484,104.406L56.902,104.177C56.149,103.88 55.402,103.57 54.663,103.246L54.216,103.048C53.583,102.762 52.953,102.469 52.327,102.169L51.781,101.907C51.29,101.668 50.804,101.414 50.32,101.164C49.996,100.993 49.666,100.832 49.345,100.654C48.756,100.337 48.172,100.009 47.594,99.672L47.003,99.342C46.235,98.889 45.475,98.423 44.723,97.945L44.108,97.535C43.561,97.184 43.02,96.825 42.485,96.456L41.963,96.089C41.448,95.725 40.936,95.355 40.429,94.98L39.75,94.466C39.284,94.112 38.822,93.751 38.366,93.384L37.749,92.889C37.168,92.412 36.593,91.928 36.025,91.436L35.836,91.277C35.224,90.737 34.62,90.188 34.024,89.63L33.513,89.139C33.072,88.719 32.638,88.296 32.211,87.862L31.701,87.353C31.159,86.798 30.626,86.235 30.103,85.663L30.024,85.579C29.472,84.974 28.932,84.36 28.403,83.735L27.979,83.231C27.584,82.755 27.195,82.275 26.812,81.789L26.385,81.257C25.927,80.665 25.478,80.067 25.038,79.463C12.888,62.889 8.522,40.031 18.233,21.259M43.862,18.825C35.885,30.303 36.319,45.669 42.541,57.808C43.583,59.848 44.762,61.815 46.069,63.697C47.264,65.41 48.589,67.448 50.175,68.824C50.755,69.459 51.352,70.079 51.965,70.682L52.437,71.147C53.033,71.728 53.642,72.294 54.265,72.845L54.339,72.909L54.357,72.927C55.054,73.534 55.766,74.123 56.492,74.694L56.977,75.072C57.707,75.635 58.452,76.178 59.21,76.703L59.275,76.752C59.611,76.984 59.953,77.2 60.294,77.424L60.777,77.743C61.321,78.093 61.873,78.431 62.432,78.758L62.667,78.894C63.151,79.173 63.639,79.445 64.13,79.712L64.651,79.983C64.99,80.16 65.329,80.341 65.674,80.513L65.829,80.583C66.532,80.929 67.241,81.263 67.965,81.578L68.437,81.772C69.016,82.018 69.601,82.258 70.187,82.482L70.937,82.757C71.47,82.955 72.005,83.135 72.544,83.316L73.271,83.549C74.038,83.787 74.796,84.088 75.595,84.221C116.778,91.044 126.286,59.335 126.286,59.335C117.716,71.678 101.118,77.568 83.407,72.97C82.624,72.764 81.846,72.54 81.074,72.296L80.373,72.069C79.826,71.892 79.282,71.705 78.742,71.507L78.006,71.233C77.417,71.007 76.831,70.771 76.25,70.525L75.777,70.325C75.053,70.01 74.337,69.677 73.629,69.326C73.266,69.149 72.909,68.962 72.551,68.778L71.929,68.458C71.47,68.209 71.016,67.953 70.566,67.688L70.24,67.503C69.683,67.178 69.133,66.842 68.589,66.495L68.091,66.163C67.732,65.931 67.376,65.695 67.022,65.456C66.267,64.931 65.525,64.388 64.796,63.828L64.295,63.433C56.543,57.313 50.397,48.947 47.476,39.462C44.414,29.626 45.074,18.584 50.379,9.622M72.657,8.847C67.955,15.767 67.493,24.361 70.756,32.003C74.197,40.116 81.247,46.479 89.476,49.498C89.815,49.623 90.155,49.735 90.498,49.852L90.949,49.995C91.434,50.147 91.915,50.324 92.416,50.419C115.156,54.813 121.324,38.75 122.965,36.385C117.563,44.164 108.483,46.031 97.342,43.327C96.462,43.114 95.495,42.796 94.647,42.495C93.557,42.108 92.489,41.665 91.446,41.166C89.466,40.214 87.586,39.067 85.834,37.742C75.865,30.177 69.672,15.748 76.177,3.997" style="fill:rgb(151,210,244);fill-rule:nonzero;"/>
                </g>
            </g>
            <g id="jQuery" transform="matrix(0.852518,0,0,0.852518,40.1707,43.1044)">
                <g transform="matrix(0.430185,0,0,0.430185,131.115,326.425)">
                    <path d="M322.38,18.971L307.024,18.971C306.172,18.971 305.326,19.655 305.144,20.487L299.693,45.709L294.241,70.931C294.06,71.764 293.215,72.445 292.363,72.445L281.494,72.445C270.741,72.445 271.985,65.008 274.187,54.818C274.209,54.715 274.231,54.615 274.253,54.51L274.495,53.226C274.509,53.143 274.526,53.06 274.54,52.984L275.031,50.369L275.557,47.567C275.717,46.722 275.96,45.487 276.118,44.71L278.596,32.601L281.077,20.492C281.248,19.657 280.689,18.971 279.837,18.971L264.075,18.971C263.222,18.971 262.379,19.657 262.204,20.49L258.816,36.569L255.427,52.646C255.424,52.653 255.423,52.663 255.422,52.67L255.107,54.165C251.203,71.987 252.239,88.982 273.454,89.514C273.801,89.524 274.069,89.526 274.069,89.526L307.371,89.526C308.223,89.526 309.067,88.842 309.245,88.007L316.427,54.25L323.608,20.49C323.785,19.656 323.232,18.972 322.38,18.972L322.38,18.971Z" style="fill:white;fill-rule:nonzero;"/>
                </g>
                <g transform="matrix(0.430185,0,0,0.430185,131.115,326.425)">
                    <path d="M157.91,18.793L141.046,18.793C140.193,18.793 139.342,19.474 139.152,20.304L137.552,27.362L135.953,34.423C135.765,35.253 136.309,35.934 137.162,35.934L154.157,35.934C155.009,35.934 155.856,35.253 156.039,34.42L157.585,27.362L159.13,20.309L159.13,20.307C159.312,19.475 158.764,18.793 157.91,18.793L157.91,18.793Z" style="fill:white;fill-rule:nonzero;"/>
                </g>
                <g transform="matrix(0.430185,0,0,0.430185,131.115,326.425)">
                    <path d="M153.02,40.756L136.023,40.756C135.171,40.756 134.319,41.437 134.131,42.27L131.743,52.844L129.358,63.418C129.17,64.25 128.87,65.615 128.693,66.45L126.399,77.243L124.107,88.036C123.928,88.868 123.562,90.214 123.289,91.022C123.289,91.022 120.114,100.47 114.775,100.363C114.548,100.358 114.327,100.355 114.109,100.35C111.522,100.301 109.49,100.265 109.49,100.265L109.486,100.265C108.635,100.252 107.779,100.916 107.58,101.744L105.818,109.154L104.057,116.561C103.86,117.389 104.394,118.072 105.241,118.087C108.269,118.123 115.049,118.199 119.153,118.199C132.487,118.199 139.516,110.811 144.022,89.552L149.296,65.153L154.242,42.27C154.422,41.438 153.871,40.756 153.019,40.756L153.02,40.756Z" style="fill:white;fill-rule:nonzero;"/>
                </g>
                <g transform="matrix(0.430185,0,0,0.430185,131.115,326.425)">
                    <path d="M465.98,35.038L465.276,32.128L464.579,29.147L464.226,27.638C462.845,22.274 458.792,19.178 449.993,19.178L436.293,19.164L423.676,19.149L409.479,19.149C408.627,19.149 407.783,19.83 407.608,20.665L407.607,20.665L406.979,23.632L406.238,27.135L406.032,28.117L399.639,58.063L393.571,86.491C393.391,87.326 393.329,88.348 393.433,88.766C393.536,89.183 395.172,89.525 396.025,89.525L408.833,89.525C409.686,89.525 410.765,89.371 411.229,89.183C411.694,88.995 412.381,87.321 412.551,86.486L414.828,75.224L417.107,63.964C417.108,63.959 417.109,63.949 417.111,63.942L417.415,62.443L420.176,49.506L422.615,38.08C422.795,37.25 423.635,36.571 424.486,36.568L464.786,36.549C465.637,36.547 466.175,35.87 465.981,35.038L465.98,35.038Z" style="fill:white;fill-rule:nonzero;"/>
                </g>
                <g transform="matrix(0.430185,0,0,0.430185,131.115,326.425)">
                    <path d="M517.86,8.724C517.007,8.73 515.611,8.736 514.758,8.736L501.859,8.736C501.006,8.736 499.913,9.312 499.432,10.016L470.909,51.803C470.427,52.509 469.878,52.404 469.689,51.574L467.59,42.367C467.401,41.535 466.547,40.856 465.694,40.856L447.357,40.856C446.504,40.856 445.999,41.525 446.232,42.345L454.449,71.129C454.683,71.95 454.7,73.297 454.489,74.123L450.907,88.054C450.695,88.881 451.22,89.557 452.073,89.557L470.196,89.557C471.048,89.557 471.92,88.881 472.131,88.054L475.714,74.123C475.925,73.297 476.518,72.062 477.032,71.381L523.338,9.922C523.852,9.241 523.574,8.686 522.722,8.693L517.861,8.724L517.86,8.724Z" style="fill:white;fill-rule:nonzero;"/>
                </g>
                <g transform="matrix(0.430185,0,0,0.430185,131.115,326.425)">
                    <path d="M372.18,44.774L372.179,44.757C372.072,45.682 371.218,46.361 370.366,46.361L347.118,46.361C346.315,46.361 345.906,45.814 346.024,45.14C346.031,45.121 346.034,45.104 346.046,45.087C346.046,45.087 346.038,45.089 346.032,45.094C346.037,45.067 346.037,45.042 346.044,45.015C346.044,45.015 346.088,44.852 346.151,44.62C348.371,38.717 352.894,34.842 361.394,34.842C370.963,34.842 372.831,39.517 372.181,44.774L372.18,44.774ZM365.36,17.94C335.519,17.94 328.448,36.053 324.481,54.334C320.514,72.967 320.855,90.389 351.734,90.389L352.83,90.389C352.928,90.387 353.028,90.387 353.126,90.387L355.118,90.387C355.237,90.385 355.357,90.385 355.479,90.385C355.787,90.385 356.098,90.383 356.409,90.383L356.628,90.383C357.85,90.381 359.09,90.375 360.333,90.371L360.395,90.371C368.55,90.339 376.729,90.278 380.042,90.251C380.889,90.238 381.718,89.555 381.892,88.727L383.142,82.617L383.385,81.428L384.877,74.14C385.048,73.305 384.49,72.621 383.637,72.621L355.876,72.621C344.835,72.621 341.556,69.687 342.764,61.061L387.141,61.061L387.137,61.066C387.148,61.066 387.158,61.061 387.167,61.061C387.873,61.049 388.525,60.563 388.784,59.916C388.832,59.792 388.874,59.663 388.891,59.528L388.886,59.533C395.475,34.679 393.586,17.941 365.358,17.941L365.36,17.94Z" style="fill:white;fill-rule:nonzero;"/>
                </g>
                <g transform="matrix(0.430185,0,0,0.430185,131.115,326.425)">
                    <path d="M224.32,44.679L223.9,46.166C223.9,46.171 223.899,46.171 223.899,46.171L220.548,58.046L217.199,69.919C216.967,70.739 216.08,71.411 215.226,71.411L197.49,71.411C184.037,71.411 180.761,60.889 184.037,45.369C187.312,29.494 193.734,19.626 206.975,18.627C225.069,17.263 228.689,29.99 224.32,44.68L224.32,44.679ZM236.483,70.497C236.483,70.497 244.845,50.194 246.744,38.466C249.334,22.767 241.474,0 211.114,0C180.927,0 167.819,21.737 162.817,45.367C157.816,69.168 164.369,90.042 194.384,89.871L218.063,89.783L240.194,89.702C241.046,89.695 241.918,89.019 242.135,88.196L245.99,73.491C246.205,72.666 245.684,71.987 244.832,71.982L241.136,71.96L237.443,71.938C236.718,71.933 236.303,71.465 236.39,70.842C236.406,70.73 236.432,70.615 236.481,70.495L236.483,70.497Z" style="fill:white;fill-rule:nonzero;"/>
                </g>
            </g>
        </g>
    </g>
</svg>
