<?xml version="1.0" encoding="UTF-8" standalone="no"?>
<!DOCTYPE svg PUBLIC "-//W3C//DTD SVG 1.1//EN" "http://www.w3.org/Graphics/SVG/1.1/DTD/svg11.dtd">
<svg width="100%" height="100%" viewBox="0 0 512 513" version="1.1" xmlns="http://www.w3.org/2000/svg" xmlns:xlink="http://www.w3.org/1999/xlink" xml:space="preserve" xmlns:serif="http://www.serif.com/" style="fill-rule:evenodd;clip-rule:evenodd;stroke-linejoin:round;stroke-miterlimit:2;">
    <g transform="matrix(1,0,0,1,-44,-44)">
        <g id="js" transform="matrix(2.32458,0,0,2.32458,-317.594,-365.157)">
            <g id="back" transform="matrix(0.430185,0,0,0.430185,125.869,146.545)">
                <path d="M581,191.18C581,123.747 526.253,69 458.82,69L191.18,69C123.747,69 69,123.747 69,191.18L69,458.82C69,526.253 123.747,581 191.18,581L458.82,581C526.253,581 581,526.253 581,458.82L581,191.18Z" style="fill:rgb(239,219,78);"/>
            </g>
            <g transform="matrix(1.17629,0,0,1.17629,283.171,307.08)">
                <g transform="matrix(1,0,0,1,-64,-64)">
                    <path d="M116.347,96.736C115.43,91.025 111.706,86.228 100.675,81.755C96.843,79.994 92.571,78.733 91.298,75.829C90.846,74.139 90.786,73.187 91.072,72.164C91.893,68.844 95.856,67.809 98.997,68.761C101.02,69.439 102.935,70.998 104.09,73.485C109.492,69.987 109.481,70.01 113.253,67.606C111.872,65.465 111.135,64.477 110.231,63.561C106.982,59.932 102.555,58.063 95.475,58.206L91.787,58.683C88.253,59.576 84.885,61.431 82.91,63.918C76.984,70.642 78.674,82.41 85.885,87.253C92.989,92.585 103.425,93.798 104.758,98.784C106.055,104.888 100.272,106.864 94.524,106.162C90.288,105.281 87.932,103.128 85.385,99.213C80.697,101.926 80.697,101.926 75.877,104.698C77.02,107.197 78.221,108.328 80.137,110.493C89.205,119.691 111.897,119.239 115.967,105.317C116.132,104.839 117.228,101.651 116.347,96.736M69.462,58.943L57.753,58.943L57.705,89.215C57.705,95.653 58.038,101.555 56.991,103.364C55.278,106.922 50.839,106.481 48.816,105.791C46.757,104.779 45.71,103.34 44.497,101.306C44.164,100.722 43.914,100.27 43.83,100.235L34.31,106.065C35.893,109.314 38.225,112.134 41.212,113.966C45.674,116.644 51.671,117.465 57.943,116.025C62.025,114.836 65.547,112.373 67.391,108.624C70.057,103.709 69.485,97.76 69.461,91.18C69.521,80.445 69.462,69.712 69.462,58.943" style="fill:rgb(50,51,48);fill-rule:nonzero;"/>
                </g>
            </g>
        </g>
    </g>
</svg>
