<?xml version="1.0" encoding="UTF-8" standalone="no"?>
<!DOCTYPE svg PUBLIC "-//W3C//DTD SVG 1.1//EN" "http://www.w3.org/Graphics/SVG/1.1/DTD/svg11.dtd">
<svg width="100%" height="100%" viewBox="0 0 512 512" version="1.1" xmlns="http://www.w3.org/2000/svg" xmlns:xlink="http://www.w3.org/1999/xlink" xml:space="preserve" xmlns:serif="http://www.serif.com/" style="fill-rule:evenodd;clip-rule:evenodd;stroke-linejoin:round;stroke-miterlimit:2;">
    <g transform="matrix(1,0,0,1,-44,-44)">
        <g id="laravel" transform="matrix(2.32458,0,0,2.32458,-317.594,-365.657)">
            <g id="back" transform="matrix(0.430185,0,0,0.430185,125.869,146.545)">
                <path d="M581,191.18C581,123.747 526.253,69 458.82,69L191.18,69C123.747,69 69,123.747 69,191.18L69,458.82C69,526.253 123.747,581 191.18,581L458.82,581C526.253,581 581,526.253 581,458.82L581,191.18Z" style="fill:#1f292d;"/>
            </g>
            <g transform="matrix(0.105424,0,0,0.105424,270.411,269.626)">
                <g transform="matrix(1,0,0,1,-512,-512)">
                    <g transform="matrix(3.7639,0,0,3.7639,30.22,16.03)">
                        <path d="M255.856,59.62C255.951,59.971 256,60.333 256,60.697L256,117.265C255.999,118.741 255.207,120.108 253.927,120.843L206.449,148.179L206.449,202.36C206.448,203.833 205.661,205.199 204.387,205.938L105.279,262.991C105.052,263.119 104.805,263.202 104.557,263.29C104.464,263.321 104.377,263.377 104.279,263.403C103.586,263.585 102.858,263.585 102.165,263.403C102.051,263.372 101.948,263.31 101.84,263.269C101.613,263.186 101.376,263.114 101.16,262.991L2.073,205.938C0.793,205.203 0.001,203.836 0,202.36L0,32.656C0,32.284 0.052,31.923 0.144,31.573C0.175,31.454 0.247,31.346 0.289,31.227C0.366,31.011 0.438,30.789 0.552,30.588C0.629,30.454 0.742,30.346 0.835,30.222C0.954,30.057 1.062,29.887 1.201,29.743C1.32,29.624 1.475,29.536 1.609,29.433C1.758,29.309 1.892,29.175 2.062,29.077L2.067,29.077L51.613,0.551C52.888,-0.184 54.463,-0.184 55.738,0.551L105.284,29.077L105.294,29.077C105.459,29.181 105.599,29.309 105.748,29.428C105.882,29.531 106.032,29.624 106.15,29.737C106.295,29.887 106.398,30.057 106.521,30.222C106.609,30.346 106.728,30.454 106.8,30.588C106.918,30.794 106.985,31.011 107.068,31.227C107.109,31.346 107.181,31.454 107.212,31.578C107.307,31.929 107.356,32.292 107.357,32.656L107.357,138.651L148.643,114.878L148.643,60.692C148.643,60.331 148.695,59.965 148.788,59.62C148.824,59.496 148.891,59.388 148.932,59.269C149.015,59.053 149.087,58.831 149.2,58.63C149.277,58.496 149.391,58.388 149.479,58.264C149.602,58.099 149.705,57.929 149.85,57.784C149.968,57.666 150.118,57.578 150.252,57.475C150.407,57.351 150.541,57.217 150.706,57.119L150.711,57.119L200.262,28.593C201.537,27.858 203.112,27.858 204.387,28.593L253.933,57.119C254.108,57.222 254.242,57.351 254.397,57.47C254.525,57.573 254.675,57.666 254.794,57.779C254.938,57.929 255.041,58.099 255.165,58.264C255.258,58.388 255.371,58.496 255.443,58.63C255.562,58.831 255.629,59.053 255.711,59.269C255.758,59.388 255.825,59.496 255.856,59.62M247.741,114.878L247.741,67.838L230.402,77.819L206.449,91.611L206.449,138.651L247.746,114.878L247.741,114.878ZM198.195,199.973L198.195,152.901L174.633,166.358L107.352,204.757L107.352,252.272L198.195,199.973ZM8.259,39.796L8.259,199.973L99.092,252.267L99.092,204.762L51.639,177.906L51.624,177.896L51.603,177.886C51.443,177.793 51.309,177.659 51.16,177.546C51.031,177.442 50.881,177.36 50.768,177.246L50.758,177.231C50.624,177.102 50.531,176.942 50.417,176.798C50.314,176.659 50.191,176.54 50.108,176.396L50.103,176.38C50.01,176.226 49.953,176.04 49.886,175.865C49.819,175.71 49.732,175.566 49.69,175.401L49.69,175.396C49.639,175.2 49.629,174.993 49.608,174.792C49.587,174.638 49.546,174.483 49.546,174.328L49.546,63.569L25.598,49.772L8.259,39.801L8.259,39.796ZM53.681,8.893L12.399,32.656L53.671,56.418L94.947,32.65L53.671,8.893L53.681,8.893ZM75.149,157.191L99.097,143.405L99.097,39.796L81.759,49.778L57.805,63.569L57.805,167.177L75.149,157.191ZM202.324,36.935L161.048,60.697L202.324,84.46L243.595,60.692L202.324,36.935ZM198.195,91.611L174.241,77.819L156.903,67.838L156.903,114.878L180.851,128.665L198.195,138.651L198.195,91.611ZM103.217,197.617L163.76,163.053L194.024,145.781L152.778,122.034L105.289,149.375L62.007,174.292L103.217,197.617Z" style="fill:#ff2d20;fill-rule:nonzero;"/>
                    </g>
                </g>
            </g>
            <g transform="matrix(1.15095,0,0,1.15095,269.981,344.392)">
                <g transform="matrix(1,0,0,1,-57,-14.5)">
                    <path d="M4.773,0.917L4.773,23.963L13.111,23.963L13.111,27.939L0.333,27.939L0.333,0.917L4.773,0.917ZM28.783,12.382L28.783,9.95L32.991,9.95L32.991,27.94L28.784,27.94L28.784,25.507C28.217,26.408 27.414,27.116 26.371,27.63C25.329,28.145 24.28,28.402 23.225,28.402C21.86,28.402 20.612,28.152 19.48,27.65C18.377,27.169 17.384,26.466 16.565,25.584C15.753,24.707 15.112,23.686 14.675,22.574C14.219,21.418 13.99,20.186 13.998,18.944C13.998,17.684 14.223,16.48 14.674,15.334C15.108,14.214 15.75,13.186 16.565,12.304C17.385,11.423 18.377,10.72 19.48,10.239C20.612,9.737 21.86,9.487 23.225,9.487C24.28,9.487 25.329,9.744 26.371,10.259C27.413,10.774 28.217,11.481 28.784,12.382L28.783,12.382ZM28.397,21.145C28.656,20.441 28.787,19.696 28.784,18.945C28.784,18.172 28.654,17.439 28.397,16.745C28.156,16.077 27.789,15.461 27.317,14.93C26.846,14.409 26.274,13.989 25.637,13.694C24.981,13.386 24.254,13.231 23.457,13.231C22.658,13.231 21.937,13.386 21.294,13.694C20.665,13.993 20.101,14.413 19.634,14.93C19.163,15.458 18.803,16.075 18.574,16.744C18.327,17.451 18.202,18.195 18.206,18.944C18.206,19.716 18.328,20.45 18.573,21.144C18.817,21.84 19.171,22.444 19.635,22.959C20.101,23.476 20.666,23.897 21.295,24.195C21.937,24.504 22.658,24.658 23.456,24.658C24.254,24.658 24.981,24.504 25.637,24.195C26.274,23.9 26.846,23.48 27.317,22.959C27.789,22.429 28.156,21.813 28.397,21.145ZM36.311,27.941L36.311,9.95L47.738,9.95L47.738,14.091L40.518,14.091L40.518,27.941L36.311,27.941ZM62.986,12.382L62.986,9.95L67.194,9.95L67.194,27.94L62.986,27.94L62.986,25.507C62.42,26.408 61.616,27.116 60.573,27.63C59.531,28.145 58.483,28.402 57.427,28.402C56.063,28.402 54.815,28.152 53.683,27.65C52.58,27.169 51.587,26.466 50.768,25.584C49.956,24.707 49.314,23.686 48.877,22.574C48.422,21.418 48.192,20.186 48.201,18.944C48.201,17.684 48.426,16.48 48.877,15.334C49.311,14.214 49.952,13.186 50.767,12.304C51.587,11.423 52.58,10.72 53.683,10.239C54.815,9.737 56.063,9.487 57.427,9.487C58.482,9.487 59.531,9.744 60.573,10.259C61.616,10.774 62.42,11.481 62.986,12.382ZM62.6,21.145C62.859,20.441 62.99,19.695 62.986,18.945C62.986,18.172 62.856,17.439 62.6,16.745C62.359,16.077 61.992,15.461 61.52,14.93C61.049,14.409 60.477,13.989 59.84,13.694C59.184,13.386 58.456,13.231 57.659,13.231C56.861,13.231 56.14,13.386 55.497,13.694C54.868,13.993 54.304,14.413 53.837,14.93C53.366,15.458 53.005,16.075 52.776,16.744C52.529,17.451 52.405,18.195 52.409,18.944C52.409,19.716 52.53,20.45 52.776,21.144C53.02,21.84 53.374,22.444 53.837,22.959C54.303,23.476 54.868,23.897 55.497,24.195C56.14,24.504 56.861,24.658 57.659,24.658C58.456,24.658 59.184,24.504 59.84,24.195C60.477,23.9 61.049,23.48 61.52,22.959C61.992,22.429 62.359,21.813 62.6,21.145ZM84.063,9.95L88.325,9.95L81.42,27.94L76.13,27.94L69.224,9.95L73.486,9.95L78.775,23.726L84.063,9.95ZM97.503,9.487C103.232,9.487 107.139,14.565 106.405,20.508L92.446,20.508C92.446,22.06 94.013,25.06 97.734,25.06C100.934,25.06 103.079,22.245 103.08,22.243L105.923,24.443C103.381,27.156 101.3,28.403 98.041,28.403C92.218,28.403 88.271,24.719 88.271,18.945C88.271,13.722 92.35,9.487 97.502,9.487L97.503,9.487ZM92.457,17.381L102.541,17.381C102.51,17.035 101.963,12.829 97.469,12.829C92.974,12.829 92.489,17.035 92.457,17.381ZM109.145,27.939L109.145,0.917L113.353,0.917L113.353,27.939L109.145,27.939Z" style="fill:#fff;"/>
                </g>
            </g>
        </g>
    </g>
</svg>
