<?xml version="1.0" encoding="UTF-8" standalone="no"?>
<!DOCTYPE svg PUBLIC "-//W3C//DTD SVG 1.1//EN" "http://www.w3.org/Graphics/SVG/1.1/DTD/svg11.dtd">
<svg width="100%" height="100%" viewBox="0 0 512 512" version="1.1" xmlns="http://www.w3.org/2000/svg" xmlns:xlink="http://www.w3.org/1999/xlink" xml:space="preserve" xmlns:serif="http://www.serif.com/" style="fill-rule:evenodd;clip-rule:evenodd;stroke-linejoin:round;stroke-miterlimit:2;">
    <g transform="matrix(1,0,0,1,-44,-45)">
        <g id="less" transform="matrix(2.32458,0,0,2.32458,-317.594,-364.657)">
            <g id="back" transform="matrix(0.430185,0,0,0.430185,125.869,146.545)">
                <path d="M581,191.18C581,123.747 526.253,69 458.82,69L191.18,69C123.747,69 69,123.747 69,191.18L69,458.82C69,526.253 123.747,581 191.18,581L458.82,581C526.253,581 581,526.253 581,458.82L581,191.18Z" style="fill:#214674;"/>
            </g>
            <g transform="matrix(0.18097,0,0,0.18097,265.679,286.355)">
                <g transform="matrix(1,0,0,1,-490,-210)">
                    <g transform="matrix(10.9429,0,0,10.9429,-166.574,-118.292)">
                        <path d="M19.417,35.134C19.417,33.621 18.444,31.999 15.634,31.891L15.634,28.11C18.444,28.002 19.417,26.38 19.417,24.867C19.417,22.165 18.985,20.437 18.985,17.302C18.985,12.547 20.714,11.033 24.605,11.033L34.98,11.033L34.98,14.492L26.55,14.492C24.713,14.492 24.172,15.14 24.172,17.518C24.172,19.896 24.389,22.058 24.389,24.651C24.389,28.001 23.308,29.299 21.146,29.839L21.146,30.055C23.308,30.595 24.389,31.892 24.389,35.243C24.389,37.945 24.172,39.998 24.172,42.376C24.172,44.754 24.712,45.51 26.55,45.51L27.415,45.51L27.415,48.86L24.605,48.86C20.714,48.86 18.985,47.347 18.985,42.592C18.985,39.458 19.417,37.837 19.417,35.135L19.417,35.134ZM28.604,11.357L35.088,11.357L35.088,35.674C35.088,37.079 35.737,37.511 36.278,37.511C36.493,37.511 36.709,37.511 37.034,37.403L37.79,42.159C37.034,42.483 35.953,42.699 34.548,42.699C30.117,42.699 28.604,39.781 28.604,35.349L28.604,11.357ZM46.869,19.787C53.029,19.787 56.163,24.326 56.163,30.27C56.163,31.459 56.055,32.432 55.947,32.972L42.654,32.972C43.194,36.322 45.464,37.728 48.382,37.728C50.002,37.728 51.516,37.295 53.137,36.323L55.299,40.213C53.029,41.726 50.111,42.699 47.517,42.699C41.249,42.699 36.493,38.484 36.493,31.243C36.385,24.218 41.573,19.787 46.869,19.787M50.651,28.973C50.651,26.487 49.571,24.65 46.977,24.65C44.923,24.65 43.194,26.055 42.762,28.973L50.651,28.973ZM59.838,35.674C61.783,37.187 63.621,37.944 65.458,37.944C67.403,37.944 68.268,37.187 68.268,36.106C68.268,34.701 66.106,33.945 63.837,33.08C61.243,32.108 58.109,30.27 58.109,26.704C58.109,22.704 61.459,19.894 66.431,19.894C69.781,19.894 72.267,21.3 74.104,22.704L71.186,26.596C69.565,25.406 68.16,24.758 66.539,24.758C64.918,24.758 64.053,25.407 64.053,26.488C64.053,27.892 66.106,28.433 68.376,29.298C71.186,30.27 74.32,31.891 74.32,35.89C74.32,39.89 71.186,42.915 65.35,42.915C62.54,42.915 59.19,41.726 57.028,39.889L59.838,35.674ZM77.454,35.674C79.4,37.187 81.237,37.944 83.074,37.944C85.02,37.944 85.884,37.187 85.884,36.106C85.884,34.701 83.723,33.945 81.454,33.08C78.859,32.108 75.725,30.27 75.725,26.704C75.725,22.704 79.075,19.894 84.047,19.894C87.397,19.894 89.883,21.3 91.721,22.704L88.803,26.596C87.181,25.406 85.776,24.758 84.155,24.758C82.534,24.758 81.669,25.407 81.669,26.488C81.669,27.892 83.723,28.433 85.884,29.298C88.694,30.27 91.829,31.891 91.829,35.89C91.829,39.89 88.694,42.915 82.859,42.915C80.049,42.915 76.698,41.726 74.536,39.889L77.454,35.674ZM93.45,45.401C95.287,45.401 95.828,44.753 95.828,42.267C95.828,39.889 95.611,37.727 95.611,35.134C95.611,31.784 96.692,30.486 98.854,29.946L98.854,29.73C96.692,29.19 95.611,27.892 95.611,24.542C95.611,21.948 95.828,19.679 95.828,17.409C95.828,15.031 95.395,14.383 93.45,14.383L92.585,14.383L92.585,11.033L95.395,11.033C99.286,11.033 101.015,12.546 101.015,17.301C101.015,20.327 100.583,22.056 100.583,24.866C100.583,26.379 101.556,28.001 104.366,28.109L104.366,31.891C101.556,31.999 100.583,33.621 100.583,35.134C100.583,37.944 101.015,39.564 101.015,42.699C101.015,47.454 99.286,48.968 95.395,48.968L92.585,48.968L92.585,45.509L93.45,45.401Z" style="fill:#fff;fill-rule:nonzero;"/>
                    </g>
                </g>
            </g>
        </g>
    </g>
</svg>
