<?xml version="1.0" encoding="UTF-8" standalone="no"?>
<!DOCTYPE svg PUBLIC "-//W3C//DTD SVG 1.1//EN" "http://www.w3.org/Graphics/SVG/1.1/DTD/svg11.dtd">
<svg width="100%" height="100%" viewBox="0 0 512 512" version="1.1" xmlns="http://www.w3.org/2000/svg" xmlns:xlink="http://www.w3.org/1999/xlink" xml:space="preserve" xmlns:serif="http://www.serif.com/" style="fill-rule:evenodd;clip-rule:evenodd;stroke-linejoin:round;stroke-miterlimit:2;">
    <g transform="matrix(1,0,0,1,-44,-45)">
        <g transform="matrix(1,0,0,1,0,1)">
            <g id="linux">
                <g id="back" transform="matrix(1,0,0,1,-25,-25)">
                    <path d="M581,191.18C581,123.747 526.253,69 458.82,69L191.18,69C123.747,69 69,123.747 69,191.18L69,458.82C69,526.253 123.747,581 191.18,581L458.82,581C526.253,581 581,526.253 581,458.82L581,191.18Z" style="fill:rgb(0,156,236);"/>
                </g>
                <g id="pinguin" transform="matrix(9.36963,0,0,9.36963,157.527,119.848)">
                    <path id="path950" d="M9.716,33.439L10.629,34.358L13.251,36.851L16.778,36.41L19.533,35.583L20.34,34.225L22.325,32.952L22.598,30.322L23.455,30.517L24.607,24.632L23.397,20.368L21.059,16.316L19.501,10.238L20.046,4.627L14.981,3.614L11.085,4.549L10.306,6.458C10.306,6.458 10.053,8.173 10.033,8.251C10.014,8.328 10.15,10.043 10.15,10.043L9.819,12.848L9.311,16.381L7.714,20.403C7.714,20.403 6.942,24.371 6.667,24.371C6.391,24.371 6.821,26.288 6.821,26.288L8.475,30.264L9.716,33.439Z" style="fill:white;fill-rule:nonzero;"/>
                    <g id="path30" transform="matrix(1,0,0,1,-17032.4,-2177.98)">
                        <path d="M17046.8,2178.03C17044,2178.38 17041.9,2180.87 17042.1,2183.7C17042.1,2188.96 17042.7,2190.85 17040.3,2193.87C17038,2196.88 17036.5,2199.1 17035.9,2201.25C17035.6,2202.6 17035.4,2203.95 17035.4,2205.35C17035.4,2205.35 17035.3,2205.92 17035.9,2205.39C17036.5,2204.86 17038.2,2205.09 17039,2206.57C17039.8,2208.05 17041.4,2210.35 17041.4,2210.35L17042.1,2211.41L17043.2,2211.12C17043.2,2211.12 17044.3,2210.41 17043.2,2208.87C17042.6,2207.99 17041.9,2207.21 17041,2206.57C17041,2206.57 17038.5,2205.28 17038.1,2203.79C17037.7,2201.25 17038.3,2198.65 17040,2196.64C17041.2,2195.22 17039.7,2197.78 17039.2,2198.71C17038.2,2200.79 17038.1,2203.59 17038.2,2204.97C17038.2,2205.55 17039.7,2205.92 17040,2206.2C17040.2,2206.38 17039.1,2204.1 17039.2,2204.26C17039.7,2198.97 17042.1,2197.79 17043.6,2190.49C17042.5,2189.88 17042.6,2188.24 17043.8,2187.84C17043.2,2187.07 17043,2186.07 17043.2,2185.12C17043.6,2183.97 17044,2183.85 17044.4,2183.8C17044.9,2183.76 17046,2184.26 17045.9,2186.48C17046.4,2186.42 17046.9,2186.42 17047.5,2186.48C17047.5,2186.48 17047,2184.41 17048.6,2183.7C17049.4,2183.28 17050.5,2183.59 17051,2184.41C17051.5,2185.51 17051.4,2186.83 17050.7,2187.84C17051.5,2188.2 17051.8,2189.2 17051.2,2189.9L17052.5,2193.86C17052.5,2193.86 17054.3,2197.23 17055.1,2199.12C17055.6,2200.23 17055.9,2201.41 17056.1,2202.61L17057,2202.61C17057,2202.61 17058.5,2198.98 17055.1,2195.48C17054.8,2195.21 17055,2195.41 17055.1,2195.48C17055.2,2195.54 17058.6,2198.72 17057.8,2202.9C17058.5,2203.37 17060.6,2203.75 17060.2,2205.98C17061,2206.11 17061.2,2205.98 17061.2,2205.98C17061.7,2203.69 17061.5,2201.3 17060.6,2199.12C17059.7,2196.77 17058.3,2194.63 17056.5,2192.8C17055.2,2191.37 17054.5,2189.49 17054.5,2187.54C17054.7,2185.07 17054.3,2182.59 17053.4,2180.27C17052.7,2178.87 17051.3,2178 17049.7,2178.02C17048.7,2177.93 17047.8,2177.93 17046.8,2178.03L17046.8,2178.03Z" style="fill-rule:nonzero;"/>
                    </g>
                    <g id="path38" transform="matrix(1,0,0,1,-17091.8,-2443.71)">
                        <path d="M17102.5,2478.07C17102.5,2478.07 17105.7,2480.73 17108.8,2479.47C17110,2479.05 17113.1,2477.26 17114.2,2476.66C17114.2,2476.66 17113.3,2480.71 17113.7,2481.27C17114.1,2481.84 17109.3,2480.69 17107.1,2480.78C17104.9,2480.86 17103.4,2481.06 17101.3,2481.17C17102,2480.31 17095.8,2473.51 17094.8,2471.32C17094.4,2470.42 17097.8,2470.9 17097.8,2470.9L17102.5,2478.07Z" style="fill-rule:nonzero;"/>
                    </g>
                    <g id="path32" transform="matrix(1,0,0,1,-17009.3,-2397.82)">
                        <path d="M17013.8,2426.15C17012.4,2426.38 17012.6,2427.15 17012,2427.65C17011.4,2428.16 17010.9,2428.1 17010.3,2428.47C17009.7,2428.84 17009.3,2429.39 17009.6,2430.66C17009.8,2431.45 17009.7,2432.28 17009.4,2433.01C17009.2,2433.59 17009.4,2434.5 17010.6,2434.54C17011.8,2434.55 17012.9,2434.71 17014,2435.01C17015.9,2435.45 17017.1,2436.66 17018.4,2435.62C17019.1,2435.13 17019.5,2434.29 17019.5,2433.43C17019.2,2432.54 17018.8,2431.74 17018.1,2431.11C17017.3,2430.3 17016.6,2429.32 17016.1,2428.23C17015.7,2427.48 17015.1,2425.93 17013.8,2426.15Z" style="fill:rgb(240,184,0);fill-rule:nonzero;"/>
                    </g>
                    <path id="path956" d="M23.634,24.136C23.949,24.136 24.528,20.084 24.519,20.78C25.396,22.26 25.252,24.069 25.252,24.069L25.163,34.98L22.508,29.385C22.508,29.385 23.862,25.479 23.634,24.136L23.634,24.136Z" style="fill-rule:nonzero;"/>
                    <g id="path34" transform="matrix(-0.035,0.999,-0.999,-0.035,30.573,29.197)">
                        <path d="M4.351,0.022C3.066,0.236 3.351,0.631 2.813,1.111C2.275,1.591 1.58,1.318 1,1.668C0.42,2.018 -0.148,2.068 0.109,3.268C0.366,4.468 2.2,5.378 1.054,7.218C0.6,7.853 -0.687,8.3 0.47,8.343C1.815,8.304 3.159,8.424 4.476,8.7C6.269,9.111 7.331,9.882 8.53,8.9C9.205,8.441 9.585,7.654 9.525,6.84C9.329,6.001 8.888,5.239 8.26,4.649C7.448,3.884 6.801,2.96 6.36,1.935C5.993,1.231 5.636,-0.192 4.351,0.022Z" style="fill:rgb(240,184,0);fill-rule:nonzero;"/>
                    </g>
                    <g id="path36" transform="matrix(1,0,0,1,-17184.6,-2374.84)">
                        <path d="M17209.3,2400.25C17209.3,2400.25 17206.9,2399.77 17207.3,2401.8C17207.6,2403.83 17208.4,2404.22 17208.4,2404.22C17209,2404.66 17209.8,2404.66 17210.4,2404.22C17211,2403.85 17211.5,2403.36 17211.9,2402.77C17211.9,2402.77 17212.5,2401.74 17211.1,2400.99C17210.6,2400.64 17209.9,2400.38 17209.3,2400.25Z" style="fill-rule:nonzero;"/>
                    </g>
                    <g id="path40" transform="matrix(1,0,0,1,11.602,7.077)">
                        <path d="M0.742,0C1.152,0 1.484,0.562 1.484,1.255C1.484,1.41 1.466,1.565 1.432,1.716C1.16,2.021 0.816,2.253 0.432,2.393C0.128,2.096 -0.03,1.679 0,1.255C0,0.562 0.332,0 0.742,0Z" style="fill-rule:nonzero;"/>
                    </g>
                    <g id="path42" transform="matrix(1,0,0,1,15.16,6.963)">
                        <path d="M1.748,0C2.402,0.068 2.889,0.656 2.832,1.312C2.81,1.785 2.613,2.234 2.281,2.571C2.128,2.709 1.309,2.343 0.903,2.133C0.773,1.88 0.72,1.595 0.75,1.312C0.75,0.587 1.15,0 1.748,0Z" style="fill-rule:nonzero;"/>
                    </g>
                    <g id="path44" transform="matrix(1,0,0,1,-17096.5,-2248.38)">
                        <path d="M17109.5,2257.94C17109,2258.26 17108.5,2258.63 17108,2259.03C17107.8,2259.18 17107.7,2259.43 17107.7,2259.68C17107.7,2259.94 17107.8,2260.18 17108,2260.33C17108.6,2260.87 17109.2,2261.35 17109.8,2261.78C17110.3,2262.24 17111.1,2262.3 17111.7,2261.92C17112.6,2261.55 17114,2260.72 17114,2260.72C17114,2260.72 17115.6,2259.44 17114,2258.72C17112.5,2257.99 17112.8,2258.05 17111.7,2257.66C17111,2257.29 17110.1,2257.41 17109.5,2257.94Z" style="fill:rgb(240,184,0);fill-rule:nonzero;"/>
                    </g>
                </g>
            </g>
        </g>
    </g>
</svg>
