<?xml version="1.0" encoding="UTF-8" standalone="no"?>
<!DOCTYPE svg PUBLIC "-//W3C//DTD SVG 1.1//EN" "http://www.w3.org/Graphics/SVG/1.1/DTD/svg11.dtd">
<svg width="100%" height="100%" viewBox="0 0 512 512" version="1.1" xmlns="http://www.w3.org/2000/svg" xmlns:xlink="http://www.w3.org/1999/xlink" xml:space="preserve" xmlns:serif="http://www.serif.com/" style="fill-rule:evenodd;clip-rule:evenodd;stroke-linejoin:round;stroke-miterlimit:2;">
    <g transform="matrix(1,0,0,1,-43,-45)">
        <g id="mariadb" transform="matrix(0.808641,0,0,0.808641,55.4078,55.4812)">
            <g id="back" transform="matrix(1.23664,0,0,1.23664,-100.672,-98.2899)">
                <path d="M581,191.18C581,123.747 526.253,69 458.82,69L191.18,69C123.747,69 69,123.747 69,191.18L69,458.82C69,526.253 123.747,581 191.18,581L458.82,581C526.253,581 581,526.253 581,458.82L581,191.18Z" style="fill:rgb(1,53,69);"/>
            </g>
            <g transform="matrix(1.12986,0,0,1.12986,162.177,199.625)">
                <g transform="matrix(1,0,0,1,0,10.9451)">
                    <g transform="matrix(1.23664,0,0,1.23664,-77.7327,-79.864)">
                        <path d="M63.62,217.6L74.9,261.16L66.39,261.16L58.85,229.79L44.73,261.16L37.55,261.16L23.5,230L15.78,261.19L7.45,261.19L18.61,217.6L26,217.6L41.21,251.33L56.32,217.6L63.62,217.6Z" style="fill:white;fill-rule:nonzero;"/>
                    </g>
                    <g transform="matrix(1.23664,0,0,1.23664,-77.7327,-79.864)">
                        <path d="M107,234.44L107,229.37L115.2,229.37L115.2,261.16L107,261.16L107,256C104.82,259.69 100.36,261.8 94.93,261.8C83.59,261.8 77.25,253.8 77.25,244.6C77.25,235.73 83.25,228.6 93.72,228.6C99.68,228.65 104.63,230.7 107,234.44ZM86,245.06C86,250.91 89.68,255.91 96.8,255.91C103.68,255.91 107.42,251.03 107.42,245.24C107.42,239.45 103.56,234.5 96.42,234.5C89.55,234.5 86,239.44 86,245.06Z" style="fill:white;fill-rule:nonzero;"/>
                    </g>
                    <g transform="matrix(1.23664,0,0,1.23664,-77.7327,-79.864)">
                        <path d="M133.7,261.16L125.5,261.16L125.5,229.37L133.7,229.37L133.7,236.49C135.603,231.824 140.131,228.729 145.17,228.65C146.913,228.625 148.646,228.91 150.29,229.49L148.54,235.49C147.123,235.113 145.666,234.912 144.2,234.89C138.29,234.89 133.7,239.35 133.7,245.89L133.7,261.16Z" style="fill:white;fill-rule:nonzero;"/>
                    </g>
                    <g transform="matrix(1.23664,0,0,1.23664,-77.7327,-79.864)">
                        <path d="M154.39,221C154.389,220.965 154.389,220.929 154.389,220.894C154.389,218.601 156.276,216.714 158.569,216.714C158.646,216.714 158.723,216.716 158.8,216.72C158.847,216.718 158.894,216.718 158.941,216.718C161.311,216.718 163.261,218.668 163.261,221.038C163.261,221.065 163.261,221.093 163.26,221.12C163.261,221.151 163.261,221.181 163.261,221.212C163.261,223.488 161.388,225.362 159.111,225.362C159.007,225.362 158.903,225.358 158.8,225.35C158.739,225.353 158.679,225.354 158.618,225.354C156.298,225.354 154.388,223.444 154.388,221.124C154.388,221.083 154.389,221.041 154.39,221ZM154.75,229.39L163,229.39L163,252.6C163,254.04 163.3,255.07 164.51,255.07C165.038,255.056 165.563,254.996 166.08,254.89L167.34,260.89C165.61,261.567 163.767,261.906 161.91,261.89C158.47,261.89 154.79,260.89 154.79,253.08L154.75,229.39Z" style="fill:white;fill-rule:nonzero;"/>
                    </g>
                    <g transform="matrix(1.23664,0,0,1.23664,-77.7327,-79.864)">
                        <path d="M199.64,234.44L199.64,229.37L207.84,229.37L207.84,261.16L199.64,261.16L199.64,256C197.46,259.69 193,261.8 187.57,261.8C176.23,261.8 169.89,253.8 169.89,244.6C169.89,235.73 175.89,228.6 186.36,228.6C192.34,228.65 197.28,230.7 199.64,234.44ZM178.64,245.06C178.64,250.91 182.32,255.91 189.44,255.91C196.32,255.91 200.06,251.03 200.06,245.24C200.06,239.45 196.2,234.5 189.06,234.5C182.2,234.5 178.64,239.44 178.64,245.06Z" style="fill:white;fill-rule:nonzero;"/>
                    </g>
                    <g transform="matrix(1.23664,0,0,1.23664,-77.7327,-79.864)">
                        <path d="M220.44,217.6L240.11,217.6C256.64,217.6 264.91,226.72 264.79,239.38C264.91,252.54 255.79,261.16 241.56,261.16L220.44,261.16L220.44,217.6ZM225.87,221.47L225.87,257.36L240.87,257.36C254.02,257.36 259.03,248.49 259.03,239.26C259.03,228.83 252.75,221.47 240.87,221.47L225.87,221.47Z" style="fill:white;fill-rule:nonzero;"/>
                    </g>
                    <g transform="matrix(1.23664,0,0,1.23664,-77.7327,-79.864)">
                        <path d="M298.32,261.16L273.32,261.16L273.32,217.6L295.82,217.6C304.45,217.6 312.65,219.23 312.53,228.89C312.53,235.7 308.31,237.57 303.84,238.3C310.18,238.84 313.98,242.88 313.98,249.4C314.07,259.17 305.5,261.16 298.32,261.16ZM296.45,236.61C305.08,236.61 307.01,233.29 307.01,229.07C307.01,222.73 303.15,221.28 296.45,221.28L278.54,221.28L278.54,236.61L296.45,236.61ZM296.69,240.29L278.54,240.29L278.54,257.48L297.48,257.48C302.79,257.48 308.4,255.73 308.4,249.04C308.4,241.31 301.94,240.29 296.69,240.29Z" style="fill:white;fill-rule:nonzero;"/>
                    </g>
                </g>
                <g transform="matrix(1.23664,0,0,1.23664,-77.7327,-79.864)">
                    <path d="M316,10.05C315.21,9.377 314.197,9.021 313.16,9.05C310.32,9.05 306.66,10.97 304.7,12.05L303.91,12.45C300.606,14.051 297.008,14.956 293.34,15.11C289.58,15.23 286.34,15.45 282.12,15.88C257.12,18.46 245.97,37.62 235.23,56.15C229.39,66.23 223.35,76.65 215.07,84.72C213.351,86.379 211.527,87.925 209.61,89.35C201.04,95.74 190.28,100.25 181.87,103.47C173.8,106.55 165.01,109.32 156.5,112C148.72,114.45 141.36,116.76 134.6,119.28C131.55,120.41 128.96,121.28 126.67,122.04C120.52,124.04 116.07,125.57 109.59,130.04C107.06,131.77 104.52,133.64 102.79,135.04C97.639,139.148 93.082,143.95 89.25,149.31C85.951,154.259 82.14,158.848 77.88,163C76.52,164.34 74.08,165 70.45,165C66.18,165 61.02,164.12 55.54,163.19C50.06,162.26 44.08,161.19 39.08,161.19C35.01,161.19 31.91,161.85 29.58,163.19C29.58,163.19 25.68,165.47 24.02,168.42L25.64,169.15C28.154,170.515 30.483,172.195 32.57,174.15C34.732,176.165 37.149,177.886 39.76,179.27C40.601,179.59 41.364,180.084 42,180.72C41.31,181.72 40.31,183.01 39.26,184.39C33.49,191.94 30.13,196.71 32.06,199.31C32.984,199.793 34.018,200.028 35.06,199.99C47.65,199.99 54.4,196.72 62.96,192.58C65.43,191.38 67.96,190.14 70.96,188.88C75.96,186.71 81.34,183.25 87.04,179.59C94.59,174.74 102.4,169.72 109.96,167.29C116.189,165.39 122.678,164.479 129.19,164.59C137.19,164.59 145.61,165.66 153.73,166.7C159.79,167.48 166.05,168.28 172.2,168.7C174.59,168.84 176.8,168.91 178.96,168.91C181.836,168.918 184.71,168.768 187.57,168.46L188.25,168.22C192.57,165.57 194.59,159.88 196.54,154.38C197.8,150.84 198.86,147.66 200.54,145.64C200.64,145.539 200.751,145.448 200.87,145.37C201.032,145.28 201.235,145.313 201.36,145.45C201.378,145.502 201.378,145.558 201.36,145.61C200.36,167.12 191.69,180.77 182.94,192.91L177,199.14C177,199.14 185.18,199.14 189.84,197.34C206.84,192.26 219.68,181.06 229.02,163.2C231.322,158.616 233.378,153.913 235.18,149.11C235.34,148.71 236.82,147.97 236.67,150.04C236.67,150.65 236.59,151.33 236.54,152.04C236.54,152.46 236.48,152.89 236.46,153.32C236.21,156.32 235.46,162.66 235.46,162.66L240.71,159.85C253.37,151.85 263.13,135.71 270.53,110.6C273.62,100.14 275.87,89.75 277.86,80.6C280.24,69.6 282.29,60.17 284.64,56.51C288.33,50.77 293.96,46.89 299.41,43.12C300.16,42.61 300.9,42.12 301.63,41.58C308.49,36.77 315.3,31.22 316.79,20.87L316.79,20.64C317.93,12.92 317,11 316,10.05Z" style="fill:white;fill-rule:nonzero;"/>
                </g>
            </g>
        </g>
    </g>
</svg>
