<svg xmlns="http://www.w3.org/2000/svg" xml:space="preserve" style="fill-rule:evenodd;clip-rule:evenodd;stroke-linejoin:round;stroke-miterlimit:2" viewBox="0 0 1024 1024"><path d="M.439.438 219.3 232.266s7.457 5.259 13.158-.877c5.702-6.135 1.316-12.27 1.316-12.27zM69.738 22.35l166.668 179.677s7.456 5.259 13.158-.876 1.316-12.271 1.316-12.271zM21.053 69.242l166.668 179.677s7.456 5.259 13.158-.877c5.702-6.135 1.316-12.27 1.316-12.27zm107.268-28.048 116.441 125.53s5.209 3.674 9.193-.612c3.983-4.287.919-8.573.919-8.573zm-91.229 82.389 116.441 125.53s5.209 3.674 9.193-.613c3.983-4.286.919-8.572.919-8.572zM188.16 68.365l52.775 57.067s2.577 1.722 4.547-.287c1.971-2.008.455-4.017.455-4.017zM66.229 181.43l52.775 57.067s2.577 1.722 4.547-.286c1.971-2.009.455-4.017.455-4.017z" style="fill:#df4f4f;fill-rule:nonzero" transform="translate(11.918 21.636)scale(3.90021)"/></svg>