<?xml version="1.0" encoding="UTF-8" standalone="no"?>
<!DOCTYPE svg PUBLIC "-//W3C//DTD SVG 1.1//EN" "http://www.w3.org/Graphics/SVG/1.1/DTD/svg11.dtd">
<svg width="100%" height="100%" viewBox="0 0 512 512" version="1.1" xmlns="http://www.w3.org/2000/svg" xmlns:xlink="http://www.w3.org/1999/xlink" xml:space="preserve" xmlns:serif="http://www.serif.com/" style="fill-rule:evenodd;clip-rule:evenodd;">
    <g transform="matrix(1,0,0,1,-44,-45)">
        <g transform="matrix(1,0,0,1,0,1)">
            <g id="mint">
                <g id="back" transform="matrix(1,0,0,1,-25,-25)">
                    <path d="M581,191.18C581,123.747 526.253,69 458.82,69L191.18,69C123.747,69 69,123.747 69,191.18L69,458.82C69,526.253 123.747,581 191.18,581L458.82,581C526.253,581 581,526.253 581,458.82L581,191.18Z" style="fill:#497f2b;"/>
                </g>
                <g transform="matrix(0.473723,0,0,0.473723,300,436.084)">
                    <g transform="matrix(1,0,0,1,-390,-75)">
                        <clipPath id="_clip1">
                            <rect x="0" y="0" width="780" height="150"/>
                        </clipPath>
                        <g clip-path="url(#_clip1)">
                            <g id="g923" transform="matrix(1,0,0,1,-286.36,-47)">
                                <path id="path868" d="M324.814,193.72C314.112,193.471 306.521,191.169 302.041,186.814C297.561,182.458 295.321,175.676 295.321,166.467L295.321,49.987L312.681,47L312.681,163.667C312.681,166.529 312.929,168.894 313.427,170.76C313.925,172.627 314.734,174.12 315.854,175.24C316.974,176.36 318.467,177.231 320.334,177.854C322.201,178.351 324.503,178.787 327.241,179.16L324.814,193.72Z" style="fill:#fff;fill-rule:nonzero;stroke:#fff;stroke-width:2.64px;"/>
                                <path id="path870" d="M362.014,191.854L344.654,191.854L344.654,94.787L362.014,94.787L362.014,191.854ZM353.24,77.24C350.129,77.24 347.454,76.245 345.214,74.253C343.098,72.138 342.04,69.338 342.04,65.853C342.04,62.369 343.098,59.631 345.214,57.64C347.454,55.524 350.129,54.467 353.24,54.467C356.352,54.467 358.965,55.524 361.08,57.64C363.32,59.631 364.44,62.369 364.44,65.853C364.44,69.338 363.32,72.138 361.08,74.253C358.965,76.245 356.352,77.24 353.24,77.24Z" style="fill:#fff;fill-rule:nonzero;stroke:#fff;stroke-width:2.64px;"/>
                                <path id="path872" d="M389.88,97.587C393.862,96.591 399.151,95.533 405.747,94.413C412.342,93.293 419.934,92.733 428.52,92.733C436.236,92.733 442.645,93.853 447.747,96.093C452.849,98.209 456.894,101.258 459.88,105.24C462.991,109.098 465.169,113.765 466.414,119.24C467.658,124.716 468.28,130.751 468.28,137.347L468.28,191.854L450.92,191.854L450.92,141.08C450.92,135.107 450.485,130.005 449.614,125.773C448.867,121.542 447.56,118.12 445.694,115.507C443.827,112.893 441.338,111.027 438.227,109.907C435.116,108.662 431.258,108.04 426.654,108.04C424.787,108.04 422.858,108.102 420.867,108.227C418.876,108.351 416.947,108.538 415.08,108.787C413.338,108.911 411.72,109.098 410.227,109.347C408.858,109.596 407.862,109.782 407.24,109.907L407.24,191.854L389.88,191.854L389.88,97.587Z" style="fill:#fff;fill-rule:nonzero;stroke:#fff;stroke-width:2.64px;"/>
                                <path id="path874" d="M571.307,189.054C567.325,190.049 562.036,191.107 555.44,192.227C548.969,193.347 541.44,193.907 532.854,193.907C525.387,193.907 519.103,192.849 514,190.734C508.898,188.494 504.791,185.382 501.68,181.4C498.569,177.418 496.329,172.751 494.96,167.4C493.591,161.925 492.907,155.889 492.907,149.294L492.907,94.787L510.267,94.787L510.267,145.56C510.267,157.382 512.134,165.845 515.867,170.947C519.6,176.049 525.885,178.6 534.72,178.6C536.587,178.6 538.516,178.538 540.507,178.414C542.498,178.289 544.365,178.165 546.107,178.04C547.849,177.791 549.405,177.605 550.774,177.48C552.267,177.231 553.325,176.982 553.947,176.734L553.947,94.787L571.307,94.787L571.307,189.054Z" style="fill:#fff;fill-rule:nonzero;stroke:#fff;stroke-width:2.64px;"/>
                                <path id="path876" d="M656.727,191.854C655.358,189.116 653.678,186.067 651.687,182.707C649.696,179.347 647.518,175.925 645.154,172.44C642.789,168.831 640.363,165.285 637.874,161.8C635.385,158.316 632.958,155.018 630.594,151.907C628.229,155.018 625.803,158.378 623.314,161.987C620.825,165.471 618.398,169.018 616.034,172.627C613.794,176.111 611.678,179.534 609.687,182.894C607.696,186.254 606.016,189.24 604.647,191.854L586.727,191.854C591.083,183.391 596.247,174.805 602.22,166.094C608.318,157.258 614.354,148.858 620.327,140.894L588.22,94.787L607.82,94.787L630.967,128.76L654.3,94.787L672.78,94.787L641.42,139.774C647.394,147.862 653.492,156.449 659.714,165.534C666.06,174.494 671.412,183.267 675.767,191.854L656.727,191.854Z" style="fill:#fff;fill-rule:nonzero;stroke:#fff;stroke-width:2.64px;"/>
                                <path id="path878" d="M692.06,97.587C696.043,96.591 701.269,95.533 707.74,94.413C714.336,93.293 721.927,92.733 730.514,92.733C736.736,92.733 741.963,93.605 746.194,95.347C750.425,96.965 753.972,99.391 756.834,102.627C757.705,102.005 759.074,101.133 760.941,100.013C762.807,98.893 765.109,97.836 767.847,96.84C770.585,95.72 773.634,94.787 776.994,94.04C780.354,93.169 783.963,92.733 787.821,92.733C795.287,92.733 801.385,93.853 806.114,96.093C810.843,98.209 814.514,101.258 817.127,105.24C819.865,109.222 821.67,113.951 822.541,119.427C823.536,124.902 824.034,130.876 824.034,137.347L824.034,191.854L806.674,191.854L806.674,141.08C806.674,135.356 806.363,130.44 805.741,126.333C805.243,122.227 804.185,118.805 802.567,116.067C801.074,113.329 798.958,111.338 796.221,110.093C793.607,108.725 790.185,108.04 785.954,108.04C780.105,108.04 775.252,108.849 771.394,110.467C767.661,111.96 765.109,113.329 763.741,114.573C764.736,117.809 765.483,121.356 765.981,125.213C766.478,129.071 766.727,133.116 766.727,137.347L766.727,191.854L749.367,191.854L749.367,141.08C749.367,135.356 749.056,130.44 748.434,126.333C747.812,122.227 746.692,118.805 745.074,116.067C743.581,113.329 741.465,111.338 738.727,110.093C736.114,108.725 732.754,108.04 728.647,108.04C726.905,108.04 725.038,108.102 723.047,108.227C721.056,108.351 719.127,108.538 717.26,108.787C715.518,108.911 713.9,109.098 712.407,109.347C710.914,109.596 709.918,109.782 709.42,109.907L709.42,191.854L692.06,191.854L692.06,97.587Z" style="fill:#fff;fill-rule:nonzero;stroke:#fff;stroke-width:2.64px;"/>
                                <path id="path880" d="M868.14,191.854L850.78,191.854L850.78,94.787L868.14,94.787L868.14,191.854ZM859.367,77.24C856.256,77.24 853.58,76.245 851.34,74.253C849.225,72.138 848.167,69.338 848.167,65.853C848.167,62.369 849.225,59.631 851.34,57.64C853.58,55.524 856.256,54.467 859.367,54.467C862.478,54.467 865.092,55.524 867.207,57.64C869.447,59.631 870.567,62.369 870.567,65.853C870.567,69.338 869.447,72.138 867.207,74.253C865.092,76.245 862.478,77.24 859.367,77.24Z" style="fill:#fff;fill-rule:nonzero;stroke:#fff;stroke-width:2.64px;"/>
                                <path id="path882" d="M896.007,97.587C899.989,96.591 905.278,95.533 911.874,94.413C918.469,93.293 926.06,92.733 934.647,92.733C942.362,92.733 948.771,93.853 953.874,96.093C958.976,98.209 963.02,101.258 966.007,105.24C969.118,109.098 971.296,113.765 972.54,119.24C973.785,124.716 974.407,130.751 974.407,137.347L974.407,191.854L957.047,191.854L957.047,141.08C957.047,135.107 956.611,130.005 955.74,125.773C954.994,121.542 953.687,118.12 951.82,115.507C949.954,112.893 947.465,111.027 944.354,109.907C941.242,108.662 937.385,108.04 932.78,108.04C930.914,108.04 928.985,108.102 926.994,108.227C925.002,108.351 923.074,108.538 921.207,108.787C919.465,108.911 917.847,109.098 916.354,109.347C914.985,109.596 913.989,109.782 913.367,109.907L913.367,191.854L896.007,191.854L896.007,97.587Z" style="fill:#fff;fill-rule:nonzero;stroke:#fff;stroke-width:2.64px;"/>
                                <path id="path884" d="M1016.89,94.787L1053.67,94.787L1053.67,109.347L1016.89,109.347L1016.89,154.147C1016.89,159 1017.27,163.045 1018.01,166.28C1018.76,169.391 1019.88,171.88 1021.37,173.747C1022.87,175.489 1024.73,176.734 1026.97,177.48C1029.21,178.227 1031.83,178.6 1034.81,178.6C1040.04,178.6 1044.21,178.04 1047.32,176.92C1050.56,175.676 1052.8,174.805 1054.04,174.307L1057.4,188.68C1055.66,189.551 1052.61,190.609 1048.25,191.854C1043.9,193.222 1038.92,193.907 1033.32,193.907C1026.72,193.907 1021.25,193.098 1016.89,191.48C1012.66,189.738 1009.24,187.187 1006.63,183.827C1004.01,180.467 1002.15,176.36 1001.03,171.507C1000.03,166.529 999.534,160.805 999.534,154.334L999.534,67.72L1016.89,64.733L1016.89,94.787Z" style="fill:#fff;fill-rule:nonzero;stroke:#fff;stroke-width:2.64px;"/>
                            </g>
                        </g>
                    </g>
                </g>
                <g transform="matrix(0.93009,0,0,0.93009,300,257.012)">
                    <g transform="matrix(1,0,0,1,-128,-128)">
                        <clipPath id="_clip2">
                            <rect x="0" y="0" width="256" height="256"/>
                        </clipPath>
                        <g clip-path="url(#_clip2)">
                            <g id="layer3">
                                <circle id="path32" cx="128" cy="128" r="118" style="fill:none;stroke:#fff;stroke-width:20px;"/>
                                <path id="path4193" d="M58,63L58,153C58,174.973 76.027,193 98,193L158,193C179.973,193 198,174.973 198,153L198,103C198,86.55 184.45,73 168,73C160.315,73 153.333,76.038 148,80.866C142.667,76.038 135.685,73 128,73C111.55,73 98,86.55 98,103L98,153L118,153L118,103C118,97.359 122.359,93 128,93C133.641,93 138,97.359 138,103L138,153L158,153L158,103C158,97.359 162.359,93 168,93C173.641,93 178,97.359 178,103L178,153C178,164.164 169.164,173 158,173L98,173C86.836,173 78,164.164 78,153L78,63L58,63Z" style="fill:#fff;fill-rule:nonzero;"/>
                            </g>
                            <g id="g9231" serif:id="g923">
                            </g>
                        </g>
                    </g>
                </g>
            </g>
        </g>
    </g>
</svg>
