<?xml version="1.0" encoding="UTF-8" standalone="no"?>
<!DOCTYPE svg PUBLIC "-//W3C//DTD SVG 1.1//EN" "http://www.w3.org/Graphics/SVG/1.1/DTD/svg11.dtd">
<svg width="100%" height="100%" viewBox="0 0 512 512" version="1.1" xmlns="http://www.w3.org/2000/svg" xmlns:xlink="http://www.w3.org/1999/xlink" xml:space="preserve" xmlns:serif="http://www.serif.com/" style="fill-rule:evenodd;clip-rule:evenodd;stroke-linejoin:round;stroke-miterlimit:2;">
    <g transform="matrix(1,0,0,1,-44,-45)">
        <g id="mocha" transform="matrix(0.808641,0,0,0.808641,56.4078,55.4812)">
            <g id="back" transform="matrix(1.23664,0,0,1.23664,-100.672,-98.2899)">
                <path d="M581,191.18C581,123.747 526.253,69 458.82,69L191.18,69C123.747,69 69,123.747 69,191.18L69,458.82C69,526.253 123.747,581 191.18,581L458.82,581C526.253,581 581,526.253 581,458.82L581,191.18Z" style="fill:rgb(133,85,48);"/>
            </g>
            <g id="mocha1" serif:id="mocha" transform="matrix(0.90585,0,0,0.90585,77.5363,193.095)">
                <g id="logo" transform="matrix(8.85117,0,0,8.85117,-577.978,-597.448)">
                    <g id="XMLID_223_">
                        <g id="XMLID_295_">
                            <path id="path8" d="M103.6,69.6C103.6,69.1 103.2,68.6 102.6,68.6L83.8,68.6C83.3,68.6 82.8,69 82.8,69.6C82.8,73 83.3,84.7 88.3,90.4C88.5,90.6 88.7,90.7 89,90.7L97.4,90.7C97.7,90.7 97.9,90.6 98.1,90.4C103.1,84.8 103.6,73.1 103.6,69.6ZM96.2,87.8L90.3,87.8C90,87.8 89.8,87.7 89.6,87.5C86.2,83.5 85.8,75.5 85.7,72.7C85.7,72.2 86.1,71.7 86.7,71.7L99.9,71.7C100.4,71.7 100.9,72.1 100.9,72.7C100.9,75.5 100.4,83.4 97,87.5C96.7,87.7 96.5,87.8 96.2,87.8Z" style="fill:white;fill-rule:nonzero;"/>
                        </g>
                    </g>
                    <path id="XMLID_225_" d="M95.1,66.6C95.1,66.6 98.7,64.5 96.5,60.7C95.2,58.7 94.6,57 95.1,56.3C93.8,57.9 91.6,59.6 94,63.2C94.8,64.1 95.2,66 95.1,66.6Z" style="fill:white;fill-rule:nonzero;"/>
                    <path id="XMLID_224_" d="M91.1,66.9C91.1,66.9 93.5,65.5 92,62.9C91.1,61.6 90.7,60.4 91.1,60C90.2,61.1 88.8,62.2 90.4,64.7C90.9,65.2 91.1,66.5 91.1,66.9Z" style="fill:white;fill-rule:nonzero;"/>
                    <path id="XMLID_227_" d="M99.3,78.5C98.9,81.2 98.1,84.3 96.4,86.3C96.2,86.5 96,86.6 95.8,86.6L90.8,86.6C90.6,86.6 90.3,86.5 90.2,86.3C89,84.8 88.2,82.8 87.7,80.7C87.7,80.7 93.5,81.5 96.8,80.3C99.2,79.4 99.3,78.5 99.3,78.5Z" style="fill:white;fill-rule:nonzero;"/>
                </g>
                <g id="text" transform="matrix(3.81822,0,0,3.81822,-118.835,-96.0542)">
                    <path id="path15" d="M33.6,94.7L37.3,94.7L43.4,104.1L49.5,94.7L53.2,94.7L53.2,114.7L49.7,114.7L49.7,100.4L43.4,109.8L43.3,109.8L37.1,100.5L37.1,114.8L33.6,114.8L33.6,94.7Z" style="fill:white;fill-rule:nonzero;"/>
                    <path id="path17" d="M71.3,115C69.8,115 68.4,114.7 67.1,114.2C65.8,113.7 64.7,112.9 63.8,112C62.9,111.1 62.2,110 61.7,108.7C61.2,107.5 60.9,106.1 60.9,104.7L60.9,104.6C60.9,103.2 61.2,101.9 61.7,100.6C62.2,99.4 62.9,98.3 63.9,97.3C64.8,96.4 65.9,95.6 67.2,95.1C68.5,94.5 69.9,94.3 71.4,94.3C72.9,94.3 74.3,94.6 75.6,95.1C76.9,95.6 78,96.4 78.9,97.3C79.8,98.2 80.5,99.3 81,100.6C81.5,101.8 81.8,103.2 81.8,104.6L81.8,104.7C81.8,106.1 81.5,107.4 81,108.7C80.5,109.9 79.8,111 78.8,112C77.9,112.9 76.8,113.7 75.5,114.2C74.2,114.8 72.8,115 71.3,115ZM71.3,111.8C72.3,111.8 73.2,111.6 74,111.2C74.8,110.8 75.5,110.3 76.1,109.7C76.7,109.1 77.1,108.3 77.5,107.5C77.8,106.6 78,105.7 78,104.8L78,104.7C78,103.7 77.8,102.8 77.5,101.9C77.2,101 76.7,100.3 76.1,99.6C75.5,99 74.8,98.5 74,98.1C73.2,97.7 72.3,97.5 71.3,97.5C70.3,97.5 69.4,97.7 68.6,98.1C67.8,98.5 67.1,99 66.5,99.6C65.9,100.2 65.5,101 65.1,101.8C64.8,102.7 64.6,103.6 64.6,104.5L64.6,104.6C64.6,105.6 64.8,106.5 65.1,107.4C65.4,108.3 65.9,109 66.5,109.7C67.1,110.3 67.8,110.8 68.6,111.2C69.4,111.6 70.4,111.8 71.3,111.8Z" style="fill:white;fill-rule:nonzero;"/>
                    <path id="path19" d="M98.7,115C97.2,115 95.9,114.7 94.7,114.2C93.5,113.7 92.4,112.9 91.5,112C90.6,111.1 89.9,110 89.4,108.7C88.9,107.4 88.6,106.1 88.6,104.7L88.6,104.6C88.6,103.2 88.9,101.8 89.4,100.6C89.9,99.4 90.6,98.3 91.5,97.3C92.4,96.4 93.5,95.6 94.8,95.1C96.1,94.6 97.4,94.3 99,94.3C99.9,94.3 100.7,94.4 101.5,94.5C102.3,94.7 102.9,94.9 103.6,95.1C104.2,95.4 104.8,95.7 105.3,96.1C105.8,96.5 106.3,96.9 106.8,97.4L104.5,100C103.7,99.3 102.9,98.7 102,98.2C101.1,97.7 100.1,97.5 98.9,97.5C97.9,97.5 97.1,97.7 96.3,98.1C95.5,98.5 94.8,99 94.2,99.6C93.6,100.2 93.2,101 92.8,101.8C92.5,102.7 92.3,103.6 92.3,104.5L92.3,104.6C92.3,105.6 92.5,106.5 92.8,107.4C93.1,108.3 93.6,109 94.2,109.7C94.8,110.3 95.5,110.9 96.3,111.2C97.1,111.5 98,111.8 98.9,111.8C100.1,111.8 101.2,111.6 102,111.1C102.8,110.6 103.7,110 104.6,109.2L106.9,111.5C106.4,112.1 105.9,112.5 105.3,113C104.7,113.5 104.1,113.8 103.5,114.1C102.9,114.4 102.1,114.7 101.4,114.8C100.5,115 99.6,115 98.7,115Z" style="fill:white;fill-rule:nonzero;"/>
                    <path id="path21" d="M113.9,94.7L117.4,94.7L117.4,103L127,103L127,94.7L130.5,94.7L130.5,114.7L127,114.7L127,106.3L117.4,106.3L117.4,114.7L113.9,114.7L113.9,94.7Z" style="fill:white;fill-rule:nonzero;"/>
                    <path id="path23" d="M146,94.6L149.2,94.6L158,114.7L154.3,114.7L152.3,109.9L142.9,109.9L140.8,114.7L137.2,114.7L146,94.6ZM151,106.8L147.6,98.8L144.2,106.8L151,106.8Z" style="fill:white;fill-rule:nonzero;"/>
                </g>
            </g>
        </g>
    </g>
</svg>
