<?xml version="1.0" encoding="UTF-8" standalone="no"?>
<!DOCTYPE svg PUBLIC "-//W3C//DTD SVG 1.1//EN" "http://www.w3.org/Graphics/SVG/1.1/DTD/svg11.dtd">
<svg width="100%" height="100%" viewBox="0 0 512 512" version="1.1" xmlns="http://www.w3.org/2000/svg" xmlns:xlink="http://www.w3.org/1999/xlink" xml:space="preserve" xmlns:serif="http://www.serif.com/" style="fill-rule:evenodd;clip-rule:evenodd;stroke-linejoin:round;stroke-miterlimit:2;">
    <g transform="matrix(1,0,0,1,-43,-45)">
        <g id="mongodb" transform="matrix(0.808641,0,0,0.808641,55.4078,55.4812)">
            <g id="back" transform="matrix(1.23664,0,0,1.23664,-100.672,-98.2899)">
                <path d="M581,191.18C581,123.747 526.253,69 458.82,69L191.18,69C123.747,69 69,123.747 69,191.18L69,458.82C69,526.253 123.747,581 191.18,581L458.82,581C526.253,581 581,526.253 581,458.82L581,191.18Z" style="fill:rgb(0,30,43);"/>
            </g>
            <g transform="matrix(1.18261,0,0,1.18261,-109.175,101.161)">
                <g transform="matrix(1.23664,0,0,1.23664,-574.163,-325.832)">
                    <path d="M628.374,525.962L614.596,492.552L614.566,492.459L603.846,492.459L603.846,494.705L605.576,494.705C606.101,494.705 606.595,494.92 606.966,495.29C607.337,495.659 607.522,496.151 607.522,496.674L607.213,530.3C607.213,531.346 606.348,532.207 605.298,532.238L603.537,532.268L603.537,534.483L613.979,534.483L613.979,532.268L612.897,532.238C611.847,532.207 610.982,531.346 610.982,530.3L610.982,498.612L625.996,534.483C626.212,535.006 626.706,535.345 627.262,535.345C627.818,535.345 628.312,535.006 628.529,534.483L643.202,499.412L643.418,530.3C643.418,531.376 642.554,532.238 641.472,532.268L640.36,532.268L640.36,534.483L652.593,534.483L652.593,532.268L650.925,532.268C649.875,532.268 649.01,531.376 648.979,530.33L648.886,496.705C648.886,495.628 649.751,494.767 650.802,494.736L652.593,494.705L652.593,492.459L642.152,492.459L628.374,525.962Z" style="fill:rgb(0,237,100);fill-rule:nonzero;"/>
                </g>
                <g transform="matrix(1.23664,0,0,1.23664,-574.163,-325.832)">
                    <path d="M724.44,531.684C724.099,531.346 723.913,530.885 723.913,530.332L723.913,513.862C723.913,510.727 722.984,508.269 721.126,506.517C719.298,504.766 716.759,503.875 713.599,503.875C709.17,503.875 705.671,505.657 703.224,509.16C703.193,509.222 703.1,509.252 703.007,509.252C702.914,509.252 702.852,509.191 702.852,509.099L701.706,504.704L699.786,504.704L694.861,507.501L694.861,509.037L696.131,509.037C696.72,509.037 697.215,509.191 697.556,509.498C697.897,509.805 698.082,510.266 698.082,510.912L698.082,530.302C698.082,530.855 697.897,531.316 697.556,531.654C697.215,531.992 696.751,532.176 696.193,532.176L694.954,532.176L694.954,534.419L706.29,534.419L706.29,532.176L705.051,532.176C704.494,532.176 704.029,531.992 703.688,531.654C703.348,531.316 703.162,530.855 703.162,530.302L703.162,517.457C703.162,515.828 703.534,514.2 704.215,512.602C704.927,511.035 705.98,509.713 707.374,508.699C708.768,507.685 710.44,507.193 712.361,507.193C714.529,507.193 716.17,507.869 717.192,509.222C718.214,510.574 718.741,512.325 718.741,514.415L718.741,530.271C718.741,530.824 718.555,531.285 718.214,531.623C717.874,531.961 717.409,532.145 716.852,532.145L715.613,532.145L715.613,534.389L726.948,534.389L726.948,532.145L725.71,532.145C725.245,532.207 724.811,532.022 724.44,531.684Z" style="fill:rgb(0,237,100);fill-rule:nonzero;"/>
                </g>
                <g transform="matrix(1.23664,0,0,1.23664,-574.163,-325.832)">
                    <path d="M828.007,494.993C824.874,493.324 821.371,492.459 817.593,492.459L802.848,492.459L802.848,494.715L804.292,494.715C804.844,494.715 805.336,494.931 805.828,495.425C806.288,495.889 806.534,496.414 806.534,496.97L806.534,530.217C806.534,530.773 806.288,531.298 805.828,531.762C805.367,532.225 804.844,532.472 804.292,532.472L802.848,532.472L802.848,534.728L817.593,534.728C821.371,534.728 824.874,533.863 828.007,532.194C831.14,530.526 833.69,528.054 835.533,524.902C837.376,521.751 838.329,517.95 838.329,513.624C838.329,509.299 837.376,505.529 835.533,502.347C833.659,499.133 831.14,496.661 828.007,494.993ZM832.4,513.563C832.4,517.518 831.693,520.855 830.311,523.543C828.929,526.231 827.085,528.239 824.812,529.537C822.539,530.835 820.02,531.484 817.317,531.484L814.337,531.484C813.784,531.484 813.292,531.267 812.801,530.773C812.34,530.309 812.094,529.784 812.094,529.228L812.094,497.866C812.094,497.31 812.309,496.816 812.801,496.321C813.262,495.858 813.784,495.611 814.337,495.611L817.317,495.611C820.02,495.611 822.539,496.26 824.812,497.557C827.085,498.855 828.929,500.864 830.311,503.552C831.693,506.24 832.4,509.608 832.4,513.563Z" style="fill:rgb(0,237,100);fill-rule:nonzero;"/>
                </g>
                <g transform="matrix(1.23664,0,0,1.23664,-574.163,-325.832)">
                    <path d="M873.184,515.818C871.821,514.242 869.189,512.914 866.092,512.203C870.366,510.071 872.564,507.074 872.564,503.212C872.564,501.111 872.007,499.226 870.892,497.619C869.777,496.013 868.198,494.715 866.185,493.819C864.172,492.923 861.819,492.459 859.155,492.459L842.464,492.459L842.464,494.715L843.795,494.715C844.353,494.715 844.848,494.931 845.344,495.425C845.808,495.889 846.056,496.414 846.056,496.97L846.056,530.217C846.056,530.773 845.808,531.298 845.344,531.762C844.879,532.225 844.353,532.472 843.795,532.472L842.34,532.472L842.34,534.728L860.456,534.728C863.212,534.728 865.782,534.264 868.105,533.337C870.428,532.41 872.286,531.051 873.617,529.259C874.98,527.467 875.661,525.273 875.661,522.739C875.63,520.02 874.825,517.703 873.184,515.818ZM852.404,530.804C851.94,530.34 851.692,529.815 851.692,529.259L851.692,514.335L860.301,514.335C863.336,514.335 865.658,515.108 867.269,516.652C868.879,518.197 869.684,520.206 869.684,522.678C869.684,524.161 869.313,525.613 868.631,526.942C867.919,528.301 866.866,529.382 865.442,530.217C864.048,531.051 862.314,531.484 860.301,531.484L853.953,531.484C853.395,531.514 852.9,531.267 852.404,530.804ZM851.723,511.153L851.723,497.897C851.723,497.341 851.94,496.847 852.435,496.352C852.9,495.889 853.426,495.642 853.984,495.642L858.071,495.642C861.013,495.642 863.181,496.383 864.544,497.805C865.906,499.257 866.588,501.111 866.588,503.397C866.588,505.745 865.937,507.63 864.668,509.052C863.398,510.442 861.478,511.153 858.939,511.153L851.723,511.153Z" style="fill:rgb(0,237,100);fill-rule:nonzero;"/>
                </g>
                <g transform="matrix(1.23664,0,0,1.23664,-574.163,-325.832)">
                    <path d="M681.286,505.845C678.92,504.552 676.277,503.875 673.419,503.875C670.561,503.875 667.887,504.521 665.551,505.845C663.185,507.139 661.311,509.017 659.928,511.388C658.545,513.759 657.838,516.531 657.838,519.61C657.838,522.689 658.545,525.46 659.928,527.831C661.311,530.202 663.185,532.081 665.551,533.374C667.918,534.667 670.561,535.345 673.419,535.345C676.277,535.345 678.95,534.698 681.286,533.374C683.652,532.081 685.527,530.202 686.91,527.831C688.293,525.46 688.999,522.689 688.999,519.61C688.999,516.531 688.293,513.759 686.91,511.388C685.527,509.017 683.652,507.17 681.286,505.845ZM683.56,519.61C683.56,523.397 682.638,526.477 680.794,528.694C678.981,530.911 676.492,532.05 673.419,532.05C670.346,532.05 667.856,530.911 666.043,528.694C664.199,526.477 663.277,523.397 663.277,519.61C663.277,515.822 664.199,512.743 666.043,510.526C667.856,508.309 670.346,507.17 673.419,507.17C676.492,507.17 678.981,508.309 680.794,510.526C682.638,512.774 683.56,515.822 683.56,519.61Z" style="fill:rgb(0,237,100);fill-rule:nonzero;"/>
                </g>
                <g transform="matrix(1.23664,0,0,1.23664,-574.163,-325.832)">
                    <path d="M790.198,505.845C787.832,504.552 785.189,503.875 782.331,503.875C779.473,503.875 776.799,504.521 774.464,505.845C772.097,507.139 770.223,509.017 768.84,511.388C767.457,513.759 766.75,516.531 766.75,519.61C766.75,522.689 767.457,525.46 768.84,527.831C770.223,530.202 772.097,532.081 774.464,533.374C776.83,534.667 779.473,535.345 782.331,535.345C785.189,535.345 787.862,534.698 790.198,533.374C792.564,532.081 794.439,530.202 795.822,527.831C797.205,525.46 797.912,522.689 797.912,519.61C797.912,516.531 797.205,513.759 795.822,511.388C794.439,509.017 792.534,507.17 790.198,505.845ZM792.472,519.61C792.472,523.397 791.55,526.477 789.706,528.694C787.893,530.911 785.404,532.05 782.331,532.05C779.258,532.05 776.768,530.911 774.955,528.694C773.111,526.477 772.189,523.397 772.189,519.61C772.189,515.791 773.111,512.743 774.955,510.526C776.768,508.309 779.258,507.17 782.331,507.17C785.404,507.17 787.893,508.309 789.706,510.526C791.519,512.774 792.472,515.822 792.472,519.61Z" style="fill:rgb(0,237,100);fill-rule:nonzero;"/>
                </g>
                <g transform="matrix(1.23664,0,0,1.23664,-574.163,-325.832)">
                    <path d="M746.275,503.875C743.799,503.875 741.539,504.401 739.497,505.452C737.454,506.504 735.845,507.927 734.699,509.752C733.554,511.546 732.966,513.557 732.966,515.692C732.966,517.61 733.4,519.373 734.297,520.951C735.164,522.466 736.34,523.735 737.825,524.786L733.399,530.788C732.842,531.53 732.78,532.52 733.183,533.324C733.616,534.16 734.421,534.654 735.349,534.654L736.618,534.654C735.38,535.49 734.39,536.48 733.709,537.655C732.904,538.985 732.502,540.377 732.502,541.8C732.502,544.461 733.678,546.657 735.999,548.297C738.29,549.936 741.508,550.771 745.563,550.771C748.379,550.771 751.072,550.307 753.517,549.41C755.993,548.513 758.005,547.183 759.49,545.451C761.007,543.718 761.78,541.615 761.78,539.202C761.78,536.665 760.852,534.871 758.685,533.139C756.828,531.685 753.919,530.911 750.298,530.911L737.918,530.911C737.887,530.911 737.856,530.88 737.856,530.88C737.856,530.88 737.825,530.819 737.856,530.788L741.075,526.457C741.942,526.859 742.746,527.106 743.458,527.261C744.201,527.416 745.037,527.478 745.965,527.478C748.565,527.478 750.917,526.952 752.96,525.9C755.002,524.848 756.643,523.425 757.819,521.6C758.995,519.806 759.583,517.795 759.583,515.661C759.583,513.372 758.469,509.195 755.436,507.061C755.436,507.03 755.467,507.03 755.467,507.03L762.121,507.772L762.121,504.71L751.474,504.71C749.803,504.153 748.07,503.875 746.275,503.875ZM749.989,523.209C748.812,523.827 747.544,524.168 746.275,524.168C744.201,524.168 742.375,523.425 740.827,521.971C739.28,520.517 738.506,518.383 738.506,515.661C738.506,512.939 739.28,510.804 740.827,509.35C742.375,507.896 744.201,507.154 746.275,507.154C747.574,507.154 748.812,507.463 749.989,508.113C751.165,508.731 752.124,509.69 752.898,510.959C753.641,512.227 754.043,513.805 754.043,515.661C754.043,517.548 753.672,519.125 752.898,520.363C752.155,521.631 751.165,522.59 749.989,523.209ZM741.601,534.624L749.989,534.624C752.31,534.624 753.795,535.088 754.786,536.077C755.776,537.067 756.271,538.398 756.271,539.944C756.271,542.202 755.374,544.059 753.579,545.451C751.784,546.843 749.37,547.554 746.398,547.554C743.799,547.554 741.632,546.966 740.054,545.853C738.475,544.739 737.671,543.038 737.671,540.872C737.671,539.511 738.042,538.243 738.785,537.129C739.528,536.016 740.425,535.211 741.601,534.624Z" style="fill:rgb(0,237,100);fill-rule:nonzero;"/>
                </g>
                <g transform="matrix(1.23664,0,0,1.23664,-574.163,-325.832)">
                    <path d="M881.936,534.211C881.324,533.877 880.865,533.391 880.497,532.815C880.16,532.207 879.977,531.569 879.977,530.871C879.977,530.173 880.16,529.505 880.497,528.928C880.834,528.32 881.324,527.865 881.936,527.531C882.548,527.197 883.222,527.014 883.987,527.014C884.753,527.014 885.426,527.197 886.039,527.531C886.651,527.865 887.11,528.351 887.478,528.928C887.815,529.535 887.998,530.173 887.998,530.871C887.998,531.569 887.815,532.238 887.478,532.815C887.141,533.422 886.651,533.877 886.039,534.211C885.426,534.545 884.753,534.728 883.987,534.728C883.253,534.728 882.548,534.545 881.936,534.211ZM885.702,533.756C886.223,533.483 886.59,533.057 886.896,532.572C887.172,532.055 887.325,531.478 887.325,530.841C887.325,530.203 887.172,529.626 886.896,529.11C886.621,528.594 886.223,528.199 885.702,527.925C885.182,527.652 884.63,527.5 883.987,527.5C883.344,527.5 882.793,527.652 882.273,527.925C881.752,528.199 881.385,528.624 881.079,529.11C880.803,529.626 880.65,530.203 880.65,530.841C880.65,531.478 880.803,532.055 881.079,532.572C881.354,533.088 881.752,533.483 882.273,533.756C882.793,534.029 883.344,534.181 883.987,534.181C884.63,534.181 885.212,534.029 885.702,533.756ZM882.334,532.693L882.334,532.42L882.395,532.389L882.579,532.389C882.64,532.389 882.702,532.359 882.732,532.329C882.793,532.268 882.793,532.238 882.793,532.177L882.793,529.353C882.793,529.292 882.763,529.231 882.732,529.201C882.671,529.14 882.64,529.14 882.579,529.14L882.395,529.14L882.334,529.11L882.334,528.836L882.395,528.806L883.987,528.806C884.447,528.806 884.784,528.897 885.059,529.11C885.335,529.322 885.457,529.596 885.457,529.96C885.457,530.233 885.365,530.507 885.151,530.689C884.937,530.901 884.692,531.023 884.385,531.053L884.753,531.175L885.457,532.298C885.518,532.389 885.58,532.42 885.671,532.42L885.855,532.42L885.886,532.45L885.886,532.723L885.855,532.754L884.906,532.754L884.845,532.723L883.865,531.084L883.62,531.084L883.62,532.177C883.62,532.238 883.651,532.298 883.681,532.329C883.743,532.389 883.773,532.389 883.834,532.389L884.018,532.389L884.079,532.42L884.079,532.693L884.018,532.723L882.395,532.723L882.334,532.693ZM883.896,530.719C884.141,530.719 884.355,530.658 884.477,530.507C884.6,530.385 884.692,530.173 884.692,529.93C884.692,529.687 884.63,529.505 884.508,529.353C884.385,529.201 884.202,529.14 883.987,529.14L883.865,529.14C883.804,529.14 883.743,529.17 883.712,529.201C883.651,529.262 883.651,529.292 883.651,529.353L883.651,530.719L883.896,530.719Z" style="fill:rgb(0,237,100);fill-rule:nonzero;"/>
                </g>
            </g>
            <g transform="matrix(3.92021,0,0,3.92021,-1919.61,-1729.89)">
                <path d="M573.399,473.838C570.071,469.889 567.206,465.879 566.62,465.046C566.558,464.985 566.466,464.985 566.404,465.046C565.819,465.879 562.953,469.889 559.625,473.838C531.061,510.268 564.124,534.853 564.124,534.853L564.401,535.038C564.648,538.832 565.264,544.292 565.264,544.292L567.729,544.292C567.729,544.292 568.346,538.863 568.592,535.038L568.869,534.822C568.9,534.853 601.963,510.268 573.399,473.838ZM566.497,534.329C566.497,534.329 565.018,533.064 564.617,532.416L564.617,532.354L566.404,492.685C566.404,492.562 566.589,492.562 566.589,492.685L568.376,532.354L568.376,532.416C567.976,533.064 566.497,534.329 566.497,534.329Z" style="fill:rgb(0,237,100);fill-rule:nonzero;"/>
            </g>
        </g>
    </g>
</svg>
