<?xml version="1.0" encoding="UTF-8" standalone="no"?>
<!DOCTYPE svg PUBLIC "-//W3C//DTD SVG 1.1//EN" "http://www.w3.org/Graphics/SVG/1.1/DTD/svg11.dtd">
<svg width="100%" height="100%" viewBox="0 0 512 512" version="1.1" xmlns="http://www.w3.org/2000/svg" xmlns:xlink="http://www.w3.org/1999/xlink" xml:space="preserve" xmlns:serif="http://www.serif.com/" style="fill-rule:evenodd;clip-rule:evenodd;stroke-linejoin:round;stroke-miterlimit:2;">
    <g transform="matrix(1,0,0,1,-44,-44)">
        <g id="nette" transform="matrix(2.32458,0,0,2.32458,-317.594,-365.657)">
            <g id="back" transform="matrix(0.430185,0,0,0.430185,125.869,146.545)">
                <path d="M581,191.18C581,123.747 526.253,69 458.82,69L191.18,69C123.747,69 69,123.747 69,191.18L69,458.82C69,526.253 123.747,581 191.18,581L458.82,581C526.253,581 581,526.253 581,458.82L581,191.18Z" style="fill:#1a74c4;"/>
            </g>
            <g transform="matrix(0.64295,0,0,0.64295,265.679,286.355)">
                <g transform="matrix(1,0,0,1,-128.512,-52.5271)">
                    <clipPath id="_clip1">
                        <rect x="0" y="0" width="257.024" height="105.054"/>
                    </clipPath>
                    <g clip-path="url(#_clip1)">
                        <g id="Layer_x0020_1">
                            <path d="M66.861,59.404C63.21,62.004 60.896,63.583 59.916,64.143C54.685,67.262 49.905,68.821 45.579,68.821C43.164,68.821 40.8,68.267 38.486,67.161C36.171,66.054 34.436,64.62 33.279,62.859C32.122,61.099 31.543,59.112 31.543,56.898C31.543,53.779 32.6,49.805 34.713,44.975C37.731,37.932 39.341,34.159 39.542,33.656C39.442,33.253 39.391,32.8 39.391,32.297C37.983,32.901 37.027,33.354 36.524,33.656C33.706,35.467 30.939,37.53 28.223,39.843C26.11,41.755 23.645,44.171 20.828,47.088C20.224,50.71 19.922,54.282 19.922,57.804C19.922,60.521 20.073,63.237 20.375,65.953L2.113,68.821C0.704,63.187 -0,57.804 -0,52.672C-0,49.553 0.302,46.384 0.906,43.164C1.509,39.945 2.616,36.322 4.226,32.297C5.333,29.48 6.892,25.959 8.904,21.733L29.883,18.262C28.575,21.482 27.619,23.896 27.015,25.506C25.909,28.223 25.003,30.687 24.299,32.901C29.33,28.274 34.361,24.701 39.391,22.186C43.416,20.174 47.038,19.167 50.257,19.167C52.069,19.167 53.93,19.519 55.842,20.224C57.753,20.928 59.137,22.035 59.992,23.544C60.848,25.053 61.275,26.865 61.275,28.977C61.275,31.995 60.42,35.719 58.709,40.146C56.697,45.176 54.735,50.207 52.824,55.238C52.824,55.943 53.075,56.37 53.578,56.521C54.081,56.672 54.585,56.747 55.088,56.747C57.106,56.747 60.11,55.693 64.097,53.583C63.725,52.131 63.539,50.619 63.539,49.05C63.539,46.635 63.891,44.321 64.596,42.108C65.3,39.894 66.357,37.58 67.765,35.165C70.281,31.04 73.802,27.518 78.329,24.6C82.858,21.682 87.636,19.822 92.667,19.016C94.478,18.815 95.887,18.714 96.893,18.714C100.213,18.714 103.182,19.268 105.797,20.374C108.414,21.482 110.577,23.293 112.287,25.808C113.294,27.418 113.797,29.027 113.797,30.637C113.797,33.153 112.539,35.618 110.024,38.033C108.213,39.743 105.773,41.353 102.704,42.863C99.635,44.372 96.591,45.629 93.573,46.635C91.359,47.339 88.241,48.195 84.215,49.201C85.524,51.918 87.385,54.106 89.8,55.766C92.215,57.426 94.78,58.257 97.497,58.257C101.622,58.257 105.747,57.2 109.873,55.087C110.065,54.99 113.216,52.999 119.325,49.113C119.36,48.63 119.403,48.131 119.457,47.616C119.608,46.157 119.909,44.372 120.362,42.259C120.541,41.426 120.707,40.663 120.862,39.97L142.656,38.669C142.135,40.49 141.596,42.365 141.038,44.296C140.384,46.56 140.057,48.446 140.057,49.956C140.057,52.371 140.535,54.056 141.491,55.012C142.447,55.967 143.83,56.446 145.642,56.446C148.258,56.446 151.679,55.338 155.904,53.125C157.916,51.908 159.537,50.931 160.766,50.193C160.802,49.383 160.866,48.524 160.96,47.616C161.111,46.157 161.413,44.372 161.866,42.259C162.044,41.428 162.21,40.668 162.365,39.977L184.159,38.676C183.639,40.494 183.1,42.368 182.542,44.296C181.889,46.56 181.562,48.446 181.562,49.956C181.562,52.371 182.04,54.056 182.995,55.012C183.951,55.967 185.335,56.446 187.146,56.446C189.761,56.446 193.183,55.338 197.408,53.125L200.551,51.227C200.468,50.514 200.427,49.789 200.427,49.05C200.427,46.635 200.779,44.321 201.483,42.108C202.187,39.894 203.244,37.58 204.653,35.165C207.168,31.04 210.69,27.518 215.218,24.6C219.745,21.682 224.525,19.822 229.555,19.016C231.366,18.815 232.775,18.714 233.781,18.714C237.102,18.714 240.069,19.268 242.686,20.374C245.302,21.482 247.465,23.293 249.175,25.808C250.181,27.418 250.684,29.027 250.684,30.637C250.684,33.153 249.427,35.618 246.912,38.033C245.1,39.743 242.66,41.353 239.592,42.863C236.523,44.372 233.479,45.629 230.461,46.635C228.247,47.339 225.128,48.195 221.103,49.201C222.411,51.918 224.273,54.106 226.688,55.766C229.103,57.426 231.668,58.257 234.385,58.257C238.51,58.257 242.635,57.2 246.761,55.087C246.962,54.986 250.383,52.823 257.024,48.597L257.024,55.389C256.42,55.791 254.005,57.502 249.779,60.521C246.66,62.734 244.094,64.293 242.082,65.199C237.051,67.413 231.517,68.519 225.48,68.519C221.455,68.519 217.884,68.041 214.765,67.086C211.646,66.129 208.778,64.444 206.162,62.029C204.545,60.583 203.27,58.956 202.337,57.15C197.901,60.356 194.497,62.637 192.126,63.992C186.793,67.01 181.964,68.519 177.638,68.519C175.209,68.519 173.249,68.363 170.997,67.312C167.174,65.702 164.508,63.614 162.998,61.049C162.249,59.776 161.686,58.361 161.309,56.804C156.639,60.193 153.077,62.589 150.622,63.992C145.289,67.01 140.46,68.519 136.134,68.519C133.705,68.519 131.745,68.363 129.493,67.312C125.669,65.702 123.003,63.614 121.493,61.049C120.582,59.499 119.946,57.739 119.585,55.767C118.535,56.499 116.304,58.083 112.891,60.521C109.772,62.734 107.206,64.293 105.194,65.199C100.163,67.413 94.63,68.519 88.592,68.519C84.568,68.519 80.996,68.041 77.877,67.086C74.758,66.129 71.89,64.444 69.274,62.029C68.361,61.212 67.556,60.337 66.861,59.404ZM97.195,31.845C97.296,31.442 97.346,30.838 97.346,30.034C97.346,27.418 96.239,26.11 94.026,26.11C93.724,26.11 93.171,26.211 92.365,26.411C89.347,27.116 86.983,29.027 85.272,32.147C83.562,35.266 82.706,38.536 82.706,41.957C86.932,40.85 90.001,39.743 91.913,38.636C95.032,36.926 96.793,34.662 97.195,31.845ZM118.023,32.297L121.041,20.374L127.229,20.073L133.115,3.924L155.452,-0L149.113,19.016L159.225,18.564L156.508,29.883C143.684,30.749 130.854,31.543 118.023,32.297ZM159.527,32.297L162.545,20.374L168.733,20.073L174.619,3.924L196.955,-0L190.617,19.016L200.729,18.564L198.012,29.883C185.146,30.752 172.225,31.551 159.527,32.297ZM234.082,31.845C234.183,31.442 234.234,30.838 234.234,30.034C234.234,27.418 233.127,26.11 230.914,26.11C230.612,26.11 230.059,26.211 229.254,26.411C226.235,27.116 223.87,29.027 222.16,32.147C220.45,35.266 219.594,38.536 219.594,41.957C223.82,40.85 226.889,39.743 228.801,38.636C231.92,36.926 233.68,34.662 234.082,31.845Z" style="fill:#fff;fill-rule:nonzero;"/>
                            <path d="M13.041,104.763L15.367,104.763L15.367,96.701L22.08,96.701L22.08,94.798L15.367,94.798L15.367,88.877L22.635,88.877L22.635,86.948L13.041,86.948L13.041,104.763ZM36.587,104.763L38.887,104.763L38.887,97.045L41.054,97.045C41.746,97.067 42.327,97.195 42.798,97.433C43.265,97.666 43.649,98.036 43.948,98.534C44.243,99.036 44.477,99.693 44.649,100.508C44.887,101.622 45.107,102.543 45.301,103.27C45.495,103.997 45.666,104.495 45.812,104.763L48.191,104.763C48.01,104.415 47.807,103.825 47.583,102.992C47.362,102.16 47.107,101.12 46.816,99.873C46.609,98.944 46.292,98.173 45.869,97.561C45.446,96.948 44.895,96.521 44.226,96.278L44.226,96.199C44.851,95.988 45.411,95.675 45.913,95.261C46.411,94.851 46.812,94.344 47.102,93.745C47.398,93.142 47.547,92.455 47.556,91.679C47.552,90.974 47.429,90.331 47.182,89.745C46.939,89.164 46.596,88.67 46.155,88.269C45.622,87.78 44.935,87.415 44.094,87.177C43.257,86.935 42.226,86.816 41.001,86.816C40.477,86.816 39.953,86.833 39.424,86.864C38.895,86.895 38.384,86.939 37.899,86.996C37.415,87.049 36.979,87.115 36.587,87.185L36.587,104.763ZM38.887,88.798C39.085,88.745 39.375,88.701 39.754,88.666C40.137,88.631 40.605,88.613 41.16,88.613C41.975,88.608 42.688,88.728 43.305,88.957C43.917,89.19 44.393,89.551 44.737,90.036C45.076,90.525 45.252,91.151 45.257,91.917C45.252,92.6 45.089,93.195 44.763,93.697C44.437,94.203 43.975,94.596 43.375,94.878C42.772,95.155 42.063,95.296 41.239,95.301L38.887,95.301L38.887,88.798ZM70.786,99.16L72.689,104.763L75.147,104.763L69.067,86.948L66.318,86.948L60.239,104.763L62.618,104.763L64.468,99.16L70.786,99.16ZM64.944,97.362L66.688,92.208C66.874,91.662 67.037,91.12 67.177,90.573C67.323,90.031 67.459,89.499 67.587,88.983L67.64,88.983C67.768,89.494 67.909,90.023 68.054,90.56C68.2,91.098 68.371,91.653 68.565,92.234L70.336,97.362L64.944,97.362ZM103.742,104.763L106.015,104.763L104.905,86.948L101.971,86.948L98.799,95.565C98.402,96.684 98.046,97.741 97.728,98.732C97.411,99.724 97.134,100.671 96.896,101.565L96.843,101.565C96.605,100.644 96.341,99.684 96.045,98.693C95.746,97.701 95.416,96.657 95.045,95.565L92.006,86.948L89.072,86.948L87.829,104.763L90.023,104.763L90.499,97.124C90.552,96.217 90.6,95.305 90.649,94.375C90.693,93.45 90.732,92.551 90.768,91.675C90.799,90.802 90.825,89.992 90.843,89.247L90.895,89.247C91.147,90.3 91.442,91.402 91.786,92.551C92.125,93.697 92.508,94.904 92.931,96.173L95.839,104.658L97.583,104.658L100.729,96.014C101.178,94.785 101.583,93.609 101.953,92.481C102.319,91.353 102.663,90.278 102.975,89.247L103.028,89.247C103.028,89.798 103.037,90.393 103.055,91.023C103.072,91.657 103.094,92.309 103.125,92.983C103.152,93.657 103.183,94.327 103.218,94.996C103.253,95.666 103.284,96.314 103.319,96.939L103.742,104.763ZM129.403,94.507L122.504,94.507L122.504,88.877L129.826,88.877L129.826,86.948L120.178,86.948L120.178,104.763L130.222,104.763L130.222,102.834L122.504,102.834L122.504,96.411L129.403,96.411L129.403,94.507ZM149.407,104.763L151.945,95.486C152.165,94.723 152.359,94.01 152.531,93.349C152.703,92.688 152.852,92.054 152.98,91.454C153.112,90.851 153.223,90.256 153.319,89.67L153.372,89.67C153.452,90.265 153.544,90.864 153.659,91.472C153.769,92.076 153.897,92.71 154.042,93.366C154.187,94.023 154.35,94.732 154.535,95.486L156.782,104.763L159.187,104.763L164.236,86.948L161.883,86.948L159.531,95.935C159.254,97.041 158.989,98.098 158.747,99.116C158.505,100.129 158.289,101.12 158.104,102.094L158.051,102.094C157.914,101.151 157.738,100.164 157.518,99.129C157.302,98.098 157.064,97.049 156.809,95.988L154.641,86.948L152.236,86.948L149.857,95.935C149.548,97.089 149.266,98.186 149.011,99.226C148.755,100.265 148.553,101.23 148.403,102.12L148.35,102.12C148.244,101.543 148.121,100.922 147.984,100.252C147.848,99.583 147.698,98.887 147.535,98.164C147.376,97.437 147.205,96.706 147.029,95.961L144.914,86.948L142.482,86.948L147.002,104.763L149.407,104.763ZM184.294,86.63C183.1,86.635 181.998,86.855 180.998,87.296C179.994,87.736 179.126,88.366 178.386,89.186C177.646,90.01 177.073,90.992 176.668,92.137C176.258,93.287 176.051,94.569 176.047,95.988C176.051,97.34 176.245,98.569 176.632,99.679C177.02,100.785 177.566,101.741 178.276,102.543C178.985,103.345 179.831,103.961 180.809,104.398C181.787,104.829 182.866,105.05 184.056,105.054C184.968,105.054 185.84,104.922 186.664,104.662C187.487,104.407 188.245,104.019 188.933,103.508C189.62,102.997 190.219,102.367 190.725,101.609C191.232,100.856 191.629,99.983 191.906,98.992C192.184,98.001 192.325,96.891 192.329,95.67C192.325,94.336 192.135,93.12 191.761,92.018C191.386,90.913 190.849,89.961 190.144,89.159C189.444,88.353 188.598,87.732 187.611,87.296C186.629,86.859 185.518,86.635 184.294,86.63ZM184.214,88.507C184.981,88.512 185.668,88.648 186.276,88.921C186.888,89.19 187.417,89.565 187.871,90.036C188.325,90.512 188.703,91.058 189.003,91.675C189.302,92.292 189.527,92.952 189.677,93.648C189.822,94.349 189.897,95.058 189.897,95.776C189.897,96.794 189.77,97.75 189.518,98.64C189.267,99.53 188.897,100.314 188.413,100.992C187.924,101.671 187.329,102.204 186.62,102.591C185.91,102.975 185.1,103.169 184.188,103.177C183.457,103.173 182.791,103.045 182.192,102.794C181.593,102.539 181.064,102.186 180.602,101.732C180.139,101.279 179.751,100.746 179.439,100.142C179.122,99.534 178.884,98.873 178.721,98.16C178.562,97.446 178.478,96.706 178.478,95.935C178.478,95.155 178.553,94.397 178.707,93.671C178.857,92.943 179.086,92.265 179.395,91.64C179.699,91.018 180.082,90.472 180.54,90.001C180.998,89.534 181.536,89.168 182.148,88.908C182.76,88.644 183.448,88.512 184.214,88.507ZM205.963,104.763L208.263,104.763L208.263,97.045L210.43,97.045C211.122,97.067 211.704,97.195 212.175,97.433C212.642,97.666 213.025,98.036 213.325,98.534C213.62,99.036 213.854,99.693 214.025,100.508C214.263,101.622 214.483,102.543 214.677,103.27C214.871,103.997 215.043,104.495 215.188,104.763L217.567,104.763C217.387,104.415 217.184,103.825 216.96,102.992C216.739,102.16 216.484,101.12 216.193,99.873C215.986,98.944 215.669,98.173 215.246,97.561C214.823,96.948 214.272,96.521 213.602,96.278L213.602,96.199C214.228,95.988 214.788,95.675 215.29,95.261C215.787,94.851 216.189,94.344 216.479,93.745C216.774,93.142 216.924,92.455 216.933,91.679C216.929,90.974 216.805,90.331 216.558,89.745C216.316,89.164 215.973,88.67 215.532,88.269C214.999,87.78 214.312,87.415 213.47,87.177C212.633,86.935 211.602,86.816 210.378,86.816C209.853,86.816 209.329,86.833 208.801,86.864C208.272,86.895 207.761,86.939 207.276,86.996C206.792,87.049 206.355,87.115 205.963,87.185L205.963,104.763ZM208.263,88.798C208.461,88.745 208.752,88.701 209.131,88.666C209.514,88.631 209.981,88.613 210.536,88.613C211.351,88.608 212.065,88.728 212.682,88.957C213.294,89.19 213.77,89.551 214.114,90.036C214.453,90.525 214.629,91.151 214.633,91.917C214.629,92.6 214.466,93.195 214.14,93.697C213.814,94.203 213.351,94.596 212.752,94.878C212.149,95.155 211.439,95.296 210.616,95.301L208.263,95.301L208.263,88.798ZM230.831,104.763L233.131,104.763L233.131,97.97L234.849,96.014L240.691,104.763L243.413,104.763L236.462,94.507L242.911,86.948L240.057,86.948L234.611,93.635C234.387,93.926 234.158,94.23 233.92,94.547C233.686,94.864 233.448,95.195 233.21,95.538L233.131,95.538L233.131,86.948L230.831,86.948L230.831,104.763Z" style="fill:#fff;fill-rule:nonzero;"/>
                        </g>
                    </g>
                </g>
            </g>
        </g>
    </g>
</svg>
