<?xml version="1.0" encoding="UTF-8" standalone="no"?>
<!DOCTYPE svg PUBLIC "-//W3C//DTD SVG 1.1//EN" "http://www.w3.org/Graphics/SVG/1.1/DTD/svg11.dtd">
<svg width="100%" height="100%" viewBox="0 0 512 512" version="1.1" xmlns="http://www.w3.org/2000/svg" xmlns:xlink="http://www.w3.org/1999/xlink" xml:space="preserve" xmlns:serif="http://www.serif.com/" style="fill-rule:evenodd;clip-rule:evenodd;stroke-linejoin:round;stroke-miterlimit:2;">
    <g transform="matrix(1,0,0,1,-43,-45)">
        <g id="next-js" transform="matrix(2.32458,0,0,2.32458,-318.594,-364.657)">
            <g id="back" transform="matrix(0.430185,0,0,0.430185,125.869,146.545)">
                <path d="M581,191.18C581,123.747 526.253,69 458.82,69L191.18,69C123.747,69 69,123.747 69,191.18L69,458.82C69,526.253 123.747,581 191.18,581L458.82,581C526.253,581 581,526.253 581,458.82L581,191.18Z"/>
            </g>
            <g transform="matrix(0.370679,0,0,0.370679,266.109,285.925)">
                <g transform="matrix(1,0,0,1,-197,-39.5)">
                    <clipPath id="_clip1">
                        <rect x="0" y="0" width="394" height="79"/>
                    </clipPath>
                    <g clip-path="url(#_clip1)">
                        <path d="M261.919,0.033L330.547,0.033L330.547,12.7L303.323,12.7L303.323,79.339L289.71,79.339L289.71,12.7L261.919,12.7L261.919,0.033Z" style="fill:#fff;fill-rule:nonzero;"/>
                        <path d="M149.052,0.033L149.052,12.7L94.042,12.7L94.042,33.077L138.281,33.077L138.281,45.744L94.042,45.744L94.042,66.672L149.052,66.672L149.052,79.339L80.43,79.339L80.43,12.7L80.424,12.7L80.424,0.033L149.052,0.033Z" style="fill:#fff;fill-rule:nonzero;"/>
                        <path d="M183.32,0.066L165.506,0.066L229.312,79.372L247.178,79.372L215.271,39.746L247.127,0.127L229.312,0.154L206.352,28.67L183.32,0.066Z" style="fill:#fff;fill-rule:nonzero;"/>
                        <path d="M201.6,56.715L192.679,45.623L165.455,79.433L183.32,79.433L201.6,56.715Z" style="fill:#fff;fill-rule:nonzero;"/>
                        <path d="M80.907,79.339L17.015,0L0,0L0,79.306L13.612,79.306L13.612,16.952L63.807,79.339L80.907,79.339Z" style="fill:#fff;"/>
                        <path d="M333.607,78.855C332.61,78.855 331.762,78.509 331.052,77.819C330.342,77.128 329.991,76.292 330,75.301C329.991,74.338 330.342,73.511 331.052,72.82C331.762,72.129 332.61,71.784 333.607,71.784C334.566,71.784 335.405,72.129 336.115,72.82C336.835,73.511 337.194,74.338 337.204,75.301C337.194,75.955 337.028,76.555 336.696,77.091C336.355,77.637 335.922,78.064 335.377,78.373C334.842,78.691 334.252,78.855 333.607,78.855Z" style="fill:#fff;fill-rule:nonzero;"/>
                        <path d="M356.84,45.445L362.872,45.445L362.872,68.685C362.863,70.82 362.401,72.647 361.498,74.183C360.585,75.719 359.321,76.891 357.698,77.719C356.084,78.536 354.193,78.955 352.044,78.955C350.079,78.955 348.318,78.6 346.75,77.909C345.182,77.219 343.937,76.183 343.024,74.819C342.101,73.456 341.649,71.757 341.649,69.721L347.691,69.721C347.7,70.611 347.903,71.384 348.29,72.029C348.677,72.674 349.212,73.165 349.895,73.51C350.586,73.856 351.38,74.029 352.274,74.029C353.243,74.029 354.073,73.829 354.746,73.42C355.419,73.02 355.936,72.42 356.296,71.62C356.646,70.83 356.831,69.848 356.84,68.685L356.84,45.445Z" style="fill:#fff;fill-rule:nonzero;"/>
                        <path d="M387.691,54.534C387.544,53.125 386.898,52.025 385.773,51.244C384.638,50.453 383.172,50.062 381.373,50.062C380.11,50.062 379.022,50.253 378.118,50.626C377.214,51.008 376.513,51.516 376.033,52.162C375.554,52.807 375.314,53.543 375.295,54.37C375.295,55.061 375.461,55.661 375.784,56.161C376.107,56.67 376.54,57.097 377.103,57.442C377.656,57.797 378.274,58.087 378.948,58.324C379.63,58.56 380.313,58.76 380.995,58.924L384.14,59.696C385.404,59.987 386.631,60.378 387.802,60.878C388.973,61.368 390.034,61.996 390.965,62.75C391.897,63.504 392.635,64.413 393.179,65.476C393.723,66.54 394,67.785 394,69.221C394,71.157 393.502,72.856 392.496,74.329C391.491,75.792 390.043,76.937 388.143,77.764C386.252,78.582 383.965,79 381.272,79C378.671,79 376.402,78.6 374.493,77.8C372.575,77.01 371.08,75.846 370.001,74.319C368.922,72.793 368.341,70.929 368.258,68.739L374.235,68.739C374.318,69.884 374.687,70.839 375.314,71.611C375.95,72.375 376.78,72.938 377.795,73.32C378.819,73.692 379.962,73.883 381.226,73.883C382.545,73.883 383.707,73.683 384.712,73.292C385.708,72.902 386.492,72.356 387.055,71.647C387.627,70.948 387.913,70.121 387.922,69.175C387.913,68.312 387.654,67.594 387.156,67.03C386.649,66.467 385.948,65.994 385.053,65.613C384.15,65.231 383.098,64.886 381.899,64.586L378.081,63.622C375.323,62.923 373.137,61.859 371.541,60.432C369.937,59.005 369.143,57.115 369.143,54.743C369.143,52.798 369.678,51.089 370.758,49.626C371.827,48.163 373.294,47.027 375.148,46.218C377.011,45.4 379.114,45 381.456,45C383.836,45 385.92,45.4 387.719,46.218C389.517,47.027 390.929,48.154 391.952,49.59C392.976,51.026 393.511,52.671 393.539,54.534L387.691,54.534Z" style="fill:#fff;fill-rule:nonzero;"/>
                    </g>
                </g>
            </g>
        </g>
    </g>
</svg>
