<?xml version="1.0" encoding="UTF-8" standalone="no"?>
<!DOCTYPE svg PUBLIC "-//W3C//DTD SVG 1.1//EN" "http://www.w3.org/Graphics/SVG/1.1/DTD/svg11.dtd">
<svg width="100%" height="100%" viewBox="0 0 512 512" version="1.1" xmlns="http://www.w3.org/2000/svg" xmlns:xlink="http://www.w3.org/1999/xlink" xml:space="preserve" xmlns:serif="http://www.serif.com/" style="fill-rule:evenodd;clip-rule:evenodd;stroke-linejoin:round;stroke-miterlimit:2;">
    <g transform="matrix(1,0,0,1,-43,-44)">
        <g id="nodejs" transform="matrix(1,0,0,1,-1,0)">
            <g id="back" transform="matrix(1,0,0,1,-25,-25)">
                <path d="M581,191.18C581,123.747 526.253,69 458.82,69L191.18,69C123.747,69 69,123.747 69,191.18L69,458.82C69,526.253 123.747,581 191.18,581L458.82,581C526.253,581 581,526.253 581,458.82L581,191.18Z" style="fill:rgb(33,33,33);"/>
            </g>
            <g transform="matrix(1.36608,0,0,1.36608,125.142,102.968)">
                <path d="M128,288.464C124.025,288.464 120.315,287.404 116.87,285.549L81.623,264.613C76.323,261.698 78.973,260.638 80.563,260.108C87.718,257.723 89.043,257.193 96.464,252.952C97.259,252.422 98.319,252.687 99.114,253.217L126.145,269.383C127.205,269.913 128.53,269.913 129.325,269.383L235.064,208.166C236.124,207.636 236.654,206.576 236.654,205.251L236.654,83.081C236.654,81.756 236.124,80.696 235.064,80.166L129.325,19.213C128.265,18.683 126.94,18.683 126.145,19.213L20.406,80.166C19.346,80.696 18.816,82.021 18.816,83.081L18.816,205.251C18.816,206.311 19.346,207.636 20.406,208.166L49.292,224.861C64.928,232.812 74.733,223.536 74.733,214.261L74.733,93.681C74.733,92.091 76.058,90.501 77.913,90.501L91.429,90.501C93.019,90.501 94.609,91.826 94.609,93.681L94.609,214.261C94.609,235.197 83.213,247.387 63.337,247.387C57.242,247.387 52.472,247.387 38.957,240.762L11.13,224.861C4.24,220.886 0,213.466 0,205.516L0,83.346C0,75.395 4.24,67.975 11.13,64L116.87,2.783C123.495,-0.928 132.505,-0.928 139.13,2.783L244.87,64C251.76,67.975 256,75.395 256,83.346L256,205.516C256,213.466 251.76,220.886 244.87,224.861L139.13,286.079C135.685,287.669 131.71,288.464 128,288.464M160.596,204.455C114.219,204.455 104.679,183.255 104.679,165.234C104.679,163.644 106.004,162.054 107.859,162.054L121.64,162.054C123.23,162.054 124.555,163.114 124.555,164.704C126.675,178.749 132.77,185.64 160.861,185.64C183.122,185.64 192.663,180.605 192.663,168.679C192.663,161.789 190.012,156.754 155.296,153.308C126.41,150.393 108.389,144.033 108.389,120.977C108.389,99.511 126.41,86.791 156.621,86.791C190.542,86.791 207.238,98.451 209.358,123.892C209.358,124.687 209.093,125.482 208.563,126.277C208.033,126.807 207.238,127.337 206.443,127.337L192.663,127.337C191.337,127.337 190.012,126.277 189.747,124.952C186.567,110.377 178.352,105.607 156.621,105.607C132.24,105.607 129.325,114.087 129.325,120.447C129.325,128.133 132.77,130.518 165.631,134.758C198.228,138.998 213.598,145.093 213.598,167.884C213.333,191.205 194.253,204.455 160.596,204.455" style="fill:rgb(62,189,11);fill-rule:nonzero;"/>
            </g>
        </g>
    </g>
</svg>
