<?xml version="1.0" encoding="UTF-8" standalone="no"?>
<!DOCTYPE svg PUBLIC "-//W3C//DTD SVG 1.1//EN" "http://www.w3.org/Graphics/SVG/1.1/DTD/svg11.dtd">
<svg width="100%" height="100%" viewBox="0 0 512 513" version="1.1" xmlns="http://www.w3.org/2000/svg" xmlns:xlink="http://www.w3.org/1999/xlink" xml:space="preserve" xmlns:serif="http://www.serif.com/" style="fill-rule:evenodd;clip-rule:evenodd;stroke-linejoin:round;stroke-miterlimit:2;">
    <g transform="matrix(1,0,0,1,-44,-43)">
        <g id="npm" transform="matrix(1,0,0,1,0,-0.5)">
            <g id="back" transform="matrix(1,0,0,1,-25,-25)">
                <path d="M581,191.18C581,123.747 526.253,69 458.82,69L191.18,69C123.747,69 69,123.747 69,191.18L69,458.82C69,526.253 123.747,581 191.18,581L458.82,581C526.253,581 581,526.253 581,458.82L581,191.18Z" style="fill:#c12127;"/>
            </g>
            <g transform="matrix(0.507932,0,0,0.507932,300,306.831)">
                <g transform="matrix(1,0,0,1,-390,-125)">
                    <path d="M240,250L340,250L340,200L440,200L440,0L240,0L240,250ZM340,50L390,50L390,150L340,150L340,50ZM480,0L480,200L580,200L580,50L630,50L630,200L680,200L680,50L730,50L730,200L780,200L780,0L480,0ZM0,200L100,200L100,50L150,50L150,200L200,200L200,0L0,0L0,200Z" style="fill:#fff;fill-rule:nonzero;"/>
                </g>
            </g>
        </g>
    </g>
</svg>
