<?xml version="1.0" encoding="UTF-8" standalone="no"?>
<!DOCTYPE svg PUBLIC "-//W3C//DTD SVG 1.1//EN" "http://www.w3.org/Graphics/SVG/1.1/DTD/svg11.dtd">
<svg width="100%" height="100%" viewBox="0 0 512 512" version="1.1" xmlns="http://www.w3.org/2000/svg" xmlns:xlink="http://www.w3.org/1999/xlink" xml:space="preserve" xmlns:serif="http://www.serif.com/" style="fill-rule:evenodd;clip-rule:evenodd;stroke-linejoin:round;stroke-miterlimit:2;">
    <g transform="matrix(1,0,0,1,-44,-45)">
        <g transform="matrix(1,0,0,1,0,1)">
            <g id="opensuse">
                <g id="back" transform="matrix(1,0,0,1,-25,-25)">
                    <path d="M581,191.18C581,123.747 526.253,69 458.82,69L191.18,69C123.747,69 69,123.747 69,191.18L69,458.82C69,526.253 123.747,581 191.18,581L458.82,581C526.253,581 581,526.253 581,458.82L581,191.18Z" style="fill:#72ba24;"/>
                </g>
                <g transform="matrix(0.9901,0,0,0.9901,300,319.999)">
                    <g transform="matrix(1,0,0,1,-200,-125.2)">
                        <g transform="matrix(1.25,0,0,-1.25,0,250.4)">
                            <g>
                                <clipPath id="_clip1">
                                    <rect x="0" y="0" width="320" height="200.3"/>
                                </clipPath>
                                <g clip-path="url(#_clip1)">
                                    <g transform="matrix(1,0,0,1,262.7,162.7)">
                                        <path d="M0,0C0.175,4.73 2.156,9.12 5.614,12.34C9.074,15.571 13.589,17.24 18.324,17.09C28.085,16.741 35.754,8.501 35.424,-1.25C35.24,-5.98 33.26,-10.37 29.81,-13.58C26.35,-16.83 21.846,-18.5 17.09,-18.34C7.341,-17.981 -0.32,-9.76 0.01,0L0,0ZM47.35,-17.44C48.155,-16.908 48.746,-16.468 48.995,-16.37L49.264,-15.951C48.583,-11.671 42.204,9.079 37.384,14.069C36.055,15.429 34.99,16.769 32.835,18.03C15.375,28.2 -26.025,34.34 -27.965,34.62L-28.295,34.529L-28.419,34.229C-28.419,34.229 -28.579,25.649 -28.603,24.69C-32.832,26.111 -63.573,36.04 -92.393,37.04C-116.833,37.899 -152.423,41.06 -199.593,12.06L-200.988,11.192C-223.178,-2.648 -238.498,-19.718 -246.508,-39.548C-249.02,-45.788 -252.398,-59.868 -249.05,-73.118C-247.608,-78.909 -244.919,-84.728 -241.294,-89.938C-233.1,-101.708 -219.354,-109.518 -204.544,-110.838C-183.644,-112.708 -167.814,-103.319 -162.184,-85.738C-158.313,-73.608 -162.184,-55.808 -177.024,-46.728C-189.094,-39.337 -202.074,-41.017 -209.604,-45.998C-216.136,-50.329 -219.834,-57.058 -219.774,-64.448C-219.623,-77.558 -208.334,-84.528 -200.214,-84.548C-197.855,-84.548 -195.486,-84.138 -192.815,-83.268C-191.864,-82.978 -190.97,-82.619 -189.984,-82.009L-189.675,-81.828L-189.481,-81.698L-189.546,-81.737C-187.695,-80.476 -186.582,-78.425 -186.582,-76.226C-186.582,-75.626 -186.666,-75.018 -186.838,-74.406C-187.797,-71.086 -191.077,-69.077 -194.476,-69.696L-194.935,-69.805L-195.556,-69.995L-196.457,-70.305C-198.327,-70.765 -199.727,-70.805 -200.026,-70.815C-200.977,-70.754 -205.651,-69.354 -205.651,-64.235L-205.651,-64.165C-205.651,-62.285 -204.897,-60.966 -204.481,-60.245C-203.027,-57.965 -199.046,-55.727 -193.671,-56.195C-186.612,-56.806 -181.521,-60.426 -178.151,-67.255C-175.022,-73.604 -175.841,-81.415 -180.261,-87.135C-184.651,-92.804 -192.461,-95.213 -202.861,-94.094C-213.341,-92.935 -222.201,-86.904 -227.161,-77.514C-232.017,-68.336 -232.282,-57.454 -227.846,-49.094C-217.236,-29.064 -197.196,-29.274 -186.206,-31.174C-169.946,-33.995 -151.446,-48.994 -144.886,-66.314C-143.826,-69.075 -143.286,-71.263 -142.814,-73.265L-142.106,-76.255L-123.736,-85.224L-123.496,-85.405L-123.05,-85.364L-122.969,-84.835C-123.083,-84.424 -123.35,-84.046 -123.774,-78.905C-124.123,-74.343 -124.834,-61.855 -118.546,-55.665C-116.105,-53.246 -112.385,-51.087 -109.447,-50.396C-97.407,-47.455 -83.287,-49.484 -69.937,-64.936C-63.026,-72.917 -59.657,-76.556 -57.967,-78.186L-57.377,-78.718L-56.683,-79.237C-56.129,-79.538 -33.723,-89.857 -33.723,-89.857L-33.262,-89.747L-33.253,-89.268C-33.402,-89.098 -47.453,-70.938 -44.953,-55.988C-42.984,-44.078 -33.503,-45.158 -20.393,-46.638C-16.113,-47.138 -11.241,-47.698 -6.193,-47.81C7.887,-47.899 23.057,-45.299 32.407,-41.209C38.456,-38.579 42.316,-36.829 44.737,-34.63C45.607,-33.909 46.057,-32.739 46.528,-31.48L46.857,-30.649C47.248,-29.628 47.824,-27.478 48.076,-26.299C48.178,-25.78 48.238,-25.231 47.867,-24.94L46.573,-25.18C42.467,-27.651 32.203,-32.33 22.613,-32.53C10.703,-32.771 -13.287,-20.55 -15.787,-19.25L-16.028,-18.971C-16.617,-17.531 -20.218,-9.022 -20.988,-7.221C-3.718,-18.601 10.602,-24.891 21.572,-25.861C33.782,-26.948 43.292,-20.287 47.362,-17.439L47.35,-17.44ZM20.2,-1.64C17.169,-1.64 14.721,-0 14.721,2.01C14.721,4.039 17.169,5.67 20.2,5.67C23.231,5.67 25.686,4.039 25.686,2.01C25.684,0 23.229,-1.64 20.2,-1.64M18.179,11.87C14.868,11.989 11.729,10.819 9.329,8.569C6.93,6.319 5.515,3.271 5.415,-0.03C5.185,-6.851 10.526,-12.59 17.335,-12.84C20.644,-12.94 23.799,-11.77 26.213,-9.52C28.622,-7.259 30.008,-4.209 30.113,-0.921C30.343,5.898 25.004,11.629 18.183,11.869L18.179,11.87Z" style="fill:#fff;fill-rule:nonzero;"/>
                                    </g>
                                    <g transform="matrix(1,0,0,1,134,60.29)">
                                        <path d="M0,0C-7.784,0 -12.06,-6.58 -12.06,-11.13L-12.06,-16.97C-12.06,-23.67 -6.586,-27.82 -1.51,-27.82L16.31,-27.82C18.555,-27.82 19.025,-29.29 19.025,-30.53L19.025,-34.299C19.025,-34.699 18.944,-38.319 16.31,-38.319L-7.99,-38.319C-10.405,-38.319 -12.151,-39.999 -12.151,-42.299L-12.151,-43.34C-12.151,-45.631 -10.405,-47.301 -7.99,-47.301L17.63,-47.301C24.328,-47.301 28.65,-42.641 28.65,-35.421L28.65,-29.119C28.65,-22.34 23.78,-19.31 18.944,-19.31L1.414,-19.31C-1.226,-19.31 -2.422,-17.33 -2.422,-15.93L-2.422,-12.45C-2.422,-10.26 -0.957,-8.99 1.603,-8.99L21.013,-8.99C23.393,-8.99 25.184,-7.28 25.184,-5.019L25.184,-3.979C25.184,-1.71 23.363,0.002 20.933,0.002L0.013,0.002L0,0Z" style="fill:#fff;fill-rule:nonzero;"/>
                                    </g>
                                    <g transform="matrix(1,0,0,1,206.8,60.29)">
                                        <path d="M0,0C-2.301,0 -4.155,-1.87 -4.155,-4.171L-4.155,-34.011C-4.155,-36.402 -6.105,-38.322 -8.466,-38.322L-22.006,-38.322C-24.375,-38.322 -26.315,-36.402 -26.315,-34.011L-26.315,-4.171C-26.315,-1.87 -28.185,-0 -30.484,-0L-31.794,-0C-34.129,-0 -35.965,-1.842 -35.965,-4.171L-35.965,-35.141C-35.965,-42.351 -30.291,-47.581 -22.475,-47.581L-7.995,-47.581C-0.19,-47.581 5.485,-42.352 5.485,-35.141L5.485,-4.171C5.485,-1.842 3.656,-0 1.325,-0L0,0Z" style="fill:#fff;fill-rule:nonzero;"/>
                                    </g>
                                    <g transform="matrix(1,0,0,1,232.8,60.29)">
                                        <path d="M0,0C-7.78,0 -12.07,-6.58 -12.07,-11.13L-12.07,-16.97C-12.07,-23.67 -6.585,-27.82 -1.51,-27.82L16.3,-27.82C18.548,-27.82 19.02,-29.29 19.02,-30.53L19.02,-34.299C19.02,-34.699 18.939,-38.319 16.3,-38.319L-8.01,-38.319C-10.414,-38.319 -12.17,-39.999 -12.17,-42.299L-12.17,-43.34C-12.17,-45.631 -10.414,-47.301 -8.01,-47.301L17.62,-47.301C24.32,-47.301 28.66,-42.641 28.66,-35.421L28.66,-29.119C28.66,-22.34 23.776,-19.31 18.94,-19.31L1.41,-19.31C-1.236,-19.31 -2.429,-17.33 -2.429,-15.93L-2.429,-12.45C-2.429,-10.26 -0.965,-8.99 1.596,-8.99L21.016,-8.99C23.39,-8.99 25.174,-7.28 25.174,-5.019L25.174,-3.979C25.174,-1.71 23.355,0.002 20.914,0.002L0.004,0.002L0,0Z" style="fill:#fff;fill-rule:nonzero;"/>
                                    </g>
                                    <g transform="matrix(1,0,0,1,273.7,60.29)">
                                        <path d="M0,0C-2.31,0 -4.055,-1.712 -4.055,-3.981L-4.055,-43.341C-4.055,-45.6 -2.35,-47.301 -0.091,-47.301L31.269,-47.301C33.684,-47.301 35.429,-45.631 35.429,-43.341L35.429,-42.299C35.429,-39.999 33.684,-38.319 31.269,-38.319L5.579,-38.319L5.579,-28.299L24.399,-28.299C26.809,-28.299 28.56,-26.609 28.56,-24.318L28.56,-23.278C28.56,-20.977 26.809,-19.307 24.399,-19.307L5.579,-19.307L5.579,-8.987L29.959,-8.987C32.365,-8.987 34.119,-7.328 34.119,-5.016L34.119,-3.976C34.119,-1.675 32.365,0.005 29.959,0.005L-0.011,0.005L-0.011,-0L0,0Z" style="fill:#fff;fill-rule:nonzero;"/>
                                    </g>
                                    <g transform="matrix(1,0,0,1,5.053,20.49)">
                                        <path d="M0,0L0,13.55C0,15.139 1.305,16.439 2.901,16.439L10.379,16.439C11.94,16.439 13.27,15.11 13.27,13.55L13.27,0C13.27,-1.6 11.975,-2.899 10.379,-2.899L2.845,-2.899C1.245,-2.899 -0,-1.628 -0,0M2.077,21.08C-1.854,21.08 -5.053,18.021 -5.053,14.25L-5.053,-0.59C-5.053,-4.421 -1.957,-7.541 1.838,-7.541L11.437,-7.541C15.232,-7.541 18.328,-4.421 18.328,-0.59L18.328,14.25C18.328,18.019 15.127,21.08 11.198,21.08L2.076,21.08L2.077,21.08Z" style="fill:#fff;fill-rule:nonzero;"/>
                                    </g>
                                    <g transform="matrix(1,0,0,1,35.51,20.78)">
                                        <path d="M0,0L0,12.96C0,14.751 1.4,16.149 3.188,16.149L10.199,16.149C11.989,16.149 13.387,14.749 13.387,12.96L13.387,0C13.387,-1.759 11.952,-3.188 10.199,-3.188L3.188,-3.188C1.433,-3.188 -0,-1.759 -0,0ZM9.602,20.96C6.835,20.96 4.748,19.971 3.073,19.161C2.052,18.671 1.168,18.249 0.482,18.249C0.172,18.249 -0.093,18.389 -0.233,18.619L-0.872,19.839C-1.031,20.16 -1.671,20.788 -2.462,20.788L-3.411,20.788C-4.323,20.788 -5.053,19.969 -5.053,18.97L-5.053,-18.67C-5.053,-19.85 -4.122,-20.78 -2.943,-20.78L-2.122,-20.78C-0.952,-20.78 -0.002,-19.84 -0.002,-18.67L-0.002,-6.18C-0.002,-5.81 0.239,-5.41 0.482,-5.41C1.168,-5.41 2.052,-5.812 3.073,-6.28C4.748,-7.05 6.835,-7.999 9.602,-7.999L10.488,-7.999C15.388,-7.999 18.437,-5.198 18.437,-0.699L18.437,13.671C18.437,18.101 15.323,20.961 10.488,20.961L9.602,20.961L9.602,20.963L9.602,20.96Z" style="fill:#fff;fill-rule:nonzero;"/>
                                    </g>
                                    <g transform="matrix(1,0,0,1,66.07,34.09)">
                                        <path d="M0,0C0,1.591 1.251,2.839 2.843,2.839L10.553,2.839C12.142,2.839 13.382,1.591 13.382,0L13.382,-4.599L0.002,-4.599C0.004,-3.999 0.004,0 0.004,0L0,0ZM2.075,7.48C-1.856,7.48 -5.046,4.422 -5.046,0.651L-5.046,-14.079C-5.046,-17.899 -1.945,-21.138 1.714,-21.138L11.617,-21.138C12.842,-21.138 13.727,-20.29 13.727,-19.137L13.727,-18.488C13.727,-17.329 12.842,-16.498 11.617,-16.498L3.481,-16.498C1.201,-16.498 -0.002,-15.377 -0.002,-13.246L-0.002,-8.937L14.678,-8.937C17.039,-8.937 18.435,-7.497 18.435,-5.057L18.435,0.653C18.435,4.422 15.239,7.483 11.325,7.483L2.077,7.483L2.077,7.479L2.075,7.48Z" style="fill:#fff;fill-rule:nonzero;"/>
                                    </g>
                                    <g transform="matrix(1,0,0,1,104.9,41.74)">
                                        <path d="M0,0C-2.759,0 -4.841,-0.989 -6.521,-1.791C-7.566,-2.282 -8.459,-2.711 -9.188,-2.711C-9.509,-2.711 -9.639,-2.671 -9.888,-2.24L-10.469,-1.18C-10.802,-0.51 -11.368,-0.172 -12.133,-0.172L-12.949,-0.172C-13.934,-0.172 -14.653,-0.94 -14.653,-1.991L-14.653,-26.681C-14.653,-27.85 -13.729,-28.79 -12.538,-28.79L-11.723,-28.79C-10.553,-28.79 -9.599,-27.84 -9.599,-26.681L-9.599,-8.001C-9.599,-6.251 -8.169,-4.813 -6.419,-4.813L0.595,-4.813C2.35,-4.813 3.78,-6.251 3.78,-8.001L3.78,-26.681C3.78,-27.85 4.709,-28.79 5.89,-28.79L6.714,-28.79C7.884,-28.79 8.834,-27.84 8.834,-26.681L8.834,-7.291C8.834,-2.86 5.719,0 0.88,0L0,0Z" style="fill:#fff;fill-rule:nonzero;"/>
                                    </g>
                                    <g transform="matrix(1,0,0,1,315.4,18.75)">
                                        <path d="M0,0L0.503,0C1.077,0 1.563,0.207 1.563,0.747C1.563,1.129 1.286,1.512 0.503,1.512C0.277,1.512 0.121,1.494 0,1.475L0,0ZM0.002,-2.415L-0.695,-2.415L-0.695,1.943C-0.33,1.996 0.018,2.048 0.538,2.048C1.2,2.048 1.633,1.91 1.892,1.719C2.154,1.529 2.294,1.235 2.294,0.815C2.294,0.244 1.912,-0.104 1.443,-0.244L1.443,-0.281C1.826,-0.349 2.085,-0.696 2.173,-1.34C2.278,-2.019 2.38,-2.278 2.45,-2.417L1.721,-2.417C1.615,-2.278 1.512,-1.878 1.426,-1.305C1.321,-0.751 1.043,-0.54 0.488,-0.54L0.002,-0.54L0.002,-2.415ZM0.73,3.16C-0.989,3.16 -2.396,1.684 -2.396,-0.14C-2.396,-1.999 -0.989,-3.457 0.747,-3.457C2.483,-3.476 3.873,-1.999 3.873,-0.158C3.873,1.684 2.483,3.16 0.747,3.16L0.73,3.16ZM0.747,3.767C2.883,3.767 4.585,2.031 4.585,-0.142C4.585,-2.347 2.882,-4.065 0.73,-4.065C-1.407,-4.065 -3.143,-2.347 -3.143,-0.142C-3.143,2.029 -1.407,3.767 0.73,3.767L0.747,3.767Z" style="fill:#fff;fill-rule:nonzero;"/>
                                    </g>
                                </g>
                            </g>
                        </g>
                    </g>
                </g>
            </g>
        </g>
    </g>
</svg>
