<?xml version="1.0" encoding="UTF-8" standalone="no"?>
<!DOCTYPE svg PUBLIC "-//W3C//DTD SVG 1.1//EN" "http://www.w3.org/Graphics/SVG/1.1/DTD/svg11.dtd">
<svg width="100%" height="100%" viewBox="0 0 512 512" version="1.1" xmlns="http://www.w3.org/2000/svg" xmlns:xlink="http://www.w3.org/1999/xlink" xml:space="preserve" xmlns:serif="http://www.serif.com/" style="fill-rule:evenodd;clip-rule:evenodd;stroke-linejoin:round;stroke-miterlimit:2;">
    <g transform="matrix(1,0,0,1,-44,-44)">
        <g id="parcel" transform="matrix(1,0,0,1,0,2)">
            <g id="back" transform="matrix(1,0,0,1,-25,-27)">
                <path d="M581,191.18C581,123.747 526.253,69 458.82,69L191.18,69C123.747,69 69,123.747 69,191.18L69,458.82C69,526.253 123.747,581 191.18,581L458.82,581C526.253,581 581,526.253 581,458.82L581,191.18Z" style="fill:rgb(80,39,195);"/>
            </g>
            <g transform="matrix(0.303475,0,0,0.303475,300,256.723)">
                <g transform="matrix(1,0,0,1,-512,-512)">
                    <g transform="matrix(3.87427,0,0,3.87427,16.093,139.116)">
                        <path d="M140.515,191.333L210.772,146.905C211.032,146.745 211.372,146.815 211.532,147.075C211.692,147.335 211.622,147.675 211.362,147.835L140.875,192.403C140.785,192.463 140.685,192.493 140.585,192.493L140.515,191.333Z" style="fill:url(#_Linear1);fill-rule:nonzero;"/>
                    </g>
                    <g transform="matrix(3.87427,0,0,3.87427,16.093,139.116)">
                        <path d="M140.585,192.493C140.525,192.493 140.455,192.483 140.395,192.463L44.608,156.764C44.394,156.685 44.251,156.48 44.251,156.252C44.251,156.184 44.263,156.117 44.288,156.054C44.398,155.764 44.708,155.624 44.998,155.734L140.535,191.333L140.585,192.493Z" style="fill:url(#_Linear2);fill-rule:nonzero;"/>
                    </g>
                    <g transform="matrix(3.87427,0,0,3.87427,16.093,139.116)">
                        <path d="M241.1,21.81L230.041,40.119L185.613,59.009L183.143,60.059L143.214,97.397C142.444,98.167 141.924,99.267 141.834,99.877C141.794,100.087 141.614,99.997 141.444,99.987C141.264,99.977 141.014,100.047 140.994,99.827C140.974,99.027 140.884,98.137 139.594,97.337L119.585,84.377L104.995,74.917L63.898,64.378L29.498,55.558L7.71,21.71L8.04,21.33L8.06,21.3L89.857,0.04C89.977,0 89.997,0.02 90.047,0.09L117.945,41.879L118.495,42.699C119.095,43.579 119.155,44.119 119.155,44.509L119.665,44.509L119.665,44.419C119.665,44.379 119.665,44.329 119.675,44.279C119.675,44.249 119.685,44.219 119.685,44.179C119.695,44.139 119.695,44.099 119.705,44.059C119.715,44.019 119.715,43.979 119.725,43.929C119.755,43.789 119.795,43.629 119.835,43.469C119.845,43.419 119.865,43.369 119.875,43.329C119.925,43.169 119.975,42.999 120.035,42.839C120.065,42.779 120.085,42.709 120.115,42.649C120.195,42.449 120.275,42.269 120.365,42.109C120.445,41.949 120.525,41.819 120.605,41.709L145.755,5.13C145.815,5.04 145.845,5 145.975,5.02L240.941,21.36L241.1,21.81Z" style="fill:rgb(232,182,127);fill-rule:nonzero;"/>
                    </g>
                    <g transform="matrix(3.87427,0,0,3.87427,16.093,139.116)">
                        <path d="M119.585,84.367L119.575,84.367L104.995,74.917L63.898,64.378L119.155,44.508L119.305,44.218L119.305,44.508L119.585,84.367Z" style="fill:url(#_Linear3);fill-rule:nonzero;"/>
                    </g>
                    <g transform="matrix(3.87427,0,0,3.87427,16.093,139.116)">
                        <path d="M119.155,44.509L63.898,64.368L58.918,63.088L29.498,55.538L7.71,21.69L8.06,21.28L89.857,0.02C89.977,-0.02 89.997,0 90.047,0.07L117.945,41.859L118.495,42.679C119.095,43.579 119.155,44.119 119.155,44.509" style="fill:url(#_Linear4);fill-rule:nonzero;"/>
                    </g>
                    <g transform="matrix(3.87427,0,0,3.87427,16.093,139.116)">
                        <path d="M119.35,46.619L67.102,65.398L58.952,63.308L117.98,42.088L118.53,42.908C119.13,43.788 119.19,44.328 119.19,44.718L119.34,44.718L119.35,46.618L119.35,46.619Z" style="fill:url(#_Linear5);fill-rule:nonzero;"/>
                    </g>
                    <g transform="matrix(3.87427,0,0,3.87427,16.093,139.116)">
                        <path d="M30.249,55.738L29.509,55.548L7.719,21.7L8.049,21.32L30.249,55.738Z" style="fill:rgb(210,166,121);fill-rule:nonzero;"/>
                    </g>
                    <g transform="matrix(3.87427,0,0,3.87427,16.093,139.116)">
                        <path d="M185.613,59.008L183.143,60.058L143.214,97.397C142.444,98.167 141.924,99.267 141.834,99.877C141.794,100.087 141.614,99.997 141.444,99.987C141.264,99.977 141.014,100.047 140.994,99.827C140.974,99.027 140.884,98.137 139.594,97.337L119.585,84.367L119.315,44.519L119.315,44.229L119.685,44.519L185.613,59.009L185.613,59.008Z" style="fill:url(#_Linear6);fill-rule:nonzero;"/>
                    </g>
                    <g transform="matrix(3.87427,0,0,3.87427,16.093,139.116)">
                        <path d="M241.1,21.81L230.041,40.119L189.603,57.309L185.623,58.999L119.675,44.509C119.635,43.999 119.985,42.839 120.365,42.099C120.445,41.939 120.525,41.809 120.605,41.699L145.755,5.12C145.815,5.03 145.845,4.99 145.975,5.01L240.941,21.35L241.101,21.81L241.1,21.81Z" style="fill:url(#_Linear7);fill-rule:nonzero;"/>
                    </g>
                    <g transform="matrix(3.87427,0,0,3.87427,16.093,139.116)">
                        <path d="M189.603,57.308L183.153,60.048L182.323,60.848L119.305,46.918L119.595,44.498L119.675,44.498C119.635,43.988 119.985,42.828 120.365,42.088L189.603,57.308Z" style="fill:url(#_Linear8);fill-rule:nonzero;"/>
                    </g>
                    <g transform="matrix(3.87427,0,0,3.87427,16.093,139.116)">
                        <path d="M121.055,44.809L121.055,85.317L119.585,84.367L119.575,84.367L117.645,83.107L117.645,45.05L119.155,44.51L119.665,44.51L121.055,44.809Z" style="fill:url(#_Linear9);fill-rule:nonzero;"/>
                    </g>
                    <g transform="matrix(3.87427,0,0,3.87427,16.093,139.116)">
                        <path d="M140.195,191.843L44.328,156.074C43.788,155.844 43.708,155.334 43.678,154.704C43.678,154.704 39.558,73.008 39.548,72.998C39.538,72.788 39.798,72.658 39.778,72.528C39.708,72.218 39.118,71.048 38.928,70.928L0,48.808L0.33,48.058L104.996,74.918L139.585,97.327C140.875,98.127 140.975,99.017 140.985,99.817C140.995,100.037 141.255,99.967 141.435,99.977C141.615,99.987 141.785,100.077 141.825,99.867C141.915,99.257 142.435,98.157 143.205,97.397L183.133,60.058L255.54,29.28L255.98,29.89L216.892,64.239C216.132,64.999 215.782,65.929 215.932,66.309L211.932,146.376C211.872,146.886 211.632,147.036 211.122,147.386L141.045,191.744C140.765,191.924 140.465,191.974 140.195,191.844L140.195,191.843Z" style="fill:rgb(191,144,100);fill-rule:nonzero;"/>
                    </g>
                    <g transform="matrix(3.87427,0,0,3.87427,16.093,139.116)">
                        <path d="M141.434,99.977L140.744,191.883C140.558,191.935 140.36,191.921 140.184,191.843L44.318,156.084C43.778,155.854 43.698,155.334 43.668,154.714L39.538,73.008L39.538,72.988C39.538,72.968 39.538,72.948 39.548,72.928C39.548,72.908 39.558,72.898 39.568,72.888C39.578,72.868 39.588,72.858 39.598,72.838C39.608,72.818 39.618,72.808 39.628,72.788C39.668,72.728 39.728,72.668 39.748,72.618C39.758,72.608 39.758,72.598 39.758,72.588L39.758,72.578L140.995,99.857C141.035,100.037 141.275,99.967 141.435,99.977L141.434,99.977Z" style="fill:rgb(189,143,99);fill-rule:nonzero;"/>
                    </g>
                    <g transform="matrix(3.87427,0,0,3.87427,16.093,139.116)">
                        <path d="M140.755,191.613L140.755,191.873C140.569,191.925 140.371,191.911 140.195,191.833L44.328,156.074C43.948,155.914 43.798,155.604 43.728,155.224L140.755,191.613Z" style="fill:url(#_Linear10);fill-rule:nonzero;"/>
                    </g>
                    <g transform="matrix(3.87427,0,0,3.87427,16.093,139.116)">
                        <path d="M97.406,135.865L134.525,148.005L134.435,184.203L98.006,170.823L97.406,135.865ZM116.006,160.185L116.096,176.954L134.074,183.558L134.074,166.464L116.006,160.185ZM121.317,165.602L124.95,171.384L128.509,168.266L129.129,168.973L125.456,172.19L129.137,178.048L128.604,178.383L124.976,172.61L121.435,175.714L120.815,175.007L124.47,171.804L120.784,165.937L121.317,165.602ZM132.015,172.114L132.015,173.764L132.965,174.074L132.965,175.934L132.015,175.554L132.015,177.054L129.935,173.894L132.015,172.114ZM128.815,170.104L129.545,170.334L129.545,176.924L128.815,176.664L128.815,170.104ZM98.136,153.974L98.406,170.484L115.586,176.764L115.486,160.034L98.136,153.974ZM124.996,173.654L126.876,176.684L123.126,175.324L124.996,173.654ZM127.895,170.874L127.895,175.174L125.945,172.424L127.895,170.874ZM120.455,167.044L121.175,167.284L121.175,173.864L120.455,173.614L120.455,167.044ZM122.075,168.814L123.935,171.684L122.075,173.114L122.075,168.814ZM106.535,160.844L107.245,161.074L107.247,161.496C109.361,162.346 111.449,164.466 112.456,167.764C111.796,166.654 111.216,166.444 110.186,166.794C109.806,166.004 108.686,165.584 108.016,166.004C107.846,165.68 107.587,165.411 107.27,165.228L107.306,171.504C107.306,172.084 106.906,172.604 105.916,172.404C105.016,172.184 104.646,171.494 104.746,170.314L105.246,170.394C105.246,171.184 105.306,171.634 105.906,171.774C106.416,171.894 106.646,171.704 106.646,171.234L106.58,165.009C106.296,164.989 106.033,165.059 105.846,165.224C105.616,164.644 104.526,163.864 103.706,164.444C103.126,163.524 102.036,163.174 101.426,163.844C102.205,161.489 104.32,160.664 106.539,161.259L106.536,160.844L106.535,160.844ZM117.915,166.974L119.945,170.174L117.935,171.844L117.975,170.274L116.995,170.044L116.995,168.224L117.915,168.564L117.915,166.974ZM123.065,167.664L126.865,169.044L124.965,170.714L123.065,167.664ZM115.975,142.464L116.015,159.564L134.085,165.864L134.085,148.394L115.975,142.464ZM119.345,157.234L130.145,160.924L130.145,163.074L119.345,159.354L119.345,157.234ZM110.007,161.303L110.046,161.314C110.116,161.384 110.116,162.134 109.886,162.304C109.748,162.366 109.586,162.347 109.466,162.254C109.326,162.144 109.246,161.984 109.306,161.744C109.366,161.504 109.966,161.244 110.046,161.314L110.007,161.303ZM111.007,159.593L111.046,159.604C111.126,159.674 111.126,160.424 110.886,160.594C110.748,160.656 110.586,160.637 110.466,160.544C110.326,160.434 110.246,160.274 110.306,160.034C110.366,159.794 110.966,159.534 111.046,159.604L111.007,159.593ZM108.207,159.523L108.246,159.534C108.326,159.604 108.326,160.354 108.086,160.524C107.948,160.586 107.786,160.567 107.666,160.474C107.526,160.364 107.446,160.204 107.506,159.964C107.566,159.724 108.166,159.464 108.246,159.534L108.207,159.523ZM105.377,159.113L105.416,159.124C105.496,159.194 105.496,159.944 105.256,160.114C105.118,160.176 104.956,160.157 104.836,160.064C104.696,159.954 104.616,159.794 104.676,159.554C104.736,159.314 105.336,159.054 105.416,159.124L105.377,159.113ZM127.685,147.885L130.305,153.055L128.515,152.445L128.515,159.935L126.725,159.315L126.735,151.885L124.955,151.305L127.685,147.885ZM97.796,136.505L98.106,153.375L115.496,159.355L115.346,142.265L97.796,136.505ZM121.776,145.915L124.396,151.085L122.606,150.475L122.606,157.965L120.816,157.345L120.836,149.915L119.046,149.335L121.776,145.915ZM101.686,139.895L103.106,140.365L103.766,142.755L103.026,142.705L105.136,147.805L104.046,143.605L104.666,143.595L104.036,140.665L111.366,143.085L111.366,147.115C111.366,148.645 109.706,150.575 107.366,149.615L107.376,153.665L110.736,155.825L102.606,153.005L105.876,153.165L105.816,149.155C103.496,148.465 101.816,145.675 101.816,143.975L101.686,139.895Z" style="fill:rgb(50,34,20);fill-rule:nonzero;"/>
                    </g>
                    <g transform="matrix(3.87427,0,0,3.87427,16.093,139.116)">
                        <path d="M141.434,99.977C141.034,99.987 140.734,100.517 140.724,100.997L140.634,101.037L39.538,72.997C39.528,72.807 39.748,72.687 39.768,72.567C39.778,72.557 39.778,72.547 39.768,72.537C39.698,72.227 39.108,71.057 38.918,70.937L0,48.81L0.33,48.06L104.986,74.909L104.996,74.909L139.585,97.318C140.875,98.128 140.975,99.008 140.985,99.808C140.985,99.818 140.985,99.838 140.995,99.848C141.035,100.038 141.275,99.968 141.435,99.978L141.434,99.977Z" style="fill:url(#_Linear11);fill-rule:nonzero;"/>
                    </g>
                    <g transform="matrix(3.87427,0,0,3.87427,16.093,139.116)">
                        <path d="M216.902,64.228C216.142,64.988 215.792,65.918 215.942,66.298L142.314,101.137L142.164,101.017C142.154,100.437 141.784,100.047 141.504,99.987C141.654,100.007 141.794,100.057 141.834,99.867C141.854,99.747 141.884,99.607 141.934,99.457C141.974,99.327 142.034,99.187 142.104,99.037C142.314,98.557 142.634,98.037 143.044,97.577C143.104,97.517 143.164,97.447 143.224,97.387L183.153,60.048L255.56,29.27L256,29.88L216.902,64.229L216.902,64.228Z" style="fill:rgb(205,156,107);fill-rule:nonzero;"/>
                    </g>
                    <g transform="matrix(3.87427,0,0,3.87427,16.093,139.116)">
                        <path d="M95.996,109.136C96.106,109.166 96.146,109.176 96.146,109.086L95.766,88.747C95.736,88.057 95.566,86.697 94.736,86.147L57.868,63.748L40.588,59.288L78.057,81.678C78.997,82.298 79.077,83.458 79.117,84.318L79.657,104.096C79.657,104.196 79.677,104.216 79.747,104.246L95.997,109.136L95.996,109.136Z" style="fill:url(#_Linear12);fill-rule:nonzero;"/>
                    </g>
                    <g transform="matrix(3.87427,0,0,3.87427,16.093,139.116)">
                        <path d="M141.434,99.977C141.024,99.987 140.724,100.547 140.724,101.037C140.714,101.077 140.644,101.067 140.634,101.037C140.554,99.947 140.104,98.727 139.514,98.297L104.646,75.817L104.986,74.907L104.996,74.907L139.585,97.317C140.875,98.127 140.975,99.007 140.985,99.807C140.985,99.817 140.985,99.837 140.995,99.847C141.035,100.037 141.275,99.967 141.435,99.977L141.434,99.977Z" style="fill:rgb(212,162,113);fill-rule:nonzero;"/>
                    </g>
                    <g transform="matrix(3.87427,0,0,3.87427,16.093,139.116)">
                        <path d="M104.986,74.918L104.646,75.818L0,48.808L0.33,48.068L104.986,74.918Z" style="fill:rgb(222,179,126);fill-rule:nonzero;"/>
                    </g>
                    <g transform="matrix(3.87427,0,0,3.87427,16.093,139.116)">
                        <path d="M215.952,66.298L211.952,146.365C211.892,146.875 211.652,147.025 211.142,147.375L141.065,191.733C140.965,191.803 140.855,191.843 140.755,191.873L141.445,99.967C141.625,99.977 141.795,100.067 141.835,99.857C141.835,99.827 141.845,99.807 141.845,99.777L215.932,66.207C215.932,66.257 215.942,66.277 215.952,66.297L215.952,66.298Z" style="fill:rgb(219,173,119);fill-rule:nonzero;"/>
                    </g>
                    <g transform="matrix(3.87427,0,0,3.87427,16.093,139.116)">
                        <path d="M211.952,146.335L211.952,146.375C211.892,146.885 211.652,147.035 211.142,147.385L141.065,191.743C140.965,191.813 140.855,191.853 140.755,191.883L140.755,191.623L211.952,146.335Z" style="fill:url(#_Linear13);fill-rule:nonzero;"/>
                    </g>
                    <g transform="matrix(3.87427,0,0,3.87427,16.093,139.116)">
                        <path d="M210.642,111.496L209.042,144.095L185.742,158.605L186.942,124.675L210.642,111.496ZM198.182,135.096L186.602,141.905L186.052,157.955L197.582,150.785L198.182,135.096ZM192.652,141.985L192.632,142.525C194.015,141.835 195.322,142.315 195.872,144.605C195.492,144.075 194.802,144.285 194.342,145.365C194.132,144.915 193.062,145.285 192.902,146.225C192.817,146.072 192.664,146.016 192.488,146.036L192.233,152.225C192.213,152.755 192.183,153.325 191.513,153.735C191.203,153.875 190.383,153.985 190.493,152.835L190.883,152.535C190.853,153.265 191.043,153.485 191.443,153.245C191.923,152.955 191.833,152.495 191.853,152.065L192.068,146.201C191.755,146.406 191.537,146.728 191.463,147.095C191.343,146.735 190.183,146.955 190.043,147.985C189.713,147.545 188.813,147.975 188.473,149.085C189.099,146.202 190.651,143.809 192.196,142.779L192.213,142.305L192.653,141.985L192.652,141.985ZM209.552,128.375L198.512,134.905L197.902,150.635L208.822,143.765L209.552,128.375ZM206.142,133.675L206.462,133.975L204.056,139.433L206.042,142.175L205.722,142.855L203.742,140.145L201.362,145.545L201.032,145.245L203.456,139.754L201.402,136.945L201.762,136.265L203.772,139.04L206.142,133.675ZM199.422,139.945L200.672,141.465L199.342,144.325L199.342,143.065L198.782,143.405L198.812,141.775L199.372,141.445L199.422,139.945ZM201.582,137.965L201.322,143.995L200.872,144.295L201.122,138.285L201.582,137.965ZM203.692,141.115L204.762,142.525L202.462,143.925L203.692,141.115ZM191.442,141.555C191.492,141.555 191.462,142.245 191.292,142.585C191.232,142.705 191.122,142.835 191.032,142.845C190.942,142.855 190.902,142.755 190.952,142.495C191.002,142.235 191.392,141.555 191.442,141.555M202.082,138.785L203.142,140.095L201.902,142.545L202.082,138.785ZM194.482,140.305C194.522,140.315 194.492,141.005 194.332,141.335C194.272,141.455 194.162,141.585 194.072,141.595C193.982,141.605 193.942,141.505 193.992,141.245C194.042,140.985 194.432,140.305 194.482,140.305M198.922,118.465L187.222,125.025L186.612,141.395L198.222,134.555L198.922,118.465ZM206.632,134.895L206.352,140.915L205.952,141.175L206.222,135.165L206.632,134.895ZM193.382,139.855C193.432,139.855 193.402,140.545 193.232,140.885C193.172,141.005 193.062,141.135 192.972,141.145C192.882,141.155 192.842,141.055 192.892,140.795C192.942,140.535 193.332,139.855 193.382,139.855M205.602,136.645L205.442,140.485L204.402,139.245L205.602,136.645ZM208.082,134.815L208.022,136.295L208.602,135.975L208.532,137.615L207.972,137.945L207.952,139.295L206.742,137.845L208.082,134.815ZM195.252,137.875C195.302,137.875 195.272,138.565 195.102,138.905C195.042,139.025 194.932,139.155 194.842,139.165C194.752,139.175 194.712,139.075 194.762,138.815C194.812,138.555 195.202,137.875 195.252,137.875M205.032,135.555L203.792,138.395L202.722,136.945L205.032,135.555ZM196.202,121.945L196.052,126.065C195.992,127.465 194.872,130.005 193.202,131.065L193.022,134.955L195.252,134.475L189.822,137.615L192.082,135.465L192.202,131.645C190.752,132.475 189.592,130.935 189.662,129.375L189.792,125.595L190.772,125.065L191.092,126.885L190.562,127.315L191.732,130.705L191.282,127.615L191.682,127.155L191.372,124.725L196.202,121.945ZM210.402,112.086L199.202,118.346L198.502,134.436L209.602,127.796L210.402,112.086ZM207.482,125.956L207.342,127.866L200.782,131.746L200.872,129.816L207.482,125.956ZM202.842,117.706L204.292,120.766L203.202,121.376L202.872,128.246L201.832,128.846L202.032,121.976L200.982,122.606L202.842,117.706ZM206.482,115.686L207.892,118.696L206.732,119.346L206.492,126.166L205.382,126.786L205.732,119.916L204.642,120.536L206.482,115.686Z" style="fill:rgb(50,34,20);fill-rule:nonzero;"/>
                    </g>
                    <g transform="matrix(3.87427,0,0,3.87427,16.093,139.116)">
                        <path d="M183.733,60.838L144.144,97.637C143.024,98.707 142.284,100.307 142.314,101.137C142.294,101.177 142.194,101.207 142.154,101.137C142.204,100.497 141.794,100.057 141.494,99.987C141.644,100.007 141.784,100.057 141.824,99.867C141.844,99.747 141.874,99.607 141.924,99.457C141.964,99.327 142.024,99.187 142.094,99.037C142.334,98.497 142.724,97.877 143.204,97.397L183.133,60.058L183.733,60.838Z" style="fill:rgb(215,170,119);fill-rule:nonzero;"/>
                    </g>
                    <g transform="matrix(3.87427,0,0,3.87427,16.093,139.116)">
                        <path d="M175.003,105.476C175.003,105.586 175.053,105.636 175.123,105.606L187.013,99.506C187.033,99.496 187.043,99.476 187.053,99.436L187.713,79.947C187.733,78.877 188.333,77.817 189.153,77.087L228.64,41.6L216.62,46.75L176.932,82.708C175.912,83.708 175.562,84.888 175.542,85.888L175.002,105.478L175.003,105.476Z" style="fill:url(#_Linear14);fill-rule:nonzero;"/>
                    </g>
                    <g transform="matrix(3.87427,0,0,3.87427,16.093,139.116)">
                        <path d="M183.733,60.838L255.99,29.88L255.55,29.28L183.143,60.05L183.733,60.838Z" style="fill:rgb(248,206,147);fill-rule:nonzero;"/>
                    </g>
                </g>
            </g>
            <g transform="matrix(0.307649,0,0,0.307649,300,434.243)">
                <g transform="matrix(1,0,0,1,-534.293,-109.201)">
                    <clipPath id="_clip15">
                        <rect x="0" y="0" width="1068.59" height="218.402"/>
                    </clipPath>
                    <g clip-path="url(#_clip15)">
                        <g transform="matrix(1,0,0,1,-23.7002,-40.7978)">
                            <path d="M134.102,41.998C159.302,41.998 176.702,59.398 176.702,84.598L176.702,139.199C176.702,164.399 159.302,181.799 134.102,181.799L66.901,181.799L66.901,258L23.7,258L23.7,41.998L134.102,41.998ZM158.102,88.798C158.102,70.198 147.301,59.398 128.701,59.398L42.3,59.398L42.3,240.6L48.3,240.6L48.3,164.399L128.701,164.399C147.301,164.399 158.102,153.599 158.102,134.999L158.102,88.798ZM128.701,65.398C143.702,65.398 152.102,73.798 152.102,88.798L152.102,134.999C152.102,149.999 143.702,158.399 128.701,158.399L48.3,158.399L48.3,65.398L128.701,65.398ZM123.301,140.999C129.901,140.999 133.501,137.399 133.501,130.799L133.501,92.999C133.501,86.398 129.901,82.798 123.301,82.798L66.901,82.798L66.901,140.999L123.301,140.999Z" style="fill:white;fill-rule:nonzero;"/>
                        </g>
                        <g transform="matrix(1,0,0,1,-23.7002,-40.7978)">
                            <path d="M223.798,258L179.098,258L248.699,41.998L299.099,41.998L368.7,258L322.199,258L308.1,209.399L238.199,209.399L223.798,258ZM343.199,240.6L287.699,59.398L260.099,59.398L203.698,240.6L209.398,240.6L224.398,192L322.8,192L337.499,240.6L343.199,240.6ZM263.699,65.398L226.198,186L320.999,186L284.099,65.398L263.699,65.398ZM273.599,89.398L296.399,168.599L250.199,168.599L273.599,89.398Z" style="fill:white;fill-rule:nonzero;"/>
                        </g>
                        <g transform="matrix(1,0,0,1,-23.7002,-40.7978)">
                            <path d="M509.995,258L475.195,177.899L440.395,177.899L440.395,258L397.194,258L397.194,41.998L507.296,41.998C532.496,41.998 549.896,59.398 549.896,84.598L549.896,135.299C549.896,155.699 538.496,170.999 520.496,176.099L556.496,258L509.995,258ZM528.896,240.6L494.096,160.799L501.896,160.799C520.496,160.799 531.296,149.999 531.296,131.399L531.296,88.798C531.296,70.198 520.496,59.398 501.896,59.398L415.795,59.398L415.795,240.6L421.795,240.6L421.795,160.799L487.795,160.799L522.596,240.6L528.896,240.6ZM525.296,131.399C525.296,146.399 516.896,154.799 501.896,154.799L421.795,154.799L421.795,65.398L501.896,65.398C516.896,65.398 525.296,73.798 525.296,88.798L525.296,131.399ZM496.495,137.699C503.096,137.699 506.695,134.099 506.695,127.499L506.695,92.999C506.695,86.398 503.096,82.798 496.495,82.798L440.395,82.798L440.395,137.699L496.495,137.699Z" style="fill:white;fill-rule:nonzero;"/>
                        </g>
                        <g transform="matrix(1,0,0,1,-23.7002,-40.7978)">
                            <path d="M697.493,91.798C697.493,85.198 693.894,81.598 687.293,81.598L640.493,81.598C633.893,81.598 630.293,85.198 630.293,91.798L630.293,208.2C630.293,214.799 633.893,218.399 640.493,218.399L687.293,218.399C693.894,218.399 697.493,214.799 697.493,208.2L697.493,181.799L740.694,181.799L740.694,216.6C740.694,241.799 723.294,259.2 698.094,259.2L629.692,259.2C604.492,259.2 587.093,241.799 587.093,216.6L587.093,83.398C587.093,58.198 604.492,40.798 629.692,40.798L698.094,40.798C723.294,40.798 740.694,58.198 740.694,83.398L740.694,118.199L697.493,118.199L697.493,91.798ZM692.693,64.198C707.693,64.198 716.094,72.598 716.094,87.598L716.094,101.398L722.094,101.398L722.094,87.598C722.094,68.998 711.294,58.198 692.693,58.198L635.093,58.198C616.493,58.198 605.692,68.998 605.692,87.598L605.692,212.399C605.692,231 616.493,241.799 635.093,241.799L692.693,241.799C711.294,241.799 722.094,231 722.094,212.399L722.094,199.2L716.094,199.2L716.094,212.399C716.094,227.4 707.693,235.799 692.693,235.799L635.093,235.799C620.093,235.799 611.692,227.4 611.692,212.399L611.692,87.598C611.692,72.598 620.093,64.198 635.093,64.198L692.693,64.198Z" style="fill:white;fill-rule:nonzero;"/>
                        </g>
                        <g transform="matrix(1,0,0,1,-23.7002,-40.7978)">
                            <path d="M920.39,41.998L920.39,82.798L822.288,82.798L822.288,127.199L901.789,127.199L901.789,167.999L822.288,167.999L822.288,217.2L920.39,217.2L920.39,258L779.088,258L779.088,41.998L920.39,41.998ZM901.789,240.6L901.789,234.6L803.688,234.6L803.688,150.599L883.189,150.599L883.189,144.599L803.688,144.599L803.688,65.398L901.789,65.398L901.789,59.398L797.688,59.398L797.688,240.6L901.789,240.6Z" style="fill:white;fill-rule:nonzero;"/>
                        </g>
                        <g transform="matrix(1,0,0,1,-23.7002,-40.7978)">
                            <path d="M1001.69,41.998L1001.69,217.2L1092.29,217.2L1092.29,258L958.485,258L958.485,41.998L1001.69,41.998ZM1073.69,240.6L1073.69,234.6L983.086,234.6L983.086,59.398L977.086,59.398L977.086,240.6L1073.69,240.6Z" style="fill:white;fill-rule:nonzero;"/>
                        </g>
                    </g>
                </g>
            </g>
        </g>
    </g>
    <defs>
        <linearGradient id="_Linear1" x1="0" y1="0" x2="1" y2="0" gradientUnits="userSpaceOnUse" gradientTransform="matrix(0.640633,0.417448,-0.417448,0.640633,175.627,169.427)"><stop offset="0" style="stop-color:black;stop-opacity:1"/><stop offset="1" style="stop-color:black;stop-opacity:0"/></linearGradient>
        <linearGradient id="_Linear2" x1="0" y1="0" x2="1" y2="0" gradientUnits="userSpaceOnUse" gradientTransform="matrix(-0.19363,0.07617,-0.07617,-0.19363,92.56,174.071)"><stop offset="0" style="stop-color:black;stop-opacity:1"/><stop offset="1" style="stop-color:black;stop-opacity:0"/></linearGradient>
        <linearGradient id="_Linear3" x1="0" y1="0" x2="1" y2="0" gradientUnits="userSpaceOnUse" gradientTransform="matrix(6.81107,1.4675,-1.4675,6.81107,109.289,62.9089)"><stop offset="0" style="stop-color:rgb(195,122,68);stop-opacity:1"/><stop offset="0.44" style="stop-color:rgb(187,113,61);stop-opacity:1"/><stop offset="0.64" style="stop-color:rgb(160,87,40);stop-opacity:1"/><stop offset="1" style="stop-color:rgb(150,78,35);stop-opacity:1"/></linearGradient>
        <linearGradient id="_Linear4" x1="0" y1="0" x2="1" y2="0" gradientUnits="userSpaceOnUse" gradientTransform="matrix(-24.6149,-11.5257,11.5257,-24.6149,78.449,39.4691)"><stop offset="0" style="stop-color:rgb(233,184,128);stop-opacity:1"/><stop offset="1" style="stop-color:rgb(228,175,118);stop-opacity:1"/></linearGradient>
        <linearGradient id="_Linear5" x1="0" y1="0" x2="1" y2="0" gradientUnits="userSpaceOnUse" gradientTransform="matrix(-1.0473,-0.429614,0.429614,-1.0473,89.6901,54.003)"><stop offset="0" style="stop-color:rgb(195,122,69);stop-opacity:0"/><stop offset="0.13" style="stop-color:rgb(195,122,69);stop-opacity:1"/><stop offset="0.29" style="stop-color:rgb(208,141,85);stop-opacity:1"/><stop offset="0.5" style="stop-color:rgb(222,161,103);stop-opacity:1"/><stop offset="0.7" style="stop-color:rgb(232,175,115);stop-opacity:1"/><stop offset="0.86" style="stop-color:rgb(236,180,119);stop-opacity:1"/><stop offset="1" style="stop-color:rgb(236,180,119);stop-opacity:0"/></linearGradient>
        <linearGradient id="_Linear6" x1="0" y1="0" x2="1" y2="0" gradientUnits="userSpaceOnUse" gradientTransform="matrix(-16.646,27.0873,-27.0873,-16.646,150.756,60.3712)"><stop offset="0" style="stop-color:rgb(175,105,56);stop-opacity:1"/><stop offset="0.09" style="stop-color:rgb(175,105,56);stop-opacity:1"/><stop offset="0.48" style="stop-color:rgb(154,82,39);stop-opacity:1"/><stop offset="0.78" style="stop-color:rgb(141,69,32);stop-opacity:1"/><stop offset="1" style="stop-color:rgb(141,69,32);stop-opacity:1"/></linearGradient>
        <linearGradient id="_Linear7" x1="0" y1="0" x2="1" y2="0" gradientUnits="userSpaceOnUse" gradientTransform="matrix(18.7389,-6.66192,6.66192,18.7389,169.64,35.9372)"><stop offset="0" style="stop-color:rgb(228,175,118);stop-opacity:1"/><stop offset="0.03" style="stop-color:rgb(228,175,118);stop-opacity:1"/><stop offset="1" style="stop-color:rgb(233,184,128);stop-opacity:1"/></linearGradient>
        <linearGradient id="_Linear8" x1="0" y1="0" x2="1" y2="0" gradientUnits="userSpaceOnUse" gradientTransform="matrix(0.74024,-0.23394,0.23394,0.74024,154.19,51.556)"><stop offset="0" style="stop-color:rgb(175,106,56);stop-opacity:0"/><stop offset="0.09" style="stop-color:rgb(175,106,56);stop-opacity:1"/><stop offset="0.2" style="stop-color:rgb(184,117,66);stop-opacity:1"/><stop offset="0.58" style="stop-color:rgb(213,156,102);stop-opacity:1"/><stop offset="0.78" style="stop-color:rgb(228,175,118);stop-opacity:1"/><stop offset="0.92" style="stop-color:rgb(228,175,118);stop-opacity:0"/><stop offset="1" style="stop-color:rgb(228,175,118);stop-opacity:0"/></linearGradient>
        <linearGradient id="_Linear9" x1="0" y1="0" x2="1" y2="0" gradientUnits="userSpaceOnUse" gradientTransform="matrix(2.89959,0,0,2.89959,117.925,64.916)"><stop offset="0" style="stop-color:rgb(116,63,26);stop-opacity:0"/><stop offset="0.49" style="stop-color:rgb(116,63,26);stop-opacity:0.66"/><stop offset="0.5" style="stop-color:rgb(116,63,26);stop-opacity:0.67"/><stop offset="0.53" style="stop-color:rgb(116,63,26);stop-opacity:0.63"/><stop offset="1" style="stop-color:rgb(116,63,26);stop-opacity:0"/></linearGradient>
        <linearGradient id="_Linear10" x1="0" y1="0" x2="1" y2="0" gradientUnits="userSpaceOnUse" gradientTransform="matrix(0.09412,-0.0355781,0.0355781,0.09412,92.142,173.587)"><stop offset="0" style="stop-color:rgb(50,34,20);stop-opacity:0.54"/><stop offset="0.24" style="stop-color:rgb(50,35,20);stop-opacity:0.53"/><stop offset="1" style="stop-color:rgb(50,34,20);stop-opacity:0"/></linearGradient>
        <linearGradient id="_Linear11" x1="0" y1="0" x2="1" y2="0" gradientUnits="userSpaceOnUse" gradientTransform="matrix(-3.77066,1.76518,-1.76518,-3.77066,72.6694,73.6123)"><stop offset="0" style="stop-color:rgb(198,152,102);stop-opacity:1"/><stop offset="0.05" style="stop-color:rgb(198,152,102);stop-opacity:1"/><stop offset="0.42" style="stop-color:rgb(186,140,94);stop-opacity:1"/><stop offset="0.81" style="stop-color:rgb(181,135,91);stop-opacity:1"/><stop offset="1" style="stop-color:rgb(181,135,91);stop-opacity:1"/></linearGradient>
        <linearGradient id="_Linear12" x1="0" y1="0" x2="1" y2="0" gradientUnits="userSpaceOnUse" gradientTransform="matrix(-21.1426,-18.9189,18.9189,-21.1426,75.6073,82.657)"><stop offset="0" style="stop-color:rgb(132,95,53);stop-opacity:1"/><stop offset="0.43" style="stop-color:rgb(145,103,60);stop-opacity:1"/><stop offset="0.44" style="stop-color:rgb(151,106,64);stop-opacity:1"/><stop offset="0.87" style="stop-color:rgb(152,107,64);stop-opacity:1"/><stop offset="1" style="stop-color:rgb(171,129,87);stop-opacity:1"/></linearGradient>
        <linearGradient id="_Linear13" x1="0" y1="0" x2="1" y2="0" gradientUnits="userSpaceOnUse" gradientTransform="matrix(0.0776,0.0501,-0.0501,0.0776,176.353,169.111)"><stop offset="0" style="stop-color:rgb(50,34,20);stop-opacity:0"/><stop offset="1" style="stop-color:rgb(50,34,20);stop-opacity:0.54"/></linearGradient>
        <linearGradient id="_Linear14" x1="0" y1="0" x2="1" y2="0" gradientUnits="userSpaceOnUse" gradientTransform="matrix(2.58487,-18.6186,18.6186,2.58487,199.49,81.6874)"><stop offset="0" style="stop-color:rgb(169,121,75);stop-opacity:1"/><stop offset="0.39" style="stop-color:rgb(174,127,83);stop-opacity:1"/><stop offset="0.46" style="stop-color:rgb(172,125,80);stop-opacity:1"/><stop offset="0.62" style="stop-color:rgb(169,121,75);stop-opacity:1"/><stop offset="1" style="stop-color:rgb(178,135,93);stop-opacity:1"/></linearGradient>
    </defs>
</svg>
