<?xml version="1.0" encoding="UTF-8" standalone="no"?>
<!DOCTYPE svg PUBLIC "-//W3C//DTD SVG 1.1//EN" "http://www.w3.org/Graphics/SVG/1.1/DTD/svg11.dtd">
<svg width="100%" height="100%" viewBox="0 0 512 512" version="1.1" xmlns="http://www.w3.org/2000/svg" xmlns:xlink="http://www.w3.org/1999/xlink" xml:space="preserve" xmlns:serif="http://www.serif.com/" style="fill-rule:evenodd;clip-rule:evenodd;stroke-linejoin:round;stroke-miterlimit:2;">
    <g transform="matrix(1,0,0,1,-44,-45)">
        <g id="php-unit" transform="matrix(0.808641,0,0,0.808641,56.4078,55.4812)">
            <g id="back" transform="matrix(1.23664,0,0,1.23664,-100.672,-98.2899)">
                <path d="M581,191.18C581,123.747 526.253,69 458.82,69L191.18,69C123.747,69 69,123.747 69,191.18L69,458.82C69,526.253 123.747,581 191.18,581L458.82,581C526.253,581 581,526.253 581,458.82L581,191.18Z" style="fill:rgb(54,101,136);"/>
            </g>
            <g transform="matrix(0.398235,0,0,0.398235,301.966,306.6)">
                <g transform="matrix(1,0,0,1,-512,-512)">
                    <g transform="matrix(49.9853,0,0,49.9853,-412.979,-314.165)">
                        <path d="M25.25,6.47L24,6.47C22.82,6.47 22.19,7.23 22.19,8.71L22.19,15.98L24.27,15.98L24.27,12.6L25.19,12.6C26.91,12.6 27.64,11.4 27.64,9.41C27.64,7.47 26.81,6.47 25.25,6.47M24.87,10.91L24.27,10.91L24.27,8.18L24.88,8.18C25.37,8.18 25.61,8.55 25.61,9.47C25.61,10.45 25.35,10.91 24.87,10.91M12.43,6.47L11.18,6.47C10,6.47 9.37,7.23 9.37,8.71L9.37,15.98L11.45,15.98L11.45,12.6L12.37,12.6C14.09,12.6 14.82,11.4 14.82,9.41C14.82,7.47 13.99,6.47 12.43,6.47M12.04,10.91L11.44,10.91L11.44,8.18L12.05,8.18C12.54,8.18 12.78,8.55 12.78,9.47C12.79,10.45 12.52,10.91 12.04,10.91M20.89,6.47C19.71,6.47 19.08,7.23 19.08,8.71L19.08,10.26L17.6,10.26L17.6,6.47L17.33,6.47C16.15,6.47 15.52,7.23 15.52,8.71L15.52,15.98L17.6,15.98L17.6,12.14L19.08,12.14L19.08,15.98L21.15,15.98L21.15,6.48L20.89,6.48L20.89,6.47Z" style="fill:white;fill-rule:nonzero;"/>
                    </g>
                    <g transform="matrix(49.9853,0,0,49.9853,-1379.19,208.997)">
                        <rect x="32.09" y="6.47" width="1.97" height="1.77" style="fill:rgb(99,165,214);"/>
                    </g>
                    <g transform="matrix(49.9853,0,0,49.9853,-1379.19,208.997)">
                        <path d="M40.93,6.47L42.86,6.47L42.86,8.35L40.93,8.35L40.93,6.47ZM35.05,14.09L36.98,14.09L36.98,15.97L35.05,15.97L35.05,14.09ZM32.09,8.8L34.06,8.8L34.06,10.68L32.09,10.68L32.09,8.8Z" style="fill:rgb(58,181,73);"/>
                    </g>
                    <g transform="matrix(49.9853,0,0,49.9853,-1379.19,208.997)">
                        <path d="M32.09,11.24L32.09,13.46C32.09,13.98 31.81,14.3 31.34,14.3C30.9,14.3 30.58,14.02 30.58,13.45L30.58,6.47L30.3,6.47C29.12,6.47 28.49,7.23 28.49,8.71L28.49,13.51C28.49,15.31 29.52,16.12 31.22,16.12C32.82,16.12 34.07,15.2 34.06,13.47L34.06,11.25L32.09,11.25L32.09,11.24ZM47.18,10.36L47.18,8.87L46.21,8.87L46.21,7.26L45.6,7.26C44.75,7.26 44.29,7.81 44.29,8.87L43.66,8.87L43.66,10.36L44.29,10.36L44.29,14.56C44.29,15.61 45.04,16.08 45.98,16.08C46.35,16.08 46.82,16.01 47.17,15.89L47.17,14.36C47.02,14.39 46.81,14.4 46.61,14.4C46.3,14.4 46.21,14.25 46.21,13.99L46.21,10.36L47.18,10.36ZM38.46,8.64C37.83,8.64 37.33,8.91 36.98,9.41L36.98,8.8L36.35,8.8C35.5,8.8 35.04,9.35 35.04,10.41L35.04,13.53L36.97,13.53L36.97,11C36.97,10.57 37.18,10.25 37.5,10.25C37.93,10.25 38.02,10.58 38.02,10.88L38.02,15.97L39.94,15.97L39.94,10.16C39.96,9.22 39.29,8.64 38.46,8.64M42.24,8.87C41.39,8.87 40.93,9.42 40.93,10.48L40.93,15.97L42.86,15.97L42.86,8.87L42.24,8.87Z" style="fill:rgb(99,165,214);fill-rule:nonzero;"/>
                    </g>
                </g>
            </g>
        </g>
    </g>
</svg>
