<?xml version="1.0" encoding="UTF-8" standalone="no"?>
<!DOCTYPE svg PUBLIC "-//W3C//DTD SVG 1.1//EN" "http://www.w3.org/Graphics/SVG/1.1/DTD/svg11.dtd">
<svg width="100%" height="100%" viewBox="0 0 512 513" version="1.1" xmlns="http://www.w3.org/2000/svg" xmlns:xlink="http://www.w3.org/1999/xlink" xml:space="preserve" xmlns:serif="http://www.serif.com/" style="fill-rule:evenodd;clip-rule:evenodd;stroke-linejoin:round;stroke-miterlimit:2;">
    <g transform="matrix(1,0,0,1,-44,-44)">
        <g id="php" transform="matrix(1,0,0,1,0,0.5)">
            <g id="back" transform="matrix(1,0,0,1,-25,-25)">
                <path d="M581,191.18C581,123.747 526.253,69 458.82,69L191.18,69C123.747,69 69,123.747 69,191.18L69,458.82C69,526.253 123.747,581 191.18,581L458.82,581C526.253,581 581,526.253 581,458.82L581,191.18Z" style="fill:rgb(75,75,138);"/>
            </g>
            <g transform="matrix(3.94354,0,0,3.68328,112.151,211.373)">
                <path d="M7.579,10.123L21.783,10.123C25.952,10.158 28.973,11.36 30.846,13.727C32.719,16.094 33.338,19.327 32.701,23.426C32.454,25.299 31.907,27.137 31.058,28.938C30.234,30.756 29.084,32.409 27.666,33.814C25.899,35.651 24.009,36.817 21.995,37.312C19.948,37.812 17.848,38.061 15.741,38.054L9.381,38.054L7.367,48.124L0,48.124L7.579,10.123ZM13.78,16.165L10.6,32.065C10.812,32.1 11.024,32.118 11.236,32.118L11.978,32.118C15.37,32.153 18.197,31.818 20.458,31.111C22.719,30.369 24.239,27.79 25.016,23.373C25.652,19.663 25.016,17.525 23.108,16.96C21.235,16.395 18.886,16.13 16.059,16.165C15.635,16.2 15.229,16.218 14.84,16.218L13.727,16.218L13.78,16.165ZM41.093,0L48.407,0L46.34,10.123L52.912,10.123C56.516,10.194 59.201,10.936 60.968,12.349C62.77,13.762 63.3,16.448 62.558,20.405L59.007,38.054L51.587,38.054L54.979,21.2C55.332,19.433 55.226,18.179 54.661,17.437C53.813,16.324 52.877,16.324 51.004,16.324L45.121,16.271L40.775,38.054L33.461,38.054L41.093,0ZM70.412,10.123L84.616,10.123C88.785,10.158 91.806,11.36 93.679,13.727C95.552,16.094 96.171,19.327 95.534,23.426C95.287,25.299 94.74,27.137 93.891,28.938C93.067,30.756 91.917,32.409 90.499,33.814C88.732,35.651 86.842,36.817 84.828,37.312C82.781,37.812 80.681,38.061 78.574,38.054L72.214,38.054L70.2,48.124L62.833,48.124L70.412,10.123ZM76.613,16.165L73.433,32.065C73.645,32.1 73.857,32.118 74.069,32.118L74.811,32.118C78.203,32.153 81.03,31.818 83.291,31.111C85.552,30.369 87.072,27.79 87.849,23.373C88.485,19.663 87.849,17.525 85.941,16.96C84.068,16.395 81.719,16.13 78.892,16.165C78.468,16.2 78.062,16.218 77.673,16.218L76.56,16.218L76.613,16.165Z" style="fill:white;fill-rule:nonzero;"/>
            </g>
        </g>
    </g>
</svg>
