<?xml version="1.0" encoding="UTF-8" standalone="no"?>
<!DOCTYPE svg PUBLIC "-//W3C//DTD SVG 1.1//EN" "http://www.w3.org/Graphics/SVG/1.1/DTD/svg11.dtd">
<svg width="100%" height="100%" viewBox="0 0 512 512" version="1.1" xmlns="http://www.w3.org/2000/svg" xmlns:xlink="http://www.w3.org/1999/xlink" xml:space="preserve" xmlns:serif="http://www.serif.com/" style="fill-rule:evenodd;clip-rule:evenodd;stroke-linejoin:round;stroke-miterlimit:2;">
    <g transform="matrix(1,0,0,1,-43,-45)">
        <g id="postgresql" transform="matrix(0.808641,0,0,0.808641,55.4078,55.4812)">
            <g id="back" transform="matrix(1.23664,0,0,1.23664,-100.672,-98.2899)">
                <path d="M581,191.18C581,123.747 526.253,69 458.82,69L191.18,69C123.747,69 69,123.747 69,191.18L69,458.82C69,526.253 123.747,581 191.18,581L458.82,581C526.253,581 581,526.253 581,458.82L581,191.18Z" style="fill:#004c68;"/>
            </g>
            <g transform="matrix(0.900058,0,0,0.900058,302.473,302.382)">
                <g transform="matrix(1,0,0,1,-253.924,-250.909)">
                    <clipPath id="_clip1">
                        <rect x="0" y="0" width="507.848" height="501.818"/>
                    </clipPath>
                    <g clip-path="url(#_clip1)">
                        <g transform="matrix(0.92912,0,0,0.92912,24.6297,35.5689)">
                            <path d="M49.755,437.701C49.755,443.513 48.031,448.067 44.582,451.361C41.132,454.655 36.404,456.3 30.398,456.3L6.45,456.3L6.511,483.797L0,483.899L0,419.258L32.203,419.149C37.745,419.149 42.046,420.795 45.109,424.087C48.208,427.382 49.758,431.937 49.759,437.748M43.189,437.985C43.189,428.918 38.849,424.381 30.168,424.381L6.452,424.281L6.452,451.194L28.948,451.194C38.443,451.194 43.189,446.776 43.189,437.941M96.893,462.638C96.893,469.537 95.091,474.925 91.486,478.799C87.455,483.14 81.585,485.31 73.873,485.31C70.192,485.31 66.975,484.81 64.224,483.799C61.512,482.752 59.128,481.124 57.074,478.916C53.354,474.77 51.493,469.343 51.493,462.637C51.493,455.897 53.295,450.548 56.899,446.596C60.891,442.178 66.548,439.969 73.873,439.969C81.623,439.969 87.475,442.119 91.428,446.42C95.072,450.298 96.893,455.703 96.893,462.638M91.254,462.638C91.254,450.588 85.46,444.563 73.874,444.563C68.642,444.563 64.535,446.17 61.551,449.385C60.117,450.938 59.013,452.835 58.238,455.082C57.502,457.291 57.134,459.811 57.134,462.638C57.134,468.18 58.568,472.598 61.434,475.893C64.341,479.15 68.488,480.778 73.875,480.778C79.842,480.778 84.28,479.091 87.186,475.72C88.582,474.207 89.609,472.366 90.267,470.197C90.925,468.025 91.254,465.507 91.254,462.638M142.369,472.114C142.369,480.835 135.839,485.193 122.779,485.193C118.788,485.193 115.416,484.885 112.665,484.264C109.952,483.643 107.744,482.636 106.039,481.243C104.721,480.196 103.675,478.821 102.9,477.114C102.126,475.371 101.622,473.218 101.389,470.661L107.434,470.559C107.434,473.97 108.5,476.491 110.63,478.119C112.918,480.056 116.967,481.024 122.779,481.024C131.925,481.024 136.498,478.293 136.498,472.827C136.498,469.65 134.968,467.461 131.906,466.259C131.285,465.985 127.585,465.372 120.803,464.399C114.059,463.39 109.855,462.503 108.189,461.725C104.585,460.021 102.783,456.94 102.783,452.484C102.783,448.142 104.391,444.908 107.608,442.777C109.197,441.889 111.172,441.208 113.536,440.741C115.939,440.243 118.709,439.989 121.849,439.989C134.405,439.989 140.682,444.696 140.682,454.113L134.927,454.113C134.927,447.487 130.509,444.174 121.674,444.174C117.178,444.174 113.827,444.86 111.618,446.209C109.409,447.527 108.305,449.581 108.305,452.37C108.305,454.966 109.797,456.825 112.781,457.949C114.525,458.572 118.536,459.266 124.814,460.042C130.433,460.664 134.289,461.516 136.381,462.601C140.373,464.46 142.369,467.62 142.369,472.075M168.734,483.974C167.804,484.168 166.97,484.301 166.234,484.383C165.537,484.485 165.033,484.493 164.724,484.493C160.771,484.493 157.921,483.809 156.179,482.461C154.435,481.065 153.563,478.643 153.563,475.193L153.563,445.836L146.355,445.836L146.355,441.478L153.505,441.478L153.567,427.468L159.089,427.468L159.089,441.537L168.738,441.433L168.738,445.851L159.089,445.749L159.089,474.29C159.089,476.421 159.554,477.894 160.484,478.707C161.454,479.524 163.159,479.928 165.6,479.928C165.949,479.928 166.337,479.928 166.763,479.825C167.19,479.723 167.829,479.611 168.681,479.419L168.741,483.836M213.932,482.521C213.932,495.383 206.705,501.818 192.249,501.818C184.693,501.818 179.326,500.579 176.148,498.098C173.397,495.966 171.711,492.536 171.09,487.808L176.787,487.705C177.446,491.153 178.647,493.557 180.391,494.913C182.716,496.733 186.611,497.645 192.075,497.645C197.888,497.645 202.054,496.325 204.573,493.692C207.131,491.056 208.41,487.317 208.41,482.473L208.348,474.915C204.86,480.381 198.951,483.111 190.618,483.111C183.683,483.111 178.314,481.213 174.517,477.414C172.773,475.556 171.437,473.306 170.507,470.671C169.615,467.996 169.17,464.954 169.17,461.544C169.17,454.724 170.972,449.513 174.576,445.908C178.375,441.956 183.877,439.976 191.084,439.976C196.006,439.976 200.017,441.004 203.117,443.058C204.163,443.831 205.907,445.712 208.348,448.697L208.41,441.373L213.932,441.373L213.932,482.473M208.41,461.315C208.41,456.24 206.994,452.189 204.167,449.168C201.377,446.106 197.269,444.574 191.843,444.574C186.458,444.574 182.271,446.087 179.288,449.109C176.343,452.092 174.871,456.24 174.871,461.547C174.871,472.981 180.663,478.695 192.251,478.695C194.771,478.695 196.999,478.306 198.936,477.531C200.874,476.759 202.598,475.614 204.11,474.099C206.975,471.119 208.41,466.857 208.41,461.315M246.087,445.781C244.42,445.473 242.871,445.313 241.438,445.313C232.331,445.313 227.777,451.26 227.777,463.159L227.838,483.795L222.316,483.795L222.254,441.535L227.776,441.432L227.776,449.047L228.067,449.047C228.997,446.064 230.47,443.816 232.485,442.304C234.694,440.831 237.988,440.096 242.367,440.096L244.575,440.096C245.197,440.096 245.699,440.096 246.087,440.199L246.087,445.778M291.596,463.802L252.125,463.802C252.125,468.648 253.462,472.598 256.137,475.662C259.237,479.226 263.674,481.008 269.449,481.008C277.628,481.008 282.741,477.349 284.795,470.023L290.783,470.023C289.891,474.21 287.78,477.736 284.446,480.602C282.548,482.116 280.317,483.277 277.759,484.09C275.24,484.947 272.488,485.368 269.506,485.368C262.026,485.368 256.233,483.122 252.124,478.628C248.328,474.596 246.428,469.149 246.428,462.292C246.428,455.471 248.405,450.084 252.358,446.132C256.309,442.141 261.872,440.147 269.039,440.147C272.878,440.147 276.228,440.708 279.1,441.833C281.964,442.918 284.371,444.604 286.305,446.891C289.832,450.994 291.596,456.633 291.596,463.802M285.781,459.966C285.781,455.897 284.21,452.253 281.073,449.036C277.972,445.819 273.963,444.211 269.039,444.211C266.521,444.211 264.254,444.602 262.24,445.375C260.224,446.109 258.423,447.255 256.833,448.805C254.392,451.442 252.823,455.161 252.125,459.966L285.781,459.966M363.888,466.679C363.888,481.854 353.671,489.443 333.238,489.443C320.996,489.443 312.055,486.838 306.425,481.623C301.818,477.342 299.513,470.823 299.513,462.073L307.754,462.073C307.754,476.177 316.249,483.229 333.239,483.229C341.384,483.229 347.274,481.762 350.902,478.831C353.973,476.316 355.509,472.337 355.509,466.892C355.509,461.494 353.416,457.702 349.226,455.51C346.852,454.347 341.058,452.879 331.84,451.113C320.25,449.019 312.732,446.902 309.288,444.759C304.306,441.641 301.814,436.38 301.814,428.979C301.814,421.998 303.933,416.831 308.168,413.479C312.73,409.756 320.551,407.892 331.628,407.892C351.646,407.892 361.653,415.83 361.653,431.704L353.345,431.704C353.345,419.834 345.919,413.898 331.073,413.898C323.624,413.898 318.177,415.086 314.733,417.459C311.472,420.019 309.843,423.768 309.843,428.701C309.843,433.869 311.94,437.519 316.126,439.663C318.36,440.874 324.926,442.551 335.816,444.689C346.055,446.551 352.969,448.692 356.554,451.113C361.445,454.136 363.888,459.324 363.888,466.679M445.483,489.233L440.454,494.677L428.307,484.553C425.745,486.182 422.626,487.416 418.95,488.253C415.274,489.089 410.968,489.509 406.033,489.509C393.42,489.509 383.458,485.762 376.147,478.269C368.886,470.728 365.254,460.835 365.254,448.593C365.254,436.072 368.861,426.133 376.077,418.779C383.291,411.424 393.228,407.747 405.892,407.747C412.408,407.747 418.202,408.726 423.277,410.68C428.35,412.635 432.679,415.616 436.263,419.618C442.967,426.881 446.319,436.539 446.319,448.597C446.319,455.345 445.293,461.303 443.247,466.471C441.197,471.591 438.033,475.945 433.752,479.528L445.483,489.233M438.43,448.596C438.43,443.289 437.707,438.564 436.265,434.422C434.823,430.234 432.586,426.578 429.561,423.459C423.837,417.08 415.969,413.894 405.961,413.894C396.092,413.894 388.156,416.941 382.15,423.04C376.191,429.139 373.212,437.655 373.212,448.596C373.212,459.117 376.212,467.542 382.217,473.872C388.269,480.155 396.182,483.298 405.958,483.298C410.752,483.298 415.083,482.553 418.945,481.065C422.807,479.574 426.276,477.364 429.346,474.43C435.399,468.1 438.424,459.489 438.424,448.596M507.777,487.417L451.567,487.52L451.567,409.875L459.319,409.734L459.319,480.953L507.847,480.953L507.776,487.445" style="fill:#fff;fill-rule:nonzero;"/>
                        </g>
                        <g transform="matrix(1.07515,0,0,1.07515,-11.6286,-0.000404777)">
                            <path d="M201.725,118.753C202.718,119.386 203.844,119.868 205.054,120.035C209.324,120.631 212.98,117.161 213.211,115.5C213.443,113.836 210.166,112.004 205.887,111.408C201.614,110.813 197.957,111.679 197.731,113.34L197.73,113.34C197.562,114.533 199.207,117.148 201.725,118.753ZM199.092,116.037C198.336,115.036 197.891,114.02 197.941,113.424L197.949,113.37C198.104,112.234 200.285,111.44 203.255,111.44C204.096,111.44 204.972,111.503 205.858,111.627C207.9,111.911 209.775,112.486 211.135,113.246C212.415,113.961 213.092,114.772 212.995,115.47C212.812,116.782 209.917,119.885 206.036,119.885C205.719,119.885 205.399,119.863 205.085,119.82C203.982,119.667 202.956,119.237 202.039,118.681C201.85,118.566 201.662,118.451 201.483,118.326C200.498,117.636 199.675,116.811 199.092,116.037ZM406.609,213.185C405.912,211.076 402.779,204.369 391.806,206.635C374.428,210.221 364.202,209.865 358.23,208.488C396.755,144.538 416.959,62.59 398.464,38.954C378.817,13.847 349.967,0.38 315.033,0.008C289.246,-0.26 268.928,6.62 266.523,7.719C258.156,5.615 249.028,4.323 239.081,4.158C222.53,3.894 208.061,7.514 195.838,14.916C188.359,12.485 176.629,9.154 163.066,7.03C131.728,2.12 106.931,5.985 89.363,18.509C68.755,33.204 59.238,59.27 61.074,95.987C61.688,108.267 69.148,146.673 81.031,183.993C96.436,232.374 112.852,259.775 129.824,265.437C131.78,266.087 134.036,266.545 136.521,266.545C142.231,266.544 149.146,264.122 156.369,256.115C157.307,261.161 164.329,263.676 172.118,265.983C172.276,266.03 172.436,266.069 172.599,266.098C174.585,266.459 176.53,266.846 178.441,267.227C185.135,268.555 191.457,269.811 197.91,269.811L197.912,269.811C206.144,269.811 213.364,267.708 220.262,263.207C220.306,295.842 222.857,323.576 227.023,333.993C228.826,338.5 238.304,358.133 266.335,358.131C270.932,358.131 276.023,357.604 281.664,356.395C310.127,350.293 322.932,337.965 327.337,312.42C329.909,297.514 333.286,269.604 334.757,254.965C338.569,255.912 343.198,256.35 348.148,256.35C360.17,256.348 374.092,253.78 382.826,249.725C397.931,242.706 410.159,223.925 406.609,213.185ZM375.592,240.997C366.614,245.163 354.467,247.116 344.091,247.116C337.657,247.116 331.906,246.365 328.009,244.925C326.236,261.529 322.133,294.735 319.773,308.419C315.52,333.087 305.033,343.756 279.696,349.19C275.465,350.096 271.621,350.502 268.126,350.502C259.687,350.502 253.295,348.128 248.415,344.725C243.105,342.016 238.416,337.604 235.6,330.563C235.02,329.112 234.451,327.071 233.906,324.516C233.823,324.309 233.74,324.102 233.663,323.908C229.77,314.176 228.489,280.34 228.829,247.906C219.948,256.864 208.491,261.559 195.252,261.559C190.149,261.559 184.777,260.862 179.285,259.487C176.667,258.835 173.207,257.561 170.295,255.709C169.824,255.463 169.664,255.283 169.217,254.974C166.499,252.996 164.488,250.452 164.552,247.349C164.69,240.726 173.491,238.15 180.097,236.787C196.145,233.483 197.322,231.99 202.272,225.705C203.321,224.372 204.565,222.795 206.105,220.985C206.033,220.316 205.98,219.644 205.965,218.964C198.477,218.948 191.138,216.971 184.539,213.266C180.88,217.145 168.859,230.043 155.941,245.584C151.329,251.128 146.857,254.127 142.778,255.561C137.775,258.348 134.229,257.169 132.748,256.675C131.868,256.381 130.992,255.987 130.117,255.526C94.513,242.804 69.731,120.396 68.6,97.762C66.876,63.302 75.715,38.948 94.87,25.377C110.728,14.141 133.964,10.595 162.066,15.122C179.26,17.891 193.188,22.791 197.955,24.593C209.989,16.223 224.581,12.107 241.533,12.399C250.638,12.548 259.004,13.713 266.681,15.613L266.681,15.222C267.445,15.359 268.207,15.495 268.956,15.644C273.753,13.918 290.477,9.022 311.349,9.022C317.157,9.022 323.558,9.421 330.256,10.492C351.203,13.379 373.818,22.45 391.191,44.647C393.524,47.629 395.023,52.412 395.699,58.624C398.153,71.963 396.345,91.513 390.277,115.015C381.753,148.023 365.965,183.399 346.761,212.688C346.761,212.688 346.477,213.179 346.182,213.637C349.519,216.452 359.82,219.669 384.2,214.636C391.919,213.041 396.517,214.314 397.874,218.413C400.447,226.196 385.958,236.182 375.592,240.997ZM334.853,212.977C329.327,214.617 319.978,218.51 320.886,236.439C320.831,237.129 320.753,238.015 320.657,239.037C320.655,239.065 320.649,239.099 320.645,239.127C320.601,239.596 320.552,240.096 320.499,240.627C320.496,240.644 320.496,240.661 320.494,240.679C319.018,255.342 314.493,292.448 311.97,307.072C308.299,328.374 300.052,336.726 278.035,341.448C254.689,346.45 246.449,334.556 241.012,320.966C237.572,312.364 235.872,273.938 237.057,231.581C237.07,231.085 236.982,230.614 236.828,230.172C236.701,229.233 236.526,228.284 236.251,227.325C234.61,221.593 230.477,216.614 225.719,214.641C224.194,214.009 221.886,213.054 219.119,213.054C217.472,213.054 215.886,213.395 214.343,214.047C215.193,209.539 217.114,204.371 219.231,198.696L219.99,196.658C220.857,194.328 221.934,191.935 223.075,189.4C229.129,175.951 237.419,157.532 228.403,115.84C226.179,105.56 220.402,98.87 211.715,96.175C211.43,96.087 211.136,96.01 210.845,95.93C210.394,95.806 209.938,95.693 209.473,95.59C209.175,95.524 208.877,95.459 208.574,95.401C207.972,95.289 207.36,95.193 206.737,95.114C206.571,95.093 206.412,95.062 206.246,95.044C205.462,94.956 204.657,94.901 203.837,94.866C203.57,94.854 203.297,94.852 203.027,94.845C202.405,94.832 201.775,94.832 201.133,94.848C200.864,94.855 200.595,94.859 200.323,94.871C199.429,94.911 198.524,94.968 197.595,95.065C187.438,96.117 178.126,100.226 173.479,102.581C171.702,103.482 170.192,104.326 168.874,105.122C168.905,104.669 168.939,104.202 168.976,103.723C169.01,103.274 169.05,102.809 169.091,102.338C169.092,102.323 169.093,102.307 169.095,102.293C169.18,101.308 169.281,100.271 169.396,99.193C169.397,99.185 169.398,99.177 169.399,99.17C171.182,82.564 176.775,55.644 194.23,38.015C206.172,25.954 222.048,20.023 241.403,20.317C303.106,21.328 330.557,71.74 337.526,90.854C337.532,90.869 337.537,90.881 337.543,90.896C337.733,91.418 337.908,91.917 338.069,92.392C338.073,92.41 338.078,92.426 338.083,92.445C338.245,92.923 338.393,93.38 338.523,93.804C337.364,93.668 336.23,93.556 335.116,93.462C334.724,93.428 334.345,93.408 333.959,93.38C333.253,93.328 332.547,93.277 331.858,93.243C331.39,93.219 330.934,93.208 330.475,93.193C329.893,93.172 329.314,93.153 328.746,93.147C328.248,93.14 327.762,93.144 327.275,93.147C326.773,93.15 326.272,93.156 325.781,93.17C325.267,93.184 324.762,93.206 324.262,93.232C323.826,93.254 323.399,93.28 322.973,93.311C322.445,93.35 321.922,93.394 321.41,93.445C321.049,93.481 320.694,93.523 320.339,93.566C319.79,93.632 319.246,93.701 318.715,93.782C318.436,93.825 318.169,93.875 317.897,93.921C317.313,94.022 316.73,94.125 316.168,94.245C316.023,94.275 315.886,94.311 315.745,94.344C311.266,95.35 307.483,96.978 304.425,99.24C303.908,99.622 303.415,100.022 302.937,100.439C302.926,100.449 302.917,100.458 302.908,100.467C302.431,100.884 301.98,101.318 301.546,101.771C300.779,102.57 300.061,103.408 299.425,104.318C285.592,124.093 307.388,163.178 317.863,181.962C319.822,185.474 321.512,188.506 322.063,189.845C325.451,198.052 329.854,203.556 333.073,207.576C334.553,209.428 335.888,211.097 336.659,212.465C336.437,212.527 336.222,212.588 336.027,212.645C335.664,212.747 335.268,212.858 334.856,212.98L334.853,212.977ZM385.801,222.391C387.333,222.075 388.467,221.936 389.294,221.889C387.037,224.754 381.063,229.728 372.257,233.815C361.2,238.947 339.573,240.934 330.935,237.611C329.14,236.92 328.807,236.309 328.804,236.309C328.052,223.105 333.423,221.597 338.163,220.266C338.858,220.071 339.82,219.801 340.808,219.38C341.343,219.857 341.959,220.334 342.663,220.799C350.705,226.105 365.218,226.641 385.801,222.391ZM211.812,195.926L212.566,193.9C213.526,191.318 214.655,188.807 215.854,186.148C221.768,173.009 229.128,156.656 220.663,117.512C218.899,109.36 214.559,104.688 207.388,103.231C206.974,103.147 206.556,103.077 206.135,103.016C205.736,102.956 205.332,102.911 204.926,102.87C204.917,102.869 204.909,102.867 204.9,102.867C190.261,101.404 171.932,111.687 168.595,115.044C168.628,115.97 168.704,117.239 168.792,118.732C169.311,127.471 170.275,143.735 167.667,162.387C165.745,176.127 169.945,189.54 179.19,199.187C185.838,206.124 194.405,210.225 203.344,210.93C203.351,210.93 203.357,210.93 203.365,210.931C203.942,210.976 204.52,211.009 205.1,211.026C205.689,211.045 206.281,211.048 206.871,211.036C207.933,206.328 209.797,201.331 211.812,195.926ZM201.415,118.812C200.03,117.877 199.098,116.773 198.742,116.301C197.871,115.146 197.411,114.028 197.513,113.308L197.554,113.12C197.914,111.826 200.111,111.001 203.256,111.001C203.745,111.001 204.246,111.027 204.753,111.068C205.139,111.099 205.527,111.137 205.919,111.191C205.951,111.196 205.978,111.202 206.009,111.207L206.008,111.207C208.069,111.503 209.963,112.087 211.349,112.862C212.816,113.682 213.555,114.63 213.43,115.53C213.196,117.213 209.991,120.323 206.037,120.323C205.699,120.323 205.359,120.3 205.025,120.253C203.613,120.057 202.413,119.482 201.431,118.822C201.425,118.819 201.42,118.815 201.415,118.812ZM337.678,117.403C338.469,112.275 339.212,107.378 339.212,101.87C325.688,100.06 315.9,101.126 309.953,105.018C309.839,105.092 309.721,105.164 309.609,105.241C309.362,105.411 309.128,105.59 308.892,105.77C308.709,105.912 308.529,106.055 308.356,106.204C308.17,106.362 307.987,106.521 307.813,106.686C307.591,106.889 307.389,107.101 307.188,107.314C307.062,107.448 306.93,107.579 306.809,107.716C306.493,108.081 306.189,108.458 305.913,108.854C294.921,124.565 315.842,162.082 324.774,178.103C327.026,182.138 328.652,185.054 329.379,186.823C330.544,189.645 331.843,192.087 333.181,194.259C340.467,180.459 338.828,166.543 337.207,153.044C336.418,146.5 335.676,140.317 335.877,134.137C336.083,127.767 336.895,122.498 337.678,117.403ZM319.496,116.822C315.67,116.822 312.434,113.732 312.206,112.124C312.062,111.054 313.226,109.95 315.147,109.111C315.267,109.059 315.391,109.008 315.515,108.958C316.678,108.494 318.08,108.124 319.626,107.908C320.526,107.783 321.418,107.72 322.276,107.72C325.509,107.72 327.721,108.588 327.911,109.933C328.059,111.015 326.843,113.091 324.912,114.683C324.773,114.796 324.632,114.906 324.488,115.013C323.334,115.875 321.965,116.55 320.493,116.754C320.167,116.799 319.832,116.822 319.496,116.822ZM172.828,214.241C170.83,216.42 168.495,218.997 165.917,221.888C161.16,227.222 155.597,233.606 149.852,240.519C141.217,250.901 135.043,248.839 133.016,248.164C103.224,238.228 77.661,120.463 76.506,97.367C74.928,65.798 82.641,43.754 99.433,31.848C125.217,13.566 166.526,22.928 185.95,28.903C186.076,28.942 186.195,28.979 186.319,29.017C186.985,29.223 187.621,29.424 188.231,29.621C188.367,29.664 188.502,29.707 188.634,29.75C189.362,29.985 190.062,30.215 190.701,30.431C189.993,31.088 189.287,31.751 188.603,32.444C185.948,35.127 183.547,37.989 181.371,40.972C180.929,41.577 180.512,42.195 180.089,42.81C179.837,43.177 179.575,43.54 179.33,43.91C178.934,44.505 178.558,45.107 178.18,45.709C177.929,46.11 177.671,46.509 177.427,46.913C177.064,47.512 176.715,48.118 176.368,48.723C176.132,49.136 175.891,49.549 175.66,49.965C175.324,50.573 174.998,51.185 174.676,51.799C174.455,52.218 174.237,52.638 174.024,53.058C173.711,53.676 173.407,54.295 173.108,54.917C172.906,55.336 172.709,55.756 172.515,56.177C172.223,56.805 171.935,57.435 171.658,58.066C171.479,58.477 171.304,58.888 171.13,59.298C170.856,59.944 170.584,60.591 170.323,61.237C170.169,61.622 170.023,62.007 169.872,62.392C169.611,63.066 169.348,63.741 169.1,64.415C168.981,64.741 168.87,65.066 168.753,65.392C168.492,66.124 168.229,66.857 167.984,67.587C167.954,67.673 167.928,67.759 167.9,67.845C166.994,70.567 166.204,73.267 165.509,75.922C165.444,76.171 165.372,76.422 165.31,76.67C165.133,77.362 164.969,78.046 164.804,78.732C164.726,79.062 164.644,79.394 164.567,79.723C164.416,80.371 164.276,81.013 164.137,81.653C164.059,82.005 163.982,82.359 163.909,82.709C163.778,83.33 163.655,83.943 163.535,84.555C163.464,84.912 163.395,85.27 163.328,85.624C163.214,86.221 163.106,86.813 163.002,87.4C162.94,87.753 162.88,88.104 162.82,88.453C162.722,89.031 162.627,89.605 162.536,90.172C162.483,90.51 162.433,90.843 162.382,91.176C162.297,91.74 162.213,92.301 162.135,92.851C162.09,93.167 162.049,93.476 162.008,93.789C161.935,94.337 161.86,94.886 161.795,95.418C161.76,95.701 161.73,95.973 161.698,96.251C161.633,96.798 161.568,97.349 161.51,97.878C161.497,97.995 161.488,98.106 161.475,98.222C161.336,99.54 161.217,100.799 161.121,101.989C161.114,102.073 161.106,102.164 161.099,102.247C161.064,102.7 161.034,103.127 161.003,103.559C160.984,103.81 160.964,104.071 160.948,104.316C160.922,104.7 160.902,105.063 160.88,105.428C160.863,105.694 160.847,105.966 160.834,106.22C160.815,106.559 160.801,106.88 160.786,107.199C160.774,107.453 160.761,107.709 160.752,107.951C160.74,108.247 160.729,108.53 160.72,108.807C160.711,109.042 160.703,109.275 160.696,109.497C160.689,109.749 160.683,109.994 160.677,110.227C160.671,110.448 160.667,110.66 160.664,110.863C160.66,111.063 160.657,111.263 160.653,111.447C160.651,111.648 160.649,111.834 160.648,112.013C160.648,112.17 160.645,112.33 160.645,112.471L160.645,112.951C160.645,113.057 160.645,113.174 160.646,113.267C160.647,113.424 160.648,113.551 160.65,113.67C160.65,113.722 160.651,113.791 160.651,113.836C160.654,113.981 160.657,114.094 160.659,114.16C160.659,115.303 160.754,116.941 160.888,119.197C161.389,127.661 162.323,143.414 159.824,161.287C159.696,162.206 159.598,163.123 159.516,164.038C159.484,164.386 159.465,164.731 159.441,165.079C159.402,165.63 159.369,166.181 159.347,166.729C159.329,167.176 159.317,167.623 159.312,168.069C159.306,168.486 159.307,168.9 159.31,169.316C159.314,169.848 159.32,170.379 159.339,170.908C159.348,171.137 159.365,171.364 159.376,171.592C159.532,174.634 159.937,177.631 160.593,180.555C160.594,180.566 160.598,180.576 160.599,180.587C162.629,189.593 166.995,197.903 173.474,204.663C174.884,206.133 176.372,207.486 177.918,208.742C177.717,208.957 177.486,209.204 177.258,209.449C177.144,209.571 177.038,209.685 176.917,209.813C176.747,209.996 176.557,210.201 176.373,210.398C176.162,210.624 175.955,210.849 175.728,211.094C175.617,211.212 175.496,211.344 175.38,211.467C175.058,211.816 174.729,212.171 174.377,212.551C174.316,212.618 174.252,212.689 174.189,212.755C173.777,213.202 173.35,213.667 172.901,214.155C172.878,214.186 172.852,214.214 172.828,214.241ZM289.84,18.715C289.86,18.711 289.881,18.708 289.899,18.704C296.016,17.706 303.315,16.94 311.349,16.94C342.394,16.94 366.88,28.11 384.12,50.14C390.849,58.739 390.258,83.427 382.61,113.035C375.123,142.027 361.883,172.899 345.646,199.63C345.588,199.724 345.532,199.818 345.475,199.911C344.254,201.919 343.019,203.908 341.762,205.865C340.991,204.814 340.144,203.746 339.25,202.627C338.925,202.221 338.586,201.799 338.246,201.371C348.928,184.264 346.881,167.203 345.066,152.099C344.316,145.862 343.607,139.971 343.788,134.391C343.976,128.498 344.752,123.471 345.502,118.608C346.461,112.379 347.355,106.465 347.074,99.245C347.26,98.576 347.345,97.77 347.253,96.782C346.608,89.943 338.75,69.42 322.714,50.752C313.548,40.083 299.992,28.086 281.304,20.393C282.099,20.209 282.939,20.024 283.812,19.84C283.861,19.83 283.908,19.819 283.957,19.809C284.835,19.625 285.753,19.444 286.704,19.265C286.742,19.258 286.781,19.25 286.82,19.243C287.791,19.062 288.799,18.885 289.84,18.715ZM228.638,229.501C229.111,231.154 229.634,234.305 227.825,236.84C227.287,237.591 226.735,238.312 226.171,239.013C226.077,239.13 225.978,239.241 225.882,239.357C225.392,239.955 224.892,240.538 224.382,241.098C224.322,241.163 224.26,241.225 224.2,241.292C223.638,241.902 223.063,242.488 222.475,243.055C222.458,243.072 222.441,243.086 222.424,243.102C221.8,243.701 221.162,244.276 220.51,244.824C220.507,244.827 220.502,244.831 220.498,244.835L220.498,244.834C213.561,250.676 205.111,253.641 195.248,253.641C191.051,253.641 186.609,253.075 182.041,251.993C181.76,251.927 181.485,251.879 181.203,251.808C177.196,250.806 173.828,248.841 172.739,247.64C173.542,247.031 175.816,245.753 181.692,244.541C199.769,240.819 202.345,238.405 208.49,230.603C209.924,228.783 211.548,226.72 213.808,224.197C216.689,220.972 218.518,220.972 219.12,220.972C220.224,220.972 221.343,221.398 222.689,221.957C225.22,223.004 227.667,226.107 228.638,229.501Z" style="fill:#fff;fill-rule:nonzero;"/>
                        </g>
                    </g>
                </g>
            </g>
        </g>
    </g>
</svg>
