<?xml version="1.0" encoding="UTF-8" standalone="no"?>
<!DOCTYPE svg PUBLIC "-//W3C//DTD SVG 1.1//EN" "http://www.w3.org/Graphics/SVG/1.1/DTD/svg11.dtd">
<svg width="100%" height="100%" viewBox="0 0 512 512" version="1.1" xmlns="http://www.w3.org/2000/svg" xmlns:xlink="http://www.w3.org/1999/xlink" xml:space="preserve" xmlns:serif="http://www.serif.com/" style="fill-rule:evenodd;clip-rule:evenodd;stroke-linejoin:round;stroke-miterlimit:2;">
    <g transform="matrix(1,0,0,1,-44,-45)">
        <g id="postcss" transform="matrix(2.32458,0,0,2.32458,-317.594,-364.657)">
            <g id="back" transform="matrix(0.430185,0,0,0.430185,125.869,146.545)">
                <path d="M581,191.18C581,123.747 526.253,69 458.82,69L191.18,69C123.747,69 69,123.747 69,191.18L69,458.82C69,526.253 123.747,581 191.18,581L458.82,581C526.253,581 581,526.253 581,458.82L581,191.18Z" style="fill:#131313;"/>
            </g>
            <g transform="matrix(0.162168,0,0,0.162168,265.679,286.355)">
                <g transform="matrix(1,0,0,1,-512,-512)">
                    <g transform="matrix(3.83583,0,0,3.83583,21.015,21.907)">
                        <path d="M255.902,121.097C255.816,117.813 255.643,114.443 255.47,111.159C255.297,107.788 255.211,104.418 254.865,101.048C254.26,96.467 253.655,91.801 252.618,87.307C251.84,83.591 250.544,80.048 249.248,76.505C247.606,72.356 245.964,68.122 243.89,64.147C240.519,57.752 236.112,52.048 232.05,46.085C229.371,42.282 225.915,39.171 223.322,35.283C221.853,33.036 219.692,31.134 217.532,29.406C214.075,26.641 210.445,24.134 206.816,21.715C204.05,19.813 201.285,17.999 198.347,16.357C196.013,15.06 193.507,14.023 191.087,12.9C188.322,11.603 185.643,10.048 182.532,9.443C181.754,9.27 181.063,9.011 180.285,8.752C178.297,8.06 176.396,7.283 174.408,6.678C171.384,5.727 168.446,4.603 165.334,3.826C162.31,3.048 159.199,2.529 156.088,2.097C152.631,1.579 149.088,1.406 145.631,1.06C143.384,0.801 141.137,0.542 138.976,0.455C135.693,0.283 132.322,0.283 129.038,0.196C127.396,0.11 125.668,-0.063 124.026,0.023C121.52,0.11 119.014,0.369 116.507,0.715C114.088,0.974 111.668,1.406 109.334,1.752C106.483,2.097 103.631,2.27 100.779,2.616C98.1,2.962 95.335,3.48 92.656,3.912C91.705,4.085 90.754,4.431 89.804,4.603C87.73,5.036 85.569,5.209 83.495,5.9C79.779,7.023 76.063,8.32 72.433,9.702C69.063,11.085 65.779,12.554 62.582,14.283C59.298,16.097 56.187,18.258 53.075,20.332C50.137,22.319 47.199,24.394 44.347,26.641C41.582,28.801 38.989,31.221 36.483,33.641C35.1,35.023 33.977,36.665 32.68,38.221C30.52,40.727 28.359,43.147 26.285,45.739C24.557,47.9 23.001,50.147 21.36,52.394C18.421,56.369 15.915,60.603 13.582,64.838C12.631,66.566 11.767,68.295 10.903,70.023C9.606,72.616 8.224,75.122 7.014,77.801C6.15,79.616 5.458,81.603 4.94,83.591C3.718,87.843 2.537,92.107 1.397,96.381C0.36,100.183 0.1,104.159 0.014,108.048C-0.073,111.504 0.273,114.875 0.619,118.332C0.705,119.196 0.187,120.233 1.224,120.924C1.31,120.924 1.224,121.27 1.137,121.356C0.878,121.875 1.137,122.393 1.656,122.566C1.656,122.566 1.742,122.653 1.742,122.739L1.31,122.739C1.051,123.517 1.915,124.122 1.569,124.986C1.483,125.159 1.829,125.504 2.001,125.764C2.001,126.023 1.915,126.369 2.001,126.628C2.088,127.406 2.434,128.183 2.434,129.048C2.434,129.653 2.952,130.344 3.125,130.949C3.211,131.208 3.125,131.64 2.952,131.813C2.434,132.418 2.52,132.937 3.298,133.282C3.471,133.369 3.73,133.714 3.73,133.887C3.73,134.406 3.557,134.924 3.471,135.443C3.643,135.616 3.73,135.788 3.643,135.961C3.643,136.22 3.384,136.48 3.471,136.653C4.162,138.035 4.421,139.591 4.508,141.146C4.508,141.492 4.681,141.838 4.853,142.27C4.94,142.27 5.199,142.27 5.372,142.356L4.853,143.912C5.285,143.652 5.631,143.566 6.063,143.393C6.322,144.517 6.582,145.554 6.927,146.504C7.014,146.677 7.187,146.85 7.446,147.023C7.359,147.196 7.359,147.541 7.187,147.628C7.532,149.183 7.705,150.653 8.31,152.122C8.397,152.122 8.483,152.035 8.569,152.035C8.31,150.48 8.137,148.838 7.878,147.282L7.878,146.764C7.878,146.764 8.051,146.677 8.137,146.677C8.224,147.023 8.397,147.455 8.397,147.714C9.088,147.714 10.125,148.146 10.816,148.146C10.903,147.887 10.989,147.541 11.076,147.369C10.557,146.85 10.125,146.072 9.606,145.554C9.779,146.245 9.606,146.504 9.606,146.764C9.21,146.575 8.807,146.402 8.397,146.245C8.742,145.813 9.088,145.381 9.606,144.862C9.606,144.085 9.174,143.393 7.964,143.48C8.483,143.307 9.002,143.048 9.606,142.875C9.693,143.134 9.779,143.393 9.866,143.566C10.557,142.356 9.52,141.406 9.52,140.196C9.606,138.727 8.742,137.258 8.483,135.702C8.051,133.282 8.137,129.653 7.878,127.233C7.878,127.06 7.619,126.887 7.446,126.714C7.359,126.801 6.927,127.924 6.841,128.011C7.1,130.085 7.359,132.159 7.532,134.233C7.446,134.233 7.359,134.233 7.359,134.319C7.014,132.504 6.668,130.603 6.236,128.529C6.15,129.134 6.063,129.393 6.063,129.739C5.804,129.653 5.718,129.566 5.285,129.393C5.631,130.171 5.977,130.69 6.236,131.295C5.631,131.035 4.94,131.122 4.94,131.122L4.94,133.541C4.076,132.677 3.816,131.986 3.384,131.381C3.211,130.69 3.125,129.998 2.952,129.307L3.211,129.22C3.125,128.875 2.952,128.615 2.952,128.356C2.855,127.666 2.769,126.975 2.693,126.282C2.779,126.196 3.125,126.109 3.298,125.937L2.606,124.9C3.298,124.986 3.73,125.072 4.162,125.072C4.162,124.9 4.248,124.813 4.162,124.727C3.298,123.949 3.903,123.257 4.248,122.566C4.421,122.22 5.026,122.134 5.199,121.788C5.89,120.492 7.014,119.455 7.014,117.813C7.014,117.035 7.273,116.171 7.359,115.393C7.532,113.924 7.705,112.455 7.792,110.986C7.964,109.085 7.792,107.183 8.224,105.369C8.915,102.344 9.779,99.319 10.73,96.295C11.421,94.134 12.199,92.06 13.063,89.9C14.36,86.529 15.569,83.159 17.211,79.961C19.545,75.295 22.224,70.801 24.816,66.221C26.458,63.369 28.187,60.69 30.001,57.924C31.73,55.245 33.458,52.48 35.446,49.974C38.211,46.431 41.236,43.147 44.606,40.208C48.063,37.097 51.347,33.9 55.063,31.048C59.903,27.332 65.001,24.048 70.446,21.196C74.853,18.863 79.433,17.048 84.014,15.319C86.952,14.196 90.149,13.678 93.174,12.727C96.631,11.603 100.088,11.085 103.717,10.998C106.051,10.912 108.298,10.653 110.631,10.394C112.705,10.221 114.779,10.048 117.026,9.789C116.858,10.003 116.713,10.235 116.594,10.48C115.643,11.863 114.606,13.245 113.656,14.628C112.878,15.752 112.014,16.961 111.236,18.085C109.853,19.9 108.384,21.715 107.088,23.616C105.1,26.468 103.285,29.406 101.211,32.258C99.137,35.023 96.89,37.616 94.73,40.295C91.878,44.011 89.199,47.813 86.347,51.529C83.754,55.073 80.989,58.443 78.483,61.986C76.236,65.097 74.248,68.381 72.088,71.579C68.89,76.332 65.693,80.998 62.495,85.751C59.989,89.372 57.454,92.974 54.89,96.554C54.717,96.813 54.458,96.9 54.199,97.072C54.026,97.245 53.68,97.418 53.68,97.591C53.508,98.196 53.508,98.801 53.248,99.319C52.557,100.616 51.866,101.912 51.088,103.122C50.656,103.813 50.051,104.418 49.532,105.109C49.359,105.023 49.273,104.937 49.1,104.937C49.446,104.072 50.915,103.554 50.224,102.258C49.792,102.949 49.359,103.554 48.927,104.245L47.89,106.319C48.236,106.579 48.841,106.751 48.236,107.27C47.977,107.702 47.717,108.22 47.458,108.653C47.545,108.653 47.545,108.739 47.631,108.739C47.89,108.393 48.15,108.134 48.409,107.788C48.495,107.788 48.582,107.875 48.668,107.875C48.409,108.739 47.89,109.517 47.458,110.295C47.112,110.986 46.248,111.504 45.643,112.023C45.73,112.109 46.335,112.369 46.421,112.455C46.68,112.109 46.767,112.282 47.026,111.937C47.199,112.196 47.458,111.764 47.545,112.023C47.804,111.677 48.063,111.418 48.15,111.159C48.495,110.295 49.014,109.603 49.878,109.258C50.224,109.085 50.483,108.825 50.742,108.566C53.335,105.887 56.014,103.295 58.347,100.443C61.977,96.035 65.261,91.455 68.717,86.961C70.187,85.06 71.915,83.159 73.47,81.344C73.643,81.431 73.816,81.431 73.903,81.517C73.73,83.332 73.557,85.233 73.47,87.048C73.211,90.245 73.038,93.443 72.779,96.727C72.693,98.023 72.779,99.319 72.693,100.616C72.693,100.961 72.433,101.22 72.433,101.566C72.433,102.43 72.693,103.381 72.693,104.245C72.433,107.443 72.088,110.554 71.828,113.751C71.742,114.443 72.088,115.134 72.261,115.739C72.174,115.653 72.088,115.566 71.828,115.393C71.828,120.406 72.779,125.332 72.001,130.258C72.347,130.171 72.52,130.085 72.52,129.912C72.606,129.307 72.779,128.702 72.779,128.097C72.866,127.579 72.779,127.06 72.779,126.455L72.779,125.591C72.866,124.035 73.211,122.393 73.038,120.838C72.866,119.109 72.866,117.467 73.211,115.825C73.384,115.134 73.125,114.27 73.557,113.406L73.557,114.702C73.47,119.628 73.643,124.554 72.952,129.48C72.866,129.912 73.211,130.69 72.261,130.603C72.174,130.603 72.088,131.035 71.915,131.295C71.483,132.159 72.433,133.282 71.569,134.146C71.396,134.319 71.742,135.097 71.828,135.616C71.828,135.788 71.915,135.961 71.828,136.048C71.483,136.653 71.483,136.653 72.001,136.739C72.088,138.64 72.261,140.369 72.347,142.183L72.606,142.183C73.73,138.899 73.038,135.529 73.643,132.159C73.73,133.541 73.816,134.924 73.73,136.393C73.73,138.64 73.643,140.801 73.557,143.048C73.557,143.48 73.47,143.912 73.384,144.344C73.125,145.554 73.038,146.764 72.606,147.887C72.261,148.751 72.433,150.048 72.433,151.085L72.433,154.368C72.433,154.455 72.693,154.714 72.693,155.06C72.779,155.838 72.347,156.616 72.606,157.48C72.693,157.653 72.52,157.912 72.433,158.085C72.347,158.344 72.261,158.603 72.347,158.862L72.606,160.159C72.606,160.245 72.693,160.332 72.779,160.504C72.866,160.159 72.866,159.899 72.866,159.813C74.335,159.986 73.557,161.282 74.248,161.974C73.903,162.146 73.643,162.233 73.643,162.319C73.73,162.665 73.903,162.924 73.903,163.27C73.903,164.047 73.816,164.739 73.73,165.517C73.73,167.504 73.643,169.492 73.643,171.393C73.643,171.652 73.73,171.912 73.73,172.171C73.73,172.344 73.643,172.517 73.643,172.776L73.643,174.591L73.989,174.591C73.816,174.85 73.643,175.109 73.384,175.368C73.298,175.368 73.038,175.368 73.038,175.282L73.038,164.393L71.742,164.393C71.569,169.578 72.001,174.245 71.051,179.084C70.014,179.171 69.668,179.344 68.545,179.344C65.866,179.344 63.187,179.344 60.508,179.43C57.31,179.43 54.199,179.517 51.001,179.517C49.446,179.517 47.804,179.689 46.248,179.689C44.174,179.689 42.014,179.43 39.94,179.43C36.742,179.43 33.631,179.689 30.434,179.776C28.1,179.862 25.767,179.862 23.434,179.949C21.878,180.035 20.322,180.122 18.767,180.294C18.076,180.381 17.471,180.64 16.606,180.899C16.347,180.899 15.742,180.813 15.224,180.899C14.36,181.072 13.582,181.591 12.718,181.763C11.421,182.023 11.076,182.368 11.248,183.665L11.248,184.529C11.068,184.357 10.864,184.211 10.643,184.097C10.557,184.097 10.471,184.183 10.471,184.183C10.557,184.442 10.73,184.615 10.816,184.875C11.162,184.702 11.594,184.27 11.94,184.27L13.15,184.27C12.977,184.27 12.89,184.788 12.631,185.22C13.152,185.025 13.671,184.823 14.187,184.615C14.273,184.875 14.273,185.22 14.273,185.307C15.483,185.22 16.606,184.875 17.643,185.134C21.014,185.998 24.471,186.344 27.927,186.689C30.174,186.862 32.335,186.949 34.582,187.035C37.779,187.208 40.977,187.381 44.174,187.381C46.853,187.381 49.446,187.122 52.125,187.122C55.841,187.122 59.557,187.294 63.273,187.381C64.051,187.381 64.915,187.294 65.779,187.294L72.088,187.294C77.705,187.122 83.322,187.035 88.94,186.862C92.137,186.776 95.421,186.603 98.619,186.517L108.47,186.257C112.273,186.171 116.075,186.171 119.791,186.084C122.643,186.084 125.409,185.998 128.26,185.912C131.458,185.825 134.742,185.566 137.939,185.393C139.668,185.307 141.396,185.134 143.125,184.961C145.199,184.788 147.359,184.529 149.433,184.442C152.544,184.27 155.742,184.183 158.853,184.01C162.742,183.751 166.631,183.405 170.606,183.319C174.236,183.146 177.952,183.233 181.581,183.146C184.779,183.06 187.976,182.887 191.26,182.801L196.705,182.541C196.705,182.541 200.334,182.455 202.149,182.282C205.26,182.109 208.371,181.763 211.482,181.677C213.47,181.591 215.458,181.677 217.445,181.591C220.643,181.504 223.927,181.331 227.124,181.331C228.334,181.331 229.631,181.504 231.186,181.591C230.495,182.196 230.063,182.541 229.544,182.973C229.89,183.06 230.235,183.233 230.581,183.405C230.581,183.492 230.495,183.578 230.495,183.751C230.063,183.751 229.631,183.838 229.198,183.838C229.026,184.27 228.853,184.442 228.68,185.307L230.235,185.307C229.631,185.307 229.112,186.084 228.507,186.603C228.594,186.689 228.68,186.689 228.766,186.776C227.816,186.43 227.211,186.603 226.865,187.554C227.124,187.64 227.297,187.64 227.556,187.64C227.47,187.899 227.384,188.159 227.297,188.504C227.211,188.677 227.124,188.85 227.124,189.109L226.865,188.85C226.865,188.677 226.865,188.504 226.779,188.331C226.26,188.85 225.482,189.196 225.914,190.319C225.569,190.492 225.137,190.665 224.705,190.924C224.791,191.097 224.964,191.27 225.05,191.529C224.273,191.615 223.495,191.788 223.668,192.739C224.013,192.825 224.359,192.998 224.618,193.084C224.186,193.257 223.754,193.516 223.322,193.689C223.235,193.862 223.149,194.294 222.976,194.381C221.766,194.64 222.458,195.072 222.803,195.504C222.544,195.677 222.285,195.85 222.026,195.936C222.285,196.023 222.458,196.109 222.631,196.282C222.371,196.455 222.198,196.541 222.026,196.628C222.198,196.714 222.458,196.887 222.544,196.887C222.198,197.146 221.766,197.492 221.248,197.924C221.248,198.097 221.248,198.183 221.334,198.356C220.989,198.702 220.643,199.047 220.297,199.566C219.952,200.084 219.779,200.776 219.347,201.294C217.532,203.282 216.235,205.615 213.902,207.171C213.038,207.776 212.26,208.553 211.482,209.331C209.927,210.8 208.544,212.442 206.902,213.825C204.742,215.64 202.495,217.282 200.161,218.924C197.31,220.911 194.458,222.899 191.606,224.8C190.05,225.837 188.322,226.615 186.68,227.566C185.038,228.516 183.483,229.381 181.84,230.331C180.803,231.023 179.853,231.973 178.729,232.492C175.877,233.702 172.853,234.739 169.915,235.862C169.655,235.948 169.483,236.035 169.223,236.121C167.063,237.072 164.989,238.109 162.828,238.887C160.84,239.578 158.767,240.097 156.692,240.529C156.001,240.702 155.223,240.529 154.446,240.615C152.976,240.874 151.507,241.22 150.038,241.393C146.236,241.912 142.433,242.257 138.631,242.776C136.384,243.035 134.223,243.467 131.976,243.726C130.421,243.813 128.779,243.64 127.223,243.64C126.1,243.64 124.89,243.899 123.766,243.726C121.952,243.467 120.137,243.035 118.322,242.689C117.89,242.603 117.285,242.43 116.939,242.603C116.248,242.948 115.643,242.43 114.952,242.603C114.52,242.689 114.088,242.344 113.655,242.344C113.31,242.257 112.878,242.43 112.446,242.344C111.495,242.084 110.631,241.739 109.594,241.825C108.557,241.912 107.52,241.393 106.396,241.134C104.841,240.788 103.372,240.442 101.816,240.097C101.211,239.924 100.693,239.665 100.088,239.319C99.915,239.405 99.655,239.578 99.31,239.578C97.841,239.319 96.372,239.233 94.989,238.714C93.779,238.282 92.656,237.677 91.359,237.85C91.014,237.936 90.754,237.763 90.409,237.763C90.149,237.418 89.89,236.726 89.631,236.726C87.902,236.813 86.865,235.344 85.396,234.912C84.618,234.652 84.014,233.788 83.236,233.529C81.335,232.751 79.779,231.109 77.619,230.85C76.927,230.763 76.236,230.418 75.458,230.158C75.717,230.504 75.89,230.763 76.149,231.023L75.976,231.195C73.643,229.813 71.31,228.43 68.977,227.134C68.631,227.047 68.372,226.702 68.112,226.529L65.779,224.973C65.52,224.8 65.001,224.541 65.001,224.627C64.483,225.233 63.964,224.714 63.619,224.541C61.285,222.899 58.606,221.862 56.359,220.047C55.409,219.27 54.285,218.751 53.594,217.8C52.384,216.331 50.915,215.294 49.273,214.43C47.977,213.739 46.767,212.961 45.557,212.183C44.952,211.751 44.347,211.233 44.347,210.282C44.347,209.677 44.088,209.072 43.31,209.418C42.964,208.899 42.619,208.294 42.187,208.121C41.15,207.689 40.458,206.912 39.68,206.22C38.903,205.529 38.298,204.578 37.347,204.233C35.619,203.541 34.582,202.072 33.545,200.862C31.125,198.01 28.964,194.899 26.717,191.874C26.545,191.615 26.199,191.442 25.94,191.183L25.853,191.27C26.285,192.134 26.717,192.912 27.15,193.776C27.063,193.862 26.89,193.949 26.804,194.035C26.285,193.43 25.68,192.825 25.162,192.22C25.075,192.307 24.989,192.393 24.903,192.393L31.125,202.245C31.643,203.023 32.075,203.8 32.594,204.578C32.495,204.685 32.378,204.772 32.248,204.837C31.298,204.665 30.434,203.973 30.001,203.195C29.224,201.813 28.359,200.949 26.631,201.121C26.458,200.516 26.285,199.825 26.199,199.22C25.853,199.22 25.594,199.22 24.989,199.134C26.199,201.035 27.236,202.677 28.359,204.578C27.927,204.319 27.668,204.146 27.495,204.06C29.051,205.702 30.174,207.776 32.162,208.813C32.594,210.8 34.841,211.751 35.359,213.652C34.927,213.566 34.582,213.479 34.15,213.393C33.458,212.529 32.68,211.665 31.903,210.714C32.076,211.319 32.335,211.837 32.68,212.27C33.717,213.566 34.668,214.862 35.878,215.986C36.31,216.418 36.915,216.591 36.915,217.368C37.088,217.195 37.261,217.109 37.606,216.936C37.433,217.282 37.347,217.455 37.261,217.714C37.606,217.714 37.866,217.8 38.125,217.8C38.298,218.319 38.038,219.097 39.075,218.924C39.162,218.924 39.248,219.01 39.335,219.097C39.767,220.22 40.458,220.22 41.409,219.788C41.582,219.702 42.014,219.788 42.1,219.961C42.532,220.911 43.137,220.998 43.915,220.307C43.915,220.739 44.001,221.171 44.001,221.516L44.347,221.516C44.347,221.344 44.261,221.084 44.261,220.652C44.693,220.998 44.952,221.171 45.125,221.344C45.989,222.553 46.767,223.677 47.977,224.627C49.619,226.01 51.088,227.479 52.643,228.776C55.668,231.282 59.038,233.356 62.409,235.257C66.557,237.59 70.532,240.097 74.767,242.343C79.865,245.023 85.31,246.837 90.927,248.134C93.001,248.566 94.989,248.998 97.063,249.516C98.878,250.035 100.693,250.813 102.507,251.245C105.273,251.85 108.125,252.368 110.89,252.887C111.495,252.973 112.1,253.06 112.791,253.146L112.791,253.319C113.569,253.319 114.52,252.973 114.693,253.232C115.125,253.924 115.47,253.578 115.989,253.492C116.594,253.319 117.285,253.319 117.976,253.319C120.396,253.405 122.729,253.924 125.149,253.751C125.668,253.751 126.446,253.319 126.878,254.183C127.051,254.096 127.137,254.01 127.31,253.924C127.655,253.837 128.088,253.837 128.433,253.751L128.433,253.924C128.26,254.01 128.088,254.01 127.742,254.097C128.174,254.183 128.433,254.269 128.693,254.356C128.52,254.529 128.433,254.529 128.26,254.615C128.088,254.701 127.828,254.788 127.483,255.047C130.594,255.652 133.532,255.739 136.125,255.047L136.125,254.529L136.47,254.529C136.47,254.701 136.557,254.874 136.643,255.047C140.618,255.393 144.507,254.874 148.223,253.578C148.569,254.01 148.828,254.615 149.347,253.751C149.52,253.492 149.952,253.405 150.297,253.319C151.075,253.146 152.026,252.8 152.717,253.06C153.495,253.319 153.754,252.627 154.359,252.627C155.344,252.631 156.328,252.545 157.297,252.368C157.816,252.282 158.334,252.022 158.939,251.85C158.939,251.763 158.939,251.677 158.853,251.59C158.248,251.504 157.557,251.418 157.038,251.418C158.075,250.899 159.026,250.467 159.976,250.035C159.976,250.121 160.063,250.121 160.063,250.208C159.803,250.294 159.631,250.64 159.285,250.64L160.495,250.64C160.236,250.64 159.89,251.418 159.458,251.936C162.569,251.158 165.421,250.467 168.186,249.776L168.186,249.603C167.841,249.689 167.581,249.689 167.322,249.776C167.236,247.961 169.223,248.566 169.915,247.529C169.05,247.788 168.186,248.047 167.322,248.22L167.322,248.047C170.26,246.751 173.285,245.455 176.223,244.158C176.223,244.245 176.31,244.245 176.31,244.331C175.791,244.677 175.273,244.936 174.495,245.368C175.013,245.455 175.359,245.455 175.618,245.541C175.618,245.8 175.618,245.973 175.532,246.06C177.001,245.973 176.655,244.677 177.087,243.899C177.347,243.985 177.692,244.158 177.952,244.072C178.729,243.899 179.421,243.64 180.198,243.381C181.063,243.121 181.927,242.862 182.791,242.516C184.174,241.911 185.47,241.134 186.853,240.442C187.112,240.356 187.544,240.442 187.89,240.442C188.149,240.442 188.322,240.269 188.495,240.097C188.84,239.837 189.186,239.319 189.445,239.405C190.655,239.578 191.519,239.146 191.865,238.023C191.952,238.023 191.952,237.936 192.038,237.936C192.47,237.591 192.902,237.245 193.334,236.985C195.236,235.948 197.05,234.912 198.952,233.874C199.038,233.788 199.211,233.874 199.384,233.874C199.643,233.874 199.989,233.874 200.161,233.788C201.285,233.269 202.322,232.665 203.359,232.06C203.1,231.973 203.359,231.887 202.495,231.8L202.495,231.627C203.359,231.455 203.618,231.368 204.137,231.195L203.964,231.023C206.211,228.776 209.063,227.134 211.223,225.233C211.655,225.319 211.828,225.405 212.087,225.405C212.174,225.146 212.174,224.887 212.174,224.714C212.519,224.282 212.865,223.763 213.297,223.418C215.198,221.689 217.273,220.22 219.001,218.405C221.507,215.899 223.927,213.307 226.174,210.628C228.248,208.208 230.322,205.788 232.05,203.109C234.47,199.393 236.544,195.591 238.704,191.702C240.26,188.936 241.643,186.171 243.198,183.405C243.371,183.146 243.717,182.801 243.976,182.801C246.309,182.541 248.643,182.368 250.89,182.109C251.408,182.023 252.013,181.677 252.532,181.418C252.272,180.986 252.099,180.467 251.84,180.035C251.495,179.516 250.976,179.084 250.63,178.566C250.285,178.134 250.026,177.615 249.766,177.097C249.507,176.665 249.248,176.319 248.988,175.887C248.47,174.936 247.951,173.986 247.519,172.949C247.433,172.689 247.26,172.257 247.346,171.998C248.902,168.628 249.507,164.998 250.976,161.628C252.445,158.171 252.877,154.282 253.569,150.566C254.174,147.023 254.519,143.48 254.951,139.936C255.211,137.43 255.556,135.01 255.643,132.504C256.161,128.529 255.988,124.813 255.902,121.097M38.643,217.541C38.039,216.85 37.52,216.072 36.915,215.381L37.174,215.121C38.125,216.159 39.076,217.195 40.026,218.319C39.508,218.06 38.903,217.887 38.643,217.541M40.026,218.319C40.285,218.233 40.545,218.233 40.804,218.146C41.063,218.578 41.236,219.097 41.495,219.615C40.285,219.529 39.68,219.01 40.026,218.319M129.902,254.01L129.902,253.751C131.544,253.578 133.1,253.405 134.742,253.233L134.742,253.492C133.139,253.75 131.523,253.923 129.902,254.01M151.68,251.763C150.47,252.023 149.174,252.195 147.964,252.368C147.532,252.455 147.014,252.887 146.841,252.109C146.668,252.195 146.495,252.195 146.322,252.282C146.754,253.578 147.791,252.541 148.655,253.06C146.754,253.319 144.939,253.492 143.125,253.751L143.125,253.578C143.643,253.492 144.248,253.405 144.767,253.319L144.767,253.06C143.902,252.973 143.038,252.887 142.174,252.887C141.915,252.887 141.569,253.233 141.31,253.319C140.964,253.405 140.618,253.492 140.186,253.492C138.717,253.578 137.248,253.578 135.865,253.665C135.779,253.665 135.606,253.578 135.52,253.578L135.52,253.319C141.31,252.541 147.014,251.763 152.804,250.986C152.89,251.158 152.89,251.331 152.976,251.504C152.458,251.504 152.112,251.677 151.68,251.763M152.976,250.899C154.964,250.64 156.779,250.467 158.68,250.208C154.705,251.331 153.409,251.504 152.976,250.899M77.705,76.418C80.471,72.616 83.322,68.813 86.088,64.924C86.952,63.801 87.643,62.591 88.508,61.468C88.767,61.122 89.112,60.949 89.545,60.603L89.458,60.431C89.804,59.998 90.149,59.653 90.322,59.307C90.754,58.616 91.014,57.838 91.359,57.06C91.446,56.887 91.705,56.715 91.705,56.715C92.915,57.319 92.915,56.023 93.347,55.591C94.121,54.72 94.871,53.826 95.594,52.912C96.112,52.221 96.631,51.616 97.063,50.838C97.149,50.579 96.89,50.147 96.804,49.801L96.545,49.801C96.804,49.628 97.063,49.369 97.322,49.196C97.409,49.196 97.409,49.196 97.495,49.11C98.014,48.332 98.532,47.554 99.051,46.863C100.088,45.48 101.211,44.097 102.421,42.887C102.248,43.319 102.075,43.752 101.903,44.097C101.989,44.097 101.989,44.184 102.075,44.184C103.112,42.801 104.236,41.505 105.273,40.122C105.186,40.036 105.1,39.949 105.014,39.949C104.582,40.381 104.236,40.813 103.804,41.245C103.717,41.159 103.631,41.073 103.544,41.073C104.409,39.949 105.273,38.826 106.137,37.529C106.31,37.789 106.483,38.134 106.828,38.826C107.174,37.961 107.52,37.356 107.779,36.752C107.52,37.011 107.174,37.27 106.915,37.529L106.655,37.27L108.211,34.937C109.853,32.603 111.495,30.184 113.137,27.85C113.742,26.986 114.52,26.295 115.038,25.431C116.68,22.147 119.273,19.554 121.26,16.529C121.693,15.925 122.297,15.406 122.816,14.887C123.248,14.369 123.594,14.542 123.94,14.974C126.273,17.912 128.606,20.937 130.939,23.875C132.668,26.036 134.396,28.11 136.038,30.356C138.026,33.122 139.927,35.887 141.915,38.653C144.162,41.85 146.409,45.048 148.569,48.332C151.853,53.171 154.964,58.011 158.248,62.85C160.668,66.394 163.088,69.85 165.421,73.394L161.013,73.394C156.952,73.307 152.804,72.961 148.742,73.134C143.211,73.394 137.594,73.998 132.063,74.43C125.063,75.035 117.976,75.122 110.977,75.122C108.47,75.122 105.964,75.467 103.458,75.64C100.433,75.813 97.495,75.986 94.47,76.073C90.927,76.245 87.47,76.332 83.927,76.418C81.94,76.505 79.865,76.418 77.705,76.418M176.828,116.171L176.828,116.949C176.742,116.949 176.655,117.035 176.482,117.035C176.137,115.825 175.791,114.529 175.359,113.319C174.495,110.813 173.544,108.307 171.989,106.06C170.26,103.64 168.705,101.134 166.976,98.628C166.544,98.023 165.939,97.504 165.421,96.986C163.606,94.998 161.791,92.924 159.458,91.455C156.001,89.295 152.458,87.48 148.655,85.924C147.618,85.492 146.668,84.974 145.631,84.369L147.705,84.369L162.483,84.11C165.68,84.023 168.791,84.023 171.989,83.85C172.767,83.85 173.199,84.11 173.631,84.801C174.409,86.097 175.186,87.393 176.05,88.69C176.137,88.862 176.31,89.122 176.31,89.381C176.31,91.282 176.31,93.27 176.396,95.171C176.483,97.159 176.655,99.06 176.742,101.048C176.742,103.035 176.569,105.109 176.655,107.183C176.742,110.122 176.828,113.146 176.828,116.171M83.841,87.221C87.903,87.048 91.791,86.788 95.767,86.616C98.878,86.443 102.075,86.356 105.186,86.184C106.483,86.097 107.693,86.011 108.989,86.184C107.606,86.875 106.224,87.566 105.014,88.431C103.458,89.467 101.989,90.85 100.433,91.974C98.878,93.097 97.495,94.48 96.199,95.949C94.557,97.937 92.742,99.665 91.014,101.566C89.804,102.949 88.421,104.245 87.384,105.714C85.915,107.616 84.619,109.69 83.236,111.85C83.668,103.64 84.187,95.517 83.841,87.221M140.273,170.356C137.507,171.047 134.656,171.825 131.804,172.171C129.384,172.517 126.878,172.43 124.372,172.43C122.125,172.43 119.964,172.344 117.717,172.171C115.211,171.912 112.705,171.652 110.285,170.529C108.211,169.578 106.051,168.714 103.977,167.677C101.903,166.64 99.828,165.43 98.273,163.529C97.149,162.146 95.594,161.023 94.211,159.813C94.462,160.854 95.115,161.755 96.026,162.319C95.594,162.838 94.989,162.578 94.125,161.196C93.866,161.368 93.606,161.455 93.433,161.541C93.693,160.936 93.952,160.332 94.211,159.813C93.866,159.122 93.433,158.344 93.088,157.653C92.393,156.52 91.73,155.367 91.1,154.196C90.927,153.936 90.927,153.677 90.754,153.418C90.322,152.899 89.89,152.381 89.545,151.862C88.853,150.825 88.248,149.702 87.384,148.665C87.384,148.924 87.47,149.183 87.47,149.529C87.384,149.529 87.298,149.615 87.298,149.615L85.483,145.208C85.396,145.208 85.396,145.208 85.31,145.295L86.866,150.998C86.779,150.998 86.693,151.085 86.606,151.085C86.347,150.739 86.088,150.393 85.915,149.961C85.742,149.27 85.224,149.27 84.791,149.529C84.532,149.702 84.359,150.307 84.446,150.566C85.051,152.035 85.742,153.504 86.433,154.974C86.606,155.492 86.779,155.924 87.038,156.443C87.125,156.616 87.384,156.788 87.384,157.048C87.73,157.739 87.989,158.43 88.421,159.035C89.199,160.072 90.063,161.109 90.841,162.146C91.619,163.183 92.31,164.307 93.001,165.344C93.088,165.517 93.347,165.517 93.433,165.603C93.866,166.899 95.335,167.85 96.372,167.332C96.631,169.319 98.791,170.011 99.656,171.912C98.808,171.566 97.972,171.191 97.149,170.788C97.063,170.875 97.063,170.961 96.977,171.134C98.014,171.652 99.051,172.171 100.001,172.776C100.865,173.294 101.73,173.813 102.507,174.418C103.545,175.368 104.754,175.887 106.224,176.233C106.137,175.973 106.051,175.887 106.051,175.887C108.341,176.951 110.617,178.045 112.878,179.171C103.89,179.344 94.298,179.517 84.359,179.689C84.359,178.047 84.273,176.492 84.273,174.85C84.273,174.159 84.446,173.554 84.359,172.862C84.1,168.887 84.1,164.912 83.582,161.023C83.063,156.875 83.063,152.813 83.15,148.665C83.236,146.418 83.063,144.085 82.977,141.838C82.977,138.813 82.977,135.875 83.063,132.85C83.063,132.418 83.236,132.072 83.409,131.64L83.668,131.64C83.754,131.813 83.668,132.072 83.841,132.159C84.1,132.418 84.532,132.85 84.705,132.764C85.224,132.418 86.001,132.072 86.174,131.554C86.606,130.517 86.779,129.393 86.779,128.356C86.779,127.579 87.125,127.06 87.47,126.541C87.643,126.282 87.73,126.023 87.903,125.677C87.557,125.418 87.211,125.245 86.779,124.9C87.125,123.949 87.038,122.825 88.335,122.307C88.508,122.22 88.508,121.788 88.594,121.529C88.68,120.838 88.767,120.06 88.853,119.369C89.026,119.628 89.112,119.714 89.285,119.887C89.372,119.714 89.458,119.628 89.458,119.628C89.458,119.282 89.372,118.591 89.458,118.591C90.495,118.418 90.063,117.295 90.582,116.776C90.668,116.69 90.495,116.43 90.495,116.258C90.495,116.086 90.495,115.825 90.582,115.825C91.791,115.566 91.619,114.27 92.396,113.665C92.656,113.492 92.742,113.233 93.088,112.801C93.779,114.011 92.569,114.616 92.483,115.48C93.952,114.616 94.384,112.542 93.52,111.937C93.866,111.677 94.211,111.332 94.47,110.986C95.421,109.949 96.458,108.998 97.322,107.961C97.927,107.183 98.273,106.233 98.878,105.455C99.224,105.023 99.915,104.677 100.433,104.418C101.989,103.554 103.458,102.603 104.409,101.134C104.582,100.961 104.841,100.788 105.1,100.616C105.359,100.444 105.878,100.443 105.964,100.183C106.051,100.011 105.791,99.579 105.618,99.319C105.964,99.146 106.31,98.801 107.001,98.455C106.742,98.974 106.656,99.319 106.483,99.665L106.915,100.097C107.693,99.492 108.903,98.801 109.68,98.282C109.68,98.196 109.248,97.85 109.248,97.85C108.73,98.11 107.952,98.542 107.174,98.887C107.347,98.628 107.347,98.455 107.433,98.369C108.643,97.591 109.853,96.813 111.149,96.208C114.174,94.825 117.199,93.443 120.223,92.146C120.742,91.887 121.433,92.06 122.038,92.06C122.297,92.06 122.47,92.06 122.73,91.974C124.112,91.542 125.495,91.11 126.878,90.764C127.497,90.593 128.137,90.506 128.779,90.505C131.372,90.591 133.964,90.591 136.557,90.764C137.68,90.85 138.717,91.11 139.754,91.455C141.051,91.887 142.433,92.492 143.643,93.097C145.103,93.879 146.517,94.745 147.878,95.69C150.384,97.332 152.717,99.146 155.223,100.616C157.643,102.085 159.544,104.072 161.1,106.319C163.001,108.998 165.162,111.418 166.026,114.702L167.322,120.406C167.581,121.443 168.186,122.48 167.927,123.69C167.495,125.85 167.149,128.097 166.804,130.258C166.631,131.122 166.458,131.986 166.544,132.85C166.717,135.529 165.68,137.862 164.643,140.282C164.297,141.06 163.779,141.838 163.347,142.702C163.433,142.788 163.952,143.048 164.038,143.048L164.816,141.492C164.902,141.492 164.902,141.492 164.989,141.579C164.557,142.788 164.211,144.085 163.779,145.295C162.742,147.974 161.705,150.739 160.409,153.332C159.717,154.801 158.507,156.011 157.643,157.393C156.779,158.603 156.088,159.899 155.223,161.023C154.446,161.974 153.668,162.924 152.631,163.616C150.297,165.344 147.878,167.072 145.372,168.455C143.816,169.406 142.001,169.924 140.273,170.356M94.211,165.776L94.125,165.862C93.952,165.776 93.693,165.689 93.52,165.517L91.446,162.406C91.273,162.146 91.187,161.887 91.273,161.541C92.203,162.986 93.183,164.399 94.211,165.776M147.964,177.615C151.853,175.973 155.051,173.64 157.989,170.961C158.421,170.529 158.853,170.097 159.372,169.751C163.001,167.504 165.68,164.393 168.1,160.936C170.865,156.961 172.68,152.467 174.927,148.233C175.1,147.887 175.273,147.541 175.446,147.282C175.273,157.134 176.396,166.813 177.692,176.578C167.927,176.924 157.989,177.27 147.964,177.615M235.594,175.023C235.507,175.196 235.334,175.368 235.248,175.541C235.161,175.368 235.161,175.109 235.075,174.764C234.556,176.146 233.433,175.455 232.655,175.455C227.989,175.541 223.236,175.541 218.569,175.541C214.075,175.541 209.495,175.541 205.001,175.628C203.532,175.628 201.976,175.973 200.507,176.06C196.964,176.233 193.421,176.319 189.878,176.405C189.618,176.405 189.359,175.973 188.927,175.628C188.841,175.801 188.668,176.06 188.408,176.405C188.322,176.233 188.149,176.06 187.976,175.801C187.904,176.036 187.817,176.267 187.717,176.492L187.458,176.492C187.285,175.282 186.939,174.159 186.939,172.949C186.939,170.356 187.198,167.764 187.285,165.171C187.371,163.961 187.285,162.838 187.285,161.714C187.631,161.974 187.89,162.146 188.236,162.406C188.408,162.06 188.581,161.801 188.754,161.541C188.754,161.541 188.581,161.455 188.408,161.282C188.581,161.196 188.754,161.023 188.754,160.937C188.841,160.677 189.013,160.418 189.013,160.245C189.013,159.64 188.841,159.122 188.754,158.603C188.841,158.603 188.927,158.603 189.013,158.517L189.532,161.109L189.791,161.109C189.446,160.504 190.569,159.986 189.618,159.294C189.532,159.208 189.705,158.689 189.705,158.43C189.446,157.912 189.273,157.393 189.013,156.702C189.1,156.616 189.359,156.529 189.618,156.443C189.273,156.27 189.013,156.097 188.754,156.01C189.618,155.233 189.618,154.801 188.841,153.936C189.013,153.85 189.186,153.85 189.186,153.764C189.186,152.986 189.186,152.208 189.013,151.43C188.841,150.566 189.273,149.529 187.976,149.011C188.056,149.257 188.173,149.49 188.322,149.702C188.471,149.914 188.063,149.788 187.803,149.961C186.68,148.924 187.371,147.541 187.112,145.986C187.717,146.159 188.149,146.332 188.581,146.504C188.408,145.9 187.976,145.208 187.717,144.43L187.371,144.43L187.371,138.727C187.371,138.813 187.976,138.813 188.322,138.899C188.322,138.813 188.408,138.727 188.408,138.64C188.149,138.294 187.803,137.949 187.458,137.517L187.631,137.344C186.939,136.48 187.285,135.27 187.285,135.011L187.285,128.961C188.149,129.825 186.853,130.949 188.149,131.467L188.149,130.603L188.063,130.603C187.976,129.307 187.976,128.011 187.89,126.714L187.717,126.714C187.631,126.887 187.631,126.974 187.544,127.146L187.371,127.146C187.544,120.319 187.717,113.492 187.89,106.492C188.754,107.616 189.705,108.653 190.31,109.776C192.297,113.406 194.89,116.517 197.31,119.801C199.384,122.653 201.285,125.764 203.186,128.702C205.519,132.245 207.766,135.788 210.1,139.332C211.836,142.015 213.622,144.666 215.458,147.282C217.1,149.615 218.828,151.862 220.557,154.109C222.026,156.097 223.581,158.085 225.05,160.072C226.779,162.492 228.507,164.912 230.236,167.245C231.1,168.455 232.05,169.665 233.001,170.875C233.519,171.566 234.297,172.085 234.816,172.517C234.729,172.517 234.643,172.517 234.47,172.43C234.729,172.776 234.902,173.035 235.075,173.208C236.026,173.726 236.112,174.245 235.594,175.023M240.001,153.418L240.001,152.813C240.001,152.986 240.087,153.245 240.001,153.418M242.939,115.307C242.853,115.307 242.334,114.788 242.248,114.702C242.161,114.961 242.248,115.22 242.075,115.566C241.989,115.307 241.384,115.393 241.384,115.134C241.297,116.344 241.902,117.554 241.816,118.764C242.075,118.591 243.112,118.504 243.371,118.245C243.458,118.332 243.63,118.418 243.717,118.418C241.989,119.714 242.421,121.011 243.198,122.48C243.371,122.825 243.89,123.517 243.371,124.208C243.198,124.381 243.458,124.9 243.544,125.332L243.803,125.332L243.803,125.504L243.026,125.764C242.853,125.504 241.816,124.986 241.816,124.554L241.816,128.961C242.68,129.22 242.68,130.43 243.026,131.035C243.198,130.776 243.285,130.603 243.371,130.344L243.458,130.43C243.371,130.949 243.285,131.467 243.112,131.986C242.939,132.764 242.766,133.455 242.68,134.233C242.68,134.319 242.853,134.492 242.853,134.578C241.902,136.739 242.421,139.159 242.075,141.406C241.816,143.048 242.075,144.776 241.902,146.504C241.729,147.974 241.384,149.529 241.038,150.998C240.952,151.257 240.779,151.344 240.347,151.517C240.519,150.48 240.433,149.788 240.26,148.838C240.174,148.838 239.05,148.233 238.964,148.233C238.964,149.443 239.655,151.085 239.915,152.467C239.655,152.381 238.618,151.776 238.532,151.776C238.359,152.813 238.359,154.196 238.273,155.319C238.186,156.183 237.408,156.961 237.322,157.912C237.322,158.43 237.927,158.776 237.84,159.64L238.532,159.64C238.532,157.912 239.31,156.356 239.31,154.541L239.569,154.541C239.655,154.714 239.915,154.887 239.828,154.974C239.655,155.924 239.31,156.961 239.396,157.912C239.396,158.43 239.828,158.949 239.655,159.554C239.482,160.072 239.396,160.591 239.31,161.368C239.223,160.936 239.137,160.764 239.137,160.504C239.05,160.504 238.273,160.418 238.186,160.418C238.1,160.936 238.791,161.455 238.705,161.887C238.618,161.974 238.532,161.974 238.359,162.06L235.507,157.912C233.24,154.613 230.993,151.3 228.766,147.974C228.186,147.148 227.666,146.282 227.211,145.381C224.532,140.801 221.594,136.393 218.31,132.159C215.803,128.961 213.816,125.504 211.482,122.134C209.322,118.937 207.161,115.825 205.001,112.628C204.223,111.591 203.273,110.64 202.581,109.517C200.334,105.974 198.347,102.344 196.1,98.801C194.199,95.862 192.124,93.011 190.137,90.159C189.426,89.165 188.734,88.156 188.063,87.134C187.976,86.961 187.89,86.788 187.89,86.529C187.717,84.628 187.544,82.727 187.458,80.912C187.458,79.183 187.631,77.455 187.631,75.64L187.631,74.085C187.631,73.653 187.717,73.307 187.717,72.875C187.803,72.788 187.89,72.616 187.976,72.529C185.47,72.529 182.878,72.443 180.371,72.529C178.73,72.616 177.865,71.924 176.742,70.715C173.458,66.998 171.038,62.764 168.186,58.789C165.507,54.986 162.742,51.27 159.976,47.554C157.73,44.529 155.483,41.591 153.236,38.566C150.73,35.11 148.31,31.653 145.717,28.196C142.606,24.048 139.409,19.9 136.211,15.752C134.742,13.85 133.1,12.036 131.458,10.048C132.581,10.221 133.618,10.394 134.656,10.48L138.804,10.739C141.915,10.999 145.026,11.171 148.137,11.603C150.73,11.949 153.322,12.468 156.001,12.9C161.705,13.85 167.322,15.406 172.767,17.221C175.964,18.258 179.075,19.641 182.186,20.937C189.186,23.789 195.841,27.245 202.408,30.875C204.483,31.998 205.692,33.813 207.248,35.455C209.495,37.789 211.742,40.122 213.902,42.542C216.408,45.394 218.742,48.332 221.161,51.27C223.322,53.863 225.569,56.455 227.729,59.048C228.421,59.826 228.939,60.776 229.544,61.64C230.927,63.714 232.482,65.702 233.692,67.949C234.557,69.591 235.075,71.492 235.68,73.307C236.544,75.986 237.408,78.579 238.273,81.258C238.882,83.279 239.401,85.326 239.828,87.393C240.174,88.776 240.087,90.245 240.519,91.628C241.038,93.443 240.519,95.43 241.038,97.245C241.124,97.418 241.211,97.677 241.297,97.85C241.643,98.196 241.902,98.541 241.384,99.06C241.297,99.146 241.297,99.492 241.384,99.751C241.556,99.579 241.643,99.406 241.816,99.146C241.816,99.319 241.902,99.406 241.902,99.492C241.902,99.838 241.816,100.183 241.902,100.529C241.902,100.702 242.075,100.961 242.161,101.134C242.334,100.961 242.507,100.875 242.853,100.616C243.63,103.554 243.717,106.492 243.717,109.517C243.717,112.369 244.235,115.22 243.026,117.986C243.285,117.035 242.68,116.171 242.939,115.307" style="fill:#dc5836;fill-rule:nonzero;"/>
                    </g>
                    <g transform="matrix(3.83583,0,0,3.83583,21.015,21.907)">
                        <path d="M188.001,149.197C188.087,149.197 188.174,149.284 188.174,149.284L188.087,149.197C188.087,149.111 188.087,149.111 188.001,149.197M201.655,234.58C200.705,235.271 199.754,235.876 198.544,236.135C198.458,236.049 198.458,235.962 198.371,235.876C199.322,235.271 200.359,234.666 201.31,234.061C201.396,234.234 201.569,234.407 201.655,234.58M39.619,117.481C40.569,116.271 41.52,115.061 42.557,113.852C42.643,113.938 43.335,114.111 43.421,114.197C42.471,115.407 41.174,117.049 40.224,118.345C40.051,118.173 39.792,117.568 39.619,117.481M15.076,159.827C14.384,158.358 13.693,156.802 13.002,155.333C13.088,155.247 13.693,154.987 13.779,154.987C14.73,156.37 15.162,158.012 15.853,159.481C15.853,159.481 15.162,159.827 15.076,159.827M37.113,118.345C36.594,119.123 36.076,119.987 35.557,120.765C35.471,120.679 34.52,121.111 34.434,121.024C34.952,120.247 36.248,118.864 36.767,118.086C36.853,118.173 36.94,118.259 37.113,118.345M192.408,238.123C192.495,238.123 192.495,238.036 192.581,238.036C193.186,238.123 193.878,238.209 194.569,238.209C193.445,238.987 192.754,238.901 192.408,238.123M37.285,121.975C37.372,121.716 37.545,121.456 37.717,121.197C37.89,121.197 38.15,121.111 38.15,121.111C38.495,120.506 38.495,120.074 38.841,119.555C38.755,119.469 38.668,119.469 38.582,119.382C38.063,119.728 37.545,120.16 37.026,120.506C37.199,120.679 37.199,120.765 37.199,120.938C36.508,120.852 36.248,121.197 35.903,122.148C35.816,122.407 35.384,122.493 34.952,122.839C34.866,123.012 34.779,123.444 34.606,123.876L34.693,123.963C34.567,124.077 34.421,124.165 34.261,124.222C33.742,124.74 33.137,125.173 32.619,125.691C32.532,125.95 32.446,126.21 32.446,126.469C33.051,125.864 34.088,124.74 34.866,124.049L34.952,124.135C35.298,123.617 35.557,123.098 35.903,122.58C35.989,122.666 35.989,122.753 36.076,122.839C35.816,123.53 35.557,124.308 35.298,125C35.125,125.086 34.866,125.259 34.866,125.173C34.52,125.432 34.261,125.777 33.915,126.037L32.36,127.074C31.495,127.852 30.631,128.543 29.681,129.321C29.076,130.271 28.471,131.135 27.779,132.259C28.816,132 29.076,132.432 28.989,133.296C30.199,133.469 30.285,132.518 30.631,131.827C30.718,131.654 30.804,131.308 30.977,131.222C31.755,130.531 32.619,129.926 33.483,129.234C33.656,129.061 33.656,128.716 33.656,128.456C33.656,128.37 33.224,128.37 32.965,128.284C33.742,127.419 34.866,125.95 35.644,125C36.076,124.74 36.508,124.395 36.508,124.135C36.421,123.185 37.026,122.926 37.717,122.58C37.372,122.321 37.285,122.061 37.285,121.975" style="fill:#dc5836;fill-rule:nonzero;"/>
                    </g>
                    <g transform="matrix(3.83583,0,0,3.83583,21.015,21.907)">
                        <path d="M39.014,121.024C38.668,121.629 38.323,122.148 37.977,122.753L37.458,122.493C37.113,124.481 35.903,126.21 34.693,126.555C35.039,126.728 35.384,126.901 35.644,126.814C35.903,126.728 36.076,126.296 36.248,126.037L38.582,122.666L39.36,121.37L39.014,121.024ZM10.236,158.962C10.668,158.962 11.1,159.049 11.619,159.049C11.619,158.703 12.051,158.79 12.051,158.444L12.31,158.444C12.31,158.876 12.397,159.222 12.397,159.654L10.582,159.654C10.495,159.567 10.15,159.049 10.236,158.962M9.545,154.987C9.286,154.728 8.853,154.469 8.853,154.209C8.767,153.864 9.026,153.432 9.286,153C9.458,153.604 9.545,154.123 9.718,154.728C9.631,154.814 9.545,154.901 9.545,154.987M11.705,149.456C12.051,150.321 12.397,151.271 12.742,152.135C12.656,152.135 12.137,152.395 12.051,152.481C11.705,151.617 11.273,150.666 10.928,149.802C11.014,149.716 11.532,149.456 11.705,149.456M204.075,232.074C204.507,231.901 205.026,231.814 205.717,231.641C204.939,232.246 204.334,232.678 203.816,233.197C203.729,233.11 203.643,233.024 203.557,233.024C203.729,232.678 203.902,232.419 204.075,232.073L204.075,232.074ZM97.866,49.469C98.384,49.123 98.816,48.864 99.335,48.518L99.508,48.691C98.989,49.383 98.557,50.074 97.952,50.938C97.866,50.333 97.866,49.987 97.779,49.555C97.693,49.555 97.779,49.555 97.866,49.469M123.186,93.197C123.964,92.852 124.742,92.506 125.693,92.074C125.606,92.592 125.606,92.938 125.606,93.284C125.347,93.197 125.001,93.111 124.742,93.111C124.224,93.197 123.273,93.889 122.841,93.975C122.754,93.975 123.186,93.284 123.186,93.197M188.001,166.481C188.174,167.345 189.816,167.777 188.174,168.641C188.433,168.814 188.692,168.901 188.952,169.074C188.952,169.16 188.865,169.333 188.779,169.419C188.606,169.506 188.26,169.679 188.087,169.592C188.001,169.592 187.828,169.246 187.828,169.074C187.828,168.296 187.915,167.518 188.001,166.481" style="fill:#dc5836;fill-rule:nonzero;"/>
                    </g>
                </g>
            </g>
        </g>
    </g>
</svg>
