<?xml version="1.0" encoding="UTF-8" standalone="no"?>
<!DOCTYPE svg PUBLIC "-//W3C//DTD SVG 1.1//EN" "http://www.w3.org/Graphics/SVG/1.1/DTD/svg11.dtd">
<svg width="100%" height="100%" viewBox="0 0 512 512" version="1.1" xmlns="http://www.w3.org/2000/svg" xmlns:xlink="http://www.w3.org/1999/xlink" xml:space="preserve" xmlns:serif="http://www.serif.com/" style="fill-rule:evenodd;clip-rule:evenodd;stroke-linejoin:round;stroke-miterlimit:2;">
    <g transform="matrix(1,0,0,1,-43,-45)">
        <g id="preact" transform="matrix(2.32458,0,0,2.32458,-318.594,-364.657)">
            <g id="back" transform="matrix(0.430185,0,0,0.430185,125.869,146.545)">
                <path d="M581,191.18C581,123.747 526.253,69 458.82,69L191.18,69C123.747,69 69,123.747 69,191.18L69,458.82C69,526.253 123.747,581 191.18,581L458.82,581C526.253,581 581,526.253 581,458.82L581,191.18Z" style="fill:#663ab8;"/>
            </g>
            <g transform="matrix(0.133418,0,0,0.133418,145.872,345.29)">
                <path d="M289.85,25.25L289.85,125L272,125L272,-122.63L335.88,-122.63C364.927,-122.63 386.83,-116.27 401.59,-103.55C416.35,-90.837 423.73,-72.697 423.73,-49.13C423.73,-38.277 421.717,-28.3 417.69,-19.2C413.663,-10.1 407.857,-2.253 400.27,4.34C392.69,10.927 383.477,16.06 372.63,19.74C361.777,23.413 349.527,25.25 335.88,25.25L289.85,25.25M289.85,10.9L335.88,10.9C346.847,10.9 356.643,9.383 365.27,6.35C373.91,3.317 381.233,-0.883 387.24,-6.25C393.247,-11.617 397.853,-17.947 401.06,-25.24C404.273,-32.533 405.88,-40.497 405.88,-49.13C405.88,-68.143 400.017,-82.783 388.29,-93.05C376.563,-103.317 359.093,-108.45 335.88,-108.45L289.85,-108.45L289.85,10.9ZM497.58,13L497.58,125L479.73,125L479.73,-122.63L542.9,-122.63C571.487,-122.63 592.837,-117.117 606.95,-106.09C621.07,-95.063 628.13,-78.877 628.13,-57.53C628.13,-48.077 626.497,-39.443 623.23,-31.63C619.963,-23.81 615.267,-16.953 609.14,-11.06C603.013,-5.173 595.633,-0.333 587,3.46C578.367,7.253 568.627,9.733 557.78,10.9C560.58,12.647 563.087,14.98 565.3,17.9L650.53,125L634.95,125C633.083,125 631.48,124.65 630.14,123.95C628.8,123.25 627.487,122.083 626.2,120.45L546.93,20C544.943,17.433 542.813,15.623 540.54,14.57C538.267,13.523 534.737,13 529.95,13L497.58,13M497.58,-0.3L540.63,-0.3C551.597,-0.3 561.423,-1.613 570.11,-4.24C578.803,-6.867 586.153,-10.63 592.16,-15.53C598.173,-20.43 602.753,-26.32 605.9,-33.2C609.053,-40.087 610.63,-47.847 610.63,-56.48C610.63,-74.093 604.853,-87.16 593.3,-95.68C581.753,-104.193 564.953,-108.45 542.9,-108.45L497.58,-108.45L497.58,-0.3ZM843.73,-122.63L843.73,-107.75L713.35,-107.75L713.35,-7.65L821.85,-7.65L821.85,6.87L713.35,6.87L713.35,110.13L843.73,110.13L843.73,125L695.33,125L695.33,-122.63L843.73,-122.63ZM1088.55,125L1074.73,125C1073.1,125 1071.75,124.563 1070.7,123.69C1069.65,122.817 1068.84,121.68 1068.25,120.28L1039.03,48.35L917.4,48.35L888.35,120.28C887.883,121.56 887.067,122.667 885.9,123.6C884.733,124.533 883.333,125 881.7,125L868.05,125L969.38,-122.63L987.23,-122.63L1088.55,125M922.83,35.05L1033.78,35.05L983.2,-90.08C982.387,-92.06 981.57,-94.303 980.75,-96.81C979.937,-99.323 979.12,-101.98 978.3,-104.78C977.487,-101.98 976.67,-99.323 975.85,-96.81C975.037,-94.303 974.22,-92 973.4,-89.9L922.83,35.05ZM1302.4,83.35C1303.57,83.35 1304.56,83.757 1305.38,84.57L1312.38,92.1C1307.24,97.587 1301.64,102.517 1295.58,106.89C1289.51,111.263 1282.88,114.997 1275.71,118.09C1268.54,121.177 1260.66,123.567 1252.09,125.26C1243.51,126.953 1234.09,127.8 1223.83,127.8C1206.68,127.8 1190.95,124.797 1176.66,118.79C1162.37,112.783 1150.12,104.267 1139.91,93.24C1129.7,82.213 1121.74,68.883 1116.03,53.25C1110.31,37.617 1107.45,20.233 1107.45,1.1C1107.45,-17.687 1110.4,-34.837 1116.29,-50.35C1122.18,-65.87 1130.47,-79.2 1141.14,-90.34C1151.81,-101.48 1164.59,-110.113 1179.46,-116.24C1194.34,-122.367 1210.76,-125.43 1228.72,-125.43C1237.71,-125.43 1245.93,-124.757 1253.4,-123.41C1260.87,-122.07 1267.84,-120.147 1274.31,-117.64C1280.79,-115.133 1286.89,-112.013 1292.6,-108.28C1298.31,-104.547 1303.91,-100.23 1309.4,-95.33L1303.97,-87.45C1303.04,-86.05 1301.59,-85.35 1299.6,-85.35C1298.55,-85.35 1297.21,-85.963 1295.58,-87.19C1293.95,-88.417 1291.87,-89.933 1289.36,-91.74C1286.85,-93.547 1283.82,-95.53 1280.26,-97.69C1276.7,-99.85 1272.47,-101.833 1267.58,-103.64C1262.67,-105.447 1257.01,-106.963 1250.6,-108.19C1244.18,-109.417 1236.89,-110.03 1228.72,-110.03C1213.67,-110.03 1199.85,-107.433 1187.25,-102.24C1174.65,-97.047 1163.8,-89.637 1154.7,-80.01C1145.6,-70.39 1138.51,-58.723 1133.44,-45.01C1128.37,-31.303 1125.83,-15.933 1125.83,1.1C1125.83,18.6 1128.34,34.233 1133.35,48C1138.37,61.767 1145.31,73.403 1154.17,82.91C1163.04,92.417 1173.51,99.71 1185.59,104.79C1197.66,109.863 1210.76,112.4 1224.88,112.4C1233.74,112.4 1241.64,111.817 1248.59,110.65C1255.53,109.483 1261.92,107.733 1267.75,105.4C1273.58,103.067 1279.01,100.207 1284.03,96.82C1289.04,93.44 1294,89.473 1298.9,84.92C1299.49,84.453 1300.04,84.077 1300.56,83.79C1301.09,83.497 1301.7,83.35 1302.4,83.35ZM1530.42,-122.63L1530.42,-107.4L1443.45,-107.4L1443.45,125L1425.6,125L1425.6,-107.4L1338.1,-107.4L1338.1,-122.63L1530.42,-122.63Z" style="fill:#fff;fill-rule:nonzero;"/>
            </g>
            <g transform="matrix(0.551391,0,0,0.551391,266.109,264.846)">
                <g transform="matrix(1,0,0,1,-128,-148)">
                    <path d="M34.865,220.478C51.881,242.259 105.96,225.663 157.015,185.774C208.07,145.886 237.256,97.429 220.239,75.648C203.222,53.868 149.144,70.464 98.089,110.352C47.034,150.241 17.848,198.698 34.865,220.478M42.134,214.799C36.491,207.576 38.957,193.396 49.708,175.545C61.03,156.748 80.249,135.997 103.768,117.622C127.287,99.247 152.071,85.618 173.049,79.18C192.971,73.067 207.326,74.105 212.969,81.328C218.612,88.551 216.147,102.731 205.396,120.582C194.074,139.379 174.855,160.129 151.335,178.505C127.816,196.88 103.032,210.509 82.055,216.946C62.133,223.06 47.778,222.022 42.134,214.799" style="fill:#fff;fill-rule:nonzero;"/>
                    <path d="M220.239,220.478C237.256,198.698 208.07,150.241 157.015,110.352C105.96,70.464 51.881,53.868 34.865,75.648C17.849,97.428 47.034,145.886 98.089,185.774C149.144,225.662 203.222,242.259 220.239,220.478M212.969,214.799C207.326,222.022 192.971,223.06 173.049,216.946C152.071,210.509 127.288,196.88 103.768,178.505C80.249,160.129 61.03,139.379 49.708,120.582C38.957,102.731 36.491,88.551 42.134,81.328C47.777,74.105 62.133,73.067 82.055,79.18C103.032,85.618 127.816,99.247 151.335,117.622C174.855,135.997 194.074,156.748 205.396,175.545C216.147,193.396 218.613,207.576 212.969,214.799" style="fill:#fff;fill-rule:nonzero;"/>
                    <path d="M127.552,167.667C138.379,167.667 147.155,158.89 147.155,148.063C147.155,137.236 138.379,128.46 127.552,128.46C116.725,128.46 107.948,137.237 107.948,148.063C107.948,158.889 116.725,167.667 127.552,167.667" style="fill:#fff;fill-rule:nonzero;"/>
                </g>
            </g>
        </g>
    </g>
</svg>
