<svg xmlns="http://www.w3.org/2000/svg" xml:space="preserve" style="fill-rule:evenodd;clip-rule:evenodd;stroke-linejoin:round;stroke-miterlimit:2" viewBox="0 0 1024 1024"><path d="M254.313 235.519 148.001 9.75A17.06 17.06 0 0 0 133.473.036a16.87 16.87 0 0 0-15.533 8.052L2.633 194.847a17.46 17.46 0 0 0 .193 18.748L59.2 300.896a18.13 18.13 0 0 0 20.363 7.489l163.599-48.392a17.93 17.93 0 0 0 11.259-9.722 17.54 17.54 0 0 0-.1-14.76zm-23.802 9.683-138.823 41.05c-4.235 1.26-8.3-2.411-7.419-6.685l49.598-237.484c.927-4.443 7.063-5.147 9.003-1.035l91.814 194.973a6.627 6.627 0 0 1-4.181 9.181z" style="fill-rule:nonzero" transform="translate(95.354 8.87)scale(3.25507)"/></svg>