<?xml version="1.0" encoding="UTF-8" standalone="no"?>
<!DOCTYPE svg PUBLIC "-//W3C//DTD SVG 1.1//EN" "http://www.w3.org/Graphics/SVG/1.1/DTD/svg11.dtd">
<svg width="100%" height="100%" viewBox="0 0 512 513" version="1.1" xmlns="http://www.w3.org/2000/svg" xmlns:xlink="http://www.w3.org/1999/xlink" xml:space="preserve" xmlns:serif="http://www.serif.com/" style="fill-rule:evenodd;clip-rule:evenodd;stroke-linejoin:round;stroke-miterlimit:2;">
    <g transform="matrix(1,0,0,1,-44,-44)">
        <g id="python" transform="matrix(2.32458,0,0,2.32458,-317.594,-365.157)">
            <g id="back" transform="matrix(0.430185,0,0,0.430185,125.869,146.545)">
                <path d="M581,191.18C581,123.747 526.253,69 458.82,69L191.18,69C123.747,69 69,123.747 69,191.18L69,458.82C69,526.253 123.747,581 191.18,581L458.82,581C526.253,581 581,526.253 581,458.82L581,191.18Z" style="fill:#22394d;"/>
            </g>
            <g transform="matrix(0.430185,0,0,0.430185,265.679,342.711)">
                <g transform="matrix(1,0,0,1,-194.42,-57.51)">
                    <g id="g2303" transform="matrix(1,0,0,1,17.0931,1.04024)">
                        <g id="path46" transform="matrix(1,0,0,1,-120.026,-3.26163)">
                            <path d="M184.613,61.929C184.613,47.367 180.461,39.891 172.157,39.482C168.852,39.326 165.626,39.852 162.488,41.071C159.983,41.967 158.296,42.854 157.409,43.751L157.409,78.509C162.721,81.843 167.439,83.392 171.552,83.149C180.256,82.574 184.613,75.507 184.613,61.929ZM194.858,62.534C194.858,69.932 193.123,76.072 189.633,80.956C185.744,86.482 180.354,89.328 173.463,89.484C168.268,89.65 162.916,88.022 157.409,84.611L157.409,116.201L148.5,113.024L148.5,42.903C149.963,41.11 151.844,39.57 154.125,38.263C159.427,35.174 165.87,33.585 173.453,33.507L173.58,33.634C180.51,33.546 185.851,36.392 189.604,42.162C193.103,47.455 194.858,54.239 194.858,62.534Z" style="fill:#fff;fill-rule:nonzero;"/>
                        </g>
                        <g id="path48" transform="matrix(1,0,0,1,-120.026,-3.26163)">
                            <path d="M249.305,83.266C249.305,93.188 248.311,100.06 246.322,103.881C244.324,107.702 240.523,110.753 234.908,113.024C230.357,114.817 225.434,115.792 220.151,115.957L218.68,110.343C224.05,109.612 227.832,108.881 230.025,108.15C234.343,106.688 237.306,104.446 238.934,101.444C240.24,98.998 240.883,94.329 240.883,87.418L240.883,85.098C234.791,87.866 228.407,89.241 221.73,89.241C217.344,89.241 213.475,87.866 210.141,85.098C206.398,82.086 204.527,78.265 204.527,73.636L204.527,36.558L213.436,33.507L213.436,70.828C213.436,74.815 214.722,77.885 217.295,80.039C219.869,82.194 223.202,83.227 227.286,83.149C231.37,83.061 235.747,81.482 240.396,78.392L240.396,34.852L249.305,34.852L249.305,83.266Z" style="fill:#fff;fill-rule:nonzero;"/>
                        </g>
                        <g id="path50" transform="matrix(1,0,0,1,-120.026,-3.26163)">
                            <path d="M284.082,88.997C283.02,89.085 282.045,89.124 281.149,89.124C276.109,89.124 272.181,87.925 269.374,85.517C266.577,83.11 265.173,79.786 265.173,75.546L265.173,40.457L259.071,40.457L259.071,34.852L265.173,34.852L265.173,19.968L274.072,16.8L274.072,34.852L284.082,34.852L284.082,40.457L274.072,40.457L274.072,75.302C274.072,78.646 274.969,81.014 276.762,82.398C278.302,83.539 280.749,84.192 284.082,84.357L284.082,88.997Z" style="fill:#fff;fill-rule:nonzero;"/>
                        </g>
                        <g id="path52" transform="matrix(1,0,0,1,-120.026,-3.26163)">
                            <path d="M338.023,88.266L329.114,88.266L329.114,53.878C329.114,50.379 328.295,47.367 326.668,44.852C324.786,42.006 322.174,40.583 318.821,40.583C314.737,40.583 309.63,42.737 303.499,47.046L303.499,88.266L294.59,88.266L294.59,6.069L303.499,3.262L303.499,40.7C309.191,36.558 315.41,34.482 322.164,34.482C326.882,34.482 330.703,36.07 333.627,39.238C336.561,42.406 338.023,46.354 338.023,51.071L338.023,88.266Z" style="fill:#fff;fill-rule:nonzero;"/>
                        </g>
                        <g id="path54" transform="matrix(1,0,0,1,-120.026,-3.26163)">
                            <path d="M385.374,60.526C385.374,54.931 384.312,50.311 382.197,46.656C379.682,42.201 375.773,39.852 370.49,39.609C360.724,40.174 355.85,47.172 355.85,60.584C355.85,66.735 356.864,71.871 358.911,75.994C361.523,81.248 365.441,83.841 370.666,83.753C380.471,83.675 385.374,75.936 385.374,60.526ZM395.131,60.584C395.131,68.548 393.094,75.176 389.029,80.468C384.556,86.395 378.376,89.367 370.49,89.367C362.673,89.367 356.581,86.395 352.185,80.468C348.199,75.176 346.21,68.548 346.21,60.584C346.21,53.099 348.365,46.802 352.673,41.675C357.225,36.236 363.209,33.507 370.607,33.507C378.005,33.507 384.029,36.236 388.669,41.675C392.977,46.802 395.131,53.099 395.131,60.584Z" style="fill:#fff;fill-rule:nonzero;"/>
                        </g>
                        <g id="path56" transform="matrix(1,0,0,1,-120.026,-3.26163)">
                            <path d="M446.206,88.266L437.297,88.266L437.297,51.929C437.297,47.942 436.098,44.833 433.7,42.591C431.303,40.359 428.105,39.277 424.119,39.365C419.889,39.443 415.863,40.827 412.042,43.507L412.042,88.266L403.133,88.266L403.133,42.406C408.26,38.673 412.978,36.236 417.286,35.096C421.351,34.033 424.938,33.507 428.028,33.507C430.143,33.507 432.131,33.712 434.002,34.121C437.502,34.93 440.348,36.431 442.541,38.634C444.987,41.071 446.206,43.995 446.206,47.416L446.206,88.266Z" style="fill:#fff;fill-rule:nonzero;"/>
                        </g>
                    </g>
                </g>
            </g>
            <g transform="matrix(2.09324,0,0,2.09324,-240.401,-213.48)">
                <g id="path1948" transform="matrix(0.430185,0,0,0.430185,215.454,196.811)">
                    <path d="M60.51,6.398C55.927,6.419 51.549,6.81 47.698,7.492C36.351,9.496 34.291,13.692 34.291,21.429L34.291,31.648L61.104,31.648L61.104,35.054L24.229,35.054C16.436,35.054 9.613,39.738 7.479,48.648C5.017,58.861 4.908,65.234 7.479,75.898C9.385,83.836 13.936,89.492 21.729,89.492L30.948,89.492L30.948,77.242C30.948,68.392 38.605,60.585 47.698,60.585L74.479,60.585C81.934,60.585 87.885,54.447 87.885,46.96L87.885,21.429C87.885,14.163 81.755,8.704 74.479,7.492C69.873,6.725 65.094,6.377 60.51,6.398ZM46.01,14.617C48.78,14.617 51.041,16.915 51.041,19.742C51.041,22.558 48.78,24.835 46.01,24.835C43.231,24.835 40.979,22.558 40.979,19.742C40.979,16.915 43.231,14.617 46.01,14.617Z" style="fill:url(#_Linear1);fill-rule:nonzero;"/>
                </g>
                <g id="path1950" transform="matrix(0.430185,0,0,0.430185,215.454,196.811)">
                    <path d="M91.229,35.054L91.229,46.96C91.229,56.191 83.403,63.96 74.479,63.96L47.698,63.96C40.362,63.96 34.291,70.239 34.291,77.585L34.291,103.117C34.291,110.383 40.61,114.657 47.698,116.742C56.185,119.237 64.324,119.688 74.479,116.742C81.229,114.787 87.885,110.854 87.885,103.117L87.885,92.898L61.104,92.898L61.104,89.492L101.291,89.492C109.084,89.492 111.988,84.056 114.698,75.898C117.497,67.499 117.378,59.422 114.698,48.648C112.772,40.891 109.094,35.054 101.291,35.054L91.229,35.054ZM76.166,99.71C78.946,99.71 81.198,101.988 81.198,104.804C81.198,107.631 78.946,109.929 76.166,109.929C73.397,109.929 71.135,107.631 71.135,104.804C71.135,101.988 73.397,99.71 76.166,99.71Z" style="fill:url(#_Linear2);fill-rule:nonzero;"/>
                </g>
            </g>
        </g>
    </g>
    <defs>
        <linearGradient id="_Linear1" x1="0" y1="0" x2="1" y2="0" gradientUnits="userSpaceOnUse" gradientTransform="matrix(61.3261,53.2723,-53.2723,61.3261,5.59137,6.39705)"><stop offset="0" style="stop-color:#5a9fd4;stop-opacity:1"/><stop offset="1" style="stop-color:#306998;stop-opacity:1"/></linearGradient>
        <linearGradient id="_Linear2" x1="0" y1="0" x2="1" y2="0" gradientUnits="userSpaceOnUse" gradientTransform="matrix(-21.8995,-31.2832,31.2832,-21.8995,75.5221,103.945)"><stop offset="0" style="stop-color:#ffd43b;stop-opacity:1"/><stop offset="1" style="stop-color:#ffe873;stop-opacity:1"/></linearGradient>
    </defs>
</svg>
