<?xml version="1.0" encoding="UTF-8" standalone="no"?>
<!DOCTYPE svg PUBLIC "-//W3C//DTD SVG 1.1//EN" "http://www.w3.org/Graphics/SVG/1.1/DTD/svg11.dtd">
<svg width="100%" height="100%" viewBox="0 0 512 512" version="1.1" xmlns="http://www.w3.org/2000/svg" xmlns:xlink="http://www.w3.org/1999/xlink" xml:space="preserve" xmlns:serif="http://www.serif.com/" style="fill-rule:evenodd;clip-rule:evenodd;stroke-linejoin:round;stroke-miterlimit:2;">
    <g transform="matrix(1,0,0,1,-44,-45)">
        <g transform="matrix(1,0,0,1,0,1)">
            <g id="redhat">
                <g id="back" transform="matrix(1,0,0,1,-25,-25)">
                    <path d="M581,191.18C581,123.747 526.253,69 458.82,69L191.18,69C123.747,69 69,123.747 69,191.18L69,458.82C69,526.253 123.747,581 191.18,581L458.82,581C526.253,581 581,526.253 581,458.82L581,191.18Z" style="fill:#26184a;"/>
                </g>
                <g transform="matrix(1.58982,0,0,1.58982,-228.694,264.064)">
                    <path d="M411,107.9C411,113.7 414.5,116.5 420.9,116.5C422.9,116.5 424.8,116.2 426.7,115.7L426.7,109C425.5,109.4 424.2,109.6 422.9,109.6C420.3,109.6 419.3,108.8 419.3,106.3L419.3,95.9L426.9,95.9L426.9,89L419.3,89L419.3,80.2L411,82L411,89L405.5,89L405.5,95.9L411,95.9L411,107.9ZM385.1,108.1C385.1,106.3 386.9,105.4 389.6,105.4C391.3,105.4 392.9,105.6 394.5,106L394.5,109.5C392.9,110.4 391.1,110.8 389.3,110.8C386.7,110.8 385.1,109.8 385.1,108.1M387.7,116.6C390.6,116.6 393,116 395.2,114.5L395.2,116.1L403.4,116.1L403.4,98.8C403.4,92.2 398.9,88.5 391.5,88.5C387.3,88.5 383.2,89.5 378.8,91.5L381.8,97.6C385,96.3 387.7,95.4 390,95.4C393.4,95.4 395.2,96.7 395.2,99.5L395.2,100.8C393.2,100.3 391.1,100 389,100C382,100 377.8,102.9 377.8,108.2C377.8,113 381.6,116.7 387.7,116.6M342.5,116.2L351.3,116.2L351.3,102.1L366.1,102.1L366.1,116.2L375,116.2L375,80.2L366.2,80.2L366.2,94L351.4,94L351.4,80.2L342.6,80.2L342.5,116.2ZM308.9,102.6C308.9,98.7 312,95.7 316,95.7C318.1,95.7 320.2,96.4 321.7,97.8L321.7,107.3C320.2,108.8 318.1,109.5 316,109.5C312,109.5 308.9,106.5 308.9,102.6M321.9,116.2L330.1,116.2L330.1,78.4L321.8,80.2L321.8,90.4C319.7,89.2 317.3,88.6 314.9,88.6C307,88.6 300.8,94.7 300.8,102.5C300.7,110.1 306.8,116.4 314.4,116.5L314.6,116.5C317.2,116.5 319.8,115.7 321.9,114.1L321.9,116.2ZM284.1,95.3C286.7,95.3 288.9,97 289.8,99.6L278.5,99.6C279.3,96.9 281.4,95.3 284.1,95.3M270.1,102.6C270.1,110.5 276.6,116.7 284.9,116.7C289.5,116.7 292.8,115.5 296.3,112.6L290.8,107.7C289.5,109 287.6,109.8 285.4,109.8C282.5,109.9 279.8,108.2 278.7,105.5L298,105.5L298,103.4C298,94.8 292.2,88.6 284.3,88.6C276.6,88.5 270.3,94.6 270.1,102.3L270.1,102.6M255.8,87.8C258.7,87.8 260.4,89.6 260.4,91.9C260.4,94.2 258.8,96 255.8,96L247.1,96L247.1,87.9L255.8,87.9L255.8,87.8ZM238.2,116.2L247,116.2L247,103.1L253.7,103.1L260.5,116.2L270.4,116.2L262.5,101.8C266.6,100.1 269.3,96.1 269.3,91.7C269.3,85.2 264.2,80.2 256.6,80.2L238.2,80.2L238.2,116.2Z" style="fill:#fff;fill-rule:nonzero;"/>
                </g>
                <g transform="matrix(2.73027,0,0,2.73027,300,247.329)">
                    <g transform="matrix(1,0,0,1,-46.5,-35.5)">
                        <g transform="matrix(1,0,0,1,0,0.4)">
                            <g transform="matrix(1,0,0,1,-128.1,-62.9)">
                                <path d="M190.1,103.4C196.2,103.4 205.1,102.1 205.1,94.9C205.1,94.3 205.1,93.8 204.9,93.2L201.3,77.4C200.5,73.9 199.7,72.3 193.6,69.3C188.9,66.9 178.5,62.9 175.5,62.9C172.7,62.9 171.8,66.6 168.4,66.6C165.1,66.6 162.7,63.9 159.7,63.9C156.8,63.9 154.9,65.9 153.4,70C153.4,70 149.3,81.6 148.8,83.3C148.7,83.6 148.7,83.9 148.7,84.2C148.6,88.6 166.3,103.3 190.1,103.4M206,97.8C206.8,101.8 206.8,102.2 206.8,102.7C206.8,109.5 199.1,113.3 189,113.3C166.2,113.3 146.2,99.9 146.2,91.1C146.2,89.9 146.4,88.7 146.9,87.5C138.7,87.9 128.1,89.4 128.1,98.8C128.1,114.2 164.5,133.1 193.4,133.1C215.5,133.1 221.1,123.1 221.1,115.2C221,109.1 215.7,102 206,97.8" style="fill:#e00;fill-rule:nonzero;"/>
                            </g>
                            <g transform="matrix(1,0,0,1,-128.1,-62.9)">
                                <path d="M206,97.8C206.8,101.8 206.8,102.2 206.8,102.7C206.8,109.5 199.1,113.3 189,113.3C166.2,113.3 146.2,99.9 146.2,91.1C146.2,89.9 146.4,88.7 146.9,87.5L148.7,83.1C148.6,83.4 148.6,83.7 148.6,84C148.6,88.5 166.3,103.3 190.1,103.3C196.2,103.3 205.1,102 205.1,94.8C205.1,94.2 205.1,93.7 204.9,93.1L206,97.8Z" style="fill-rule:nonzero;"/>
                            </g>
                        </g>
                    </g>
                </g>
            </g>
        </g>
    </g>
</svg>
