<?xml version="1.0" encoding="UTF-8" standalone="no"?>
<!DOCTYPE svg PUBLIC "-//W3C//DTD SVG 1.1//EN" "http://www.w3.org/Graphics/SVG/1.1/DTD/svg11.dtd">
<svg width="100%" height="100%" viewBox="0 0 512 512" version="1.1" xmlns="http://www.w3.org/2000/svg" xmlns:xlink="http://www.w3.org/1999/xlink" xml:space="preserve" xmlns:serif="http://www.serif.com/" style="fill-rule:evenodd;clip-rule:evenodd;stroke-linejoin:round;stroke-miterlimit:2;">
    <g transform="matrix(1,0,0,1,-44,-45)">
        <g id="rollup" transform="matrix(1,0,0,1,0,3)">
            <g id="back" transform="matrix(1,0,0,1,-25,-27)">
                <path d="M581,191.18C581,123.747 526.253,69 458.82,69L191.18,69C123.747,69 69,123.747 69,191.18L69,458.82C69,526.253 123.747,581 191.18,581L458.82,581C526.253,581 581,526.253 581,458.82L581,191.18Z" style="fill:#1b1a1e;"/>
            </g>
            <g transform="matrix(1,0,0,1,0,4.32502)">
                <g transform="matrix(2.6415,0,0,2.6415,78.642,258.81)">
                    <path d="M47.883,59.542C47.547,59.482 47.206,59.453 46.865,59.454C45.927,59.454 45.133,59.716 44.485,60.239C43.836,60.762 43.373,61.522 43.097,62.519L43.097,71.853L41.602,71.853L41.602,58.261L43.072,58.261L43.097,60.422C43.893,58.814 45.17,58.01 46.929,58.01C47.348,58.01 47.678,58.065 47.921,58.173L47.883,59.542ZM49.177,64.856C49.177,63.549 49.43,62.373 49.937,61.326C50.444,60.279 51.16,59.465 52.086,58.883C53.011,58.301 54.06,58.01 55.233,58.01C57.042,58.01 58.508,58.644 59.63,59.914C60.752,61.182 61.313,62.864 61.313,64.958L61.313,65.272C61.313,66.587 61.06,67.77 60.553,68.821C60.046,69.872 59.332,70.683 58.411,71.252C57.49,71.821 56.439,72.106 55.258,72.106C53.457,72.106 51.994,71.472 50.867,70.202C49.741,68.934 49.177,67.252 49.177,65.158L49.177,64.856ZM50.684,65.271C50.684,66.896 51.105,68.23 51.946,69.272C52.788,70.315 53.892,70.836 55.257,70.836C56.614,70.836 57.713,70.315 58.555,69.272C59.397,68.23 59.818,66.854 59.818,65.145L59.818,64.856C59.818,63.818 59.625,62.867 59.24,62.004C58.855,61.141 58.315,60.473 57.619,60C56.924,59.527 56.128,59.29 55.232,59.29C53.892,59.29 52.799,59.815 51.953,60.867C51.107,61.918 50.684,63.293 50.684,64.994L50.684,65.271ZM66.099,71.854L64.591,71.854L64.591,52.557L66.099,52.557L66.099,71.854ZM71.866,71.854L70.358,71.854L70.358,52.557L71.866,52.557L71.866,71.854ZM84.693,70.133C83.788,71.448 82.344,72.105 80.359,72.105C78.91,72.105 77.809,71.684 77.055,70.843C76.301,70.001 75.916,68.755 75.899,67.105L75.899,58.261L77.394,58.261L77.394,66.917C77.394,69.505 78.441,70.799 80.535,70.799C82.713,70.799 84.09,69.899 84.668,68.098L84.668,58.261L86.176,58.261L86.176,71.854L84.719,71.854L84.693,70.133ZM101.012,65.196C101.012,67.315 100.543,68.996 99.605,70.24C98.667,71.483 97.411,72.105 95.836,72.105C93.977,72.105 92.553,71.452 91.565,70.145L91.565,77.08L90.07,77.08L90.07,58.261L91.465,58.261L91.54,60.183C92.52,58.734 93.94,58.01 95.799,58.01C97.424,58.01 98.699,58.626 99.625,59.857C100.55,61.088 101.013,62.797 101.013,64.983L101.013,65.196L101.012,65.196ZM99.504,64.932C99.504,63.198 99.148,61.829 98.436,60.824C97.724,59.819 96.732,59.316 95.459,59.316C94.538,59.316 93.746,59.538 93.085,59.982C92.423,60.426 91.917,61.071 91.565,61.917L91.565,68.437C91.925,69.216 92.44,69.811 93.11,70.221C93.78,70.631 94.572,70.837 95.484,70.837C96.749,70.837 97.735,70.332 98.443,69.323C99.151,68.314 99.504,66.85 99.504,64.932ZM104.203,70.95C104.203,70.657 104.297,70.408 104.486,70.202C104.674,69.997 104.936,69.894 105.271,69.894C105.606,69.894 105.87,69.997 106.062,70.202C106.255,70.407 106.351,70.656 106.351,70.95C106.351,71.244 106.255,71.484 106.062,71.673C105.869,71.861 105.605,71.955 105.271,71.955C104.937,71.955 104.674,71.861 104.486,71.673C104.296,71.481 104.194,71.22 104.203,70.95ZM112.105,58.26L112.105,73.475C112.105,74.731 111.803,75.69 111.2,76.352C110.597,77.014 109.709,77.344 108.537,77.344C108.085,77.344 107.645,77.265 107.218,77.107L107.243,75.874C107.612,75.983 107.989,76.037 108.374,76.037C109.865,76.037 110.61,75.178 110.61,73.46L110.61,58.26L112.105,58.26ZM111.364,53.324C111.691,53.324 111.946,53.422 112.13,53.617C112.314,53.813 112.406,54.052 112.406,54.335C112.406,54.618 112.314,54.855 112.13,55.046C111.946,55.237 111.69,55.333 111.364,55.333C111.046,55.333 110.796,55.237 110.616,55.046C110.436,54.854 110.339,54.598 110.346,54.335C110.346,54.052 110.436,53.813 110.616,53.617C110.797,53.421 111.046,53.324 111.364,53.324ZM124.492,68.399C124.492,67.653 124.193,67.055 123.594,66.602C122.995,66.15 122.093,65.796 120.887,65.541C119.681,65.285 118.745,64.992 118.079,64.662C117.413,64.331 116.919,63.927 116.597,63.449C116.274,62.972 116.113,62.394 116.113,61.715C116.113,60.643 116.561,59.757 117.457,59.058C118.353,58.358 119.5,58.009 120.899,58.009C122.415,58.009 123.632,58.384 124.548,59.134C125.466,59.883 125.924,60.861 125.924,62.067L124.416,62.067C124.416,61.271 124.083,60.61 123.417,60.082C122.752,59.554 121.912,59.291 120.898,59.291C119.91,59.291 119.116,59.511 118.517,59.95C117.918,60.39 117.619,60.962 117.619,61.665C117.619,62.343 117.868,62.869 118.366,63.241C118.865,63.614 119.773,63.955 121.093,64.265C122.412,64.575 123.4,64.906 124.058,65.257C124.715,65.609 125.203,66.032 125.521,66.526C125.839,67.02 125.998,67.619 125.998,68.323C125.998,69.471 125.535,70.388 124.61,71.074C123.684,71.761 122.476,72.104 120.985,72.104C119.402,72.104 118.118,71.721 117.134,70.954C116.15,70.188 115.658,69.219 115.658,68.046L117.166,68.046C117.224,68.925 117.595,69.61 118.278,70.1C118.96,70.59 119.863,70.835 120.985,70.835C122.032,70.835 122.878,70.605 123.523,70.144C124.17,69.685 124.492,69.103 124.492,68.399Z" style="fill:#fff;fill-opacity:0.95;fill-rule:nonzero;"/>
                </g>
                <g transform="matrix(1.87483,0,0,1.87483,300,242.225)">
                    <g transform="matrix(1,0,0,1,-64,-64)">
                        <path d="M111.442,42.825C111.442,35.525 109.53,28.681 106.162,22.749C97.232,13.558 77.808,11.429 72.985,22.706C68.031,34.265 81.306,47.127 87.108,46.106C94.495,44.802 85.804,27.855 85.804,27.855C97.102,49.147 94.495,42.629 74.071,62.184C53.647,81.739 32.79,122.998 29.748,124.736C29.618,124.823 29.487,124.888 29.335,124.953L109.442,124.953C110.854,124.953 111.767,123.454 111.137,122.194L90.193,80.739C89.741,79.847 90.067,78.743 90.932,78.24C103.186,71.2 111.442,57.99 111.442,42.825Z" style="fill:url(#_Linear1);fill-rule:nonzero;"/>
                        <path d="M111.442,42.825C111.442,35.525 109.53,28.681 106.162,22.749C97.232,13.558 77.808,11.429 72.985,22.706C68.031,34.265 81.306,47.127 87.108,46.106C94.495,44.802 85.804,27.855 85.804,27.855C97.102,49.147 94.495,42.629 74.071,62.184C53.647,81.739 32.79,122.998 29.748,124.736C29.618,124.823 29.487,124.888 29.335,124.953L109.442,124.953C110.854,124.953 111.767,123.454 111.137,122.194L90.193,80.739C89.741,79.847 90.067,78.743 90.932,78.24C103.186,71.2 111.442,57.99 111.442,42.825Z" style="fill:url(#_Linear2);fill-rule:nonzero;"/>
                        <path d="M29.748,124.736C32.79,122.998 53.648,81.717 74.071,62.162C94.494,42.607 97.102,49.126 85.804,27.833C85.804,27.833 42.567,88.451 26.924,118.435" style="fill:url(#_Linear3);fill-rule:nonzero;"/>
                        <path d="M35.832,70.418C65.033,16.731 68.857,11.321 84.066,11.321C92.062,11.321 100.122,14.928 105.337,21.337C98.232,9.887 85.652,2.217 71.247,2L21.644,2C20.601,2 19.754,2.847 19.754,3.89L19.754,103.878C22.709,96.252 27.728,85.345 35.832,70.418Z" style="fill:url(#_Linear4);fill-rule:nonzero;"/>
                        <path d="M74.071,62.162C53.648,81.716 32.79,122.998 29.748,124.736C26.706,126.474 21.6,126.691 18.885,123.65C15.995,120.413 11.498,115.176 35.832,70.419C65.033,16.732 68.857,11.322 84.066,11.322C92.062,11.322 100.122,14.929 105.337,21.338C105.619,21.794 105.902,22.272 106.184,22.75C97.254,13.559 77.83,11.43 73.007,22.707C68.053,34.266 81.328,47.128 87.13,46.107C94.517,44.803 85.826,27.856 85.826,27.856C97.102,49.126 94.495,42.608 74.071,62.162Z" style="fill:url(#_Linear5);fill-rule:nonzero;"/>
                        <path d="M38.222,72.808C67.423,19.121 71.247,13.711 86.456,13.711C93.039,13.711 99.666,16.166 104.707,20.598C99.493,14.645 91.758,11.321 84.066,11.321C68.857,11.321 65.033,16.731 35.832,70.418C11.498,115.176 15.995,120.412 18.885,123.649C19.298,124.105 19.776,124.496 20.276,124.822C17.733,121.129 16.604,112.547 38.222,72.808Z" style="fill:url(#_Linear6);fill-rule:nonzero;"/>
                    </g>
                </g>
            </g>
        </g>
    </g>
    <defs>
        <linearGradient id="_Linear1" x1="0" y1="0" x2="1" y2="0" gradientUnits="userSpaceOnUse" gradientTransform="matrix(33.46,7.821,-7.821,33.46,51.359,68.044)"><stop offset="0" style="stop-color:#ff6533;stop-opacity:1"/><stop offset="0.16" style="stop-color:#ff5633;stop-opacity:1"/><stop offset="0.43" style="stop-color:#ff4333;stop-opacity:1"/><stop offset="0.71" style="stop-color:#ff3733;stop-opacity:1"/><stop offset="1" style="stop-color:#f33;stop-opacity:1"/></linearGradient>
        <linearGradient id="_Linear2" x1="0" y1="0" x2="1" y2="0" gradientUnits="userSpaceOnUse" gradientTransform="matrix(59.966,46.496,-46.496,59.966,46.123,56.953)"><stop offset="0" style="stop-color:#bf3338;stop-opacity:1"/><stop offset="1" style="stop-color:#f33;stop-opacity:1"/></linearGradient>
        <linearGradient id="_Linear3" x1="0" y1="0" x2="1" y2="0" gradientUnits="userSpaceOnUse" gradientTransform="matrix(8.691,9.125,-9.125,8.691,48.083,66.107)"><stop offset="0" style="stop-color:#ff6533;stop-opacity:1"/><stop offset="0.16" style="stop-color:#ff5633;stop-opacity:1"/><stop offset="0.43" style="stop-color:#ff4333;stop-opacity:1"/><stop offset="0.71" style="stop-color:#ff3733;stop-opacity:1"/><stop offset="1" style="stop-color:#f33;stop-opacity:1"/></linearGradient>
        <linearGradient id="_Linear4" x1="0" y1="0" x2="1" y2="0" gradientUnits="userSpaceOnUse" gradientTransform="matrix(-2.607,-37.371,37.371,-2.607,63.885,81.816)"><stop offset="0" style="stop-color:#ff6533;stop-opacity:1"/><stop offset="0.16" style="stop-color:#ff5633;stop-opacity:1"/><stop offset="0.43" style="stop-color:#ff4333;stop-opacity:1"/><stop offset="0.71" style="stop-color:#ff3733;stop-opacity:1"/><stop offset="1" style="stop-color:#f33;stop-opacity:1"/></linearGradient>
        <linearGradient id="_Linear5" x1="0" y1="0" x2="1" y2="0" gradientUnits="userSpaceOnUse" gradientTransform="matrix(12.345,8.395,-8.395,12.345,52.589,65.466)"><stop offset="0" style="stop-color:#fbb040;stop-opacity:1"/><stop offset="1" style="stop-color:#fb8840;stop-opacity:1"/></linearGradient>
        <linearGradient id="_Linear6" x1="0" y1="0" x2="1" y2="0" gradientUnits="userSpaceOnUse" gradientTransform="matrix(-12.601,138.618,-138.618,-12.601,65.237,18.004)"><stop offset="0" style="stop-color:#fff;stop-opacity:0.3"/><stop offset="1" style="stop-color:#fff;stop-opacity:0"/></linearGradient>
    </defs>
</svg>
