<?xml version="1.0" encoding="UTF-8" standalone="no"?>
<!DOCTYPE svg PUBLIC "-//W3C//DTD SVG 1.1//EN" "http://www.w3.org/Graphics/SVG/1.1/DTD/svg11.dtd">
<svg width="100%" height="100%" viewBox="0 0 512 513" version="1.1" xmlns="http://www.w3.org/2000/svg" xmlns:xlink="http://www.w3.org/1999/xlink" xml:space="preserve" xmlns:serif="http://www.serif.com/" style="fill-rule:evenodd;clip-rule:evenodd;stroke-linejoin:round;stroke-miterlimit:2;">
    <g transform="matrix(1,0,0,1,-44,-44)">
        <g id="rust" transform="matrix(1,0,0,1,0,0.5)">
            <g id="back" transform="matrix(1,0,0,1,-25,-25)">
                <path d="M581,191.18C581,123.747 526.253,69 458.82,69L191.18,69C123.747,69 69,123.747 69,191.18L69,458.82C69,526.253 123.747,581 191.18,581L458.82,581C526.253,581 581,526.253 581,458.82L581,191.18Z" style="fill:#8d1d18;"/>
            </g>
            <g transform="matrix(0.356952,0,0,0.356952,300,300)">
                <g transform="matrix(1,0,0,1,-512,-512)">
                    <g transform="matrix(3.83831,0,0,3.83831,20.696,20.687)">
                        <path d="M254.251,124.862L243.504,118.209C243.413,117.164 243.311,116.121 243.198,115.078L252.434,106.464C253.371,105.592 253.791,104.292 253.539,103.037C253.293,101.78 252.409,100.739 251.208,100.293L239.402,95.878C239.106,94.858 238.797,93.842 238.477,92.83L245.842,82.601C246.296,81.971 246.541,81.214 246.541,80.437C246.541,78.631 245.218,77.076 243.435,76.787L230.986,74.762C230.501,73.818 229.997,72.888 229.489,71.966L234.72,60.483C235.256,59.319 235.147,57.956 234.432,56.892C233.723,55.826 232.507,55.203 231.228,55.251L218.592,55.691C217.939,54.874 217.274,54.066 216.596,53.27L219.5,40.962C219.566,40.683 219.599,40.398 219.599,40.111C219.599,38.081 217.929,36.411 215.899,36.411C215.613,36.411 215.328,36.444 215.05,36.51L202.745,39.411C201.946,38.734 201.137,38.068 200.319,37.415L200.761,24.78C200.81,23.5 200.187,22.284 199.12,21.575C198.056,20.864 196.696,20.754 195.532,21.284L184.051,26.519C183.125,26.008 182.193,25.508 181.255,25.019L179.225,12.567C178.934,10.785 177.379,9.464 175.573,9.464C174.798,9.464 174.042,9.707 173.413,10.16L163.177,17.525C162.17,17.204 161.156,16.897 160.135,16.603L155.72,4.794C155.272,3.593 154.232,2.708 152.975,2.458C151.721,2.21 150.423,2.629 149.551,3.564L140.936,12.807C139.897,12.692 138.85,12.587 137.806,12.501L131.153,1.751C130.479,0.664 129.287,0.001 128.009,0.001C126.73,0.001 125.538,0.664 124.864,1.751L118.211,12.501C117.165,12.588 116.121,12.69 115.078,12.807L106.461,3.564C105.762,2.813 104.782,2.386 103.756,2.386C102.215,2.386 100.829,3.35 100.293,4.794L95.878,16.603C94.855,16.896 93.843,17.207 92.833,17.525L82.599,10.16C81.97,9.708 81.214,9.465 80.439,9.465C78.633,9.465 77.078,10.785 76.785,12.567L74.755,25.019C73.815,25.506 72.886,26.007 71.959,26.519L60.478,21.284C59.314,20.752 57.953,20.862 56.89,21.575C55.824,22.285 55.202,23.5 55.248,24.78L55.689,37.415C54.872,38.068 54.062,38.736 53.262,39.411L40.957,36.51C39.71,36.218 38.397,36.592 37.491,37.496C36.585,38.401 36.211,39.715 36.505,40.962L39.404,53.27C38.731,54.067 38.067,54.874 37.413,55.691L24.777,55.251C23.499,55.21 22.287,55.831 21.573,56.892C20.861,57.957 20.751,59.318 21.282,60.483L26.516,71.966C26.007,72.888 25.504,73.818 25.017,74.762L12.567,76.787C10.785,77.078 9.462,78.633 9.462,80.439C9.462,81.215 9.707,81.971 10.16,82.601L17.525,92.83C17.203,93.842 16.895,94.858 16.6,95.878L4.792,100.293C3.35,100.833 2.389,102.219 2.389,103.758C2.389,104.784 2.816,105.765 3.566,106.464L12.804,115.078C12.689,116.118 12.587,117.165 12.499,118.209L1.751,124.862C0.664,125.536 0,126.728 0,128.007C0,129.291 0.663,130.48 1.751,131.15L12.499,137.803C12.587,138.851 12.689,139.895 12.804,140.934L3.566,149.551C2.815,150.25 2.388,151.231 2.388,152.257C2.388,153.796 3.35,155.181 4.792,155.72L16.6,160.135C16.894,161.157 17.205,162.172 17.525,163.182L10.16,173.413C9.413,174.452 9.256,175.807 9.745,176.989C10.234,178.173 11.305,179.021 12.57,179.225L25.017,181.25C25.504,182.194 26.003,183.124 26.516,184.051L21.282,195.529C20.749,196.694 20.859,198.056 21.573,199.12C22.282,200.186 23.498,200.809 24.777,200.761L37.408,200.319C38.063,201.136 38.728,201.945 39.404,202.745L36.505,215.055C36.21,216.3 36.584,217.612 37.491,218.514C38.395,219.422 39.711,219.796 40.957,219.497L53.262,216.599C54.062,217.279 54.872,217.939 55.689,218.59L55.248,231.228C55.246,231.273 55.246,231.317 55.246,231.362C55.246,233.388 56.913,235.056 58.94,235.056C59.471,235.056 59.995,234.941 60.478,234.72L71.959,229.489C72.884,230.002 73.813,230.501 74.755,230.988L76.785,243.433C76.988,244.698 77.836,245.769 79.02,246.258C80.203,246.749 81.559,246.593 82.599,245.845L92.828,238.475C93.838,238.795 94.853,239.108 95.875,239.402L100.29,251.206C100.737,252.405 101.778,253.29 103.034,253.537C104.289,253.79 105.589,253.37 106.459,252.431L115.076,243.193C116.115,243.313 117.162,243.413 118.209,243.506L124.862,254.254C125.536,255.341 126.726,256.004 128.005,256.005C129.284,256.005 130.476,255.341 131.15,254.254L137.803,243.506C138.85,243.413 139.895,243.313 140.934,243.193L149.549,252.431C150.419,253.37 151.718,253.789 152.973,253.537C154.229,253.29 155.27,252.405 155.717,251.206L160.132,239.402C161.154,239.108 162.17,238.795 163.18,238.475L173.411,245.845C174.04,246.297 174.796,246.541 175.571,246.541C177.378,246.541 178.934,245.217 179.223,243.433L181.253,230.988C182.192,230.501 183.121,229.995 184.048,229.489L195.529,234.72C196.693,235.254 198.054,235.145 199.118,234.434C200.182,233.722 200.804,232.507 200.759,231.228L200.319,218.59C201.137,217.939 201.945,217.276 202.742,216.599L215.048,219.497C216.293,219.794 217.608,219.421 218.511,218.514C219.418,217.612 219.792,216.3 219.497,215.055L216.599,202.745C217.274,201.945 217.939,201.14 218.59,200.319L231.225,200.761C232.504,200.809 233.72,200.186 234.429,199.12C235.144,198.056 235.254,196.693 234.718,195.529L229.486,184.051C229.999,183.125 230.498,182.191 230.983,181.25L243.433,179.225C244.698,179.022 245.769,178.174 246.255,176.989C246.744,175.807 246.587,174.452 245.84,173.413L238.475,163.182C238.794,162.173 239.103,161.157 239.4,160.135L251.206,155.72C252.406,155.273 253.29,154.231 253.537,152.975C253.789,151.72 253.37,150.421 252.431,149.551L243.196,140.934C243.308,139.895 243.411,138.848 243.501,137.803L254.249,131.15C255.337,130.478 256.001,129.286 256,128.007C256,126.726 255.34,125.535 254.251,124.862M182.319,214.018C178.215,213.133 175.605,209.087 176.486,204.971C177.364,200.859 181.407,198.242 185.509,199.127C189.613,200.006 192.227,204.058 191.347,208.168C190.466,212.277 186.421,214.896 182.319,214.018M178.667,189.319C178.19,189.217 177.703,189.165 177.215,189.165C173.956,189.165 171.116,191.464 170.437,194.651L166.621,212.458C154.846,217.802 141.771,220.771 128,220.771C113.914,220.771 100.554,217.655 88.569,212.083L84.756,194.277C83.954,190.53 80.27,188.143 76.528,188.947L60.808,192.323C57.886,189.316 55.17,186.115 52.68,182.742L129.169,182.742C130.035,182.742 130.612,182.586 130.612,181.798L130.612,154.741C130.612,153.954 130.035,153.797 129.169,153.797L106.799,153.797L106.799,136.646L130.994,136.646C133.202,136.646 142.803,137.277 145.872,149.549C146.834,153.323 148.944,165.599 150.388,169.529C151.826,173.937 157.681,182.742 163.921,182.742L202.036,182.742C202.469,182.742 202.931,182.693 203.418,182.605C200.773,186.196 197.876,189.595 194.749,192.775L178.667,189.319ZM72.876,213.646C68.772,214.532 64.731,211.915 63.848,207.803C62.97,203.684 65.58,199.641 69.684,198.756C73.765,197.884 77.84,200.525 78.712,204.606C79.59,208.715 76.978,212.766 72.876,213.646M43.86,95.985C45.563,99.828 43.831,104.331 39.993,106.031C36.156,107.736 31.665,106.001 29.963,102.156C28.271,98.34 30.016,93.807 33.83,92.111C34.8,91.681 35.85,91.458 36.911,91.458C39.914,91.458 42.647,93.238 43.86,95.985M34.942,117.125L51.318,109.849C54.796,108.303 56.387,104.17 54.842,100.691L51.47,93.065L64.734,93.065L64.734,152.853L37.973,152.853C35.601,144.502 34.401,135.862 34.407,127.181C34.407,123.783 34.59,120.425 34.942,117.125M106.804,111.319L106.804,93.696L138.39,93.696C140.022,93.696 149.911,95.582 149.911,102.976C149.911,109.115 142.326,111.316 136.089,111.316L106.804,111.316L106.804,111.319ZM221.596,127.181C221.596,129.518 221.51,131.834 221.339,134.129L211.736,134.129C210.775,134.129 210.388,134.761 210.388,135.702L210.388,140.112C210.388,150.493 204.535,152.75 199.406,153.325C194.522,153.875 189.106,151.28 188.439,148.291C185.557,132.085 180.756,128.624 173.174,122.643C182.583,116.668 192.374,107.853 192.374,96.054C192.374,83.313 183.64,75.288 177.686,71.352C169.334,65.847 160.086,64.744 157.591,64.744L58.279,64.744C71.746,49.713 89.998,39.066 110.641,35.192L122.347,47.473C123.653,48.843 125.466,49.62 127.359,49.62C129.142,49.62 130.858,48.931 132.146,47.698L145.244,35.17C172.689,40.279 195.926,57.364 209.317,80.803L200.35,101.056C198.802,104.561 200.382,108.66 203.877,110.213L221.141,117.881C221.439,120.946 221.596,124.042 221.596,127.181M122.352,24.745C125.385,21.84 130.196,21.955 133.1,24.992C135.998,28.038 135.888,32.854 132.848,35.757C129.815,38.663 125.004,38.55 122.1,35.507C119.222,32.484 119.335,27.63 122.352,24.745M211.335,96.355C212.548,93.609 215.279,91.829 218.281,91.829C219.343,91.829 220.393,92.052 221.363,92.483C225.201,94.185 226.933,98.686 225.23,102.528C224.017,105.275 221.285,107.056 218.282,107.056C217.22,107.056 216.17,106.834 215.2,106.403C211.367,104.7 209.635,100.202 211.335,96.355" style="fill:#fff;fill-opacity:0.95;fill-rule:nonzero;"/>
                    </g>
                </g>
            </g>
        </g>
    </g>
</svg>
