<?xml version="1.0" encoding="UTF-8" standalone="no"?>
<!DOCTYPE svg PUBLIC "-//W3C//DTD SVG 1.1//EN" "http://www.w3.org/Graphics/SVG/1.1/DTD/svg11.dtd">
<svg width="100%" height="100%" viewBox="0 0 512 512" version="1.1" xmlns="http://www.w3.org/2000/svg" xmlns:xlink="http://www.w3.org/1999/xlink" xml:space="preserve" xmlns:serif="http://www.serif.com/" style="fill-rule:evenodd;clip-rule:evenodd;stroke-linejoin:round;stroke-miterlimit:2;">
    <g transform="matrix(1,0,0,1,-44,-45)">
        <g id="sass" transform="matrix(2.32458,0,0,2.32458,-317.594,-364.657)">
            <g id="back" transform="matrix(0.430185,0,0,0.430185,125.869,146.545)">
                <path d="M581,191.18C581,123.747 526.253,69 458.82,69L191.18,69C123.747,69 69,123.747 69,191.18L69,458.82C69,526.253 123.747,581 191.18,581L458.82,581C526.253,581 581,526.253 581,458.82L581,191.18Z" style="fill:#8cc84b;"/>
            </g>
            <g transform="matrix(0.647562,0,0,0.647562,265.679,296.883)">
                <g transform="matrix(1,0,0,1,-128,-146.5)">
                    <path d="M250.351,157.95C240.141,156.76 232.174,158.192 225.991,160.768C227.136,163.748 228.016,166.851 228.14,169.979C228.427,176.842 223.703,181.921 218.78,185.547C215.905,187.661 212.846,189.07 210.278,189.921C208.225,190.787 205.496,191.682 203.559,191.287C199.289,190.419 197.016,186.625 199.921,178.259C201.49,173.731 206.016,166.838 213.322,160.901C211.657,157.473 209.801,153.98 208.855,150.771C206.991,144.445 206.428,140.621 206.428,140.621C206.428,140.621 200.406,153.106 192.637,164.46C192.189,165.119 191.742,165.767 191.294,166.412C192.82,169.958 194.022,173.708 194.185,177.488C194.471,184.351 191.5,189.54 186.57,193.158C183.901,195.125 181.054,196.485 178.611,197.35C177.049,198.032 173.872,199.154 169.354,199.456C166.883,199.625 164.506,199.472 163.179,198.466C161.352,197.086 161.132,195.383 162.078,193.056C162.878,191.081 168.863,184.249 173.881,178.267C175.218,176.666 176.514,175.03 177.768,173.363L177.739,173.297C177.739,173.298 178.648,172.124 180.123,170.076C178.289,166.127 175.964,162.016 174.871,158.288C173.007,151.962 172.443,148.137 172.443,148.137C172.443,148.137 166.339,163.786 159.98,176.278C155.059,185.952 151.772,191.815 150.291,194.385L150.276,194.488C150.276,194.488 150.055,194.863 149.674,195.45L149.389,195.926L149.381,195.881C147.73,198.32 144.026,203.097 140.344,203.097C130.236,203.097 133.947,182.568 133.947,182.568C133.947,182.568 130.992,190.172 127.661,196.696C124.948,202.018 122.476,206.526 117.07,206.526C115.515,206.526 113.05,206.481 111.003,204.535C106.36,200.124 102.81,188.923 103.506,180.248C104.1,172.872 105.237,167.762 106.792,163.5C103.684,165.191 100.603,166.931 97.55,168.719L92.532,171.676L92.694,171.97C96.845,180 97.953,197.593 88.901,211.098C79.85,224.61 63.001,232.831 46.585,228.266C41.288,226.79 33.286,215.832 40.188,200.558C46.276,187.089 70.607,174.355 77.019,171.177L78.779,170.208C65.995,159.022 34.071,143.932 29.597,120.753C28.335,114.228 31.394,98.624 50.553,80.686C66.668,65.603 89.085,54.05 109.793,46.688C144.583,34.321 181.341,41.616 186.996,63.797C192.556,85.611 173.632,111.704 149.396,121.084C127.757,129.458 109.866,128.13 102.516,125.716C94.161,122.971 89.261,117.458 88.066,114.346C87.596,113.128 86.788,111.081 88.066,110.376C88.85,109.943 89.165,110.046 91.263,112.365C93.259,114.567 101.283,120.476 116.526,118.765C156.526,114.281 180.621,83.182 173.007,66.447C167.675,54.733 136.845,49.448 98.327,68.656C51.308,92.099 48.756,111.424 48.353,118.765C47.252,138.956 73.255,149.577 87.325,164.593L87.867,165.188C90.5,163.735 93.281,162.201 96.009,160.704C103.103,156.806 109.793,153.15 112.91,151.446C117.862,144.249 127.91,136.306 135.165,136.306C146.762,136.306 142.779,152.975 142.779,152.975C142.779,152.975 143.014,152.212 143.329,152.205C143.659,152.196 144.936,150.009 148.516,151.315C152.198,152.666 151.361,155.25 151.384,155.514C151.428,156.027 147.034,170.845 145.208,180.351C144.334,184.887 144.84,188.19 145.098,188.19C145.457,188.19 146.191,187.038 146.873,185.798L146.858,185.761C146.858,185.761 147.371,184.821 148.23,183.134L148.399,182.781L148.406,182.797C149.828,179.992 151.187,177.155 152.484,174.29C155.704,167.193 167.99,139.793 169.032,136.762C170.074,133.731 170.616,130.596 171.13,129.253C171.636,127.909 175.979,126.897 181.054,126.933C186.13,126.971 186.645,129.136 186.68,129.583C186.717,130.03 184.267,136.043 183.702,140.292C183.145,144.542 183.681,146.662 184.143,150.23C184.444,152.563 185.903,155.522 187.628,158.875C192.88,150.288 202.121,133.862 203.009,129.26C203.617,126.112 204.593,123.095 205.107,121.751C205.62,120.408 209.956,119.396 215.031,119.432C220.107,119.469 220.62,121.634 220.657,122.082C220.694,122.53 218.236,128.541 217.679,132.791C217.121,137.033 217.658,139.162 218.119,142.729C218.516,145.782 220.877,149.885 223.218,154.552C229.606,151.403 237.125,149.29 245.928,149.246C249.573,149.225 253.806,149.591 255.992,150.273L256,158.956C254.547,158.528 252.42,158.19 250.351,157.95ZM78.67,179.029C74.02,181.937 67.014,186.648 61.594,191.772C52.696,200.175 50.834,211.831 55.528,214.554C59.87,217.071 70.007,214.076 77.262,206.163C84.876,197.855 88.016,187.323 84.773,175.367C84.392,175.594 84.018,175.821 83.651,176.034L83.659,176.05L83.167,176.329C81.666,177.225 80.167,178.125 78.67,179.029ZM171.682,190.765C171.682,190.765 170.905,191.5 171.241,191.705C171.696,191.976 172.679,191.624 173.75,191.065C176.78,189.159 183.579,184.402 183.594,177.363C183.594,177.158 183.586,176.96 183.572,176.747C182.167,178.59 180.739,180.415 179.288,182.222C177.146,184.886 171.682,190.765 171.682,190.765ZM127.119,151.013C124.662,153.765 120.474,160.862 118.515,166.802C114.62,178.595 116.307,190.582 119.065,191.302C122.285,192.145 127.567,176.38 130.096,170.214C131.681,166.353 137.843,149.216 136.493,146.926C135.439,145.135 131.073,146.581 127.119,151.013ZM209.341,175.256C206.707,180.981 206.575,182.823 207.375,183.396C211.197,182.023 217.52,178.714 217.57,169.847C217.578,168.518 217.285,167.094 216.815,165.605C212.729,169.223 210.374,173.011 209.341,175.256Z" style="fill:#fff;"/>
                </g>
            </g>
        </g>
    </g>
</svg>
