<?xml version="1.0" encoding="UTF-8" standalone="no"?>
<!DOCTYPE svg PUBLIC "-//W3C//DTD SVG 1.1//EN" "http://www.w3.org/Graphics/SVG/1.1/DTD/svg11.dtd">
<svg width="100%" height="100%" viewBox="0 0 512 512" version="1.1" xmlns="http://www.w3.org/2000/svg" xmlns:xlink="http://www.w3.org/1999/xlink" xml:space="preserve" xmlns:serif="http://www.serif.com/" style="fill-rule:evenodd;clip-rule:evenodd;stroke-linejoin:round;stroke-miterlimit:2;">
    <g transform="matrix(1,0,0,1,-44,-45)">
        <g id="stylus" transform="matrix(2.32458,0,0,2.32458,-317.594,-364.657)">
            <g id="back" transform="matrix(0.430185,0,0,0.430185,125.869,146.545)">
                <path d="M581,191.18C581,123.747 526.253,69 458.82,69L191.18,69C123.747,69 69,123.747 69,191.18L69,458.82C69,526.253 123.747,581 191.18,581L458.82,581C526.253,581 581,526.253 581,458.82L581,191.18Z" style="fill:#252525;"/>
            </g>
            <g transform="matrix(0.0578847,0,0,0.0578847,265.679,286.355)">
                <g transform="matrix(1,0,0,1,-1250,-1191.5)">
                    <path d="M314.131,962.721C342.451,962.721 365.361,966.588 382.764,974.342C400.166,982.076 408.857,991.725 408.857,1003.35C408.857,1017.53 405.283,1033.63 398.213,1051.67C391.113,1069.71 384.346,1084.52 377.91,1096.12C375.322,1098.71 372.119,1099.02 368.252,1097.1C364.385,1095.15 362.441,1091.63 362.441,1086.46C366.318,1077.47 368.252,1064.57 368.252,1047.79C368.252,1029.76 363.418,1014.92 353.75,1003.34C344.092,991.734 330.859,985.943 314.131,985.943C292.197,985.943 274.502,992.701 260.967,1006.24C247.441,1019.76 240.674,1038.8 240.674,1063.24C240.674,1083.88 246.133,1103.54 257.1,1122.2C268.414,1141.49 280.671,1160.2 293.828,1178.28C307.656,1197.43 320.246,1217.45 331.523,1238.21C343.125,1259.48 348.926,1283.64 348.926,1310.7C348.926,1357.08 330.234,1393.16 292.871,1418.92C255.488,1444.73 206.514,1457.59 145.967,1457.59C102.148,1457.59 67.676,1450.51 42.549,1436.33C17.402,1422.17 4.854,1406.73 4.854,1389.95C4.854,1384.82 6.777,1377.71 10.645,1368.68C14.512,1359.68 19.648,1350.03 26.123,1339.67C32.775,1329.07 39.871,1318.75 47.393,1308.74C55.117,1298.44 63.477,1290.08 72.51,1283.64C76.377,1281.05 79.922,1281.68 83.154,1285.55C86.357,1289.42 86.689,1293.29 84.131,1297.15C76.387,1304.87 70.605,1312.94 66.719,1321.32C62.852,1329.69 60.918,1340.99 60.918,1355.14C60.918,1378.33 68.652,1397.37 84.131,1412.14C99.59,1426.99 119.551,1434.39 144.043,1434.39C177.539,1434.39 203.633,1425.05 222.334,1406.36C241.006,1387.7 250.361,1364.8 250.361,1337.73C250.361,1313.26 244.873,1290.38 233.926,1269.12C223.005,1247.93 211.074,1227.29 198.174,1207.25C185.379,1187.47 173.444,1167.15 162.402,1146.34C151.542,1126.15 145.895,1103.55 145.977,1080.62C145.977,1047.14 160.137,1019.1 188.506,996.559C216.816,974.059 258.701,962.721 314.131,962.721ZM841.826,972.418C848.271,974.996 850.85,978.561 849.58,983.063C848.262,987.584 842.48,991.109 832.168,993.688C812.832,993.688 790.615,994.352 765.488,995.611C740.342,996.9 713.584,998.854 685.264,1001.4C659.453,1064.58 638.203,1126.08 621.465,1186.02C604.697,1245.93 596.348,1294.6 596.348,1331.97C596.348,1375.77 613.066,1397.66 646.592,1397.66C680.088,1397.66 717.461,1368.69 758.73,1310.71C762.578,1308.12 766.123,1308.12 769.336,1310.71C772.549,1313.29 773.516,1317.78 772.256,1324.23C750.412,1360.23 722.251,1391.99 689.131,1417.99C655.605,1444.42 622.744,1457.6 590.547,1457.6C557.012,1457.6 532.217,1449.6 516.123,1433.44C500,1417.33 491.953,1395.11 491.953,1366.74C491.953,1329.4 500.957,1277.83 519.004,1212.11C537.051,1146.38 560.244,1079.41 588.613,1011.07C555.078,1014.94 524.16,1020.14 495.83,1026.55C489.365,1025.3 487.744,1022.06 490.986,1016.88C494.189,1011.75 499.99,1006.25 508.389,1000.46C516.738,994.635 526.748,989.508 538.34,984.977C549.932,980.484 560.889,978.219 571.201,978.219L586.67,978.219C591.816,978.219 596.982,977.584 602.139,976.295C618.495,939.716 635.898,903.613 654.326,868.033C672.363,833.229 690.391,801.686 708.457,773.307C716.172,764.303 726.816,756.246 740.342,749.137C753.867,742.086 767.08,736.588 779.961,732.711C792.832,728.844 803.467,726.607 811.875,725.943C820.234,725.318 823.76,727.584 822.52,732.711C800.576,766.246 779.023,803.6 757.744,844.83C735.924,887.268 715.615,930.465 696.855,974.342C721.328,973.072 746.152,972.418 771.27,972.418L841.826,972.418Z" style="fill:#606060;fill-rule:nonzero;"/>
                    <path d="M2014.64,5.25C2033.97,5.25 2049.73,10.094 2062,19.752C2074.22,29.41 2082.6,42.311 2087.12,58.424C2091.63,74.527 2092.26,92.896 2089.05,113.512C2085.83,134.146 2078.43,154.762 2066.83,175.367C2064.24,177.945 2061.03,177.945 2057.16,175.367C2053.3,172.779 2050.71,169.576 2049.43,165.699C2052,150.23 2046.54,137.359 2033,127.037C2019.47,116.744 1998.51,111.568 1970.18,111.568C1917.32,111.568 1864.17,131.227 1810.7,170.533C1757.22,209.859 1705.34,261.744 1655.1,326.139C1604.83,390.592 1557.78,464.713 1513.98,548.453C1470.19,632.135 1432.08,718.672 1399.92,807.477C1367.71,896.393 1342.24,984.674 1323.57,1072.3C1304.89,1159.96 1295.57,1239.83 1295.57,1312.02C1295.57,1350.65 1306.5,1370 1328.43,1370C1343.89,1370 1359.02,1363.55 1373.84,1350.65C1388.64,1337.78 1405.75,1318.46 1425.08,1292.66C1428.94,1290.12 1432.48,1290.44 1435.69,1293.64C1438.91,1296.89 1439.87,1301.06 1438.61,1306.19C1412.8,1344.86 1382.55,1377.08 1347.74,1402.84C1312.96,1428.64 1281.36,1441.51 1253.03,1441.51C1228.54,1441.51 1211.48,1434.42 1201.82,1420.23C1192.16,1406.07 1187.31,1388.05 1187.31,1366.13C1187.31,1305.55 1200.18,1229.82 1225.99,1139C1251.75,1048.14 1286.19,952.145 1329.4,850.963C1372.57,749.811 1422.5,648.971 1479.21,548.453C1535.91,447.936 1594.87,357.418 1656.09,276.871C1717.29,196.334 1778.85,130.924 1840.69,80.65C1902.51,30.367 1960.5,5.25 2014.65,5.25L2014.64,5.25ZM298.34,2380.56C279.004,2380.56 263.232,2375.73 250.967,2366.07C238.74,2356.41 230.361,2343.51 225.84,2327.4C221.348,2311.28 220.703,2292.93 223.906,2272.31C227.148,2251.68 234.541,2231.07 246.133,2210.45C248.73,2207.86 251.934,2207.86 255.801,2210.45C259.658,2213.01 262.246,2216.25 263.525,2220.12C260.967,2235.59 266.426,2248.46 279.961,2258.78C293.486,2269.07 314.443,2274.23 342.783,2274.23C395.635,2274.23 448.799,2254.58 502.256,2215.27C555.742,2175.98 607.627,2124.11 657.881,2059.69C708.135,1995.24 755.186,1921.14 798.994,1837.38C842.78,1753.69 880.877,1667.15 913.027,1578.35C945.254,1489.43 970.723,1401.16 989.395,1313.52C1008.08,1225.88 1017.4,1145.99 1017.4,1073.82C1017.4,1035.15 1006.47,1015.84 984.541,1015.84C969.072,1015.84 953.936,1022.25 939.131,1035.15C924.326,1048.01 907.217,1067.38 887.891,1093.16C884.033,1095.7 880.498,1095.39 877.275,1092.18C874.072,1088.94 873.105,1084.75 874.365,1079.6C900.166,1040.96 930.42,1008.72 965.225,982.945C1000.01,957.184 1031.6,944.312 1059.94,944.312C1084.43,944.312 1101.49,951.363 1111.15,965.553C1120.82,979.742 1125.66,997.779 1125.66,1019.7C1125.66,1080.27 1112.79,1155.96 1086.99,1246.83C1061.23,1337.69 1026.78,1433.68 983.574,1534.86C940.41,1636.01 890.469,1736.85 833.77,1837.37C777.061,1937.89 718.105,2028.4 656.885,2108.95C595.693,2189.49 534.131,2254.91 472.275,2305.15C410.449,2355.43 352.461,2380.56 298.34,2380.56Z" style="fill:#b3d107;fill-rule:nonzero;"/>
                    <path d="M1604.14,1457.59C1550.01,1457.59 1522.95,1427.95 1522.95,1368.68C1522.95,1348.07 1525.18,1324.23 1529.71,1297.17C1534.21,1270.08 1541.33,1242.1 1550.98,1213.08C1560.64,1184.07 1571.89,1154.78 1584.8,1125.1C1597.69,1095.43 1613.22,1066.97 1631.19,1040.07C1617.31,1048.89 1603.78,1058.24 1590.62,1068.1C1578.32,1077.25 1566.69,1087.26 1555.81,1098.05C1551.94,1100.67 1548.39,1099.69 1545.18,1095.16C1541.95,1090.66 1541.63,1086.47 1544.21,1082.6C1566.11,1059.39 1597.37,1035.58 1637.97,1011.06C1678.55,986.617 1717.52,967.262 1754.92,953.082C1761.36,953.082 1766.18,954.713 1769.41,957.926C1772.62,961.168 1772.96,965.348 1770.39,970.475C1729.33,1024.29 1695.83,1083.48 1670.83,1146.38C1645.7,1209.55 1633.13,1270.78 1633.13,1330.03C1633.13,1367.43 1644.76,1386.08 1667.94,1386.08C1684.67,1386.08 1705.29,1374.81 1729.79,1352.26C1754.27,1329.7 1780.06,1300.07 1807.13,1263.33C1834.18,1226.61 1861.54,1185.05 1889.28,1138.67C1916.74,1092.73 1942.21,1045.64 1965.64,997.525C1969.49,989.82 1980.78,982.076 1999.45,974.342C2018.13,966.588 2037.15,962.721 2056.48,962.721C2075.82,962.721 2081.61,967.916 2073.89,978.209C2057.22,1009.01 2041.43,1040.27 2026.52,1071.96C2013.41,1099.87 2002.12,1128.61 1992.71,1157.98C1983.73,1186.08 1976.94,1214.83 1972.4,1243.98C1967.86,1272.99 1965.63,1304.87 1965.63,1339.65C1965.63,1380.93 1976.57,1401.51 1998.51,1401.51C2020.4,1401.51 2044.89,1382.19 2071.95,1343.52C2075.83,1340.98 2079.7,1340.98 2083.55,1343.52C2087.42,1346.14 2088.69,1350.02 2087.42,1355.13C2065.5,1388.64 2041.33,1414.09 2014.93,1431.5C1988.51,1448.88 1964.35,1457.57 1942.45,1457.57C1888.31,1457.57 1861.26,1426.01 1861.26,1362.87C1861.26,1297.14 1872.84,1232.08 1896.05,1167.61C1847.06,1256.53 1795.53,1327.1 1741.42,1379.29C1687.27,1431.52 1641.49,1457.59 1604.14,1457.59ZM2402.45,962.721C2430.77,962.721 2453.69,966.588 2471.08,974.342C2488.49,982.076 2497.18,991.725 2497.18,1003.35C2497.18,1017.53 2493.61,1033.63 2486.55,1051.67C2479.43,1069.71 2472.69,1084.52 2466.24,1096.12C2463.64,1098.71 2460.45,1099.02 2456.57,1097.1C2452.72,1095.15 2450.78,1091.63 2450.78,1086.46C2454.65,1077.47 2456.58,1064.57 2456.58,1047.79C2456.58,1029.76 2451.76,1014.92 2442.09,1003.34C2432.42,991.734 2419.2,985.943 2402.46,985.943C2380.55,985.943 2362.84,992.701 2349.31,1006.24C2335.76,1019.77 2329.01,1038.8 2329.01,1063.24C2329.01,1083.88 2334.47,1103.54 2345.44,1122.2C2356.75,1141.49 2369.01,1160.2 2382.17,1178.28C2395.99,1197.43 2408.59,1217.45 2419.86,1238.21C2431.47,1259.48 2437.27,1283.64 2437.27,1310.7C2437.27,1357.08 2418.57,1393.16 2381.21,1418.92C2343.81,1444.73 2294.84,1457.59 2234.3,1457.59C2190.46,1457.59 2156.01,1450.51 2130.88,1436.33C2105.73,1422.17 2093.18,1406.73 2093.18,1389.95C2093.18,1384.82 2095.11,1377.71 2098.97,1368.68C2102.84,1359.68 2107.97,1350.03 2114.44,1339.67C2121.09,1329.07 2128.18,1318.75 2135.7,1308.74C2143.43,1298.44 2151.81,1290.08 2160.84,1283.64C2164.71,1281.05 2168.24,1281.68 2171.47,1285.55C2174.67,1289.42 2175.01,1293.29 2172.44,1297.15C2164.71,1304.87 2158.92,1312.94 2155.04,1321.32C2151.17,1329.69 2149.24,1340.99 2149.24,1355.14C2149.24,1378.33 2156.97,1397.37 2172.44,1412.14C2187.91,1426.99 2207.86,1434.39 2232.36,1434.39C2265.85,1434.39 2291.95,1425.05 2310.66,1406.36C2329.32,1387.7 2338.68,1364.8 2338.68,1337.73C2338.68,1313.26 2333.18,1290.38 2322.26,1269.12C2311.33,1247.93 2299.4,1227.29 2286.49,1207.25C2273.7,1187.47 2261.77,1167.15 2250.72,1146.34C2239.86,1126.15 2234.22,1103.55 2234.3,1080.62C2234.3,1047.14 2248.46,1019.1 2276.82,996.559C2305.14,974.059 2347.01,962.721 2402.45,962.721Z" style="fill:#606060;fill-rule:nonzero;"/>
                </g>
            </g>
        </g>
    </g>
</svg>
