<?xml version="1.0" encoding="UTF-8" standalone="no"?>
<!DOCTYPE svg PUBLIC "-//W3C//DTD SVG 1.1//EN" "http://www.w3.org/Graphics/SVG/1.1/DTD/svg11.dtd">
<svg width="100%" height="100%" viewBox="0 0 512 512" version="1.1" xmlns="http://www.w3.org/2000/svg" xmlns:xlink="http://www.w3.org/1999/xlink" xml:space="preserve" xmlns:serif="http://www.serif.com/" style="fill-rule:evenodd;clip-rule:evenodd;stroke-linejoin:round;stroke-miterlimit:2;">
    <g transform="matrix(1,0,0,1,-44,-44)">
        <g id="symfony" transform="matrix(2.32458,0,0,2.32458,-317.594,-365.657)">
            <g id="back" transform="matrix(0.430185,0,0,0.430185,125.869,146.545)">
                <path d="M581,191.18C581,123.747 526.253,69 458.82,69L191.18,69C123.747,69 69,123.747 69,191.18L69,458.82C69,526.253 123.747,581 191.18,581L458.82,581C526.253,581 581,526.253 581,458.82L581,191.18Z" style="fill:#202938;"/>
            </g>
            <g transform="matrix(0.908017,0,0,0.908017,265.679,286.355)">
                <g transform="matrix(1,0,0,1,-67.55,-81.35)">
                    <clipPath id="_clip1">
                        <rect x="0" y="0" width="135.1" height="162.7"/>
                    </clipPath>
                    <g clip-path="url(#_clip1)">
                        <g transform="matrix(1,0,0,1,-33.714,-28.3715)">
                            <g id="compacte">
                                <g opacity="0.95">
                                    <g transform="matrix(1,0,0,1,1.367,1.74795)">
                                        <path d="M99.895,28.369C68.922,28.369 43.815,53.477 43.815,84.448C43.815,115.425 68.922,140.536 99.895,140.536C130.871,140.536 155.979,115.425 155.979,84.448C155.979,53.478 130.87,28.369 99.895,28.369ZM130.141,60.829C127.544,60.919 125.751,59.367 125.67,57.011C125.641,56.147 125.864,55.391 126.456,54.507C127.035,53.373 127.159,53.243 127.144,52.75C127.091,51.265 124.849,51.209 124.235,51.238C115.816,51.516 113.597,62.878 111.798,72.116L110.917,76.988C115.765,77.697 119.206,76.823 121.126,75.581C123.829,73.826 120.37,72.023 120.806,70.028C121.248,67.994 123.098,67.012 124.569,66.971C126.627,66.92 128.095,69.055 128.048,71.222C127.975,74.804 123.223,79.725 113.719,79.524C112.561,79.497 111.494,79.416 110.502,79.296L108.709,89.193C107.104,96.689 104.969,106.929 97.338,115.865C90.783,123.657 84.129,124.869 81.15,124.969C75.576,125.157 71.88,122.186 71.75,118.219C71.621,114.379 75.018,112.283 77.246,112.208C80.221,112.109 82.279,114.264 82.357,116.748C82.433,118.852 81.336,119.508 80.609,119.904C80.125,120.294 79.394,120.691 79.421,121.556C79.439,121.928 79.837,122.78 81.075,122.742C83.43,122.659 84.995,121.494 86.089,120.716C91.519,116.191 93.609,108.307 96.345,93.955L96.919,90.474C97.853,85.807 98.888,80.602 100.466,75.415C96.638,72.533 94.345,68.961 89.195,67.564C85.668,66.606 83.515,67.419 82.004,69.332C80.213,71.598 80.807,74.546 82.537,76.274L85.396,79.437C88.902,83.487 90.818,86.639 90.097,90.878C88.952,97.646 80.89,102.839 71.355,99.904C63.218,97.397 61.699,91.636 62.675,88.463C63.536,85.67 65.755,85.142 67.927,85.808C70.251,86.527 71.161,89.352 70.497,91.521C70.423,91.753 70.304,92.14 70.059,92.661C69.789,93.258 69.289,93.783 69.075,94.482C68.552,96.185 70.887,97.396 72.514,97.895C76.155,99.013 79.705,97.111 80.606,94.164C81.444,91.458 79.731,89.569 79.022,88.845L75.575,85.154C73.999,83.398 70.528,78.501 72.221,73.003C72.873,70.882 74.248,68.633 76.241,67.144C80.452,64.007 85.028,63.492 89.387,64.745C95.028,66.367 97.737,70.097 101.25,72.978C103.217,67.209 105.941,61.563 110.041,56.798C113.744,52.458 118.717,49.314 124.414,49.118C130.106,48.93 134.409,51.511 134.551,55.595C134.61,57.333 133.613,60.713 130.141,60.829Z" style="fill:#fff;fill-rule:nonzero;"/>
                                    </g>
                                    <g>
                                        <g>
                                            <path d="M120.717,163.885C126.382,163.885 130.182,167.979 130.182,173.642C130.182,178.979 126.309,183.4 120.717,183.4C115.09,183.4 111.215,178.979 111.215,173.642C111.215,167.979 115.016,163.885 120.717,163.885ZM120.717,180.624C124.736,180.624 126.527,176.97 126.527,173.642C126.527,170.099 124.372,166.663 120.717,166.663C117.028,166.663 114.871,170.099 114.871,173.642C114.871,176.97 116.66,180.624 120.717,180.624Z" style="fill:#fff;fill-rule:nonzero;"/>
                                        </g>
                                        <path d="M110.744,165.62L110.744,164.323L105.81,164.323L105.81,162.551C105.81,160.03 106.175,158.128 109.134,158.128C109.191,158.128 109.247,158.132 109.304,158.134C109.31,158.134 109.31,158.125 109.318,158.125C110.136,158.186 110.82,157.516 110.867,156.695L110.928,155.57C110.233,155.46 109.5,155.35 108.625,155.35C103.547,155.35 102.377,158.31 102.377,162.843L102.377,164.322L97.99,164.322L97.99,165.769C98.101,166.519 98.744,167.096 99.527,167.096C99.531,167.096 99.535,167.1 99.539,167.1L102.377,167.1L102.377,182.96L104.27,182.96C104.274,182.96 104.272,182.958 104.276,182.958C105.061,182.958 105.706,182.369 105.811,181.612L105.811,167.099L109.247,167.099C110.059,167.075 110.707,166.429 110.744,165.62Z" style="fill:#fff;fill-rule:nonzero;"/>
                                        <path d="M64.988,164.323C64.982,164.323 64.978,164.327 64.97,164.327C64.245,164.327 63.544,164.825 63.24,165.497L58.511,179.746L58.439,179.746L53.816,165.505C53.513,164.829 52.808,164.327 52.08,164.327C52.074,164.327 52.07,164.323 52.062,164.323L49.667,164.323L55.989,181.719C56.21,182.34 56.649,183.29 56.649,183.692C56.649,184.057 55.624,188.296 52.553,188.296C52.477,188.296 52.401,188.288 52.326,188.282C51.543,188.239 50.951,188.786 50.818,189.629L50.726,190.818C51.347,190.927 51.97,191.074 53.066,191.074C57.597,191.074 58.949,186.943 60.228,183.363L67.099,164.322L64.988,164.322L64.988,164.323Z" style="fill:#fff;fill-rule:nonzero;"/>
                                        <path d="M43.15,168.109C40.312,166.658 37.209,165.671 37.154,162.752C37.164,159.649 40.013,158.835 42.211,158.838C42.219,158.836 42.229,158.836 42.234,158.836C43.187,158.836 43.951,158.931 44.695,159.095C44.705,159.095 44.703,159.083 44.715,159.083C45.502,159.14 46.162,158.524 46.256,157.749L46.318,156.622C44.879,156.265 43.373,156.083 42.064,156.083C37.287,156.112 33.742,158.516 33.73,163.101C33.736,167.11 36.439,168.663 39.345,170.071C42.195,171.441 45.316,172.573 45.343,175.881C45.325,179.333 41.995,180.607 39.7,180.61C38.356,180.606 36.899,180.271 35.671,179.883C34.901,179.756 34.271,180.436 34.171,181.335L34.067,182.339C35.755,182.885 37.485,183.36 39.225,183.36L39.247,183.36C44.597,183.321 48.755,181.187 48.77,175.648C48.764,171.374 46.043,169.58 43.15,168.109Z" style="fill:#fff;fill-rule:nonzero;"/>
                                        <path d="M95.107,182.962C95.109,182.962 95.109,182.96 95.111,182.96C95.853,182.96 96.47,182.441 96.629,181.745L96.629,171.012C96.629,166.955 94.912,163.885 90.158,163.885C88.478,163.885 85.666,164.837 84.387,167.504C83.399,164.982 81.244,163.885 79.088,163.885C76.346,163.885 74.483,164.871 73.168,167.029L73.094,167.029L73.094,165.87C73.082,165.017 72.393,164.328 71.537,164.328C71.531,164.328 71.527,164.324 71.521,164.324L69.878,164.324L69.878,182.963L71.737,182.963C71.739,182.963 71.739,182.961 71.741,182.961C72.602,182.961 73.3,182.263 73.3,181.403C73.3,181.381 73.308,181.371 73.314,181.355L73.314,173.572C73.314,170.099 74.701,166.664 78.209,166.664C80.986,166.664 81.537,169.551 81.537,171.852L81.537,182.962L83.422,182.962C83.424,182.962 83.424,182.96 83.428,182.96C84.24,182.96 84.899,182.336 84.971,181.543L84.971,173.571C84.971,170.098 86.36,166.663 89.867,166.663C92.644,166.663 93.193,169.55 93.193,171.851L93.193,182.961L95.107,182.961L95.107,182.962Z" style="fill:#fff;fill-rule:nonzero;"/>
                                        <path d="M148.192,182.962C148.195,182.962 148.195,182.96 148.198,182.96C149.034,182.96 149.71,182.3 149.748,181.474L149.748,171.89C149.748,166.883 147.591,163.885 142.767,163.885C140.173,163.885 137.69,165.165 136.665,167.286L136.593,167.286L136.593,165.892C136.593,165.89 136.589,165.89 136.589,165.887C136.589,165.025 135.892,164.326 135.031,164.326C135.023,164.326 135.02,164.322 135.014,164.322L133.264,164.322L133.264,182.961L135.152,182.961C135.153,182.961 135.153,182.959 135.157,182.959C135.973,182.959 136.636,182.326 136.701,181.525L136.701,174.336C136.701,169.806 138.457,166.662 142.365,166.662C145.364,166.845 146.311,168.964 146.311,173.312L146.311,182.96L148.192,182.96L148.192,182.962Z" style="fill:#fff;fill-rule:nonzero;"/>
                                        <path d="M166.685,164.323C166.679,164.323 166.676,164.327 166.667,164.327C165.943,164.327 165.241,164.825 164.937,165.497L160.211,179.746L160.136,179.746L155.513,165.505C155.21,164.829 154.505,164.327 153.777,164.327C153.771,164.327 153.766,164.323 153.761,164.323L151.366,164.323L157.687,181.719C157.907,182.34 158.347,183.29 158.347,183.692C158.347,184.057 157.322,188.296 154.252,188.296C154.175,188.296 154.1,188.288 154.023,188.282C153.242,188.239 152.65,188.786 152.518,189.629L152.425,190.818C153.046,190.927 153.669,191.074 154.764,191.074C159.296,191.074 160.649,186.943 161.928,183.363L168.798,164.322L166.685,164.322L166.685,164.323Z" style="fill:#fff;fill-rule:nonzero;"/>
                                    </g>
                                </g>
                            </g>
                        </g>
                    </g>
                </g>
            </g>
        </g>
    </g>
</svg>
