<?xml version="1.0" encoding="UTF-8" standalone="no"?>
<!DOCTYPE svg PUBLIC "-//W3C//DTD SVG 1.1//EN" "http://www.w3.org/Graphics/SVG/1.1/DTD/svg11.dtd">
<svg width="100%" height="100%" viewBox="0 0 512 512" version="1.1" xmlns="http://www.w3.org/2000/svg" xmlns:xlink="http://www.w3.org/1999/xlink" xml:space="preserve" xmlns:serif="http://www.serif.com/" style="fill-rule:evenodd;clip-rule:evenodd;stroke-linejoin:round;stroke-miterlimit:2;">
    <g transform="matrix(1,0,0,1,-44,-44)">
        <g id="tailwind" transform="matrix(2.32458,0,0,2.32458,-317.594,-364.657)">
            <g id="back" transform="matrix(0.430185,0,0,0.430185,125.869,146.115)">
                <path d="M581,191.18C581,123.747 526.253,69 458.82,69L191.18,69C123.747,69 69,123.747 69,191.18L69,458.82C69,526.253 123.747,581 191.18,581L458.82,581C526.253,581 581,526.253 581,458.82L581,191.18Z" style="fill:rgb(15,23,42);"/>
            </g>
            <g transform="matrix(3.12595,0,0,3.2392,191.939,236.631)">
                <g id="logo">
                    <path d="M25.517,0C18.712,0 14.46,3.382 12.758,10.146C15.31,6.764 18.287,5.496 21.689,6.341C23.63,6.823 25.018,8.223 26.553,9.773C29.055,12.297 31.951,15.218 38.275,15.218C45.079,15.218 49.332,11.836 51.033,5.073C48.482,8.455 45.505,9.723 42.103,8.877C40.161,8.395 38.773,6.995 37.238,5.446C34.736,2.92 31.841,0 25.517,0ZM12.758,15.218C5.954,15.218 1.701,18.6 0,25.364C2.552,21.982 5.529,20.714 8.93,21.559C10.872,22.041 12.26,23.441 13.795,24.991C16.297,27.515 19.192,30.436 25.517,30.436C32.321,30.436 36.574,27.055 38.275,20.291C35.723,23.673 32.746,24.941 29.344,24.096C27.403,23.613 26.015,22.213 24.48,20.664C21.978,18.14 19.082,15.218 12.758,15.218Z" style="fill:rgb(56,189,248);"/>
                </g>
            </g>
        </g>
    </g>
</svg>
