<?xml version="1.0" encoding="UTF-8" standalone="no"?>
<!DOCTYPE svg PUBLIC "-//W3C//DTD SVG 1.1//EN" "http://www.w3.org/Graphics/SVG/1.1/DTD/svg11.dtd">
<svg width="100%" height="100%" viewBox="0 0 512 513" version="1.1" xmlns="http://www.w3.org/2000/svg" xmlns:xlink="http://www.w3.org/1999/xlink" xml:space="preserve" xmlns:serif="http://www.serif.com/" style="fill-rule:evenodd;clip-rule:evenodd;stroke-linejoin:round;stroke-miterlimit:2;">
    <g transform="matrix(1,0,0,1,-44,-44)">
        <g id="type-script" transform="matrix(2.32458,0,0,2.32458,-317.594,-365.157)">
            <g id="back" transform="matrix(0.430185,0,0,0.430185,125.869,146.545)">
                <path d="M581,191.18C581,123.747 526.253,69 458.82,69L191.18,69C123.747,69 69,123.747 69,191.18L69,458.82C69,526.253 123.747,581 191.18,581L458.82,581C526.253,581 581,526.253 581,458.82L581,191.18Z" style="fill:#0079cc;"/>
            </g>
            <g transform="matrix(1.17629,0,0,1.17629,283.171,307.08)">
                <g transform="matrix(1,0,0,1,-64,-64)">
                    <path d="M102.23,58.91C105.224,59.605 107.945,61.171 110.05,63.41C111.209,64.617 112.216,65.96 113.05,67.41C113.05,67.57 107.65,71.22 104.36,73.26C104.24,73.34 103.76,72.82 103.23,72.03C102.011,69.926 99.79,68.591 97.36,68.5C93.57,68.24 91.13,70.23 91.15,73.5C91.12,74.314 91.306,75.122 91.69,75.84C92.52,77.57 94.07,78.6 98.93,80.7C107.88,84.55 111.71,87.09 114.09,90.7C116.75,94.7 117.34,101.16 115.54,105.94C113.54,111.14 108.64,114.67 101.71,115.84C98.545,116.203 95.347,116.169 92.19,115.74C87.352,114.943 82.894,112.619 79.47,109.11C78.32,107.84 76.08,104.53 76.22,104.29C76.584,104.018 76.969,103.774 77.37,103.56L82,101L85.59,98.92L86.34,100.03C87.606,101.84 89.217,103.383 91.08,104.57C95.08,106.67 100.54,106.38 103.24,103.95C105.103,102.12 105.395,99.192 103.93,97.03C102.93,95.64 100.93,94.47 95.34,92.03C88.89,89.25 86.11,87.53 83.57,84.79C81.985,82.982 80.814,80.848 80.14,78.54C79.638,75.902 79.563,73.201 79.92,70.54C81.25,64.31 85.92,59.96 92.74,58.67C95.898,58.28 99.098,58.367 102.23,58.93L102.23,58.91ZM72.89,64.15L72.89,69.27L56.66,69.27L56.66,115.5L45.15,115.5L45.15,69.26L28.88,69.26L28.88,64.26C28.829,62.536 28.869,60.81 29,59.09C29.08,59 39,59 51,59L72.83,59L72.89,64.15Z" style="fill:#fff;fill-rule:nonzero;"/>
                </g>
            </g>
        </g>
    </g>
</svg>
