<?xml version="1.0" encoding="UTF-8" standalone="no"?>
<!DOCTYPE svg PUBLIC "-//W3C//DTD SVG 1.1//EN" "http://www.w3.org/Graphics/SVG/1.1/DTD/svg11.dtd">
<svg width="100%" height="100%" viewBox="0 0 512 512" version="1.1" xmlns="http://www.w3.org/2000/svg" xmlns:xlink="http://www.w3.org/1999/xlink" xml:space="preserve" xmlns:serif="http://www.serif.com/" style="fill-rule:evenodd;clip-rule:evenodd;stroke-linejoin:round;stroke-miterlimit:2;">
    <g transform="matrix(1,0,0,1,-44,-45)">
        <g transform="matrix(1,0,0,1,0,1)">
            <g id="ubuntu">
                <g id="back" transform="matrix(1,0,0,1,-25,-25)">
                    <path d="M581,191.18C581,123.747 526.253,69 458.82,69L191.18,69C123.747,69 69,123.747 69,191.18L69,458.82C69,526.253 123.747,581 191.18,581L458.82,581C526.253,581 581,526.253 581,458.82L581,191.18Z" style="fill:#520f40;"/>
                </g>
                <g transform="matrix(0.133623,0,0,0.133623,300,434.146)">
                    <g transform="matrix(1,0,0,1,-1250,-330)">
                        <clipPath id="_clip1">
                            <rect x="0" y="0" width="2500" height="660"/>
                        </clipPath>
                        <g clip-path="url(#_clip1)">
                            <g transform="matrix(1,0,0,1,0,-1454.04)">
                                <path d="M2313.58,2034.44C2372.51,2039.25 2420.62,2026.62 2420.62,2026.62L2420.62,1656.18L2500,1656.18L2500,2082.55C2438.26,2096.38 2257.45,2155.32 2177.07,2036.85C2144.32,1980.12 2144.59,1915.97 2144.59,1915.97L2144.59,1656.18L2227.58,1656.18C2227.58,1656.18 2227.43,1878.82 2227.28,1917.18C2227.28,1986.13 2258.92,2034.44 2313.58,2034.44ZM2074.63,2023.03C2074.63,2023.03 2058.2,2039.17 1992.85,2044.68C1925.49,2044.68 1909.86,1987.45 1910.26,1962.09L1910.26,1735.18L2074.63,1735.18L2074.63,1669.43L1910.26,1669.43L1910.26,1531.51L1830.08,1547.55L1830.08,1951.67C1830.08,1951.67 1832.88,2038.67 1867.76,2073.55C1902.64,2108.43 1960.78,2136.09 2092.27,2090.39C2080.8,2041.61 2074.63,2023.03 2074.63,2023.03ZM1563.64,1708.72C1504.7,1703.91 1456.6,1716.54 1456.6,1716.54L1456.6,2086.98L1377.21,2086.98L1377.21,1660.61C1438.95,1646.78 1619.77,1587.85 1700.15,1706.32C1732.89,1763.04 1732.62,1827.19 1732.62,1827.19L1732.62,2086.98L1649.63,2086.98C1649.63,2086.98 1649.78,1864.35 1649.93,1825.98C1649.93,1757.03 1618.29,1708.72 1563.64,1708.72ZM1083.29,2034.44C1142.23,2039.25 1190.34,2026.62 1190.34,2026.62L1190.34,1656.18L1269.71,1656.18L1269.71,2082.55C1207.98,2096.38 1027.16,2155.32 946.781,2036.85C914.038,1980.12 914.308,1915.97 914.308,1915.97L914.308,1656.18L997.296,1656.18C997.296,1656.18 997.147,1878.82 996.998,1917.18C997.003,1986.13 1028.64,2034.44 1083.29,2034.44ZM527.615,2032.32L527.615,1761.11C527.615,1761.11 545.054,1726.83 622.631,1726.83C700.207,1726.83 711.031,1749.68 720.052,1759.9C729.072,1770.13 748.918,1789.97 748.918,1864.54C750.722,1949.94 732.681,2043.75 616.617,2043.75C546.483,2043.75 533.551,2040.82 527.615,2032.32ZM447.335,2087.88C447.335,2087.88 500.255,2114.34 608.501,2114.34C716.747,2114.34 833.412,2054.2 833.412,1877.4C833.412,1700.6 698.22,1651.28 638.329,1651.28C578.437,1651.28 527.62,1686.16 527.62,1686.16L527.62,1454.04L447.335,1466.06L447.335,2087.88ZM169.253,2034.44C228.187,2039.25 276.297,2026.62 276.297,2026.62L276.297,1656.18L355.677,1656.18L355.677,2082.55C293.938,2096.38 113.124,2155.32 32.743,2036.85C-0,1980.12 0.269,1915.97 0.269,1915.97L0.269,1656.18L83.258,1656.18C83.258,1656.18 83.109,1878.82 82.96,1917.18C82.964,1986.13 114.601,2034.44 169.253,2034.44Z" style="fill:#fff;fill-opacity:0.95;fill-rule:nonzero;"/>
                            </g>
                        </g>
                    </g>
                </g>
                <g transform="matrix(0.118041,0,0,0.118041,300,255.432)">
                    <g transform="matrix(1,0,0,1,-1250,-1079.5)">
                        <g transform="matrix(1.62911,0,0,1.62911,-966.444,-4.1657)">
                            <path d="M699.019,665.192C699.019,1030.53 995.179,1326.69 1360.52,1326.69C1725.85,1326.69 2022.02,1030.53 2022.02,665.192C2022.02,299.855 1725.85,3.689 1360.53,3.689C995.179,3.685 699.019,299.855 699.019,665.192Z" style="fill:#de4815;fill-rule:nonzero;"/>
                            <path d="M1004.52,563.932C1022.02,575.111 1036.57,590.346 1046.93,608.342C1082.05,669.176 1062.39,746.502 1003.28,783.406C1011.91,812.959 1024.04,841.371 1039.43,868.036C1071.91,924.299 1107.52,963.711 1158.97,995.977L1225.26,881.155C1193.27,860.194 1174.44,837.279 1154.01,801.885C1084.26,681.083 1125.66,526.609 1246.45,456.86L1180.3,342.283C1092.18,393.173 1031.88,473.664 1004.52,563.932ZM1654.73,413.542L1653.44,412.816L1652.45,414.538L1653.44,412.816L1652.7,412.397C1650.7,413.701 1648.67,414.971 1646.58,416.179C1584.43,452.068 1505.02,430.785 1469.14,368.627C1456.12,346.078 1450.54,323.121 1451.79,298.931C1377.07,283.219 1297.48,289.665 1223.51,320.893L1290.44,436.822C1402.55,398.046 1529.96,442.764 1591.48,549.316C1612.86,586.24 1624.49,628.007 1625.28,670.667L1757.37,670.667C1757.42,670.422 1757.51,670.191 1757.6,669.965C1756.75,606.388 1740.11,542.148 1706.06,483.161C1691.61,458.104 1674.4,434.751 1654.73,413.542ZM1266.4,906.133L1200.63,1020.04C1289.63,1065.76 1391.01,1073.78 1489.49,1042.33C1490.95,998.994 1514.07,957.375 1554.4,934.09C1589.65,913.739 1630.46,911.772 1665.73,925.233C1715.86,866.4 1746.54,794.159 1755.12,718.772L1621.58,718.772C1609.18,789.969 1566.52,855.373 1499.03,894.332C1423.61,937.881 1339.64,940.657 1266.87,905.32" style="fill:#fff;fill-rule:nonzero;"/>
                            <path d="M1571.62,964.211C1618.8,936.976 1679.07,953.117 1706.31,1000.29C1733.54,1047.48 1717.41,1107.76 1670.22,1134.98C1623.04,1162.21 1562.76,1146.08 1535.54,1098.89C1508.29,1051.71 1524.44,991.441 1571.62,964.211ZM1539.88,205.301C1587.06,178.071 1647.33,194.212 1674.56,241.378C1701.79,288.569 1685.66,348.845 1638.47,376.065C1591.29,403.304 1531.02,387.173 1503.79,339.983C1476.55,292.817 1492.69,232.536 1539.88,205.301ZM877.206,588.881C924.391,561.647 984.663,577.787 1011.9,624.958C1039.12,672.149 1022.99,732.425 975.806,759.645C928.635,786.885 868.359,770.754 841.129,723.563C813.88,676.387 830.03,616.106 877.206,588.881Z" style="fill:#fff;fill-rule:nonzero;"/>
                        </g>
                    </g>
                </g>
            </g>
        </g>
    </g>
</svg>
