<?xml version="1.0" encoding="UTF-8" standalone="no"?>
<!DOCTYPE svg PUBLIC "-//W3C//DTD SVG 1.1//EN" "http://www.w3.org/Graphics/SVG/1.1/DTD/svg11.dtd">
<svg width="100%" height="100%" viewBox="0 0 512 512" version="1.1" xmlns="http://www.w3.org/2000/svg" xmlns:xlink="http://www.w3.org/1999/xlink" xml:space="preserve" xmlns:serif="http://www.serif.com/" style="fill-rule:evenodd;clip-rule:evenodd;stroke-linejoin:round;stroke-miterlimit:2;">
    <g transform="matrix(1,0,0,1,-43,-45)">
        <g id="vue" transform="matrix(2.32458,0,0,2.32458,-318.594,-364.657)">
            <g id="back" transform="matrix(0.430185,0,0,0.430185,125.869,146.545)">
                <path d="M581,191.18C581,123.747 526.253,69 458.82,69L191.18,69C123.747,69 69,123.747 69,191.18L69,458.82C69,526.253 123.747,581 191.18,581L458.82,581C526.253,581 581,526.253 581,458.82L581,191.18Z" style="fill:rgb(20,35,50);"/>
            </g>
            <g transform="matrix(0.733513,0,0,0.733513,265.679,295.711)">
                <g transform="matrix(1,0,0,1,-98.16,-85.01)">
                    <path d="M120.83,0L98.16,39.26L75.49,0L0,0L98.16,170.02L196.32,0L120.83,0Z" style="fill:rgb(66,184,131);fill-rule:nonzero;"/>
                    <path d="M120.83,0L98.16,39.26L75.49,0L39.26,0L98.16,102.01L157.06,0L120.83,0Z" style="fill:rgb(53,73,94);fill-rule:nonzero;"/>
                </g>
            </g>
        </g>
    </g>
</svg>
