<?xml version="1.0" encoding="UTF-8" standalone="no"?>
<!DOCTYPE svg PUBLIC "-//W3C//DTD SVG 1.1//EN" "http://www.w3.org/Graphics/SVG/1.1/DTD/svg11.dtd">
<svg width="100%" height="100%" viewBox="0 0 512 512" version="1.1" xmlns="http://www.w3.org/2000/svg" xmlns:xlink="http://www.w3.org/1999/xlink" xml:space="preserve" xmlns:serif="http://www.serif.com/" style="fill-rule:evenodd;clip-rule:evenodd;stroke-linejoin:round;stroke-miterlimit:2;">
    <g transform="matrix(1,0,0,1,-44,-45)">
        <g transform="matrix(1,0,0,1,0,1)">
            <g id="windows">
                <g id="back" transform="matrix(1,0,0,1,-25,-25)">
                    <path d="M581,191.18C581,123.747 526.253,69 458.82,69L191.18,69C123.747,69 69,123.747 69,191.18L69,458.82C69,526.253 123.747,581 191.18,581L458.82,581C526.253,581 581,526.253 581,458.82L581,191.18Z" style="fill:#2f76bc;"/>
                </g>
                <g transform="matrix(0.187119,0,0,0.187119,300,300)">
                    <g transform="matrix(1,0,0,1,-821,-823)">
                        <g transform="matrix(4.04035,0,0,4.04035,25.308,24.512)">
                            <path d="M180.39,31.198C251.419,20.33 322.582,10.093 393.746,0.216C393.791,62.586 393.746,124.911 393.791,187.28C322.673,187.551 251.554,188.633 180.39,188.859C180.345,136.275 180.345,83.737 180.39,31.198M0,56.363C53.485,48.11 107.197,40.985 160.908,34.265C160.953,85.992 160.953,137.673 160.998,189.4C107.332,189.355 53.666,190.167 0,190.031L0,56.363ZM0,206.312C53.62,206.131 107.242,206.988 160.863,206.898C160.863,258.76 160.998,310.622 160.908,362.484C107.332,354.547 53.666,347.602 0,340.341L0,206.312ZM180.074,208.386L393.746,208.386C393.836,270.576 393.746,332.765 393.746,395C322.718,384.357 251.554,374.48 180.39,364.829C180.3,312.697 180.165,260.564 180.074,208.386" style="fill:#fff;fill-rule:nonzero;"/>
                        </g>
                    </g>
                </g>
            </g>
        </g>
    </g>
</svg>
