<?xml version="1.0" encoding="UTF-8" standalone="no"?>
<!DOCTYPE svg PUBLIC "-//W3C//DTD SVG 1.1//EN" "http://www.w3.org/Graphics/SVG/1.1/DTD/svg11.dtd">
<svg width="100%" height="100%" viewBox="0 0 512 512" version="1.1" xmlns="http://www.w3.org/2000/svg" xmlns:xlink="http://www.w3.org/1999/xlink" xml:space="preserve" xmlns:serif="http://www.serif.com/" style="fill-rule:evenodd;clip-rule:evenodd;stroke-linejoin:round;stroke-miterlimit:2;">
    <g transform="matrix(1,0,0,1,-43,-45)">
        <g id="wordpress" transform="matrix(2.32458,0,0,2.32458,-318.594,-364.657)">
            <g id="back" transform="matrix(0.430185,0,0,0.430185,125.869,146.545)">
                <path d="M581,191.18C581,123.747 526.253,69 458.82,69L191.18,69C123.747,69 69,123.747 69,191.18L69,458.82C69,526.253 123.747,581 191.18,581L458.82,581C526.253,581 581,526.253 581,458.82L581,191.18Z" style="fill:rgb(33,117,155);"/>
            </g>
            <g transform="matrix(0.511989,0,0,0.511989,266.109,286.355)">
                <g transform="matrix(1,0,0,1,-128,-127.5)">
                    <g transform="matrix(0.973,0,0,0.973,3.936,3.44)">
                        <path d="M18.124,127.5C18.124,170.796 43.285,208.211 79.77,225.942L27.594,82.986C21.341,96.992 18.113,112.161 18.124,127.5M201.345,121.981C201.345,108.463 196.489,99.101 192.325,91.815C186.78,82.805 181.583,75.175 181.583,66.165C181.583,56.11 189.209,46.75 199.951,46.75C200.436,46.75 200.895,46.811 201.368,46.838C181.908,29.009 155.981,18.124 127.505,18.124C89.292,18.124 55.673,37.73 36.115,67.426C38.681,67.503 41.099,67.557 43.154,67.557C54.595,67.557 72.304,66.169 72.304,66.169C78.201,65.821 78.896,74.481 73.006,75.179C73.006,75.179 67.08,75.876 60.487,76.221L100.319,194.699L124.256,122.909L107.214,76.217C103.381,75.98 99.556,75.633 95.744,75.175C89.85,74.829 90.541,65.817 96.435,66.165C96.435,66.165 114.499,67.553 125.246,67.553C136.685,67.553 154.397,66.165 154.397,66.165C160.298,65.817 160.991,74.477 155.099,75.175C155.099,75.175 149.161,75.872 142.58,76.217L182.108,193.798L193.018,157.34C197.746,142.211 201.345,131.345 201.345,121.981M129.424,137.068L96.606,232.431C106.64,235.386 117.045,236.886 127.505,236.887C140.242,236.887 152.457,234.685 163.828,230.687C163.524,230.209 163.264,229.704 163.049,229.18L129.424,137.068ZM223.482,75.023C223.979,78.751 224.225,82.509 224.219,86.27C224.219,97.369 222.146,109.847 215.902,125.448L182.491,222.048C215.009,203.085 236.881,167.855 236.881,127.503C236.883,108.486 232.025,90.603 223.482,75.023M127.505,0C57.2,0 0,57.196 0,127.5C0,197.813 57.2,255.007 127.505,255.007C197.807,255.007 255.016,197.813 255.016,127.5C255.013,57.196 197.807,0 127.505,0M127.505,249.163C60.424,249.163 5.846,194.585 5.846,127.5C5.846,60.42 60.422,5.846 127.505,5.846C194.583,5.846 249.157,60.42 249.157,127.5C249.157,194.585 194.583,249.163 127.505,249.163" style="fill:white;fill-rule:nonzero;"/>
                    </g>
                </g>
            </g>
        </g>
    </g>
</svg>
