<?xml version="1.0" encoding="UTF-8" standalone="no"?>
<!DOCTYPE svg PUBLIC "-//W3C//DTD SVG 1.1//EN" "http://www.w3.org/Graphics/SVG/1.1/DTD/svg11.dtd">
<svg width="100%" height="100%" viewBox="0 0 512 513" version="1.1" xmlns="http://www.w3.org/2000/svg" xmlns:xlink="http://www.w3.org/1999/xlink" xml:space="preserve" xmlns:serif="http://www.serif.com/" style="fill-rule:evenodd;clip-rule:evenodd;stroke-linejoin:round;stroke-miterlimit:2;">
    <g transform="matrix(1,0,0,1,-44,-43)">
        <g id="yarn" transform="matrix(1,0,0,1,0,-0.5)">
            <g id="back" transform="matrix(1,0,0,1,-25,-25)">
                <path d="M581,191.18C581,123.747 526.253,69 458.82,69L191.18,69C123.747,69 69,123.747 69,191.18L69,458.82C69,526.253 123.747,581 191.18,581L458.82,581C526.253,581 581,526.253 581,458.82L581,191.18Z" style="fill:#2b8fbb;"/>
            </g>
            <g transform="matrix(0.434448,0,0,0.434448,-63.189,306.252)">
                <g opacity="0.95">
                    <g transform="matrix(1,0,0,1,0,0.5)">
                        <path d="M718.6,257.8C710.6,285.4 697.8,305.4 683.4,321.4L683.4,181C683.4,171.4 675,163.4 661.8,163.4C656.2,163.4 651.4,166.2 651.4,170.2C651.4,173 653,175.4 653,183L653,247.4C648.2,275.4 636.2,301.4 620.2,301.4C608.6,301.4 601.8,289.8 601.8,268.2C601.8,234.6 606.2,217 613.4,187.4C615,181.4 626.6,165.4 607,165.4C585.8,165.4 588.6,173.4 585.8,180.2C585.8,180.2 572.4,227.8 572.4,270.2C572.4,305 587,327.8 613.8,327.8C631,327.8 643.4,316.2 653,300.2L653,351C626.6,374.2 603.4,394.6 603.4,435C603.4,460.6 619.4,481 641.8,481C662.2,481 683.4,466.2 683.4,424.2L683.4,355C705,336.2 728.2,312.6 741.8,266.2C742.2,264.6 742.2,262.6 742.2,262.2C742.2,254.6 734.6,245.8 728.2,245.8C724.2,245.8 721,249.4 718.6,257.8ZM641.8,455.8C635.4,455.8 631.4,446.2 631.4,433.8C631.4,409.8 640.2,394.6 653,381.4L653,424.2C653,431.8 654.6,455.8 641.8,455.8Z" style="fill:#fff;fill-rule:nonzero;"/>
                    </g>
                    <g transform="matrix(1,0,0,1,0,0.5)">
                        <path d="M833.4,301C823.8,301 819.8,291.4 819.8,282.6L819.8,216.6C819.8,207 811.4,199 798.2,199C792.6,199 787.8,201.8 787.8,205.8C787.8,208.6 789.4,211 789.4,218.6L789.4,280.2C785,291.4 777.8,301 767,301C753,301 744.2,289 744.2,268.2C744.2,210.6 779.8,184.6 810.2,184.6C814.2,184.6 818.2,185.4 821.8,185.4C825.8,185.4 827,183 827,176.2C827,165.8 819.4,159.4 808.6,159.4C759.8,159.4 713.4,200.2 713.4,267C713.4,301 729.8,327.4 761,327.4C776.2,327.4 787.4,320.2 795.4,311C801.4,320.6 812.2,327.4 826.2,327.4C860.6,327.4 876.6,291.4 883.4,265C883.8,263.4 883.8,262.6 883.8,262.2C883.8,254.6 876.2,245.8 869.8,245.8C865.8,245.8 861.8,249.4 860.2,257.8C856.6,275.4 849.4,301 833.4,301Z" style="fill:#fff;fill-rule:nonzero;"/>
                    </g>
                    <g transform="matrix(1,0,0,1,0,0.5)">
                        <path d="M949,327.4C983.4,327.4 999,291.4 1006.2,265C1006.2,264.2 1006.6,263.4 1006.6,262.2C1006.6,254.6 999,245.8 992.6,245.8C988.6,245.8 984.6,249.4 983,257.8C979.4,275.4 972.6,301 954.2,301C943.4,301 938.2,290.6 938.2,279.4C938.2,239.4 956.2,192.2 956.2,187.4C957.8,178.2 941.8,165 937,165L916.2,165C912.2,165 908.2,165 895,163.4C890.6,147 879.4,142.2 869.8,142.2C859.4,142.2 849.8,149.4 849.8,160.6C849.8,172.2 857,180.6 867,186.2C866.6,206.6 865,239.8 860.6,255.8C857,269.4 877.8,283.8 883,267C890.2,243.8 892.6,209 893,193.4L927.8,193.4C915,227.8 907.8,256.2 907.8,281.8C907.8,317 930.2,327.4 949,327.4Z" style="fill:#fff;fill-rule:nonzero;"/>
                    </g>
                    <g transform="matrix(1,0,0,1,0,0.5)">
                        <path d="M984.6,309.8C984.6,324.6 995.8,327.4 1003.8,327.4C1015.4,327.4 1015,317.8 1015,310.2L1015,251.8C1017.8,220.2 1042.6,185.8 1054.2,185.8C1061.8,185.8 1062.6,196.2 1062.6,208.6L1062.6,289.8C1062.6,310.2 1075,327.4 1096.2,327.4C1130.6,327.4 1147.6,291.4 1154.4,265C1154.8,263.4 1154.8,262.6 1154.8,262.2C1154.8,254.6 1147.2,245.8 1140.8,245.8C1136.8,245.8 1132.8,249.4 1131.2,257.8C1127.6,275.4 1119.4,301 1103.4,301C1093,301 1093,286.2 1093,282.6L1093,199.8C1093,181.4 1086.6,159.4 1059.8,159.4C1040.2,159.4 1025.8,176.6 1015,199L1015,181C1015,171.4 1006.6,163.4 993.4,163.4C987.8,163.4 983,166.2 983,170.2C983,173 984.6,175.4 984.6,183L984.6,309.8Z" style="fill:#fff;fill-rule:nonzero;"/>
                    </g>
                </g>
            </g>
            <g transform="matrix(1.36796,0,0,1.36796,305,226.594)">
                <g transform="matrix(1,0,0,1,-79,-84.5)">
                    <g transform="matrix(1,0,0,1,-57.403,-43.4766)">
                        <path d="M203.317,174.06C195.41,175.938 191.407,177.668 181.622,184.043C166.351,193.927 149.646,198.524 149.646,198.524C149.646,198.524 148.263,200.599 144.259,201.538C137.341,203.219 111.296,204.652 108.924,204.701C102.548,204.751 98.644,203.07 97.557,200.451C94.246,192.544 102.301,189.084 102.301,189.084C102.301,189.084 100.522,187.997 99.484,187.008C98.545,186.069 97.557,184.192 97.26,184.883C96.025,187.898 95.382,195.262 92.071,198.573C87.524,203.169 78.925,201.637 73.835,198.968C68.25,196.003 74.23,189.035 74.23,189.035C74.23,189.035 71.215,190.814 68.794,187.157C66.619,183.796 64.593,178.063 65.137,170.996C65.73,162.941 74.724,155.132 74.724,155.132C74.724,155.132 73.143,143.222 78.332,131.015C83.027,119.895 95.679,110.95 95.679,110.95C95.679,110.95 85.053,99.188 89.007,88.612C91.577,81.693 92.615,81.742 93.455,81.446C96.42,80.309 99.286,79.073 101.412,76.751C112.037,65.285 125.578,67.459 125.578,67.459C125.578,67.459 132.003,47.938 137.934,51.744C139.762,52.93 146.335,67.558 146.335,67.558C146.335,67.558 153.353,63.456 154.144,64.988C158.394,73.242 158.888,89.007 157.01,98.595C153.847,114.409 145.94,122.91 142.777,128.247C142.036,129.483 151.277,133.387 157.109,149.547C162.496,164.324 157.702,176.729 158.542,178.113C158.69,178.36 158.74,178.459 158.74,178.459C158.74,178.459 164.917,178.953 177.322,171.293C183.944,167.191 191.802,162.595 200.747,162.496C209.396,162.347 209.841,172.479 203.317,174.06M215.08,166.795C214.19,159.778 208.259,154.934 200.649,155.033C189.282,155.181 179.744,161.063 173.418,164.967C170.947,166.499 168.822,167.636 166.993,168.476C167.388,162.743 167.042,155.231 164.077,146.978C160.469,137.093 155.626,131.015 152.167,127.506C156.17,121.674 161.656,113.174 164.225,100.028C166.449,88.809 165.758,71.364 160.667,61.578C159.629,59.602 157.9,58.168 155.725,57.575C154.836,57.328 153.155,56.834 149.844,57.773C144.853,47.444 143.123,46.357 141.788,45.467C139.021,43.688 135.759,43.293 132.695,44.429C128.593,45.912 125.084,49.866 121.773,56.883C121.297,57.874 120.852,58.879 120.439,59.898C114.162,60.343 104.278,62.616 95.926,71.66C94.888,72.797 92.862,73.637 90.737,74.428L90.786,74.428C86.437,75.96 84.46,79.518 82.039,85.943C78.678,94.937 82.137,103.784 85.547,109.517C80.902,113.668 74.724,120.29 71.463,128.049C67.41,137.637 66.965,147.027 67.114,152.117C63.654,155.775 58.317,162.644 57.724,170.354C56.933,181.127 60.837,188.442 62.567,191.11C63.061,191.901 63.605,192.544 64.198,193.186C64,194.52 63.951,195.954 64.247,197.436C64.89,200.896 67.064,203.713 70.375,205.492C76.899,208.951 85.992,210.434 93.01,206.925C95.531,209.594 100.127,212.164 108.479,212.164L108.973,212.164C111.098,212.164 138.082,210.731 145.94,208.803C149.449,207.963 151.87,206.48 153.452,205.146C158.493,203.564 172.429,198.82 185.575,190.32C194.866,184.29 198.079,183.005 204.998,181.325C211.719,179.694 215.92,173.566 215.08,166.795" style="fill:#fff;fill-opacity:0.95;fill-rule:nonzero;"/>
                    </g>
                </g>
            </g>
        </g>
    </g>
</svg>
